<?xml version="1.0" encoding="utf-8"?>
<!-- Generator: Adobe Illustrator 20.0.0, SVG Export Plug-In . SVG Version: 6.00 Build 0)  -->
<svg version="1.1" id="Layer_1" xmlns="http://www.w3.org/2000/svg" xmlns:xlink="http://www.w3.org/1999/xlink" x="0px" y="0px"
	 viewBox="0 0 100 100" style="enable-background:new 0 0 100 100;" xml:space="preserve">
<style type="text/css">
	.st0{fill:#7F4DA0;}
	.st1{fill:#E5E5E5;stroke:#7F4DA0;stroke-width:2;stroke-miterlimit:10;}
</style>
<g transform="matrix( 1.87542724609375, 0, 0, 1.87542724609375, -233.9,-292.85) ">
	<g>
		<g id="Layer5_0_MEMBER_0_FILL">
			<path class="st0" d="M177.6,183c0-7.2-2.6-13.3-7.7-18.3c-5.1-5.1-11.3-7.6-18.5-7.6s-13.4,2.5-18.5,7.6
				c-5.1,5.1-7.7,11.2-7.7,18.3s2.6,13.2,7.7,18.3c5.1,5.1,11.3,7.6,18.5,7.6s13.4-2.5,18.5-7.6S177.6,190.1,177.6,183z"/>
		</g>
	</g>
</g>
<g>
	<path class="st1" d="M39.9,27.6l32.5-6.1c1.1-0.3,2.3,0.6,2.5,1.7l8.7,47c0.3,1.1-0.6,2.3-1.7,2.5l-32.5,6.1
		C48.3,79,47.2,78.1,47,77l-8.7-46.9C38,29,38.8,27.8,39.9,27.6z"/>
	<path class="st1" d="M15.5,31.9l30.1-13.8c1.1-0.4,2.3,0,2.8,1l19.8,43.5c0.4,1.1,0,2.3-1,2.8L37.1,79.1c-1.1,0.4-2.3,0-2.8-1
		L14.4,34.7C14,33.6,14.4,32.3,15.5,31.9z"/>
	<path class="st1" d="M64.6,82.5l-33-2.8c-1.1-0.1-2-1.1-2-2.3l4.2-47.6c0.1-1.1,1.1-2,2.3-2l33,2.8c1.1,0.1,2,1.1,2,2.3L67,80.5
		C66.8,81.8,65.8,82.7,64.6,82.5z"/>
</g>
</svg>
