<?xml version="1.0" encoding="utf-8"?>
<!-- Generator: Adobe Illustrator 20.0.0, SVG Export Plug-In . SVG Version: 6.00 Build 0)  -->
<svg version="1.1" id="Layer_1" xmlns="http://www.w3.org/2000/svg" xmlns:xlink="http://www.w3.org/1999/xlink" x="0px" y="0px"
	 viewBox="0 0 247 60" style="enable-background:new 0 0 247 60;" xml:space="preserve">
<style type="text/css">
	.st0{fill:url(#SVGID_1_);}
	.st1{opacity:0.33;}
	.st2{fill:#FFFFFF;}
</style>
<g>
	<g>
		
			<linearGradient id="SVGID_1_" gradientUnits="userSpaceOnUse" x1="-7.2919" y1="1987.5905" x2="41.9038" y2="2030.3556" gradientTransform="matrix(1 0 0 1 0 -1989)">
			<stop  offset="0.1455" style="stop-color:#74C47C"/>
			<stop  offset="0.2096" style="stop-color:#72C079"/>
			<stop  offset="0.4061" style="stop-color:#6DB774"/>
			<stop  offset="0.5515" style="stop-color:#67AD6D"/>
			<stop  offset="0.9455" style="stop-color:#63A869"/>
		</linearGradient>
		<path class="st0" d="M29.4,3.8c-0.1,0-0.2,0-0.4,0c-7.3,0-13.9,2.8-18.7,7.6c-4.7,4.8-7.6,11.4-7.6,18.7
			c0,12.4,8.4,22.7,19.7,25.9c2.2,0.6,4.5,1,6.9,1c0.1,0,0.2,0,0.4,0c7.3,0,13.9-2.8,18.7-7.6c4.2-4.2,6.8-9.8,7.4-16.1
			c0.1-0.9,0.1-1.7,0.1-2.6C55.8,16,44,4,29.4,3.8z"/>
	</g>
	<g>
		<g class="st1">
			<path d="M25.7,19.5c0-0.5,0.1-0.9,0.5-1.2s0.7-0.5,1.2-0.5h5.2c0.5,0,0.9,0.1,1.2,0.5c0.4,0.4,0.5,0.7,0.5,1.2v6.9
				c0,0.2,0.1,0.5,0.5,0.5h6.9c0.5,0,0.9,0.1,1.2,0.5c0.4,0.4,0.5,0.7,0.5,1.2v5.2c0,0.5-0.1,0.9-0.5,1.2c-0.4,0.4-0.7,0.5-1.2,0.5
				h-6.9c-0.2,0-0.5,0.1-0.5,0.5v6.9c0,0.5-0.1,0.9-0.5,1.2c-0.4,0.4-0.7,0.5-1.2,0.5h-5.2c-0.5,0-0.9-0.1-1.2-0.5
				c-0.4-0.4-0.5-0.7-0.5-1.2V36c0-0.2-0.1-0.5-0.5-0.5h-6.9c-0.5,0-0.9-0.1-1.2-0.5c-0.4-0.4-0.5-0.7-0.5-1.2v-5.2
				c0-0.5,0.1-0.9,0.5-1.2s0.7-0.5,1.2-0.5h6.9c0.2,0,0.5-0.1,0.5-0.5V19.5z"/>
		</g>
		<g>
			<path class="st2" d="M24.4,18c0-0.5,0.1-0.9,0.5-1.2s0.7-0.5,1.2-0.5h5.1c0.5,0,0.9,0.1,1.2,0.5c0.4,0.4,0.5,0.7,0.5,1.2v7
				c0,0.2,0.1,0.5,0.5,0.5h6.9c0.5,0,0.9,0.1,1.2,0.5c0.4,0.4,0.5,0.7,0.5,1.2v5.2c0,0.5-0.1,0.9-0.5,1.2c-0.4,0.4-0.7,0.5-1.2,0.5
				h-6.9c-0.2,0-0.5,0.1-0.5,0.5v6.9c0,0.5-0.1,0.9-0.5,1.2c-0.3,0.4-0.7,0.5-1.2,0.5H26c-0.5,0-0.9-0.1-1.2-0.5
				c-0.4-0.4-0.5-0.7-0.5-1.2v-6.9c0-0.2-0.1-0.5-0.5-0.5h-6.9c-0.5,0-0.9-0.1-1.2-0.5s-0.5-0.7-0.5-1.2v-5.2c0-0.5,0.1-0.9,0.5-1.2
				c0.4-0.3,0.7-0.5,1.2-0.5h6.9c0.2,0,0.5-0.1,0.5-0.5L24.4,18L24.4,18z"/>
		</g>
	</g>
</g>
<g>
	<path class="st2" d="M78.4,51l-0.7-9.9h-4.3L72.6,51h-9l4.6-42.9h15L87.5,51H78.4z M75.8,17.1h-0.6l-1.4,15.4h3.5L75.8,17.1z"/>
	<path class="st2" d="M90.1,51V8.1h12c2.7,0,4.8,0.3,6.2,0.8c1.4,0.5,2.5,1.4,3.3,2.6c0.4,0.6,0.7,1.3,0.9,2.1
		c0.2,0.7,0.5,1.7,0.6,3c0.2,1.3,0.3,2.9,0.4,5c0.1,2,0.1,4.7,0.1,7.9s0,5.9-0.1,8s-0.2,3.7-0.4,5c-0.2,1.3-0.4,2.3-0.6,3.1
		s-0.6,1.4-0.9,2c-0.4,0.6-0.8,1.2-1.4,1.6c-0.5,0.4-1.2,0.8-1.9,1c-0.8,0.3-1.6,0.5-2.7,0.6c-1,0.1-2.2,0.2-3.6,0.2
		C102,51,90.1,51,90.1,51z M101.9,41.5c0.7,0,1.2-0.1,1.5-0.2c0.3-0.2,0.5-0.4,0.7-0.8c0.1-0.3,0.2-0.6,0.2-0.9
		c0.1-0.4,0.1-0.9,0.2-1.7c0-0.8,0.1-1.9,0.1-3.2s0-3.1,0-5.3s0-4,0-5.4s0-2.5-0.1-3.3s-0.1-1.4-0.2-1.8s-0.2-0.7-0.2-1
		c-0.2-0.3-0.4-0.5-0.7-0.7c-0.3-0.2-0.8-0.2-1.5-0.2H99v24.4h2.9V41.5z"/>
	<path class="st2" d="M116.8,51V8.1h12c2.7,0,4.8,0.3,6.2,0.8s2.5,1.4,3.3,2.6c0.4,0.6,0.7,1.3,0.9,2.1c0.2,0.7,0.5,1.7,0.6,3
		c0.2,1.3,0.3,2.9,0.4,5c0.1,2,0.1,4.7,0.1,7.9s0,5.9-0.1,8s-0.2,3.7-0.4,5s-0.4,2.3-0.6,3.1c-0.2,0.8-0.6,1.4-0.9,2
		c-0.4,0.6-0.8,1.2-1.4,1.6c-0.5,0.4-1.2,0.8-1.9,1c-0.8,0.3-1.6,0.5-2.7,0.6c-1,0.1-2.2,0.2-3.6,0.2C128.7,51,116.8,51,116.8,51z
		 M128.6,41.5c0.7,0,1.2-0.1,1.5-0.2c0.3-0.2,0.5-0.4,0.7-0.8c0.1-0.3,0.2-0.6,0.2-0.9c0.1-0.4,0.1-0.9,0.2-1.7
		c0-0.8,0.1-1.9,0.1-3.2s0-3.1,0-5.3s0-4,0-5.4s0-2.5-0.1-3.3s-0.1-1.4-0.2-1.8c-0.1-0.4-0.2-0.7-0.2-1c-0.2-0.3-0.4-0.5-0.7-0.7
		s-0.8-0.2-1.5-0.2h-2.8v24.4h2.8V41.5z"/>
	<path class="st2" d="M168.2,51l-0.7-9.9h-4.3l-0.7,9.9h-9l4.6-42.9h15l4.3,42.9H168.2z M165.6,17.1H165l-1.4,15.4h3.5L165.6,17.1z"
		/>
	<path class="st2" d="M180,51V8.1h8.9v33.4h9.2V51H180z"/>
	<path class="st2" d="M200.7,51V8.1h8.9v33.4h9.2V51H200.7z"/>
</g>
</svg>
