<?xml version="1.0" encoding="utf-8"?>
<!-- Generator: Adobe Illustrator 20.0.0, SVG Export Plug-In . SVG Version: 6.00 Build 0)  -->
<svg version="1.1" id="Layer_1" xmlns="http://www.w3.org/2000/svg" xmlns:xlink="http://www.w3.org/1999/xlink" x="0px" y="0px"
	 viewBox="0 0 306 60" style="enable-background:new 0 0 306 60;" xml:space="preserve">
<style type="text/css">
	.st0{fill:#FFFFFF;}
	.st1{fill:url(#SVGID_1_);}
	.st2{opacity:0.33;}
</style>
<g>
	<path class="st0" d="M77.7,50.3c-0.1-0.3-0.2-0.7-0.3-1.1c-0.1-0.4-0.2-1-0.3-1.8s-0.3-1.9-0.5-3.4c-0.2-1.4-0.4-3.4-0.7-5.9
		c-0.1-1-0.2-1.8-0.3-2.4c-0.1-0.6-0.2-1.1-0.4-1.4c-0.2-0.3-0.3-0.5-0.6-0.6c-0.2-0.1-0.5-0.1-0.7-0.1h-1.4v16.7h-8.9V7.4h13
		c1.9,0,3.5,0.2,4.8,0.7c1.2,0.4,2.2,1.1,3,2c0.7,0.9,1.2,2.1,1.5,3.6c0.3,1.5,0.4,3.2,0.4,5.3c0,2.2-0.1,4-0.2,5.2
		c-0.2,1.3-0.4,2.3-0.7,3s-0.7,1.3-1.2,1.6c-0.5,0.4-1,0.7-1.6,1v0.3c0.2,0.2,0.5,0.4,0.7,0.6c0.2,0.2,0.5,0.6,0.7,1.1
		c0.3,0.7,0.6,1.7,0.9,3.1c0.3,1.4,0.6,3.3,0.9,5.8c0.2,1.7,0.4,3.1,0.5,4.2c0.1,1.1,0.2,1.9,0.3,2.5c0.1,0.6,0.2,1.1,0.2,1.5
		s0.1,0.7,0.3,1v0.3H77.7z M75.1,25.6c0.8,0,1.4-0.3,1.8-1c0.3-0.7,0.5-2,0.5-4.1c0-1.7-0.2-2.8-0.6-3.4c-0.4-0.6-1-0.9-1.9-0.9
		h-2.3v9.3H75.1z"/>
	<path class="st0" d="M89.9,50.3V7.4h19v9.1H98.8V24h9.9v8.7h-9.9v8.1h10v9.5H89.9z"/>
	<path class="st0" d="M138.1,50.3V24.5h-0.3l-6.5,25.7h-3.9l-6.6-25.7h-0.3v25.7h-8.1V7.4h12.6l4,18.6h0.4l4.4-18.6h12.5l0.1,42.9
		H138.1z"/>
	<path class="st0" d="M170.4,47.5c-0.4,0.7-0.8,1.2-1.3,1.7c-0.5,0.4-1.1,0.8-1.9,1.1c-0.8,0.3-1.6,0.5-2.7,0.6
		c-1,0.1-2.2,0.2-3.6,0.2c-2.8,0-4.8-0.3-6.3-0.8c-1.4-0.5-2.5-1.4-3.3-2.7c-0.4-0.6-0.7-1.4-1-2.1c-0.3-0.8-0.5-1.8-0.7-3.1
		c-0.2-1.3-0.3-3-0.4-5.2c-0.1-2.1-0.1-4.9-0.1-8.2s0-6.1,0.1-8.2c0.1-2.1,0.2-3.8,0.4-5.2s0.4-2.4,0.7-3.1c0.3-0.8,0.6-1.5,1-2.2
		c0.4-0.6,0.8-1.2,1.3-1.6s1.1-0.8,1.9-1.1c0.8-0.3,1.7-0.5,2.7-0.6c1-0.1,2.2-0.2,3.6-0.2c2.7,0,4.8,0.3,6.2,0.8
		c1.4,0.5,2.5,1.4,3.3,2.7c0.4,0.7,0.7,1.4,1,2.2c0.3,0.8,0.5,1.8,0.7,3.1c0.2,1.3,0.3,3,0.4,5.2c0.1,2.1,0.1,4.9,0.1,8.2
		s0,6.1-0.1,8.2c-0.1,2.1-0.2,3.9-0.4,5.2c-0.2,1.3-0.4,2.4-0.7,3.1C171.1,46.1,170.8,46.8,170.4,47.5z M163.1,40.4
		c0.1-0.3,0.2-0.6,0.2-1c0.1-0.4,0.1-1,0.2-1.9c0-0.8,0.1-2,0.1-3.4c0-1.4,0-3.3,0-5.6c0-2.4,0-4.3,0-5.7c0-1.4,0-2.6-0.1-3.4
		c0-0.9-0.1-1.5-0.2-1.9c-0.1-0.4-0.2-0.8-0.2-1c-0.2-0.4-0.4-0.7-0.7-0.8c-0.3-0.2-0.8-0.3-1.5-0.3c-0.7,0-1.2,0.1-1.6,0.3
		s-0.5,0.4-0.7,0.8c-0.1,0.3-0.2,0.6-0.3,1c-0.1,0.4-0.1,1-0.2,1.9c-0.1,0.8-0.1,2-0.1,3.4c0,1.4,0,3.3,0,5.7c0,2.3,0,4.2,0,5.6
		c0,1.4,0.1,2.5,0.1,3.4s0.1,1.5,0.2,1.9s0.1,0.8,0.3,1c0.1,0.4,0.3,0.6,0.7,0.8c0.3,0.2,0.8,0.2,1.6,0.2c0.7,0,1.2-0.1,1.5-0.2
		C162.7,41,163,40.8,163.1,40.4z"/>
	<path class="st0" d="M178.9,50.3l-5.1-42.9h9.6l2.4,30.2h0.6l2.3-30.2h9.5l-5.4,42.9H178.9z"/>
	<path class="st0" d="M200.8,50.3V7.4h19v9.1h-10.1V24h9.9v8.7h-9.9v8.1h10v9.5H200.8z"/>
	<path class="st0" d="M248,50.3l-0.7-9.9H243l-0.7,9.9h-9l4.6-42.9h15l4.3,42.9H248z M245.4,16.3h-0.6l-1.4,15.4h3.5L245.4,16.3z"/>
	<path class="st0" d="M259.8,50.3V7.4h8.9v33.4h9.2v9.5H259.8z"/>
	<path class="st0" d="M280.5,50.3V7.4h8.9v33.4h9.2v9.5H280.5z"/>
</g>
<g>
	<g>
		
			<linearGradient id="SVGID_1_" gradientUnits="userSpaceOnUse" x1="-7.2919" y1="-1237.5905" x2="41.9038" y2="-1280.3556" gradientTransform="matrix(1 0 0 -1 0 -1239)">
			<stop  offset="0" style="stop-color:#F94E55"/>
			<stop  offset="4.372164e-02" style="stop-color:#F64D52"/>
			<stop  offset="0.2182" style="stop-color:#ED4A4A"/>
			<stop  offset="0.6899" style="stop-color:#DB444B"/>
		</linearGradient>
		<path class="st1" d="M29.4,3.8c-0.1,0-0.2,0-0.4,0c-7.3,0-13.9,2.8-18.7,7.6c-4.7,4.8-7.6,11.4-7.6,18.7
			c0,12.4,8.4,22.7,19.7,25.9c2.2,0.6,4.5,1,6.9,1c0.1,0,0.2,0,0.4,0c7.3,0,13.9-2.8,18.7-7.6c4.2-4.2,6.8-9.8,7.4-16.1
			c0.1-0.9,0.1-1.7,0.1-2.6C55.8,16,44,4,29.4,3.8z"/>
	</g>
	<g>
		<g class="st2">
			<path d="M41.4,26.6c0.5,0,0.9,0.2,1.3,0.5c0.3,0.3,0.5,0.8,0.5,1.3v5.4c0,0.5-0.2,0.9-0.5,1.3c-0.3,0.3-0.8,0.5-1.3,0.5H17.2
				c-0.5,0-0.9-0.2-1.3-0.5c-0.3-0.4-0.5-0.8-0.5-1.3v-5.4c0-0.5,0.2-0.9,0.5-1.3c0.4-0.3,0.8-0.5,1.3-0.5H41.4z"/>
		</g>
		<g>
			<path class="st0" d="M40.8,25.9c0.5,0,0.9,0.2,1.3,0.5c0.3,0.3,0.5,0.8,0.5,1.3v5.4c0,0.5-0.2,0.9-0.5,1.3
				c-0.3,0.3-0.8,0.5-1.3,0.5H16.7c-0.5,0-0.9-0.2-1.3-0.5c-0.3-0.4-0.5-0.8-0.5-1.3v-5.4c0-0.5,0.2-0.9,0.5-1.3
				c0.4-0.3,0.8-0.5,1.3-0.5C16.7,25.9,40.8,25.9,40.8,25.9z"/>
		</g>
	</g>
</g>
</svg>
