<?xml version="1.0" encoding="utf-8"?>
<!-- Generator: Adobe Illustrator 20.0.0, SVG Export Plug-In . SVG Version: 6.00 Build 0)  -->
<svg version="1.1" id="Layer_1" xmlns="http://www.w3.org/2000/svg" xmlns:xlink="http://www.w3.org/1999/xlink" x="0px" y="0px"
	 viewBox="0 0 120 120" style="enable-background:new 0 0 120 120;" xml:space="preserve">
<style type="text/css">
	.st0{fill:#E5E5E5;stroke:#494949;stroke-width:3;stroke-miterlimit:10;}
	.st1{fill:#E24949;}
	.st2{fill:#FFFFFF;}
</style>
<path class="st0" d="M45.5,27l51.4-9.6c1.8-0.4,3.6,0.9,3.9,2.7l13.8,74.2c0.4,1.8-0.9,3.6-2.7,3.9l-51.4,9.6
	c-1.8,0.4-3.6-0.9-3.9-2.7L42.8,31C42.5,29.3,43.7,27.4,45.5,27z"/>
<path class="st0" d="M6.9,33.8L54.5,12c1.7-0.7,3.7,0,4.4,1.6l31.3,68.7c0.7,1.7,0,3.7-1.6,4.4L41,108.5c-1.7,0.7-3.7,0-4.4-1.6
	L5.2,38.2C4.5,36.6,5.2,34.5,6.9,33.8z"/>
<path class="st0" d="M84.5,113.8l-52.1-4.5c-1.8-0.1-3.2-1.8-3.1-3.7L36,30.4c0.1-1.8,1.8-3.2,3.7-3.1l52.1,4.5
	c1.8,0.1,3.2,1.8,3.1,3.7l-6.6,75.2C88,112.7,86.4,114.1,84.5,113.8z"/>
<g>
	<g>
		<path class="st1" d="M88.2,6.6c-0.1,0-0.2,0-0.4,0c-7.3,0-13.9,2.8-18.7,7.6c-4.7,4.8-7.6,11.4-7.6,18.7
			c0,12.4,8.4,22.7,19.7,25.9c2.2,0.6,4.5,1,6.9,1c0.1,0,0.2,0,0.4,0c7.3,0,13.9-2.8,18.7-7.6c4.2-4.2,6.8-9.8,7.4-16.1
			c0.1-0.9,0.1-1.7,0.1-2.6C114.6,18.8,102.8,6.8,88.2,6.6z"/>
	</g>
	<g>
		<g>
			<path class="st2" d="M99.6,28.7c0.5,0,0.9,0.2,1.3,0.5c0.3,0.3,0.5,0.8,0.5,1.3v5.4c0,0.5-0.2,0.9-0.5,1.3
				c-0.3,0.3-0.8,0.5-1.3,0.5H75.5c-0.5,0-0.9-0.2-1.3-0.5c-0.3-0.4-0.5-0.8-0.5-1.3v-5.4c0-0.5,0.2-0.9,0.5-1.3
				c0.4-0.3,0.8-0.5,1.3-0.5C75.5,28.7,99.6,28.7,99.6,28.7z"/>
		</g>
	</g>
</g>
</svg>
