<?xml version="1.0" encoding="utf-8"?>
<!-- Generator: Adobe Illustrator 20.0.0, SVG Export Plug-In . SVG Version: 6.00 Build 0)  -->
<svg version="1.1" id="Layer_1" xmlns="http://www.w3.org/2000/svg" xmlns:xlink="http://www.w3.org/1999/xlink" x="0px" y="0px"
	 viewBox="0 0 120 120" style="enable-background:new 0 0 120 120;" xml:space="preserve">
<style type="text/css">
	.st0{fill:#1F2227;}
	.st1{fill:#E5E5E5;stroke:#494949;stroke-width:3;stroke-miterlimit:10;}
	.st2{fill:#E24949;}
	.st3{fill:#FFFFFF;}
</style>
<g>
	<g>
		<path class="st0" d="M60.2,1.3c-0.2,0-0.4,0-0.9,0c-16.2,0-30.8,6.2-41.5,16.9C7.4,28.8,1,43.4,1,59.6c0,27.5,18.6,50.3,43.7,57.4
			c4.9,1.3,10,2.2,15.3,2.2c0.2,0,0.4,0,0.9,0c16.2,0,30.8-6.2,41.5-16.9c9.3-9.3,15.1-21.7,16.4-35.7c0.2-2,0.2-3.8,0.2-5.8
			C118.8,28.3,92.6,1.7,60.2,1.3z"/>
	</g>
</g>
<g>
	<path class="st1" d="M46.9,31.5l44.5-8.3c1.5-0.4,3.1,0.8,3.3,2.4l11.9,64.2c0.4,1.5-0.8,3.1-2.4,3.3l-44.5,8.3
		c-1.5,0.4-3.1-0.8-3.3-2.4L44.5,35C44.3,33.5,45.4,31.9,46.9,31.5z"/>
	<path class="st1" d="M13.5,37.4l41.2-18.9c1.4-0.6,3.2,0,3.8,1.4l27.1,59.4c0.6,1.4,0,3.2-1.4,3.8L43,102c-1.4,0.6-3.2,0-3.8-1.4
		L12,41.2C11.4,39.8,12,38,13.5,37.4z"/>
	<path class="st1" d="M80.6,106.6l-45.1-3.9c-1.5-0.1-2.8-1.5-2.7-3.2l5.8-65.1c0.1-1.5,1.5-2.8,3.2-2.7l45.1,3.9
		c1.5,0.1,2.8,1.5,2.7,3.2l-5.7,65.1C83.6,105.7,82.3,106.9,80.6,106.6z"/>
	<g>
		<path class="st2" d="M83.8,13.9c-0.1,0-0.2,0-0.4,0c-6.3,0-12,2.4-16.2,6.6c-4.1,4.2-6.6,9.9-6.6,16.2c0,10.8,7.2,19.6,17,22.4
			c1.9,0.5,3.9,0.9,6,0.9c0.1,0,0.2,0,0.4,0c6.3,0,12-2.4,16.2-6.6c3.6-3.6,5.9-8.5,6.4-13.9c0.1-0.8,0.1-1.4,0.1-2.3
			C106.7,24.5,96.5,14.1,83.8,13.9z"/>
	</g>
	<g>
		<g>
			<g>
				<path class="st3" d="M94,32.1c0.5,0,0.8,0.2,1.1,0.5c0.3,0.3,0.5,0.7,0.5,1.1v4.6c0,0.5-0.2,0.8-0.5,1.1s-0.7,0.5-1.1,0.5H73
					c-0.5,0-0.8-0.2-1.1-0.5c-0.3-0.4-0.5-0.7-0.5-1.1v-4.6c0-0.5,0.2-0.8,0.5-1.1c0.4-0.3,0.7-0.5,1.1-0.5H94z"/>
			</g>
		</g>
	</g>
</g>
</svg>
