<?xml version="1.0" encoding="utf-8"?>
<!-- Generator: Adobe Illustrator 20.0.0, SVG Export Plug-In . SVG Version: 6.00 Build 0)  -->
<svg version="1.1" id="Layer_1" xmlns="http://www.w3.org/2000/svg" xmlns:xlink="http://www.w3.org/1999/xlink" x="0px" y="0px"
	 viewBox="0 0 100 100" style="enable-background:new 0 0 100 100;" xml:space="preserve">
<style type="text/css">
	.st0{fill:#FFFFFF;}
</style>
<g>
	<path class="st0" d="M95.2,71.8L70.3,49.3l24.9-22.6c3.7-3.4,4.9-7.9,2.6-10.4L87.3,4.6c-2.2-2.3-6.9-1.7-10.5,1.7L50,30.7
		L23.2,6.3c-3.7-3.4-8.3-4-10.5-1.7L2.1,16.3c-2.2,2.3-1,7,2.6,10.4l24.9,22.6L4.8,71.8c-3.7,3.4-4.9,7.9-2.6,10.4l10.5,11.7
		c2.2,2.3,6.9,1.7,10.5-1.7L50,67.8l26.8,24.5c3.7,3.4,8.3,4,10.5,1.7l10.5-11.7C100.1,79.7,98.9,75.2,95.2,71.8z"/>
</g>
</svg>
