<?xml version="1.0" encoding="utf-8"?>
<!-- Generator: Adobe Illustrator 20.0.0, SVG Export Plug-In . SVG Version: 6.00 Build 0)  -->
<svg version="1.1" id="Layer_1" xmlns="http://www.w3.org/2000/svg" xmlns:xlink="http://www.w3.org/1999/xlink" x="0px" y="0px"
	 viewBox="0 0 400 400" style="enable-background:new 0 0 400 400;" xml:space="preserve">
<style type="text/css">
	.st0{fill:#FFC035;}
	.st1{fill:#F7F7F7;}
	.st2{fill:#0A0A0A;}
	.st3{fill:none;stroke:#FFFFFF;stroke-miterlimit:10;}
</style>
<path class="st0" d="M252.5,387H144.1c-3.2,0-5.8-2.6-5.8-5.8v-36.1c0-3.2,2.6-5.8,5.8-5.8h108.4c3.2,0,5.8,2.6,5.8,5.8v36.1
	C258.3,384.4,255.7,387,252.5,387z"/>
<path class="st0" d="M299.1,137.6l-12.9-9.3c-2.2-1.6-4.4-1.7-6.6-0.5c-1,0.6-1.8,1.3-2.5,2.3c-0.6,1.1-1,2.2-1,3.6v3.3h-27.4
	c-0.4-2.5-1.1-5-2-7.5c-1.8-5.3-4.5-10.1-8-14.3s-7.6-8-12.3-10.8c-4.8-2.9-10.1-5-15.6-6.1l0.5-27.5h3.3c1.3,0,2.5-0.2,3.6-1
	c1-0.6,1.8-1.5,2.3-2.5c0.6-1.1,0.9-2.2,0.9-3.3c0-1.2-0.5-2.5-1.1-3.4l-9.1-13.5c-1.3-2-3.1-2.9-5.4-2.9c-2.3,0-4.2,0.9-5.5,2.7
	l-9.6,13c-0.7,1.1-1.2,2.2-1.2,3.4c-0.1,1.2,0.1,2.3,0.7,3.3c0.5,1.1,1.3,2,2.3,2.6c1.1,0.6,2.2,1.1,3.6,1.1l3.9,0.1l-0.5,26.7
	c-4.9,0.1-9.8,1-14.6,2.7c-4.9,1.7-9.4,4-13.4,7.1c-0.5,0.4-0.9,0.9-1.3,1.4c-0.2,0.2-0.4,0.3-0.6,0.5c-4.3,3.6-7.8,7.7-10.7,12.5
	c-2.8,4.9-4.8,10.1-5.9,15.7h-27.5v-3.3c0-1.3-0.4-2.5-1-3.6c-0.6-1-1.5-1.8-2.5-2.3c-1.1-0.6-2.2-0.9-3.3-0.7
	c-1.2,0-2.5,0.5-3.4,1.2l-13.1,9.3c-1.8,1.3-2.8,3.2-2.8,5.5s1,4.2,2.8,5.5l13.1,9.3c1.1,0.7,2.2,1.1,3.6,1.2c1.2,0,2.3-0.1,3.3-0.7
	c1.1-0.6,1.8-1.3,2.6-2.3c0.6-1.1,1-2.2,1-3.6v-3.9h26.6c0.2,4.9,1.2,9.8,2.9,14.6c1.8,4.9,4.3,9.3,7.4,13.2c1,1.2,2.2,2,3.8,2.2
	c0.4,0.1,0.8,0.1,1.2,0.1c0,0.8,0.1,1.6,0.6,2.4c0.4,0.7,1,1.5,1.6,2.1c3.9,3.2,8.2,5.8,13.1,7.6c4.7,1.8,9.6,2.9,14.5,3.3
	l-0.5,27.1l-3.9-0.1c-1.3,0-2.5,0.2-3.6,0.9c-1,0.6-1.8,1.3-2.3,2.3c-0.6,1-0.9,2.1-0.9,3.2c0,1.2,0.4,2.3,1.1,3.4l9.1,13.2
	c1.3,1.5,3.1,2.3,5.4,2.3c2.3,0,4.2-1,5.5-2.8L217,231c1.6-2.2,1.7-4.4,0.6-6.6c-0.5-1-1.3-1.8-2.3-2.5c-1.1-0.6-2.2-1-3.6-1h-3.3
	l0.5-27.8c5.6-1,10.9-2.8,15.8-5.6c4.3-2.4,8.3-5.5,11.6-9.3c0.1,0,0.1,0,0.2-0.1c0.7-0.4,1.5-1,2-1.7c3.1-3.9,5.5-8.3,7.4-13.2
	c0.3-0.7,0.5-1.4,0.7-2.1c1.4-4.1,2.2-8.2,2.5-12.5h26.8v3.9c0,1.3,0.2,2.5,1,3.6c0.6,1,1.3,1.8,2.5,2.3c1.1,0.5,2.1,0.9,3.2,0.7
	c1.2,0,2.3-0.5,3.4-1.2l13-9.3c2-1.5,2.8-3.2,2.8-5.5C302,140.8,301,138.9,299.1,137.6z M226.5,172.1c-3.4,3.3-7.5,6-11.9,7.7
	c-4.7,1.8-9.4,2.8-14.5,2.7c-4.2-0.1-8.2-0.9-12.1-2.2c-3.8-1.5-7.5-3.4-10.7-6.1c-1.2-1-2.6-1.5-4.2-1.2H173c0-1.3-0.4-2.4-1.2-3.5
	c-2.6-3.3-4.5-6.9-6-10.8c-1.3-3.9-2-8-2-12.1c0-5,1-9.8,2.9-14.5c1.8-4.4,4.5-8.3,8-11.8c3.4-3.4,7.4-6.1,11.8-8
	c4.5-2,9.3-2.9,14.3-2.9s9.8,1,14.5,2.9c4.4,1.8,8.3,4.5,11.8,8c3.4,3.4,6.1,7.4,8,11.8c1.2,2.7,2,5.6,2.5,8.5
	c0.2,1.8,0.4,3.6,0.4,5.5c-0.1,5-1.1,9.8-3.2,14.3C232.8,164.9,230.1,168.8,226.5,172.1z"/>
<path class="st1" d="M171,253.3c1.7-1.7,2.7-3.9,2.8-6.4c0.1-2.6-0.6-4.8-2.2-6.6c-1.8-1.6-3.6-2.3-5.7-2.3c-2,0-3.8,0.8-5.5,2.4
	l4.9-4.9c2-2,3.2-4.1,3.5-6.4c0.3-2.4-0.5-4.6-2.3-6.4c-1.8-1.9-4-2.7-6.4-2.4c-2.1,0.2-4.2,1.3-6.1,3.1l4.8-4.8
	c2.1-2.1,3.3-4.4,3.6-6.9c0.3-2.7-0.6-5-2.6-7s-4.3-2.9-7-2.6c-2.4,0.2-4.6,1.2-6.6,3.1l28.5-28.3c2.1-2.1,3.3-4.4,3.6-6.9
	c0.3-2.7-0.6-5-2.6-7s-4.3-2.9-7-2.6c-2.5,0.2-4.8,1.4-7,3.5l-39.3,39l1.3-11.9c0.7-2.8,0.2-5.5-1.4-8s-3.8-4.1-6.6-4.7
	c-2.8-0.7-5.5-0.2-8,1.3s-4.1,3.7-4.7,6.5L91.5,233c-0.2,0.6-0.5,2-1.2,4.3c-0.5,1.7-0.8,3-0.9,3.9c-0.4,2.8,0.3,5.1,2,6.9
	l35.2,35.5c1.7,1.8,4.1,2.5,7.1,2.3c2.9-0.2,5.3-1.2,7.2-3L171,253.3L171,253.3z"/>
<g>
	<path class="st1" d="M332.3,157.9l-7.4-17.4h-0.3v17.4h-6v-32.4h6.4l4.5,11.2h0.3v-11.2h6v32.4H332.3z"/>
	<path class="st1" d="M338.5,157.9v-32.4h13.9v6.8H345v5.6h7.3v6.6H345v6.1h7.4v7.2L338.5,157.9L338.5,157.9z"/>
	<path class="st1" d="M365.6,157.9l-2.1-11.8H363l-2.2,11.8H354v-0.3l4.1-17.6l-3.3-14.3v-0.3h6.8l1.6,9.1h0.4l1.9-9.1h6.3v0.3
		l-3.4,14.3l4,17.6v0.3H365.6L365.6,157.9z"/>
	<path class="st1" d="M378.4,157.9v-25.6h-5v-6.8h16.4v6.8h-5v25.6H378.4z"/>
</g>
<g>
	<path class="st1" d="M10.7,159.3v-32.4h9.4c1.5,0,2.6,0.2,3.5,0.6c0.9,0.3,1.6,1,2.2,1.9c0.5,0.9,0.9,2.1,1.1,3.4s0.3,3.2,0.3,5.2
		c0,2.1-0.1,3.9-0.3,5.4c-0.2,1.5-0.6,2.7-1.1,3.6c-0.5,0.9-1.3,1.5-2.2,2s-2.1,0.6-3.5,0.6h-2.9v9.8L10.7,159.3L10.7,159.3z
		 M19,142.9c0.6,0,1-0.3,1.3-1s0.3-2.1,0.3-3.9c0-1.7-0.2-2.8-0.4-3.4c-0.3-0.5-0.8-0.9-1.4-0.9h-1.5v9.2L19,142.9L19,142.9z"/>
	<path class="st1" d="M39.8,159.3c-0.1-0.3-0.2-0.5-0.3-0.9c-0.1-0.3-0.2-0.8-0.3-1.4c-0.1-0.6-0.2-1.5-0.3-2.6s-0.3-2.6-0.5-4.5
		c-0.1-0.8-0.2-1.4-0.3-1.8c-0.1-0.4-0.2-0.8-0.3-1c-0.1-0.3-0.3-0.4-0.4-0.4c-0.2-0.1-0.3-0.1-0.5-0.1h-1v12.6h-6.5v-32.4H39
		c1.5,0,2.6,0.2,3.5,0.5s1.6,0.9,2.2,1.5c0.5,0.7,0.9,1.6,1.1,2.7c0.2,1.1,0.3,2.4,0.3,4c0,1.7-0.1,3-0.2,3.9
		c-0.1,0.9-0.3,1.7-0.5,2.2c-0.3,0.5-0.5,0.9-0.9,1.2c-0.3,0.3-0.7,0.5-1.2,0.8v0.3c0.2,0.2,0.3,0.3,0.5,0.4
		c0.2,0.2,0.3,0.4,0.5,0.9c0.3,0.5,0.4,1.3,0.7,2.3s0.4,2.5,0.7,4.4c0.2,1.3,0.3,2.4,0.3,3.2c0.1,0.8,0.2,1.5,0.3,2s0.1,0.9,0.2,1.1
		c0,0.3,0.1,0.5,0.2,0.8v0.3H39.8L39.8,159.3z M37.8,140.7c0.6,0,1-0.3,1.3-0.8s0.3-1.5,0.3-3.1c0-1.3-0.2-2.1-0.4-2.6
		c-0.3-0.4-0.8-0.7-1.4-0.7H36v7.1h1.8V140.7z"/>
	<path class="st1" d="M48.7,159.3v-32.4h14v6.8h-7.4v5.6h7.3v6.6h-7.3v6.1h7.4v7.2L48.7,159.3L48.7,159.3z"/>
	<path class="st1" d="M68,159.3l-3.8-32.4h7.1l1.7,22.8h0.4l1.6-22.8h7l-3.8,32.4L68,159.3L68,159.3z"/>
	<path class="st1" d="M81.8,159.3v-6.4h6.5v6.4H81.8z"/>
</g>
<g>
	<path class="st1" d="M143.6,14.4c0-0.2,0-0.3,0-0.4c0-0.1,0-0.3,0-0.7c0-0.8-0.1-1.4-0.3-1.6c-0.2-0.3-0.6-0.4-1.3-0.4
		s-1,0.2-1.2,0.4c-0.2,0.3-0.3,0.9-0.3,1.6c0,0.8,0.1,1.3,0.3,1.6s0.5,0.6,0.9,0.9c0.5,0.3,0.9,0.5,1.4,0.8c0.4,0.2,0.9,0.4,1.2,0.6
		s0.7,0.3,1,0.5s0.7,0.3,1,0.6c0.3,0.3,0.7,0.6,0.9,0.9s0.5,0.7,0.7,1.2s0.3,1.1,0.3,1.8c0.1,0.7,0.2,1.6,0.2,2.7
		c0,1.5-0.1,2.8-0.3,3.9c-0.2,1-0.6,1.9-1,2.5s-1.2,1-2.1,1.3s-1.9,0.4-3.2,0.4c-2.1,0-3.6-0.4-4.6-1.2c-0.9-0.8-1.5-2.2-1.5-4.3
		c0-0.7,0-1.4,0.1-2c0-0.7,0.1-1.2,0.3-1.6h4.4c-0.1,0.2-0.1,0.3-0.1,0.4c0,0.2,0,0.3,0,0.5c0,1,0.1,1.7,0.3,2.1
		c0.2,0.3,0.6,0.6,1.3,0.6s1.1-0.2,1.3-0.5s0.3-1,0.3-2.1c0-0.7-0.1-1.2-0.3-1.5s-0.5-0.7-0.9-1s-0.9-0.5-1.3-0.8
		c-0.4-0.3-0.9-0.4-1.4-0.7c-0.4-0.2-0.9-0.4-1.3-0.7s-0.8-0.5-1.1-0.9c-0.7-0.6-1.1-1.5-1.3-2.6s-0.3-2.5-0.3-4.2
		c0-1.2,0.1-2.2,0.3-3.1s0.5-1.5,0.9-2.1s1.1-0.9,1.9-1.1s1.8-0.3,3.1-0.3c1.1,0,2.1,0.1,2.8,0.3c0.8,0.2,1.4,0.5,1.9,0.9
		s0.9,1,1,1.8s0.3,1.6,0.3,2.7c0,0.7,0,1.3-0.1,1.7c0,0.4-0.1,0.8-0.3,1.1L143.6,14.4L143.6,14.4z"/>
	<path class="st1" d="M158.9,32.3V21.7h-3.3v10.6h-5.4V6.4h5.4v10h3.3v-10h5.4v25.9H158.9z"/>
	<path class="st1" d="M178.5,30.6c-0.3,0.4-0.5,0.8-0.8,1c-0.3,0.3-0.7,0.5-1.1,0.7c-0.4,0.2-0.9,0.3-1.5,0.3
		c-0.6,0.1-1.3,0.1-2.1,0.1c-1.6,0-2.8-0.2-3.7-0.4c-0.9-0.3-1.5-0.9-1.9-1.6c-0.3-0.4-0.4-0.9-0.6-1.3s-0.3-1.1-0.3-1.9
		c-0.1-0.8-0.2-1.9-0.3-3.2c-0.1-1.3-0.1-2.9-0.1-5s0-3.7,0.1-5s0.1-2.3,0.3-3.1c0.1-0.8,0.3-1.5,0.3-1.9c0.2-0.4,0.3-0.9,0.6-1.3
		c0.3-0.4,0.5-0.7,0.8-1s0.7-0.5,1.1-0.7c0.4-0.2,0.9-0.3,1.5-0.3c0.6,0,1.3,0,2.2,0c1.6,0,2.8,0.2,3.7,0.5s1.5,0.9,1.9,1.6
		c0.3,0.4,0.4,0.9,0.6,1.3c0.2,0.4,0.3,1.1,0.3,1.9c0.1,0.8,0.2,1.8,0.3,3.1s0.1,2.9,0.1,5s0,3.7-0.1,5s-0.1,2.3-0.3,3.2
		c-0.1,0.8-0.3,1.5-0.3,1.9C178.9,29.8,178.7,30.3,178.5,30.6z M174.2,26.3c0.1-0.2,0.1-0.3,0.2-0.6c0.1-0.3,0.1-0.6,0.1-1.1
		s0-1.2,0.1-2.1c0-0.9,0-2,0-3.3c0-1.5,0-2.6,0-3.4c0-0.9,0-1.5-0.1-2.1c0-0.5-0.1-0.9-0.1-1.1c-0.1-0.3-0.1-0.4-0.2-0.6
		c-0.1-0.3-0.3-0.4-0.4-0.5c-0.2-0.1-0.5-0.2-0.9-0.2s-0.7,0.1-0.9,0.2c-0.2,0.1-0.3,0.3-0.3,0.5c-0.1,0.2-0.1,0.3-0.2,0.6
		c0,0.3-0.1,0.6-0.1,1.1s-0.1,1.2-0.1,2.1c0,0.9,0,2.1,0,3.4s0,2.5,0,3.3s0,1.5,0.1,2.1c0,0.5,0.1,0.9,0.1,1.1s0.1,0.4,0.2,0.6
		c0.1,0.3,0.2,0.4,0.3,0.5s0.5,0.2,0.9,0.2s0.7-0.1,0.9-0.2C174,26.8,174.2,26.6,174.2,26.3z"/>
	<path class="st1" d="M194.2,32.3l-1.7-15.9h-0.3l-1.9,15.9h-7.4l-2.2-25.9h5.3l1.1,17.6h0.3l2.3-17.6h5.2l2.3,17.6h0.3l1.1-17.6h5
		l-2.1,25.9H194.2z"/>
	<path class="st1" d="M227,32.3V16.7h-0.2L223,32.3h-2.3l-3.9-15.6h-0.2v15.6h-4.8V6.4h7.4l2.3,11.3h0.3l2.6-11.3h7.4v25.9H227z"/>
	<path class="st1" d="M246,30.6c-0.3,0.4-0.5,0.8-0.8,1c-0.3,0.3-0.7,0.5-1.1,0.7c-0.4,0.2-0.9,0.3-1.5,0.3
		c-0.6,0.1-1.3,0.1-2.1,0.1c-1.6,0-2.8-0.2-3.7-0.4c-0.9-0.3-1.5-0.9-1.9-1.6c-0.3-0.4-0.4-0.9-0.6-1.3c-0.2-0.4-0.3-1.1-0.3-1.9
		c-0.1-0.8-0.2-1.9-0.3-3.2c-0.1-1.3-0.1-2.9-0.1-5s0-3.7,0.1-5s0.1-2.3,0.3-3.1c0.1-0.8,0.3-1.5,0.3-1.9c0.2-0.4,0.3-0.9,0.6-1.3
		c0.3-0.4,0.5-0.7,0.8-1s0.7-0.5,1.1-0.7c0.4-0.2,0.9-0.3,1.5-0.3c0.6-0.1,1.3-0.1,2.1-0.1c1.6,0,2.8,0.2,3.7,0.5s1.5,0.9,1.9,1.6
		c0.3,0.4,0.4,0.9,0.6,1.3s0.3,1.1,0.3,1.9c0.1,0.8,0.2,1.8,0.3,3.1s0.1,2.9,0.1,5s0,3.7-0.1,5s-0.1,2.3-0.3,3.2
		c-0.1,0.8-0.3,1.5-0.3,1.9C246.4,29.8,246.2,30.3,246,30.6z M241.8,26.3c0.1-0.2,0.1-0.3,0.2-0.6c0.1-0.3,0.1-0.6,0.1-1.1
		s0-1.2,0.1-2.1c0-0.9,0-2,0-3.3c0-1.5,0-2.6,0-3.4c0-0.9,0-1.5-0.1-2.1c0-0.5-0.1-0.9-0.1-1.1c-0.1-0.3-0.1-0.4-0.2-0.6
		c-0.1-0.3-0.3-0.4-0.4-0.5c-0.2-0.1-0.5-0.2-0.9-0.2s-0.7,0.1-0.9,0.2c-0.2,0.1-0.3,0.3-0.3,0.5c-0.1,0.2-0.1,0.3-0.2,0.6
		c0,0.3-0.1,0.6-0.1,1.1s-0.1,1.2-0.1,2.1c0,0.9,0,2.1,0,3.4s0,2.5,0,3.3s0,1.5,0.1,2.1c0,0.5,0.1,0.9,0.1,1.1s0.1,0.4,0.2,0.6
		c0.1,0.3,0.2,0.4,0.3,0.5c0.2,0.1,0.5,0.2,0.9,0.2s0.7-0.1,0.9-0.2C241.5,26.8,241.7,26.6,241.8,26.3z"/>
	<path class="st1" d="M257.3,32.3c-0.1-0.2-0.1-0.4-0.2-0.7s-0.1-0.6-0.2-1.1s-0.2-1.2-0.3-2.1c-0.1-0.9-0.3-2.1-0.4-3.6
		c-0.1-0.6-0.2-1.1-0.2-1.5c-0.1-0.3-0.2-0.7-0.3-0.9c-0.1-0.2-0.2-0.3-0.3-0.3c-0.2-0.1-0.3-0.1-0.4-0.1h-0.8v10.2H249V6.4h7.6
		c1.1,0,2.1,0.2,2.8,0.4c0.8,0.3,1.3,0.7,1.7,1.2c0.4,0.6,0.8,1.3,0.9,2.1c0.2,0.9,0.3,2,0.3,3.2c0,1.4-0.1,2.4-0.2,3.2
		s-0.3,1.4-0.4,1.8c-0.2,0.4-0.4,0.8-0.7,0.9c-0.3,0.3-0.6,0.4-0.9,0.6V20c0.2,0.1,0.3,0.3,0.4,0.3c0.2,0.2,0.3,0.3,0.3,0.7
		c0.2,0.4,0.3,1,0.5,1.9s0.3,2,0.5,3.5c0.2,1,0.3,1.9,0.3,2.6c0.1,0.6,0.1,1.1,0.2,1.5s0.1,0.7,0.2,0.9c0,0.2,0.1,0.4,0.2,0.6v0.3
		H257.3z M255.8,17.4c0.5,0,0.9-0.2,1-0.6c0.2-0.4,0.3-1.2,0.3-2.5c0-1-0.1-1.7-0.3-2.1c-0.3-0.3-0.6-0.5-1.1-0.5h-1.4v5.6h1.5V17.4
		z"/>
	<path class="st1" d="M264.5,32.3V6.4h11.1v5.5h-5.9v4.5h5.8v5.2h-5.8v4.9h5.9v5.8H264.5z"/>
</g>
<g>
	<path class="st1" d="M207,268.8c0-0.2,0-0.3,0-0.4s0-0.3,0-0.6c0-0.7-0.1-1.2-0.3-1.5s-0.5-0.4-1.1-0.4s-0.9,0.2-1.1,0.4
		c-0.2,0.3-0.3,0.8-0.3,1.5s0.1,1.1,0.3,1.4s0.4,0.5,0.8,0.8c0.4,0.3,0.9,0.5,1.2,0.7s0.8,0.3,1,0.5c0.3,0.2,0.6,0.3,0.9,0.4
		c0.3,0.2,0.6,0.3,0.9,0.5c0.3,0.3,0.6,0.5,0.9,0.8c0.3,0.3,0.4,0.6,0.6,1c0.2,0.4,0.3,0.9,0.3,1.6c0.1,0.6,0.1,1.5,0.1,2.3
		c0,1.4-0.1,2.5-0.3,3.4s-0.5,1.6-0.9,2.1s-1,0.9-1.8,1.1c-0.8,0.3-1.7,0.3-2.8,0.3c-1.8,0-3.2-0.3-4-1c-0.9-0.7-1.3-2-1.3-3.8
		c0-0.6,0-1.2,0.1-1.7s0.1-1,0.2-1.5h3.9c0,0.1-0.1,0.3-0.1,0.4c0,0.2,0,0.3,0,0.4c0,0.9,0.1,1.5,0.3,1.8s0.5,0.5,1.1,0.5
		s0.9-0.2,1.1-0.4c0.2-0.3,0.3-0.9,0.3-1.9c0-0.6-0.1-1-0.3-1.3s-0.4-0.6-0.9-0.9c-0.3-0.3-0.7-0.4-1.1-0.7
		c-0.4-0.3-0.8-0.4-1.2-0.6s-0.8-0.3-1.1-0.6c-0.3-0.2-0.7-0.4-1-0.8c-0.6-0.5-0.9-1.3-1.1-2.2c-0.2-0.9-0.2-2.1-0.2-3.7
		c0-1,0.1-2,0.3-2.7c0.2-0.8,0.4-1.3,0.9-1.8c0.4-0.4,0.9-0.8,1.6-0.9c0.7-0.2,1.6-0.3,2.7-0.3c1,0,1.8,0.1,2.5,0.3s1.2,0.4,1.6,0.9
		s0.8,0.9,0.9,1.5c0.2,0.6,0.3,1.5,0.3,2.4c0,0.6,0,1.1-0.1,1.5c0,0.3-0.1,0.7-0.2,0.9L207,268.8L207,268.8z"/>
	<path class="st1" d="M220.4,284.5v-9.3h-2.8v9.3h-4.7v-22.7h4.7v8.8h2.8v-8.8h4.7v22.7H220.4z"/>
	<path class="st1" d="M237.5,283c-0.2,0.3-0.4,0.7-0.7,0.9c-0.3,0.3-0.6,0.4-0.9,0.6c-0.4,0.2-0.9,0.3-1.4,0.3
		c-0.5,0.1-1.1,0.1-1.8,0.1c-1.5,0-2.5-0.2-3.3-0.4c-0.8-0.3-1.3-0.8-1.7-1.5c-0.2-0.3-0.3-0.7-0.5-1.1s-0.3-0.9-0.3-1.6
		c-0.1-0.7-0.2-1.6-0.2-2.7s-0.1-2.6-0.1-4.4s0-3.3,0.1-4.4c0-1.1,0.1-2.1,0.2-2.7s0.2-1.3,0.3-1.6c0.2-0.4,0.3-0.8,0.5-1.1
		s0.4-0.6,0.7-0.9s0.6-0.4,0.9-0.6c0.3-0.2,0.9-0.3,1.4-0.3c0.5-0.1,1.1-0.1,1.9-0.1c1.4,0,2.5,0.2,3.2,0.4c0.8,0.3,1.3,0.8,1.7,1.5
		c0.2,0.3,0.3,0.8,0.5,1.1c0.2,0.4,0.3,0.9,0.3,1.6c0.1,0.7,0.2,1.6,0.2,2.7s0.1,2.6,0.1,4.4s0,3.3-0.1,4.4c0,1.1-0.1,2.1-0.2,2.7
		c-0.1,0.7-0.2,1.3-0.3,1.6C237.9,282.3,237.7,282.7,237.5,283z M233.8,279.2c0-0.2,0.1-0.3,0.1-0.5c0-0.3,0.1-0.5,0.1-1
		c0-0.4,0-1,0.1-1.8c0-0.8,0-1.7,0-2.9c0-1.3,0-2.2,0-3s0-1.4-0.1-1.8c0-0.4-0.1-0.8-0.1-1s-0.1-0.4-0.1-0.5
		c-0.1-0.2-0.2-0.3-0.3-0.4c-0.2-0.1-0.4-0.2-0.8-0.2c-0.3,0-0.6,0.1-0.8,0.2s-0.3,0.3-0.3,0.4c-0.1,0.2-0.1,0.3-0.2,0.5
		c0,0.3-0.1,0.5-0.1,1s-0.1,1-0.1,1.8s0,1.8,0,3s0,2.2,0,2.9c0,0.8,0,1.4,0.1,1.8s0.1,0.8,0.1,1c0,0.3,0.1,0.4,0.2,0.5
		c0.1,0.2,0.2,0.3,0.3,0.4c0.2,0.1,0.4,0.1,0.8,0.1c0.3,0,0.6,0,0.8-0.1C233.6,279.6,233.7,279.4,233.8,279.2z"/>
	<path class="st1" d="M251.2,284.5l-1.5-13.9h-0.3l-1.6,13.9h-6.5l-2-22.7h4.6l1,15.4h0.3l2-15.4h4.6l2.1,15.4h0.3l0.9-15.4h4.4
		l-1.9,22.7H251.2z"/>
	<path class="st1" d="M266.8,284.5v-22.7h4.5v17.6h4.7v5h-9.2V284.5z"/>
	<path class="st1" d="M277.4,284.5v-22.7h9.8v4.8H282v4h5.1v4.6H282v4.3h5.1v5L277.4,284.5L277.4,284.5z"/>
	<path class="st1" d="M295.3,268.8c0-0.2,0-0.3,0-0.4s0-0.3,0-0.6c0-0.7-0.1-1.2-0.3-1.5c-0.2-0.3-0.5-0.4-1.1-0.4s-0.9,0.2-1.1,0.4
		c-0.2,0.3-0.3,0.8-0.3,1.5s0.1,1.1,0.3,1.4s0.4,0.5,0.8,0.8s0.9,0.5,1.2,0.7s0.8,0.3,1,0.5c0.3,0.2,0.6,0.3,0.9,0.4
		c0.3,0.2,0.6,0.3,0.9,0.5c0.3,0.3,0.6,0.5,0.9,0.8s0.4,0.6,0.6,1s0.3,0.9,0.3,1.6c0.1,0.6,0.1,1.5,0.1,2.3c0,1.4-0.1,2.5-0.3,3.4
		c-0.2,0.9-0.5,1.6-0.9,2.1s-1,0.9-1.8,1.1c-0.8,0.3-1.7,0.3-2.8,0.3c-1.8,0-3.2-0.3-4-1c-0.9-0.7-1.3-2-1.3-3.8
		c0-0.6,0-1.2,0.1-1.7s0.1-1,0.2-1.5h3.9c0,0.1-0.1,0.3-0.1,0.4c0,0.2,0,0.3,0,0.4c0,0.9,0.1,1.5,0.3,1.8c0.2,0.3,0.5,0.5,1.1,0.5
		s0.9-0.2,1.1-0.4c0.2-0.3,0.3-0.9,0.3-1.9c0-0.6-0.1-1-0.3-1.3c-0.2-0.3-0.4-0.6-0.9-0.9c-0.3-0.3-0.7-0.4-1.1-0.7
		s-0.8-0.4-1.2-0.6c-0.4-0.2-0.8-0.3-1.1-0.6c-0.3-0.2-0.7-0.4-1-0.8c-0.6-0.5-0.9-1.3-1.1-2.2c-0.2-0.9-0.2-2.1-0.2-3.7
		c0-1,0.1-2,0.3-2.7c0.2-0.8,0.4-1.3,0.9-1.8c0.4-0.4,0.9-0.8,1.6-0.9c0.7-0.2,1.6-0.3,2.7-0.3c1,0,1.8,0.1,2.5,0.3
		c0.7,0.2,1.2,0.4,1.6,0.9s0.8,0.9,0.9,1.5c0.2,0.6,0.3,1.5,0.3,2.4c0,0.6,0,1.1-0.1,1.5c0,0.3-0.1,0.7-0.2,0.9L295.3,268.8
		L295.3,268.8z"/>
	<path class="st1" d="M307.5,268.8c0-0.2,0-0.3,0-0.4s0-0.3,0-0.6c0-0.7-0.1-1.2-0.3-1.5s-0.5-0.4-1.1-0.4s-0.9,0.2-1.1,0.4
		s-0.3,0.8-0.3,1.5s0.1,1.1,0.3,1.4c0.2,0.3,0.4,0.5,0.8,0.8s0.9,0.5,1.2,0.7s0.8,0.3,1,0.5c0.3,0.2,0.6,0.3,0.9,0.4
		c0.3,0.2,0.6,0.3,0.9,0.5c0.3,0.3,0.6,0.5,0.9,0.8s0.4,0.6,0.6,1s0.3,0.9,0.3,1.6c0.1,0.6,0.1,1.5,0.1,2.3c0,1.4-0.1,2.5-0.3,3.4
		c-0.2,0.9-0.5,1.6-0.9,2.1s-1,0.9-1.8,1.1c-0.8,0.3-1.7,0.3-2.8,0.3c-1.8,0-3.2-0.3-4-1c-0.9-0.7-1.3-2-1.3-3.8
		c0-0.6,0-1.2,0.1-1.7s0.1-1,0.2-1.5h3.9c0,0.1-0.1,0.3-0.1,0.4c0,0.2,0,0.3,0,0.4c0,0.9,0.1,1.5,0.3,1.8s0.5,0.5,1.1,0.5
		s0.9-0.2,1.1-0.4c0.2-0.3,0.3-0.9,0.3-1.9c0-0.6-0.1-1-0.3-1.3c-0.2-0.3-0.4-0.6-0.9-0.9c-0.3-0.3-0.7-0.4-1.1-0.7
		s-0.8-0.4-1.2-0.6c-0.4-0.2-0.8-0.3-1.1-0.6c-0.3-0.2-0.7-0.4-1-0.8c-0.6-0.5-0.9-1.3-1.1-2.2c-0.2-0.9-0.2-2.1-0.2-3.7
		c0-1,0.1-2,0.3-2.7c0.2-0.8,0.4-1.3,0.9-1.8c0.4-0.4,0.9-0.8,1.6-0.9c0.7-0.2,1.6-0.3,2.7-0.3c1,0,1.8,0.1,2.5,0.3
		c0.7,0.2,1.2,0.4,1.6,0.9c0.4,0.4,0.8,0.9,0.9,1.5c0.2,0.6,0.3,1.5,0.3,2.4c0,0.6,0,1.1-0.1,1.5c0,0.3-0.1,0.7-0.2,0.9L307.5,268.8
		L307.5,268.8z"/>
	<path class="st1" d="M208.9,318.2l8.9-30h3.3l-8.9,30H208.9z"/>
	<path class="st1" d="M235.7,313.6c-0.1-0.2-0.1-0.3-0.2-0.6c-0.1-0.2-0.1-0.5-0.2-0.9c-0.1-0.4-0.2-1-0.3-1.8s-0.3-1.8-0.3-3.1
		c-0.1-0.5-0.1-0.9-0.2-1.3s-0.1-0.6-0.2-0.8c-0.1-0.2-0.2-0.3-0.3-0.3c-0.1-0.1-0.3-0.1-0.3-0.1H233v8.9h-4.7v-22.7h6.7
		c1,0,1.8,0.1,2.5,0.3c0.6,0.3,1.1,0.6,1.5,1.1c0.3,0.5,0.6,1.1,0.8,1.9s0.3,1.7,0.3,2.8c0,1.2,0,2.1-0.1,2.7
		c-0.1,0.7-0.2,1.2-0.3,1.5s-0.3,0.7-0.6,0.9c-0.3,0.2-0.5,0.3-0.9,0.5v0.2c0.1,0.1,0.3,0.2,0.3,0.3c0.1,0.2,0.3,0.3,0.3,0.6
		c0.2,0.3,0.3,0.9,0.5,1.6c0.2,0.8,0.3,1.7,0.5,3.1c0.1,0.9,0.2,1.6,0.3,2.2s0.1,1,0.2,1.4c0.1,0.3,0.1,0.6,0.1,0.8
		c0,0.2,0.1,0.3,0.2,0.5v0.2L235.7,313.6L235.7,313.6z M234.3,300.5c0.4,0,0.8-0.2,0.9-0.5c0.2-0.3,0.3-1.1,0.3-2.1
		c0-0.9-0.1-1.5-0.3-1.8s-0.5-0.4-0.9-0.4H233v5L234.3,300.5L234.3,300.5z"/>
	<path class="st1" d="M241.9,313.6v-22.7h9.8v4.8h-5.2v4h5.1v4.6h-5.1v4.3h5.1v5L241.9,313.6L241.9,313.6z"/>
	<path class="st1" d="M266.6,313.6V300h-0.2l-3.3,13.6h-2l-3.3-13.6h-0.2v13.6h-4.2v-22.7h6.5l2.1,9.8h0.2l2.3-9.8h6.4v22.7H266.6z"
		/>
	<path class="st1" d="M283.2,312.1c-0.2,0.3-0.4,0.7-0.7,0.9c-0.3,0.3-0.6,0.4-0.9,0.6c-0.4,0.2-0.9,0.3-1.4,0.3
		c-0.5,0.1-1.1,0.1-1.8,0.1c-1.5,0-2.5-0.2-3.3-0.4c-0.8-0.3-1.3-0.8-1.7-1.5c-0.2-0.3-0.3-0.7-0.5-1.1s-0.3-0.9-0.3-1.6
		c-0.1-0.7-0.2-1.6-0.2-2.7s-0.1-2.6-0.1-4.4s0-3.3,0.1-4.4c0-1.1,0.1-2.1,0.2-2.7c0.1-0.7,0.2-1.3,0.3-1.6c0.2-0.4,0.3-0.8,0.5-1.1
		c0.2-0.3,0.4-0.6,0.7-0.9c0.3-0.3,0.6-0.4,0.9-0.6s0.9-0.3,1.4-0.3c0.5-0.1,1.1-0.1,1.9-0.1c1.4,0,2.5,0.2,3.2,0.4
		c0.8,0.3,1.3,0.8,1.7,1.5c0.2,0.3,0.3,0.8,0.5,1.1c0.2,0.4,0.3,0.9,0.3,1.6s0.2,1.6,0.2,2.7s0.1,2.6,0.1,4.4s0,3.3-0.1,4.4
		c0,1.1-0.1,2.1-0.2,2.7c-0.1,0.7-0.2,1.3-0.3,1.6C283.7,311.4,283.5,311.8,283.2,312.1z M279.6,308.4c0-0.2,0.1-0.3,0.1-0.5
		c0-0.3,0.1-0.5,0.1-1c0-0.4,0-1,0.1-1.8c0-0.8,0-1.7,0-2.9c0-1.3,0-2.2,0-3s0-1.4-0.1-1.8c0-0.4-0.1-0.8-0.1-1
		c0-0.3-0.1-0.4-0.1-0.5c-0.1-0.2-0.2-0.3-0.3-0.4c-0.2-0.1-0.4-0.2-0.8-0.2s-0.6,0.1-0.8,0.2c-0.2,0.1-0.3,0.3-0.3,0.4
		c-0.1,0.2-0.1,0.3-0.2,0.5c0,0.3-0.1,0.5-0.1,1c0,0.4-0.1,1-0.1,1.8s0,1.8,0,3s0,2.2,0,2.9c0,0.8,0,1.4,0.1,1.8
		c0,0.4,0.1,0.8,0.1,1c0,0.3,0.1,0.4,0.2,0.5c0.1,0.2,0.2,0.3,0.3,0.4s0.4,0.1,0.8,0.1s0.6,0,0.8-0.1
		C279.4,308.7,279.5,308.5,279.6,308.4z"/>
	<path class="st1" d="M287.7,313.6l-2.7-22.7h5l1.2,16h0.3l1.2-16h4.9l-2.7,22.7H287.7z"/>
	<path class="st1" d="M298.9,313.6v-22.7h9.8v4.8h-5.2v4h5.1v4.6h-5.1v4.3h5.1v5L298.9,313.6L298.9,313.6z"/>
</g>
<g>
	<path class="st2" d="M183.9,371.7c-0.2,0.3-0.4,0.6-0.6,0.8s-0.5,0.4-0.8,0.5s-0.7,0.2-1.2,0.3c-0.5,0.1-1,0.1-1.6,0.1
		c-1.2,0-2.2-0.1-2.8-0.4c-0.6-0.2-1.1-0.7-1.5-1.3c-0.2-0.3-0.3-0.6-0.4-1c-0.1-0.4-0.2-0.8-0.3-1.4s-0.1-1.4-0.2-2.4
		c0-1-0.1-2.2-0.1-3.8s0-2.8,0.1-3.8c0-1,0.1-1.8,0.2-2.4c0.1-0.6,0.2-1.1,0.3-1.4s0.3-0.7,0.4-1c0.2-0.3,0.4-0.5,0.6-0.8
		s0.5-0.4,0.8-0.5s0.7-0.2,1.2-0.3c0.5-0.1,1-0.1,1.6-0.1c1.2,0,2.1,0.1,2.8,0.4c0.6,0.2,1.1,0.7,1.5,1.2c0.2,0.3,0.3,0.6,0.4,1
		s0.2,0.8,0.3,1.4s0.1,1.4,0.2,2.4c0,1,0.1,2.2,0.1,3.8s0,2.8-0.1,3.8c0,1-0.1,1.8-0.2,2.4c-0.1,0.6-0.2,1.1-0.3,1.4
		C184.3,371.1,184.1,371.4,183.9,371.7z M180.7,368.5c0-0.1,0.1-0.3,0.1-0.5s0.1-0.5,0.1-0.9s0-0.9,0-1.5c0-0.7,0-1.5,0-2.6
		s0-2,0-2.6s0-1.2,0-1.6s0-0.7-0.1-0.9c0-0.2-0.1-0.3-0.1-0.5c-0.1-0.2-0.2-0.3-0.3-0.4s-0.4-0.1-0.7-0.1s-0.6,0-0.7,0.1
		c-0.1,0.1-0.2,0.2-0.3,0.4c-0.1,0.1-0.1,0.3-0.1,0.5s0,0.5-0.1,0.9s0,0.9-0.1,1.6c0,0.7,0,1.5,0,2.6s0,1.9,0,2.6
		c0,0.6,0,1.2,0.1,1.5s0,0.7,0.1,0.9c0,0.2,0.1,0.3,0.1,0.5c0.1,0.2,0.1,0.3,0.3,0.4c0.1,0.1,0.4,0.1,0.7,0.1s0.5,0,0.7-0.1
		C180.5,368.8,180.6,368.6,180.7,368.5z"/>
	<path class="st2" d="M193,373l-2.4-8.8h-0.3c0,0.2,0.1,0.5,0.1,0.7c0,0.3,0,0.5,0,0.7v7.4h-4.1v-19.7h4.1v7.2c0,0.2,0,0.4,0,0.6
		s0,0.3,0,0.5h0.3l2.6-8.2h4.2v0.1l-2.9,8.8l3.1,10.6v0.1L193,373L193,373z"/>
	<path class="st2" d="M204.6,373l-0.3-4.5h-1.9l-0.3,4.5h-4l2-19.7h6.7l1.9,19.7H204.6z M203.5,357.4h-0.3l-0.6,7h1.6L203.5,357.4z"
		/>
	<path class="st2" d="M211.7,373v-7.2l-3.5-12.4v-0.1h4.1c0.3,1.2,0.5,2.2,0.6,3c0.2,0.7,0.3,1.3,0.4,1.8s0.2,0.8,0.2,1
		s0.1,0.4,0.1,0.6h0.3c0-0.2,0.1-0.4,0.1-0.6s0.1-0.6,0.2-1s0.2-1,0.4-1.8c0.2-0.7,0.4-1.7,0.7-3h4v0.1l-3.3,12.3v7.2h-4.3V373z"/>
</g>
<g>
	<path class="st1" d="M178.9,149.5v-25.3h11v5.3h-5.8v5h5.7v5.1h-5.7v9.8L178.9,149.5L178.9,149.5z"/>
	<path class="st1" d="M191.6,149.5v-25.3h5.2v19.7h5.4v5.6H191.6z"/>
	<path class="st1" d="M203.9,149.5v-25.3h5.4v25.3H203.9z"/>
	<path class="st1" d="M211.6,149.5v-25.3h7.6c1.1,0,2.1,0.2,2.8,0.5s1.3,0.8,1.8,1.5c0.4,0.7,0.7,1.6,0.9,2.7
		c0.2,1.1,0.3,2.5,0.3,4.1s-0.1,3-0.3,4.2c-0.2,1.1-0.5,2.1-0.9,2.8s-1,1.2-1.8,1.5c-0.7,0.3-1.7,0.5-2.8,0.5h-2.3v7.6h-5.3V149.5z
		 M218.3,136.7c0.5,0,0.8-0.3,1-0.8s0.3-1.6,0.3-3.1c0-1.3-0.1-2.2-0.4-2.6c-0.2-0.4-0.6-0.6-1.1-0.6h-1.3v7.2L218.3,136.7
		L218.3,136.7z"/>
</g>
<g>
	<path class="st3" d="M219,167.6h-35.5c-1.6,0-3-1.3-3-3v-9.2c0-1.6,1.4-3,3-3H219c1.6,0,3,1.4,3,3v9.2
		C222,166.2,220.7,167.6,219,167.6z"/>
	<g>
		<path class="st1" d="M190.6,157.8c0-0.1,0-0.1,0-0.2s0-0.1,0-0.3c0-0.3,0-0.5-0.1-0.6c-0.1-0.1-0.2-0.2-0.5-0.2s-0.4,0.1-0.5,0.2
			c-0.1,0.1-0.1,0.3-0.1,0.6c0,0.3,0,0.5,0.1,0.6c0.1,0.1,0.2,0.2,0.4,0.3c0.2,0.1,0.4,0.2,0.5,0.3c0.2,0.1,0.3,0.2,0.5,0.2
			c0.1,0.1,0.3,0.1,0.4,0.2c0.1,0.1,0.3,0.1,0.4,0.2c0.1,0.1,0.3,0.2,0.4,0.3c0.1,0.1,0.2,0.3,0.3,0.5c0.1,0.2,0.1,0.4,0.2,0.7
			s0.1,0.6,0.1,1c0,0.6,0,1.1-0.1,1.5c-0.1,0.4-0.2,0.7-0.4,1s-0.5,0.4-0.8,0.5c-0.3,0.1-0.8,0.2-1.3,0.2c-0.8,0-1.4-0.2-1.8-0.5
			c-0.4-0.3-0.6-0.9-0.6-1.6c0-0.3,0-0.5,0-0.8c0-0.3,0-0.5,0.1-0.6h1.7c0,0.1,0,0.1,0,0.2c0,0.1,0,0.1,0,0.2c0,0.4,0,0.7,0.1,0.8
			c0.1,0.1,0.3,0.2,0.5,0.2s0.4-0.1,0.5-0.2c0.1-0.1,0.1-0.4,0.1-0.8c0-0.3,0-0.4-0.1-0.6c-0.1-0.1-0.2-0.3-0.4-0.4
			c-0.2-0.1-0.3-0.2-0.5-0.3c-0.2-0.1-0.4-0.2-0.5-0.3c-0.2-0.1-0.4-0.2-0.5-0.3c-0.2-0.1-0.3-0.2-0.4-0.3c-0.3-0.2-0.4-0.6-0.5-1
			c-0.1-0.4-0.1-1-0.1-1.6c0-0.5,0-0.9,0.1-1.2c0.1-0.3,0.2-0.6,0.4-0.8c0.2-0.2,0.4-0.3,0.8-0.4c0.3-0.1,0.7-0.1,1.2-0.1
			c0.4,0,0.8,0,1.1,0.1c0.3,0.1,0.6,0.2,0.7,0.4c0.2,0.2,0.3,0.4,0.4,0.7c0.1,0.3,0.1,0.6,0.1,1.1c0,0.3,0,0.5,0,0.6
			c0,0.2,0,0.3-0.1,0.4H190.6z"/>
		<path class="st1" d="M193.3,164.7v-10h3c0.4,0,0.8,0.1,1.1,0.2c0.3,0.1,0.5,0.3,0.7,0.6c0.2,0.3,0.3,0.6,0.4,1.1
			c0.1,0.4,0.1,1,0.1,1.6c0,0.7,0,1.2-0.1,1.7c-0.1,0.5-0.2,0.8-0.4,1.1c-0.2,0.3-0.4,0.5-0.7,0.6c-0.3,0.1-0.7,0.2-1.1,0.2h-0.9v3
			H193.3z M196,159.6c0.2,0,0.3-0.1,0.4-0.3s0.1-0.6,0.1-1.2c0-0.5,0-0.9-0.1-1c-0.1-0.2-0.2-0.3-0.4-0.3h-0.5v2.8H196z"/>
		<path class="st1" d="M201.9,164.7l-0.2-2.3h-1l-0.2,2.3h-2.1l1.1-10h3.5l1,10H201.9z M201.3,156.8h-0.1l-0.3,3.6h0.8L201.3,156.8z
			"/>
		<path class="st1" d="M209.7,160.9c0,0.3,0,0.6,0,0.9c0,0.5,0,1-0.1,1.4c-0.1,0.4-0.2,0.7-0.4,1s-0.4,0.4-0.8,0.6
			c-0.3,0.1-0.8,0.2-1.3,0.2c-0.7,0-1.2-0.1-1.5-0.2c-0.3-0.1-0.6-0.3-0.8-0.6c-0.1-0.1-0.2-0.3-0.2-0.5s-0.1-0.5-0.2-0.8
			s-0.1-0.7-0.1-1.2c0-0.5,0-1.1,0-1.9c0-0.8,0-1.4,0-1.9c0-0.5,0-0.9,0.1-1.2s0.1-0.6,0.2-0.7c0.1-0.2,0.1-0.3,0.2-0.5
			c0.2-0.3,0.4-0.5,0.8-0.6c0.3-0.1,0.8-0.2,1.5-0.2c0.6,0,1,0.1,1.4,0.2c0.3,0.1,0.6,0.3,0.8,0.5s0.3,0.5,0.4,0.9
			c0.1,0.4,0.1,0.8,0.1,1.4c0,0.1,0,0.3,0,0.4c0,0.1,0,0.3,0,0.5h-1.9c0-0.3,0-0.5,0-0.7c0-0.2,0-0.3,0-0.4s0-0.2,0-0.3s0-0.1,0-0.2
			c0-0.2-0.2-0.3-0.6-0.3c-0.2,0-0.3,0-0.4,0.1s-0.1,0.1-0.2,0.2c0,0.1,0,0.2-0.1,0.2c0,0.1,0,0.2,0,0.4s0,0.5,0,0.8
			c0,0.3,0,0.8,0,1.3c0,0.6,0,1,0,1.3c0,0.3,0,0.6,0,0.8c0,0.2,0,0.3,0,0.4c0,0.1,0,0.2,0.1,0.3c0,0.1,0.1,0.1,0.2,0.2
			c0.1,0,0.2,0.1,0.4,0.1c0.3,0,0.4-0.1,0.5-0.2c0-0.1,0.1-0.2,0.1-0.3c0-0.1,0-0.2,0-0.3c0-0.1,0-0.3,0-0.4c0-0.2,0-0.3,0-0.5
			H209.7z"/>
		<path class="st1" d="M210.5,164.7v-10h4.4v2.1h-2.4v1.8h2.3v2h-2.3v1.9h2.3v2.2H210.5z"/>
	</g>
</g>
<g>
	<g>
		<path class="st1" d="M341.6,276.8v13.6l7-4.5v2.8l-8.1,5.5l-8.2-5.5v-2.8l7,4.5v-13.6H341.6z"/>
	</g>
	<path class="st3" d="M354.4,275.4v21.1c0,1.6-1.3,3-3,3h-21.1c-1.6,0-3-1.4-3-3v-21.1c0-1.6,1.4-3,3-3h21.1
		C353.1,272.4,354.4,273.7,354.4,275.4z"/>
</g>
<g>
	<g>
		<path class="st1" d="M55.9,179H42.3l4.5,7H44l-5.5-8.1l5.5-8.2h2.8l-4.5,7h13.6V179z"/>
	</g>
	<path class="st3" d="M57.2,191.8H36.2c-1.7,0-3-1.4-3-3v-21.1c0-1.6,1.3-3,3-3h21.1c1.7,0,3,1.4,3,3v21.1
		C60.2,190.4,58.9,191.8,57.2,191.8z"/>
</g>
<g>
	<g>
		<path class="st1" d="M341.4,177.1H355l-4.5-7h2.8l5.5,8.1l-5.5,8.2h-2.8l4.5-7h-13.6V177.1z"/>
	</g>
	<path class="st3" d="M340.1,164.3h21.1c1.7,0,3,1.4,3,3v21.1c0,1.6-1.3,3-3,3h-21.1c-1.6,0-3-1.4-3-3v-21.1
		C337.1,165.6,338.4,164.3,340.1,164.3z"/>
</g>
<g>
	<g>
		<path class="st1" d="M298.8,28.6V15l-7,4.5v-2.8l8.1-5.5l8.2,5.5v2.8l-7-4.5v13.6L298.8,28.6z"/>
	</g>
	<path class="st3" d="M286,30V8.9c0-1.6,1.4-3,3-3H310c1.6,0,3,1.3,3,3V30c0,1.6-1.4,3-3,3H289C287.3,33,286,31.6,286,30z"/>
</g>
</svg>
