<?xml version="1.0" encoding="utf-8"?>
<!-- Generator: Adobe Illustrator 20.0.0, SVG Export Plug-In . SVG Version: 6.00 Build 0)  -->
<svg version="1.1" id="Layer_1" xmlns="http://www.w3.org/2000/svg" xmlns:xlink="http://www.w3.org/1999/xlink" x="0px" y="0px"
	 viewBox="0 0 60.2 30" style="enable-background:new 0 0 60.2 30;" xml:space="preserve">
<style type="text/css">
	.st0{fill:#FFC035;}
</style>
<path class="st0" d="M62,30H3.5c-1.7,0-3.1-1.6-3.1-3.7V3.6c0-2,1.4-3.7,3.1-3.7H62c1.7,0,3.1,1.6,3.1,3.7v22.7
	C65.1,28.4,63.7,30,62,30z"/>
<g>
	<polygon points="51.2,12.8 47.8,9.3 46.6,8 42,12.8 43.2,14 45.8,11.4 45.8,17.5 47.4,17.5 47.4,11.4 50,14 	"/>
	<g>
		<polygon points="51.7,21.9 41.5,21.9 41.5,17.5 43.2,17.5 43.2,20.1 50,20.1 50,17.5 51.7,17.5 		"/>
	</g>
</g>
<g>
	<path d="M8.4,21.5v-13H11v10.1h2.7v2.9H8.4z"/>
	<path d="M20.2,20.7c-0.1,0.2-0.2,0.4-0.4,0.5c-0.1,0.1-0.3,0.2-0.5,0.3c-0.2,0.1-0.5,0.1-0.8,0.2c-0.3,0-0.6,0.1-1,0.1
		c-0.8,0-1.4-0.1-1.8-0.2c-0.4-0.2-0.7-0.4-0.9-0.8c-0.1-0.2-0.2-0.4-0.3-0.6c-0.1-0.2-0.1-0.6-0.2-1c0-0.4-0.1-0.9-0.1-1.6
		c0-0.6,0-1.5,0-2.5c0-1,0-1.8,0-2.5c0-0.6,0.1-1.2,0.1-1.6c0-0.4,0.1-0.7,0.2-0.9c0.1-0.2,0.2-0.4,0.3-0.7c0.1-0.2,0.2-0.4,0.4-0.5
		c0.1-0.1,0.3-0.2,0.5-0.3s0.5-0.1,0.8-0.2c0.3,0,0.6-0.1,1-0.1c0.8,0,1.4,0.1,1.8,0.2C19.7,8.7,20,9,20.2,9.3
		c0.1,0.2,0.2,0.4,0.3,0.7c0.1,0.2,0.1,0.5,0.2,0.9c0,0.4,0.1,0.9,0.1,1.6c0,0.6,0,1.5,0,2.5c0,1,0,1.8,0,2.5c0,0.6-0.1,1.2-0.1,1.6
		c0,0.4-0.1,0.7-0.2,1C20.4,20.2,20.3,20.5,20.2,20.7z M18.1,18.5c0-0.1,0-0.2,0.1-0.3c0-0.1,0-0.3,0-0.6c0-0.3,0-0.6,0-1
		c0-0.4,0-1,0-1.7c0-0.7,0-1.3,0-1.7c0-0.4,0-0.8,0-1c0-0.3,0-0.4,0-0.6c0-0.1,0-0.2-0.1-0.3c0-0.1-0.1-0.2-0.2-0.2
		c-0.1-0.1-0.2-0.1-0.4-0.1c-0.2,0-0.4,0-0.5,0.1c-0.1,0.1-0.2,0.1-0.2,0.2c0,0.1-0.1,0.2-0.1,0.3c0,0.1,0,0.3,0,0.6
		c0,0.3,0,0.6,0,1c0,0.4,0,1,0,1.7c0,0.7,0,1.3,0,1.7c0,0.4,0,0.8,0,1c0,0.3,0,0.4,0,0.6c0,0.1,0,0.2,0.1,0.3c0,0.1,0.1,0.2,0.2,0.2
		c0.1,0,0.2,0.1,0.5,0.1c0.2,0,0.4,0,0.4-0.1C18,18.7,18,18.6,18.1,18.5z"/>
	<path d="M25.5,21.5l-0.2-3H24l-0.2,3h-2.6l1.3-13h4.3l1.2,13H25.5z M24.7,11.2h-0.2l-0.4,4.6h1L24.7,11.2z"/>
	<path d="M28.9,21.5v-13h3.5c0.8,0,1.4,0.1,1.8,0.2c0.4,0.2,0.7,0.4,1,0.8c0.1,0.2,0.2,0.4,0.3,0.6c0.1,0.2,0.1,0.5,0.2,0.9
		c0,0.4,0.1,0.9,0.1,1.5c0,0.6,0,1.4,0,2.4c0,1,0,1.8,0,2.4c0,0.6-0.1,1.1-0.1,1.5c0,0.4-0.1,0.7-0.2,0.9c-0.1,0.2-0.2,0.4-0.3,0.6
		c-0.1,0.2-0.2,0.4-0.4,0.5c-0.2,0.1-0.3,0.2-0.6,0.3c-0.2,0.1-0.5,0.1-0.8,0.2c-0.3,0-0.6,0.1-1,0.1H28.9z M32.3,18.6
		c0.2,0,0.4,0,0.4-0.1c0.1,0,0.2-0.1,0.2-0.2c0-0.1,0-0.2,0.1-0.3c0-0.1,0-0.3,0-0.5c0-0.2,0-0.6,0-1c0-0.4,0-0.9,0-1.6
		c0-0.7,0-1.2,0-1.6c0-0.4,0-0.7,0-1c0-0.2,0-0.4,0-0.5c0-0.1,0-0.2-0.1-0.3c0-0.1-0.1-0.2-0.2-0.2c-0.1,0-0.2-0.1-0.4-0.1h-0.8v7.4
		H32.3z"/>
</g>
</svg>
