<?xml version="1.0" encoding="utf-8"?>
<!-- Generator: Adobe Illustrator 20.0.0, SVG Export Plug-In . SVG Version: 6.00 Build 0)  -->
<svg version="1.1" id="Layer_1" xmlns="http://www.w3.org/2000/svg" xmlns:xlink="http://www.w3.org/1999/xlink" x="0px" y="0px"
	 viewBox="0 0 450 100" style="enable-background:new 0 0 450 100;" xml:space="preserve">
<style type="text/css">
	.st0{fill:#E24949;}
	.st1{fill:#FFFFFF;}
	.st2{fill:#F4F4F4;}
</style>
<path class="st0" d="M387.5,1.7c-0.2,0-0.4,0-0.6,0c-13.2,0-25.2,5.2-34,13.8c-8.5,8.8-13.8,20.8-13.8,34
	c0,22.5,15.1,41.4,35.8,47.1c4,1.1,8.2,1.8,12.6,1.8c0.2,0,0.4,0,0.6,0c13.2,0,25.2-5.2,34-13.8c7.5-7.7,12.4-17.9,13.5-29.2
	c0.2-1.6,0.2-3.2,0.2-4.8C435.7,23.8,414.2,2,387.5,1.7z"/>
<g>
	<g>
		<g>
			<path class="st1" d="M413.7,38.8c1.2,0,2,0.4,2.8,1.2s1.2,1.8,1.2,2.8v11.6c0,1.2-0.4,2-1.2,2.8s-1.8,1.2-2.8,1.2h-53
				c-1.2,0-2-0.4-2.8-1.2c-0.8-1-1.2-1.8-1.2-2.8V42.9c0-1.2,0.4-2,1.2-2.8c1-0.8,1.8-1.2,2.8-1.2h53V38.8z"/>
		</g>
	</g>
</g>
<g>
	<path class="st2" d="M47.9,90.8c-0.2-0.6-0.4-1.3-0.6-2.1c-0.2-0.7-0.4-1.9-0.6-3.4c-0.2-1.5-0.5-3.6-0.9-6.3
		c-0.4-2.7-0.8-6.4-1.3-11.1c-0.2-1.8-0.4-3.3-0.6-4.5c-0.2-1.1-0.5-2-0.7-2.6c-0.3-0.6-0.6-1-1.1-1.2c-0.4-0.2-0.9-0.3-1.4-0.3
		h-2.6v31.4H21.5V10.1h24.4c3.6,0,6.6,0.4,8.9,1.2c2.3,0.8,4.2,2.1,5.6,3.8c1.4,1.7,2.3,4,2.9,6.7c0.5,2.7,0.8,6.1,0.8,10
		c0,4.2-0.1,7.5-0.4,9.9c-0.3,2.4-0.7,4.2-1.3,5.6c-0.6,1.4-1.3,2.4-2.2,3c-0.9,0.7-1.8,1.3-3,2V53c0.4,0.4,0.9,0.7,1.3,1.2
		c0.5,0.4,0.9,1.1,1.2,2.1c0.6,1.3,1.2,3.2,1.8,5.8s1.2,6.2,1.8,10.9c0.4,3.3,0.7,5.9,1,7.9c0.2,2,0.4,3.6,0.6,4.8
		c0.2,1.2,0.3,2.1,0.4,2.8c0.1,0.6,0.3,1.2,0.5,1.8v0.5C65.8,90.8,47.9,90.8,47.9,90.8z M42.9,44.3c1.6,0,2.7-0.7,3.3-2s1-3.9,1-7.6
		c0-3.2-0.4-5.3-1.1-6.4c-0.7-1.1-1.9-1.6-3.6-1.6h-4.3v17.6C38.2,44.3,42.9,44.3,42.9,44.3z"/>
	<path class="st2" d="M70.7,90.8V10.1h35.7v17h-19v14.2H106v16.3H87.5v15.2h18.9v17.9H70.7V90.8z"/>
	<path class="st2" d="M161.4,90.8V42.4h-0.6l-12.3,48.4h-7.4l-12.4-48.4h-0.6v48.4h-15.2V10.1h23.6l7.5,35h0.7l8.3-35h23.5l0.1,80.6
		h-15.2L161.4,90.8L161.4,90.8z"/>
	<path class="st2" d="M222.1,85.5c-0.7,1.3-1.5,2.3-2.5,3.1c-1,0.8-2.1,1.5-3.6,2c-1.4,0.5-3.1,0.9-5,1.1s-4.2,0.3-6.7,0.3
		c-5.2,0-9.1-0.5-11.8-1.4c-2.7-1-4.7-2.7-6.1-5.2c-0.7-1.2-1.3-2.5-1.8-4s-0.9-3.4-1.2-5.9s-0.6-5.7-0.7-9.7
		c-0.1-4-0.2-9.2-0.2-15.5s0.1-11.5,0.2-15.4c0.1-4,0.4-7.2,0.7-9.7s0.7-4.4,1.2-5.9c0.5-1.4,1.1-2.8,1.8-4s1.5-2.2,2.5-3.1
		c1-0.9,2.1-1.5,3.6-2.1c1.4-0.5,3.1-0.9,5.1-1.1c2-0.2,4.2-0.3,6.8-0.3c5.1,0,9,0.5,11.7,1.5s4.7,2.7,6.1,5.1
		c0.7,1.3,1.3,2.6,1.8,4s0.9,3.4,1.2,5.9s0.5,5.7,0.7,9.7c0.1,4,0.2,9.1,0.2,15.4s-0.1,11.5-0.2,15.5c-0.1,4-0.4,7.3-0.7,9.7
		c-0.3,2.5-0.7,4.5-1.2,5.9C223.4,83,222.8,84.3,222.1,85.5z M208.5,72.2c0.1-0.5,0.3-1.1,0.4-1.9c0.1-0.8,0.2-2,0.3-3.5
		c0.1-1.6,0.1-3.7,0.2-6.3c0-2.7,0.1-6.2,0.1-10.5c0-4.5,0-8.1-0.1-10.8c0-2.7-0.1-4.8-0.2-6.4c-0.1-1.6-0.2-2.8-0.3-3.6
		c-0.1-0.8-0.3-1.4-0.4-1.9c-0.3-0.7-0.7-1.2-1.3-1.5s-1.5-0.5-2.9-0.5s-2.3,0.2-2.9,0.5c-0.6,0.3-1,0.8-1.2,1.5
		c-0.2,0.5-0.4,1.1-0.5,1.9s-0.2,2-0.3,3.6c-0.1,1.6-0.2,3.7-0.2,6.4s-0.1,6.3-0.1,10.8c0,4.3,0,7.8,0.1,10.5c0,2.7,0.1,4.8,0.2,6.3
		c0.1,1.6,0.2,2.7,0.3,3.5s0.3,1.4,0.5,1.9c0.2,0.7,0.6,1.2,1.2,1.5c0.6,0.3,1.6,0.4,2.9,0.4c1.3,0,2.3-0.1,2.9-0.4
		C207.8,73.4,208.2,72.9,208.5,72.2z"/>
	<path class="st2" d="M238.2,90.8l-9.6-80.6h18.1l4.5,56.8h1.2l4.3-56.8h17.8l-10.1,80.6H238.2z"/>
	<path class="st2" d="M279.3,90.8V10.1H315v17h-19v14.2h18.6v16.3H296v15.2h18.9v17.9h-35.6V90.8z"/>
</g>
</svg>
