<?xml version="1.0" encoding="utf-8"?>
<!-- Generator: Adobe Illustrator 20.0.0, SVG Export Plug-In . SVG Version: 6.00 Build 0)  -->
<svg version="1.1" id="Layer_1" xmlns="http://www.w3.org/2000/svg" xmlns:xlink="http://www.w3.org/1999/xlink" x="0px" y="0px"
	 viewBox="0 0 450 100" style="enable-background:new 0 0 450 100;" xml:space="preserve">
<style type="text/css">
	.st0{fill:#222222;enable-background:new    ;}
	.st1{fill:#FFFFFF;}
	.st2{fill:#F4F4F4;}
</style>
<g>
	<path class="st0" d="M389.8,2.6c-0.2,0-0.4,0-0.6,0c-13.2,0-25.2,5.2-34,13.8c-8.5,8.8-13.8,20.8-13.8,34
		c0,22.5,15.1,41.4,35.8,47.1c4,1.1,8.2,1.8,12.6,1.8c0.2,0,0.4,0,0.6,0c13.2,0,25.2-5.2,34-13.8c7.5-7.7,12.4-17.9,13.5-29.2
		c0.2-1.6,0.2-3.2,0.2-4.8C438,24.9,416.5,3,389.8,2.6z"/>
	<g>
		<g>
			<g>
				<path class="st1" d="M416,40.5c1.1,0,2,0.4,2.8,1.1c0.7,0.7,1.1,1.8,1.1,2.8v11.8c0,1.1-0.4,2-1.1,2.8c-0.7,0.7-1.8,1.1-2.8,1.1
					h-52.8c-1.1,0-2-0.4-2.8-1.1c-0.7-0.9-1.1-1.8-1.1-2.8V44.4c0-1.1,0.4-2,1.1-2.8c0.9-0.7,1.8-1.1,2.8-1.1
					C363.2,40.5,416,40.5,416,40.5z"/>
			</g>
		</g>
	</g>
</g>
<g>
	<path class="st2" d="M20,80.4V17.6h11.9v48.9h12.3v14L20,80.4L20,80.4z"/>
	<path class="st2" d="M47.7,80.4V17.6h25.4v13.3H59.7v11H73v12.7H59.7v11.9h13.4v14L47.7,80.4L47.7,80.4z"/>
	<path class="st2" d="M94.3,37.1c0-0.4,0.1-0.8,0.1-1.1s0-0.8,0-1.6c0-1.9-0.2-3.3-0.6-4s-1.4-1.1-2.8-1.1c-1.5,0-2.4,0.4-2.8,1.1
		s-0.6,2.1-0.6,4c0,1.8,0.2,3.1,0.6,3.9c0.4,0.7,1.1,1.4,2.1,2c1.1,0.7,2.2,1.3,3.1,1.8s1.9,1,2.7,1.4c0.8,0.4,1.6,0.8,2.4,1.2
		s1.5,0.9,2.3,1.4c0.8,0.7,1.5,1.4,2.2,2.1c0.6,0.7,1.1,1.7,1.5,2.9s0.7,2.7,0.9,4.4c0.2,1.7,0.3,3.9,0.3,6.5c0,3.8-0.2,6.9-0.7,9.4
		s-1.3,4.5-2.4,6S99.9,80,98,80.6s-4.4,1-7.2,1c-4.8,0-8.2-1-10.5-2.9c-2.2-2-3.3-5.4-3.3-10.3c0-1.6,0-3.2,0.1-4.9
		c0.1-1.6,0.2-2.9,0.5-3.9h9.9c-0.1,0.3-0.2,0.7-0.2,1.1c0,0.4,0,0.8,0,1.2c0,2.4,0.2,4.1,0.7,5c0.5,0.9,1.4,1.4,3,1.4
		c1.5,0,2.5-0.4,3-1.2c0.5-0.8,0.7-2.5,0.7-5.2c0-1.6-0.2-2.8-0.7-3.7c-0.5-0.8-1.2-1.6-2.2-2.4c-0.9-0.7-1.9-1.3-2.9-1.8
		c-1-0.6-2.1-1.1-3.1-1.6s-2-1-3-1.6s-1.8-1.3-2.6-2c-1.6-1.5-2.5-3.5-2.8-6.1s-0.5-6-0.5-10.1c0-2.9,0.2-5.4,0.6-7.4
		s1.2-3.7,2.2-4.9c1.1-1.2,2.5-2.1,4.3-2.7s4.1-0.8,7-0.8c2.6,0,4.7,0.2,6.5,0.7c1.7,0.4,3.2,1.2,4.3,2.3c1.1,1.1,1.9,2.5,2.4,4.3
		s0.7,4,0.7,6.6c0,1.7,0,3.1-0.1,4.1s-0.2,1.9-0.5,2.7h-10V37.1z"/>
	<path class="st2" d="M126.2,37.1c0-0.4,0.1-0.8,0.1-1.1s0-0.8,0-1.6c0-1.9-0.2-3.3-0.6-4s-1.4-1.1-2.8-1.1c-1.5,0-2.4,0.4-2.8,1.1
		s-0.6,2.1-0.6,4c0,1.8,0.2,3.1,0.6,3.9c0.4,0.7,1.1,1.4,2.1,2c1.1,0.7,2.2,1.3,3.1,1.8s1.9,1,2.7,1.4c0.8,0.4,1.6,0.8,2.4,1.2
		c0.8,0.4,1.5,0.9,2.3,1.4c0.8,0.7,1.5,1.4,2.2,2.1c0.6,0.7,1.1,1.7,1.5,2.9s0.7,2.7,0.9,4.4s0.3,3.9,0.3,6.5c0,3.8-0.2,6.9-0.7,9.4
		s-1.3,4.5-2.4,6c-1.1,1.5-2.7,2.6-4.6,3.2c-1.9,0.6-4.4,1-7.2,1c-4.8,0-8.2-1-10.5-2.9c-2.2-2-3.3-5.4-3.3-10.3
		c0-1.6,0-3.2,0.1-4.9c0.1-1.6,0.2-2.9,0.5-3.9h9.9c-0.1,0.3-0.2,0.7-0.2,1.1c0,0.4,0,0.8,0,1.2c0,2.4,0.2,4.1,0.7,5
		c0.5,0.9,1.4,1.4,3,1.4c1.5,0,2.5-0.4,3-1.2c0.5-0.8,0.7-2.5,0.7-5.2c0-1.6-0.2-2.8-0.7-3.7c-0.5-0.8-1.2-1.6-2.2-2.4
		c-0.9-0.7-1.9-1.3-2.9-1.8c-1-0.6-2.1-1.1-3.1-1.6s-2-1-3-1.6s-1.8-1.3-2.6-2c-1.6-1.5-2.5-3.5-2.8-6.1s-0.5-6-0.5-10.1
		c0-2.9,0.2-5.4,0.6-7.4s1.2-3.7,2.2-4.9c1.1-1.2,2.5-2.1,4.3-2.7s4.1-0.8,7-0.8c2.6,0,4.7,0.2,6.5,0.7c1.7,0.4,3.2,1.2,4.3,2.3
		c1.1,1.1,1.9,2.5,2.4,4.3s0.7,4,0.7,6.6c0,1.7,0,3.1-0.1,4.1s-0.2,1.9-0.5,2.7h-10V37.1z"/>
	<path class="st2" d="M184,76.4c-0.5,1-1.1,1.8-1.8,2.5c-0.7,0.6-1.5,1.2-2.5,1.6s-2.2,0.7-3.6,0.9s-3,0.2-4.8,0.2
		c-3.7,0-6.5-0.4-8.4-1.1s-3.4-2.1-4.4-4c-0.5-0.9-0.9-2-1.3-3.1c-0.4-1.1-0.6-2.7-0.9-4.6c-0.2-1.9-0.4-4.5-0.5-7.6
		s-0.2-7.2-0.2-12.1s0-8.9,0.2-12c0.1-3.1,0.3-5.6,0.5-7.6c0.2-1.9,0.5-3.5,0.9-4.6s0.8-2.2,1.3-3.2c0.5-0.9,1.1-1.7,1.8-2.4
		s1.5-1.2,2.5-1.6s2.2-0.7,3.6-0.9c1.4-0.2,3-0.2,4.8-0.2c3.6,0,6.4,0.4,8.3,1.2c1.9,0.8,3.4,2.1,4.4,4c0.5,1,0.9,2,1.3,3.2
		c0.4,1.1,0.6,2.6,0.9,4.6c0.2,1.9,0.4,4.5,0.5,7.6s0.2,7.1,0.2,12s-0.1,9-0.2,12.1c-0.1,3.1-0.3,5.7-0.5,7.6s-0.5,3.5-0.9,4.6
		C185,74.4,184.5,75.4,184,76.4z M174.3,66c0.1-0.4,0.2-0.9,0.3-1.5s0.2-1.5,0.2-2.7s0.1-2.9,0.1-4.9c0-2.1,0-4.8,0-8.2
		c0-3.5,0-6.3,0-8.4c0-2.1-0.1-3.8-0.1-5c-0.1-1.2-0.1-2.2-0.2-2.8c-0.1-0.6-0.2-1.1-0.3-1.5c-0.2-0.6-0.5-1-0.9-1.2s-1.1-0.4-2-0.4
		c-1,0-1.7,0.1-2.1,0.4c-0.4,0.2-0.7,0.7-0.9,1.2c-0.2,0.4-0.3,0.9-0.3,1.5c-0.1,0.6-0.2,1.5-0.2,2.8c-0.1,1.2-0.1,2.9-0.2,5
		c0,2.1,0,4.9,0,8.4c0,3.4,0,6.1,0,8.2c0,2.1,0.1,3.7,0.2,4.9c0.1,1.2,0.2,2.1,0.2,2.7c0.1,0.6,0.2,1.1,0.3,1.5
		c0.2,0.6,0.4,0.9,0.9,1.2c0.4,0.2,1.1,0.3,2.1,0.3s1.6-0.1,2-0.3C173.8,66.9,174.1,66.5,174.3,66z"/>
	<path class="st2" d="M191.1,80.4V17.6h25v13.3H203v12.5h12.9v12.8H203v24.3L191.1,80.4L191.1,80.4z"/>
	<path class="st2" d="M227.5,80.4V30.9h-9V17.6h30v13.3h-9v49.6L227.5,80.4L227.5,80.4z"/>
	<path class="st2" d="M252,80.4V17.6h25.4v13.3H264v11h13.3v12.7H264v11.9h13.4v14L252,80.4L252,80.4z"/>
	<path class="st2" d="M307.1,80.4l-13.6-33.7H293v33.7h-10.9V17.6h11.7l8,21.8h0.5V17.6h10.9v62.9L307.1,80.4L307.1,80.4z"/>
</g>
</svg>
