<?xml version="1.0" encoding="utf-8"?>
<!-- Generator: Adobe Illustrator 20.0.0, SVG Export Plug-In . SVG Version: 6.00 Build 0)  -->
<svg version="1.1" id="Layer_1" xmlns="http://www.w3.org/2000/svg" xmlns:xlink="http://www.w3.org/1999/xlink" x="0px" y="0px"
	 viewBox="0 0 450 100" style="enable-background:new 0 0 450 100;" xml:space="preserve">
<style type="text/css">
	.st0{fill:#222222;enable-background:new    ;}
	.st1{fill:#FFFFFF;}
	.st2{fill:#F4F4F4;}
</style>
<g>
	<path class="st0" d="M389.5,2.1c-0.2,0-0.4,0-0.6,0c-13.2,0-25.2,5.2-34,13.8c-8.5,8.8-13.8,20.8-13.8,34
		c0,22.5,15.1,41.4,35.8,47.1c4,1.1,8.2,1.8,12.6,1.8c0.2,0,0.4,0,0.6,0c13.2,0,25.2-5.2,34-13.8c7.5-7.7,12.4-17.9,13.5-29.2
		c0.2-1.6,0.2-3.2,0.2-4.8C437.7,24.4,416.2,2.5,389.5,2.1z"/>
</g>
<g>
	<g>
		<g>
			<path class="st1" d="M381,26.3c0-1,0.2-1.7,1-2.5c0.7-0.7,1.5-1,2.5-1H395c1,0,1.7,0.2,2.5,1c0.7,0.7,1,1.5,1,2.5v14.2
				c0,0.5,0.2,1,1,1h13.9c1,0,1.7,0.2,2.5,1c0.7,0.7,1,1.5,1,2.5v10.5c0,1-0.2,1.7-1,2.5c-0.7,0.7-1.5,1-2.5,1h-13.9
				c-0.5,0-1,0.2-1,1v13.9c0,1-0.2,1.7-1,2.5c-0.7,0.7-1.5,1-2.5,1h-10.5c-1,0-1.7-0.2-2.5-1c-0.7-0.7-1-1.5-1-2.5v-14
				c0-0.5-0.2-1-1-1h-13.9c-1,0-1.7-0.2-2.5-1c-0.7-0.7-1-1.5-1-2.5V45c0-1,0.2-1.7,1-2.5c0.7-0.7,1.5-1,2.5-1H380c0.5,0,1-0.2,1-1
				V26.3z"/>
		</g>
	</g>
</g>
<g>
	<path class="st2" d="M47.9,81.4V43.7h-0.4l-8.2,37.7h-4.9L26,43.7h-0.4v37.7H15.3V18.5h15.9l5,27.3h0.5l5.6-27.3h15.8l0.1,62.9
		H47.9z"/>
	<path class="st2" d="M88.7,77.3c-0.5,1-1,1.8-1.7,2.5c-0.6,0.6-1.4,1.2-2.4,1.6s-2.1,0.7-3.4,0.9c-1.3,0.2-2.8,0.2-4.5,0.2
		c-3.5,0-6.1-0.4-7.9-1.1s-3.2-2.1-4.1-4c-0.5-0.9-0.9-2-1.2-3.1s-0.6-2.7-0.8-4.6s-0.4-4.5-0.5-7.6s-0.1-7.2-0.1-12.1s0-8.9,0.1-12
		s0.3-5.6,0.5-7.6c0.2-1.9,0.5-3.5,0.8-4.6s0.7-2.2,1.2-3.2c0.5-0.9,1-1.7,1.7-2.4c0.6-0.7,1.4-1.2,2.4-1.6s2.1-0.7,3.4-0.9
		c1.3-0.2,2.8-0.2,4.5-0.2c3.4,0,6.1,0.4,7.8,1.2c1.8,0.8,3.2,2.1,4.1,4c0.5,1,0.9,2,1.2,3.2c0.3,1.1,0.6,2.6,0.8,4.6
		c0.2,1.9,0.4,4.5,0.5,7.6s0.1,7.1,0.1,12s0,9-0.1,12.1s-0.3,5.7-0.5,7.6s-0.5,3.5-0.8,4.6C89.6,75.4,89.2,76.4,88.7,77.3z
		 M79.6,66.9c0.1-0.4,0.2-0.9,0.3-1.5c0.1-0.6,0.2-1.5,0.2-2.7s0.1-2.9,0.1-4.9c0-2.1,0-4.8,0-8.2c0-3.5,0-6.3,0-8.4
		c0-2.1-0.1-3.8-0.1-5S80,34,79.9,33.4s-0.2-1.1-0.3-1.5c-0.2-0.6-0.5-1-0.9-1.2s-1-0.4-1.9-0.4s-1.6,0.1-2,0.4
		c-0.4,0.2-0.7,0.7-0.8,1.2c-0.1,0.4-0.3,0.9-0.3,1.5c-0.1,0.6-0.1,1.5-0.2,2.8c-0.1,1.2-0.1,2.9-0.1,5s0,4.9,0,8.4
		c0,3.4,0,6.1,0,8.2c0,2.1,0.1,3.7,0.1,4.9c0.1,1.2,0.1,2.1,0.2,2.7s0.2,1.1,0.3,1.5c0.1,0.6,0.4,0.9,0.8,1.2c0.4,0.2,1.1,0.3,2,0.3
		s1.6-0.1,1.9-0.3C79.1,67.9,79.4,67.5,79.6,66.9z"/>
	<path class="st2" d="M113.2,81.4c-0.1-0.5-0.3-1-0.4-1.6s-0.3-1.5-0.4-2.7s-0.3-2.8-0.6-4.9c-0.2-2.1-0.5-5-0.9-8.6
		c-0.1-1.4-0.3-2.6-0.4-3.5s-0.3-1.6-0.5-2c-0.2-0.5-0.4-0.8-0.7-0.9c-0.3-0.1-0.6-0.2-0.9-0.2h-1.7v24.5H95.4v-63h16.4
		c2.4,0,4.4,0.3,6,1c1.6,0.6,2.8,1.6,3.8,3c0.9,1.4,1.6,3.1,1.9,5.2c0.4,2.1,0.5,4.7,0.5,7.8c0,3.3-0.1,5.8-0.3,7.7
		c-0.2,1.9-0.5,3.3-0.9,4.4c-0.4,1.1-0.9,1.8-1.5,2.4c-0.6,0.5-1.2,1-2,1.5V52c0.3,0.3,0.6,0.6,0.9,0.9c0.3,0.3,0.6,0.9,0.8,1.7
		c0.4,1,0.8,2.5,1.2,4.5c0.4,2,0.8,4.9,1.2,8.5c0.3,2.5,0.5,4.6,0.6,6.1c0.1,1.6,0.3,2.8,0.4,3.7c0.1,0.9,0.2,1.7,0.3,2.2
		s0.2,1,0.3,1.4v0.4H113.2z M109.8,45.2c1,0,1.8-0.5,2.2-1.5c0.4-1,0.6-3,0.6-5.9c0-2.5-0.3-4.2-0.8-5s-1.3-1.2-2.4-1.2h-2.9v13.7
		L109.8,45.2L109.8,45.2z"/>
	<path class="st2" d="M128.5,81.4V18.5h24v13.3h-12.8v11h12.5v12.7h-12.5v11.9h12.7v14H128.5z"/>
	<path class="st2" d="M197,77.3c-0.5,1-1,1.8-1.7,2.5c-0.6,0.6-1.4,1.2-2.4,1.6s-2.1,0.7-3.4,0.9c-1.3,0.2-2.8,0.2-4.5,0.2
		c-3.5,0-6.1-0.4-7.9-1.1c-1.8-0.7-3.2-2.1-4.1-4c-0.5-0.9-0.9-2-1.2-3.1s-0.6-2.7-0.8-4.6s-0.4-4.5-0.5-7.6s-0.1-7.2-0.1-12.1
		s0-8.9,0.1-12s0.3-5.6,0.5-7.6c0.2-1.9,0.5-3.5,0.8-4.6s0.7-2.2,1.2-3.2c0.5-0.9,1-1.7,1.7-2.4s1.4-1.2,2.4-1.6s2.1-0.7,3.4-0.9
		c1.3-0.2,2.8-0.2,4.5-0.2c3.4,0,6.1,0.4,7.8,1.2c1.8,0.8,3.2,2.1,4.1,4c0.5,1,0.9,2,1.2,3.2c0.3,1.1,0.6,2.6,0.8,4.6
		c0.2,1.9,0.4,4.5,0.5,7.6s0.1,7.1,0.1,12s0,9-0.1,12.1s-0.3,5.7-0.5,7.6s-0.5,3.5-0.8,4.6C197.9,75.4,197.5,76.4,197,77.3z
		 M187.8,66.9c0.1-0.4,0.2-0.9,0.3-1.5s0.2-1.5,0.2-2.7s0.1-2.9,0.1-4.9c0-2.1,0-4.8,0-8.2c0-3.5,0-6.3,0-8.4c0-2.1-0.1-3.8-0.1-5
		s-0.1-2.2-0.2-2.8c-0.1-0.6-0.2-1.1-0.3-1.5c-0.2-0.6-0.5-1-0.9-1.2s-1-0.4-1.9-0.4s-1.6,0.1-2,0.4c-0.4,0.2-0.7,0.7-0.8,1.2
		c-0.1,0.4-0.3,0.9-0.3,1.5c-0.1,0.6-0.1,1.5-0.2,2.8c-0.1,1.2-0.1,2.9-0.1,5s0,4.9,0,8.4c0,3.4,0,6.1,0,8.2c0,2.1,0.1,3.7,0.1,4.9
		c0.1,1.2,0.1,2.1,0.2,2.7c0.1,0.6,0.2,1.1,0.3,1.5c0.1,0.6,0.4,0.9,0.8,1.2c0.4,0.2,1.1,0.3,2,0.3s1.6-0.1,1.9-0.3
		C187.3,67.9,187.6,67.5,187.8,66.9z"/>
	<path class="st2" d="M203.7,81.4V18.5h23.6v13.3h-12.4v12.5h12.2v12.8h-12.2v24.3C214.9,81.4,203.7,81.4,203.7,81.4z"/>
	<path class="st2" d="M238,81.4V31.8h-8.5V18.5h28.3v13.3h-8.5v49.6C249.3,81.4,238,81.4,238,81.4z"/>
	<path class="st2" d="M261.2,81.4V18.5h24v13.3h-12.8v11H285v12.7h-12.5v11.9h12.7v14H261.2z"/>
	<path class="st2" d="M313.1,81.4l-12.8-33.7h-0.4v33.7h-10.2V18.5h11l7.6,21.8h0.4V18.5H319v62.9H313.1z"/>
</g>
</svg>
