<?xml version="1.0" encoding="utf-8"?>
<!-- Generator: Adobe Illustrator 20.0.0, SVG Export Plug-In . SVG Version: 6.00 Build 0)  -->
<svg version="1.1" id="Layer_1" xmlns="http://www.w3.org/2000/svg" xmlns:xlink="http://www.w3.org/1999/xlink" x="0px" y="0px"
	 viewBox="0 0 400 83.2" style="enable-background:new 0 0 400 83.2;" xml:space="preserve">
<style type="text/css">
	.st0{fill:#EFEFEF;}
</style>
<g>
	<path class="st0" d="M16.3,16.7c0-0.3,0.1-0.5,0.1-0.7c0-0.2,0-0.5,0-1c0-1.2-0.1-2-0.4-2.5c-0.3-0.5-0.9-0.7-1.9-0.7
		c-1,0-1.6,0.2-1.9,0.7c-0.3,0.5-0.4,1.3-0.4,2.5c0,1.1,0.1,1.9,0.4,2.4c0.3,0.5,0.8,0.9,1.4,1.3c0.8,0.4,1.5,0.8,2.1,1.1
		c0.7,0.3,1.3,0.6,1.8,0.8c0.6,0.3,1.1,0.5,1.6,0.7c0.5,0.2,1,0.5,1.5,0.9c0.5,0.4,1,0.8,1.5,1.3c0.4,0.5,0.8,1.1,1,1.8
		c0.3,0.7,0.5,1.6,0.6,2.7c0.1,1.1,0.2,2.4,0.2,4c0,2.3-0.2,4.3-0.5,5.8c-0.3,1.5-0.9,2.8-1.6,3.7c-0.8,0.9-1.8,1.6-3.1,2
		c-1.3,0.4-3,0.6-4.9,0.6c-3.2,0-5.6-0.6-7.1-1.8C5.2,41.1,4.4,39,4.4,36c0-1,0-2,0.1-3c0.1-1,0.2-1.8,0.3-2.4h6.7
		c-0.1,0.2-0.1,0.4-0.1,0.7c0,0.2,0,0.5,0,0.8c0,1.5,0.2,2.5,0.5,3.1c0.3,0.6,1,0.8,2,0.8c1,0,1.7-0.2,2-0.7
		c0.3-0.5,0.5-1.6,0.5-3.2c0-1-0.2-1.7-0.5-2.3c-0.3-0.5-0.8-1-1.5-1.5c-0.6-0.4-1.3-0.8-2-1.1c-0.7-0.3-1.4-0.7-2.1-1
		c-0.7-0.3-1.4-0.6-2-1c-0.7-0.4-1.2-0.8-1.7-1.3c-1.1-0.9-1.7-2.2-1.9-3.8c-0.2-1.6-0.3-3.7-0.3-6.3c0-1.8,0.1-3.3,0.4-4.6
		c0.3-1.2,0.8-2.3,1.5-3S8,4.8,9.2,4.5C10.5,4.2,12,4,13.9,4c1.7,0,3.2,0.1,4.4,0.4c1.2,0.3,2.1,0.7,2.9,1.4
		c0.8,0.7,1.3,1.5,1.6,2.6c0.3,1.1,0.5,2.5,0.5,4.1c0,1.1,0,1.9-0.1,2.5c-0.1,0.6-0.2,1.2-0.3,1.6H16.3z"/>
	<path class="st0" d="M26.7,43.5V4.7h17.2v8.2h-9.1v6.8h9v7.9h-9v7.3h9.1v8.6H26.7z"/>
	<path class="st0" d="M47.1,43.5V4.7h17.2v8.2h-9.1v6.8h9v7.9h-9v7.3h9.1v8.6H47.1z"/>
	<path class="st0" d="M101,43.5V20.2h-0.3l-5.9,23.3h-3.5l-6-23.3H85v23.3h-7.3V4.7H89l3.6,16.9H93l4-16.9h11.3l0.1,38.8H101z"/>
	<path class="st0" d="M130.2,41c-0.3,0.6-0.7,1.1-1.2,1.5c-0.5,0.4-1,0.7-1.7,1c-0.7,0.3-1.5,0.4-2.4,0.5c-0.9,0.1-2,0.2-3.2,0.2
		c-2.5,0-4.4-0.2-5.7-0.7c-1.3-0.5-2.3-1.3-3-2.5c-0.3-0.6-0.6-1.2-0.9-1.9s-0.4-1.6-0.6-2.8c-0.2-1.2-0.3-2.8-0.3-4.7
		c-0.1-1.9-0.1-4.4-0.1-7.5c0-3,0-5.5,0.1-7.4c0.1-1.9,0.2-3.5,0.3-4.7c0.2-1.2,0.4-2.1,0.6-2.8c0.2-0.7,0.5-1.3,0.9-1.9
		c0.3-0.6,0.7-1.1,1.2-1.5c0.5-0.4,1-0.7,1.7-1c0.7-0.3,1.5-0.4,2.4-0.5c0.9-0.1,2-0.2,3.3-0.2c2.5,0,4.3,0.2,5.6,0.7
		c1.3,0.5,2.3,1.3,3,2.5c0.3,0.6,0.6,1.3,0.9,1.9c0.2,0.7,0.4,1.6,0.6,2.8c0.2,1.2,0.3,2.8,0.3,4.7c0.1,1.9,0.1,4.4,0.1,7.4
		c0,3,0,5.5-0.1,7.5c-0.1,1.9-0.2,3.5-0.3,4.7c-0.2,1.2-0.4,2.1-0.6,2.8C130.9,39.8,130.6,40.4,130.2,41z M123.7,34.6
		c0.1-0.2,0.1-0.5,0.2-0.9c0.1-0.4,0.1-0.9,0.2-1.7c0-0.8,0.1-1.8,0.1-3.1c0-1.3,0-3,0-5.1c0-2.2,0-3.9,0-5.2c0-1.3,0-2.3-0.1-3.1
		c0-0.8-0.1-1.3-0.2-1.7c-0.1-0.4-0.1-0.7-0.2-0.9c-0.1-0.3-0.3-0.6-0.6-0.7c-0.3-0.2-0.7-0.2-1.4-0.2c-0.7,0-1.1,0.1-1.4,0.2
		c-0.3,0.2-0.5,0.4-0.6,0.7c-0.1,0.2-0.2,0.5-0.2,0.9s-0.1,0.9-0.2,1.7c-0.1,0.8-0.1,1.8-0.1,3.1c0,1.3,0,3,0,5.2c0,2.1,0,3.8,0,5.1
		c0,1.3,0.1,2.3,0.1,3.1c0.1,0.8,0.1,1.3,0.2,1.7c0.1,0.4,0.1,0.7,0.2,0.9c0.1,0.3,0.3,0.6,0.6,0.7c0.3,0.1,0.8,0.2,1.4,0.2
		c0.6,0,1.1-0.1,1.4-0.2C123.3,35.2,123.5,34.9,123.7,34.6z"/>
	<path class="st0" d="M147.7,43.5c-0.1-0.3-0.2-0.6-0.3-1c-0.1-0.4-0.2-0.9-0.3-1.6c-0.1-0.7-0.2-1.8-0.4-3.1
		c-0.2-1.3-0.4-3.1-0.6-5.3c-0.1-0.9-0.2-1.6-0.3-2.2c-0.1-0.5-0.2-1-0.4-1.3c-0.1-0.3-0.3-0.5-0.5-0.6c-0.2-0.1-0.4-0.1-0.7-0.1
		h-1.2v15.1H135V4.7h11.8c1.7,0,3.2,0.2,4.3,0.6c1.1,0.4,2,1,2.7,1.8c0.7,0.8,1.1,1.9,1.4,3.2c0.3,1.3,0.4,2.9,0.4,4.8
		c0,2-0.1,3.6-0.2,4.7c-0.1,1.1-0.4,2-0.6,2.7c-0.3,0.7-0.6,1.1-1.1,1.5c-0.4,0.3-0.9,0.6-1.4,0.9v0.3c0.2,0.2,0.4,0.4,0.6,0.6
		c0.2,0.2,0.4,0.5,0.6,1c0.3,0.6,0.6,1.5,0.8,2.8c0.3,1.2,0.6,3,0.8,5.3c0.2,1.6,0.4,2.8,0.5,3.8c0.1,1,0.2,1.7,0.3,2.3
		c0.1,0.6,0.2,1,0.2,1.3c0.1,0.3,0.1,0.6,0.2,0.9v0.3H147.7z M145.3,21.1c0.8,0,1.3-0.3,1.6-0.9c0.3-0.6,0.5-1.9,0.5-3.7
		c0-1.5-0.2-2.6-0.5-3.1c-0.4-0.5-0.9-0.8-1.7-0.8h-2.1v8.5H145.3z"/>
	<path class="st0" d="M158.7,43.5V4.7h17.2v8.2h-9.1v6.8h9v7.9h-9v7.3h9.1v8.6H158.7z"/>
	<path class="st0" d="M209.3,28.6c0.1,1.2,0.2,2.4,0.2,3.5c0,2.1-0.1,3.8-0.3,5.4c-0.2,1.5-0.7,2.8-1.4,3.8c-0.7,1-1.7,1.7-3.1,2.2
		c-1.3,0.5-3.1,0.7-5.2,0.7c-2.6,0-4.5-0.2-5.9-0.7c-1.4-0.5-2.4-1.3-3-2.5c-0.3-0.5-0.6-1.2-0.9-1.9s-0.4-1.8-0.6-3
		c-0.2-1.3-0.3-2.9-0.3-4.8c-0.1-1.9-0.1-4.4-0.1-7.4s0-5.5,0.1-7.3c0.1-1.9,0.2-3.4,0.3-4.6c0.2-1.2,0.4-2.1,0.6-2.8
		c0.2-0.7,0.5-1.3,0.9-1.9c0.7-1.2,1.7-2,3-2.4c1.3-0.4,3.2-0.7,5.6-0.7c2.2,0,4,0.2,5.3,0.6c1.3,0.4,2.4,1.1,3.1,2
		c0.7,0.9,1.2,2.1,1.4,3.6c0.2,1.5,0.4,3.2,0.4,5.3c0,0.5,0,1,0,1.6c0,0.6,0,1.2-0.1,1.8h-7.5c0-1,0-1.9,0-2.6c0-0.7,0-1.2-0.1-1.7
		c0-0.4-0.1-0.8-0.1-1.1s-0.1-0.5-0.1-0.6c-0.1-0.6-0.9-1-2.2-1c-0.7,0-1.1,0.1-1.4,0.2c-0.3,0.2-0.5,0.4-0.6,0.7
		c-0.1,0.3-0.2,0.6-0.2,0.9c-0.1,0.4-0.1,0.9-0.2,1.6c-0.1,0.7-0.1,1.8-0.1,3.1c0,1.3,0,3,0,5.1c0,2.2,0,3.9,0,5.2
		c0,1.3,0.1,2.3,0.1,3.1s0.1,1.3,0.2,1.7c0.1,0.4,0.1,0.7,0.2,1c0.1,0.3,0.3,0.6,0.6,0.7c0.3,0.1,0.9,0.2,1.6,0.2
		c1,0,1.6-0.3,1.8-0.9c0.1-0.3,0.2-0.7,0.3-1.1c0.1-0.4,0.1-0.8,0.2-1.3c0-0.5,0.1-1,0.1-1.6c0-0.6,0-1.3,0-2.1H209.3z"/>
	<path class="st0" d="M224,43.5l-0.7-9h-3.9l-0.6,9h-8.1l4.2-38.8h13.5l3.9,38.8H224z M221.7,12.8h-0.6l-1.3,13.9h3.2L221.7,12.8z"
		/>
	<path class="st0" d="M237.5,43.5V12.9h-6.1V4.7h20.3v8.2h-6.1v30.6H237.5z"/>
	<path class="st0" d="M254,43.5V4.7h17.2v8.2h-9.1v6.8h9v7.9h-9v7.3h9.1v8.6H254z"/>
	<path class="st0" d="M287.4,28.5h-3.7v-7.8h11c0,0.7,0.1,1.7,0.1,3c0,1.3,0,2.9,0,4.7c0,2.1,0,3.9-0.1,5.3
		c-0.1,1.4-0.2,2.6-0.3,3.5c-0.2,0.9-0.3,1.7-0.6,2.3c-0.2,0.6-0.5,1.1-0.8,1.6c-0.3,0.6-0.7,1.1-1.2,1.5c-0.5,0.4-1,0.7-1.7,1
		c-0.7,0.3-1.5,0.4-2.4,0.5c-0.9,0.1-2,0.2-3.2,0.2c-2.5,0-4.4-0.2-5.7-0.7c-1.3-0.5-2.3-1.3-3-2.5c-0.3-0.6-0.6-1.2-0.9-1.9
		c-0.2-0.7-0.4-1.7-0.6-2.9c-0.2-1.2-0.3-2.8-0.3-4.8c-0.1-1.9-0.1-4.5-0.1-7.6c0-3,0-5.5,0.1-7.3c0.1-1.9,0.2-3.4,0.3-4.6
		c0.2-1.2,0.4-2.1,0.6-2.8c0.2-0.7,0.5-1.3,0.9-1.9c0.7-1.2,1.7-2,3-2.4c1.3-0.4,3.2-0.7,5.6-0.7c2.8,0,5,0.4,6.4,1.1
		c1.4,0.7,2.4,2,3,3.7c0.4,1.4,0.7,3.3,0.7,5.7c0,0.5,0,0.8,0,1.1c0,0.3,0,0.6-0.1,0.9h-7.5c0-0.1,0.1-0.2,0.1-0.3
		c0-0.1,0-0.2,0-0.3c0-0.9,0-1.5-0.1-1.9c-0.1-0.4-0.1-0.8-0.2-1c-0.1-0.6-0.9-1-2.4-1c-0.7,0-1.2,0.1-1.5,0.2
		c-0.3,0.2-0.6,0.4-0.7,0.7c-0.1,0.3-0.1,0.6-0.2,0.9c-0.1,0.4-0.1,0.9-0.2,1.6c0,0.7-0.1,1.8-0.1,3.1c0,1.3,0,3,0,5.1
		c0,2.2,0,4,0,5.3c0,1.3,0,2.3,0.1,3.1c0,0.7,0.1,1.3,0.1,1.6c0.1,0.3,0.1,0.6,0.2,0.8c0.3,0.8,1.1,1.1,2.5,1.1
		c0.7,0,1.2-0.1,1.5-0.2c0.3-0.2,0.6-0.4,0.8-0.7c0.1-0.2,0.2-0.3,0.3-0.5c0.1-0.2,0.1-0.4,0.2-0.7c0-0.3,0.1-0.7,0.1-1.2
		c0-0.5,0-1.1,0-1.9V28.5z"/>
	<path class="st0" d="M316,41c-0.3,0.6-0.7,1.1-1.2,1.5c-0.5,0.4-1,0.7-1.7,1c-0.7,0.3-1.5,0.4-2.4,0.5c-0.9,0.1-2,0.2-3.2,0.2
		c-2.5,0-4.4-0.2-5.7-0.7c-1.3-0.5-2.3-1.3-3-2.5c-0.3-0.6-0.6-1.2-0.9-1.9c-0.2-0.7-0.4-1.6-0.6-2.8c-0.2-1.2-0.3-2.8-0.3-4.7
		c-0.1-1.9-0.1-4.4-0.1-7.5c0-3,0-5.5,0.1-7.4c0.1-1.9,0.2-3.5,0.3-4.7c0.2-1.2,0.4-2.1,0.6-2.8c0.2-0.7,0.5-1.3,0.9-1.9
		c0.3-0.6,0.7-1.1,1.2-1.5c0.5-0.4,1-0.7,1.7-1s1.5-0.4,2.4-0.5c0.9-0.1,2-0.2,3.3-0.2c2.5,0,4.3,0.2,5.6,0.7c1.3,0.5,2.3,1.3,3,2.5
		c0.3,0.6,0.6,1.3,0.9,1.9c0.2,0.7,0.4,1.6,0.6,2.8c0.2,1.2,0.3,2.8,0.3,4.7s0.1,4.4,0.1,7.4c0,3,0,5.5-0.1,7.5s-0.2,3.5-0.3,4.7
		c-0.2,1.2-0.4,2.1-0.6,2.8C316.6,39.8,316.3,40.4,316,41z M309.4,34.6c0.1-0.2,0.1-0.5,0.2-0.9c0.1-0.4,0.1-0.9,0.2-1.7
		s0.1-1.8,0.1-3.1c0-1.3,0-3,0-5.1c0-2.2,0-3.9,0-5.2c0-1.3,0-2.3-0.1-3.1c0-0.8-0.1-1.3-0.2-1.7s-0.1-0.7-0.2-0.9
		c-0.1-0.3-0.3-0.6-0.6-0.7c-0.3-0.2-0.7-0.2-1.4-0.2c-0.6,0-1.1,0.1-1.4,0.2c-0.3,0.2-0.5,0.4-0.6,0.7c-0.1,0.2-0.2,0.5-0.2,0.9
		c-0.1,0.4-0.1,0.9-0.2,1.7c-0.1,0.8-0.1,1.8-0.1,3.1c0,1.3,0,3,0,5.2c0,2.1,0,3.8,0,5.1c0,1.3,0.1,2.3,0.1,3.1
		c0.1,0.8,0.1,1.3,0.2,1.7c0.1,0.4,0.1,0.7,0.2,0.9c0.1,0.3,0.3,0.6,0.6,0.7c0.3,0.1,0.8,0.2,1.4,0.2c0.6,0,1.1-0.1,1.4-0.2
		C309.1,35.2,309.3,34.9,309.4,34.6z"/>
	<path class="st0" d="M333.5,43.5c-0.1-0.3-0.2-0.6-0.3-1c-0.1-0.4-0.2-0.9-0.3-1.6c-0.1-0.7-0.2-1.8-0.4-3.1
		c-0.2-1.3-0.4-3.1-0.6-5.3c-0.1-0.9-0.2-1.6-0.3-2.2c-0.1-0.5-0.2-1-0.4-1.3c-0.1-0.3-0.3-0.5-0.5-0.6c-0.2-0.1-0.4-0.1-0.7-0.1
		h-1.2v15.1h-8.1V4.7h11.8c1.7,0,3.2,0.2,4.3,0.6c1.1,0.4,2,1,2.7,1.8c0.7,0.8,1.1,1.9,1.4,3.2c0.3,1.3,0.4,2.9,0.4,4.8
		c0,2-0.1,3.6-0.2,4.7c-0.1,1.1-0.4,2-0.6,2.7c-0.3,0.7-0.6,1.1-1.1,1.5c-0.4,0.3-0.9,0.6-1.4,0.9v0.3c0.2,0.2,0.4,0.4,0.6,0.6
		c0.2,0.2,0.4,0.5,0.6,1c0.3,0.6,0.6,1.5,0.8,2.8c0.3,1.2,0.6,3,0.8,5.3c0.2,1.6,0.4,2.8,0.5,3.8c0.1,1,0.2,1.7,0.3,2.3
		c0.1,0.6,0.2,1,0.2,1.3c0.1,0.3,0.1,0.6,0.2,0.9v0.3H333.5z M331.1,21.1c0.8,0,1.3-0.3,1.6-0.9c0.3-0.6,0.5-1.9,0.5-3.7
		c0-1.5-0.2-2.6-0.5-3.1c-0.4-0.5-0.9-0.8-1.7-0.8h-2.1v8.5H331.1z"/>
	<path class="st0" d="M344.6,43.5V4.7h8.3v38.8H344.6z"/>
	<path class="st0" d="M356.4,43.5V4.7h17.2v8.2h-9.1v6.8h9v7.9h-9v7.3h9.1v8.6H356.4z"/>
	<path class="st0" d="M387.9,16.7c0-0.3,0.1-0.5,0.1-0.7c0-0.2,0-0.5,0-1c0-1.2-0.1-2-0.4-2.5c-0.3-0.5-0.9-0.7-1.9-0.7
		c-1,0-1.6,0.2-1.9,0.7c-0.3,0.5-0.4,1.3-0.4,2.5c0,1.1,0.1,1.9,0.4,2.4c0.3,0.5,0.8,0.9,1.4,1.3c0.8,0.4,1.5,0.8,2.1,1.1
		c0.7,0.3,1.3,0.6,1.8,0.8c0.6,0.3,1.1,0.5,1.6,0.7c0.5,0.2,1,0.5,1.5,0.9c0.5,0.4,1,0.8,1.5,1.3c0.4,0.5,0.8,1.1,1,1.8
		c0.3,0.7,0.5,1.6,0.6,2.7c0.1,1.1,0.2,2.4,0.2,4c0,2.3-0.2,4.3-0.5,5.8c-0.3,1.5-0.9,2.8-1.6,3.7c-0.8,0.9-1.8,1.6-3.1,2
		c-1.3,0.4-3,0.6-4.9,0.6c-3.2,0-5.6-0.6-7.1-1.8c-1.5-1.2-2.3-3.3-2.3-6.4c0-1,0-2,0.1-3c0.1-1,0.2-1.8,0.3-2.4h6.7
		c-0.1,0.2-0.1,0.4-0.1,0.7c0,0.2,0,0.5,0,0.8c0,1.5,0.2,2.5,0.5,3.1c0.3,0.6,1,0.8,2,0.8s1.7-0.2,2-0.7c0.3-0.5,0.5-1.6,0.5-3.2
		c0-1-0.2-1.7-0.5-2.3c-0.3-0.5-0.8-1-1.5-1.5c-0.6-0.4-1.3-0.8-2-1.1c-0.7-0.3-1.4-0.7-2.1-1c-0.7-0.3-1.4-0.6-2-1
		c-0.6-0.4-1.2-0.8-1.7-1.3c-1.1-0.9-1.7-2.2-1.9-3.8c-0.2-1.6-0.3-3.7-0.3-6.3c0-1.8,0.1-3.3,0.4-4.6c0.3-1.2,0.8-2.3,1.5-3
		c0.7-0.8,1.7-1.3,2.9-1.7c1.2-0.3,2.8-0.5,4.7-0.5c1.7,0,3.2,0.1,4.4,0.4c1.2,0.3,2.1,0.7,2.9,1.4c0.8,0.7,1.3,1.5,1.6,2.6
		c0.3,1.1,0.5,2.5,0.5,4.1c0,1.1,0,1.9-0.1,2.5c-0.1,0.6-0.2,1.2-0.3,1.6H387.9z"/>
</g>
<g>
	<path class="st0" d="M5.3,73.3V50.5h5.7c0.9,0,1.6,0.1,2.1,0.3c0.6,0.2,1,0.5,1.4,1c0.4,0.5,0.6,1.1,0.8,1.9
		c0.1,0.8,0.2,1.8,0.2,2.9c0,0.9,0,1.6-0.1,2.1c-0.1,0.5-0.1,1-0.3,1.3c-0.1,0.3-0.3,0.6-0.5,0.8s-0.4,0.4-0.7,0.5v0.2
		c0.3,0.2,0.6,0.4,0.8,0.5c0.2,0.2,0.4,0.4,0.5,0.8s0.2,0.9,0.3,1.5c0.1,0.7,0.1,1.5,0.1,2.7c0,1.2-0.1,2.1-0.2,2.9
		c-0.1,0.8-0.4,1.4-0.7,1.9c-0.3,0.5-0.8,0.8-1.4,1c-0.6,0.2-1.3,0.3-2.1,0.3H5.3z M10.5,60.2c0.3,0,0.5,0,0.6-0.1
		c0.2-0.1,0.3-0.3,0.4-0.5c0.1-0.2,0.2-0.5,0.2-0.9c0-0.4,0.1-0.9,0.1-1.6c0-0.7,0-1.3-0.1-1.7c-0.1-0.4-0.1-0.7-0.2-0.9
		c-0.1-0.2-0.3-0.3-0.4-0.4c-0.2,0-0.4-0.1-0.6-0.1H9v6.2H10.5z M10.7,69.7c0.3,0,0.5,0,0.6-0.1c0.2-0.1,0.3-0.2,0.4-0.5
		c0.1-0.2,0.2-0.5,0.2-0.9c0-0.4,0.1-0.9,0.1-1.5c0-0.7,0-1.3-0.1-1.8c-0.1-0.5-0.1-0.8-0.2-1.1c-0.1-0.3-0.2-0.4-0.4-0.5
		c-0.2-0.1-0.4-0.1-0.6-0.1H9v6.5H10.7z"/>
	<path class="st0" d="M19.5,73.3v-9.1l-3.7-13.5v-0.1h3.8c0.4,1.6,0.6,2.9,0.9,3.8c0.2,1,0.4,1.7,0.5,2.3c0.1,0.6,0.2,1,0.3,1.2
		c0,0.3,0.1,0.5,0.1,0.7h0.3c0-0.2,0.1-0.4,0.1-0.7c0-0.3,0.1-0.7,0.3-1.2c0.1-0.6,0.3-1.3,0.5-2.3c0.2-1,0.5-2.2,0.9-3.8H27v0.1
		l-3.5,13.5v9.1H19.5z"/>
	<path class="st0" d="M39.8,73.3l-0.5-5.7H37l-0.5,5.7h-3.7l2.3-22.7h6.2l2.2,22.7H39.8z M38.3,54.2h-0.3l-0.9,9.7h2L38.3,54.2z"/>
	<path class="st0" d="M45,73.3V50.5h5.4c1.2,0,2.2,0.1,2.8,0.4c0.6,0.3,1.1,0.7,1.5,1.4c0.2,0.3,0.3,0.7,0.4,1.1
		c0.1,0.4,0.2,0.9,0.3,1.6c0.1,0.7,0.1,1.6,0.2,2.6c0,1.1,0,2.5,0,4.2c0,1.8,0,3.2-0.1,4.3c0,1.1-0.1,2-0.2,2.7
		c-0.1,0.7-0.2,1.2-0.3,1.6c-0.1,0.4-0.3,0.7-0.4,1.1c-0.2,0.3-0.4,0.6-0.6,0.9c-0.2,0.2-0.5,0.4-0.9,0.5c-0.3,0.1-0.7,0.2-1.2,0.3
		c-0.5,0.1-1,0.1-1.6,0.1H45z M50.3,69.4c0.4,0,0.7,0,0.9-0.1c0.2-0.1,0.3-0.3,0.4-0.6c0.1-0.2,0.1-0.4,0.1-0.6
		c0-0.2,0.1-0.6,0.1-1.1c0-0.5,0-1.1,0.1-1.9c0-0.8,0-1.9,0-3.2c0-1.3,0-2.4,0-3.2c0-0.8,0-1.5,0-1.9c0-0.5-0.1-0.8-0.1-1.1
		c0-0.3-0.1-0.5-0.2-0.6c-0.1-0.3-0.2-0.4-0.4-0.5c-0.2-0.1-0.5-0.1-0.8-0.1h-1.6v15.1H50.3z"/>
	<path class="st0" d="M57.3,73.3V50.5h5.4c1.2,0,2.2,0.1,2.8,0.4c0.6,0.3,1.1,0.7,1.5,1.4c0.2,0.3,0.3,0.7,0.4,1.1
		c0.1,0.4,0.2,0.9,0.3,1.6c0.1,0.7,0.1,1.6,0.2,2.6c0,1.1,0,2.5,0,4.2c0,1.8,0,3.2-0.1,4.3c0,1.1-0.1,2-0.2,2.7
		c-0.1,0.7-0.2,1.2-0.3,1.6c-0.1,0.4-0.3,0.7-0.4,1.1c-0.2,0.3-0.4,0.6-0.6,0.9c-0.2,0.2-0.5,0.4-0.9,0.5c-0.3,0.1-0.7,0.2-1.2,0.3
		c-0.5,0.1-1,0.1-1.6,0.1H57.3z M62.6,69.4c0.4,0,0.7,0,0.9-0.1c0.2-0.1,0.3-0.3,0.4-0.6c0.1-0.2,0.1-0.4,0.1-0.6
		c0-0.2,0.1-0.6,0.1-1.1c0-0.5,0-1.1,0.1-1.9c0-0.8,0-1.9,0-3.2c0-1.3,0-2.4,0-3.2c0-0.8,0-1.5,0-1.9c0-0.5-0.1-0.8-0.1-1.1
		c0-0.3-0.1-0.5-0.2-0.6c-0.1-0.3-0.2-0.4-0.4-0.5c-0.2-0.1-0.5-0.1-0.8-0.1H61v15.1H62.6z"/>
	<path class="st0" d="M69.7,73.3V50.5h3.8v22.7H69.7z"/>
	<path class="st0" d="M84,73.3l-5-14h-0.2v14h-3.4V50.5h3.8l3.1,9.7h0.2v-9.7H86v22.7H84z"/>
	<path class="st0" d="M92.3,63.9v-3.6h5.6c0,0.4,0,0.9,0,1.6c0,0.7,0,1.5,0,2.5c0,1.2,0,2.2-0.1,3c0,0.8-0.1,1.5-0.2,2
		c-0.1,0.6-0.2,1-0.3,1.4c-0.1,0.4-0.2,0.7-0.4,1c-0.3,0.7-0.8,1.2-1.5,1.5c-0.6,0.3-1.6,0.4-2.8,0.4c-1.2,0-2.2-0.1-2.8-0.4
		c-0.6-0.3-1.1-0.8-1.5-1.5c-0.2-0.3-0.3-0.7-0.4-1.1c-0.1-0.4-0.2-1-0.3-1.7s-0.1-1.7-0.2-2.8c0-1.1,0-2.6,0-4.5c0-1.8,0-3.2,0-4.3
		c0-1.1,0.1-2,0.2-2.7c0.1-0.7,0.2-1.2,0.3-1.6c0.1-0.4,0.3-0.7,0.4-1.1c0.2-0.4,0.4-0.7,0.6-0.9c0.2-0.2,0.5-0.4,0.9-0.6
		c0.3-0.1,0.7-0.3,1.2-0.3c0.5-0.1,1-0.1,1.6-0.1c0.6,0,1.2,0,1.7,0.1c0.5,0.1,0.9,0.2,1.2,0.3c0.3,0.1,0.6,0.3,0.8,0.6
		c0.2,0.2,0.4,0.5,0.6,0.8c0.3,0.5,0.5,1.2,0.6,1.9c0.1,0.7,0.2,1.6,0.2,2.7c0,0.2,0,0.4,0,0.5c0,0.1,0,0.3,0,0.5h-3.5
		c0-0.1,0-0.2,0-0.4c0-0.1,0-0.3,0-0.6c0-0.3,0-0.7-0.1-1.1c-0.1-0.4-0.1-0.7-0.2-0.9c-0.1-0.5-0.6-0.7-1.3-0.7
		c-0.4,0-0.7,0.1-0.9,0.2c-0.2,0.1-0.3,0.3-0.4,0.7c0,0.2-0.1,0.4-0.1,0.6c0,0.2-0.1,0.6-0.1,1.1c0,0.5-0.1,1.2-0.1,2
		c0,0.8,0,1.9,0,3.3c0,1.4,0,2.6,0,3.5c0,0.9,0,1.5,0.1,2c0,0.5,0.1,0.9,0.1,1.1c0,0.2,0.1,0.5,0.2,0.6c0.1,0.3,0.3,0.5,0.5,0.7
		s0.5,0.2,0.9,0.2c0.5,0,0.8-0.1,1-0.2c0.2-0.1,0.3-0.4,0.4-0.7c0-0.2,0.1-0.4,0.1-0.7c0-0.3,0.1-0.6,0.1-0.9c0-0.3,0-0.6,0-1
		c0-0.3,0-0.6,0-0.9c0-0.4,0-0.7,0-0.9c0-0.2,0-0.4,0-0.6H92.3z"/>
	<path class="st0" d="M116.7,73.3V57.5h-0.2c0,0.4-0.1,0.8-0.2,1.2s-0.2,0.8-0.3,1.2l-2.9,13.3h-1.7L108.6,60
		c-0.1-0.4-0.2-0.8-0.2-1.2s-0.1-0.8-0.2-1.2h-0.2v15.7h-3.3V50.5h5.5l1.5,8.2c0.1,0.7,0.3,1.4,0.3,1.9c0.1,0.5,0.2,1,0.2,1.5h0.2
		c0.1-0.5,0.1-1,0.2-1.5c0.1-0.5,0.2-1.1,0.3-1.9l1.6-8.2h5.4v22.7H116.7z"/>
	<path class="st0" d="M131.2,71.8c-0.3,0.7-0.8,1.2-1.5,1.5c-0.6,0.3-1.6,0.4-2.8,0.4c-1.2,0-2.2-0.1-2.8-0.4
		c-0.7-0.3-1.1-0.8-1.5-1.5c-0.2-0.3-0.3-0.7-0.4-1.1c-0.1-0.4-0.2-1-0.3-1.7s-0.1-1.6-0.2-2.7c0-1.1,0-2.6,0-4.4c0-1.8,0-3.2,0-4.4
		c0-1.1,0.1-2,0.2-2.7s0.2-1.3,0.3-1.7c0.1-0.4,0.3-0.8,0.4-1.1c0.3-0.7,0.8-1.2,1.5-1.5c0.6-0.3,1.6-0.4,2.8-0.4
		c1.2,0,2.2,0.1,2.8,0.4c0.6,0.3,1.1,0.8,1.5,1.5c0.2,0.4,0.3,0.7,0.4,1.1c0.1,0.4,0.2,1,0.3,1.7s0.1,1.6,0.2,2.7
		c0,1.1,0.1,2.6,0.1,4.4c0,1.8,0,3.2-0.1,4.4c0,1.1-0.1,2-0.2,2.7s-0.2,1.3-0.3,1.7C131.5,71.1,131.3,71.4,131.2,71.8z M128.2,69
		c0.1-0.2,0.1-0.4,0.2-0.7c0-0.3,0.1-0.6,0.1-1.1c0-0.5,0-1.2,0-2c0-0.8,0-2,0-3.4c0-1.4,0-2.6,0-3.4c0-0.9,0-1.5-0.1-2
		c0-0.5-0.1-0.9-0.1-1.1c0-0.3-0.1-0.5-0.1-0.6c-0.1-0.3-0.2-0.5-0.4-0.6c-0.2-0.1-0.5-0.2-0.8-0.2c-0.4,0-0.7,0.1-0.9,0.2
		c-0.2,0.1-0.3,0.3-0.4,0.6c-0.1,0.2-0.1,0.4-0.2,0.7c0,0.2-0.1,0.6-0.1,1.1c0,0.5-0.1,1.2-0.1,2c0,0.9,0,2,0,3.4c0,1.4,0,2.5,0,3.4
		c0,0.9,0,1.5,0.1,2c0,0.5,0.1,0.9,0.1,1.1c0,0.3,0.1,0.5,0.2,0.7c0.1,0.3,0.2,0.5,0.4,0.6c0.2,0.1,0.5,0.2,0.9,0.2
		c0.4,0,0.7-0.1,0.8-0.2C127.9,69.4,128.1,69.2,128.2,69z"/>
	<path class="st0" d="M140.5,73.3c0-0.1-0.1-0.2-0.1-0.4s-0.1-0.3-0.1-0.5c0-0.2-0.1-0.4-0.1-0.8c0-0.3-0.1-0.7-0.1-1.2
		c-0.1-0.6-0.1-1.3-0.2-2c-0.1-0.8-0.1-1.6-0.3-2.5c-0.1-0.8-0.3-1.3-0.4-1.6c-0.2-0.2-0.4-0.3-0.8-0.3h-1v9.2h-3.7V50.5h5.9
		c0.9,0,1.6,0.1,2.1,0.3c0.6,0.2,1,0.6,1.3,1.1c0.3,0.5,0.5,1.1,0.7,1.9c0.1,0.8,0.2,1.7,0.2,2.8c0,1.3,0,2.2-0.1,3
		c-0.1,0.7-0.2,1.3-0.4,1.6s-0.4,0.6-0.6,0.8c-0.2,0.1-0.5,0.3-0.7,0.4v0.2c0.3,0.2,0.5,0.5,0.7,0.9c0.2,0.4,0.3,0.9,0.4,1.5
		c0.2,0.9,0.3,1.7,0.3,2.6s0.2,1.8,0.3,2.9c0,0.4,0.1,0.8,0.1,1.1s0.1,0.5,0.1,0.7c0,0.2,0.1,0.4,0.1,0.5c0,0.1,0.1,0.3,0.1,0.4v0.1
		H140.5z M138.8,60.7c0.2,0,0.5,0,0.6-0.1c0.2,0,0.4-0.2,0.5-0.4c0.1-0.2,0.2-0.6,0.3-1.1c0.1-0.5,0.1-1.2,0.1-2.1
		c0-0.7,0-1.2-0.1-1.6c-0.1-0.4-0.2-0.7-0.3-0.9s-0.3-0.3-0.4-0.3c-0.2,0-0.3-0.1-0.5-0.1h-1.4v6.5H138.8z"/>
	<path class="st0" d="M145.9,73.3V50.5h8.6v3.8h-4.9v5.6h4.8v3.6h-4.8v5.9h4.8v3.9H145.9z"/>
	<path class="st0" d="M171.4,64.5c0,0.3,0.1,0.6,0.1,0.9c0,0.3,0,0.7,0,1.2c0,1.2-0.1,2.2-0.2,3.1c-0.1,0.9-0.4,1.6-0.7,2.2
		c-0.4,0.6-0.9,1-1.5,1.3c-0.7,0.3-1.5,0.4-2.5,0.4c-1.3,0-2.3-0.1-2.9-0.4c-0.7-0.3-1.2-0.8-1.5-1.5c-0.2-0.3-0.3-0.7-0.4-1.1
		c-0.1-0.4-0.2-1-0.3-1.8s-0.1-1.7-0.2-2.8c0-1.1,0-2.6,0-4.4c0-1.9,0-3.4,0.1-4.5c0-1.1,0.1-2.1,0.2-2.7c0.1-0.7,0.2-1.2,0.3-1.5
		s0.3-0.7,0.4-0.9c0.3-0.7,0.8-1.2,1.4-1.4c0.6-0.3,1.6-0.4,2.8-0.4c1.1,0,2,0.1,2.6,0.3s1.1,0.6,1.4,1.1c0.7,1,1.1,2.8,1.1,5.5
		c0,0.5,0,0.8,0,1.1c0,0.2,0,0.5-0.1,0.8h-3.5c0-0.2,0-0.4,0-0.7c0-0.2,0-0.5,0-0.9c0-0.7,0-1.3-0.1-1.8c-0.1-0.5-0.1-0.9-0.2-1.1
		c-0.1-0.2-0.2-0.4-0.4-0.5s-0.4-0.2-0.8-0.2c-0.4,0-0.7,0.1-0.9,0.2c-0.2,0.1-0.3,0.3-0.4,0.6c-0.1,0.2-0.1,0.4-0.2,0.7
		c0,0.3-0.1,0.6-0.1,1.1c0,0.5-0.1,1.2-0.1,2c0,0.8,0,1.9,0,3.3c0,1.4,0,2.5,0,3.4c0,0.9,0,1.5,0.1,2.1c0,0.5,0.1,0.9,0.1,1.2
		c0,0.3,0.1,0.5,0.2,0.7c0.1,0.3,0.2,0.5,0.4,0.6c0.2,0.1,0.5,0.2,1,0.2c0.7,0,1.1-0.3,1.2-0.8c0.1-0.4,0.2-0.9,0.2-1.4
		c0-0.5,0-1.2,0-2.1c0-0.2,0-0.3,0-0.5s0-0.3,0-0.4H171.4z"/>
	<path class="st0" d="M179.2,73.3l-0.5-5.7h-2.3l-0.5,5.7h-3.7l2.3-22.7h6.2l2.2,22.7H179.2z M177.7,54.2h-0.3l-0.9,9.7h2
		L177.7,54.2z"/>
	<path class="st0" d="M191.2,73.3c0-0.1-0.1-0.2-0.1-0.4s-0.1-0.3-0.1-0.5c0-0.2-0.1-0.4-0.1-0.8c0-0.3-0.1-0.7-0.1-1.2
		c-0.1-0.6-0.1-1.3-0.2-2c-0.1-0.8-0.1-1.6-0.3-2.5c-0.1-0.8-0.3-1.3-0.4-1.6c-0.2-0.2-0.4-0.3-0.8-0.3h-1v9.2h-3.7V50.5h5.9
		c0.9,0,1.6,0.1,2.1,0.3c0.6,0.2,1,0.6,1.3,1.1c0.3,0.5,0.5,1.1,0.7,1.9c0.1,0.8,0.2,1.7,0.2,2.8c0,1.3,0,2.2-0.1,3
		c-0.1,0.7-0.2,1.3-0.4,1.6s-0.4,0.6-0.6,0.8c-0.2,0.1-0.5,0.3-0.7,0.4v0.2c0.3,0.2,0.5,0.5,0.7,0.9c0.2,0.4,0.3,0.9,0.4,1.5
		c0.2,0.9,0.3,1.7,0.3,2.6s0.2,1.8,0.3,2.9c0,0.4,0.1,0.8,0.1,1.1s0.1,0.5,0.1,0.7c0,0.2,0.1,0.4,0.1,0.5c0,0.1,0.1,0.3,0.1,0.4v0.1
		H191.2z M189.4,60.7c0.2,0,0.5,0,0.6-0.1c0.2,0,0.4-0.2,0.5-0.4c0.1-0.2,0.2-0.6,0.3-1.1c0.1-0.5,0.1-1.2,0.1-2.1
		c0-0.7,0-1.2-0.1-1.6c-0.1-0.4-0.2-0.7-0.3-0.9s-0.3-0.3-0.4-0.3c-0.2,0-0.3-0.1-0.5-0.1h-1.4v6.5H189.4z"/>
	<path class="st0" d="M196.5,73.3V50.5h5.4c1.2,0,2.2,0.1,2.8,0.4c0.6,0.3,1.1,0.7,1.5,1.4c0.2,0.3,0.3,0.7,0.4,1.1
		c0.1,0.4,0.2,0.9,0.3,1.6c0.1,0.7,0.1,1.6,0.2,2.6c0,1.1,0,2.5,0,4.2c0,1.8,0,3.2-0.1,4.3c0,1.1-0.1,2-0.2,2.7s-0.2,1.2-0.3,1.6
		c-0.1,0.4-0.3,0.7-0.4,1.1c-0.2,0.3-0.4,0.6-0.6,0.9c-0.2,0.2-0.5,0.4-0.9,0.5c-0.3,0.1-0.7,0.2-1.2,0.3c-0.5,0.1-1,0.1-1.6,0.1
		H196.5z M201.8,69.4c0.4,0,0.7,0,0.9-0.1s0.3-0.3,0.4-0.6c0.1-0.2,0.1-0.4,0.1-0.6c0-0.2,0.1-0.6,0.1-1.1c0-0.5,0-1.1,0.1-1.9
		c0-0.8,0-1.9,0-3.2c0-1.3,0-2.4,0-3.2c0-0.8,0-1.5,0-1.9c0-0.5-0.1-0.8-0.1-1.1c0-0.3-0.1-0.5-0.2-0.6c-0.1-0.3-0.2-0.4-0.4-0.5
		c-0.2-0.1-0.5-0.1-0.8-0.1h-1.6v15.1H201.8z"/>
	<path class="st0" d="M214.5,57.6c0-0.2,0-0.3,0-0.6c0-0.2,0-0.5,0-0.9c0-0.9-0.1-1.5-0.3-1.9c-0.2-0.4-0.6-0.6-1.2-0.6
		c-0.3,0-0.5,0-0.7,0.1c-0.2,0.1-0.3,0.2-0.4,0.3c-0.1,0.2-0.2,0.4-0.2,0.8c0,0.3-0.1,0.8-0.1,1.3c0,0.5,0,0.9,0,1.1
		c0,0.3,0,0.5,0.1,0.7c0,0.2,0.1,0.3,0.2,0.4c0.1,0.1,0.2,0.2,0.4,0.4c0.2,0.2,0.5,0.4,0.9,0.6c0.3,0.2,0.7,0.4,1.1,0.6
		c0.4,0.2,0.7,0.4,1.1,0.6c0.3,0.2,0.6,0.4,0.9,0.5c0.4,0.2,0.7,0.5,0.9,0.7s0.4,0.6,0.6,0.9c0.1,0.4,0.2,0.9,0.3,1.5
		c0,0.6,0.1,1.5,0.1,2.5c0,1.4-0.1,2.5-0.3,3.4c-0.2,0.9-0.5,1.6-0.8,2.1c-0.4,0.5-0.9,0.8-1.5,1c-0.6,0.2-1.4,0.3-2.4,0.3
		c-0.8,0-1.6-0.1-2.1-0.2s-1.1-0.4-1.4-0.8c-0.4-0.4-0.7-1-0.8-1.7c-0.2-0.7-0.3-1.7-0.3-2.9c0-0.5,0-0.9,0.1-1.3
		c0-0.4,0.1-0.7,0.2-1h3.1c0,0.2-0.1,0.4-0.1,0.6c0,0.2,0,0.5,0,0.8c0,0.6,0,1.1,0.1,1.5c0,0.4,0.1,0.7,0.2,0.9
		c0.1,0.2,0.3,0.4,0.5,0.4s0.4,0.1,0.7,0.1c0.3,0,0.6,0,0.8-0.1c0.2-0.1,0.4-0.2,0.5-0.4c0.1-0.2,0.2-0.5,0.3-0.9
		c0-0.4,0.1-1,0.1-1.7c0-0.4,0-0.8,0-1s0-0.5-0.1-0.6s-0.1-0.3-0.2-0.4c-0.1-0.1-0.2-0.3-0.3-0.4c-0.3-0.3-0.6-0.5-1-0.8
		s-0.8-0.5-1.2-0.7c-0.4-0.2-0.8-0.5-1.2-0.7c-0.4-0.2-0.7-0.5-1-0.8c-0.2-0.2-0.4-0.5-0.6-0.7c-0.2-0.2-0.3-0.6-0.4-1
		c-0.1-0.4-0.1-0.9-0.2-1.6c0-0.6,0-1.5,0-2.5c0-1.1,0.1-2,0.2-2.7c0.2-0.7,0.4-1.3,0.8-1.7c0.4-0.4,0.9-0.7,1.5-0.9
		c0.6-0.2,1.4-0.3,2.3-0.3c0.9,0,1.7,0.1,2.3,0.3c0.6,0.2,1.1,0.5,1.4,0.8s0.6,0.9,0.7,1.5c0.1,0.6,0.2,1.4,0.2,2.3
		c0,0.6,0,1.1,0,1.5c0,0.4-0.1,0.7-0.2,1H214.5z"/>
	<path class="st0" d="M224.9,73.3V50.5h8.4v3.8h-4.7v6h4.7v3.6h-4.7v9.4H224.9z"/>
	<path class="st0" d="M241.6,73.3c0-0.1-0.1-0.2-0.1-0.4s-0.1-0.3-0.1-0.5c0-0.2-0.1-0.4-0.1-0.8s-0.1-0.7-0.1-1.2
		c-0.1-0.6-0.1-1.3-0.2-2c-0.1-0.8-0.1-1.6-0.3-2.5c-0.1-0.8-0.3-1.3-0.4-1.6c-0.2-0.2-0.4-0.3-0.8-0.3h-1v9.2h-3.7V50.5h5.9
		c0.9,0,1.6,0.1,2.1,0.3c0.6,0.2,1,0.6,1.3,1.1c0.3,0.5,0.5,1.1,0.7,1.9c0.1,0.8,0.2,1.7,0.2,2.8c0,1.3,0,2.2-0.1,3
		c-0.1,0.7-0.2,1.3-0.4,1.6c-0.2,0.4-0.4,0.6-0.6,0.8c-0.2,0.1-0.5,0.3-0.7,0.4v0.2c0.3,0.2,0.5,0.5,0.7,0.9
		c0.2,0.4,0.3,0.9,0.4,1.5c0.2,0.9,0.3,1.7,0.3,2.6c0.1,0.8,0.2,1.8,0.3,2.9c0,0.4,0.1,0.8,0.1,1.1s0.1,0.5,0.1,0.7s0.1,0.4,0.1,0.5
		c0,0.1,0.1,0.3,0.1,0.4v0.1H241.6z M239.8,60.7c0.2,0,0.5,0,0.6-0.1s0.4-0.2,0.5-0.4c0.1-0.2,0.2-0.6,0.3-1.1
		c0.1-0.5,0.1-1.2,0.1-2.1c0-0.7,0-1.2-0.1-1.6s-0.2-0.7-0.3-0.9s-0.3-0.3-0.4-0.3c-0.2,0-0.3-0.1-0.5-0.1h-1.4v6.5H239.8z"/>
	<path class="st0" d="M255.9,71.8c-0.3,0.7-0.8,1.2-1.5,1.5c-0.6,0.3-1.6,0.4-2.8,0.4c-1.2,0-2.2-0.1-2.8-0.4s-1.1-0.8-1.5-1.5
		c-0.2-0.3-0.3-0.7-0.4-1.1c-0.1-0.4-0.2-1-0.3-1.7s-0.1-1.6-0.2-2.7s0-2.6,0-4.4c0-1.8,0-3.2,0-4.4c0-1.1,0.1-2,0.2-2.7
		s0.2-1.3,0.3-1.7c0.1-0.4,0.3-0.8,0.4-1.1c0.3-0.7,0.8-1.2,1.5-1.5c0.6-0.3,1.6-0.4,2.8-0.4c1.2,0,2.2,0.1,2.8,0.4
		c0.6,0.3,1.1,0.8,1.5,1.5c0.2,0.4,0.3,0.7,0.4,1.1c0.1,0.4,0.2,1,0.3,1.7c0.1,0.7,0.1,1.6,0.2,2.7c0,1.1,0.1,2.6,0.1,4.4
		c0,1.8,0,3.2-0.1,4.4s-0.1,2-0.2,2.7c-0.1,0.7-0.2,1.3-0.3,1.7C256.2,71.1,256.1,71.4,255.9,71.8z M252.9,69
		c0.1-0.2,0.1-0.4,0.2-0.7c0-0.3,0.1-0.6,0.1-1.1c0-0.5,0-1.2,0-2c0-0.8,0-2,0-3.4c0-1.4,0-2.6,0-3.4c0-0.9,0-1.5-0.1-2
		c0-0.5-0.1-0.9-0.1-1.1c0-0.3-0.1-0.5-0.1-0.6c-0.1-0.3-0.2-0.5-0.4-0.6c-0.2-0.1-0.5-0.2-0.8-0.2c-0.4,0-0.7,0.1-0.9,0.2
		c-0.2,0.1-0.3,0.3-0.4,0.6c-0.1,0.2-0.1,0.4-0.1,0.7c0,0.2-0.1,0.6-0.1,1.1s-0.1,1.2-0.1,2c0,0.9,0,2,0,3.4c0,1.4,0,2.5,0,3.4
		c0,0.9,0,1.5,0.1,2c0,0.5,0.1,0.9,0.1,1.1c0,0.3,0.1,0.5,0.1,0.7c0.1,0.3,0.2,0.5,0.4,0.6c0.2,0.1,0.5,0.2,0.9,0.2
		c0.4,0,0.7-0.1,0.8-0.2C252.6,69.4,252.8,69.2,252.9,69z"/>
	<path class="st0" d="M270.4,73.3V57.5h-0.2c0,0.4-0.1,0.8-0.2,1.2c-0.1,0.4-0.2,0.8-0.3,1.2L267,73.3h-1.7L262.4,60
		c-0.1-0.4-0.2-0.8-0.2-1.2s-0.1-0.8-0.2-1.2h-0.1v15.7h-3.3V50.5h5.5l1.5,8.2c0.1,0.7,0.3,1.4,0.3,1.9c0.1,0.5,0.2,1,0.2,1.5h0.2
		c0.1-0.5,0.1-1,0.2-1.5c0.1-0.5,0.2-1.1,0.3-1.9l1.6-8.2h5.4v22.7H270.4z"/>
	<path class="st0" d="M283.5,73.3v-19h-3.2v-3.8h10.1v3.8h-3.2v19H283.5z"/>
	<path class="st0" d="M298.6,73.3v-9.8h-3.2v9.8h-3.8V50.5h3.8v9.3h3.2v-9.3h3.8v22.7H298.6z"/>
	<path class="st0" d="M304.3,73.3V50.5h8.6v3.8H308v5.6h4.8v3.6H308v5.9h4.8v3.9H304.3z"/>
	<path class="st0" d="M319.9,73.3V50.5h3.7v18.8h4.4v3.9H319.9z"/>
	<path class="st0" d="M329.5,73.3V50.5h8.6v3.8h-4.9v5.6h4.8v3.6h-4.8v5.9h4.8v3.9H329.5z"/>
	<path class="st0" d="M345.6,57.6c0-0.2,0-0.3,0-0.6c0-0.2,0-0.5,0-0.9c0-0.9-0.1-1.5-0.3-1.9c-0.2-0.4-0.6-0.6-1.2-0.6
		c-0.3,0-0.5,0-0.7,0.1c-0.2,0.1-0.3,0.2-0.4,0.3c-0.1,0.2-0.2,0.4-0.2,0.8c0,0.3-0.1,0.8-0.1,1.3c0,0.5,0,0.9,0,1.1
		c0,0.3,0,0.5,0.1,0.7c0,0.2,0.1,0.3,0.2,0.4c0.1,0.1,0.2,0.2,0.4,0.4c0.2,0.2,0.5,0.4,0.9,0.6c0.3,0.2,0.7,0.4,1.1,0.6
		c0.4,0.2,0.7,0.4,1.1,0.6c0.3,0.2,0.6,0.4,0.9,0.5c0.4,0.2,0.7,0.5,0.9,0.7s0.4,0.6,0.6,0.9c0.1,0.4,0.2,0.9,0.3,1.5
		c0,0.6,0.1,1.5,0.1,2.5c0,1.4-0.1,2.5-0.3,3.4c-0.2,0.9-0.5,1.6-0.8,2.1c-0.4,0.5-0.9,0.8-1.5,1c-0.6,0.2-1.4,0.3-2.4,0.3
		c-0.8,0-1.6-0.1-2.1-0.2s-1.1-0.4-1.4-0.8c-0.4-0.4-0.7-1-0.8-1.7c-0.2-0.7-0.3-1.7-0.3-2.9c0-0.5,0-0.9,0.1-1.3
		c0-0.4,0.1-0.7,0.2-1h3.1c0,0.2-0.1,0.4-0.1,0.6c0,0.2,0,0.5,0,0.8c0,0.6,0,1.1,0.1,1.5c0,0.4,0.1,0.7,0.2,0.9
		c0.1,0.2,0.3,0.4,0.5,0.4s0.4,0.1,0.7,0.1c0.3,0,0.6,0,0.8-0.1c0.2-0.1,0.4-0.2,0.5-0.4c0.1-0.2,0.2-0.5,0.3-0.9
		c0-0.4,0.1-1,0.1-1.7c0-0.4,0-0.8,0-1s0-0.5-0.1-0.6s-0.1-0.3-0.2-0.4c-0.1-0.1-0.2-0.3-0.3-0.4c-0.3-0.3-0.6-0.5-1-0.8
		s-0.8-0.5-1.2-0.7c-0.4-0.2-0.8-0.5-1.2-0.7c-0.4-0.2-0.7-0.5-1-0.8c-0.2-0.2-0.4-0.5-0.6-0.7c-0.2-0.2-0.3-0.6-0.4-1
		c-0.1-0.4-0.1-0.9-0.2-1.6c0-0.6,0-1.5,0-2.5c0-1.1,0.1-2,0.2-2.7c0.2-0.7,0.4-1.3,0.8-1.7c0.4-0.4,0.9-0.7,1.5-0.9
		c0.6-0.2,1.4-0.3,2.3-0.3c0.9,0,1.7,0.1,2.3,0.3c0.6,0.2,1.1,0.5,1.4,0.8s0.6,0.9,0.7,1.5c0.1,0.6,0.2,1.4,0.2,2.3
		c0,0.6,0,1.1,0,1.5c0,0.4-0.1,0.7-0.2,1H345.6z"/>
	<path class="st0" d="M356.6,57.6c0-0.2,0-0.3,0-0.6c0-0.2,0-0.5,0-0.9c0-0.9-0.1-1.5-0.3-1.9c-0.2-0.4-0.6-0.6-1.2-0.6
		c-0.3,0-0.5,0-0.7,0.1c-0.2,0.1-0.3,0.2-0.4,0.3c-0.1,0.2-0.2,0.4-0.2,0.8c0,0.3-0.1,0.8-0.1,1.3c0,0.5,0,0.9,0,1.1
		c0,0.3,0,0.5,0.1,0.7c0,0.2,0.1,0.3,0.2,0.4c0.1,0.1,0.2,0.2,0.4,0.4c0.2,0.2,0.5,0.4,0.9,0.6c0.3,0.2,0.7,0.4,1.1,0.6
		c0.4,0.2,0.7,0.4,1.1,0.6c0.3,0.2,0.6,0.4,0.9,0.5c0.4,0.2,0.7,0.5,0.9,0.7s0.4,0.6,0.6,0.9c0.1,0.4,0.2,0.9,0.3,1.5
		c0,0.6,0.1,1.5,0.1,2.5c0,1.4-0.1,2.5-0.3,3.4c-0.2,0.9-0.5,1.6-0.8,2.1c-0.4,0.5-0.9,0.8-1.5,1c-0.6,0.2-1.4,0.3-2.4,0.3
		c-0.8,0-1.6-0.1-2.1-0.2s-1.1-0.4-1.4-0.8c-0.4-0.4-0.7-1-0.8-1.7c-0.2-0.7-0.3-1.7-0.3-2.9c0-0.5,0-0.9,0.1-1.3
		c0-0.4,0.1-0.7,0.2-1h3.1c0,0.2-0.1,0.4-0.1,0.6c0,0.2,0,0.5,0,0.8c0,0.6,0,1.1,0.1,1.5c0,0.4,0.1,0.7,0.2,0.9
		c0.1,0.2,0.3,0.4,0.5,0.4s0.4,0.1,0.7,0.1c0.3,0,0.6,0,0.8-0.1c0.2-0.1,0.4-0.2,0.5-0.4c0.1-0.2,0.2-0.5,0.3-0.9
		c0-0.4,0.1-1,0.1-1.7c0-0.4,0-0.8,0-1s0-0.5-0.1-0.6s-0.1-0.3-0.2-0.4c-0.1-0.1-0.2-0.3-0.3-0.4c-0.3-0.3-0.6-0.5-1-0.8
		s-0.8-0.5-1.2-0.7c-0.4-0.2-0.8-0.5-1.2-0.7c-0.4-0.2-0.7-0.5-1-0.8c-0.2-0.2-0.4-0.5-0.6-0.7c-0.2-0.2-0.3-0.6-0.4-1
		c-0.1-0.4-0.1-0.9-0.2-1.6c0-0.6,0-1.5,0-2.5c0-1.1,0.1-2,0.2-2.7c0.2-0.7,0.4-1.3,0.8-1.7c0.4-0.4,0.9-0.7,1.5-0.9
		c0.6-0.2,1.4-0.3,2.3-0.3c0.9,0,1.7,0.1,2.3,0.3c0.6,0.2,1.1,0.5,1.4,0.8s0.6,0.9,0.7,1.5c0.1,0.6,0.2,1.4,0.2,2.3
		c0,0.6,0,1.1,0,1.5c0,0.4-0.1,0.7-0.2,1H356.6z"/>
	<path class="st0" d="M371,71.8c-0.3,0.7-0.8,1.2-1.5,1.5c-0.6,0.3-1.6,0.4-2.8,0.4c-1.2,0-2.2-0.1-2.8-0.4s-1.1-0.8-1.5-1.5
		c-0.2-0.3-0.3-0.7-0.4-1.1c-0.1-0.4-0.2-1-0.3-1.7s-0.1-1.6-0.2-2.7s0-2.6,0-4.4c0-1.8,0-3.2,0-4.4c0-1.1,0.1-2,0.2-2.7
		s0.2-1.3,0.3-1.7c0.1-0.4,0.3-0.8,0.4-1.1c0.3-0.7,0.8-1.2,1.5-1.5c0.6-0.3,1.6-0.4,2.8-0.4c1.2,0,2.2,0.1,2.8,0.4
		c0.6,0.3,1.1,0.8,1.5,1.5c0.2,0.4,0.3,0.7,0.4,1.1c0.1,0.4,0.2,1,0.3,1.7c0.1,0.7,0.1,1.6,0.2,2.7c0,1.1,0.1,2.6,0.1,4.4
		c0,1.8,0,3.2-0.1,4.4s-0.1,2-0.2,2.7c-0.1,0.7-0.2,1.3-0.3,1.7C371.3,71.1,371.1,71.4,371,71.8z M367.9,69c0.1-0.2,0.1-0.4,0.2-0.7
		c0-0.3,0.1-0.6,0.1-1.1c0-0.5,0-1.2,0-2c0-0.8,0-2,0-3.4c0-1.4,0-2.6,0-3.4c0-0.9,0-1.5-0.1-2c0-0.5-0.1-0.9-0.1-1.1
		c0-0.3-0.1-0.5-0.1-0.6c-0.1-0.3-0.2-0.5-0.4-0.6c-0.2-0.1-0.5-0.2-0.8-0.2c-0.4,0-0.7,0.1-0.9,0.2c-0.2,0.1-0.3,0.3-0.4,0.6
		c-0.1,0.2-0.1,0.4-0.1,0.7c0,0.2-0.1,0.6-0.1,1.1s-0.1,1.2-0.1,2c0,0.9,0,2,0,3.4c0,1.4,0,2.5,0,3.4c0,0.9,0,1.5,0.1,2
		c0,0.5,0.1,0.9,0.1,1.1c0,0.3,0.1,0.5,0.1,0.7c0.1,0.3,0.2,0.5,0.4,0.6c0.2,0.1,0.5,0.2,0.9,0.2c0.4,0,0.7-0.1,0.8-0.2
		C367.7,69.4,367.9,69.2,367.9,69z"/>
	<path class="st0" d="M382.1,73.3l-5-14h-0.2v14h-3.4V50.5h3.8l3.1,9.7h0.2v-9.7h3.4v22.7H382.1z"/>
	<path class="st0" d="M391.7,57.6c0-0.2,0-0.3,0-0.6c0-0.2,0-0.5,0-0.9c0-0.9-0.1-1.5-0.3-1.9c-0.2-0.4-0.6-0.6-1.2-0.6
		c-0.3,0-0.5,0-0.7,0.1c-0.2,0.1-0.3,0.2-0.4,0.3c-0.1,0.2-0.2,0.4-0.2,0.8c0,0.3-0.1,0.8-0.1,1.3c0,0.5,0,0.9,0,1.1
		c0,0.3,0,0.5,0.1,0.7c0,0.2,0.1,0.3,0.2,0.4c0.1,0.1,0.2,0.2,0.4,0.4c0.2,0.2,0.5,0.4,0.9,0.6c0.3,0.2,0.7,0.4,1.1,0.6
		c0.4,0.2,0.7,0.4,1.1,0.6c0.3,0.2,0.6,0.4,0.9,0.5c0.4,0.2,0.7,0.5,0.9,0.7s0.4,0.6,0.6,0.9c0.1,0.4,0.2,0.9,0.3,1.5
		c0,0.6,0.1,1.5,0.1,2.5c0,1.4-0.1,2.5-0.3,3.4c-0.2,0.9-0.5,1.6-0.8,2.1c-0.4,0.5-0.9,0.8-1.5,1c-0.6,0.2-1.4,0.3-2.4,0.3
		c-0.8,0-1.6-0.1-2.1-0.2s-1.1-0.4-1.4-0.8c-0.4-0.4-0.7-1-0.8-1.7c-0.2-0.7-0.3-1.7-0.3-2.9c0-0.5,0-0.9,0.1-1.3
		c0-0.4,0.1-0.7,0.2-1h3.1c0,0.2-0.1,0.4-0.1,0.6c0,0.2,0,0.5,0,0.8c0,0.6,0,1.1,0.1,1.5c0,0.4,0.1,0.7,0.2,0.9
		c0.1,0.2,0.3,0.4,0.5,0.4s0.4,0.1,0.7,0.1c0.3,0,0.6,0,0.8-0.1c0.2-0.1,0.4-0.2,0.5-0.4c0.1-0.2,0.2-0.5,0.3-0.9
		c0-0.4,0.1-1,0.1-1.7c0-0.4,0-0.8,0-1s0-0.5-0.1-0.6s-0.1-0.3-0.2-0.4c-0.1-0.1-0.2-0.3-0.3-0.4c-0.3-0.3-0.6-0.5-1-0.8
		s-0.8-0.5-1.2-0.7c-0.4-0.2-0.8-0.5-1.2-0.7c-0.4-0.2-0.7-0.5-1-0.8c-0.2-0.2-0.4-0.5-0.6-0.7c-0.2-0.2-0.3-0.6-0.4-1
		c-0.1-0.4-0.1-0.9-0.2-1.6c0-0.6,0-1.5,0-2.5c0-1.1,0.1-2,0.2-2.7c0.2-0.7,0.4-1.3,0.8-1.7c0.4-0.4,0.9-0.7,1.5-0.9
		c0.6-0.2,1.4-0.3,2.3-0.3c0.9,0,1.7,0.1,2.3,0.3c0.6,0.2,1.1,0.5,1.4,0.8s0.6,0.9,0.7,1.5c0.1,0.6,0.2,1.4,0.2,2.3
		c0,0.6,0,1.1,0,1.5c0,0.4-0.1,0.7-0.2,1H391.7z"/>
</g>
</svg>
