<?xml version="1.0" encoding="utf-8"?>
<!-- Generator: Adobe Illustrator 20.0.0, SVG Export Plug-In . SVG Version: 6.00 Build 0)  -->
<svg version="1.1" id="Layer_1" xmlns="http://www.w3.org/2000/svg" xmlns:xlink="http://www.w3.org/1999/xlink" x="0px" y="0px"
	 viewBox="0 0 400 141" style="enable-background:new 0 0 400 141;" xml:space="preserve">
<style type="text/css">
	.st0{fill:#E5E5E5;stroke:#494949;stroke-width:3;stroke-miterlimit:10;}
	.st1{fill:url(#SVGID_1_);}
	.st2{opacity:0.33;}
	.st3{fill:#FFFFFF;}
	.st4{fill:#EFEFEF;}
</style>
<path class="st0" d="M325.8,43.4l41.8-7.8c1.5-0.3,2.9,0.7,3.2,2.2L382,98.2c0.3,1.5-0.7,2.9-2.2,3.2l-41.8,7.8
	c-1.5,0.3-2.9-0.7-3.2-2.2l-11.2-60.4C323.3,45.2,324.3,43.7,325.8,43.4z"/>
<path class="st0" d="M294.4,48.9l38.7-17.7c1.4-0.6,3,0,3.6,1.3l25.5,55.9c0.6,1.4,0,3-1.3,3.6l-38.7,17.7c-1.4,0.6-3,0-3.6-1.3
	L293,52.5C292.4,51.2,293,49.5,294.4,48.9z"/>
<path class="st0" d="M357.5,114l-42.4-3.7c-1.5-0.1-2.6-1.5-2.5-3l5.4-61.2c0.1-1.5,1.5-2.6,3-2.5l42.4,3.7c1.5,0.1,2.6,1.5,2.5,3
	l-5.4,61.2C360.3,113.1,359,114.2,357.5,114z"/>
<g>
	<g>
		
			<linearGradient id="SVGID_1_" gradientUnits="userSpaceOnUse" x1="330.6395" y1="-570.5469" x2="370.6589" y2="-605.3352" gradientTransform="matrix(1 0 0 -1 0 -548)">
			<stop  offset="0.1455" style="stop-color:#74C47C"/>
			<stop  offset="0.2096" style="stop-color:#72C079"/>
			<stop  offset="0.4061" style="stop-color:#6DB774"/>
			<stop  offset="0.5515" style="stop-color:#67AD6D"/>
			<stop  offset="0.9455" style="stop-color:#63A869"/>
		</linearGradient>
		<path class="st1" d="M360.5,26.8c-0.1,0-0.2,0-0.3,0c-5.9,0-11.3,2.3-15.2,6.2c-3.8,3.9-6.2,9.3-6.2,15.2c0,10.1,6.8,18.5,16,21.1
			c1.8,0.5,3.7,0.8,5.6,0.8c0.1,0,0.2,0,0.3,0c5.9,0,11.3-2.3,15.2-6.2c3.4-3.4,5.5-8,6-13.1c0.1-0.7,0.1-1.4,0.1-2.1
			C382,36.7,372.4,26.9,360.5,26.8z"/>
	</g>
	<g>
		<g class="st2">
			<path d="M357.5,39.5c0-0.4,0.1-0.7,0.4-1s0.6-0.4,1-0.4h4.2c0.4,0,0.7,0.1,1,0.4c0.3,0.3,0.4,0.6,0.4,1v5.6
				c0,0.2,0.1,0.4,0.4,0.4h5.6c0.4,0,0.7,0.1,1,0.4c0.3,0.3,0.4,0.6,0.4,1v4.2c0,0.4-0.1,0.7-0.4,1s-0.6,0.4-1,0.4h-5.6
				c-0.2,0-0.4,0.1-0.4,0.4v5.6c0,0.4-0.1,0.7-0.4,1s-0.6,0.4-1,0.4h-4.2c-0.4,0-0.7-0.1-1-0.4c-0.3-0.3-0.4-0.6-0.4-1v-5.6
				c0-0.2-0.1-0.4-0.4-0.4h-5.6c-0.4,0-0.7-0.1-1-0.4c-0.3-0.3-0.4-0.6-0.4-1v-4.2c0-0.4,0.1-0.7,0.4-1s0.6-0.4,1-0.4h5.6
				c0.2,0,0.4-0.1,0.4-0.4V39.5z"/>
		</g>
		<g>
			<path class="st3" d="M356.4,38.3c0-0.4,0.1-0.7,0.4-1s0.6-0.4,1-0.4h4.2c0.4,0,0.7,0.1,1,0.4c0.3,0.3,0.4,0.6,0.4,1V44
				c0,0.2,0.1,0.4,0.4,0.4h5.6c0.4,0,0.7,0.1,1,0.4c0.3,0.3,0.4,0.6,0.4,1V50c0,0.4-0.1,0.7-0.4,1s-0.6,0.4-1,0.4h-5.6
				c-0.2,0-0.4,0.1-0.4,0.4v5.6c0,0.4-0.1,0.7-0.4,1s-0.6,0.4-1,0.4h-4.2c-0.4,0-0.7-0.1-1-0.4c-0.3-0.3-0.4-0.6-0.4-1v-5.6
				c0-0.2-0.1-0.4-0.4-0.4h-5.6c-0.4,0-0.7-0.1-1-0.4c-0.3-0.3-0.4-0.6-0.4-1v-4.2c0-0.4,0.1-0.7,0.4-1s0.6-0.4,1-0.4h5.6
				c0.2,0,0.4-0.1,0.4-0.4V38.3z"/>
		</g>
	</g>
</g>
<g>
	<path class="st4" d="M29.4,64.1l-7.6-17.3h-0.3v17.3h-6.1V31.8H22L26.5,43h0.3V31.8h6.2v32.3H29.4z"/>
	<path class="st4" d="M51.1,62c-0.3,0.5-0.6,0.9-1,1.3c-0.4,0.3-0.9,0.6-1.4,0.8c-0.6,0.2-1.2,0.4-2,0.4c-0.8,0.1-1.7,0.1-2.7,0.1
		c-2.1,0-3.7-0.2-4.7-0.6c-1.1-0.4-1.9-1.1-2.5-2.1c-0.3-0.5-0.5-1-0.7-1.6c-0.2-0.6-0.4-1.4-0.5-2.4c-0.1-1-0.2-2.3-0.3-3.9
		c-0.1-1.6-0.1-3.7-0.1-6.2c0-2.5,0-4.6,0.1-6.2c0.1-1.6,0.1-2.9,0.3-3.9c0.1-1,0.3-1.8,0.5-2.4c0.2-0.6,0.4-1.1,0.7-1.6
		c0.3-0.5,0.6-0.9,1-1.2s0.9-0.6,1.4-0.8c0.6-0.2,1.2-0.4,2-0.4c0.8-0.1,1.7-0.1,2.7-0.1c2.1,0,3.6,0.2,4.7,0.6
		c1.1,0.4,1.9,1.1,2.5,2.1c0.3,0.5,0.5,1.1,0.7,1.6c0.2,0.6,0.4,1.4,0.5,2.4c0.1,1,0.2,2.3,0.3,3.9c0.1,1.6,0.1,3.7,0.1,6.2
		c0,2.5,0,4.6-0.1,6.2c-0.1,1.6-0.1,2.9-0.3,3.9c-0.1,1-0.3,1.8-0.5,2.4C51.7,61,51.4,61.5,51.1,62z M45.7,56.7
		c0.1-0.2,0.1-0.5,0.2-0.8c0.1-0.3,0.1-0.8,0.1-1.4c0-0.6,0-1.5,0.1-2.5c0-1.1,0-2.5,0-4.2c0-1.8,0-3.2,0-4.3c0-1.1,0-1.9-0.1-2.6
		c0-0.6-0.1-1.1-0.1-1.4c-0.1-0.3-0.1-0.6-0.2-0.8c-0.1-0.3-0.3-0.5-0.5-0.6c-0.2-0.1-0.6-0.2-1.2-0.2c-0.5,0-0.9,0.1-1.2,0.2
		c-0.2,0.1-0.4,0.3-0.5,0.6c-0.1,0.2-0.1,0.5-0.2,0.8c0,0.3-0.1,0.8-0.1,1.4c0,0.6-0.1,1.5-0.1,2.6c0,1.1,0,2.5,0,4.3
		c0,1.7,0,3.1,0,4.2c0,1.1,0,1.9,0.1,2.5c0,0.6,0.1,1.1,0.1,1.4c0,0.3,0.1,0.6,0.2,0.8c0.1,0.3,0.2,0.5,0.5,0.6
		c0.2,0.1,0.6,0.2,1.2,0.2c0.5,0,0.9-0.1,1.2-0.2C45.4,57.1,45.5,56.9,45.7,56.7z"/>
	<path class="st4" d="M82.9,64.1V44.7h-0.3l-4.9,19.4h-2.9l-5-19.4h-0.3v19.4h-6.1V31.8H73l3,14.1h0.3l3.3-14.1H89l0,32.3H82.9z"/>
	<path class="st4" d="M107.3,62c-0.3,0.5-0.6,0.9-1,1.3c-0.4,0.3-0.9,0.6-1.4,0.8c-0.6,0.2-1.2,0.4-2,0.4c-0.8,0.1-1.7,0.1-2.7,0.1
		c-2.1,0-3.7-0.2-4.7-0.6C94.4,63.7,93.5,63,93,62c-0.3-0.5-0.5-1-0.7-1.6C92,59.8,91.9,59,91.7,58c-0.1-1-0.2-2.3-0.3-3.9
		c-0.1-1.6-0.1-3.7-0.1-6.2c0-2.5,0-4.6,0.1-6.2c0.1-1.6,0.1-2.9,0.3-3.9c0.1-1,0.3-1.8,0.5-2.4c0.2-0.6,0.4-1.1,0.7-1.6
		c0.3-0.5,0.6-0.9,1-1.2s0.9-0.6,1.4-0.8c0.6-0.2,1.2-0.4,2-0.4c0.8-0.1,1.7-0.1,2.7-0.1c2.1,0,3.6,0.2,4.7,0.6
		c1.1,0.4,1.9,1.1,2.5,2.1c0.3,0.5,0.5,1.1,0.7,1.6c0.2,0.6,0.4,1.4,0.5,2.4c0.1,1,0.2,2.3,0.3,3.9c0.1,1.6,0.1,3.7,0.1,6.2
		c0,2.5,0,4.6-0.1,6.2c-0.1,1.6-0.1,2.9-0.3,3.9c-0.1,1-0.3,1.8-0.5,2.4C107.8,61,107.6,61.5,107.3,62z M101.8,56.7
		c0.1-0.2,0.1-0.5,0.2-0.8c0.1-0.3,0.1-0.8,0.1-1.4c0-0.6,0-1.5,0.1-2.5c0-1.1,0-2.5,0-4.2c0-1.8,0-3.2,0-4.3c0-1.1,0-1.9-0.1-2.6
		c0-0.6-0.1-1.1-0.1-1.4c-0.1-0.3-0.1-0.6-0.2-0.8c-0.1-0.3-0.3-0.5-0.5-0.6c-0.2-0.1-0.6-0.2-1.2-0.2c-0.5,0-0.9,0.1-1.2,0.2
		c-0.2,0.1-0.4,0.3-0.5,0.6c-0.1,0.2-0.1,0.5-0.2,0.8c0,0.3-0.1,0.8-0.1,1.4c0,0.6-0.1,1.5-0.1,2.6c0,1.1,0,2.5,0,4.3
		c0,1.7,0,3.1,0,4.2c0,1.1,0,1.9,0.1,2.5c0,0.6,0.1,1.1,0.1,1.4c0,0.3,0.1,0.6,0.2,0.8c0.1,0.3,0.2,0.5,0.5,0.6
		c0.2,0.1,0.6,0.2,1.2,0.2c0.5,0,0.9-0.1,1.2-0.2C101.5,57.1,101.7,56.9,101.8,56.7z"/>
	<path class="st4" d="M121.9,64.1c-0.1-0.3-0.2-0.5-0.2-0.8c-0.1-0.3-0.1-0.8-0.2-1.4c-0.1-0.6-0.2-1.5-0.3-2.5
		c-0.1-1.1-0.3-2.6-0.5-4.4c-0.1-0.7-0.2-1.3-0.3-1.8s-0.2-0.8-0.3-1c-0.1-0.2-0.3-0.4-0.4-0.5c-0.2-0.1-0.4-0.1-0.6-0.1h-1v12.6
		h-6.7V31.8h9.8c1.5,0,2.6,0.2,3.6,0.5c0.9,0.3,1.7,0.8,2.2,1.5c0.6,0.7,0.9,1.6,1.2,2.7c0.2,1.1,0.3,2.4,0.3,4c0,1.7-0.1,3-0.2,4
		c-0.1,1-0.3,1.7-0.5,2.2c-0.2,0.5-0.5,0.9-0.9,1.2c-0.3,0.3-0.7,0.5-1.2,0.8v0.3c0.2,0.1,0.3,0.3,0.5,0.5c0.2,0.2,0.3,0.5,0.5,0.9
		c0.2,0.5,0.5,1.3,0.7,2.3c0.2,1,0.5,2.5,0.7,4.4c0.2,1.3,0.3,2.4,0.4,3.2c0.1,0.8,0.2,1.4,0.2,1.9c0.1,0.5,0.1,0.9,0.2,1.1
		c0,0.3,0.1,0.5,0.2,0.7v0.2H121.9z M119.8,45.5c0.6,0,1.1-0.3,1.3-0.8c0.3-0.5,0.4-1.5,0.4-3.1c0-1.3-0.1-2.1-0.4-2.6
		c-0.3-0.4-0.8-0.6-1.4-0.6H118v7.1H119.8z"/>
	<path class="st4" d="M131,64.1V31.8h14.3v6.8h-7.6v5.7h7.5v6.5h-7.5v6.1h7.6v7.2H131z"/>
	<path class="st4" d="M173.1,51.7c0.1,1,0.1,2,0.1,2.9c0,1.7-0.1,3.2-0.3,4.5c-0.2,1.3-0.6,2.3-1.2,3.1c-0.6,0.8-1.4,1.4-2.5,1.8
		c-1.1,0.4-2.5,0.6-4.3,0.6c-2.1,0-3.8-0.2-4.9-0.6c-1.1-0.4-2-1.1-2.5-2.1c-0.3-0.5-0.5-1-0.7-1.6c-0.2-0.6-0.4-1.5-0.5-2.5
		c-0.1-1.1-0.2-2.4-0.3-4c-0.1-1.6-0.1-3.7-0.1-6.2s0-4.5,0.1-6.1c0.1-1.6,0.1-2.8,0.3-3.8c0.1-1,0.3-1.8,0.5-2.4
		c0.2-0.6,0.4-1.1,0.7-1.6c0.6-1,1.4-1.6,2.5-2c1.1-0.4,2.6-0.6,4.7-0.6c1.8,0,3.3,0.2,4.4,0.5c1.1,0.3,2,0.9,2.6,1.7
		c0.6,0.8,1,1.8,1.2,3c0.2,1.2,0.3,2.7,0.3,4.4c0,0.4,0,0.8,0,1.3c0,0.5,0,1-0.1,1.5h-6.3c0-0.9,0-1.6,0-2.1c0-0.6,0-1-0.1-1.4
		c0-0.4-0.1-0.7-0.1-0.9c0-0.2-0.1-0.4-0.1-0.5c-0.1-0.5-0.7-0.8-1.8-0.8c-0.5,0-0.9,0.1-1.2,0.2c-0.2,0.1-0.4,0.3-0.5,0.6
		c-0.1,0.2-0.1,0.5-0.2,0.8c0,0.3-0.1,0.8-0.1,1.4c0,0.6-0.1,1.5-0.1,2.5c0,1.1,0,2.5,0,4.2c0,1.8,0,3.2,0,4.3c0,1.1,0,1.9,0.1,2.6
		c0,0.6,0.1,1.1,0.1,1.4c0,0.3,0.1,0.6,0.2,0.8c0.1,0.3,0.3,0.5,0.5,0.6s0.7,0.2,1.4,0.2c0.9,0,1.4-0.2,1.5-0.7
		c0.1-0.3,0.2-0.6,0.3-0.9c0.1-0.3,0.1-0.7,0.1-1c0-0.4,0-0.8,0.1-1.3c0-0.5,0-1.1,0-1.7H173.1z"/>
	<path class="st4" d="M185.4,64.1l-0.6-7.5h-3.2l-0.5,7.5h-6.8l3.5-32.3h11.3l3.2,32.3H185.4z M183.4,38.5H183l-1.1,11.6h2.6
		L183.4,38.5z"/>
	<path class="st4" d="M204.9,64.1c-0.1-0.3-0.2-0.5-0.2-0.8c-0.1-0.3-0.1-0.8-0.2-1.4c-0.1-0.6-0.2-1.5-0.3-2.5
		c-0.1-1.1-0.3-2.6-0.5-4.4c-0.1-0.7-0.2-1.3-0.3-1.8c-0.1-0.5-0.2-0.8-0.3-1c-0.1-0.2-0.3-0.4-0.4-0.5c-0.2-0.1-0.4-0.1-0.6-0.1h-1
		v12.6h-6.7V31.8h9.8c1.5,0,2.6,0.2,3.6,0.5c0.9,0.3,1.7,0.8,2.2,1.5c0.6,0.7,0.9,1.6,1.2,2.7c0.2,1.1,0.3,2.4,0.3,4
		c0,1.7-0.1,3-0.2,4c-0.1,1-0.3,1.7-0.5,2.2c-0.2,0.5-0.5,0.9-0.9,1.2c-0.3,0.3-0.7,0.5-1.2,0.8v0.3c0.2,0.1,0.3,0.3,0.5,0.5
		c0.2,0.2,0.3,0.5,0.5,0.9c0.2,0.5,0.5,1.3,0.7,2.3c0.2,1,0.5,2.5,0.7,4.4c0.2,1.3,0.3,2.4,0.4,3.2c0.1,0.8,0.2,1.4,0.2,1.9
		c0.1,0.5,0.1,0.9,0.2,1.1c0,0.3,0.1,0.5,0.2,0.7v0.2H204.9z M202.9,45.5c0.6,0,1.1-0.3,1.3-0.8c0.3-0.5,0.4-1.5,0.4-3.1
		c0-1.3-0.1-2.1-0.4-2.6s-0.8-0.6-1.4-0.6H201v7.1H202.9z"/>
	<path class="st4" d="M214,64.1V31.8h9c2.1,0,3.6,0.2,4.7,0.6c1.1,0.4,1.9,1,2.5,2c0.3,0.5,0.5,1,0.7,1.6c0.2,0.6,0.3,1.3,0.5,2.3
		c0.1,1,0.2,2.2,0.3,3.8c0.1,1.5,0.1,3.5,0.1,6c0,2.5,0,4.5-0.1,6c-0.1,1.6-0.1,2.8-0.3,3.8c-0.1,1-0.3,1.7-0.5,2.3
		c-0.2,0.6-0.4,1.1-0.7,1.5c-0.3,0.5-0.6,0.9-1,1.2c-0.4,0.3-0.9,0.6-1.5,0.8c-0.6,0.2-1.2,0.3-2,0.4c-0.8,0.1-1.7,0.1-2.7,0.1H214z
		 M222.9,57c0.5,0,0.9-0.1,1.2-0.2c0.2-0.1,0.4-0.3,0.5-0.6c0.1-0.2,0.1-0.4,0.2-0.7c0.1-0.3,0.1-0.7,0.1-1.3c0-0.6,0-1.4,0.1-2.4
		c0-1,0-2.3,0-4c0-1.7,0-3,0-4c0-1,0-1.9-0.1-2.5s-0.1-1-0.1-1.3c-0.1-0.3-0.1-0.5-0.2-0.7c-0.1-0.2-0.3-0.4-0.5-0.5
		c-0.2-0.1-0.6-0.2-1.2-0.2h-2.1V57H222.9z"/>
	<path class="st4" d="M243.4,41.8c0-0.2,0-0.4,0-0.6c0-0.2,0-0.4,0-0.8c0-1-0.1-1.7-0.4-2.1c-0.2-0.4-0.8-0.6-1.6-0.6
		s-1.4,0.2-1.6,0.6c-0.2,0.4-0.3,1.1-0.3,2.1c0,0.9,0.1,1.6,0.4,2c0.2,0.4,0.6,0.7,1.2,1c0.6,0.4,1.2,0.7,1.8,0.9
		c0.6,0.3,1.1,0.5,1.5,0.7c0.5,0.2,0.9,0.4,1.3,0.6c0.4,0.2,0.9,0.4,1.3,0.7c0.5,0.3,0.9,0.7,1.2,1.1c0.4,0.4,0.6,0.9,0.9,1.5
		c0.2,0.6,0.4,1.4,0.5,2.3c0.1,0.9,0.2,2,0.2,3.4c0,1.9-0.1,3.5-0.4,4.8c-0.3,1.3-0.7,2.3-1.4,3.1c-0.6,0.8-1.5,1.3-2.6,1.6
		s-2.5,0.5-4.1,0.5c-2.7,0-4.6-0.5-5.9-1.5c-1.3-1-1.9-2.8-1.9-5.3c0-0.8,0-1.7,0.1-2.5s0.1-1.5,0.3-2h5.6c-0.1,0.2-0.1,0.4-0.1,0.6
		c0,0.2,0,0.4,0,0.6c0,1.3,0.1,2.1,0.4,2.6c0.3,0.5,0.8,0.7,1.7,0.7c0.9,0,1.4-0.2,1.7-0.6c0.3-0.4,0.4-1.3,0.4-2.7
		c0-0.8-0.1-1.5-0.4-1.9c-0.3-0.4-0.7-0.8-1.2-1.2c-0.5-0.3-1.1-0.7-1.6-0.9c-0.6-0.3-1.2-0.6-1.8-0.8s-1.1-0.5-1.7-0.8
		c-0.5-0.3-1-0.6-1.5-1c-0.9-0.8-1.4-1.8-1.6-3.2c-0.2-1.3-0.3-3.1-0.3-5.2c0-1.5,0.1-2.8,0.4-3.8c0.2-1,0.7-1.9,1.3-2.5
		c0.6-0.6,1.4-1.1,2.4-1.4c1-0.3,2.3-0.4,3.9-0.4c1.5,0,2.7,0.1,3.7,0.3c1,0.2,1.8,0.6,2.4,1.2c0.6,0.6,1.1,1.3,1.3,2.2
		c0.3,0.9,0.4,2.1,0.4,3.4c0,0.9,0,1.6-0.1,2.1c0,0.5-0.1,1-0.3,1.4H243.4z"/>
	<path class="st4" d="M15.5,104.5V72.2h6.9v32.3H15.5z"/>
	<path class="st4" d="M39.4,104.5l-7.6-17.3h-0.3v17.3h-6.1V72.2h6.6l4.5,11.2h0.3V72.2h6.2v32.3H39.4z"/>
	<path class="st4" d="M58.4,104.5V79h-5.1v-6.8h16.9V79h-5.1v25.5H58.4z"/>
	<path class="st4" d="M83.1,104.5V91.2H79v13.3h-6.9V72.2H79v12.5h4.2V72.2H90v32.3H83.1z"/>
	<path class="st4" d="M92.9,104.5V72.2h6.9v32.3H92.9z"/>
	<path class="st4" d="M112,82.2c0-0.2,0-0.4,0-0.6s0-0.4,0-0.8c0-1-0.1-1.7-0.4-2.1c-0.2-0.4-0.8-0.6-1.6-0.6
		c-0.8,0-1.4,0.2-1.6,0.6c-0.2,0.4-0.3,1.1-0.3,2.1c0,0.9,0.1,1.6,0.4,2c0.2,0.4,0.6,0.7,1.2,1c0.6,0.4,1.2,0.7,1.8,0.9
		c0.6,0.3,1.1,0.5,1.5,0.7c0.5,0.2,0.9,0.4,1.3,0.6c0.4,0.2,0.9,0.4,1.3,0.7c0.5,0.3,0.9,0.7,1.2,1.1c0.4,0.4,0.6,0.9,0.9,1.5
		c0.2,0.6,0.4,1.4,0.5,2.3c0.1,0.9,0.2,2,0.2,3.4c0,1.9-0.1,3.5-0.4,4.8c-0.3,1.3-0.7,2.3-1.4,3.1s-1.5,1.3-2.6,1.6
		s-2.5,0.5-4.1,0.5c-2.7,0-4.6-0.5-5.9-1.5c-1.3-1-1.9-2.8-1.9-5.3c0-0.8,0-1.7,0.1-2.5c0-0.8,0.1-1.5,0.3-2h5.6
		c-0.1,0.2-0.1,0.4-0.1,0.6c0,0.2,0,0.4,0,0.6c0,1.3,0.1,2.1,0.4,2.6s0.8,0.7,1.7,0.7s1.4-0.2,1.7-0.6c0.3-0.4,0.4-1.3,0.4-2.7
		c0-0.8-0.1-1.5-0.4-1.9c-0.3-0.4-0.7-0.8-1.2-1.2c-0.5-0.3-1.1-0.7-1.6-0.9c-0.6-0.3-1.2-0.6-1.8-0.8c-0.6-0.3-1.1-0.5-1.7-0.8
		s-1-0.6-1.5-1c-0.9-0.8-1.4-1.8-1.6-3.2c-0.2-1.3-0.3-3.1-0.3-5.2c0-1.5,0.1-2.8,0.4-3.8c0.2-1,0.7-1.9,1.3-2.5
		c0.6-0.6,1.4-1.1,2.4-1.4c1-0.3,2.3-0.4,3.9-0.4c1.5,0,2.7,0.1,3.7,0.3c1,0.2,1.8,0.6,2.4,1.2c0.6,0.6,1.1,1.3,1.3,2.2
		c0.3,0.9,0.4,2.1,0.4,3.4c0,0.9,0,1.6-0.1,2.1c0,0.5-0.1,1-0.3,1.4H112z"/>
	<path class="st4" d="M145.9,92.1c0.1,1,0.1,2,0.1,2.9c0,1.7-0.1,3.2-0.3,4.5c-0.2,1.3-0.6,2.3-1.2,3.1c-0.6,0.8-1.4,1.4-2.5,1.8
		s-2.5,0.6-4.3,0.6c-2.1,0-3.8-0.2-4.9-0.6c-1.1-0.4-2-1.1-2.5-2.1c-0.3-0.5-0.5-1-0.7-1.6c-0.2-0.6-0.4-1.5-0.5-2.5
		c-0.1-1.1-0.2-2.4-0.3-4s-0.1-3.7-0.1-6.2c0-2.5,0-4.5,0.1-6.1c0.1-1.6,0.1-2.8,0.3-3.8c0.1-1,0.3-1.8,0.5-2.4
		c0.2-0.6,0.4-1.1,0.7-1.6c0.6-1,1.4-1.6,2.5-2c1.1-0.4,2.6-0.6,4.7-0.6c1.8,0,3.3,0.2,4.4,0.5c1.1,0.3,2,0.9,2.6,1.7
		c0.6,0.8,1,1.8,1.2,3c0.2,1.2,0.3,2.7,0.3,4.4c0,0.4,0,0.8,0,1.3c0,0.5,0,1-0.1,1.5h-6.3c0-0.9,0-1.6,0-2.1c0-0.6,0-1-0.1-1.4
		c0-0.4-0.1-0.7-0.1-0.9c0-0.2-0.1-0.4-0.1-0.5c-0.1-0.5-0.7-0.8-1.8-0.8c-0.5,0-0.9,0.1-1.2,0.2c-0.2,0.1-0.4,0.3-0.5,0.6
		c-0.1,0.2-0.1,0.5-0.2,0.8c0,0.3-0.1,0.8-0.1,1.4c0,0.6-0.1,1.5-0.1,2.5c0,1.1,0,2.5,0,4.2c0,1.8,0,3.2,0,4.3c0,1.1,0,1.9,0.1,2.6
		c0,0.6,0.1,1.1,0.1,1.4c0,0.3,0.1,0.6,0.2,0.8c0.1,0.3,0.3,0.5,0.5,0.6c0.3,0.1,0.7,0.2,1.4,0.2c0.9,0,1.4-0.2,1.5-0.7
		c0.1-0.3,0.2-0.6,0.3-0.9c0.1-0.3,0.1-0.7,0.1-1c0-0.4,0-0.8,0.1-1.3c0-0.5,0-1.1,0-1.7H145.9z"/>
	<path class="st4" d="M158.1,104.5l-0.6-7.5h-3.2l-0.5,7.5h-6.8l3.5-32.3h11.3l3.2,32.3H158.1z M156.2,78.9h-0.5l-1.1,11.6h2.6
		L156.2,78.9z"/>
	<path class="st4" d="M169.3,104.5V79h-5.1v-6.8h16.9V79H176v25.5H169.3z"/>
	<path class="st4" d="M183.1,104.5V72.2h14.3V79h-7.6v5.7h7.5v6.5h-7.5v6.1h7.6v7.2H183.1z"/>
	<path class="st4" d="M210.9,92h-3.1v-6.5h9.1c0,0.6,0,1.4,0.1,2.5s0,2.4,0,3.9c0,1.8,0,3.2-0.1,4.4c-0.1,1.2-0.2,2.1-0.3,2.9
		c-0.1,0.8-0.3,1.4-0.5,1.9c-0.2,0.5-0.4,0.9-0.7,1.4c-0.3,0.5-0.6,0.9-1,1.3s-0.9,0.6-1.4,0.8s-1.2,0.4-2,0.4
		c-0.8,0.1-1.7,0.1-2.7,0.1c-2.1,0-3.7-0.2-4.7-0.6s-1.9-1.1-2.5-2.1c-0.3-0.5-0.5-1-0.7-1.6c-0.2-0.6-0.4-1.4-0.5-2.4
		c-0.1-1-0.2-2.4-0.3-4c-0.1-1.6-0.1-3.7-0.1-6.4c0-2.5,0-4.5,0.1-6.1c0.1-1.6,0.1-2.8,0.3-3.8c0.1-1,0.3-1.8,0.5-2.4
		c0.2-0.6,0.4-1.1,0.7-1.6c0.6-1,1.4-1.6,2.5-2c1.1-0.4,2.6-0.6,4.7-0.6c2.4,0,4.1,0.3,5.3,0.9c1.2,0.6,2,1.6,2.5,3.1
		c0.4,1.2,0.6,2.8,0.6,4.7c0,0.4,0,0.7,0,0.9c0,0.2,0,0.5,0,0.7h-6.2c0-0.1,0-0.2,0-0.3c0-0.1,0-0.2,0-0.3c0-0.7,0-1.2-0.1-1.6
		c-0.1-0.3-0.1-0.6-0.2-0.9c-0.1-0.5-0.8-0.8-2-0.8c-0.6,0-1,0.1-1.3,0.2s-0.5,0.3-0.6,0.6c-0.1,0.2-0.1,0.5-0.2,0.8
		c-0.1,0.3-0.1,0.8-0.1,1.4c0,0.6,0,1.5-0.1,2.5c0,1.1,0,2.5,0,4.2c0,1.9,0,3.3,0,4.4c0,1.1,0,2,0.1,2.6c0,0.6,0.1,1.1,0.1,1.3
		s0.1,0.5,0.1,0.7c0.2,0.6,0.9,0.9,2.1,0.9c0.6,0,1-0.1,1.3-0.2c0.3-0.1,0.5-0.3,0.7-0.6c0.1-0.1,0.2-0.3,0.2-0.4
		c0.1-0.2,0.1-0.4,0.1-0.6s0-0.6,0.1-1c0-0.4,0-0.9,0-1.6V92z"/>
	<path class="st4" d="M234.7,102.4c-0.3,0.5-0.6,0.9-1,1.3s-0.9,0.6-1.4,0.8s-1.2,0.4-2,0.4c-0.8,0.1-1.7,0.1-2.7,0.1
		c-2.1,0-3.7-0.2-4.7-0.6s-1.9-1.1-2.5-2.1c-0.3-0.5-0.5-1-0.7-1.6c-0.2-0.6-0.4-1.4-0.5-2.4c-0.1-1-0.2-2.3-0.3-3.9
		c-0.1-1.6-0.1-3.7-0.1-6.2c0-2.5,0-4.6,0.1-6.2c0.1-1.6,0.1-2.9,0.3-3.9c0.1-1,0.3-1.8,0.5-2.4c0.2-0.6,0.4-1.1,0.7-1.6
		c0.3-0.5,0.6-0.9,1-1.2c0.4-0.3,0.9-0.6,1.4-0.8c0.6-0.2,1.2-0.4,2-0.4c0.8-0.1,1.7-0.1,2.7-0.1c2.1,0,3.6,0.2,4.7,0.6
		c1.1,0.4,1.9,1.1,2.5,2.1c0.3,0.5,0.5,1.1,0.7,1.6c0.2,0.6,0.4,1.4,0.5,2.4c0.1,1,0.2,2.3,0.3,3.9c0.1,1.6,0.1,3.7,0.1,6.2
		c0,2.5,0,4.6-0.1,6.2c-0.1,1.6-0.1,2.9-0.3,3.9c-0.1,1-0.3,1.8-0.5,2.4S235,101.9,234.7,102.4z M229.2,97.1
		c0.1-0.2,0.1-0.5,0.2-0.8c0.1-0.3,0.1-0.8,0.1-1.4c0-0.6,0-1.5,0.1-2.5c0-1.1,0-2.5,0-4.2c0-1.8,0-3.2,0-4.3c0-1.1,0-1.9-0.1-2.6
		c0-0.6-0.1-1.1-0.1-1.4c-0.1-0.3-0.1-0.6-0.2-0.8c-0.1-0.3-0.3-0.5-0.5-0.6c-0.2-0.1-0.6-0.2-1.2-0.2s-0.9,0.1-1.2,0.2
		c-0.2,0.1-0.4,0.3-0.5,0.6c-0.1,0.2-0.1,0.5-0.2,0.8c0,0.3-0.1,0.8-0.1,1.4c0,0.6-0.1,1.5-0.1,2.6c0,1.1,0,2.5,0,4.3
		c0,1.7,0,3.1,0,4.2c0,1.1,0,1.9,0.1,2.5c0,0.6,0.1,1.1,0.1,1.4c0,0.3,0.1,0.6,0.2,0.8c0.1,0.3,0.2,0.5,0.5,0.6
		c0.2,0.1,0.6,0.2,1.2,0.2s0.9-0.1,1.2-0.2C229,97.6,229.1,97.4,229.2,97.1z"/>
	<path class="st4" d="M249.3,104.5c-0.1-0.3-0.2-0.5-0.2-0.8c-0.1-0.3-0.1-0.8-0.2-1.4c-0.1-0.6-0.2-1.5-0.3-2.5
		c-0.1-1.1-0.3-2.6-0.5-4.4c-0.1-0.7-0.2-1.3-0.3-1.8c-0.1-0.5-0.2-0.8-0.3-1c-0.1-0.2-0.3-0.4-0.4-0.5s-0.4-0.1-0.6-0.1h-1v12.6
		h-6.7V72.2h9.8c1.5,0,2.6,0.2,3.6,0.5s1.7,0.8,2.2,1.5s0.9,1.6,1.2,2.7c0.2,1.1,0.3,2.4,0.3,4c0,1.7-0.1,3-0.2,4
		c-0.1,1-0.3,1.7-0.5,2.2c-0.2,0.5-0.5,0.9-0.9,1.2c-0.3,0.3-0.7,0.5-1.2,0.8v0.3c0.2,0.1,0.3,0.3,0.5,0.5c0.2,0.2,0.3,0.5,0.5,0.9
		c0.2,0.5,0.5,1.3,0.7,2.3c0.2,1,0.5,2.5,0.7,4.4c0.2,1.3,0.3,2.4,0.4,3.2c0.1,0.8,0.2,1.4,0.2,1.9s0.1,0.9,0.2,1.1
		c0,0.3,0.1,0.5,0.2,0.7v0.2H249.3z M247.3,85.9c0.6,0,1.1-0.3,1.3-0.8c0.3-0.5,0.4-1.5,0.4-3.1c0-1.3-0.1-2.1-0.4-2.6
		s-0.8-0.6-1.4-0.6h-1.7v7.1H247.3z"/>
	<path class="st4" d="M261.9,104.5V92.7L256,72.4v-0.2h6.9c0.5,2,0.8,3.6,1.1,4.8c0.3,1.2,0.5,2.2,0.6,2.9c0.2,0.7,0.3,1.3,0.4,1.6
		c0.1,0.4,0.2,0.7,0.2,1.1h0.4c0.1-0.3,0.1-0.7,0.2-1.1c0.1-0.4,0.2-0.9,0.4-1.6c0.2-0.7,0.4-1.7,0.7-2.9s0.7-2.8,1.2-4.8h6.7v0.2
		l-5.6,20.3v11.9H261.9z"/>
</g>
</svg>
