<?xml version="1.0" encoding="utf-8"?>
<!-- Generator: Adobe Illustrator 20.0.0, SVG Export Plug-In . SVG Version: 6.00 Build 0)  -->
<svg version="1.1" id="Layer_1" xmlns="http://www.w3.org/2000/svg" xmlns:xlink="http://www.w3.org/1999/xlink" x="0px" y="0px"
	 viewBox="0 0 400 141" style="enable-background:new 0 0 400 141;" xml:space="preserve">
<style type="text/css">
	.st0{fill:#EFEFEF;}
	.st1{fill:#E5E5E5;stroke:#494949;stroke-width:3;stroke-miterlimit:10;}
	.st2{fill:url(#SVGID_1_);}
	.st3{opacity:0.33;}
	.st4{fill:#FFFFFF;}
</style>
<g>
	<path class="st0" d="M11.5,67.8V36.5H18v24.3h6.7v6.9H11.5z"/>
	<path class="st0" d="M41.1,65.8c-0.3,0.5-0.6,0.9-1,1.2c-0.4,0.3-0.8,0.6-1.4,0.8c-0.6,0.2-1.2,0.4-1.9,0.4
		c-0.7,0.1-1.6,0.1-2.6,0.1c-2,0-3.5-0.2-4.6-0.6c-1-0.4-1.8-1-2.4-2c-0.3-0.5-0.5-1-0.7-1.5c-0.2-0.6-0.4-1.3-0.5-2.3
		c-0.1-1-0.2-2.2-0.3-3.8s-0.1-3.6-0.1-6c0-2.4,0-4.4,0.1-6c0.1-1.5,0.1-2.8,0.3-3.8c0.1-1,0.3-1.7,0.5-2.3c0.2-0.6,0.4-1.1,0.7-1.6
		c0.3-0.5,0.6-0.9,1-1.2c0.4-0.3,0.8-0.6,1.4-0.8c0.6-0.2,1.2-0.4,2-0.4c0.8-0.1,1.6-0.1,2.6-0.1c2,0,3.5,0.2,4.5,0.6
		c1,0.4,1.8,1,2.4,2c0.3,0.5,0.5,1,0.7,1.6c0.2,0.6,0.4,1.3,0.5,2.3c0.1,1,0.2,2.2,0.3,3.8c0.1,1.5,0.1,3.5,0.1,6c0,2.5,0,4.5-0.1,6
		s-0.1,2.8-0.3,3.8c-0.1,1-0.3,1.7-0.5,2.3C41.6,64.8,41.3,65.3,41.1,65.8z M35.8,60.6c0.1-0.2,0.1-0.4,0.2-0.7
		c0.1-0.3,0.1-0.8,0.1-1.4c0-0.6,0-1.4,0.1-2.5c0-1,0-2.4,0-4.1c0-1.7,0-3.1,0-4.2c0-1,0-1.9-0.1-2.5c0-0.6-0.1-1.1-0.1-1.4
		c-0.1-0.3-0.1-0.6-0.2-0.7c-0.1-0.3-0.3-0.5-0.5-0.6c-0.2-0.1-0.6-0.2-1.1-0.2c-0.5,0-0.9,0.1-1.1,0.2c-0.2,0.1-0.4,0.3-0.5,0.6
		c-0.1,0.2-0.1,0.4-0.2,0.7c0,0.3-0.1,0.8-0.1,1.4c0,0.6-0.1,1.5-0.1,2.5c0,1,0,2.4,0,4.2c0,1.7,0,3,0,4.1c0,1,0,1.9,0.1,2.5
		c0,0.6,0.1,1.1,0.1,1.4c0,0.3,0.1,0.6,0.2,0.7c0.1,0.3,0.2,0.5,0.5,0.6c0.2,0.1,0.6,0.2,1.1,0.2c0.5,0,0.9-0.1,1.1-0.2
		C35.5,61.1,35.7,60.9,35.8,60.6z"/>
	<path class="st0" d="M54.4,67.8l-0.5-7.2h-3.1l-0.5,7.2h-6.5L47,36.5h10.9l3.1,31.3H54.4z M52.5,43.1H52l-1,11.2h2.6L52.5,43.1z"/>
	<path class="st0" d="M63,67.8V36.5h8.7c2,0,3.5,0.2,4.5,0.6c1,0.4,1.8,1,2.4,1.9c0.3,0.5,0.5,1,0.7,1.5c0.2,0.5,0.3,1.3,0.5,2.2
		c0.1,0.9,0.2,2.1,0.3,3.6s0.1,3.4,0.1,5.8c0,2.4,0,4.3-0.1,5.8c-0.1,1.5-0.1,2.7-0.3,3.7c-0.1,0.9-0.3,1.7-0.5,2.2
		c-0.2,0.6-0.4,1-0.7,1.5c-0.3,0.5-0.6,0.9-1,1.2c-0.4,0.3-0.9,0.6-1.4,0.8c-0.6,0.2-1.2,0.3-1.9,0.4s-1.6,0.1-2.6,0.1H63z
		 M71.5,60.9c0.5,0,0.9-0.1,1.1-0.2c0.2-0.1,0.4-0.3,0.5-0.6c0.1-0.2,0.1-0.4,0.2-0.7c0.1-0.3,0.1-0.7,0.1-1.3c0-0.6,0-1.4,0.1-2.3
		c0-1,0-2.3,0-3.9c0-1.6,0-2.9,0-3.9c0-1,0-1.8-0.1-2.4s-0.1-1-0.1-1.3c-0.1-0.3-0.1-0.5-0.2-0.7c-0.1-0.2-0.3-0.4-0.5-0.5
		c-0.2-0.1-0.6-0.2-1.1-0.2h-2.1v17.8H71.5z"/>
	<path class="st0" d="M109.3,67.8V49h-0.2l-4.7,18.7h-2.8L96.7,49h-0.2v18.7h-5.9V36.5h9.2l2.9,13.6h0.3l3.2-13.6h9.1l0,31.3H109.3z
		"/>
	<path class="st0" d="M132.8,65.8c-0.3,0.5-0.6,0.9-1,1.2c-0.4,0.3-0.8,0.6-1.4,0.8c-0.6,0.2-1.2,0.4-1.9,0.4
		c-0.7,0.1-1.6,0.1-2.6,0.1c-2,0-3.5-0.2-4.6-0.6c-1-0.4-1.8-1-2.4-2c-0.3-0.5-0.5-1-0.7-1.5c-0.2-0.6-0.4-1.3-0.5-2.3
		c-0.1-1-0.2-2.2-0.3-3.8s-0.1-3.6-0.1-6c0-2.4,0-4.4,0.1-6c0.1-1.5,0.1-2.8,0.3-3.8c0.1-1,0.3-1.7,0.5-2.3c0.2-0.6,0.4-1.1,0.7-1.6
		c0.3-0.5,0.6-0.9,1-1.2c0.4-0.3,0.8-0.6,1.4-0.8c0.6-0.2,1.2-0.4,2-0.4c0.8-0.1,1.6-0.1,2.6-0.1c2,0,3.5,0.2,4.5,0.6
		c1,0.4,1.8,1,2.4,2c0.3,0.5,0.5,1,0.7,1.6c0.2,0.6,0.4,1.3,0.5,2.3c0.1,1,0.2,2.2,0.3,3.8c0.1,1.5,0.1,3.5,0.1,6c0,2.5,0,4.5-0.1,6
		s-0.1,2.8-0.3,3.8c-0.1,1-0.3,1.7-0.5,2.3C133.4,64.8,133.1,65.3,132.8,65.8z M127.6,60.6c0.1-0.2,0.1-0.4,0.2-0.7
		c0.1-0.3,0.1-0.8,0.1-1.4c0-0.6,0-1.4,0.1-2.5c0-1,0-2.4,0-4.1c0-1.7,0-3.1,0-4.2c0-1,0-1.9-0.1-2.5c0-0.6-0.1-1.1-0.1-1.4
		c-0.1-0.3-0.1-0.6-0.2-0.7c-0.1-0.3-0.3-0.5-0.5-0.6c-0.2-0.1-0.6-0.2-1.1-0.2c-0.5,0-0.9,0.1-1.1,0.2c-0.2,0.1-0.4,0.3-0.5,0.6
		c-0.1,0.2-0.1,0.4-0.2,0.7c0,0.3-0.1,0.8-0.1,1.4c0,0.6-0.1,1.5-0.1,2.5c0,1,0,2.4,0,4.2c0,1.7,0,3,0,4.1c0,1,0,1.9,0.1,2.5
		c0,0.6,0.1,1.1,0.1,1.4c0,0.3,0.1,0.6,0.2,0.7c0.1,0.3,0.2,0.5,0.5,0.6c0.2,0.1,0.6,0.2,1.1,0.2c0.5,0,0.9-0.1,1.1-0.2
		C127.3,61.1,127.4,60.9,127.6,60.6z"/>
	<path class="st0" d="M146.9,67.8c-0.1-0.2-0.2-0.5-0.2-0.8s-0.1-0.7-0.2-1.3c-0.1-0.6-0.2-1.4-0.3-2.5c-0.1-1-0.3-2.5-0.5-4.3
		c-0.1-0.7-0.2-1.3-0.2-1.7c-0.1-0.4-0.2-0.8-0.3-1c-0.1-0.2-0.2-0.4-0.4-0.5s-0.3-0.1-0.5-0.1h-1v12.2h-6.5V36.5h9.5
		c1.4,0,2.6,0.2,3.5,0.5c0.9,0.3,1.6,0.8,2.2,1.5c0.5,0.7,0.9,1.5,1.1,2.6c0.2,1.1,0.3,2.3,0.3,3.9c0,1.6-0.1,2.9-0.2,3.8
		c-0.1,0.9-0.3,1.6-0.5,2.2c-0.2,0.5-0.5,0.9-0.8,1.2c-0.3,0.3-0.7,0.5-1.2,0.8v0.2c0.2,0.1,0.3,0.3,0.5,0.5
		c0.2,0.2,0.3,0.4,0.5,0.8c0.2,0.5,0.4,1.2,0.7,2.3c0.2,1,0.5,2.4,0.7,4.2c0.2,1.3,0.3,2.3,0.4,3.1c0.1,0.8,0.2,1.4,0.2,1.9
		c0.1,0.5,0.1,0.8,0.2,1.1c0,0.2,0.1,0.5,0.2,0.7v0.2H146.9z M145,49.8c0.6,0,1-0.3,1.3-0.8c0.2-0.5,0.4-1.5,0.4-3
		c0-1.2-0.1-2.1-0.4-2.5c-0.3-0.4-0.8-0.6-1.4-0.6h-1.7v6.8H145z"/>
	<path class="st0" d="M155.8,67.8V36.5h13.8v6.6h-7.4v5.5h7.2V55h-7.2v5.9h7.3v6.9H155.8z"/>
	<path class="st0" d="M196.5,55.8c0.1,1,0.1,1.9,0.1,2.8c0,1.7-0.1,3.1-0.3,4.3c-0.2,1.2-0.6,2.2-1.1,3c-0.6,0.8-1.4,1.4-2.5,1.8
		c-1.1,0.4-2.5,0.6-4.2,0.6c-2.1,0-3.6-0.2-4.7-0.6c-1.1-0.4-1.9-1-2.4-2c-0.3-0.4-0.5-1-0.7-1.6c-0.2-0.6-0.4-1.4-0.5-2.4
		c-0.1-1-0.2-2.3-0.3-3.9s-0.1-3.6-0.1-6c0-2.4,0-4.4,0.1-5.9c0.1-1.5,0.1-2.8,0.3-3.7c0.1-1,0.3-1.7,0.5-2.3
		c0.2-0.6,0.4-1.1,0.7-1.5c0.6-0.9,1.3-1.6,2.4-1.9c1-0.4,2.6-0.5,4.5-0.5c1.8,0,3.2,0.2,4.3,0.5c1.1,0.3,1.9,0.9,2.5,1.6
		s1,1.7,1.2,2.9c0.2,1.2,0.3,2.6,0.3,4.2c0,0.4,0,0.8,0,1.3c0,0.5,0,1-0.1,1.5h-6.1c0-0.8,0-1.5,0-2.1c0-0.6,0-1-0.1-1.4
		c0-0.4-0.1-0.6-0.1-0.8c0-0.2-0.1-0.4-0.1-0.5c-0.1-0.5-0.7-0.8-1.7-0.8c-0.5,0-0.9,0.1-1.1,0.2c-0.2,0.1-0.4,0.3-0.5,0.6
		c-0.1,0.2-0.1,0.5-0.2,0.8c0,0.3-0.1,0.7-0.1,1.3c0,0.6-0.1,1.4-0.1,2.5c0,1,0,2.4,0,4.1c0,1.7,0,3.1,0,4.2c0,1,0,1.9,0.1,2.5
		c0,0.6,0.1,1.1,0.1,1.4c0,0.3,0.1,0.6,0.2,0.8c0.1,0.3,0.2,0.5,0.5,0.6c0.2,0.1,0.7,0.2,1.3,0.2c0.8,0,1.3-0.2,1.5-0.7
		c0.1-0.3,0.2-0.6,0.2-0.9c0.1-0.3,0.1-0.6,0.1-1c0-0.4,0-0.8,0.1-1.3c0-0.5,0-1,0-1.7H196.5z"/>
	<path class="st0" d="M208.3,67.8l-0.5-7.2h-3.1l-0.5,7.2h-6.5l3.3-31.3h10.9l3.1,31.3H208.3z M206.4,43.1H206l-1,11.2h2.6
		L206.4,43.1z"/>
	<path class="st0" d="M227.1,67.8c-0.1-0.2-0.2-0.5-0.2-0.8c-0.1-0.3-0.1-0.7-0.2-1.3c-0.1-0.6-0.2-1.4-0.3-2.5
		c-0.1-1-0.3-2.5-0.5-4.3c-0.1-0.7-0.2-1.3-0.2-1.7c-0.1-0.4-0.2-0.8-0.3-1c-0.1-0.2-0.2-0.4-0.4-0.5s-0.3-0.1-0.5-0.1h-1v12.2h-6.5
		V36.5h9.5c1.4,0,2.6,0.2,3.5,0.5c0.9,0.3,1.6,0.8,2.2,1.5c0.5,0.7,0.9,1.5,1.1,2.6c0.2,1.1,0.3,2.3,0.3,3.9c0,1.6-0.1,2.9-0.2,3.8
		c-0.1,0.9-0.3,1.6-0.5,2.2c-0.2,0.5-0.5,0.9-0.8,1.2c-0.3,0.3-0.7,0.5-1.2,0.8v0.2c0.2,0.1,0.3,0.3,0.5,0.5
		c0.2,0.2,0.3,0.4,0.5,0.8c0.2,0.5,0.4,1.2,0.7,2.3c0.2,1,0.5,2.4,0.7,4.2c0.2,1.3,0.3,2.3,0.4,3.1c0.1,0.8,0.2,1.4,0.2,1.9
		c0.1,0.5,0.1,0.8,0.2,1.1c0,0.2,0.1,0.5,0.2,0.7v0.2H227.1z M225.2,49.8c0.6,0,1-0.3,1.3-0.8c0.2-0.5,0.4-1.5,0.4-3
		c0-1.2-0.1-2.1-0.4-2.5c-0.3-0.4-0.8-0.6-1.4-0.6h-1.7v6.8H225.2z"/>
	<path class="st0" d="M236,67.8V36.5h8.7c2,0,3.5,0.2,4.5,0.6c1,0.4,1.8,1,2.4,1.9c0.3,0.5,0.5,1,0.7,1.5c0.2,0.5,0.3,1.3,0.5,2.2
		c0.1,0.9,0.2,2.1,0.3,3.6c0.1,1.5,0.1,3.4,0.1,5.8c0,2.4,0,4.3-0.1,5.8c-0.1,1.5-0.1,2.7-0.3,3.7c-0.1,0.9-0.3,1.7-0.5,2.2
		c-0.2,0.6-0.4,1-0.7,1.5c-0.3,0.5-0.6,0.9-1,1.2c-0.4,0.3-0.9,0.6-1.4,0.8c-0.6,0.2-1.2,0.3-1.9,0.4s-1.6,0.1-2.6,0.1H236z
		 M244.5,60.9c0.5,0,0.9-0.1,1.1-0.2c0.2-0.1,0.4-0.3,0.5-0.6c0.1-0.2,0.1-0.4,0.2-0.7c0.1-0.3,0.1-0.7,0.1-1.3c0-0.6,0-1.4,0.1-2.3
		c0-1,0-2.3,0-3.9c0-1.6,0-2.9,0-3.9c0-1,0-1.8-0.1-2.4c0-0.6-0.1-1-0.1-1.3c-0.1-0.3-0.1-0.5-0.2-0.7c-0.1-0.2-0.3-0.4-0.5-0.5
		c-0.2-0.1-0.6-0.2-1.1-0.2h-2.1v17.8H244.5z"/>
	<path class="st0" d="M264.4,46.2c0-0.2,0-0.4,0-0.6c0-0.2,0-0.4,0-0.8c0-1-0.1-1.6-0.4-2c-0.2-0.4-0.8-0.6-1.5-0.6
		c-0.8,0-1.3,0.2-1.5,0.6s-0.3,1-0.3,2c0,0.9,0.1,1.5,0.4,1.9c0.2,0.4,0.6,0.7,1.1,1c0.6,0.4,1.2,0.7,1.7,0.9c0.5,0.2,1,0.5,1.5,0.7
		c0.5,0.2,0.9,0.4,1.3,0.6c0.4,0.2,0.8,0.4,1.2,0.7c0.4,0.3,0.8,0.7,1.2,1.1c0.3,0.4,0.6,0.9,0.8,1.4c0.2,0.6,0.4,1.3,0.5,2.2
		c0.1,0.9,0.2,1.9,0.2,3.2c0,1.9-0.1,3.4-0.4,4.7c-0.3,1.2-0.7,2.2-1.3,3c-0.6,0.7-1.5,1.3-2.5,1.6c-1.1,0.3-2.4,0.5-3.9,0.5
		c-2.6,0-4.5-0.5-5.7-1.5c-1.2-1-1.8-2.7-1.8-5.1c0-0.8,0-1.6,0.1-2.4c0-0.8,0.1-1.5,0.3-2h5.4c-0.1,0.2-0.1,0.3-0.1,0.5
		c0,0.2,0,0.4,0,0.6c0,1.2,0.1,2,0.4,2.5c0.2,0.5,0.8,0.7,1.6,0.7c0.8,0,1.4-0.2,1.6-0.6s0.4-1.3,0.4-2.6c0-0.8-0.1-1.4-0.4-1.8
		c-0.2-0.4-0.6-0.8-1.2-1.2c-0.5-0.3-1-0.6-1.6-0.9c-0.6-0.3-1.1-0.5-1.7-0.8c-0.6-0.2-1.1-0.5-1.6-0.8c-0.5-0.3-1-0.6-1.4-1
		c-0.9-0.7-1.4-1.8-1.5-3.1c-0.2-1.3-0.3-3-0.3-5c0-1.5,0.1-2.7,0.4-3.7c0.2-1,0.6-1.8,1.2-2.4c0.6-0.6,1.4-1.1,2.4-1.3
		c1-0.3,2.3-0.4,3.8-0.4c1.4,0,2.6,0.1,3.5,0.3c0.9,0.2,1.7,0.6,2.3,1.1c0.6,0.5,1,1.2,1.3,2.1c0.3,0.9,0.4,2,0.4,3.3
		c0,0.9,0,1.5-0.1,2c0,0.5-0.1,0.9-0.3,1.3H264.4z"/>
	<path class="st0" d="M11.5,104.2V73h13.6v6.6H18v6.2h7v6.4h-7v12.1H11.5z"/>
	<path class="st0" d="M37.5,104.2c-0.1-0.2-0.2-0.5-0.2-0.8c-0.1-0.3-0.1-0.7-0.2-1.3c-0.1-0.6-0.2-1.4-0.3-2.5
		c-0.1-1-0.3-2.5-0.5-4.3c-0.1-0.7-0.2-1.3-0.2-1.7s-0.2-0.8-0.3-1c-0.1-0.2-0.2-0.4-0.4-0.5S34.9,92,34.7,92h-1v12.2h-6.5V73h9.5
		c1.4,0,2.6,0.2,3.5,0.5c0.9,0.3,1.6,0.8,2.2,1.5c0.5,0.7,0.9,1.5,1.1,2.6c0.2,1.1,0.3,2.3,0.3,3.9c0,1.6-0.1,2.9-0.2,3.8
		c-0.1,0.9-0.3,1.6-0.5,2.2c-0.2,0.5-0.5,0.9-0.8,1.2c-0.3,0.3-0.7,0.5-1.2,0.8v0.2c0.2,0.1,0.3,0.3,0.5,0.5
		c0.2,0.2,0.3,0.4,0.5,0.8c0.2,0.5,0.4,1.2,0.7,2.3c0.2,1,0.5,2.4,0.7,4.2c0.2,1.3,0.3,2.3,0.4,3.1s0.2,1.4,0.2,1.9
		c0.1,0.5,0.1,0.8,0.2,1.1s0.1,0.5,0.2,0.7v0.2H37.5z M35.6,86.2c0.6,0,1-0.3,1.3-0.8c0.2-0.5,0.4-1.5,0.4-3c0-1.2-0.1-2.1-0.4-2.5
		s-0.8-0.6-1.4-0.6h-1.7v6.8H35.6z"/>
	<path class="st0" d="M60.8,102.2c-0.3,0.5-0.6,0.9-1,1.2s-0.8,0.6-1.4,0.8c-0.6,0.2-1.2,0.4-1.9,0.4c-0.7,0.1-1.6,0.1-2.6,0.1
		c-2,0-3.5-0.2-4.6-0.6c-1-0.4-1.8-1-2.4-2c-0.3-0.5-0.5-1-0.7-1.5c-0.2-0.6-0.4-1.3-0.5-2.3c-0.1-1-0.2-2.2-0.3-3.8
		c-0.1-1.6-0.1-3.6-0.1-6c0-2.4,0-4.4,0.1-6s0.1-2.8,0.3-3.8c0.1-1,0.3-1.7,0.5-2.3c0.2-0.6,0.4-1.1,0.7-1.6c0.3-0.5,0.6-0.9,1-1.2
		s0.8-0.6,1.4-0.8c0.6-0.2,1.2-0.4,2-0.4c0.8-0.1,1.6-0.1,2.6-0.1c2,0,3.5,0.2,4.5,0.6c1,0.4,1.8,1,2.4,2c0.3,0.5,0.5,1,0.7,1.6
		c0.2,0.6,0.4,1.3,0.5,2.3c0.1,1,0.2,2.2,0.3,3.8s0.1,3.5,0.1,6c0,2.5,0,4.5-0.1,6c-0.1,1.6-0.1,2.8-0.3,3.8c-0.1,1-0.3,1.7-0.5,2.3
		C61.3,101.2,61.1,101.7,60.8,102.2z M55.5,97c0.1-0.2,0.1-0.4,0.2-0.7c0.1-0.3,0.1-0.8,0.1-1.4c0-0.6,0-1.4,0.1-2.5
		c0-1,0-2.4,0-4.1c0-1.7,0-3.1,0-4.2c0-1,0-1.9-0.1-2.5c0-0.6-0.1-1.1-0.1-1.4c-0.1-0.3-0.1-0.5-0.2-0.7c-0.1-0.3-0.3-0.5-0.5-0.6
		c-0.2-0.1-0.6-0.2-1.1-0.2c-0.5,0-0.9,0.1-1.1,0.2c-0.2,0.1-0.4,0.3-0.5,0.6c-0.1,0.2-0.1,0.4-0.2,0.7c0,0.3-0.1,0.8-0.1,1.4
		c0,0.6-0.1,1.5-0.1,2.5c0,1,0,2.4,0,4.2c0,1.7,0,3,0,4.1c0,1,0,1.9,0.1,2.5c0,0.6,0.1,1.1,0.1,1.4c0,0.3,0.1,0.6,0.2,0.7
		c0.1,0.3,0.2,0.5,0.5,0.6c0.2,0.1,0.6,0.2,1.1,0.2c0.5,0,0.9-0.1,1.1-0.2C55.3,97.5,55.4,97.3,55.5,97z"/>
	<path class="st0" d="M83.4,104.2V85.5h-0.2l-4.7,18.7h-2.8l-4.8-18.7h-0.2v18.7h-5.9V73h9.2l2.9,13.6h0.3L80.2,73h9.1l0,31.3H83.4z
		"/>
	<path class="st0" d="M104.3,104.2V79.6h-4.9V73h16.3v6.6h-4.9v24.7H104.3z"/>
	<path class="st0" d="M128.2,104.2V91.4h-4v12.8h-6.6V73h6.6v12.1h4V73h6.6v31.3H128.2z"/>
	<path class="st0" d="M137.6,104.2V73h13.8v6.6h-7.4v5.5h7.2v6.3h-7.2v5.9h7.3v6.9H137.6z"/>
	<path class="st0" d="M162.2,104.2V73h6.5v24.3h6.7v6.9H162.2z"/>
	<path class="st0" d="M177.3,104.2V73h13.8v6.6h-7.4v5.5h7.2v6.3h-7.2v5.9h7.3v6.9H177.3z"/>
	<path class="st0" d="M202.7,82.7c0-0.2,0-0.4,0-0.6c0-0.2,0-0.4,0-0.8c0-1-0.1-1.6-0.4-2c-0.2-0.4-0.8-0.6-1.5-0.6
		c-0.8,0-1.3,0.2-1.5,0.6c-0.2,0.4-0.3,1-0.3,2c0,0.9,0.1,1.5,0.4,1.9c0.2,0.4,0.6,0.7,1.1,1c0.6,0.4,1.2,0.7,1.7,0.9
		c0.5,0.2,1,0.5,1.5,0.7c0.5,0.2,0.9,0.4,1.3,0.6c0.4,0.2,0.8,0.4,1.2,0.7c0.4,0.3,0.8,0.7,1.2,1.1c0.3,0.4,0.6,0.9,0.8,1.4
		s0.4,1.3,0.5,2.2c0.1,0.9,0.2,1.9,0.2,3.2c0,1.9-0.1,3.4-0.4,4.7c-0.3,1.2-0.7,2.2-1.3,3c-0.6,0.7-1.5,1.3-2.5,1.6
		c-1.1,0.3-2.4,0.5-3.9,0.5c-2.6,0-4.5-0.5-5.7-1.5c-1.2-1-1.8-2.7-1.8-5.1c0-0.8,0-1.6,0.1-2.4c0-0.8,0.1-1.5,0.3-2h5.4
		c-0.1,0.2-0.1,0.3-0.1,0.5s0,0.4,0,0.6c0,1.2,0.1,2,0.4,2.5c0.2,0.5,0.8,0.7,1.6,0.7c0.8,0,1.4-0.2,1.6-0.6
		c0.3-0.4,0.4-1.3,0.4-2.6c0-0.8-0.1-1.4-0.4-1.8c-0.2-0.4-0.6-0.8-1.2-1.2c-0.5-0.3-1-0.6-1.6-0.9c-0.6-0.3-1.1-0.5-1.7-0.8
		c-0.6-0.2-1.1-0.5-1.6-0.8c-0.5-0.3-1-0.6-1.4-1c-0.9-0.7-1.4-1.8-1.5-3.1c-0.2-1.3-0.3-3-0.3-5c0-1.5,0.1-2.7,0.4-3.7
		c0.2-1,0.6-1.8,1.2-2.4c0.6-0.6,1.4-1.1,2.4-1.3c1-0.3,2.3-0.4,3.8-0.4c1.4,0,2.6,0.1,3.5,0.3s1.7,0.6,2.3,1.1
		c0.6,0.5,1,1.2,1.3,2.1s0.4,2,0.4,3.3c0,0.9,0,1.5-0.1,2c0,0.5-0.1,0.9-0.3,1.3H202.7z"/>
	<path class="st0" d="M220,82.7c0-0.2,0-0.4,0-0.6c0-0.2,0-0.4,0-0.8c0-1-0.1-1.6-0.4-2c-0.2-0.4-0.8-0.6-1.5-0.6
		c-0.8,0-1.3,0.2-1.5,0.6c-0.2,0.4-0.3,1-0.3,2c0,0.9,0.1,1.5,0.4,1.9c0.2,0.4,0.6,0.7,1.1,1c0.6,0.4,1.2,0.7,1.7,0.9
		c0.5,0.2,1,0.5,1.5,0.7c0.5,0.2,0.9,0.4,1.3,0.6s0.8,0.4,1.2,0.7c0.4,0.3,0.8,0.7,1.2,1.1c0.3,0.4,0.6,0.9,0.8,1.4
		c0.2,0.6,0.4,1.3,0.5,2.2c0.1,0.9,0.2,1.9,0.2,3.2c0,1.9-0.1,3.4-0.4,4.7c-0.3,1.2-0.7,2.2-1.3,3c-0.6,0.7-1.5,1.3-2.5,1.6
		c-1.1,0.3-2.4,0.5-3.9,0.5c-2.6,0-4.5-0.5-5.7-1.5c-1.2-1-1.8-2.7-1.8-5.1c0-0.8,0-1.6,0.1-2.4c0-0.8,0.1-1.5,0.3-2h5.4
		c-0.1,0.2-0.1,0.3-0.1,0.5s0,0.4,0,0.6c0,1.2,0.1,2,0.4,2.5c0.2,0.5,0.8,0.7,1.6,0.7c0.8,0,1.4-0.2,1.6-0.6
		c0.3-0.4,0.4-1.3,0.4-2.6c0-0.8-0.1-1.4-0.4-1.8c-0.2-0.4-0.6-0.8-1.2-1.2c-0.5-0.3-1-0.6-1.6-0.9c-0.6-0.3-1.1-0.5-1.7-0.8
		c-0.6-0.2-1.1-0.5-1.6-0.8c-0.5-0.3-1-0.6-1.4-1c-0.9-0.7-1.4-1.8-1.5-3.1c-0.2-1.3-0.3-3-0.3-5c0-1.5,0.1-2.7,0.4-3.7
		c0.2-1,0.6-1.8,1.2-2.4c0.6-0.6,1.4-1.1,2.4-1.3c1-0.3,2.3-0.4,3.8-0.4c1.4,0,2.6,0.1,3.5,0.3c0.9,0.2,1.7,0.6,2.3,1.1
		c0.6,0.5,1,1.2,1.3,2.1s0.4,2,0.4,3.3c0,0.9,0,1.5-0.1,2c0,0.5-0.1,0.9-0.3,1.3H220z"/>
	<path class="st0" d="M243.3,102.2c-0.3,0.5-0.6,0.9-1,1.2c-0.4,0.3-0.8,0.6-1.4,0.8c-0.6,0.2-1.2,0.4-1.9,0.4
		c-0.7,0.1-1.6,0.1-2.6,0.1c-2,0-3.5-0.2-4.6-0.6c-1-0.4-1.8-1-2.4-2c-0.3-0.5-0.5-1-0.7-1.5c-0.2-0.6-0.4-1.3-0.5-2.3
		c-0.1-1-0.2-2.2-0.3-3.8c-0.1-1.6-0.1-3.6-0.1-6c0-2.4,0-4.4,0.1-6c0.1-1.5,0.1-2.8,0.3-3.8c0.1-1,0.3-1.7,0.5-2.3
		c0.2-0.6,0.4-1.1,0.7-1.6c0.3-0.5,0.6-0.9,1-1.2c0.4-0.3,0.8-0.6,1.4-0.8c0.5-0.2,1.2-0.4,2-0.4c0.8-0.1,1.6-0.1,2.6-0.1
		c2,0,3.5,0.2,4.5,0.6c1,0.4,1.8,1,2.4,2c0.3,0.5,0.5,1,0.7,1.6c0.2,0.6,0.4,1.3,0.5,2.3c0.1,1,0.2,2.2,0.3,3.8
		c0.1,1.5,0.1,3.5,0.1,6c0,2.5,0,4.5-0.1,6c-0.1,1.6-0.1,2.8-0.3,3.8c-0.1,1-0.3,1.7-0.5,2.3C243.8,101.2,243.6,101.7,243.3,102.2z
		 M238,97c0.1-0.2,0.1-0.4,0.2-0.7c0.1-0.3,0.1-0.8,0.1-1.4c0-0.6,0-1.4,0.1-2.5s0-2.4,0-4.1c0-1.7,0-3.1,0-4.2s0-1.9-0.1-2.5
		c0-0.6-0.1-1.1-0.1-1.4c-0.1-0.3-0.1-0.5-0.2-0.7c-0.1-0.3-0.3-0.5-0.5-0.6s-0.6-0.2-1.1-0.2c-0.5,0-0.9,0.1-1.1,0.2
		c-0.2,0.1-0.4,0.3-0.5,0.6c-0.1,0.2-0.1,0.4-0.2,0.7c0,0.3-0.1,0.8-0.1,1.4c0,0.6-0.1,1.5-0.1,2.5s0,2.4,0,4.2c0,1.7,0,3,0,4.1
		s0,1.9,0.1,2.5c0,0.6,0.1,1.1,0.1,1.4c0,0.3,0.1,0.6,0.2,0.7c0.1,0.3,0.2,0.5,0.5,0.6c0.2,0.1,0.6,0.2,1.1,0.2
		c0.5,0,0.9-0.1,1.1-0.2C237.7,97.5,237.9,97.3,238,97z"/>
	<path class="st0" d="M260.6,104.2l-7.4-16.8H253v16.8h-5.9V73h6.4l4.4,10.9h0.2V73h5.9v31.3H260.6z"/>
	<path class="st0" d="M275.7,82.7c0-0.2,0-0.4,0-0.6c0-0.2,0-0.4,0-0.8c0-1-0.1-1.6-0.4-2c-0.2-0.4-0.8-0.6-1.5-0.6
		c-0.8,0-1.3,0.2-1.5,0.6c-0.2,0.4-0.3,1-0.3,2c0,0.9,0.1,1.5,0.4,1.9c0.2,0.4,0.6,0.7,1.1,1c0.6,0.4,1.2,0.7,1.7,0.9
		c0.5,0.2,1,0.5,1.5,0.7c0.5,0.2,0.9,0.4,1.3,0.6s0.8,0.4,1.2,0.7c0.4,0.3,0.8,0.7,1.2,1.1c0.3,0.4,0.6,0.9,0.8,1.4
		c0.2,0.6,0.4,1.3,0.5,2.2c0.1,0.9,0.2,1.9,0.2,3.2c0,1.9-0.1,3.4-0.4,4.7c-0.3,1.2-0.7,2.2-1.3,3c-0.6,0.7-1.5,1.3-2.5,1.6
		c-1.1,0.3-2.4,0.5-3.9,0.5c-2.6,0-4.5-0.5-5.7-1.5c-1.2-1-1.8-2.7-1.8-5.1c0-0.8,0-1.6,0.1-2.4c0-0.8,0.1-1.5,0.3-2h5.4
		c-0.1,0.2-0.1,0.3-0.1,0.5s0,0.4,0,0.6c0,1.2,0.1,2,0.4,2.5c0.2,0.5,0.8,0.7,1.6,0.7c0.8,0,1.4-0.2,1.6-0.6
		c0.3-0.4,0.4-1.3,0.4-2.6c0-0.8-0.1-1.4-0.4-1.8c-0.2-0.4-0.6-0.8-1.2-1.2c-0.5-0.3-1-0.6-1.6-0.9c-0.6-0.3-1.1-0.5-1.7-0.8
		c-0.6-0.2-1.1-0.5-1.6-0.8c-0.5-0.3-1-0.6-1.4-1c-0.9-0.7-1.4-1.8-1.5-3.1c-0.2-1.3-0.3-3-0.3-5c0-1.5,0.1-2.7,0.4-3.7
		c0.2-1,0.6-1.8,1.2-2.4c0.6-0.6,1.4-1.1,2.4-1.3c1-0.3,2.3-0.4,3.8-0.4c1.4,0,2.6,0.1,3.5,0.3c0.9,0.2,1.7,0.6,2.3,1.1
		c0.6,0.5,1,1.2,1.3,2.1s0.4,2,0.4,3.3c0,0.9,0,1.5-0.1,2c0,0.5-0.1,0.9-0.3,1.3H275.7z"/>
</g>
<path class="st1" d="M325.8,43.4l41.8-7.8c1.5-0.3,2.9,0.7,3.2,2.2L382,98.2c0.3,1.5-0.7,2.9-2.2,3.2l-41.8,7.8
	c-1.5,0.3-2.9-0.7-3.2-2.2l-11.2-60.4C323.3,45.2,324.3,43.7,325.8,43.4z"/>
<path class="st1" d="M294.4,48.9l38.7-17.7c1.4-0.6,3,0,3.6,1.3l25.5,55.9c0.6,1.4,0,3-1.3,3.6l-38.7,17.7c-1.4,0.6-3,0-3.6-1.3
	L293,52.5C292.4,51.2,293,49.5,294.4,48.9z"/>
<path class="st1" d="M357.5,114l-42.4-3.7c-1.5-0.1-2.6-1.5-2.5-3l5.4-61.2c0.1-1.5,1.5-2.6,3-2.5l42.4,3.7c1.5,0.1,2.6,1.5,2.5,3
	l-5.4,61.2C360.3,113.1,359,114.2,357.5,114z"/>
<g>
	<g>
		
			<linearGradient id="SVGID_1_" gradientUnits="userSpaceOnUse" x1="330.6508" y1="712.5339" x2="370.6702" y2="747.3222" gradientTransform="matrix(1 0 0 1 0 -690)">
			<stop  offset="0.1455" style="stop-color:#74C47C"/>
			<stop  offset="0.2096" style="stop-color:#72C079"/>
			<stop  offset="0.4061" style="stop-color:#6DB774"/>
			<stop  offset="0.5515" style="stop-color:#67AD6D"/>
			<stop  offset="0.9455" style="stop-color:#63A869"/>
		</linearGradient>
		<path class="st2" d="M360.5,26.8c-0.1,0-0.2,0-0.3,0c-5.9,0-11.3,2.3-15.2,6.2c-3.8,3.9-6.2,9.3-6.2,15.2c0,10.1,6.8,18.5,16,21.1
			c1.8,0.5,3.7,0.8,5.6,0.8c0.1,0,0.2,0,0.3,0c5.9,0,11.3-2.3,15.2-6.2c3.4-3.4,5.5-8,6-13.1c0.1-0.7,0.1-1.4,0.1-2.1
			C382,36.7,372.4,26.9,360.5,26.8z"/>
	</g>
	<g>
		<g class="st3">
			<path d="M357.5,39.5c0-0.4,0.1-0.7,0.4-1c0.3-0.3,0.6-0.4,1-0.4h4.2c0.4,0,0.7,0.1,1,0.4c0.3,0.3,0.4,0.6,0.4,1v5.6
				c0,0.2,0.1,0.4,0.4,0.4h5.6c0.4,0,0.7,0.1,1,0.4c0.3,0.3,0.4,0.6,0.4,1v4.2c0,0.4-0.1,0.7-0.4,1c-0.3,0.3-0.6,0.4-1,0.4h-5.6
				c-0.2,0-0.4,0.1-0.4,0.4v5.6c0,0.4-0.1,0.7-0.4,1c-0.3,0.3-0.6,0.4-1,0.4h-4.2c-0.4,0-0.7-0.1-1-0.4c-0.3-0.3-0.4-0.6-0.4-1v-5.6
				c0-0.2-0.1-0.4-0.4-0.4h-5.6c-0.4,0-0.7-0.1-1-0.4c-0.3-0.3-0.4-0.6-0.4-1v-4.2c0-0.4,0.1-0.7,0.4-1c0.3-0.3,0.6-0.4,1-0.4h5.6
				c0.2,0,0.4-0.1,0.4-0.4V39.5z"/>
		</g>
		<g>
			<path class="st4" d="M356.4,38.3c0-0.4,0.1-0.7,0.4-1c0.3-0.3,0.6-0.4,1-0.4h4.2c0.4,0,0.7,0.1,1,0.4c0.3,0.3,0.4,0.6,0.4,1V44
				c0,0.2,0.1,0.4,0.4,0.4h5.6c0.4,0,0.7,0.1,1,0.4c0.3,0.3,0.4,0.6,0.4,1V50c0,0.4-0.1,0.7-0.4,1c-0.3,0.3-0.6,0.4-1,0.4h-5.6
				c-0.2,0-0.4,0.1-0.4,0.4v5.6c0,0.4-0.1,0.7-0.4,1c-0.3,0.3-0.6,0.4-1,0.4h-4.2c-0.4,0-0.7-0.1-1-0.4c-0.3-0.3-0.4-0.6-0.4-1v-5.6
				c0-0.2-0.1-0.4-0.4-0.4h-5.6c-0.4,0-0.7-0.1-1-0.4c-0.3-0.3-0.4-0.6-0.4-1v-4.2c0-0.4,0.1-0.7,0.4-1c0.3-0.3,0.6-0.4,1-0.4h5.6
				c0.2,0,0.4-0.1,0.4-0.4V38.3z"/>
		</g>
	</g>
</g>
</svg>
