<?xml version="1.0" encoding="utf-8"?>
<!-- Generator: Adobe Illustrator 20.0.0, SVG Export Plug-In . SVG Version: 6.00 Build 0)  -->
<svg version="1.1" id="Layer_1" xmlns="http://www.w3.org/2000/svg" xmlns:xlink="http://www.w3.org/1999/xlink" x="0px" y="0px"
	 viewBox="0 0 353 115" style="enable-background:new 0 0 353 115;" xml:space="preserve">
<style type="text/css">
	.st0{fill:#2D2D2D;}
	.st1{fill:#E5E5E5;stroke:#494949;stroke-width:3;stroke-miterlimit:10;}
	.st2{fill:url(#SVGID_1_);}
	.st3{fill:#FFFFFF;}
</style>
<path class="st0" d="M45.1,103.8l283.9,1.7c7.7,0,13.9-7.2,13.9-16.2V29.8c0-9-6.2-16.2-13.9-16.2L50,14.3
	C42.3,14.3,37.4,103.8,45.1,103.8z"/>
<g>
	<path class="st1" d="M43.4,23.9l50.8-9.5c1.7-0.5,3.5,0.9,3.8,2.7l13.6,73.3c0.5,1.7-0.9,3.5-2.7,3.8L58,103.7
		c-1.7,0.5-3.5-0.9-3.8-2.7L40.7,27.9C40.4,26.2,41.7,24.3,43.4,23.9z"/>
	<path class="st1" d="M5.3,30.6L52.3,9c1.6-0.7,3.7,0,4.3,1.6l30.9,67.8c0.7,1.6,0,3.7-1.6,4.3l-47,21.6c-1.6,0.7-3.7,0-4.3-1.6
		L3.6,35C2.9,33.4,3.6,31.3,5.3,30.6z"/>
	<path class="st1" d="M81.9,109.6l-51.5-4.5c-1.7-0.1-3.2-1.7-3.1-3.7l6.6-74.3c0.1-1.7,1.7-3.2,3.7-3.1l51.5,4.5
		c1.7,0.1,3.2,1.7,3.1,3.7l-6.5,74.3C85.3,108.6,83.8,110,81.9,109.6z"/>
	<g>
		
			<linearGradient id="SVGID_1_" gradientUnits="userSpaceOnUse" x1="49.2393" y1="-2547.7156" x2="97.841" y2="-2589.9641" gradientTransform="matrix(1 0 0 -1 0 -2549)">
			<stop  offset="0" style="stop-color:#F94E55"/>
			<stop  offset="4.372164e-02" style="stop-color:#F64D52"/>
			<stop  offset="0.2182" style="stop-color:#ED4A4A"/>
			<stop  offset="0.6899" style="stop-color:#DB444B"/>
		</linearGradient>
		<path class="st2" d="M85.5,3.8c-0.1,0-0.2,0-0.5,0c-7.2,0-13.7,2.7-18.5,7.5C61.8,16.1,59,22.6,59,29.8c0,12.3,8.2,22.4,19.4,25.6
			c2.2,0.6,4.5,1,6.8,1c0.1,0,0.2,0,0.5,0c7.2,0,13.7-2.7,18.5-7.5c4.1-4.1,6.7-9.7,7.3-15.9c0.1-0.9,0.1-1.6,0.1-2.6
			C111.7,15.9,100,4,85.5,3.8z"/>
	</g>
	<g>
		<g>
			<g>
				<path class="st3" d="M97.2,24.6c0.6,0,0.9,0.2,1.3,0.6s0.6,0.8,0.6,1.3v5.3c0,0.6-0.2,0.9-0.6,1.3c-0.3,0.3-0.8,0.6-1.3,0.6h-24
					c-0.6,0-0.9-0.2-1.3-0.6c-0.3-0.5-0.6-0.8-0.6-1.3v-5.3c0-0.6,0.2-0.9,0.6-1.3c0.5-0.3,0.8-0.6,1.3-0.6H97.2z"/>
			</g>
		</g>
	</g>
</g>
<g>
	<path class="st3" d="M133.8,75.8V38.4h10.4c2.4,0,4.2,0.2,5.4,0.7c1.3,0.4,2.2,1.2,2.9,2.3c0.3,0.6,0.6,1.2,0.8,1.8
		s0.4,1.5,0.5,2.6s0.3,2.6,0.3,4.3s0.1,4.1,0.1,6.9c0,2.8,0,5.1-0.1,6.9s-0.2,3.3-0.3,4.4s-0.3,2-0.5,2.7s-0.5,1.3-0.8,1.8
		c-0.3,0.6-0.7,1-1.2,1.4s-1,0.7-1.7,0.9c-0.7,0.2-1.4,0.4-2.3,0.5c-0.9,0.1-1.9,0.1-3.1,0.1L133.8,75.8L133.8,75.8z M144.1,67.6
		c0.6,0,1.1-0.1,1.3-0.2c0.3-0.1,0.5-0.4,0.6-0.7c0.1-0.2,0.1-0.5,0.2-0.8c0.1-0.3,0.1-0.8,0.1-1.5c0-0.7,0.1-1.6,0.1-2.8
		s0-2.7,0-4.6c0-1.9,0-3.5,0-4.7s0-2.1-0.1-2.8c0-0.7-0.1-1.2-0.1-1.5c-0.1-0.3-0.1-0.6-0.2-0.8c-0.1-0.3-0.3-0.5-0.6-0.6
		s-0.7-0.2-1.3-0.2h-2.5v21.3h2.5V67.6z"/>
	<path class="st3" d="M157.1,75.8V38.4h16.5v7.9h-8.8v6.6h8.6v7.6h-8.6v7.1h8.7v8.3L157.1,75.8L157.1,75.8z"/>
	<path class="st3" d="M176.7,75.8V38.4h7.7v29.1h8v8.3H176.7z"/>
	<path class="st3" d="M194.8,75.8V38.4h16.5v7.9h-8.8v6.6h8.6v7.6h-8.6v7.1h8.7v8.3L194.8,75.8L194.8,75.8z"/>
	<path class="st3" d="M219.3,75.8V46.3h-5.9v-7.9h19.5v7.9H227v29.5H219.3z"/>
	<path class="st3" d="M235.2,75.8V38.4h16.5v7.9H243v6.6h8.6v7.6H243v7.1h8.7v8.3L235.2,75.8L235.2,75.8z"/>
	<path class="st3" d="M276.4,75.8l-0.6-8.6H272l-0.6,8.6h-7.8l4-37.4h13l3.8,37.4H276.4z M274.1,46.2h-0.5l-1.2,13.4h3.1L274.1,46.2
		z"/>
	<path class="st3" d="M286.6,75.8V38.4h7.8v29.1h8v8.3H286.6z"/>
	<path class="st3" d="M304.7,75.8V38.4h7.8v29.1h8v8.3H304.7z"/>
</g>
</svg>
