<?xml version="1.0" encoding="utf-8"?>
<!-- Generator: Adobe Illustrator 20.0.0, SVG Export Plug-In . SVG Version: 6.00 Build 0)  -->
<svg version="1.1" id="Layer_1" xmlns="http://www.w3.org/2000/svg" xmlns:xlink="http://www.w3.org/1999/xlink" x="0px" y="0px"
	 viewBox="0 0 400 220" style="enable-background:new 0 0 400 220;" xml:space="preserve">
<style type="text/css">
	.st0{fill:#D64747;}
	.st1{opacity:0.17;fill:#161616;enable-background:new    ;}
	.st2{fill:#FFFFFF;}
</style>
<path class="st0" d="M377.5,211.9h-353c-6.6,0-12-5.4-12-12v-177c0-6.6,5.4-12,12-12h353c6.6,0,12,5.4,12,12v177
	C389.5,206.4,384.1,211.9,377.5,211.9z"/>
<g>
	<path class="st1" d="M322,63c-0.2,0-0.4,0-0.6,0c-13.2,0-25.2,5.2-34,13.8c-8.5,8.8-13.8,20.8-13.8,34c0,22.5,15.1,41.4,35.8,47.1
		c4,1.1,8.2,1.8,12.6,1.8c0.2,0,0.4,0,0.6,0c13.2,0,25.2-5.2,34-13.8c7.5-7.7,12.4-17.9,13.5-29.2c0.2-1.6,0.2-3.2,0.2-4.8
		C370.2,85.3,348.7,63.4,322,63z"/>
	<g>
		<g>
			<g>
				<path class="st2" d="M348.2,100.9c1.1,0,2,0.4,2.8,1.1c0.7,0.7,1.1,1.8,1.1,2.8v11.8c0,1.1-0.4,2-1.1,2.8
					c-0.7,0.7-1.8,1.1-2.8,1.1h-52.8c-1.1,0-2-0.4-2.8-1.1c-0.7-0.9-1.1-1.8-1.1-2.8v-11.8c0-1.1,0.4-2,1.1-2.8
					c0.9-0.7,1.8-1.1,2.8-1.1C295.4,100.9,348.2,100.9,348.2,100.9z"/>
			</g>
		</g>
	</g>
</g>
<g>
	<path class="st2" d="M37.6,103.9V59h16.7v7.5H45v11.8h9.2v7.1H45v18.5H37.6L37.6,103.9z"/>
	<path class="st2" d="M57.2,103.9V59h7.2v37.1h8.8v7.8H57.2z"/>
	<path class="st2" d="M88.5,103.9l-0.9-11.3H83l-0.9,11.3h-7.4L79.4,59h12.3l4.3,44.9H88.5z M85.7,66.4h-0.5l-1.8,19.1h4.1
		L85.7,66.4z"/>
	<path class="st2" d="M109.8,73c0-0.3,0.1-0.7,0.1-1.1s0-1,0-1.6c0-1.8-0.2-3-0.5-3.7s-1.1-1.1-2.4-1.1c-0.5,0-1,0-1.3,0.1
		s-0.7,0.3-0.9,0.7c-0.2,0.3-0.3,0.9-0.4,1.5c-0.1,0.7-0.1,1.5-0.1,2.5s0,1.6,0,2.3c0,0.5,0.1,1,0.1,1.3c0.1,0.3,0.2,0.7,0.3,0.9
		c0.1,0.2,0.4,0.4,0.7,0.8c0.4,0.4,1.1,0.8,1.8,1.2c0.7,0.4,1.4,0.8,2.1,1.2c0.8,0.3,1.4,0.8,2.2,1.1c0.7,0.3,1.3,0.8,1.8,1
		c0.7,0.4,1.3,1,1.8,1.4c0.4,0.4,0.8,1.1,1.1,1.9c0.3,0.8,0.4,1.8,0.5,3.1c0.1,1.2,0.1,2.9,0.1,4.9c0,2.7-0.2,5.1-0.5,6.8
		c-0.3,1.8-0.9,3.2-1.6,4.2c-0.8,1-1.8,1.6-3.1,2c-1.3,0.3-2.9,0.5-4.7,0.5c-1.6,0-3.1-0.1-4.2-0.4s-2.1-0.9-2.9-1.6
		c-0.8-0.8-1.3-2-1.6-3.4c-0.3-1.4-0.5-3.3-0.5-5.7c0-1,0-1.9,0.1-2.6c0.1-0.8,0.2-1.4,0.3-2h6.2c-0.1,0.3-0.1,0.7-0.1,1.1
		s0,0.9,0,1.5c0,1.2,0,2.2,0.1,3s0.2,1.3,0.4,1.8c0.2,0.4,0.5,0.7,0.9,0.9c0.3,0.1,0.9,0.2,1.4,0.2s1.1-0.1,1.5-0.2s0.7-0.4,1-0.8
		s0.4-1,0.5-1.9c0.1-0.8,0.1-2,0.1-3.4c0-0.9,0-1.5,0-2c0-0.4-0.1-0.9-0.2-1.2c-0.1-0.3-0.2-0.7-0.4-0.9c-0.2-0.2-0.4-0.5-0.7-0.9
		c-0.5-0.5-1.2-1-2-1.5c-0.8-0.4-1.5-0.9-2.4-1.3s-1.6-0.9-2.4-1.3s-1.4-1-2-1.5c-0.4-0.4-0.9-0.9-1.2-1.3c-0.3-0.4-0.5-1.1-0.8-1.9
		c-0.2-0.8-0.3-1.9-0.3-3.1c-0.1-1.3-0.1-3-0.1-4.9c0-2.1,0.1-4,0.4-5.3c0.3-1.4,0.9-2.5,1.5-3.4c0.8-0.9,1.6-1.4,2.9-1.8
		c1.2-0.3,2.7-0.5,4.5-0.5c1.9,0,3.4,0.2,4.6,0.5s2.2,0.9,2.9,1.6c0.7,0.8,1.2,1.8,1.4,3.1c0.2,1.2,0.4,2.7,0.4,4.6
		c0,1.3,0,2.3-0.1,3c-0.1,0.8-0.2,1.4-0.3,2H110V73H109.8z"/>
	<path class="st2" d="M133.8,103.9V84.5h-6.3v19.4H120V59h7.5v18.5h6.3V59h7.5v44.9H133.8z"/>
	<path class="st2" d="M174.9,86.7c0.1,0.5,0.1,1.1,0.1,1.6s0,1.3,0,2.3c0,2.4-0.1,4.4-0.4,6.2c-0.2,1.8-0.8,3.2-1.4,4.3
		c-0.7,1.1-1.8,2-3,2.5c-1.3,0.5-3,0.9-5.1,0.9c-2.5,0-4.4-0.2-5.7-0.8c-1.3-0.5-2.3-1.5-3-2.9c-0.3-0.7-0.5-1.4-0.9-2.3
		c-0.2-0.9-0.4-2.1-0.5-3.5s-0.2-3.3-0.3-5.6c-0.1-2.3-0.1-5.2-0.1-8.6c0-3.7,0-6.7,0.1-9s0.2-4.1,0.4-5.4c0.1-1.3,0.3-2.3,0.5-3.1
		c0.2-0.7,0.4-1.3,0.8-1.9c0.7-1.3,1.6-2.3,2.9-2.9c1.2-0.5,3.1-0.8,5.6-0.8c2.3,0,4,0.2,5.2,0.7c1.2,0.4,2.1,1.1,2.7,2.1
		c1.4,2,2.1,5.6,2.1,10.9c0,1,0,1.6,0,2.1c0,0.4,0,1-0.1,1.5h-6.9c0-0.4,0.1-0.9,0.1-1.3s0-1.1,0-1.9c0-1.3-0.1-2.5-0.2-3.5
		c-0.1-1-0.3-1.6-0.4-2.1c-0.2-0.4-0.4-0.7-0.8-0.9c-0.3-0.2-0.8-0.3-1.5-0.3s-1.3,0.1-1.6,0.3c-0.3,0.2-0.5,0.5-0.8,1.2
		c-0.1,0.4-0.2,0.9-0.3,1.3c-0.1,0.5-0.1,1.2-0.2,2.2c-0.1,1-0.1,2.3-0.1,4s0,3.8,0,6.5s0,4.9,0,6.6s0.1,3.1,0.1,4.1
		c0.1,1,0.1,1.8,0.2,2.3c0.1,0.5,0.2,1,0.3,1.4c0.1,0.5,0.4,1,0.8,1.2s1,0.3,1.9,0.3c1.3,0,2.1-0.5,2.3-1.6c0.2-0.8,0.3-1.6,0.4-2.7
		c0.1-1,0.1-2.4,0.1-4.1c0-0.3,0-0.7,0-0.9c0-0.2,0-0.5-0.1-0.9h6.9v0.5C175,86.7,174.9,86.7,174.9,86.7z"/>
	<path class="st2" d="M190.3,103.9l-0.9-11.3h-4.6l-0.9,11.3h-7.2l4.6-44.9h12.3l4.3,44.9H190.3z M187.4,66.4h-0.5l-1.8,19.1h4.1
		L187.4,66.4z"/>
	<path class="st2" d="M214,103.9c-0.1-0.2-0.1-0.4-0.2-0.7c-0.1-0.2-0.1-0.5-0.2-0.9c-0.1-0.3-0.1-0.9-0.2-1.5
		c-0.1-0.7-0.1-1.4-0.2-2.4c-0.1-1.1-0.2-2.4-0.3-4c-0.1-1.5-0.2-3.1-0.5-4.8c-0.2-1.6-0.5-2.6-0.9-3.1c-0.3-0.4-0.8-0.7-1.4-0.7h-2
		V104h-7.2V59h11.5c1.6,0,3.1,0.2,4.3,0.7c1.1,0.4,2,1.1,2.6,2.1c0.7,1,1.1,2.2,1.3,3.7s0.4,3.4,0.4,5.6c0,2.5-0.1,4.4-0.2,5.8
		c-0.2,1.4-0.4,2.5-0.8,3.2c-0.3,0.8-0.7,1.3-1.1,1.5c-0.4,0.3-0.9,0.5-1.3,0.8v0.3c0.5,0.4,1.1,1,1.3,1.8c0.3,0.8,0.5,1.8,0.9,2.9
		c0.3,1.6,0.5,3.4,0.7,5.1s0.3,3.6,0.5,5.8c0.1,0.9,0.1,1.5,0.2,2.1c0.1,0.5,0.1,1,0.2,1.4c0.1,0.3,0.1,0.7,0.2,1
		c0.1,0.2,0.1,0.5,0.2,0.8v0.2L214,103.9L214,103.9z M210.4,79.1c0.4,0,0.9,0,1.3-0.1c0.3-0.1,0.7-0.3,1-0.8
		c0.2-0.4,0.4-1.2,0.5-2.1c0.1-1,0.2-2.3,0.2-4.2c0-1.4-0.1-2.4-0.2-3.2c-0.1-0.8-0.3-1.3-0.5-1.6s-0.5-0.5-0.9-0.7s-0.7-0.1-1-0.1
		H208v12.8L210.4,79.1L210.4,79.1z"/>
	<path class="st2" d="M224.4,103.9V59H235c2.4,0,4.3,0.2,5.6,0.8c1.3,0.5,2.2,1.4,2.9,2.7c0.3,0.7,0.7,1.4,0.9,2.2
		c0.2,0.8,0.4,1.9,0.5,3.2c0.1,1.3,0.2,3.1,0.3,5.3c0.1,2.1,0.1,4.9,0.1,8.3c0,3.5,0,6.3-0.1,8.5s-0.2,4-0.3,5.3s-0.3,2.4-0.5,3.2
		c-0.2,0.8-0.5,1.4-0.9,2.1c-0.3,0.7-0.7,1.2-1.2,1.6c-0.4,0.4-1.1,0.8-1.8,1.1c-0.7,0.2-1.4,0.4-2.4,0.5c-0.9,0.1-2,0.2-3.2,0.2
		L224.4,103.9L224.4,103.9L224.4,103.9z M234.8,96.1c0.8,0,1.3-0.1,1.6-0.3s0.5-0.5,0.8-1.1c0.1-0.3,0.2-0.8,0.2-1.2
		c0.1-0.4,0.1-1.2,0.2-2.1c0.1-0.9,0.1-2.2,0.1-3.8s0-3.7,0-6.4c0-2.5,0-4.6,0-6.3s0-2.9-0.1-3.8c0-1-0.1-1.6-0.2-2.2
		c-0.1-0.4-0.2-0.9-0.3-1.3c-0.2-0.5-0.4-0.9-0.9-1.1c-0.3-0.2-0.9-0.3-1.6-0.3h-3.2V96L234.8,96.1L234.8,96.1z"/>
	<path class="st2" d="M52.3,158.9c-0.1-0.3-0.2-0.8-0.3-1.2s-0.2-1.1-0.3-1.9c-0.1-0.9-0.3-2-0.4-3.5c-0.2-1.5-0.4-3.5-0.7-6.2
		c-0.1-1-0.2-1.9-0.3-2.5c-0.1-0.7-0.2-1.1-0.4-1.4c-0.1-0.3-0.3-0.5-0.5-0.7s-0.5-0.1-0.8-0.1H47v17.5h-9.3V114h13.6
		c2,0,3.6,0.2,4.9,0.7c1.3,0.4,2.3,1.2,3.1,2.1c0.8,1,1.3,2.2,1.6,3.7s0.4,3.4,0.4,5.5c0,2.3-0.1,4.2-0.2,5.5
		c-0.1,1.3-0.4,2.4-0.8,3.1c-0.3,0.8-0.8,1.3-1.2,1.6s-1,0.8-1.6,1.1v0.3c0.2,0.2,0.4,0.4,0.8,0.7c0.2,0.2,0.4,0.7,0.7,1.2
		c0.3,0.7,0.7,1.8,1,3.2s0.7,3.5,1,6c0.2,1.9,0.4,3.3,0.5,4.4c0.1,1.1,0.2,2,0.3,2.6c0.1,0.7,0.2,1.2,0.2,1.5c0.1,0.3,0.1,0.7,0.2,1
		v0.3h-10L52.3,158.9L52.3,158.9z M49.6,132.9c0.9,0,1.5-0.3,1.9-1.1c0.3-0.8,0.5-2.2,0.5-4.3c0-1.8-0.2-3-0.7-3.5
		c-0.4-0.5-1.1-0.9-2-0.9h-2.4v9.8L49.6,132.9L49.6,132.9z"/>
	<path class="st2" d="M65,158.9V114h19.9v9.4H74.4v7.9h10.3v9.1H74.3v8.5h10.5v10L65,158.9L65,158.9z"/>
	<path class="st2" d="M115.4,158.9V132h-0.3l-6.8,26.9h-4.1L97.3,132H97v26.9h-8.5V114h13.2l4.2,19.5h0.4l4.6-19.5H124l0.1,44.9
		H115.4z"/>
	<path class="st2" d="M149.3,155.9c-0.4,0.7-0.9,1.3-1.4,1.8c-0.5,0.4-1.2,0.9-2,1.1c-0.8,0.3-1.8,0.5-2.7,0.7
		c-1.1,0.1-2.3,0.2-3.7,0.2c-2.9,0-5.1-0.2-6.6-0.8c-1.5-0.5-2.6-1.5-3.4-2.9c-0.4-0.7-0.8-1.4-1-2.2c-0.3-0.8-0.5-1.9-0.7-3.3
		c-0.2-1.4-0.3-3.2-0.4-5.4s-0.1-5.2-0.1-8.7s0-6.4,0.1-8.6s0.2-4.1,0.4-5.4c0.2-1.4,0.4-2.4,0.7-3.3c0.3-0.8,0.7-1.5,1-2.3
		c0.4-0.7,0.9-1.2,1.4-1.8c0.5-0.4,1.2-0.9,2-1.2c0.8-0.3,1.8-0.5,2.9-0.7c1.1-0.1,2.3-0.2,3.7-0.2c2.9,0,5.1,0.3,6.5,0.9
		c1.5,0.5,2.6,1.5,3.4,2.9c0.4,0.7,0.8,1.4,1,2.3c0.3,0.8,0.5,1.9,0.7,3.3s0.3,3.2,0.4,5.4c0.1,2.2,0.1,5.1,0.1,8.6s0,6.4-0.1,8.7
		c-0.1,2.2-0.2,4.1-0.4,5.4c-0.2,1.4-0.4,2.5-0.7,3.3C150,154.5,149.7,155.2,149.3,155.9z M141.7,148.5c0.1-0.3,0.1-0.7,0.2-1.1
		c0.1-0.4,0.1-1.1,0.2-2c0-0.9,0.1-2.1,0.1-3.5s0-3.4,0-5.8c0-2.5,0-4.5,0-6s0-2.7-0.1-3.6c0-0.9-0.1-1.5-0.2-2
		c-0.1-0.4-0.1-0.8-0.2-1.1c-0.1-0.4-0.4-0.7-0.7-0.9c-0.3-0.2-0.9-0.2-1.6-0.2c-0.8,0-1.3,0.1-1.6,0.2c-0.3,0.2-0.5,0.4-0.7,0.9
		c-0.1,0.3-0.2,0.7-0.2,1.1c-0.1,0.4-0.1,1.1-0.2,2c-0.1,0.9-0.1,2.1-0.1,3.6s0,3.5,0,6c0,2.4,0,4.4,0,5.8c0,1.4,0.1,2.6,0.1,3.5
		c0.1,0.9,0.1,1.5,0.2,2c0.1,0.4,0.1,0.8,0.2,1.1c0.1,0.4,0.3,0.7,0.7,0.9c0.3,0.1,0.9,0.2,1.6,0.2c0.8,0,1.3-0.1,1.6-0.2
		C141.3,149.2,141.6,148.9,141.7,148.5z"/>
	<path class="st2" d="M158.3,158.9l-5.4-44.9H163l2.5,31.6h0.7l2.4-31.6h9.9l-5.6,44.9H158.3z"/>
	<path class="st2" d="M181.1,158.9V114H201v9.4h-10.5v7.9h10.3v9.1h-10.3v8.5H201v10L181.1,158.9L181.1,158.9z"/>
	<path class="st2" d="M204.7,158.9V114h12.5c2.9,0,5.1,0.2,6.5,0.8c1.4,0.5,2.6,1.4,3.4,2.7c0.4,0.7,0.8,1.4,1,2.2
		c0.2,0.8,0.4,1.9,0.7,3.2c0.2,1.3,0.3,3.1,0.4,5.3c0.1,2.2,0.1,4.9,0.1,8.3c0,3.4,0,6.2-0.1,8.3s-0.2,4-0.4,5.3s-0.4,2.4-0.7,3.2
		c-0.2,0.8-0.5,1.5-1,2.1c-0.4,0.7-0.9,1.2-1.4,1.6c-0.5,0.4-1.2,0.8-2,1.1s-1.8,0.4-2.7,0.5c-1.1,0.1-2.3,0.2-3.7,0.2L204.7,158.9
		L204.7,158.9z M217,148.9c0.8,0,1.3-0.1,1.6-0.2c0.3-0.1,0.5-0.4,0.7-0.9c0.1-0.3,0.1-0.5,0.2-1s0.1-1,0.2-1.8c0-0.9,0.1-2,0.1-3.4
		s0-3.3,0-5.5s0-4.2,0-5.6c0-1.4,0-2.5-0.1-3.4c0-0.9-0.1-1.4-0.2-1.9c-0.1-0.4-0.1-0.8-0.2-1c-0.1-0.3-0.4-0.5-0.7-0.7
		c-0.3-0.1-0.9-0.2-1.6-0.2h-3V149h3V148.9z"/>
</g>
</svg>
