<?xml version="1.0" encoding="utf-8"?>
<!-- Generator: Adobe Illustrator 20.0.0, SVG Export Plug-In . SVG Version: 6.00 Build 0)  -->
<svg version="1.1" id="Layer_1" xmlns="http://www.w3.org/2000/svg" xmlns:xlink="http://www.w3.org/1999/xlink" x="0px" y="0px"
	 viewBox="0 0 400 220" style="enable-background:new 0 0 400 220;" xml:space="preserve">
<style type="text/css">
	.st0{fill:#2D2D2D;}
	.st1{fill:#E5E5E5;stroke:#494949;stroke-width:3;stroke-miterlimit:10;}
	.st2{fill:url(#SVGID_1_);}
	.st3{fill:#FFFFFF;}
</style>
<path class="st0" d="M377.5,211.9h-353c-6.6,0-12-5.4-12-12v-177c0-6.6,5.4-12,12-12h353c6.6,0,12,5.4,12,12v177
	C389.5,206.4,384.1,211.9,377.5,211.9z"/>
<g>
	<path class="st1" d="M69.8,74.2l55.4-10.3c1.9-0.5,3.9,1,4.1,3l14.8,79.9c0.5,1.9-1,3.9-3,4.1l-55.4,10.3c-1.9,0.5-3.9-1-4.1-3
		L66.8,78.5C66.5,76.7,67.9,74.7,69.8,74.2z"/>
	<path class="st1" d="M28.2,81.5L79.5,58c1.7-0.7,4,0,4.7,1.7l33.7,74c0.7,1.7,0,4-1.7,4.7L64.9,162c-1.7,0.7-4,0-4.7-1.7l-33.9-74
		C25.6,84.5,26.3,82.3,28.2,81.5z"/>
	<path class="st1" d="M111.7,167.7l-56.2-4.9c-1.9-0.1-3.5-1.9-3.4-4l7.2-81.1c0.1-1.9,1.9-3.5,4-3.4l56.2,4.9
		c1.9,0.1,3.5,1.9,3.4,4l-7.1,81.1C115.5,166.6,113.9,168.1,111.7,167.7z"/>
	<g>
		
			<linearGradient id="SVGID_1_" gradientUnits="userSpaceOnUse" x1="76.1201" y1="2605.7244" x2="129.1367" y2="2651.8108" gradientTransform="matrix(1 0 0 1 0 -2559)">
			<stop  offset="0" style="stop-color:#F94E55"/>
			<stop  offset="4.372164e-02" style="stop-color:#F64D52"/>
			<stop  offset="0.2182" style="stop-color:#ED4A4A"/>
			<stop  offset="0.6899" style="stop-color:#DB444B"/>
		</linearGradient>
		<path class="st2" d="M115.7,52.3c-0.1,0-0.2,0-0.5,0c-7.8,0-14.9,3-20.2,8.2c-5.1,5.2-8.2,12.3-8.2,20.2c0,13.4,9,24.4,21.2,27.9
			c2.4,0.6,4.9,1.1,7.5,1.1c0.1,0,0.2,0,0.5,0c7.8,0,14.9-3,20.2-8.2c4.5-4.5,7.3-10.6,8-17.3c0.1-1,0.1-1.7,0.1-2.9
			C144.2,65.5,131.5,52.5,115.7,52.3z"/>
	</g>
	<g>
		<g>
			<g>
				<path class="st3" d="M128.4,74.9c0.6,0,1,0.2,1.4,0.6s0.6,0.9,0.6,1.4v5.7c0,0.6-0.2,1-0.6,1.4s-0.9,0.6-1.4,0.6h-26.1
					c-0.6,0-1-0.2-1.4-0.6c-0.4-0.5-0.6-0.9-0.6-1.4v-5.7c0-0.6,0.2-1,0.6-1.4c0.5-0.4,0.9-0.6,1.4-0.6H128.4z"/>
			</g>
		</g>
	</g>
</g>
<g>
	<path class="st3" d="M173.6,105.2V67.9H184c2.4,0,4.2,0.2,5.4,0.7c1.3,0.4,2.2,1.2,2.9,2.3c0.3,0.6,0.6,1.2,0.8,1.8
		c0.2,0.6,0.4,1.5,0.5,2.6s0.3,2.6,0.3,4.3c0.1,1.8,0.1,4.1,0.1,6.9s0,5.1-0.1,6.9s-0.2,3.3-0.3,4.4s-0.3,2-0.5,2.7
		s-0.5,1.3-0.8,1.8c-0.3,0.6-0.7,1-1.2,1.4s-1,0.7-1.7,0.9c-0.7,0.2-1.4,0.4-2.3,0.5c-0.9,0.1-1.9,0.1-3.1,0.1L173.6,105.2
		L173.6,105.2z M183.8,97c0.6,0,1.1-0.1,1.3-0.2c0.3-0.1,0.5-0.4,0.6-0.7c0.1-0.2,0.1-0.5,0.2-0.8c0.1-0.3,0.1-0.8,0.1-1.5
		s0.1-1.6,0.1-2.8c0-1.2,0-2.7,0-4.6s0-3.5,0-4.7s0-2.1-0.1-2.8c0-0.7-0.1-1.2-0.1-1.5c-0.1-0.3-0.1-0.6-0.2-0.8
		c-0.1-0.3-0.3-0.5-0.6-0.6s-0.7-0.2-1.3-0.2h-2.5V97H183.8z"/>
	<path class="st3" d="M196.9,105.2V67.9h16.5v7.9h-8.8v6.6h8.6V90h-8.6v7.1h8.7v8.3h-16.4V105.2z"/>
	<path class="st3" d="M216.5,105.2V67.9h7.7V97h8v8.3h-15.7V105.2z"/>
	<path class="st3" d="M234.6,105.2V67.9h16.5v7.9h-8.8v6.6h8.6V90h-8.6v7.1h8.7v8.3h-16.4V105.2z"/>
	<path class="st3" d="M259.1,105.2V75.8h-5.9v-7.9h19.5v7.9h-5.9v29.5h-7.7V105.2z"/>
	<path class="st3" d="M275,105.2V67.9h16.5v7.9h-8.8v6.6h8.6V90h-8.6v7.1h8.7v8.3H275V105.2z"/>
	<path class="st3" d="M316.1,105.2l-0.6-8.6h-3.8l-0.6,8.6h-7.8l4-37.4h13l3.8,37.4H316.1z M313.9,75.7h-0.5L312.1,89h3.1
		L313.9,75.7z"/>
	<path class="st3" d="M326.4,105.2V67.9h7.8V97h8v8.3h-15.8V105.2z"/>
	<path class="st3" d="M344.5,105.2V67.9h7.8V97h8v8.3h-15.8V105.2z"/>
</g>
<g>
	<path class="st3" d="M173.5,150v-36.6h13.6v6h-7.6v9.6h7.5v5.9h-7.5V150H173.5z"/>
	<path class="st3" d="M189.5,150v-36.6h5.9v30.3h7.2v6.3H189.5z"/>
	<path class="st3" d="M215.1,150l-0.7-9.2h-3.8l-0.7,9.2H204l3.8-36.6h10l3.5,36.6H215.1z M212.7,119.4h-0.4l-1.4,15.6h3.3
		L212.7,119.4z"/>
	<path class="st3" d="M232.5,124.8c0-0.3,0.1-0.6,0.1-0.9s0-0.8,0-1.4c0-1.4-0.1-2.4-0.4-3c-0.3-0.6-0.9-0.9-2-0.9
		c-0.5,0-0.8,0-1.1,0.1s-0.5,0.3-0.7,0.6c-0.2,0.3-0.3,0.7-0.4,1.2c-0.1,0.5-0.1,1.2-0.1,2.1c0,0.8,0,1.4,0,1.8
		c0,0.5,0.1,0.8,0.1,1.1c0.1,0.3,0.2,0.5,0.3,0.7s0.3,0.4,0.6,0.6c0.4,0.3,0.9,0.7,1.4,1s1.1,0.7,1.7,1c0.6,0.3,1.2,0.6,1.8,0.9
		c0.6,0.3,1,0.6,1.4,0.8c0.6,0.4,1.1,0.8,1.4,1.2c0.4,0.4,0.7,0.9,0.9,1.5s0.4,1.5,0.5,2.5s0.1,2.3,0.1,4c0,2.3-0.1,4.1-0.4,5.5
		c-0.3,1.4-0.7,2.6-1.4,3.4c-0.6,0.8-1.5,1.4-2.5,1.6c-1,0.3-2.3,0.4-3.9,0.4c-1.4,0-2.5-0.1-3.4-0.4c-0.9-0.2-1.7-0.7-2.3-1.4
		s-1.1-1.6-1.3-2.8c-0.3-1.2-0.4-2.7-0.4-4.6c0-0.8,0-1.5,0.1-2.1s0.1-1.2,0.2-1.6h5c-0.1,0.3-0.1,0.6-0.1,0.9c0,0.4,0,0.8,0,1.2
		c0,1,0,1.8,0.1,2.4c0.1,0.6,0.2,1.1,0.4,1.4c0.2,0.3,0.4,0.6,0.7,0.7c0.3,0.1,0.7,0.2,1.1,0.2c0.5,0,0.9,0,1.2-0.1s0.6-0.3,0.8-0.7
		c0.2-0.3,0.3-0.8,0.4-1.5c0.1-0.7,0.1-1.6,0.1-2.7c0-0.7,0-1.2,0-1.6c0-0.4-0.1-0.7-0.1-1c-0.1-0.3-0.2-0.5-0.3-0.7
		s-0.3-0.4-0.6-0.7c-0.4-0.4-0.9-0.8-1.6-1.2c-0.6-0.4-1.3-0.8-2-1.1c-0.7-0.4-1.3-0.7-2-1.1c-0.6-0.4-1.2-0.8-1.6-1.2
		c-0.4-0.4-0.7-0.7-1-1.1c-0.3-0.4-0.5-0.9-0.6-1.5c-0.1-0.6-0.2-1.5-0.3-2.5c0-1-0.1-2.4-0.1-4.1s0.1-3.2,0.4-4.3
		c0.3-1.1,0.7-2.1,1.3-2.7c0.6-0.7,1.4-1.2,2.4-1.4c1-0.3,2.2-0.4,3.6-0.4c1.5,0,2.8,0.1,3.7,0.4c1,0.3,1.8,0.7,2.3,1.4
		c0.6,0.6,0.9,1.5,1.2,2.5c0.2,1,0.3,2.3,0.3,3.7c0,1,0,1.8-0.1,2.4c0,0.6-0.1,1.1-0.3,1.6L232.5,124.8L232.5,124.8z"/>
	<path class="st3" d="M252,150v-15.8h-5.1V150h-6.1v-36.6h6.1v15h5.1v-15h6V150H252z"/>
	<path class="st3" d="M285.5,136c0.1,0.5,0.1,0.9,0.1,1.4s0,1.1,0,1.9c0,1.9-0.1,3.6-0.3,5c-0.2,1.4-0.6,2.6-1.2,3.5
		s-1.4,1.6-2.4,2.1s-2.4,0.7-4.1,0.7c-2.1,0-3.6-0.2-4.7-0.7c-1.1-0.4-1.9-1.2-2.4-2.3c-0.3-0.5-0.5-1.1-0.7-1.8s-0.4-1.7-0.5-2.9
		s-0.2-2.7-0.3-4.5c0-1.8-0.1-4.2-0.1-7c0-3,0-5.5,0.1-7.3s0.2-3.3,0.3-4.4c0.1-1.1,0.3-1.9,0.5-2.5c0.2-0.5,0.4-1,0.6-1.5
		c0.5-1.1,1.3-1.9,2.3-2.3s2.5-0.7,4.5-0.7c1.8,0,3.2,0.2,4.2,0.5c1,0.4,1.7,0.9,2.2,1.7c1.1,1.6,1.7,4.6,1.7,8.8c0,0.8,0,1.3,0,1.7
		c0,0.4,0,0.8-0.1,1.2h-5.7c0-0.4,0-0.7,0-1.1s0-0.9,0-1.5c0-1.1,0-2-0.1-2.9c-0.1-0.8-0.2-1.4-0.4-1.7c-0.2-0.3-0.4-0.6-0.6-0.7
		c-0.2-0.2-0.7-0.2-1.3-0.2c-0.6,0-1.1,0.1-1.4,0.3c-0.3,0.2-0.5,0.5-0.6,0.9c-0.1,0.3-0.2,0.7-0.2,1.1c-0.1,0.4-0.1,1-0.2,1.8
		c0,0.8-0.1,1.9-0.1,3.2c0,1.4,0,3.1,0,5.3s0,4,0,5.4s0,2.5,0.1,3.3c0,0.8,0.1,1.5,0.2,1.9s0.1,0.8,0.2,1.1c0.1,0.5,0.3,0.8,0.6,0.9
		c0.3,0.2,0.8,0.3,1.5,0.3c1.1,0,1.7-0.5,1.9-1.4c0.2-0.6,0.3-1.4,0.3-2.2s0.1-1.9,0.1-3.3c0-0.3,0-0.5,0-0.7s0-0.4,0-0.7h6V136z"/>
	<path class="st3" d="M298.1,150l-0.7-9.2h-3.8l-0.7,9.2H287l3.8-36.6h10l3.5,36.6H298.1z M295.7,119.4h-0.4l-1.5,15.6h3.3
		L295.7,119.4z"/>
	<path class="st3" d="M317.3,150c-0.1-0.2-0.1-0.4-0.2-0.6c-0.1-0.2-0.1-0.4-0.2-0.7c0-0.3-0.1-0.7-0.1-1.2s-0.1-1.2-0.2-2
		c-0.1-0.9-0.2-2-0.3-3.2c-0.1-1.2-0.2-2.5-0.4-4c-0.2-1.3-0.4-2.2-0.7-2.5c-0.3-0.4-0.7-0.6-1.2-0.6h-1.6V150h-5.9v-36.6h9.4
		c1.4,0,2.5,0.2,3.5,0.5c0.9,0.4,1.6,0.9,2.2,1.7c0.5,0.8,0.9,1.8,1.1,3.1c0.2,1.3,0.3,2.8,0.3,4.5c0,2-0.1,3.6-0.2,4.8
		c-0.1,1.1-0.3,2-0.6,2.6c-0.3,0.6-0.6,1-0.9,1.3c-0.4,0.2-0.7,0.5-1.1,0.7v0.3c0.5,0.4,0.9,0.8,1.1,1.5c0.3,0.6,0.5,1.4,0.7,2.4
		c0.3,1.4,0.4,2.8,0.6,4.1c0.1,1.4,0.3,2.9,0.5,4.7c0.1,0.7,0.1,1.3,0.2,1.7c0.1,0.5,0.1,0.8,0.2,1.1c0,0.3,0.1,0.6,0.1,0.8
		s0.1,0.4,0.2,0.6v0.2L317.3,150L317.3,150z M314.5,129.8c0.4,0,0.7,0,1-0.1s0.6-0.3,0.8-0.7c0.2-0.4,0.4-1,0.5-1.7
		c0.1-0.8,0.2-1.9,0.2-3.4c0-1.1-0.1-2-0.2-2.6s-0.3-1.1-0.5-1.4s-0.4-0.5-0.7-0.5c-0.3-0.1-0.6-0.1-0.8-0.1h-2.3v10.5H314.5z"/>
	<path class="st3" d="M325.9,150v-36.6h8.7c2,0,3.5,0.2,4.5,0.7c1,0.4,1.8,1.2,2.4,2.2c0.3,0.5,0.5,1.1,0.7,1.8
		c0.2,0.6,0.3,1.5,0.5,2.6c0.1,1.1,0.2,2.5,0.3,4.3c0,1.7,0.1,4,0.1,6.8s0,5.1-0.1,6.9c-0.1,1.8-0.2,3.2-0.3,4.3
		c-0.1,1.1-0.3,2-0.5,2.6s-0.4,1.2-0.7,1.7c-0.3,0.5-0.6,1-1,1.4s-0.9,0.7-1.4,0.9s-1.2,0.4-1.9,0.5c-0.7,0.1-1.6,0.1-2.6,0.1h-8.7
		V150z M334.4,143.7c0.6,0,1.1-0.1,1.4-0.2s0.5-0.5,0.7-0.9c0.1-0.3,0.2-0.6,0.2-1s0.1-1,0.1-1.7c0-0.8,0.1-1.8,0.1-3.1s0-3,0-5.1
		s0-3.8,0-5.1c0-1.3,0-2.3-0.1-3.1c0-0.8-0.1-1.4-0.1-1.8c-0.1-0.4-0.1-0.7-0.2-1c-0.2-0.4-0.4-0.7-0.7-0.9
		c-0.3-0.2-0.7-0.2-1.4-0.2h-2.6v24.3h2.6V143.7z"/>
	<path class="st3" d="M354.9,124.8c0-0.3,0.1-0.6,0.1-0.9s0-0.8,0-1.4c0-1.4-0.1-2.4-0.4-3s-0.9-0.9-2-0.9c-0.5,0-0.8,0-1.1,0.1
		c-0.3,0.1-0.5,0.3-0.7,0.6c-0.2,0.3-0.3,0.7-0.4,1.2s-0.1,1.2-0.1,2.1c0,0.8,0,1.4,0,1.8c0,0.5,0.1,0.8,0.1,1.1
		c0.1,0.3,0.2,0.5,0.3,0.7c0.1,0.2,0.3,0.4,0.6,0.6c0.4,0.3,0.9,0.7,1.4,1s1.1,0.7,1.7,1s1.2,0.6,1.8,0.9c0.6,0.3,1,0.6,1.4,0.8
		c0.6,0.4,1.1,0.8,1.4,1.2c0.4,0.4,0.7,0.9,0.9,1.5c0.2,0.6,0.4,1.5,0.5,2.5s0.1,2.3,0.1,4c0,2.3-0.1,4.1-0.4,5.5s-0.7,2.6-1.4,3.4
		c-0.6,0.8-1.5,1.4-2.5,1.6c-1,0.3-2.3,0.4-3.9,0.4c-1.4,0-2.5-0.1-3.4-0.4c-0.9-0.2-1.7-0.7-2.3-1.4c-0.6-0.7-1.1-1.6-1.3-2.8
		c-0.3-1.2-0.4-2.7-0.4-4.6c0-0.8,0-1.5,0.1-2.1s0.1-1.2,0.2-1.6h5c-0.1,0.3-0.1,0.6-0.1,0.9c0,0.4,0,0.8,0,1.2c0,1,0,1.8,0.1,2.4
		c0.1,0.6,0.2,1.1,0.4,1.4c0.2,0.3,0.4,0.6,0.7,0.7c0.3,0.1,0.7,0.2,1.1,0.2c0.5,0,0.9,0,1.2-0.1c0.3-0.1,0.6-0.3,0.8-0.7
		c0.2-0.3,0.3-0.8,0.4-1.5s0.1-1.6,0.1-2.7c0-0.7,0-1.2,0-1.6c0-0.4-0.1-0.7-0.1-1c-0.1-0.3-0.2-0.5-0.3-0.7
		c-0.1-0.2-0.3-0.4-0.6-0.7c-0.4-0.4-0.9-0.8-1.6-1.2c-0.6-0.4-1.3-0.8-2-1.1c-0.7-0.4-1.3-0.7-2-1.1c-0.6-0.4-1.2-0.8-1.6-1.2
		s-0.7-0.7-1-1.1c-0.3-0.4-0.5-0.9-0.6-1.5c-0.1-0.6-0.2-1.5-0.3-2.5c0-1-0.1-2.4-0.1-4.1s0.1-3.2,0.4-4.3c0.3-1.1,0.7-2.1,1.3-2.7
		c0.6-0.7,1.4-1.2,2.4-1.4c1-0.3,2.2-0.4,3.6-0.4c1.5,0,2.8,0.1,3.7,0.4c1,0.3,1.8,0.7,2.3,1.4c0.6,0.6,0.9,1.5,1.2,2.5
		c0.2,1,0.3,2.3,0.3,3.7c0,1,0,1.8-0.1,2.4c0,0.6-0.1,1.1-0.3,1.6L354.9,124.8L354.9,124.8z"/>
</g>
</svg>
