<?xml version="1.0" encoding="utf-8"?>
<!-- Generator: Adobe Illustrator 20.0.0, SVG Export Plug-In . SVG Version: 6.00 Build 0)  -->
<svg version="1.1" id="Layer_1" xmlns="http://www.w3.org/2000/svg" xmlns:xlink="http://www.w3.org/1999/xlink" x="0px" y="0px"
	 viewBox="0 0 400 220" style="enable-background:new 0 0 400 220;" xml:space="preserve">
<style type="text/css">
	.st0{fill:#5FB75F;}
	.st1{opacity:0.17;fill:#161616;enable-background:new    ;}
	.st2{fill:#FFFFFF;}
</style>
<path class="st0" d="M377.5,211.9h-353c-6.6,0-12-5.4-12-12v-177c0-6.6,5.4-12,12-12h353c6.6,0,12,5.4,12,12v177
	C389.5,206.4,384.1,211.9,377.5,211.9z"/>
<g>
	<path class="st1" d="M322,63c-0.2,0-0.4,0-0.6,0c-13.2,0-25.2,5.2-34,13.8c-8.5,8.8-13.8,20.8-13.8,34c0,22.5,15.1,41.4,35.8,47.1
		c4,1.1,8.2,1.8,12.6,1.8c0.2,0,0.4,0,0.6,0c13.2,0,25.2-5.2,34-13.8c7.5-7.7,12.4-17.9,13.5-29.2c0.2-1.6,0.2-3.2,0.2-4.8
		C370.2,85.3,348.7,63.4,322,63z"/>
	<g>
		<g>
			<g>
				<path class="st2" d="M311.9,87.2c0-1,0.2-1.9,1-2.5s1.4-1,2.5-1h10.5c1,0,1.9,0.2,2.5,1c0.8,0.8,1,1.4,1,2.5v14.4
					c0,0.4,0.2,1,1,1h14.2c1,0,1.9,0.2,2.5,1c0.8,0.8,1,1.4,1,2.5v10.7c0,1-0.2,1.9-1,2.5c-0.8,0.8-1.4,1-2.5,1h-14.2
					c-0.4,0-1,0.2-1,1v14.2c0,1-0.2,1.9-1,2.5c-0.6,0.8-1.4,1-2.5,1h-10.7c-1,0-1.9-0.2-2.5-1c-0.8-0.8-1-1.4-1-2.5v-14.2
					c0-0.4-0.2-1-1-1h-14.2c-1,0-1.9-0.2-2.5-1s-1-1.4-1-2.5v-10.7c0-1,0.2-1.9,1-2.5s1.4-1,2.5-1h14.2c0.4,0,1-0.2,1-1V87.2H311.9z
					"/>
			</g>
		</g>
	</g>
</g>
<g>
	<path class="st2" d="M51.7,104.8L51,94.6h-4.4l-0.7,10.1h-9.2l4.7-43.9h15.3l4.4,43.9h-9.4C51.7,104.7,51.7,104.8,51.7,104.8z
		 M49,70h-0.6L47,85.8h3.6L49,70z"/>
	<path class="st2" d="M63.8,104.8V60.9H76c2.8,0,4.9,0.3,6.4,0.8s2.6,1.4,3.4,2.7c0.4,0.7,0.7,1.4,1,2.1c0.3,0.8,0.5,1.8,0.6,3.1
		c0.2,1.3,0.3,3,0.4,5.1s0.1,4.8,0.1,8.1c0,3.3,0,6-0.1,8.1s-0.2,3.8-0.4,5.1c-0.2,1.3-0.4,2.4-0.6,3.1c-0.3,0.8-0.6,1.5-1,2.1
		c-0.4,0.7-0.9,1.2-1.4,1.7c-0.5,0.4-1.2,0.8-2,1.1c-0.8,0.3-1.7,0.5-2.7,0.6s-2.3,0.2-3.7,0.2L63.8,104.8L63.8,104.8z M75.8,95.1
		c0.7,0,1.3-0.1,1.6-0.2c0.3-0.2,0.5-0.4,0.7-0.8c0.1-0.3,0.2-0.6,0.2-1c0.1-0.4,0.1-1,0.2-1.8c0-0.8,0.1-1.9,0.1-3.3s0-3.2,0-5.4
		c0-2.2,0-4.1,0-5.5s0-2.5-0.1-3.3c0-0.8-0.1-1.4-0.2-1.8s-0.2-0.7-0.2-1c-0.2-0.3-0.4-0.5-0.7-0.7c-0.3-0.2-0.8-0.2-1.6-0.2h-2.9
		v25C72.9,95.1,75.8,95.1,75.8,95.1z"/>
	<path class="st2" d="M91.1,104.8V60.9h12.2c2.8,0,4.9,0.3,6.4,0.8s2.6,1.4,3.4,2.7c0.4,0.7,0.7,1.4,1,2.1c0.3,0.8,0.5,1.8,0.6,3.1
		c0.2,1.3,0.3,3,0.4,5.1s0.1,4.8,0.1,8.1c0,3.3,0,6-0.1,8.1s-0.2,3.8-0.4,5.1c-0.2,1.3-0.4,2.4-0.6,3.1c-0.3,0.8-0.6,1.5-1,2.1
		c-0.4,0.7-0.9,1.2-1.4,1.7c-0.5,0.4-1.2,0.8-2,1.1c-0.8,0.3-1.7,0.5-2.7,0.6s-2.3,0.2-3.7,0.2L91.1,104.8L91.1,104.8z M103.1,95.1
		c0.7,0,1.3-0.1,1.6-0.2c0.3-0.2,0.5-0.4,0.7-0.8c0.1-0.3,0.2-0.6,0.2-1c0.1-0.4,0.1-1,0.2-1.8c0-0.8,0.1-1.9,0.1-3.3s0-3.2,0-5.4
		c0-2.2,0-4.1,0-5.5s0-2.5-0.1-3.3c0-0.8-0.1-1.4-0.2-1.8s-0.2-0.7-0.2-1c-0.2-0.3-0.4-0.5-0.7-0.7c-0.3-0.2-0.8-0.2-1.6-0.2h-2.9
		v25C100.2,95.1,103.1,95.1,103.1,95.1z"/>
	<path class="st2" d="M118.4,104.8V60.9h19.4v9.3h-10.3v7.7h10.1v8.9h-10.1V95h10.3v9.7h-19.4V104.8z"/>
	<path class="st2" d="M141.5,104.8V60.9h12.2c2.8,0,4.9,0.3,6.4,0.8s2.6,1.4,3.4,2.7c0.4,0.7,0.7,1.4,1,2.1c0.3,0.8,0.5,1.8,0.6,3.1
		c0.2,1.3,0.3,3,0.4,5.1c0.1,2.1,0.1,4.8,0.1,8.1c0,3.3,0,6-0.1,8.1s-0.2,3.8-0.4,5.1c-0.2,1.3-0.4,2.4-0.6,3.1
		c-0.3,0.8-0.6,1.5-1,2.1c-0.4,0.7-0.9,1.2-1.4,1.7c-0.5,0.4-1.2,0.8-2,1.1c-0.8,0.3-1.7,0.5-2.7,0.6s-2.3,0.2-3.7,0.2L141.5,104.8
		L141.5,104.8z M153.5,95.1c0.7,0,1.3-0.1,1.6-0.2c0.3-0.2,0.5-0.4,0.7-0.8c0.1-0.3,0.2-0.6,0.2-1c0.1-0.4,0.1-1,0.2-1.8
		c0-0.8,0.1-1.9,0.1-3.3s0-3.2,0-5.4c0-2.2,0-4.1,0-5.5s0-2.5-0.1-3.3c0-0.8-0.1-1.4-0.2-1.8c-0.1-0.4-0.2-0.7-0.2-1
		c-0.2-0.3-0.4-0.5-0.7-0.7s-0.8-0.2-1.6-0.2h-2.9v25C150.6,95.1,153.5,95.1,153.5,95.1z"/>
	<path class="st2" d="M186,104.8V70.2h-6.9v-9.3H202v9.3h-6.9v34.6C195.1,104.8,186,104.8,186,104.8z"/>
	<path class="st2" d="M225,101.9c-0.4,0.7-0.8,1.3-1.4,1.7c-0.5,0.4-1.2,0.8-1.9,1.1s-1.7,0.5-2.7,0.6s-2.3,0.2-3.7,0.2
		c-2.8,0-5-0.3-6.4-0.8s-2.6-1.5-3.3-2.8c-0.4-0.7-0.7-1.4-1-2.2c-0.3-0.8-0.5-1.9-0.7-3.2c-0.2-1.4-0.3-3.1-0.4-5.3
		c-0.1-2.2-0.1-5-0.1-8.4s0-6.2,0.1-8.4c0.1-2.2,0.2-3.9,0.4-5.3s0.4-2.4,0.7-3.2c0.3-0.8,0.6-1.5,1-2.2s0.8-1.2,1.4-1.7
		c0.5-0.5,1.2-0.8,1.9-1.1c0.8-0.3,1.7-0.5,2.8-0.6s2.3-0.2,3.7-0.2c2.8,0,4.9,0.3,6.3,0.8c1.5,0.5,2.6,1.5,3.3,2.8
		c0.4,0.7,0.7,1.4,1,2.2s0.5,1.8,0.7,3.2c0.2,1.4,0.3,3.1,0.4,5.3c0.1,2.2,0.1,5,0.1,8.4s0,6.3-0.1,8.4c-0.1,2.2-0.2,4-0.4,5.3
		c-0.2,1.4-0.4,2.4-0.7,3.2C225.7,100.6,225.4,101.3,225,101.9z M217.6,94.7c0.1-0.3,0.2-0.6,0.2-1c0.1-0.4,0.1-1.1,0.2-1.9
		c0-0.9,0.1-2,0.1-3.5s0-3.4,0-5.7c0-2.4,0-4.4,0-5.9s0-2.6-0.1-3.5c0-0.9-0.1-1.5-0.2-1.9c-0.1-0.4-0.2-0.8-0.2-1
		c-0.2-0.4-0.4-0.7-0.7-0.8c-0.3-0.2-0.8-0.3-1.6-0.3c-0.7,0-1.3,0.1-1.6,0.3c-0.3,0.2-0.6,0.5-0.7,0.8c-0.1,0.3-0.2,0.6-0.3,1
		s-0.1,1.1-0.2,1.9c-0.1,0.9-0.1,2-0.1,3.5s0,3.4,0,5.9c0,2.4,0,4.3,0,5.7c0,1.5,0.1,2.6,0.1,3.5c0.1,0.9,0.1,1.5,0.2,1.9
		c0.1,0.4,0.1,0.8,0.3,1c0.1,0.4,0.3,0.7,0.7,0.8c0.3,0.2,0.9,0.2,1.6,0.2c0.7,0,1.3-0.1,1.6-0.2C217.2,95.4,217.4,95.1,217.6,94.7z
		"/>
	<path class="st2" d="M37.9,155.8v-43.9h16.3v7.3H45v11.5h9v7h-9v18.1L37.9,155.8L37.9,155.8z"/>
	<path class="st2" d="M57.1,155.8v-43.9h7.1v36.3h8.6v7.6H57.1z"/>
	<path class="st2" d="M87.8,155.8l-0.9-11h-4.5l-0.9,11h-7.1l4.5-43.9h12l4.2,43.9H87.8z M85,119.1h-0.5l-1.7,18.7h3.9L85,119.1z"/>
	<path class="st2" d="M108.6,125.5c0-0.3,0.1-0.7,0.1-1.1s0-1,0-1.7c0-1.7-0.2-2.9-0.5-3.6s-1.1-1.1-2.3-1.1c-0.5,0-1,0-1.3,0.1
		s-0.6,0.3-0.8,0.7c-0.2,0.3-0.4,0.8-0.4,1.5c-0.1,0.6-0.1,1.5-0.1,2.5c0,0.9,0,1.7,0,2.2s0.1,1,0.1,1.3c0.1,0.3,0.2,0.6,0.3,0.8
		c0.2,0.2,0.4,0.5,0.7,0.7c0.5,0.4,1,0.8,1.7,1.2s1.4,0.8,2.1,1.2s1.4,0.7,2.1,1.1c0.7,0.4,1.2,0.7,1.7,1c0.7,0.5,1.3,0.9,1.7,1.4
		c0.4,0.5,0.8,1.1,1.1,1.8c0.3,0.8,0.5,1.7,0.6,3c0.1,1.2,0.1,2.8,0.1,4.8c0,2.7-0.2,4.9-0.5,6.6c-0.3,1.7-0.9,3.1-1.6,4
		c-0.8,1-1.8,1.6-3,2c-1.2,0.3-2.8,0.5-4.6,0.5c-1.6,0-3-0.1-4.1-0.4c-1.1-0.3-2.1-0.8-2.8-1.6c-0.7-0.8-1.3-1.9-1.6-3.3
		c-0.3-1.4-0.5-3.3-0.5-5.5c0-0.9,0-1.8,0.1-2.6s0.2-1.4,0.3-2h6c-0.1,0.3-0.1,0.7-0.1,1.1s0,0.9,0,1.4c0,1.2,0,2.2,0.1,2.9
		s0.3,1.3,0.5,1.7s0.5,0.7,0.9,0.8s0.8,0.2,1.4,0.2s1.1-0.1,1.4-0.2c0.4-0.1,0.7-0.4,0.9-0.8c0.2-0.4,0.4-1,0.5-1.8s0.1-1.9,0.1-3.3
		c0-0.8,0-1.5,0-1.9c0-0.5-0.1-0.9-0.2-1.2s-0.2-0.6-0.4-0.8c-0.2-0.2-0.4-0.5-0.7-0.8c-0.5-0.5-1.1-1-1.9-1.5s-1.5-0.9-2.3-1.3
		c-0.8-0.4-1.6-0.9-2.4-1.3c-0.8-0.5-1.4-0.9-2-1.5c-0.5-0.4-0.9-0.9-1.2-1.3c-0.3-0.5-0.6-1.1-0.7-1.9c-0.2-0.8-0.3-1.8-0.3-3
		c-0.1-1.2-0.1-2.9-0.1-4.9c0-2.1,0.2-3.8,0.5-5.2c0.3-1.4,0.8-2.5,1.5-3.3s1.7-1.4,2.8-1.7c1.2-0.3,2.6-0.5,4.4-0.5
		s3.3,0.2,4.5,0.5s2.1,0.9,2.8,1.6c0.7,0.8,1.1,1.7,1.4,3c0.3,1.2,0.4,2.7,0.4,4.5c0,1.2,0,2.2-0.1,2.9c-0.1,0.7-0.2,1.3-0.3,1.9h-6
		C108.6,125.3,108.6,125.5,108.6,125.5z"/>
	<path class="st2" d="M132,155.8v-19h-6.1v19h-7.3v-43.9h7.3v18h6.1v-18h7.3v43.9L132,155.8L132,155.8z"/>
	<path class="st2" d="M172.2,139c0.1,0.5,0.1,1.1,0.1,1.7c0,0.6,0,1.3,0,2.3c0,2.3-0.1,4.3-0.4,6c-0.3,1.7-0.7,3.1-1.4,4.2
		c-0.7,1.1-1.7,2-2.9,2.5c-1.3,0.6-2.9,0.8-4.9,0.8c-2.5,0-4.4-0.3-5.6-0.8c-1.3-0.5-2.2-1.5-2.9-2.8c-0.3-0.6-0.6-1.4-0.8-2.2
		s-0.4-2-0.6-3.4c-0.2-1.4-0.3-3.2-0.3-5.5s-0.1-5-0.1-8.4c0-3.6,0-6.6,0.1-8.8c0.1-2.2,0.2-4,0.4-5.3s0.3-2.3,0.6-3
		c0.2-0.7,0.5-1.3,0.8-1.8c0.7-1.3,1.6-2.2,2.8-2.8c1.2-0.5,3-0.8,5.5-0.8c2.2,0,3.9,0.2,5,0.6c1.2,0.4,2,1.1,2.7,2
		c1.4,1.9,2,5.5,2,10.6c0,0.9,0,1.6,0,2.1s0,0.9-0.1,1.5h-6.8c0-0.4,0.1-0.8,0.1-1.3c0-0.4,0-1,0-1.8c0-1.3-0.1-2.5-0.2-3.4
		c-0.1-1-0.3-1.7-0.5-2.1s-0.4-0.7-0.7-0.9c-0.3-0.2-0.8-0.3-1.5-0.3c-0.8,0-1.3,0.1-1.7,0.3c-0.3,0.2-0.6,0.6-0.7,1.1
		c-0.1,0.4-0.2,0.8-0.3,1.3s-0.1,1.2-0.2,2.2c-0.1,1-0.1,2.3-0.1,3.9c0,1.6,0,3.8,0,6.4c0,2.7,0,4.8,0,6.5s0.1,3,0.1,4
		c0.1,1,0.1,1.7,0.2,2.3c0.1,0.5,0.2,1,0.3,1.4c0.2,0.5,0.4,0.9,0.8,1.1c0.3,0.2,1,0.3,1.9,0.3c1.3,0,2-0.5,2.3-1.6
		c0.2-0.8,0.3-1.7,0.4-2.7c0.1-1,0.1-2.3,0.1-4c0-0.3,0-0.6,0-0.9s0-0.5-0.1-0.8h6.6L172.2,139L172.2,139z"/>
	<path class="st2" d="M187.3,155.8l-0.9-11h-4.5l-0.9,11h-7.1l4.5-43.9h12l4.2,43.9H187.3z M184.5,119.1H184l-1.7,18.7h3.9
		L184.5,119.1z"/>
	<path class="st2" d="M210.4,155.8c-0.1-0.2-0.2-0.5-0.2-0.7c-0.1-0.2-0.1-0.5-0.2-0.9c-0.1-0.4-0.1-0.9-0.2-1.5
		c-0.1-0.6-0.1-1.4-0.3-2.4c-0.1-1.1-0.2-2.4-0.3-3.9s-0.3-3.1-0.5-4.8c-0.2-1.6-0.5-2.6-0.8-3s-0.8-0.7-1.4-0.7h-1.9v17.8h-7.1
		v-43.9h11.3c1.7,0,3,0.2,4.1,0.6s2,1.1,2.6,2.1c0.6,0.9,1.1,2.2,1.3,3.7c0.3,1.5,0.4,3.3,0.4,5.5c0,2.4-0.1,4.3-0.3,5.7
		c-0.2,1.4-0.4,2.4-0.7,3.2c-0.3,0.7-0.7,1.2-1.1,1.5c-0.4,0.3-0.9,0.6-1.3,0.8v0.3c0.6,0.4,1,1,1.3,1.7s0.6,1.7,0.8,2.8
		c0.3,1.7,0.5,3.3,0.7,4.9c0.1,1.6,0.3,3.5,0.6,5.7c0.1,0.9,0.2,1.5,0.2,2.1c0.1,0.5,0.1,1,0.2,1.4c0.1,0.4,0.1,0.7,0.2,0.9
		c0.1,0.3,0.1,0.5,0.2,0.7v0.2h-7.6V155.8z M207,131.5c0.5,0,0.9,0,1.2-0.1c0.4-0.1,0.7-0.3,0.9-0.8c0.3-0.4,0.4-1.1,0.6-2.1
		s0.2-2.3,0.2-4c0-1.4-0.1-2.4-0.2-3.2s-0.3-1.3-0.6-1.7c-0.2-0.3-0.5-0.6-0.8-0.6c-0.3-0.1-0.7-0.1-1-0.1h-2.8v12.6H207z"/>
	<path class="st2" d="M220.7,155.8v-43.9H231c2.4,0,4.2,0.3,5.5,0.8c1.2,0.5,2.2,1.4,2.8,2.7c0.3,0.7,0.6,1.4,0.8,2.1
		s0.4,1.8,0.6,3.1c0.2,1.3,0.3,3,0.3,5.1s0.1,4.8,0.1,8.1c0,3.4,0,6.2-0.1,8.3s-0.2,3.8-0.3,5.1s-0.3,2.3-0.6,3.1
		c-0.2,0.8-0.5,1.4-0.8,2.1c-0.3,0.7-0.7,1.2-1.2,1.7c-0.5,0.4-1,0.8-1.7,1c-0.7,0.3-1.4,0.4-2.3,0.6c-0.9,0.1-1.9,0.2-3.1,0.2
		h-10.3V155.8z M230.9,148.3c0.8,0,1.3-0.1,1.7-0.3c0.3-0.2,0.6-0.6,0.8-1.1c0.1-0.3,0.2-0.8,0.3-1.2s0.1-1.2,0.2-2.1
		c0.1-0.9,0.1-2.1,0.1-3.7c0-1.6,0-3.6,0-6.2c0-2.5,0-4.6,0-6.1c0-1.6,0-2.8-0.1-3.7c0-0.9-0.1-1.6-0.2-2.1
		c-0.1-0.5-0.2-0.9-0.3-1.2c-0.2-0.5-0.5-0.9-0.8-1c-0.3-0.2-0.9-0.3-1.6-0.3h-3.1v29.1h3L230.9,148.3L230.9,148.3z"/>
	<path class="st2" d="M255.5,125.5c0-0.3,0.1-0.7,0.1-1.1s0-1,0-1.7c0-1.7-0.2-2.9-0.5-3.6s-1.1-1.1-2.3-1.1c-0.5,0-1,0-1.3,0.1
		s-0.6,0.3-0.8,0.7c-0.2,0.3-0.4,0.8-0.4,1.5c-0.1,0.6-0.1,1.5-0.1,2.5c0,0.9,0,1.7,0,2.2s0.1,1,0.1,1.3c0.1,0.3,0.2,0.6,0.3,0.8
		c0.2,0.2,0.4,0.5,0.7,0.7c0.5,0.4,1,0.8,1.7,1.2s1.4,0.8,2.1,1.2c0.7,0.4,1.4,0.7,2.1,1.1c0.7,0.4,1.2,0.7,1.7,1
		c0.7,0.5,1.3,0.9,1.7,1.4c0.4,0.5,0.8,1.1,1.1,1.8c0.3,0.8,0.5,1.7,0.6,3c0.1,1.2,0.1,2.8,0.1,4.8c0,2.7-0.2,4.9-0.5,6.6
		c-0.3,1.7-0.9,3.1-1.6,4c-0.8,1-1.8,1.6-3,2c-1.2,0.3-2.8,0.5-4.6,0.5c-1.6,0-3-0.1-4.1-0.4c-1.1-0.3-2-0.8-2.8-1.6
		c-0.7-0.8-1.3-1.9-1.6-3.3c-0.3-1.4-0.5-3.3-0.5-5.5c0-0.9,0-1.8,0.1-2.6s0.2-1.4,0.3-2h6c-0.1,0.3-0.1,0.7-0.1,1.1s0,0.9,0,1.4
		c0,1.2,0,2.2,0.1,2.9s0.3,1.3,0.5,1.7s0.5,0.7,0.9,0.8s0.8,0.2,1.4,0.2c0.6,0,1.1-0.1,1.5-0.2s0.7-0.4,0.9-0.8
		c0.2-0.4,0.4-1,0.5-1.8s0.1-1.9,0.1-3.3c0-0.8,0-1.5,0-1.9s-0.1-0.9-0.2-1.2c-0.1-0.3-0.2-0.6-0.4-0.8s-0.4-0.5-0.7-0.8
		c-0.5-0.5-1.1-1-1.9-1.5s-1.5-0.9-2.3-1.3c-0.8-0.4-1.6-0.9-2.4-1.3s-1.4-0.9-2-1.5c-0.5-0.4-0.9-0.9-1.2-1.3
		c-0.3-0.5-0.6-1.1-0.7-1.9s-0.3-1.8-0.3-3c-0.1-1.2-0.1-2.9-0.1-4.9c0-2.1,0.2-3.8,0.5-5.2c0.3-1.4,0.8-2.5,1.5-3.3
		s1.7-1.4,2.8-1.7c1.2-0.3,2.6-0.5,4.4-0.5c1.8,0,3.3,0.2,4.5,0.5c1.2,0.3,2.1,0.9,2.8,1.6s1.1,1.7,1.4,3c0.3,1.2,0.4,2.7,0.4,4.5
		c0,1.2,0,2.2-0.1,2.9c-0.1,0.7-0.2,1.3-0.3,1.9h-6.1V125.5z"/>
</g>
</svg>
