<?xml version="1.0" encoding="utf-8"?>
<!-- Generator: Adobe Illustrator 20.0.0, SVG Export Plug-In . SVG Version: 6.00 Build 0)  -->
<svg version="1.1" id="Layer_1" xmlns="http://www.w3.org/2000/svg" xmlns:xlink="http://www.w3.org/1999/xlink" x="0px" y="0px"
	 viewBox="0 0 400 220" style="enable-background:new 0 0 400 220;" xml:space="preserve">
<style type="text/css">
	.st0{fill:#2D2D2D;}
	.st1{fill:#FFFFFF;}
	.st2{opacity:0.66;fill:#161616;enable-background:new    ;}
</style>
<path class="st0" d="M377.5,211.9h-353c-6.6,0-12-5.4-12-12v-177c0-6.6,5.4-12,12-12h353c6.6,0,12,5.4,12,12v177
	C389.5,206.4,384.1,211.9,377.5,211.9z"/>
<g>
	<path class="st1" d="M49.4,90.6V49.7h15.2v6.8h-8.5v10.7h8.4v6.5h-8.4v16.8L49.4,90.6L49.4,90.6z"/>
	<path class="st1" d="M67.3,90.6V49.7h6.6v33.8h8v7.1H67.3z"/>
	<path class="st1" d="M95.8,90.6L95,80.3h-4.2L90,90.6h-6.6l4.2-40.9h11.2l3.9,40.9H95.8z M93.2,56.4h-0.5l-1.6,17.4h3.7L93.2,56.4z
		"/>
	<path class="st1" d="M115.2,62.4c0-0.3,0.1-0.6,0.1-1s0-0.9,0-1.5c0-1.6-0.2-2.7-0.5-3.4s-1-1-2.2-1c-0.5,0-0.9,0-1.2,0.1
		c-0.3,0.1-0.6,0.3-0.8,0.6c-0.2,0.3-0.3,0.8-0.4,1.4s-0.1,1.4-0.1,2.3s0,1.5,0,2.1c0,0.5,0.1,0.9,0.1,1.2c0.1,0.3,0.2,0.6,0.3,0.8
		c0.1,0.2,0.4,0.4,0.6,0.7c0.4,0.4,1,0.7,1.6,1.1s1.3,0.7,1.9,1.1c0.7,0.3,1.3,0.7,2,1c0.6,0.3,1.2,0.7,1.6,0.9
		c0.6,0.4,1.2,0.9,1.6,1.3s0.7,1,1,1.7s0.4,1.6,0.5,2.8c0.1,1.1,0.1,2.6,0.1,4.5c0,2.5-0.2,4.6-0.5,6.2s-0.8,2.9-1.5,3.8
		s-1.6,1.5-2.8,1.8c-1.2,0.3-2.6,0.5-4.3,0.5c-1.5,0-2.8-0.1-3.8-0.4s-1.9-0.8-2.6-1.5s-1.2-1.8-1.5-3.1c-0.3-1.3-0.5-3-0.5-5.2
		c0-0.9,0-1.7,0.1-2.4c0.1-0.7,0.2-1.3,0.3-1.8h5.6c-0.1,0.3-0.1,0.6-0.1,1s0,0.8,0,1.4c0,1.1,0,2,0.1,2.7s0.2,1.2,0.4,1.6
		c0.2,0.4,0.5,0.6,0.8,0.8c0.3,0.1,0.8,0.2,1.3,0.2s1-0.1,1.4-0.2s0.6-0.4,0.9-0.7s0.4-0.9,0.5-1.7c0.1-0.7,0.1-1.8,0.1-3.1
		c0-0.8,0-1.4,0-1.8s-0.1-0.8-0.2-1.1c-0.1-0.3-0.2-0.6-0.4-0.8c-0.2-0.2-0.4-0.5-0.6-0.8c-0.5-0.5-1.1-0.9-1.8-1.4
		c-0.7-0.4-1.4-0.8-2.2-1.2c-0.8-0.4-1.5-0.8-2.2-1.2c-0.7-0.4-1.3-0.9-1.8-1.4c-0.4-0.4-0.8-0.8-1.1-1.2c-0.3-0.4-0.5-1-0.7-1.7
		s-0.3-1.7-0.3-2.8c-0.1-1.2-0.1-2.7-0.1-4.5c0-1.9,0.1-3.6,0.4-4.8c0.3-1.3,0.8-2.3,1.4-3.1c0.7-0.8,1.5-1.3,2.6-1.6
		s2.5-0.5,4.1-0.5c1.7,0,3.1,0.2,4.2,0.5s2,0.8,2.6,1.5s1.1,1.6,1.3,2.8c0.2,1.1,0.4,2.5,0.4,4.2c0,1.2,0,2.1-0.1,2.7
		c-0.1,0.7-0.2,1.3-0.3,1.8h-5.3V62.4z"/>
	<path class="st1" d="M137,90.6V73h-5.7v17.7h-6.8v-41h6.8v16.8h5.7V49.7h6.8v40.9C143.8,90.6,137,90.6,137,90.6z"/>
	<path class="st1" d="M174.4,75c0.1,0.5,0.1,1,0.1,1.5s0,1.2,0,2.1c0,2.2-0.1,4-0.4,5.6c-0.2,1.6-0.7,2.9-1.3,3.9s-1.6,1.8-2.7,2.3
		c-1.2,0.5-2.7,0.8-4.6,0.8c-2.3,0-4-0.2-5.2-0.7s-2.1-1.4-2.7-2.6c-0.3-0.6-0.5-1.3-0.8-2.1c-0.2-0.8-0.4-1.9-0.5-3.2
		c-0.1-1.3-0.2-3-0.3-5.1s-0.1-4.7-0.1-7.8c0-3.4,0-6.1,0.1-8.2s0.2-3.7,0.4-4.9c0.1-1.2,0.3-2.1,0.5-2.8c0.2-0.6,0.4-1.2,0.7-1.7
		c0.6-1.2,1.5-2.1,2.6-2.6s2.8-0.7,5.1-0.7c2.1,0,3.6,0.2,4.7,0.6c1.1,0.4,1.9,1,2.5,1.9c1.3,1.8,1.9,5.1,1.9,9.9c0,0.9,0,1.5,0,1.9
		s0,0.9-0.1,1.4H168c0-0.4,0.1-0.8,0.1-1.2s0-1,0-1.7c0-1.2-0.1-2.3-0.2-3.2c-0.1-0.9-0.3-1.5-0.4-1.9c-0.2-0.4-0.4-0.6-0.7-0.8
		s-0.7-0.3-1.4-0.3s-1.2,0.1-1.5,0.3s-0.5,0.5-0.7,1.1c-0.1,0.4-0.2,0.8-0.3,1.2c-0.1,0.5-0.1,1.1-0.2,2c-0.1,0.9-0.1,2.1-0.1,3.6
		c0,1.5,0,3.5,0,5.9c0,2.5,0,4.5,0,6s0.1,2.8,0.1,3.7c0.1,0.9,0.1,1.6,0.2,2.1c0.1,0.5,0.2,0.9,0.3,1.3c0.1,0.5,0.4,0.9,0.7,1.1
		s0.9,0.3,1.7,0.3c1.2,0,1.9-0.5,2.1-1.5c0.2-0.7,0.3-1.5,0.4-2.5c0.1-0.9,0.1-2.2,0.1-3.7c0-0.3,0-0.6,0-0.8c0-0.2,0-0.5-0.1-0.8
		h6.3L174.4,75L174.4,75z"/>
	<path class="st1" d="M188.5,90.6l-0.8-10.3h-4.2l-0.8,10.3h-6.6l4.2-40.9h11.2l3.9,40.9H188.5z M185.8,56.4h-0.5l-1.6,17.4h3.7
		L185.8,56.4z"/>
	<path class="st1" d="M210,90.6c-0.1-0.2-0.1-0.4-0.2-0.6s-0.1-0.5-0.2-0.8c-0.1-0.3-0.1-0.8-0.2-1.4c-0.1-0.6-0.1-1.3-0.2-2.2
		c-0.1-1-0.2-2.2-0.3-3.6s-0.2-2.8-0.5-4.4c-0.2-1.5-0.5-2.4-0.8-2.8s-0.7-0.6-1.3-0.6h-1.8v16.6h-6.6V49.7h10.5
		c1.5,0,2.8,0.2,3.9,0.6c1,0.4,1.8,1,2.4,1.9c0.6,0.9,1,2,1.2,3.4s0.4,3.1,0.4,5.1c0,2.3-0.1,4-0.2,5.3c-0.2,1.3-0.4,2.3-0.7,2.9
		c-0.3,0.7-0.6,1.2-1,1.4c-0.4,0.3-0.8,0.5-1.2,0.7v0.3c0.5,0.4,1,0.9,1.2,1.6c0.3,0.7,0.5,1.6,0.8,2.6c0.3,1.5,0.5,3.1,0.6,4.6
		s0.3,3.3,0.5,5.3c0.1,0.8,0.1,1.4,0.2,1.9c0.1,0.5,0.1,0.9,0.2,1.3c0.1,0.3,0.1,0.6,0.2,0.9c0.1,0.2,0.1,0.5,0.2,0.7v0.2H210V90.6z
		 M206.8,68c0.4,0,0.8,0,1.2-0.1c0.3-0.1,0.6-0.3,0.9-0.7c0.2-0.4,0.4-1.1,0.5-1.9c0.1-0.9,0.2-2.1,0.2-3.8c0-1.3-0.1-2.2-0.2-2.9
		c-0.1-0.7-0.3-1.2-0.5-1.5s-0.5-0.5-0.8-0.6s-0.6-0.1-0.9-0.1h-2.6v11.7L206.8,68L206.8,68z"/>
	<path class="st1" d="M219.5,90.6V49.7h9.7c2.2,0,3.9,0.2,5.1,0.7c1.2,0.5,2,1.3,2.6,2.5c0.3,0.6,0.6,1.3,0.8,2s0.4,1.7,0.5,2.9
		s0.2,2.8,0.3,4.8c0.1,1.9,0.1,4.5,0.1,7.6c0,3.2,0,5.7-0.1,7.7s-0.2,3.6-0.3,4.8c-0.1,1.2-0.3,2.2-0.5,2.9s-0.5,1.3-0.8,1.9
		s-0.6,1.1-1.1,1.5c-0.4,0.4-1,0.7-1.6,1c-0.6,0.2-1.3,0.4-2.2,0.5c-0.8,0.1-1.8,0.2-2.9,0.2L219.5,90.6L219.5,90.6z M229,83.6
		c0.7,0,1.2-0.1,1.5-0.3c0.3-0.2,0.5-0.5,0.7-1c0.1-0.3,0.2-0.7,0.2-1.1c0.1-0.4,0.1-1.1,0.2-1.9c0.1-0.8,0.1-2,0.1-3.5s0-3.4,0-5.8
		c0-2.3,0-4.2,0-5.7s0-2.6-0.1-3.5c0-0.9-0.1-1.5-0.2-2c-0.1-0.4-0.2-0.8-0.3-1.2c-0.2-0.5-0.4-0.8-0.8-1c-0.3-0.2-0.8-0.3-1.5-0.3
		h-2.9v27.1h3.1V83.6z"/>
</g>
<g>
	<path class="st1" d="M68,131.7l-2.3-20.4h-0.5l-2.5,20.4H53l-3-33.3h7l1.5,22.7H59l3-22.7h7l3.1,22.7h0.5L74,98.4h6.6l-2.9,33.3H68
		z"/>
	<path class="st1" d="M82.8,131.7V98.4h7.1v33.3H82.8z"/>
	<path class="st1" d="M93,131.7V98.4h6.9v25.9h7.1v7.4H93z"/>
	<path class="st1" d="M109.1,131.7V98.4h6.9v25.9h7.1v7.4H109.1z"/>
	<path class="st1" d="M143.4,108.7c0-0.2,0-0.4,0-0.6s0-0.4,0-0.9c0-1-0.1-1.7-0.4-2.1c-0.2-0.4-0.8-0.6-1.6-0.6
		c-0.9,0-1.4,0.2-1.6,0.6c-0.2,0.4-0.4,1.1-0.4,2.1s0.1,1.6,0.4,2c0.2,0.4,0.7,0.8,1.2,1.1c0.6,0.4,1.3,0.7,1.8,1
		c0.6,0.3,1.1,0.5,1.6,0.7s0.9,0.4,1.4,0.6c0.4,0.2,0.9,0.5,1.3,0.7c0.5,0.4,0.9,0.7,1.3,1.1c0.4,0.4,0.7,0.9,0.9,1.5
		s0.4,1.4,0.5,2.3s0.2,2.1,0.2,3.5c0,2-0.1,3.7-0.4,5c-0.3,1.3-0.7,2.4-1.4,3.2s-1.6,1.4-2.7,1.7c-1.1,0.3-2.5,0.5-4.2,0.5
		c-2.8,0-4.8-0.5-6.1-1.6c-1.3-1-1.9-2.9-1.9-5.5c0-0.9,0-1.7,0.1-2.6s0.1-1.6,0.3-2.1h5.8c-0.1,0.2-0.1,0.4-0.1,0.6s0,0.4,0,0.7
		c0,1.3,0.1,2.2,0.4,2.7c0.3,0.5,0.8,0.7,1.7,0.7s1.5-0.2,1.7-0.6s0.4-1.3,0.4-2.8c0-0.9-0.1-1.5-0.4-1.9c-0.3-0.4-0.7-0.9-1.3-1.3
		c-0.5-0.4-1.1-0.7-1.7-1c-0.6-0.3-1.2-0.6-1.8-0.8c-0.6-0.3-1.2-0.5-1.7-0.9c-0.6-0.3-1.1-0.7-1.5-1.1c-0.9-0.8-1.5-1.9-1.6-3.3
		c-0.2-1.4-0.3-3.2-0.3-5.4c0-1.6,0.1-2.9,0.4-3.9c0.2-1.1,0.7-1.9,1.3-2.6s1.5-1.1,2.5-1.4c1.1-0.3,2.4-0.4,4-0.4
		c1.5,0,2.8,0.1,3.8,0.4c1,0.2,1.8,0.6,2.5,1.2c0.6,0.6,1.1,1.3,1.4,2.3c0.3,0.9,0.4,2.1,0.4,3.5c0,0.9,0,1.6-0.1,2.2
		s-0.1,1-0.3,1.4h-5.8L143.4,108.7L143.4,108.7z"/>
	<path class="st1" d="M163.7,131.7V118h-4.3v13.7h-7.1V98.4h7.1v12.9h4.3V98.4h7.1v33.3H163.7z"/>
	<path class="st1" d="M189.5,129.5c-0.3,0.5-0.6,1-1,1.3s-0.9,0.6-1.5,0.8s-1.3,0.4-2.1,0.5s-1.7,0.1-2.8,0.1
		c-2.1,0-3.8-0.2-4.9-0.6s-1.9-1.1-2.5-2.1c-0.3-0.5-0.5-1-0.7-1.7c-0.2-0.6-0.4-1.4-0.5-2.4s-0.2-2.4-0.3-4
		c-0.1-1.7-0.1-3.8-0.1-6.4s0-4.7,0.1-6.4c0.1-1.6,0.2-3,0.3-4s0.3-1.8,0.5-2.4s0.5-1.1,0.7-1.7c0.3-0.5,0.6-0.9,1-1.3
		s0.9-0.6,1.5-0.9c0.6-0.2,1.3-0.4,2.1-0.5s1.7-0.1,2.8-0.1c2.1,0,3.7,0.2,4.8,0.6s1.9,1.1,2.5,2.1c0.3,0.5,0.5,1.1,0.7,1.7
		s0.4,1.4,0.5,2.4s0.2,2.4,0.3,4s0.1,3.8,0.1,6.4s0,4.7-0.1,6.4c-0.1,1.7-0.2,3-0.3,4s-0.3,1.8-0.5,2.4
		C190,128.5,189.8,129,189.5,129.5z M183.9,124c0.1-0.2,0.1-0.5,0.2-0.8c0.1-0.3,0.1-0.8,0.1-1.5c0-0.6,0.1-1.5,0.1-2.6s0-2.5,0-4.3
		s0-3.3,0-4.4s0-2-0.1-2.7c0-0.7-0.1-1.2-0.1-1.5c-0.1-0.3-0.1-0.6-0.2-0.8c-0.1-0.3-0.3-0.5-0.5-0.6s-0.6-0.2-1.2-0.2
		s-1,0.1-1.2,0.2s-0.4,0.3-0.5,0.6c-0.1,0.2-0.2,0.5-0.2,0.8s-0.1,0.8-0.1,1.5s-0.1,1.5-0.1,2.7c0,1.1,0,2.6,0,4.4s0,3.2,0,4.3
		c0,1.1,0,2,0.1,2.6s0.1,1.1,0.1,1.5c0,0.3,0.1,0.6,0.2,0.8c0.1,0.3,0.3,0.5,0.5,0.6s0.7,0.2,1.2,0.2s1-0.1,1.2-0.2
		S183.7,124.3,183.9,124z"/>
	<path class="st1" d="M210.2,131.7l-2.3-20.4h-0.5l-2.5,20.4h-9.8l-2.9-33.3h7l1.5,22.7h0.5l3-22.7h7l3.1,22.7h0.5l1.5-22.7h6.6
		l-2.9,33.3H210.2z"/>
	<path class="st1" d="M70.8,171.7v-20h-0.3l-5.1,20h-3l-5.1-20H57v20h-6.3v-33.3h9.8l3.1,14.5H64l3.4-14.5h9.7v33.3H70.8z"/>
	<path class="st1" d="M95.9,169.5c-0.3,0.5-0.6,1-1,1.3s-0.9,0.6-1.5,0.8s-1.3,0.4-2.1,0.5s-1.7,0.1-2.8,0.1c-2.1,0-3.8-0.2-4.9-0.6
		s-1.9-1.1-2.5-2.1c-0.3-0.5-0.5-1-0.7-1.7c-0.2-0.6-0.4-1.4-0.5-2.4s-0.2-2.4-0.3-4c-0.1-1.7-0.1-3.8-0.1-6.4c0-2.6,0-4.7,0.1-6.4
		c0.1-1.6,0.2-3,0.3-4c0.1-1,0.3-1.8,0.5-2.4c0.2-0.6,0.5-1.1,0.7-1.7c0.3-0.5,0.6-0.9,1-1.3s0.9-0.6,1.5-0.9
		c0.6-0.2,1.3-0.4,2.1-0.5c0.8-0.1,1.7-0.1,2.8-0.1c2.1,0,3.7,0.2,4.8,0.6c1.1,0.4,1.9,1.1,2.5,2.1c0.3,0.5,0.5,1.1,0.7,1.7
		c0.2,0.6,0.4,1.4,0.5,2.4s0.2,2.4,0.3,4c0.1,1.6,0.1,3.8,0.1,6.4c0,2.6,0,4.7-0.1,6.4s-0.2,3-0.3,4c-0.1,1-0.3,1.8-0.5,2.4
		C96.5,168.5,96.2,169,95.9,169.5z M90.3,164c0.1-0.2,0.1-0.5,0.2-0.8s0.1-0.8,0.1-1.5c0-0.6,0.1-1.5,0.1-2.6s0-2.5,0-4.3
		s0-3.3,0-4.4c0-1.1,0-2-0.1-2.7c0-0.7-0.1-1.2-0.1-1.5c-0.1-0.3-0.1-0.6-0.2-0.8c-0.1-0.3-0.3-0.5-0.5-0.6s-0.6-0.2-1.2-0.2
		s-1,0.1-1.2,0.2c-0.2,0.1-0.4,0.3-0.5,0.6c-0.1,0.2-0.2,0.5-0.2,0.8s-0.1,0.8-0.1,1.5s-0.1,1.5-0.1,2.7c0,1.1,0,2.6,0,4.4
		c0,1.8,0,3.2,0,4.3s0,2,0.1,2.6s0.1,1.1,0.1,1.5c0,0.3,0.1,0.6,0.2,0.8c0.1,0.3,0.3,0.5,0.5,0.6s0.7,0.2,1.2,0.2s1-0.1,1.2-0.2
		S90.2,164.3,90.3,164z"/>
	<path class="st1" d="M110.9,171.7c-0.1-0.3-0.2-0.5-0.2-0.9c-0.1-0.3-0.2-0.8-0.2-1.4c-0.1-0.6-0.2-1.5-0.4-2.6
		c-0.1-1.1-0.3-2.6-0.5-4.6c-0.1-0.8-0.2-1.4-0.3-1.8c-0.1-0.5-0.2-0.8-0.3-1.1c-0.1-0.2-0.3-0.4-0.4-0.5c-0.2-0.1-0.4-0.1-0.6-0.1
		h-1.1v13H100v-33.3h10.1c1.5,0,2.7,0.2,3.7,0.5s1.7,0.9,2.3,1.6c0.6,0.7,1,1.6,1.2,2.8c0.2,1.1,0.3,2.5,0.3,4.1
		c0,1.7-0.1,3.1-0.2,4.1s-0.3,1.8-0.5,2.3c-0.2,0.6-0.6,1-0.9,1.3c-0.4,0.3-0.8,0.5-1.2,0.8v0.3c0.2,0.1,0.4,0.3,0.6,0.5
		s0.4,0.5,0.5,0.9c0.2,0.5,0.5,1.3,0.7,2.4c0.2,1.1,0.5,2.6,0.7,4.5c0.2,1.3,0.3,2.4,0.4,3.3c0.1,0.8,0.2,1.5,0.2,2
		c0.1,0.5,0.1,0.9,0.2,1.1c0,0.3,0.1,0.5,0.2,0.7v0.2h-7.4L110.9,171.7L110.9,171.7z M108.8,152.5c0.6,0,1.1-0.3,1.4-0.8
		s0.4-1.6,0.4-3.1c0-1.3-0.2-2.2-0.5-2.6c-0.3-0.4-0.8-0.7-1.5-0.7h-1.8v7.3L108.8,152.5L108.8,152.5z"/>
	<path class="st1" d="M120.3,171.7v-33.3H135v7h-7.8v5.9h7.7v6.7h-7.7v6.3h7.8v7.4L120.3,171.7L120.3,171.7z"/>
	<path class="st1" d="M162.4,169.5c-0.3,0.5-0.6,1-1,1.3s-0.9,0.6-1.5,0.8s-1.3,0.4-2.1,0.5s-1.7,0.1-2.8,0.1
		c-2.1,0-3.8-0.2-4.9-0.6s-1.9-1.1-2.5-2.1c-0.3-0.5-0.5-1-0.7-1.7c-0.2-0.6-0.4-1.4-0.5-2.4s-0.2-2.4-0.3-4
		c-0.1-1.7-0.1-3.8-0.1-6.4c0-2.6,0-4.7,0.1-6.4c0.1-1.6,0.2-3,0.3-4s0.3-1.8,0.5-2.4c0.2-0.6,0.5-1.1,0.7-1.7
		c0.3-0.5,0.6-0.9,1-1.3s0.9-0.6,1.5-0.9c0.6-0.2,1.3-0.4,2.1-0.5s1.7-0.1,2.8-0.1c2.1,0,3.7,0.2,4.8,0.6c1.1,0.4,1.9,1.1,2.5,2.1
		c0.3,0.5,0.5,1.1,0.7,1.7c0.2,0.6,0.4,1.4,0.5,2.4s0.2,2.4,0.3,4s0.1,3.8,0.1,6.4c0,2.6,0,4.7-0.1,6.4s-0.2,3-0.3,4
		s-0.3,1.8-0.5,2.4C162.9,168.5,162.7,169,162.4,169.5z M156.8,164c0.1-0.2,0.1-0.5,0.2-0.8c0.1-0.3,0.1-0.8,0.1-1.5
		c0-0.6,0.1-1.5,0.1-2.6s0-2.5,0-4.3s0-3.3,0-4.4c0-1.1,0-2-0.1-2.7c0-0.7-0.1-1.2-0.1-1.5c-0.1-0.3-0.1-0.6-0.2-0.8
		c-0.1-0.3-0.3-0.5-0.5-0.6s-0.6-0.2-1.2-0.2s-1,0.1-1.2,0.2c-0.2,0.1-0.4,0.3-0.5,0.6c-0.1,0.2-0.2,0.5-0.2,0.8s-0.1,0.8-0.1,1.5
		s-0.1,1.5-0.1,2.7c0,1.1,0,2.6,0,4.4c0,1.8,0,3.2,0,4.3s0,2,0.1,2.6s0.1,1.1,0.1,1.5c0,0.3,0.1,0.6,0.2,0.8
		c0.1,0.3,0.3,0.5,0.5,0.6s0.7,0.2,1.2,0.2s1-0.1,1.2-0.2S156.6,164.3,156.8,164z"/>
	<path class="st1" d="M166.5,171.7v-33.3H181v7h-7.6v6.6h7.5v6.8h-7.5v12.8L166.5,171.7L166.5,171.7z"/>
	<path class="st1" d="M187.6,171.7v-26.3h-5.2v-7h17.4v7h-5.2v26.3H187.6z"/>
	<path class="st1" d="M201.8,171.7v-33.3h14.7v7h-7.8v5.9h7.7v6.7h-7.7v6.3h7.8v7.4L201.8,171.7L201.8,171.7z"/>
	<path class="st1" d="M233.7,171.7l-7.9-17.9h-0.3v17.9h-6.3v-33.3h6.8l4.7,11.6h0.3v-11.6h6.3v33.3H233.7z"/>
</g>
<g>
	<path class="st2" d="M312.9,59.3c-0.2,0-0.4,0-0.6,0c-13.2,0-25.2,5.2-34,13.8c-8.5,8.8-13.8,20.8-13.8,34
		c0,22.5,15.1,41.4,35.8,47.1c4,1.1,8.2,1.8,12.6,1.8c0.2,0,0.4,0,0.6,0c13.2,0,25.2-5.2,34-13.8c7.5-7.7,12.4-17.9,13.5-29.2
		c0.2-1.6,0.2-3.2,0.2-4.8C361.1,81.6,339.6,59.7,312.9,59.3z"/>
</g>
<g>
	<g>
		<g>
			<path class="st1" d="M304.4,83.5c0-1,0.2-1.7,1-2.5c0.7-0.7,1.5-1,2.5-1h10.5c1,0,1.7,0.2,2.5,1c0.7,0.7,1,1.5,1,2.5v14.2
				c0,0.5,0.2,1,1,1h13.9c1,0,1.7,0.2,2.5,1c0.7,0.7,1,1.5,1,2.5v10.5c0,1-0.2,1.7-1,2.5c-0.7,0.7-1.5,1-2.5,1h-13.9
				c-0.5,0-1,0.2-1,1V131c0,1-0.2,1.7-1,2.5c-0.7,0.7-1.5,1-2.5,1h-10.5c-1,0-1.7-0.2-2.5-1c-0.7-0.7-1-1.5-1-2.5v-13.9
				c0-0.5-0.2-1-1-1h-13.9c-1,0-1.7-0.2-2.5-1s-1-1.5-1-2.5v-10.5c0-1,0.2-1.7,1-2.5c0.7-0.7,1.5-1,2.5-1h13.9c0.5,0,1-0.2,1-1V83.5
				z"/>
		</g>
	</g>
</g>
</svg>
