<?xml version="1.0" encoding="utf-8"?>
<!-- Generator: Adobe Illustrator 20.0.0, SVG Export Plug-In . SVG Version: 6.00 Build 0)  -->
<svg version="1.1" id="Layer_1" xmlns="http://www.w3.org/2000/svg" xmlns:xlink="http://www.w3.org/1999/xlink" x="0px" y="0px"
	 viewBox="0 0 400 220" style="enable-background:new 0 0 400 220;" xml:space="preserve">
<style type="text/css">
	.st0{fill:#5FB75F;}
	.st1{opacity:0.17;fill:#161616;enable-background:new    ;}
	.st2{fill:#FFFFFF;}
</style>
<path class="st0" d="M377.5,211.9h-353c-6.6,0-12-5.4-12-12v-177c0-6.6,5.4-12,12-12h353c6.6,0,12,5.4,12,12v177
	C389.5,206.4,384.1,211.9,377.5,211.9z"/>
<path class="st1" d="M311,58.6c-0.2,0-0.4,0-0.6,0c-13.2,0-25.2,5.2-34,13.8c-8.5,8.8-13.8,20.8-13.8,34c0,22.5,15.1,41.4,35.8,47.1
	c4,1.1,8.2,1.8,12.6,1.8c0.2,0,0.4,0,0.6,0c13.2,0,25.2-5.2,34-13.8c7.5-7.7,12.4-17.9,13.5-29.2c0.2-1.6,0.2-3.2,0.2-4.8
	C359.2,80.8,337.7,59,311,58.6z"/>
<path class="st2" d="M342.2,91.7l-5.1-5.3c-1.1-1.1-3.4-0.7-5.1,0.8l-27.8,24.3l-14.8-15.6c-1.1-1.2-2.9-1.2-4-0.2l-5.4,5.1
	c-1.1,1-1.1,2.8,0,4l15.3,16.2l6.1,6.4c0.7,0.7,1.7,1,2.6,0.9c0.4-0.1,0.8-0.3,1.2-0.6c0.3-0.2,0.6-0.4,0.9-0.6L341,96.5
	C342.7,94.8,343.2,92.8,342.2,91.7z"/>
<g>
	<path class="st2" d="M49.1,103.4V62.5h15.2v6.8h-8.5V80h8.4v6.5h-8.4v16.8L49.1,103.4L49.1,103.4z"/>
	<path class="st2" d="M67,103.4V62.5h6.6v33.8h8v7.1H67z"/>
	<path class="st2" d="M95.5,103.4l-0.8-10.3h-4.2l-0.8,10.3H83l4.2-40.9h11.2l3.9,40.9H95.5z M92.9,69.2h-0.5l-1.6,17.4h3.7
		L92.9,69.2z"/>
	<path class="st2" d="M114.9,75.2c0-0.3,0.1-0.6,0.1-1s0-0.9,0-1.5c0-1.6-0.2-2.7-0.5-3.4c-0.3-0.7-1-1-2.2-1c-0.5,0-0.9,0-1.2,0.1
		c-0.3,0.1-0.6,0.3-0.8,0.6c-0.2,0.3-0.3,0.8-0.4,1.4s-0.1,1.4-0.1,2.3s0,1.5,0,2.1c0,0.5,0.1,0.9,0.1,1.2c0.1,0.3,0.2,0.6,0.3,0.8
		c0.1,0.2,0.4,0.4,0.6,0.7c0.4,0.4,1,0.7,1.6,1.1s1.3,0.7,1.9,1.1c0.7,0.3,1.3,0.7,2,1c0.6,0.3,1.2,0.7,1.6,0.9
		c0.6,0.4,1.2,0.9,1.6,1.3s0.7,1,1,1.7s0.4,1.6,0.5,2.8c0.1,1.1,0.1,2.6,0.1,4.5c0,2.5-0.2,4.6-0.5,6.2s-0.8,2.9-1.5,3.8
		s-1.6,1.5-2.8,1.8c-1.2,0.3-2.6,0.5-4.3,0.5c-1.5,0-2.8-0.1-3.8-0.4s-1.9-0.8-2.6-1.5s-1.2-1.8-1.5-3.1c-0.3-1.3-0.5-3-0.5-5.2
		c0-0.9,0-1.7,0.1-2.4c0.1-0.7,0.2-1.3,0.3-1.8h5.6c-0.1,0.3-0.1,0.6-0.1,1s0,0.8,0,1.4c0,1.1,0,2,0.1,2.7s0.2,1.2,0.4,1.6
		c0.2,0.4,0.5,0.6,0.8,0.8c0.3,0.1,0.8,0.2,1.3,0.2s1-0.1,1.4-0.2s0.6-0.4,0.9-0.7s0.4-0.9,0.5-1.7c0.1-0.7,0.1-1.8,0.1-3.1
		c0-0.8,0-1.4,0-1.8s-0.1-0.8-0.2-1.1c-0.1-0.3-0.2-0.6-0.4-0.8c-0.2-0.2-0.4-0.5-0.6-0.8c-0.5-0.5-1.1-0.9-1.8-1.4
		c-0.7-0.4-1.4-0.8-2.2-1.2c-0.8-0.4-1.5-0.8-2.2-1.2c-0.7-0.4-1.3-0.9-1.8-1.4c-0.4-0.4-0.8-0.8-1.1-1.2c-0.3-0.4-0.5-1-0.7-1.7
		s-0.3-1.7-0.3-2.8c-0.1-1.2-0.1-2.7-0.1-4.5c0-1.9,0.1-3.6,0.4-4.8c0.3-1.3,0.8-2.3,1.4-3.1c0.7-0.8,1.5-1.3,2.6-1.6
		s2.5-0.5,4.1-0.5c1.7,0,3.1,0.2,4.2,0.5s2,0.8,2.6,1.5c0.6,0.7,1.1,1.6,1.3,2.8c0.2,1.1,0.4,2.5,0.4,4.2c0,1.2,0,2.1-0.1,2.7
		c-0.1,0.7-0.2,1.3-0.3,1.8h-5.3V75.2z"/>
	<path class="st2" d="M136.7,103.4V85.7H131v17.7h-6.8V62.5h6.8v16.8h5.7V62.5h6.8v40.9H136.7z"/>
	<path class="st2" d="M174.1,87.7c0.1,0.5,0.1,1,0.1,1.5s0,1.2,0,2.1c0,2.2-0.1,4-0.4,5.6c-0.2,1.6-0.7,2.9-1.3,3.9
		s-1.6,1.8-2.7,2.3c-1.2,0.5-2.7,0.8-4.6,0.8c-2.3,0-4-0.2-5.2-0.7s-2.1-1.4-2.7-2.6c-0.3-0.6-0.5-1.3-0.8-2.1
		c-0.2-0.8-0.4-1.9-0.5-3.2c-0.1-1.3-0.2-3-0.3-5.1s-0.1-4.7-0.1-7.8c0-3.4,0-6.1,0.1-8.2s0.2-3.7,0.4-4.9c0.1-1.2,0.3-2.1,0.5-2.8
		c0.2-0.6,0.4-1.2,0.7-1.7c0.6-1.2,1.5-2.1,2.6-2.6s2.8-0.7,5.1-0.7c2.1,0,3.6,0.2,4.7,0.6c1.1,0.4,1.9,1,2.5,1.9
		c1.3,1.8,1.9,5.1,1.9,9.9c0,0.9,0,1.5,0,1.9s0,0.9-0.1,1.4h-6.3c0-0.4,0.1-0.8,0.1-1.2c0-0.4,0-1,0-1.7c0-1.2-0.1-2.3-0.2-3.2
		c-0.1-0.9-0.3-1.5-0.4-1.9c-0.2-0.4-0.4-0.6-0.7-0.8c-0.3-0.2-0.7-0.3-1.4-0.3s-1.2,0.1-1.5,0.3c-0.3,0.2-0.5,0.5-0.7,1.1
		c-0.1,0.4-0.2,0.8-0.3,1.2c-0.1,0.5-0.1,1.1-0.2,2c-0.1,0.9-0.1,2.1-0.1,3.6s0,3.5,0,5.9c0,2.5,0,4.5,0,6s0.1,2.8,0.1,3.7
		c0.1,0.9,0.1,1.6,0.2,2.1c0.1,0.5,0.2,0.9,0.3,1.3c0.1,0.5,0.4,0.9,0.7,1.1s0.9,0.3,1.7,0.3c1.2,0,1.9-0.5,2.1-1.5
		c0.2-0.7,0.3-1.5,0.4-2.5c0.1-0.9,0.1-2.2,0.1-3.7c0-0.3,0-0.6,0-0.8c0-0.2,0-0.5-0.1-0.8h6.3L174.1,87.7L174.1,87.7z"/>
	<path class="st2" d="M188.2,103.4l-0.8-10.3h-4.2l-0.8,10.3h-6.6l4.2-40.9h11.2l3.9,40.9H188.2z M185.5,69.2H185l-1.6,17.4h3.7
		L185.5,69.2z"/>
	<path class="st2" d="M209.7,103.4c-0.1-0.2-0.1-0.4-0.2-0.6s-0.1-0.5-0.2-0.8c-0.1-0.3-0.1-0.8-0.2-1.4c-0.1-0.6-0.1-1.3-0.2-2.2
		c-0.1-1-0.2-2.2-0.3-3.6s-0.2-2.8-0.5-4.4c-0.2-1.5-0.5-2.4-0.8-2.8S206.6,87,206,87h-1.8v16.6h-6.6V62.5h10.5
		c1.5,0,2.8,0.2,3.9,0.6c1,0.4,1.8,1,2.4,1.9c0.6,0.9,1,2,1.2,3.4s0.4,3.1,0.4,5.1c0,2.3-0.1,4-0.2,5.3c-0.2,1.3-0.4,2.3-0.7,2.9
		c-0.3,0.7-0.6,1.2-1,1.4c-0.4,0.3-0.8,0.5-1.2,0.7v0.3c0.5,0.4,1,0.9,1.2,1.6c0.3,0.7,0.5,1.6,0.8,2.6c0.3,1.5,0.5,3.1,0.6,4.6
		s0.3,3.3,0.5,5.3c0.1,0.8,0.1,1.4,0.2,1.9c0.1,0.5,0.1,0.9,0.2,1.3c0.1,0.3,0.1,0.6,0.2,0.9c0.1,0.2,0.1,0.5,0.2,0.7v0.2h-7.1
		L209.7,103.4L209.7,103.4z M206.5,80.8c0.4,0,0.8,0,1.2-0.1c0.3-0.1,0.6-0.3,0.9-0.7c0.2-0.4,0.4-1.1,0.5-1.9
		c0.1-0.9,0.2-2.1,0.2-3.8c0-1.3-0.1-2.2-0.2-2.9c-0.1-0.7-0.3-1.2-0.5-1.5s-0.5-0.5-0.8-0.6s-0.6-0.1-0.9-0.1h-2.6v11.7L206.5,80.8
		L206.5,80.8z"/>
	<path class="st2" d="M219.2,103.4V62.5h9.7c2.2,0,3.9,0.2,5.1,0.7c1.2,0.5,2,1.3,2.6,2.5c0.3,0.6,0.6,1.3,0.8,2s0.4,1.7,0.5,2.9
		c0.1,1.2,0.2,2.8,0.3,4.8c0.1,1.9,0.1,4.5,0.1,7.6c0,3.2,0,5.7-0.1,7.7s-0.2,3.6-0.3,4.8c-0.1,1.2-0.3,2.2-0.5,2.9
		s-0.5,1.3-0.8,1.9s-0.6,1.1-1.1,1.5c-0.4,0.4-1,0.7-1.6,1c-0.6,0.2-1.3,0.4-2.2,0.5c-0.8,0.1-1.8,0.2-2.9,0.2L219.2,103.4
		L219.2,103.4z M228.7,96.3c0.7,0,1.2-0.1,1.5-0.3c0.3-0.2,0.5-0.5,0.7-1c0.1-0.3,0.2-0.7,0.2-1.1c0.1-0.4,0.1-1.1,0.2-1.9
		c0.1-0.8,0.1-2,0.1-3.5s0-3.4,0-5.8c0-2.3,0-4.2,0-5.7s0-2.6-0.1-3.5c0-0.9-0.1-1.5-0.2-2c-0.1-0.4-0.2-0.8-0.3-1.2
		c-0.2-0.5-0.4-0.8-0.8-1c-0.3-0.2-0.8-0.3-1.5-0.3h-2.9v27.1h3.1V96.3z"/>
	<path class="st2" d="M62.5,153.4c-0.1-0.3-0.2-0.7-0.3-1.1c-0.1-0.4-0.2-1-0.3-1.7c-0.1-0.8-0.3-1.8-0.4-3.2
		c-0.2-1.4-0.4-3.2-0.6-5.6c-0.1-0.9-0.2-1.7-0.3-2.3s-0.2-1-0.4-1.3c-0.1-0.3-0.3-0.5-0.5-0.6s-0.5-0.1-0.7-0.1h-1.3v15.9h-8.5
		v-40.9h12.4c1.8,0,3.3,0.2,4.5,0.6s2.1,1.1,2.8,1.9c0.7,0.9,1.2,2,1.5,3.4s0.4,3.1,0.4,5c0,2.1-0.1,3.8-0.2,5s-0.4,2.2-0.7,2.8
		c-0.3,0.7-0.7,1.2-1.1,1.5s-0.9,0.7-1.5,1v0.3c0.2,0.2,0.4,0.4,0.7,0.6c0.2,0.2,0.4,0.6,0.6,1.1c0.3,0.6,0.6,1.6,0.9,2.9
		c0.3,1.3,0.6,3.2,0.9,5.5c0.2,1.7,0.4,3,0.5,4s0.2,1.8,0.3,2.4c0.1,0.6,0.2,1.1,0.2,1.4c0.1,0.3,0.1,0.6,0.2,0.9v0.3h-9.1
		C62.5,153.1,62.5,153.4,62.5,153.4z M60,129.8c0.8,0,1.4-0.3,1.7-1s0.5-2,0.5-3.9c0-1.6-0.2-2.7-0.6-3.2c-0.4-0.5-1-0.8-1.8-0.8
		h-2.2v8.9H60z"/>
	<path class="st2" d="M74.1,153.4v-40.9h18.1v8.6h-9.6v7.2H92v8.3h-9.5v7.7h9.6v9.1H74.1z"/>
	<path class="st2" d="M120,153.4v-24.5h-0.3l-6.2,24.5h-3.7l-6.3-24.5h-0.3v24.5h-7.7v-40.9h12l3.8,17.8h0.4l4.2-17.8h11.9l0.1,40.9
		H120z"/>
	<path class="st2" d="M150.8,150.7c-0.4,0.6-0.8,1.2-1.3,1.6c-0.5,0.4-1.1,0.8-1.8,1c-0.7,0.3-1.6,0.5-2.5,0.6
		c-1,0.1-2.1,0.2-3.4,0.2c-2.6,0-4.6-0.2-6-0.7s-2.4-1.4-3.1-2.6c-0.4-0.6-0.7-1.3-0.9-2c-0.3-0.7-0.5-1.7-0.6-3
		c-0.2-1.3-0.3-2.9-0.4-4.9c-0.1-2-0.1-4.7-0.1-7.9s0-5.8,0.1-7.8s0.2-3.7,0.4-4.9c0.2-1.3,0.4-2.2,0.6-3c0.3-0.7,0.6-1.4,0.9-2.1
		c0.4-0.6,0.8-1.1,1.3-1.6c0.5-0.4,1.1-0.8,1.8-1.1c0.7-0.3,1.6-0.5,2.6-0.6s2.1-0.2,3.4-0.2c2.6,0,4.6,0.3,5.9,0.8
		c1.4,0.5,2.4,1.4,3.1,2.6c0.4,0.6,0.7,1.3,0.9,2.1c0.3,0.7,0.5,1.7,0.6,3c0.2,1.3,0.3,2.9,0.4,4.9c0.1,2,0.1,4.6,0.1,7.8
		s0,5.8-0.1,7.9c-0.1,2-0.2,3.7-0.4,4.9c-0.2,1.3-0.4,2.3-0.6,3C151.5,149.4,151.2,150.1,150.8,150.7z M143.9,144
		c0.1-0.3,0.1-0.6,0.2-1c0.1-0.4,0.1-1,0.2-1.8c0-0.8,0.1-1.9,0.1-3.2s0-3.1,0-5.3c0-2.3,0-4.1,0-5.5c0-1.4,0-2.5-0.1-3.3
		c0-0.8-0.1-1.4-0.2-1.8c-0.1-0.4-0.1-0.7-0.2-1c-0.1-0.4-0.4-0.6-0.6-0.8c-0.3-0.2-0.8-0.2-1.5-0.2s-1.2,0.1-1.5,0.2
		c-0.3,0.2-0.5,0.4-0.6,0.8c-0.1,0.3-0.2,0.6-0.2,1c-0.1,0.4-0.1,1-0.2,1.8c-0.1,0.8-0.1,1.9-0.1,3.3c0,1.4,0,3.2,0,5.5
		c0,2.2,0,4,0,5.3s0.1,2.4,0.1,3.2c0.1,0.8,0.1,1.4,0.2,1.8c0.1,0.4,0.1,0.7,0.2,1c0.1,0.4,0.3,0.6,0.6,0.8c0.3,0.1,0.8,0.2,1.5,0.2
		s1.2-0.1,1.5-0.2C143.5,144.6,143.8,144.3,143.9,144z"/>
	<path class="st2" d="M159,153.4l-4.9-40.9h9.2l2.3,28.8h0.6l2.2-28.8h9l-5.1,40.9H159z"/>
	<path class="st2" d="M179.8,153.4v-40.9h18.1v8.6h-9.6v7.2h9.4v8.3h-9.4v7.7h9.6v9.1H179.8z"/>
	<path class="st2" d="M201.3,153.4v-40.9h11.4c2.6,0,4.6,0.2,5.9,0.7s2.4,1.3,3.1,2.5c0.4,0.6,0.7,1.3,0.9,2s0.4,1.7,0.6,2.9
		c0.2,1.2,0.3,2.8,0.4,4.8s0.1,4.5,0.1,7.6s0,5.6-0.1,7.6s-0.2,3.6-0.4,4.8s-0.4,2.2-0.6,2.9c-0.2,0.7-0.5,1.4-0.9,1.9
		c-0.4,0.6-0.8,1.1-1.3,1.5s-1.1,0.7-1.8,1s-1.6,0.4-2.5,0.5c-1,0.1-2.1,0.2-3.4,0.2H201.3z M212.5,144.3c0.7,0,1.2-0.1,1.5-0.2
		c0.3-0.1,0.5-0.4,0.6-0.8c0.1-0.3,0.1-0.5,0.2-0.9s0.1-0.9,0.2-1.6c0-0.8,0.1-1.8,0.1-3.1s0-3,0-5s0-3.8,0-5.1c0-1.3,0-2.3-0.1-3.1
		c0-0.8-0.1-1.3-0.2-1.7s-0.1-0.7-0.2-0.9c-0.1-0.3-0.4-0.5-0.6-0.6c-0.3-0.1-0.8-0.2-1.5-0.2h-2.7v23.3h2.7V144.3z"/>
</g>
</svg>
