<?xml version="1.0" encoding="utf-8"?>
<!-- Generator: Adobe Illustrator 20.0.0, SVG Export Plug-In . SVG Version: 6.00 Build 0)  -->
<svg version="1.1" id="Layer_1" xmlns="http://www.w3.org/2000/svg" xmlns:xlink="http://www.w3.org/1999/xlink" x="0px" y="0px"
	 viewBox="0 0 120 120" style="enable-background:new 0 0 120 120;" xml:space="preserve">
<style type="text/css">
	.st0{fill:#BC2E2E;}
	.st1{fill:#FFFFFF;}
</style>
<g>
	<g>
		<path class="st0" d="M60,11.6c-0.2,0-0.4,0-0.6,0c-13.2,0-25.2,5.2-34,13.8c-8.5,8.8-13.8,20.8-13.8,34
			c0,22.5,15.1,41.4,35.8,47.1c4,1.1,8.2,1.8,12.6,1.8c0.2,0,0.4,0,0.6,0c13.2,0,25.2-5.2,34-13.8c7.5-7.7,12.4-17.9,13.5-29.2
			c0.2-1.6,0.2-3.2,0.2-4.8C108.3,33.8,86.8,11.9,60,11.6z"/>
	</g>
	<g>
		<path class="st1" d="M80.6,54.3c-7,0-12.7,5.7-12.7,12.7s5.7,12.7,12.7,12.7S93.3,74,93.3,67S87.6,54.3,80.6,54.3z M88.7,63.5
			l-6.5,9.6c-0.5,0.7-1.2,1.1-2,1.2c-0.1,0-0.2,0-0.4,0c-0.7,0-1.4-0.3-1.9-0.7l-4.8-4.2c-0.8-0.7-0.9-1.9-0.2-2.7
			c0.7-0.8,1.9-0.9,2.7-0.2l3.9,3.5l5.8-8.7c0.6-0.9,1.8-1.1,2.7-0.5C89.1,61.5,89.3,62.6,88.7,63.5z"/>
		<path class="st1" d="M65.4,67.1c0-8.3,6.7-15.1,15.1-15.1c2.8,0,5.4,0.8,7.7,2.1l4.2-4l-22.7-3.5L59.8,26L49.5,46.5l-22.7,3.1
			L43,65.7l-4.1,22.6l20.4-10.5l20.2,10.8L78.4,82C71.1,81,65.4,74.7,65.4,67.1z"/>
	</g>
</g>
</svg>
