<?xml version="1.0" encoding="utf-8"?>
<!-- Generator: Adobe Illustrator 20.0.0, SVG Export Plug-In . SVG Version: 6.00 Build 0)  -->
<svg version="1.1" id="Layer_1" xmlns="http://www.w3.org/2000/svg" xmlns:xlink="http://www.w3.org/1999/xlink" x="0px" y="0px"
	 viewBox="0 0 30 30" style="enable-background:new 0 0 30 30;" xml:space="preserve">
<style type="text/css">
	.st0{fill:#FFFFFF;}
</style>
<path class="st0" d="M12.9,21.9L13,22l0.1,0.1l0.1,0.1l0.1,0.1c0,0,0.1,0,0.1,0.1c0,0,0.1,0,0.1,0.1c0,0,0.1,0,0.1,0.1
	c0,0,0.1,0,0.2,0.1h0.1c0.1,0,0.1,0,0.2,0c0.1,0,0.1,0,0.2,0h0.1c0.2,0,0.4,0,0.6,0h0.1c0.1,0,0.1,0,0.2,0c0.1,0,0.1,0,0.2,0h0.1
	c0.1,0,0.1,0,0.2-0.1c0,0,0.1,0,0.1-0.1c0,0,0.1,0,0.1-0.1c0,0,0.1,0,0.1-0.1l0.1-0.1l0.1-0.1c0.1,0,0.1-0.1,0.1-0.1l0.1-0.1
	c0.1-0.1,0.2-0.1,0.3-0.2l0,0l11.4-11.4C30,9,30,6.9,28.7,5.7c-1.3-1.3-3.3-1.3-4.6,0l-9.2,9l-9.2-9c-1.3-1.3-3.3-1.3-4.6,0
	C0.7,6.3,0.3,7.1,0.3,8c0,0.8,0.3,1.7,0.9,2.3l11.4,11.4l0,0C12.8,21.7,12.9,21.8,12.9,21.9z"/>
</svg>
