<?xml version="1.0" encoding="utf-8"?>
<!-- Generator: Adobe Illustrator 20.0.0, SVG Export Plug-In . SVG Version: 6.00 Build 0)  -->
<svg version="1.1" id="Layer_2" xmlns="http://www.w3.org/2000/svg" xmlns:xlink="http://www.w3.org/1999/xlink" x="0px" y="0px"
	 viewBox="0 0 67 45.7" style="enable-background:new 0 0 67 45.7;" xml:space="preserve">
<style type="text/css">
	.st0{fill:#FFFFFF;}
</style>
<g>
	<path class="st0" d="M63.2,17.7c2-1.9,1.9-4-0.4-6.3l-6-5.6c-2.3-2.3-4.5-2.4-6.4-0.5L33.8,20.9L17,4.8c-2-2-4.1-1.8-6.4,0.5
		l-6,5.6C2.2,13.1,2,15.2,4,17.2l19.4,18.6c0.3,0.3,0.5,0.6,0.8,0.8l6,5.6c0.1,0,0.1,0,0.1,0.1c0.1,0.1,0.2,0.2,0.3,0.3l0.1,0.2
		c2.2,1.7,4.2,1.7,6-0.1L63.2,17.7z"/>
</g>
</svg>
