<?xml version="1.0" encoding="utf-8"?>
<!-- Generator: Adobe Illustrator 20.0.0, SVG Export Plug-In . SVG Version: 6.00 Build 0)  -->
<svg version="1.1" id="Layer_2" xmlns="http://www.w3.org/2000/svg" xmlns:xlink="http://www.w3.org/1999/xlink" x="0px" y="0px"
	 viewBox="0 0 67 45.7" style="enable-background:new 0 0 67 45.7;" xml:space="preserve">
<style type="text/css">
	.st0{fill:#FFFFFF;}
</style>
<g>
	<path class="st0" d="M63.1,29.5c2,2,1.8,4.1-0.5,6.4l-6.1,5.6c-2.3,2.3-4.5,2.3-6.4,0.4L33.7,25.7l-17,16.2c-2,2-4.1,1.7-6.4-0.6
		l-5.9-5.9C2,33.2,1.8,31,3.9,29l19.8-18.7c0.3-0.3,0.5-0.6,0.8-0.8l6.1-5.6c0.1,0,0.1,0,0.1-0.1c0.1-0.1,0.2-0.2,0.3-0.3L31,3.3
		c2.2-1.7,4.2-1.6,6,0.2L63.1,29.5z"/>
</g>
</svg>
