<?xml version="1.0" encoding="utf-8"?>
<!-- Generator: Adobe Illustrator 20.0.0, SVG Export Plug-In . SVG Version: 6.00 Build 0)  -->
<svg version="1.1" id="Layer_2" xmlns="http://www.w3.org/2000/svg" xmlns:xlink="http://www.w3.org/1999/xlink" x="0px" y="0px"
	 viewBox="0 0 45 66" style="enable-background:new 0 0 45 66;" xml:space="preserve">
<style type="text/css">
	.st0{fill:#FFFFFF;}
</style>
<g>
	<path class="st0" d="M28.7,3.4c2-2,4.1-1.9,6.4,0.4l5.7,6c2.3,2.3,2.4,4.5,0.5,6.4l-16,16.6l16.4,16.8c2,2,1.8,4.1-0.5,6.4l-5.8,6
		c-2.2,2.4-4.4,2.6-6.4,0.6L10,43.1c-0.3-0.3-0.6-0.5-0.8-0.8l-5.7-6c0-0.1,0-0.1-0.1-0.1c-0.1-0.1-0.2-0.2-0.3-0.3l-0.2-0.1
		c-1.7-2.2-1.7-4.2,0.1-6L28.7,3.4z"/>
</g>
</svg>
