<?xml version="1.0" encoding="utf-8"?>
<!-- Generator: Adobe Illustrator 15.0.0, SVG Export Plug-In . SVG Version: 6.00 Build 0)  -->
<!DOCTYPE svg PUBLIC "-//W3C//DTD SVG 1.0//EN" "http://www.w3.org/TR/2001/REC-SVG-20010904/DTD/svg10.dtd">
<svg version="1.0" id="Layer_1" xmlns="http://www.w3.org/2000/svg" xmlns:xlink="http://www.w3.org/1999/xlink" x="0px" y="0px"
	 width="30px" height="30px" viewBox="0 0 30 30" enable-background="new 0 0 30 30" xml:space="preserve">
<style type="text/css">
	.st0{fill:#FFFFFF;}
</style>
<path class="st0" d="M0.3,11.7c0,0.5,0.3,1,0.7,1.3l11.8,8.3c0.5,0.3,1.1,0.4,1.6,0.1c0.5-0.2,0.8-0.8,0.8-1.3v-3
	c2.3-0.3,4.3,0.3,5.5,2.1c1.6,2.6,0,7.2-3.8,8.7c-0.1,0-0.2,0.2-0.2,0.3c0,0.1,0.1,0.2,0.3,0.2C23.8,28,29,20.5,27.2,14
	C25.6,8.3,21,6.4,15.3,5.9V3.3c0-0.6-0.3-1.1-0.8-1.3c-0.5-0.3-1.1-0.2-1.6,0.1L1,10.4C0.6,10.7,0.3,11.2,0.3,11.7z"/>
</svg>
