<?xml version="1.0" encoding="utf-8"?>
<!-- Generator: Adobe Illustrator 20.0.0, SVG Export Plug-In . SVG Version: 6.00 Build 0)  -->
<svg version="1.1" id="Layer_1" xmlns="http://www.w3.org/2000/svg" xmlns:xlink="http://www.w3.org/1999/xlink" x="0px" y="0px"
	 preserveAspectRatio="none" viewBox="0 0 595.3 841.9" style="enable-background:new 0 0 595.3 841.9;" xml:space="preserve">
<style type="text/css">
	.st0{clip-path:url(#SVGID_2_);}
	.st1{opacity:0.3;clip-path:url(#SVGID_4_);}
	.st2{opacity:0.1091;fill:#FFFFFF;}
	.st3{opacity:0.26;clip-path:url(#SVGID_4_);}
</style>
<image style="overflow:visible;" width="599" height="843" xlink:href="E2F33DB.png"  transform="matrix(1 0 0 1 -2 -0.109)">
</image>
<g>
	<defs>
		<rect id="SVGID_1_" x="0" y="-5" width="599" height="879"/>
	</defs>
	<clipPath id="SVGID_2_">
		<use xlink:href="#SVGID_1_"  style="overflow:visible;"/>
	</clipPath>
	<g class="st0">
		<g>
			<defs>
				<path id="SVGID_3_" d="M0-5c0,140.2,0,280.4,0,420.5c0,140.6,0,281.2,0,421.8c99.3,0,198.5,0,297.8,0c100.4,0,200.8,0,301.2,0
					c0-140.6,0-281.2,0-421.8c0-140.2,0-280.4,0-420.5C498.6-5,398.2-5,297.8-5C198.5-5,99.3-5,0-5z"/>
			</defs>
			<clipPath id="SVGID_4_">
				<use xlink:href="#SVGID_3_"  style="overflow:visible;"/>
			</clipPath>
			<g class="st1">
				<path class="st2" d="M431.1,284.7c-18.2-21.4-36.9-40.7-56.1-58c-7-0.4-13.9-0.7-20.9-1.1c-10.3,4.3-20.7,8.6-31,12.8
					c-11.1,4.3-22.2,8.3-33.4,12c-16.5,5.7-33,10.6-49.5,15.7c-60.4,18.8-121,33.7-181.7,46.8c-3.6,0.3-6.5,3.4-8.8,9.3
					c-2.6,5.3-3.8,11.7-3.6,19.2c1.8,8.9,4.5,16.4,8.1,22.6c3.2,7,7.1,12,11.4,15c50.2-10.7,100.2-23,150.2-37
					c27.8-7.8,55.5-16.6,83.2-25.5c11.4-3.8,22.7-7.8,34-12.1c5.3-2.3,10.6-4.6,15.9-6.9c12.1-10,24.5-10.2,37.2-0.6
					c-2-1.8-3.9-3.6-5.9-5.4c16.3,16.7,32.5,33.4,48.8,50.1c3.2,5.3,6.5,6,9.9,2.1c3.2-4.2,5.6-10,7-17.4c1.3-7.7,0.4-14.5-2.6-20.1
					C439.6,297.6,435.6,290.5,431.1,284.7z"/>
				<path class="st2" d="M362.4,181.7c-10.2,5.4-20.4,9.8-30.8,13.1c-5.4,1.7-10.8,3.4-16.2,5.1c-10.9,3.5-21.8,7.1-32.7,10.7
					c-27.4,9-54.8,17.9-82.3,26.3c-54.9,16.9-110,30.9-165.2,43.5c-5.5,0.6-7.7,6.6-6.7,18c4.2,19.2,10.6,34.7,19.3,46.4
					c14.1,25.2,28.7,49,43.9,71.4c7.6,14.7,16.3,24,26.2,27.8c56.4-14.3,112.6-30.7,168.7-48.7c27.6-8.8,55.2-18.1,82.8-26.4
					c10.5-3.1,21-5.7,31.5-7.7c4.9-0.7,9.7-1.5,14.6-2.2c8.6-0.7,17.2-3,25.6-7.1c5.5-0.1,7.9-5.9,7-17.3
					c-3.7-19.5-9.8-35.5-18.2-47.9c-13.5-26.3-27.5-51.3-42-75C380.7,196.3,372.2,186.3,362.4,181.7z"/>
				<path class="st2" d="M359.9,33.8c-27,11-54.2,19.9-81.3,29.2c-27.4,9.4-54.9,18.2-82.4,26.6c-54.8,16.8-109.8,30.6-164.9,42.9
					c-4.3,4.2-5.8,11.1-4.5,20.7c3.8,14.1,9.4,23.9,17,29.4c12.1,13.5,24.5,25.5,37.3,36c6.9,8.4,14.2,11.1,21.7,8
					c44.4-11.7,88.6-24.7,132.8-38.9c22.1-7.1,44.2-14.8,66.2-22.4c27.3-9.5,54.5-19.5,82-27.6c-2.6,0.7-5.2,1.3-7.8,2
					c7.8-1.9,15.6-3.7,23.4-5.6c-2.6,0.6-5.2,1.2-7.8,1.8c12.2-2.2,24.3-4.9,36.4-8.1c4.3-4.1,5.8-11,4.7-20.5
					c-3.4-13.9-8.8-23.7-16.1-29.4c-11.6-13.6-23.5-25.6-35.8-36C374.2,33.4,367.2,30.7,359.9,33.8z"/>
				<path class="st2" d="M412.9,161c-11.4,0.7-22.6,3.7-33.6,9.1c-5.4,1.7-10.8,3.4-16.2,5.2c-10.9,3.5-21.9,7.1-32.8,10.8
					c-27.5,9.1-54.9,18-82.4,26.5c-55,17-110.1,31.2-165.3,43.8c-5.7,1.7-7.5,8.2-5.6,19.5c5.8,18.8,13.5,33.2,23.3,43.3
					c16.4,22.7,33.3,44,50.5,63.8c8.8,13.4,18.5,21.1,29.1,23c56-15.1,111.8-32.2,167.5-50.9c27.6-9.3,55.1-19,82.7-27.8
					c25.4-8.1,50.9-12.3,76.5-15.7c5.6-1.6,7.5-8,5.8-19.3c-5.4-18.7-12.8-33.2-22.3-43.5c-15.8-22.9-32.1-44.4-48.8-64.4
					C432.7,170.9,423.3,163.1,412.9,161z"/>
				<path class="st2" d="M407.6,22.1c-13.9-4.8-27.6-3.5-41.1,4.1c-5.5,1.8-11,3.7-16.5,5.5c-11,3.8-22,7.7-33,11.5
					c-27.4,9.6-54.8,18.5-82.2,27.1c-54.7,17-109.6,31-164.5,43.6c-4.7-0.1-8,4.2-9.9,13c-1.3,9.3-0.1,17,3.5,23.3
					c7.6,10.2,15.7,18.3,24.4,24.2c8.4,7.1,17.1,12,26,14.6c55-14,109.9-29.9,164.7-47.8c27.5-9,54.9-18.9,82.2-28.8
					c10.9-4,21.8-7.8,32.7-11.3c5.3-1.5,10.5-3.1,15.8-4.6c14.4-5.6,28.9-4.6,43.3,2.8c4.8,0.4,8.2-3.8,10.1-12.7
					c1.3-9.4,0.1-17.3-3.7-23.5c-7.9-10.6-16.3-19-25.2-25.3C425.8,30.3,416.9,25.1,407.6,22.1z"/>
				<path class="st2" d="M328.7,118.7c-10.5,4.4-21,8.4-31.5,12c-5.4,1.8-10.9,3.5-16.3,5.3c-10.9,3.6-21.9,7.3-32.8,11
					c-27.4,9.2-54.9,18-82.3,26.4c-54.8,16.7-109.9,30.5-165,42.8c-4.5,2.4-6.7,8.5-6.5,18.3c2.1,15,6.4,26.6,13.1,35
					c10.1,17.8,20.6,34.1,31.6,49.2c5.7,10.9,12.3,16.2,19.8,16c56.1-13.7,112.1-29.5,168-47.2c27.7-8.8,55.3-18.2,83-27
					c10.6-3.4,21.2-6.3,31.9-8.8c4.9-0.9,9.9-1.8,14.8-2.7c8.8-1.5,17.6-3,26.4-4.7c4.6-1.8,6.9-7.6,7-17.4
					c-1.6-15.2-5.6-27.4-11.9-36.6c-9.5-19-19.4-36.6-30-53C342.5,125.6,336.1,119.4,328.7,118.7z"/>
				<path class="st2" d="M384.3,277.8c-17.2-37.8-36.8-52.4-58.9-43.8c-6.3,2.6-12.6,5.7-18.8,9.4c1.5-0.7,3.1-1.4,4.6-2.1
					c-7.3,3-14.6,6.1-21.9,9.1c1.5-0.6,3.1-1.2,4.6-1.8c-7.1,2.7-14.2,5.3-21.4,8c1.5-0.6,3.1-1.2,4.6-1.7
					c-38.5,12.8-77,24.9-115.6,35.8c-44.1,12.5-88.3,22.9-132.5,32.4c-3.6-0.5-6.7,2.1-9.2,7.6c-2.8,4.8-4.3,11-4.4,18.6
					c1.5,9.3,3.9,17.4,7.3,24.2c3,7.7,6.6,13.4,10.9,17.3c56.1-11.7,112-25.4,167.8-41.3c27.8-7.9,55.6-16.9,83.4-26.1
					c7.3-2.5,14.6-5.2,21.8-8.1c4.6-1.9,9.1-3.8,13.7-5.7c5.8-2.3,11.5-5.8,17.1-10.4c-1.5,0.7-3,1.3-4.6,2
					c5.8,0.4,11.5,0.9,17.3,1.3c-1.8-2.1-3.7-4.1-5.5-6.2c16.5,19.1,33,38.2,49.5,57.3c3.8,1.1,7-1.3,9.6-7.2c2.8-5.4,4-12.1,3.5-20
					c-2.3-10.6-5.6-19.9-9.7-27.9C393.7,289.7,389.3,282.8,384.3,277.8z"/>
				<path class="st2" d="M452.6,145.8c-17.7-17.6-35.8-22.3-54.2-14.2c-5.2,1.7-10.5,3.5-15.7,5.2c-11,3.4-22,7-32.9,10.8
					c-27.4,9.3-54.8,18.4-82.3,26.9c-54.8,17.1-109.7,31.1-164.7,43.7c-4.7-1.5-8.3,2-10.7,10.4c-1.8,9.1-0.9,17.2,2.5,24.2
					c7.3,12.3,15.3,22.5,23.8,30.8c8.3,9.4,16.9,16.6,26,21.6c55.3-13.7,110.5-29.4,165.6-47c27.5-8.8,55-18.6,82.5-28.1
					c10.8-3.8,21.6-7.2,32.4-10.2c5-1.3,10-2.6,15-3.9c18.2-2.8,35.9,3.3,53.2,18.3c4.7,1.6,8.3-1.7,10.8-9.9
					c1.9-9,1.1-17.1-2.2-24.3c-7.1-12.5-14.9-23.1-23.3-31.6C470.1,158.6,461.6,151.1,452.6,145.8z"/>
				<path class="st2" d="M344.4,75.6c-9.2,9.4-18.8,14.8-29,16.2c-16.4,5.9-32.9,11-49.3,16.5c-27.4,9.2-54.9,18-82.4,26.4
					c-54.9,16.8-109.9,30.6-165,43c-5.2,2.3-7.1,8.8-5.6,19.5c4.7,17.3,11.5,30.4,20.3,39.3c14.5,20.2,29.4,39,44.7,56.3
					c7.9,12.1,16.6,18.5,26.1,19.1c56-15,111.8-32,167.6-50.6c27.6-9.2,55.1-18.9,82.7-27.7c10.6-3.4,21.3-6.2,32-8.5
					c5-0.8,10.1-1.7,15.1-2.5c8.3,1.8,15.7-2.4,22.2-12.6c5.1-2.1,7.1-8.5,5.9-19.1c-4.1-17.1-10.4-30.2-18.7-39.3
					c-13.5-20.3-27.5-39.1-41.9-56.5C361.8,82.9,353.5,76.4,344.4,75.6z"/>
				<path class="st2" d="M383.4,73.1c-8.6,10.3-17.9,15.9-27.9,16.8c-5.5,1.8-11,3.6-16.5,5.4c-11,3.7-22,7.4-32.9,11.1
					c-27.5,9.3-55,18.1-82.5,26.5c-54.9,16.9-110.1,30.9-165.3,43.4c-5.8,2.3-7.5,9.1-4.9,20.3c7,18.4,15.8,32.2,26.5,41.2
					c18.2,21.2,36.9,40.8,55.8,59c9.8,12.6,20.3,19.2,31.5,20.1c55.8-15.7,111.4-33.5,166.9-52.7c27.5-9.5,55-19.4,82.6-28.5
					c10.7-3.5,21.4-6.4,32.2-8.8c5.1-0.9,10.3-1.8,15.4-2.7c8.5,0.8,16.4-3,23.8-11.5c5.7-2.3,7.4-9.1,5-20.2
					c-6.6-18.2-15.1-31.9-25.4-40.9c-17.6-21-35.5-40.5-53.9-58.5C404.5,80.5,394.3,73.9,383.4,73.1z"/>
				<path class="st2" d="M458.6,227.3c-19.7-16.4-39.4-32.6-59.1-48.5c-6.5,1.7-12.8,4.6-19,8.9c1.8-0.8,3.7-1.6,5.5-2.4
					c-21.6,7.7-43.3,14.9-64.9,22.3c-27.4,9.4-54.9,17.9-82.3,26.1c-49.3,14.7-98.8,26.9-148.4,37.9c-4.2-0.6-7.4,2.8-9.6,10.3
					c-2.2,7.5-2.2,15-0.1,22.6c4.8,11,10.4,20.3,16.6,27.7c5.9,8.5,12.3,14.8,19.2,18.9c49.9-11.6,99.7-24.7,149.4-39.6
					c27.7-8.3,55.3-17.5,82.9-26.9c11-3.8,22-7.6,32.9-11.4c5.4-1.7,10.8-3.4,16.2-5.2c9.2-4.2,18.6-6.7,28-7.5
					c-2.8-2.3-5.7-4.6-8.5-6.9c16.3,13.4,32.6,26.7,48.8,40.1c4.2,6.7,8.7,8.2,13.4,4.5c3.5-4.2,5.5-10.6,6-19
					c-0.2-10.6-2.6-18.6-7.2-24.2C472.3,244.3,465.7,235.1,458.6,227.3z"/>
				<path class="st2" d="M333,172.3c-11.2,0.2-22.2,3.2-33,9.1c-5.5,1.7-10.9,3.5-16.4,5.2c-11,3.7-21.9,7.4-32.9,11.2
					c-27.4,9.4-54.9,18.1-82.4,26.5c-54.9,16.7-110,30.4-165.2,42.6c-4.4,2-6.8,7.7-7.2,17c0.9,14,4.2,25.4,9.9,34.1
					c8.2,17.5,16.9,33.7,26.2,48.6c4.8,10.8,10.6,16.2,17.4,16.4c56.2-12.9,112.3-27.9,168.3-45c27.8-8.5,55.6-17.9,83.4-27.1
					c10.7-3.6,21.5-6.8,32.2-9.7c5-1.1,10.1-2.2,15.1-3.3c10-4.2,20.1-4,30.2,0.4c4.5-1.4,7-6.8,7.6-16.2
					c-0.7-14.6-3.9-26.8-9.6-36.4c-8.1-19.2-16.9-37.2-26.1-53.9C345.8,180.2,340,173.6,333,172.3z"/>
			</g>
			<g class="st1">
				<path class="st2" d="M526.2,434.7c-16.3-17.3-32.5-34.6-48.8-52c-7.8-9-16.3-10.6-25.5-5c-1.5,0.9-2.9,1.8-4.4,2.7
					c-8,5-15.9,10.3-23.9,15.9c-11.9,8.1-23.7,16.7-35.5,25.3c-15.5,11.3-30.7,24.1-45.8,37c-30.7,26.1-60.5,56.5-90,88
					c-29.7,31.8-58.4,67.4-86.7,104.3c-2.6,6-4,13-4.1,21.1c0.3,8.9,2.5,15,6.7,18.4c5.3,6.4,11,11.1,16.9,14.3
					c4.1,3.6,7.7,2.4,10.9-3.5c9.1-12.1,18.2-24,27.5-35.5c9.1-11.4,18.3-22.4,27.6-33.2c23-27.3,46.7-52,70.6-75.9
					c23.8-23.9,48.3-44.8,72.9-64.8c9.8-7.6,19.6-15,29.5-22.1c5.2-3.7,10.5-7.4,15.7-11.1c8.4-5.7,16.7-12,24.9-19
					c-1.5,0.9-2.9,1.8-4.4,2.7c7.5,1.7,15,3.3,22.4,5c-2-1.8-4-3.5-5.9-5.3c15.8,16.5,31.6,33.1,47.4,49.6c3.2,5.3,6.5,5.9,9.9,2
					c3.2-4.2,5.6-10,7-17.5c1.2-7.8,0.3-14.5-2.7-20.1C534.8,447.6,530.8,440.5,526.2,434.7z"/>
				<path class="st2" d="M457.5,332c-9.3,5.3-18.6,10.2-28,14.7c-5,2.5-10,5-14.9,7.5c-10.2,5.5-20.3,11.5-30.4,18.1
					c-26,16.2-51.3,37-76.4,58.2c-25.5,21.5-50.4,46.2-75.2,71.5c-29.8,30.6-58.7,65-87.2,100.6c-5.4,4-6.6,11.1-3.7,21.4
					c7.3,16.1,16.2,27.1,26.6,33c18.1,15.7,36.4,29.8,55,42.2c9.8,9.6,20,13.2,30.5,10.8c8.8-10,17.7-19.7,26.6-29.2
					c13.4-14.4,27-27.7,40.6-41c22.7-22.1,45.9-41.7,69.2-60.5c23-18.5,46.6-34,70.3-48.1c13.5-8,27.2-13.6,41.1-18.7
					c4.2-1.1,8.5-2.2,12.7-3.3c7.6-1.5,15.1-4.1,22.5-8c5.5-0.2,7.8-6,7-17.4c-3.8-19.4-9.9-35.4-18.4-47.7
					c-13.6-26.1-27.7-50.9-42.4-74.4C475.8,346.4,467.3,336.5,457.5,332z"/>
				<path class="st2" d="M454.8,184.2c-9.7,4.4-19.4,9.1-29,14c-15.6,7.8-30.8,17.3-46.1,27.1c-26.2,16.9-51.8,38.2-77.1,59.8
					c-25.7,22-50.9,47.1-75.8,72.9c-30.1,31.1-59.2,66.1-88,102.2c-3.1,7.1-3.4,14.6-0.9,22.7c5.1,10.3,11.4,15.3,18.8,15.2
					c12.3,3.9,24.6,6,37,6.5c7.3,2.8,13.8,0,19.7-8.4c9.7-10.6,19.4-20.9,29.2-30.9c9.8-10,19.6-19.7,29.5-29.1
					c24.5-23.8,49.7-44.7,74.9-64.9c20-16,40.4-29.9,60.8-43.4c10.1-6.5,20.2-12.6,30.4-18.4c14.8-8.7,29.8-15.2,44.9-21.3
					c-2.6,0.8-5.1,1.6-7.7,2.4c7.3-2.3,14.6-4.6,21.9-6.8c-2.6,0.7-5.1,1.4-7.7,2c11.2-2.9,22.4-5.9,33.6-8.9
					c4.2-4.2,5.8-11.1,4.6-20.6c-3.5-13.9-8.9-23.6-16.2-29.1c-11.6-13.3-23.6-25.1-35.9-35.4C469.2,183.6,462.1,181,454.8,184.2z"
					/>
				<path class="st2" d="M508,311.3c-10.5,0.3-20.8,3.9-30.8,10.6c-5,2.5-10,5-14.9,7.5c-10.2,5.4-20.3,11.4-30.4,17.9
					c-25.9,16-51.2,36.6-76.3,57.6c-25.5,21.3-50.3,45.7-75,70.8c-29.8,30.3-58.6,64.4-87.1,99.7c-5.2,5-6.1,12.3-2.8,22
					c7.9,14.5,17.2,23.8,27.8,27.7c18.5,12.1,37.3,22.5,56.3,31.3c10.1,7.6,20.4,9.2,30.7,4.8c9.1-9.9,18.3-19.5,27.6-28.9
					c13.9-14.3,28-27.3,42.1-40.3c23.5-21.7,47.5-40.6,71.7-58.7c23.9-17.9,48.2-32.7,72.7-46.2c14.1-7.8,28.4-13.2,42.8-18.2
					c4.5-1.1,8.9-2.3,13.4-3.4c8.8-2.4,17.6-4,26.5-4.8c5.6-1.7,7.5-8.1,5.7-19.3c-5.5-18.6-12.9-33-22.5-43.1
					c-15.9-22.7-32.2-43.9-49-63.7C527.9,321,518.4,313.3,508,311.3z"/>
				<path class="st2" d="M502.8,172.6c-13.3-5.5-26.1-3.6-38.7,5.5c-5.1,2.6-10.2,5.1-15.4,7.7c-10.4,5.7-20.8,11.9-31.1,18.7
					c-26.4,16.7-52.3,37.6-77.9,58.9c-26.1,21.7-51.5,46.6-76.7,72.1c-30.5,30.9-60,65.7-89.2,101.7c-3.9,3.6-6,9.9-6.2,18.9
					c-0.1,8.9,1.7,15.5,5.5,19.8c7.2,4.6,14.5,6.9,22,6.9c7.5,1.2,14.9,0.1,22.2-3.4c9.8-11.3,19.7-22.4,29.6-33.2
					c14.8-16.3,30-31.3,45.1-46.3c25.1-24.9,50.9-46.8,76.8-67.8c25.5-20.8,51.6-38.4,77.8-55c15.2-9.6,30.6-17.4,46.1-24.7
					c4.9-1.9,9.7-3.8,14.6-5.7c13.6-6.4,27.3-5.6,41.1,2.2c4.8,0.3,8.1-4,10.1-12.9c1.3-9.4,0-17.2-3.7-23.5
					c-7.9-10.4-16.3-18.7-25.2-24.8C521,180.4,512.1,175.3,502.8,172.6z"/>
				<path class="st2" d="M423.7,269.2c-9.6,4.3-19.2,8.8-28.7,13.7c-15.5,7.6-30.6,16.8-45.8,26.5c-26.1,16.8-51.6,38.1-76.9,59.8
					c-25.7,22-50.7,47.3-75.6,73.1c-30,31.2-59,66.3-87.7,102.6c-4,5.5-5,12.9-2.9,21.9c4.9,12.7,11.3,20.6,19.2,23.5
					c13.1,9.5,26.4,17.3,39.9,23.4c7.5,6.1,14.9,6.3,22.2,0.8c9.1-10.5,18.2-20.7,27.4-30.7c13.7-15.2,27.7-29.2,41.7-43.2
					c23.2-23.3,47-44,71-63.9c23.6-19.7,47.7-36.4,72.1-51.8c13.9-8.8,28-15.3,42.2-21.3c4.4-1.3,8.7-2.7,13.1-4
					c7.8-2.3,15.6-4.3,23.5-5.8c4.6-1.9,6.9-7.7,6.9-17.5c-1.7-15.2-5.7-27.3-12.1-36.4c-9.5-18.8-19.6-36.3-30.2-52.5
					C437.6,275.9,431.1,269.8,423.7,269.2z"/>
				<path class="st2" d="M479.3,427.8c-13.2-15.3-26.5-30.2-39.9-44.9c-5.3,1.1-10.6,2.3-15.9,3.4c-6.1,2.4-11.9,6.4-17.6,11.9
					c-5.3,3.5-10.5,7-15.8,10.5c-10.3,7-20.5,14.3-30.6,21.8c-15.4,11.2-30.5,24-45.6,36.8c-30.6,25.9-60.3,56.1-89.7,87.6
					c-29.8,31.9-58.5,68-86.9,105c-2.9,5.6-4.4,12.5-4.5,20.7c0.3,9.3,2.7,15.9,7,19.7c5.6,7.3,11.6,13.1,18,17.2
					c4.2,4.3,8.1,3.7,11.7-1.8c9-12.1,18-24,27.2-35.7c9.1-11.6,18.4-23,27.6-34.1c22.8-27.7,46.4-52.5,70.1-76.6
					c23.4-23.7,47.3-44.5,71.5-64.4c9.6-7.6,19.2-14.9,28.9-21.9c5-3.6,10.1-7.2,15.1-10.8c9.2-5.1,18-12.1,26.5-21.1
					c-1.5,0.7-3,1.4-4.6,2.1c5.1-0.1,10.2-0.2,15.2-0.3c-1.8-2-3.7-4.1-5.5-6.1c16,18.9,32.1,37.8,48.1,56.7c3.8,1.1,7-1.3,9.6-7.3
					c2.8-5.5,4-12.2,3.4-20.1c-2.4-10.7-5.7-20-9.9-27.9C488.9,439.7,484.4,432.8,479.3,427.8z"/>
				<path class="st2" d="M547.9,296.1c-14.3-16.4-28.9-21.6-43.7-15.8c-2.7,1-5.4,2-8,3c-7.1,2.4-14.1,5.8-21.1,10.1
					c-31.6,16.6-62.2,39.8-92.5,64.3c-31.1,25.2-61.3,54.8-91.2,85.6c-30.1,31-59.2,66-88,102.1c-2.9,6.6-3.6,14-2,22.4
					c3.4,10.5,8.2,16.5,14.5,17.8c9.8,5.6,19.8,9.6,29.9,11.9c6.1,3.6,11.6,1.8,16.6-5.5c19.1-22.1,38.3-43.3,57.8-63.7
					c19.5-20.4,39.4-38.7,59.4-56.7c19.9-17.9,40.2-33.7,60.5-49c10.1-7.5,20.3-14.6,30.5-21.3c15-10.2,30.2-18.4,45.4-26.4
					c-2.1,1-4.3,2-6.4,3.1c7.1-3.1,14.1-6.3,21.2-9.4c-2.2,0.9-4.3,1.9-6.5,2.8c4.5-1.7,9-3.4,13.6-5.1c17.3-3.6,34.2,2.2,50.6,17.5
					c4.7,1.6,8.3-1.8,10.8-10.1c1.8-9,1.1-17.1-2.2-24.2c-7.2-12.4-14.9-22.8-23.3-31.3C565.4,308.6,556.9,301.2,547.9,296.1z"/>
				<path class="st2" d="M439.5,226.2c-8.2,9.3-17,15.3-26.2,17.9c-15.5,7.6-30.7,17-45.9,26.7c-26.1,16.7-51.6,37.9-76.8,59.4
					c-25.6,21.9-50.7,46.9-75.5,72.6c-29.9,31-58.9,65.8-87.5,101.8c-4.5,5.9-5.1,13.4-2,22.4c7.1,12.7,15.4,20.1,25,22.1
					c16.6,8.4,33.3,15.1,50.2,20.2c9.2,5.6,18.3,5.2,27.2-1.1c9.3-9.9,18.6-19.5,28-28.8c14-14.2,28.3-27.2,42.6-40.2
					c23.7-21.6,47.9-40.5,72.3-58.6c24-17.9,48.4-32.8,73.1-46.5c14.2-7.8,28.5-13.4,42.9-18.5c4.5-1.1,9-2.2,13.5-3.3
					c9.4,0.6,17.6-5.9,24.6-19.7c0.2-4.3,0.4-8.5,0.5-12.8c-4.2-17-10.5-30-18.9-38.9c-13.6-20-27.6-38.6-42.1-55.7
					C456.9,233.1,448.6,226.8,439.5,226.2z"/>
				<path class="st2" d="M478.5,223.6c-7.6,10.2-16,16.3-25,18.3c-15.4,7.7-30.6,16.7-45.8,26.4c-26,16.5-51.3,37.3-76.4,58.5
					c-25.5,21.5-50.4,46.2-75,71.5c-29.8,30.5-58.6,64.9-87,100.4c-4.9,6.1-5.5,13.5-1.7,22.5c8.7,12.8,18.4,20,29.3,21.7
					c19.2,8.1,38.6,14.5,58,19.2c10.5,5.4,20.9,4.9,31-1.7c9.4-9.6,18.9-19,28.5-28c14.3-13.8,28.8-26.3,43.3-38.9
					c24.1-20.8,48.7-38.9,73.4-56.1c24.4-17,49.2-31.1,74.2-43.9c14.4-7.4,29-12.6,43.7-17.4c4.6-1.1,9.3-2.1,13.9-3.2
					c7.6,0.5,14.6-3.4,21-11.7c5.7-2.4,7.3-9.2,4.9-20.3c-6.7-18.1-15.2-31.6-25.5-40.4c-17.6-20.7-35.6-39.9-54-57.5
					C499.6,230.7,489.4,224.2,478.5,223.6z"/>
				<path class="st2" d="M553.8,377.4c-19.1-16.7-38.4-32.6-57.7-47.8c-1.9,0.6-3.8,1.3-5.7,1.9c-8.7,6.5-17.5,12-26.5,16.4
					c-5.1,2.9-10.2,5.9-15.3,8.8c-10.3,6.5-20.6,13.4-30.8,20.8c-15.6,10.9-30.9,23.7-46.2,36.4c-31,25.6-61.2,55.8-90.9,87.1
					c-30,31.5-59,66.9-87.6,103.5c-2.8,6.2-3.8,13.5-3,21.9c1.9,10.2,5.5,16.5,10.9,18.9c7.7,6.5,15.7,11.3,23.9,14.5
					c5.1,3.9,9.8,2.7,14-3.8c18.6-23,37.5-45.2,56.6-66.5c19.1-21.3,38.6-40.6,58.2-59.6c19.5-18.9,39.5-35.7,59.5-52.2
					c24.6-20.2,49.7-37.1,75.1-52.1c-1.8,1-3.6,2-5.5,3.1c11-5.8,22-11.5,33-17c-1.8,0.9-3.6,1.7-5.5,2.6c4.1-1.1,8.3-2.2,12.4-3.2
					c-2.8-2.2-5.7-4.5-8.5-6.7c15.8,13.2,31.6,26.4,47.4,39.6c4.3,6.7,8.7,8.1,13.5,4.3c3.5-4.3,5.5-10.6,6-19
					c-0.2-10.6-2.7-18.6-7.3-24.1C567.5,394.2,560.9,385.1,553.8,377.4z"/>
				<path class="st2" d="M428,322.7c-10.3,0.1-20.4,3.7-30.1,10.9c-5,2.6-10.1,5.1-15.1,7.7c-10.3,5.8-20.5,12.1-30.6,19
					c-26.1,17-51.4,38.4-76.7,60.1c-25.6,22-50.5,47.3-75.3,73.2c-29.9,31.2-58.8,66.3-87.3,102.5c-4.1,4.7-5.4,11.8-4.1,21.1
					c3.8,13.4,9.4,22.4,16.8,26.9c11.8,11.8,23.9,22.1,36.4,30.8c6.8,7.5,13.8,9.1,21,5c8.8-10.9,17.8-21.6,26.7-32
					c13.4-15.8,27.1-30.5,40.8-45.3c22.8-24.5,46.2-46.5,69.7-67.7c23.4-21.1,47.3-39.2,71.4-56.1c4.8-3.1,9.5-6.2,14.3-9.3
					c9.2-5.8,18.6-10.9,28-15.2c4.4-1.7,8.8-3.3,13.2-5c8.9-5.3,18-5.7,27.1-1.1c4.5-1.4,7-6.9,7.6-16.3
					c-0.8-14.6-4.1-26.7-9.8-36.3c-8.2-19.1-17-37-26.4-53.6C440.9,330.4,435,324,428,322.7z"/>
			</g>
			<g class="st3">
				<path class="st2" d="M154.6,662.9c2.8,0,5.6,0,8.4-0.1c6.8,1.7,13.6,3.5,20.3,5.4c10.8,3.4,21.6,7.4,32.4,11.9
					c10.5,4.3,21,9,31.5,14c35.7,16.4,70.7,38.2,105.4,61.5c34.2,22.9,67.8,49.7,101.1,77.7c33.2,27.9,65.8,59.1,98.1,91.4
					c4.9,2.5,8-1.4,9.3-11.7c0.1-18.3-2.4-35-7.8-50.3c-7.4-29.3-15.5-57.6-24.3-85.1c-3.9-17-9.7-29.7-17.5-38.1
					c-14.8-12.9-29.6-25.5-44.5-37.8c-19.8-16.4-39.9-31.4-60-46.2c-35.2-26-71-48.4-106.9-69.5c-36-21.1-72.6-38.3-109-55.5
					c-15.1-7.1-30.2-14.9-45.2-23.2c-7.6-3.7-15.1-8.1-22.5-13.3c-4-4.2-8.2-4.9-12.4-2.2c-4.9-1.5-7.9,2.8-8.9,13
					c0.2,17.5,3.1,33.2,8.7,47c7.9,26.8,16.5,52.7,25.7,77.6C140.8,645.1,146.8,656.3,154.6,662.9z"/>
				<path class="st2" d="M103.8,578.1c3.8,2.9,7.6,5.8,11.4,8.7c6.5,1.1,13,2.7,19.4,5c10.7,3.6,21.4,7.7,32.1,12.3
					c10.5,4.4,21,9.1,31.5,14.1c35.7,16.5,70.9,37.9,105.8,60.9c34.4,22.6,68.1,49.2,101.6,76.9c33.4,27.6,66.1,58.6,98.6,90.7
					c5.2,2.3,8.2-2.1,8.9-13.2c-1.1-19.9-4.8-37.7-11.2-53.3c-9.5-30.8-19.6-60.7-30.4-89.5c-5-17.8-11.7-31-20.4-39.6
					c-29.2-24.8-58.7-48.2-88.4-70.2c-34.7-25.7-70-48.1-105.5-69.1c-35.8-21.2-72-38.6-108.3-55.4c-15.5-7.2-31-14.5-46.4-22.3
					c-9.8-5.4-19.5-10.8-29.3-16.4c-5.2-3.6-10.4-7.3-15.6-11.2c2.8,2.9,5.6,5.8,8.4,8.7c-6.1-6.4-12.2-12.8-18.3-19.2
					c-5.2-1.4-8,3.3-8.5,14.3c1.4,19.1,5.4,35.9,12,50.2c9.9,28.5,20.5,56,31.6,82.4C88.2,559.4,95.2,571.1,103.8,578.1z"/>
				<path class="st2" d="M88.4,379.4c10.3,48.2,25,87.5,44.1,117.7c4.4,3.9,8.7,7.9,13.1,11.8c4.5-0.3,9-1.9,13.3-5
					c-1.4,0.1-2.9,0.3-4.3,0.4c5.3,0.6,10.6,1.1,15.9,1.7c10.8,3.3,21.6,7.4,32.3,12.2c15.6,6.5,31,14.6,46.4,22.7
					c30,15.9,59.5,36.1,88.8,57c29,20.7,57.4,44.3,85.7,68.6c32.9,28.3,65.2,59.9,97.1,92.7c3.3,1.8,6.5,0.9,9.6-2.4
					c3.3-2.5,5.7-6.9,7.3-13.2c0.4-7.8-0.3-15.3-2-22.4c-1.3-7.5-3.5-13.6-6.5-18.2c-27.8-28.4-55.9-55.4-84.2-81
					c-33.2-30-67-56.7-101.1-81.8c-34.5-25.4-69.6-46.9-105.1-65.6c-15.6-8.3-31.5-14.8-47.3-21.4c-10.5-5.3-21.1-7.3-31.9-6.1
					c-4.5-0.6-8.6,2-12.4,7.9c1.4-0.2,2.8-0.4,4.3-0.7c-4.8-5.8-9.6-11.7-14.4-17.5c1.3,2.2,2.6,4.3,3.9,6.5
					c-10.8-29.4-21.5-58.8-32.3-88.2c-1.1-4.6-2.8-7.4-5.2-8.5c-3.2,0.8-6.1,3-8.8,6.7c-2.9,3-5.3,7.2-7.2,12.6
					C86.7,370.6,87,375.1,88.4,379.4z"/>
				<path class="st2" d="M153.8,549.8c2.2-2.5,4.5-4.9,6.7-7.4c-2.2-0.4-4.4-0.9-6.6-1.3c28,6.5,55.5,18.9,83,31.8
					c35.7,16.8,70.9,38.2,105.7,61.1c34.4,22.6,68.3,49,101.9,76.7c33.5,27.6,66.4,58.4,99,90.4c5.5,6.3,8.8,3,9.8-9.9
					c-0.7-25.5-4.1-49.5-10.4-71.9c-9.2-43.6-19.1-86.4-29.8-128.5c-4.5-24.2-11.4-44.7-20.6-61.6c-15.2-12.9-30.5-25.6-45.8-37.9
					c-20.4-16.5-41.1-31.6-61.8-46.5c-36.2-26.1-73-48.6-109.9-69.8c-36.4-20.9-73.3-38.5-110.1-57c-19.2-9.6-38.1-21.2-57.1-32.5
					c-4.3-3.9-8.8-6.5-13.5-8c-4.2-3.2-8.1-2-11.7,3.5c-4.1,11.4-4.3,24-0.6,37.5c7.6,37.3,16.3,73.5,25.9,108.7
					c9.1,35.8,19.2,70.4,30.2,103.7C141.9,544.7,147,551,153.8,549.8z"/>
				<path class="st2" d="M136,380.9c8.7,28.3,17.4,56.6,26.2,84.9c4,12.1,9.6,20,16.8,23.7c1.5,0.5,3,0.9,4.5,1.4
					c9.1,1.1,18.2,2.9,27.3,5.4c-1.5-0.5-3-1-4.5-1.5c5.4,1.9,10.9,3.8,16.3,5.7c10.6,4.2,21.1,8.7,31.7,13.7
					c15.4,7,30.6,15.6,45.8,24.2c29.8,16.8,59.1,37.5,88.2,59c57.7,42.5,113.8,94.1,168.7,150.3c3.2,3.2,6.4,3.5,9.8,0.9
					c3.5-1.7,6.1-5.6,8-11.9c0.8-8.7,0.4-17.2-1.1-25.6c-1-8.7-2.9-16.2-5.8-22.7c-13.9-14.3-27.9-28.4-42-42.1
					c-14.1-13.8-28.3-26.7-42.6-39.7c-33.3-30.3-67.3-57.2-101.6-82.6c-34.6-25.6-69.9-47.2-105.4-66.1
					c-15.6-8.3-31.5-14.9-47.3-21.4c-6.9-2.4-13.8-4.7-20.8-7c-8.9-2.1-17.7-3.3-26.7-3.5c1.5,0.5,3,0.9,4.5,1.4
					c-4.7-7.1-9.3-14.1-14-21.2c1.3,3.2,2.7,6.5,4,9.7c-8.4-27.1-16.9-54.2-25.3-81.3c-1.7-7.3-4.4-10.8-8.2-10.3
					c-3.8,0.8-7.1,3.7-10,8.8c-2.8,5.3-3.5,11.8-2.2,19.4C131.4,362.5,133.3,372.1,136,380.9z"/>
				<path class="st2" d="M55.2,503.2c12.2,23.1,24.4,46.2,36.7,69.3c6,8.5,12.5,14.6,19.5,18.5c8.9,0.5,17.8,2,26.6,4.6
					c10.8,3.3,21.6,7.4,32.3,12.2c35.9,14.8,71.2,36.4,106.1,59.4c34.1,22.5,67.6,49.1,100.9,76.8c37.8,31.6,74.8,67.3,111.4,104.8
					c3.5,1.5,6.7-0.1,9.6-4.7c3.1-3.9,5-9.6,5.7-17c-0.8-9.5-2.6-18.2-5.4-25.9c-2.4-8.4-5.5-15.1-9.5-20.1
					c-27.9-27.8-56-54.2-84.4-79.4c-33.2-29.3-67.1-55.4-101.2-80c-34.5-24.9-69.6-45.8-105.1-64.3c-15.7-8.2-31.5-14.8-47.3-21.3
					c-10.6-4.5-21.4-7.4-32.2-8.5c-9.8,2.6-18.5-3.4-26.2-18c1.7,2.2,3.4,4.4,5.2,6.6c-11.7-22-23.4-44-35.2-66
					c-2.7-5.7-5.7-7.1-9.2-4.2c-3.5,3.2-6.2,8.2-8.2,14.8c-1.9,6.7-1.7,13.2,0.6,19.6C48.3,489,51.4,496.7,55.2,503.2z"/>
				<path class="st2" d="M118.5,671.6c5.8,5.6,11.8,9.5,18.1,11.8c6.7,1.5,13.4,3.4,20.1,5.5c-2.2-0.7-4.5-1.5-6.7-2.2
					c16.1,5.8,32.2,12.2,48.2,19c15.6,6.6,31,14.4,46.5,22.3c30.1,15.4,59.7,34.7,89.2,54.8c29.1,19.9,57.7,42.7,86.2,66.2
					c33.1,27.4,65.6,58.1,97.8,90c4,6.2,8.1,6.6,12.2,1.2c3.5-7.1,4.2-15.5,2.3-25.1c-4.6-18.9-10.2-36.5-16.7-52.9
					c-6-17.1-12.9-32.7-20.6-46.5c-14.3-12.8-28.6-25.4-43-37.7c-19.2-16.4-38.6-31.5-58-46.4c-34.1-26.2-68.8-49-103.6-70.3
					c-35.5-21.7-71.4-39.2-107.5-55.4c-15.5-7-31.1-13.8-46.6-21c-8.2-3.4-16.2-7.5-24.2-12.3c-7.1-3.2-13.6-9.3-19.6-18.4
					c-4.2-5.4-8.2-5.1-12.1,0.9c-3.2,7.5-3.7,15.8-1.6,25.1c5.1,17.8,11.1,34.2,18,49.2C103.3,645.1,110.6,659.2,118.5,671.6z"/>
				<path class="st2" d="M175.4,536.6c3.2,1.6,6.5,3.2,9.7,4.7c6.6,1.3,13.1,3,19.6,5.1c10.7,3.4,21.3,7.4,31.8,11.9
					c10.4,4.4,20.9,9.1,31.3,14c35.7,16.6,70.9,38.2,105.7,61.3c34.4,22.8,68.2,49.5,101.7,77.4c33.4,27.8,66.2,59,98.7,91.4
					c4.7,4.5,8.1,1.9,10.2-7.9c1.7-18.4,0.5-36.2-3.5-53.6c-4.9-32.4-10.5-64.1-16.9-95.3c-2.4-18.6-7.1-33.7-14.1-45.3
					c-14.9-14-29.9-27.6-45-41c-20.1-17.8-40.4-34.3-60.8-50.5c-35.7-28.4-72.1-53.2-108.6-76.3c-36.3-23-73.2-41.8-110.1-60
					c-14.6-7.2-29.2-14.7-43.8-22.4c-7-3.3-13.9-6.9-20.8-10.7c-4.8-1.7-9.4-4.5-13.8-8.3c-4.8-4.4-8.1-1.5-10,8.7
					c-1.3,19,0.3,37.2,4.7,54.7c5.6,32.8,12,65,19.1,96.6C163,509.8,168.1,525,175.4,536.6z"/>
				<path class="st2" d="M69.6,435.4c12,33.2,25.6,62.9,40.8,89.1c4.1,3.5,8.2,7.1,12.3,10.6c4.6,0.6,9.2,0.7,13.7,0.5
					c-1.7-0.1-3.3-0.1-5-0.2c16,5.3,32,11.2,47.9,17.6c15.6,6.3,31.1,14.1,46.6,22c30.1,15.4,59.6,35.1,89,55.6
					c29,20.2,57.5,43.4,85.8,67.3c33,27.8,65.3,58.8,97.3,91c3.6,3.2,7,2.4,10.3-2.2c3.4-4.2,5.2-10.4,5.3-18.5
					c-1.4-12.1-3.8-23.3-7.2-33.6c-2.9-10.9-6.7-20.3-11.4-28.1c-28-27.2-56.2-53.1-84.7-77.7c-33.4-28.7-67.4-54.2-101.7-78.1
					c-34.8-24.3-70.3-44.6-106-62.2c-15.7-7.8-31.7-14-47.6-20.3c-10.1-4.1-20.2-7.7-30.3-10.6c-4-0.2-8.1-0.3-12.1-0.2
					c1.7,0.2,3.3,0.3,5,0.5c-4.2-5.3-8.3-10.6-12.5-15.8c1.9,3.4,3.8,6.7,5.7,10.1C99.5,427.1,88.2,402,77,376.9
					c-2.5-7.8-5.9-11-10.2-9.7c-3.8,2-6.7,6.3-8.9,13.1c-2,8-1.7,15.7,0.9,23.4C61.8,415.2,65.3,425.8,69.6,435.4z"/>
				<path class="st2" d="M115.3,433.3c6.1,12.8,12.3,25.7,18.4,38.5c4.4,8.8,9.7,12.4,15.9,10.8c19.3,4.1,38.3,12.9,57.3,21.1
					c36.1,15.4,71.6,35.9,106.8,58.3c34.6,22,68.5,48.1,102.2,75.4c38.3,31.1,75.9,66.4,113,103.4c4.6,2.4,7.8-0.9,9.8-9.9
					c1.4-15.6,0.1-30.5-4-44.6c-5.1-26.1-11-51.5-17.5-76.1c-2.7-15.5-7.5-26.9-14.2-34.4c-14.6-13.6-29.2-26.9-43.9-39.9
					c-14.7-13-29.6-25.2-44.5-37.4c-34.8-28.5-70.2-53.5-105.8-77c-35.9-23.7-72.4-43.2-109.1-60.9c-15.5-7.5-31.1-14.3-46.7-21.5
					c-9.7-4.8-19.4-9.3-29.1-13.8c-5.5-1.7-10.7-5.2-15.6-10.6c2.3,3,4.5,5.9,6.8,8.9c-5.6-12.2-11.1-24.4-16.7-36.6
					c-3.5-8.7-7.6-11.2-12.5-7.7c-4.1,6.6-5.3,15.4-3.7,26.2c3.8,23.1,8.6,45.2,14.4,66.3C101.9,393.7,108.1,414.2,115.3,433.3z"/>
				<path class="st2" d="M178.1,607.9c2.7-1.1,5.3-2.2,8-3.3c-2.1-0.1-4.1-0.2-6.2-0.3c3.3,0.8,6.5,1.6,9.8,2.4
					c8.9,2.3,17.7,5.2,26.5,8.6c15.8,5.5,31.5,13.2,47.2,20.4c35.6,16.6,70.7,38.3,105.5,61.4c34.3,22.8,68,49.5,101.4,77.3
					c33.3,27.8,66,58.9,98.4,91.1c5,4.6,8.3,1.5,9.9-9.3c0.7-20.4-1.3-39.8-6.2-58.2c-6.5-34.9-13.8-69.2-21.9-102.7
					c-3.3-19.9-8.8-36.1-16.5-48.5c-15-13.4-30.1-26.5-45.3-39.3c-20.2-17.1-40.7-32.8-61.2-48.2c-35.9-27.1-72.3-50.5-109-72.5
					c-36.3-21.8-73.1-39.8-109.9-58c-19.2-9.5-38.2-20.6-57.3-31.3c-4.4-3.5-8.9-5.9-13.5-7.3c-4.2-2.2-7.9-0.6-11.3,4.8
					c-4.3,8.4-5.3,18.8-2.9,31c5,29.7,11,58.5,18.1,86.4c6.5,28.5,14,55.7,22.5,81.8C167.8,605.6,172.3,610.1,178.1,607.9z"/>
				<path class="st2" d="M64.7,571c8.9,13.7,17.8,27.4,26.6,41.1c5.5,9,11.8,14.7,18.8,17.3c8.7,1.3,17.3,3.8,25.8,7.5
					c10.7,3.9,21.4,8,32,12.5c35.9,14.4,71.1,34.9,106,57.1c34,21.6,67.5,47.3,100.6,74.2c37.7,30.5,74.6,65.2,111.2,101.5
					c6.9,6.9,16.1-9,14.3-24.6c-2.5-12.9-6-24.5-10.5-34.9c-4-11.2-8.8-20.6-14.3-28.3c-27.8-26.1-55.9-50.9-84.2-74.4
					c-33.2-27.5-66.9-51.8-100.9-74.6c-34.6-23.3-69.8-42.6-105.2-59.8c-15.8-7.6-31.7-13.8-47.5-20.2c-10.3-4.2-20.7-8.1-31-11.8
					c-7.5-0.3-14.3-5.3-20.4-14.9c2.2,2.9,4.4,5.8,6.5,8.7c-9.4-15-18.8-29.9-28.2-44.9c-3.4-8.6-7.6-12.2-12.6-10.8
					c-3.9,2.5-6.5,7.7-7.9,15.6c-0.9,10.4,0.5,19.5,4.4,27.1C53.1,547.9,58.6,560.1,64.7,571z"/>
			</g>
		</g>
	</g>
</g>
</svg>
