<?xml version="1.0" encoding="utf-8"?>
<!-- Generator: Adobe Illustrator 16.0.0, SVG Export Plug-In . SVG Version: 6.00 Build 0)  -->
<!DOCTYPE svg PUBLIC "-//W3C//DTD SVG 1.1//EN" "http://www.w3.org/Graphics/SVG/1.1/DTD/svg11.dtd">
<svg version="1.1" id="flash0.ai" xmlns="http://www.w3.org/2000/svg" xmlns:xlink="http://www.w3.org/1999/xlink" x="0px" y="0px"
	 preserveAspectRatio="none"  viewBox="0 0 313.9 80" enable-background="new 0 0 313.9 80" xml:space="preserve">
<g opacity="0.5">
	<path fill-rule="evenodd" clip-rule="evenodd" d="M278.6,58.3c0.2,0.1,0.4,0.2,0.4,0.3c0.1,0.1,0,0.2-0.3,0.2l-0.8,0.1
		c-0.4,0.3-0.2,0.8,0.4,1.5c0.8,0.8,2,1.8,3.6,2.8c1.7,1.1,3.5,2,5.3,2.9c1.4,0.7,2.8,1.2,4,1.6h2c1.2,0,1.9,0.1,2.2,0.3
		c0.3,0.1,0.6,0.3,0.7,0.4c0.2,0.2,0.2,0.3,0.1,0.4c-0.3,0.2-1.3,0.9-3.1,2l-4,2.6c-0.5,0.3-1.2,0.4-2.1,0.3c-28,0-68.3,0-120.8,0
		L32.8,73.6c-3.9,0-7.4-0.3-10.3-0.8c-1.4-0.3-3-0.7-4.8-1.2C14.2,70.6,10.7,69,7.1,67c-3.4-2-5.4-3.5-6.1-4.7
		c-0.2-0.3,0.3-0.6,1.2-0.9c0.9-0.2,2.2-0.4,3.8-0.5c0,0-0.1,0-0.1,0l65-2.4l85.8-0.2c69.2-0.1,109.3-0.2,120.1-0.3
		C278.1,58.2,278.6,58.2,278.6,58.3z"/>
</g>
<g>
	<path fill-rule="evenodd" clip-rule="evenodd" fill="#823D9C" d="M309.7,1.8c1.7,0,2,0.3,0.8,1c-1.8,0.6-4.2,1.5-7.2,2.6
		c-2.7,1.1-5.1,2-7,2.8c-0.5,0.2-1,0.7-1.5,1.3c-0.5,0.7-0.9,1.4-1,2c-37.9,0.5-126.7,1.2-266.3,2.4L98,3.6
		c27.5-0.2,56.9-0.5,88.2-0.7C248.9,2.4,290.1,2,309.7,1.8z"/>
	
		<linearGradient id="SVGID_1_" gradientUnits="userSpaceOnUse" x1="214.5181" y1="-665.0723" x2="448.1497" y2="-665.0723" gradientTransform="matrix(1.920714e-003 0.2283 -0.2329 1.883090e-003 1.4296 -35.1254)">
		<stop  offset="0" style="stop-color:#A02DD0"/>
		<stop  offset="0.9608" style="stop-color:#6D3383"/>
	</linearGradient>
	<path fill-rule="evenodd" clip-rule="evenodd" fill="url(#SVGID_1_)" d="M294.8,10c-1.5,1.8-2.4,7.2-2.7,16
		c-0.2,4.4-0.2,8.6-0.1,12.7l0.1,4.4c0.1,3.6,0.2,6.9,0.4,9.9c0.6,9.7,1.6,15,3,15.9c-24.2-0.1-65.7,0-124.4,0.1
		c-51.3,0.1-97,0.2-136.9,0.3c-4.1,0-7.2-1.1-9.3-3.4c-1-1-2-2.8-2.9-5.3C20.1,56,19,49.2,18.7,40.3c-0.3-8.5,0.2-15.4,1.5-20.5
		c0.3-1.4,1.2-2.6,2.7-3.8c1.9-1.5,4.2-2.3,7-2.3c21.9-0.3,67.9-1,138.2-2.1C232.5,10.5,274.7,10,294.8,10z"/>
	<path fill-rule="evenodd" clip-rule="evenodd" fill="#9244AE" d="M311.1,42.6c1.3,0,1.8,0.5,1.7,1.4c-0.1,0.5-0.3,0.9-0.6,1.4
		c-7,10-12,17-15,21c-0.3,0.5-0.8,0.8-1.4,0.9c-0.8,0.2-1.3-0.1-1.6-0.9c-0.5-1.3-0.8-4-1.1-7.9l-0.2-5.5l11-10.3H311.1z"/>
	
		<linearGradient id="SVGID_2_" gradientUnits="userSpaceOnUse" x1="531.1431" y1="-1148.1982" x2="764.9709" y2="-1148.1982" gradientTransform="matrix(6.894764e-002 0.2181 -0.2225 6.760149e-002 0.4964 -34.9832)">
		<stop  offset="0" style="stop-color:#C3803E"/>
		<stop  offset="8.627451e-002" style="stop-color:#C58444"/>
		<stop  offset="0.2078" style="stop-color:#CC9156"/>
		<stop  offset="0.3451" style="stop-color:#D8A673"/>
		<stop  offset="0.4941" style="stop-color:#E8C29A"/>
		<stop  offset="0.6078" style="stop-color:#F5DABC"/>
		<stop  offset="0.7176" style="stop-color:#F4D8B8"/>
		<stop  offset="0.8275" style="stop-color:#F2D1AC"/>
		<stop  offset="0.9333" style="stop-color:#EFC798"/>
		<stop  offset="0.9922" style="stop-color:#EDBF8A"/>
	</linearGradient>
	<path fill-rule="evenodd" clip-rule="evenodd" fill="url(#SVGID_2_)" d="M306.7,23.3c0,4.6,0.2,8.7,0.7,12.5
		c0.6,4.1,1.4,6.9,2.4,8.5c-1.4,1.8-4.3,5.5-9,11.1l-6.5,7.8c-0.6-6-1-12.4-1.4-19.4c-0.7-13.9-0.6-23.2,0.3-28
		c0.4-2.2,1.1-3.9,2-5.1c0.7-0.9,1.7-1.6,2.9-2.1c2.1-0.9,6-2.4,11.8-4.4c-1,1-1.8,3.4-2.4,7.1C307,14.8,306.7,18.8,306.7,23.3z"/>
	<path fill-rule="evenodd" clip-rule="evenodd" fill="#69327E" d="M311.2,2.1c0.1,0.4,0.2,0.8,0,1.2c-0.1,0.5-0.3,0.8-0.6,0.9
		c-2.3,1-4.4,1.9-6.2,2.7c-3.5,1.5-6,2.6-7.3,3.4c-0.5,0.3-0.9,0.7-1.3,1.2c-0.4,0.5-0.7,1-0.8,1.6c-1.3,5.3-1.8,14-1.6,26
		c0.2,10.7,0.8,19.5,1.9,26.3c0.1,0.8,0.4,1.1,0.8,0.9c0.2-0.1,0.5-0.4,0.9-0.9c1.7-2.2,4.4-5.6,7.9-10.3c3.1-4.1,5.4-7.3,7-9.5
		c0.6-0.8,0.8-1.4,0.8-1.8c0.1,0.7,0.2,1.3,0.1,2c-0.1,0.7-0.2,1.3-0.4,1.6c-0.7,1.1-2.9,4.1-6.6,8.9c-4.7,6.3-7.5,10-8.4,11.2
		c-0.9,1.2-1.8,1.7-2.8,1.5c-1.1-0.2-1.8-1.3-2.1-3.3c-1-7.6-1.6-16.5-1.8-26.7c-0.2-12.1,0.3-20.9,1.6-26.3
		c0.2-0.9,0.6-1.7,1.2-2.5c0.6-0.8,1.3-1.4,2.1-1.8c1.9-1.1,6.7-2.9,14.4-5.5C310.9,2.4,311.2,2.2,311.2,2.1z"/>
</g>
</svg>
