<?xml version="1.0" encoding="utf-8"?>
<!-- Generator: Adobe Illustrator 16.0.0, SVG Export Plug-In . SVG Version: 6.00 Build 0)  -->
<!DOCTYPE svg PUBLIC "-//W3C//DTD SVG 1.1//EN" "http://www.w3.org/Graphics/SVG/1.1/DTD/svg11.dtd">
<svg version="1.1" id="Layer_1" xmlns="http://www.w3.org/2000/svg" xmlns:xlink="http://www.w3.org/1999/xlink" x="0px" y="0px"
	 width="20px" height="20px" viewBox="0 0 20 20" enable-background="new 0 0 20 20" xml:space="preserve">
<g>
	<rect x="0.8" y="0.8" opacity="0.51" fill="#FFFFFF" enable-background="new    " width="18.4" height="18.4"/>
	<path d="M0.8,19.2h18.4V0.8H0.8V19.2z M20,20H0V0h20V20z"/>
</g>
<path fill-rule="evenodd" clip-rule="evenodd" d="M14.5,7.1c-2.2,1.9-4.2,4.4-6.1,7.4c-0.2,0.4-0.6,0.9-1.1,1.7L6,18.1
	C5.3,19,4.5,18.9,3.9,18L3,16.3c-1.1-2.2-1.7-4.4-1.8-6.8c0-0.7,0.3-1.2,0.9-1.6c0.6-0.2,1.1,0,1.5,0.6l1.5,2.8
	c3-3.8,6.8-7.1,11.4-9.8c0.8-0.3,1.5-0.3,1.9,0.3c0.5,0.7,0.5,1.3,0,1.8C17.9,3.9,16.6,5.1,14.5,7.1z"/>
</svg>
