<?xml version="1.0" encoding="utf-8"?>
<!-- Generator: Adobe Illustrator 16.0.0, SVG Export Plug-In . SVG Version: 6.00 Build 0)  -->
<!DOCTYPE svg PUBLIC "-//W3C//DTD SVG 1.1//EN" "http://www.w3.org/Graphics/SVG/1.1/DTD/svg11.dtd">
<svg version="1.1" id="Layer_1" xmlns="http://www.w3.org/2000/svg" xmlns:xlink="http://www.w3.org/1999/xlink" x="0px" y="0px"
	 width="32px" height="32px" viewBox="0 0 32 32" enable-background="new 0 0 32 32" xml:space="preserve">
<g id="Layer_1_1_">
</g>
<path fill-rule="evenodd" clip-rule="evenodd" fill="#FFFFFF" d="M3.9,23.2l7.2-7.2L3.9,8.8c-0.7-0.7-0.7-1.9,0-2.6l2.3-2.3
	c0.7-0.7,1.9-0.7,2.6,0l7.2,7.2l7.2-7.2c0.7-0.7,1.9-0.7,2.6,0l2.3,2.3c0.7,0.7,0.7,1.9,0,2.6L20.9,16l7.2,7.2
	c0.7,0.7,0.7,1.9,0,2.6l-2.3,2.3c-0.7,0.7-1.9,0.7-2.6,0L16,20.9l-7.2,7.2c-0.7,0.7-1.9,0.7-2.6,0l-2.3-2.3
	C3.2,25.1,3.2,23.9,3.9,23.2L3.9,23.2z"/>
</svg>
