<?xml version="1.0" encoding="utf-8"?>
<!-- Generator: Adobe Illustrator 16.0.0, SVG Export Plug-In . SVG Version: 6.00 Build 0)  -->
<!DOCTYPE svg PUBLIC "-//W3C//DTD SVG 1.1//EN" "http://www.w3.org/Graphics/SVG/1.1/DTD/svg11.dtd">
<svg version="1.1" id="Layer_1" xmlns="http://www.w3.org/2000/svg" xmlns:xlink="http://www.w3.org/1999/xlink" x="0px" y="0px"
	 width="30px" height="30px" viewBox="0 0 30 30" enable-background="new 0 0 30 30" xml:space="preserve">
<circle fill="#797775" cx="15" cy="15" r="14.4"/>
<circle fill="#EFEFEE" cx="15" cy="15" r="13.3"/>
<path fill-rule="evenodd" clip-rule="evenodd" fill="#FF7400" d="M16.5,7.8v2.8h2.8L16.5,7.8z M16.9,19.7c-1.5,0.6-3.3,0.3-4.4-0.9
	c-0.8-0.8-1.2-1.8-1.2-2.9l0,0c0-1.1,0.4-2.1,1.2-2.9c0.8-0.8,1.8-1.2,2.9-1.2c1.1,0,2.1,0.4,2.9,1.2c0.5,0.5,0.9,1.2,1.1,1.8v-3.4
	c0,0,0-0.1,0-0.1h-3.3c-0.2,0-0.3-0.1-0.3-0.3V7.8c0,0,0,0,0,0H9.7C9.4,7.8,9.2,8,9.2,8.2v13.6c0,0.2,0.2,0.4,0.4,0.4c0,0,0,0,0,0
	s0,0,0,0h9.2c0.2,0,0.3-0.1,0.4-0.2c-0.1,0-0.1-0.1-0.2-0.1C19.1,21.9,17.3,20.1,16.9,19.7z M20.7,20.2c0,0-2.2-2.2-2.3-2.3
	c-0.1-0.1-0.2,0-0.3,0.1L18,17.9c1-1.3,0.9-3.1-0.3-4.3c-1.3-1.3-3.3-1.3-4.6,0c-1.3,1.3-1.3,3.3,0,4.6c1.2,1.2,3,1.3,4.3,0.3
	l0.2,0.2c-0.1,0.1-0.2,0.3-0.1,0.3c0.1,0.1,2.3,2.3,2.3,2.3C19.9,21.5,21,20.5,20.7,20.2z M17.1,17.6c-0.9,0.9-2.5,0.9-3.4,0
	c-0.9-1-0.9-2.5,0-3.4c0.5-0.5,1.1-0.7,1.7-0.7c0.7,0,1.3,0.3,1.7,0.7C18.1,15.1,18.1,16.7,17.1,17.6z M16.3,16.3h-1.9
	c-0.1,0-0.2,0.1-0.2,0.3c0,0.2,0.1,0.3,0.2,0.3h1.9c0.1,0,0.2-0.1,0.2-0.3C16.5,16.4,16.4,16.3,16.3,16.3z M16.3,15h-1.9
	c-0.1,0-0.2,0.1-0.2,0.3c0,0.2,0.1,0.3,0.2,0.3h1.9c0.1,0,0.2-0.1,0.2-0.3C16.5,15.2,16.4,15,16.3,15z"/>
<path fill="#454647" d="M18.6,13.3c0.3,0,0.5,0.1,0.8,0.1v1.4C19.2,14.3,19,13.8,18.6,13.3z M19.3,22c-0.1,0-0.1-0.1-0.2-0.1
	c0,0-1.8-1.8-2.2-2.2c-1.5,0.6-3.3,0.3-4.4-0.9c-0.8-0.8-1.2-1.8-1.2-2.9c0-1,0.3-1.9,1-2.7c-1,0.1-2,0.2-3,0.5v8.1
	c0,0.2,0.2,0.4,0.4,0.4c0,0,0,0,0,0s0,0,0,0h9.2C19.1,22.2,19.2,22.1,19.3,22z M16.3,16.3h-1.9c-0.1,0-0.2,0.1-0.2,0.3
	c0,0.2,0.1,0.3,0.2,0.3h1.9c0.1,0,0.2-0.1,0.2-0.3C16.5,16.4,16.4,16.3,16.3,16.3z M20.7,20.2c0.2,0.2-0.8,1.3-1,1
	c0,0-2.2-2.2-2.3-2.3c-0.1-0.1,0-0.2,0.1-0.3l-0.2-0.2c-1.3,1-3.1,0.9-4.3-0.3c-1.3-1.3-1.3-3.3,0-4.6c0.2-0.2,0.4-0.3,0.6-0.5
	c0.4,0,0.8,0,1.3,0c0.8,0,1.5,0,2.2,0.1c0.2,0.1,0.3,0.3,0.5,0.4c1.2,1.2,1.3,3,0.3,4.3l0.2,0.2c0.1-0.1,0.3-0.2,0.3-0.1
	C18.6,18,20.7,20.2,20.7,20.2z M17.1,14.2c-0.5-0.5-1.1-0.7-1.7-0.7c-0.7,0-1.3,0.3-1.7,0.7c-0.9,0.9-0.9,2.5,0,3.4
	c0.9,0.9,2.5,0.9,3.4,0C18.1,16.7,18.1,15.1,17.1,14.2z M16.3,15h-1.9c-0.1,0-0.2,0.1-0.2,0.3c0,0.2,0.1,0.3,0.2,0.3h1.9
	c0.1,0,0.2-0.1,0.2-0.3C16.5,15.2,16.4,15,16.3,15z"/>
</svg>
