<?xml version="1.0" encoding="utf-8"?>
<!-- Generator: Adobe Illustrator 20.0.0, SVG Export Plug-In . SVG Version: 6.00 Build 0)  -->
<svg version="1.1" id="Layer_1" xmlns="http://www.w3.org/2000/svg" xmlns:xlink="http://www.w3.org/1999/xlink" x="0px" y="0px"
	 viewBox="0 0 32 32" style="enable-background:new 0 0 32 32;" xml:space="preserve">
<style type="text/css">
	.st0{fill:#232323;}
	.st1{fill:#FFFFFF;}
</style>
<circle class="st0" cx="16" cy="16" r="15.4"/>
<g id="Layer_1_1_">
</g>
<path class="st1" d="M16,5.1C10,5.1,5.1,10,5.1,16c0,6,4.8,10.8,10.8,10.9c0,0,0,0,0,0c0,0,0,0,0,0c0,0,0,0,0,0
	c6,0,10.9-4.9,10.9-10.9C26.9,10,22,5.1,16,5.1z M6.5,16.2h1.7c0,1.5,0.3,2.9,0.7,4.1H7.5C6.9,19.1,6.5,17.7,6.5,16.2z M21.3,10.1
	H19c-0.3-1.5-0.8-2.6-1.3-3.5c0,0,0,0,0,0C19.1,7.2,20.4,8.4,21.3,10.1z M19.7,15.2c0-1.5-0.2-2.9-0.4-4.2h2.5
	c0.5,1.2,0.8,2.7,0.9,4.2H19.7z M16.5,25.5c-0.2,0-0.3,0-0.5,0c-0.2,0-0.4,0-0.6,0c-0.7-0.5-1.2-2.1-1.6-4.1H18
	C17.7,23.5,17.1,25,16.5,25.5z M13.7,20.4c-0.2-1.3-0.3-2.7-0.3-4.1h4.9c0,1.5-0.1,2.9-0.3,4.1H13.7z M13.5,15.2
	c0-1.5,0.2-2.9,0.4-4.2h4.2c0.2,1.2,0.3,2.6,0.4,4.2H13.5z M16,6.5c0.8,0,1.5,1.4,1.9,3.6H14C14.5,7.9,15.2,6.5,16,6.5z M14.2,6.6
	c-0.5,0.8-1,2-1.3,3.4h-2.1C11.6,8.4,12.8,7.2,14.2,6.6z M12.7,11.1c-0.2,1.3-0.4,2.7-0.4,4.2H9.4c0.1-1.5,0.4-2.9,0.9-4.2H12.7z
	 M8.2,15.2H6.5c0.1-1.5,0.6-2.9,1.3-4.2H9C8.6,12.3,8.3,13.7,8.2,15.2z M9.4,16.2h2.9c0,1.5,0.1,2.9,0.3,4.1h-2.5
	C9.7,19.1,9.4,17.7,9.4,16.2z M12.7,21.4c0.3,1.6,0.8,2.9,1.3,3.9c-1.5-0.7-2.7-2.1-3.5-3.9H12.7z M17.9,25.3c0.6-1,1-2.3,1.3-4h2.3
	C20.7,23.3,19.4,24.7,17.9,25.3z M19.4,20.4c0.2-1.3,0.3-2.7,0.3-4.1h3c0,1.5-0.3,2.9-0.7,4.1H19.4z M23.8,16.2h1.7
	c0,1.5-0.4,2.9-1.1,4.1h-1.3C23.6,19.1,23.8,17.7,23.8,16.2z M23.8,15.2c-0.1-1.5-0.4-2.9-0.8-4.2h1.2c0.7,1.2,1.2,2.6,1.3,4.2H23.8
	z M23.5,10.1h-0.9c-0.3-0.7-0.7-1.4-1.2-2C22.2,8.6,22.9,9.3,23.5,10.1z M10.7,8.1c-0.5,0.6-0.9,1.3-1.2,2H8.5
	C9.1,9.3,9.8,8.6,10.7,8.1z M8.1,21.4h1.1c0.4,0.9,0.9,1.8,1.4,2.5C9.7,23.2,8.8,22.4,8.1,21.4z M21.3,23.9c0.6-0.7,1.1-1.6,1.4-2.5
	h1.1C23.2,22.4,22.3,23.2,21.3,23.9z"/>
</svg>
