<?xml version="1.0" encoding="utf-8"?>
<!-- Generator: Adobe Illustrator 20.0.0, SVG Export Plug-In . SVG Version: 6.00 Build 0)  -->
<svg version="1.1" id="flash0.ai" xmlns="http://www.w3.org/2000/svg" xmlns:xlink="http://www.w3.org/1999/xlink" x="0px" y="0px"
	 viewBox="0 0 90 60" style="enable-background:new 0 0 90 60;" xml:space="preserve">
<style type="text/css">
	.st0{opacity:0.76;}
	.st1{fill:#FFFFFF;}
</style>
<g class="st0">
	<path class="st1" d="M36.6,46.2c-0.6,0-1.1-0.3-1.3-0.9c-0.2-0.6,0-1.3,0.5-1.6c1.2-0.8,1.9-2.1,2.4-3.4c-5.8-2.2-9.4-6.5-9.4-11.3
		c0-3.5,1.9-6.8,5.4-9.2c3.3-2.3,7.7-3.6,12.4-3.6c4.7,0,9,1.3,12.4,3.6c3.5,2.4,5.4,5.7,5.4,9.2c0,3.5-1.9,6.8-5.4,9.2
		c-3.5,2.4-8.2,3.7-13.1,3.6c-2.9,3.5-8.7,4.4-8.9,4.4C36.8,46.2,36.7,46.2,36.6,46.2z M46.5,19c-4.1,0-7.9,1.1-10.8,3.1
		C33,24,31.5,26.5,31.5,29c0,3.9,3.5,7.5,8.8,9.1c0.7,0.2,1.1,0.9,0.9,1.6c-0.2,0.8-0.5,1.7-0.9,2.6c1.4-0.6,2.8-1.5,3.7-2.7
		c0.3-0.4,0.7-0.6,1.2-0.6c0.4,0,0.9,0,1.3,0c4.1,0,7.9-1.1,10.8-3.1c2.7-1.9,4.2-4.4,4.2-6.9s-1.5-5-4.2-6.9
		C54.5,20.1,50.6,19,46.5,19z"/>
</g>
<g class="st0">
	<path class="st1" d="M38.7,28.8c0-1.1,0.7-1.8,1.8-1.8s1.7,0.8,1.7,1.8c0,1.1-0.7,1.8-1.8,1.8C39.4,30.7,38.7,29.9,38.7,28.8z"/>
	<path class="st1" d="M44.8,28.8c0-1.1,0.7-1.8,1.8-1.8s1.7,0.8,1.7,1.8c0,1.1-0.7,1.8-1.8,1.8C45.5,30.7,44.8,29.9,44.8,28.8z"/>
	<path class="st1" d="M50.8,28.8c0-1.1,0.7-1.8,1.8-1.8s1.7,0.8,1.7,1.8c0,1.1-0.7,1.8-1.8,1.8C51.6,30.7,50.8,29.9,50.8,28.8z"/>
</g>
</svg>
