<?xml version="1.0" encoding="utf-8"?>
<!-- Generator: Adobe Illustrator 20.0.0, SVG Export Plug-In . SVG Version: 6.00 Build 0)  -->
<svg version="1.1" id="switch" xmlns="http://www.w3.org/2000/svg" xmlns:xlink="http://www.w3.org/1999/xlink" x="0px" y="0px"
	 viewBox="0 0 540 280" style="enable-background:new 0 0 540 280;" xml:space="preserve">
<style type="text/css">
	.st0{fill:#1E1E1E;}
	.st1{fill:#DB9F3E;}
	.st2{fill:#F0F3F5;}
</style>
<g id="switch_1">
	<path class="st0" d="M131.3,268.1h276.8c68.7,0,124.9-57.6,124.9-128.1l0,0c0-70.4-56.2-128.1-124.9-128.1H131.3
		C62.6,11.9,6.4,69.6,6.4,140l0,0C6.4,210.4,62.6,268.1,131.3,268.1z"/>
	<path class="st1" d="M135.7,260.3h268.4c66.6,0,121.2-54.5,121.2-121.1l0,0C525.3,72.5,470.8,18,404.1,18H135.7
		C69.1,18,14.7,72.5,14.7,139.2l0,0C14.7,205.8,69.1,260.3,135.7,260.3z"/>
	<circle class="st2" cx="398.7" cy="139.1" r="91.4"/>
</g>
<g id="switch_2">
</g>
</svg>
