<?xml version="1.0" encoding="utf-8"?>
<!-- Generator: Adobe Illustrator 15.0.0, SVG Export Plug-In . SVG Version: 6.00 Build 0)  -->
<!DOCTYPE svg PUBLIC "-//W3C//DTD SVG 1.1//EN" "http://www.w3.org/Graphics/SVG/1.1/DTD/svg11.dtd">
<svg version="1.1" id="Layer_1" xmlns="http://www.w3.org/2000/svg" xmlns:xlink="http://www.w3.org/1999/xlink" x="0px" y="0px"
	 width="65px" height="50px" viewBox="0 0 65 50" enable-background="new 0 0 65 50" xml:space="preserve">
<g>
	<path fill-rule="evenodd" clip-rule="evenodd" fill="#FFFFFF" d="M44.2,0.2c2.2,0.2,3.7,1.5,4.5,3.9c1,3.9-0.1,6.9-3.3,8.8
		c-0.7,0.4-1.3,0.8-1.9,1c-0.1,0.1-1.5,0.5-4.1,1.4c-2.9,1.1-5.4,2.7-7.5,4.7c3.3,6.3,5,13,5.2,19.9c0,1.5,0,3-0.2,4.6
		c-0.2,2.4-1.4,4.1-3.5,5.1c-3.5,1.1-6.2-0.2-7.9-3.7c-0.4-0.8-0.7-1.5-0.9-2.1c-0.5-1.4-0.9-2.7-1.3-3.8c-1.1-2.9-1.9-4.6-2.6-5.3
		c-0.5,1.6-1.4,2.9-2.7,3.9c-1.9,0.7-4,0.7-6.4-0.3c0,0-0.1,0-0.1-0.1c-3-1.1-5.4-2.7-7.3-4.6c-1.6-1.8-2-3.9-1.2-6.3
		c0.8-2,1.8-3.9,3.1-5.8c-2.7-1.2-4.4-2.5-5.3-4c-0.9-1.6-0.9-3.6-0.2-6.1c1.3-3.6,3.2-6.9,5.7-9.8c1.7-1.7,4-2,6.8-1
		c2.8,0.9,5.5,2.3,8,4.3c6-2.7,12.4-4.2,19.1-4.8c0.3,0,0.5,0,0.8,0C41.9,0.1,43,0.1,44.2,0.2z M45.9,8c0.2-1.6-0.4-2.7-1.9-3.4
		c-3.9-1.7-9.2-1.5-15.6,0.8c-2,0.7-4.1,1.6-6.1,2.6l-2.4,1.3l-8.4-5.4c-0.4-0.2-0.8-0.3-1.3-0.3C9.3,3.5,8.5,3.8,8,4.4
		C7.5,5,6.6,6.7,5.2,9.2c-0.7,1.3-1.3,2.5-1.9,3.7l-0.1,0.4c0,0.4,0,0.7,0,1.1C3.4,15.7,4,16.6,5,17.3c1,0.7,2.1,1.3,3.3,1.8
		c0.6,0.2,1.1,0.4,1.4,0.6c0,0-0.7,1.2-2,3.7c-0.7,1.2-1.3,2.4-2,3.6l-0.2,0.4c-0.1,0.3-0.2,0.7-0.2,1c0,1.1,0.4,2,1.3,2.7
		c1.4,1.2,3.6,2.6,6.5,4.4l0.4,0.2c0.4,0.1,0.7,0.1,1.1,0.1c1.2-0.1,2.1-0.7,2.7-2c1.1-2,2-3.8,2.9-5.2l0.6,0.6
		c0.5,0.6,1.1,1.3,1.6,2.2c1.5,2.3,2.8,5.1,4,8.6c0.3,0.9,0.5,1.8,0.8,2.7c0.1,0.4,0.2,0.8,0.4,1.1c0.7,1.6,1.8,2.4,3.4,2.5
		c0.1,0,0.2,0,0.3,0c1.6-0.3,2.5-1.4,2.5-3.5c0-0.9,0-1.9-0.1-2.8c-0.4-7.1-2.5-14.2-6.2-21.2c4.9-4.6,9.1-7.2,12.7-7.8
		S45.8,9.3,45.9,8z"/>
	<path fill-rule="evenodd" clip-rule="evenodd" fill="#CC0000" d="M45.9,8c-0.2,1.3-2,2.2-5.6,2.9s-7.8,3.3-12.7,7.8
		c3.7,7,5.7,14.1,6.2,21.2c0.1,0.9,0.1,1.9,0.1,2.8c0,2-0.9,3.2-2.5,3.5c-0.1,0-0.2,0-0.3,0c-1.5-0.1-2.6-0.9-3.4-2.5
		c-0.2-0.3-0.3-0.7-0.4-1.1c-0.3-0.9-0.5-1.8-0.8-2.7c-1.2-3.5-2.5-6.4-4-8.6c-0.6-0.9-1.1-1.6-1.6-2.2l-0.6-0.6
		c-0.8,1.4-1.8,3.2-2.9,5.2c-0.7,1.3-1.6,1.9-2.7,2c-0.4,0-0.7,0-1.1-0.1l-0.4-0.2c-2.9-1.7-5-3.2-6.5-4.4c-0.9-0.7-1.3-1.7-1.3-2.7
		c0-0.3,0.1-0.7,0.2-1L5.8,27c0.7-1.2,1.3-2.4,2-3.6c1.3-2.4,2-3.6,2-3.7c-0.4-0.1-0.9-0.3-1.4-0.6C7.1,18.6,6,18,5,17.3
		c-1-0.7-1.6-1.7-1.8-2.8c-0.1-0.4-0.1-0.7,0-1.1l0.1-0.4c0.6-1.2,1.3-2.4,1.9-3.7C6.6,6.7,7.5,5,8,4.4c0.5-0.6,1.2-0.9,2.2-0.8
		c0.5,0,0.9,0.1,1.3,0.3l8.4,5.4L22.3,8c2-1,4.1-1.9,6.1-2.6c6.5-2.3,11.7-2.6,15.6-0.8C45.5,5.3,46.2,6.5,45.9,8z"/>
</g>
</svg>
