<?xml version="1.0" encoding="utf-8"?>
<!-- Generator: Adobe Illustrator 16.0.0, SVG Export Plug-In . SVG Version: 6.00 Build 0)  -->
<!DOCTYPE svg PUBLIC "-//W3C//DTD SVG 1.1//EN" "http://www.w3.org/Graphics/SVG/1.1/DTD/svg11.dtd">
<svg version="1.1" xmlns="http://www.w3.org/2000/svg" xmlns:xlink="http://www.w3.org/1999/xlink" x="0px" y="0px" width="20px"
	 height="20px" viewBox="0 0 20 20" enable-background="new 0 0 20 20" xml:space="preserve">
<style type="text/css">
	.st0{clip-path:url(#SVGID_2_);}
	.st1{clip-path:url(#SVGID_4_);}
	.st2{clip-path:url(#SVGID_6_);fill:#3D9244;}
	.st3{clip-path:url(#SVGID_6_);fill:#ECC023;}
	.st4{clip-path:url(#SVGID_6_);}
	.st5{clip-path:url(#SVGID_8_);fill:#30276C;}
	.st6{clip-path:url(#SVGID_8_);fill:#FFFFFF;}
</style>
<g id="Isolation_Mode_1_">
</g>
<g>
	<defs>
		<rect id="SVGID_1_" x="-1.3" y="-1.2" width="22.6" height="22.4"/>
	</defs>
	<clipPath id="SVGID_2_">
		<use xlink:href="#SVGID_1_"  style="overflow:visible;"/>
	</clipPath>
	<g class="st0">
		<defs>
			<ellipse id="SVGID_3_" cx="10" cy="10.1" rx="9.7" ry="9.6"/>
		</defs>
		<clipPath id="SVGID_4_">
			<use xlink:href="#SVGID_3_"  style="overflow:visible;"/>
		</clipPath>
		<g class="st1">
			<g>
				<defs>
					<rect id="SVGID_5_" x="-6.6" y="0.5" width="33.3" height="19.2"/>
				</defs>
				<clipPath id="SVGID_6_">
					<use xlink:href="#SVGID_5_"  style="overflow:visible;"/>
				</clipPath>
				<rect x="-6.6" y="0.5" class="st2" width="33.3" height="19.2"/>
				<polygon class="st3" points="-1.5,10.1 10,17.3 21.5,10.1 10,2.8 				"/>
				<g class="st4">
					<defs>
						<rect id="SVGID_7_" x="-6.6" y="0.5" width="33.3" height="19.2"/>
					</defs>
					<clipPath id="SVGID_8_">
						<use xlink:href="#SVGID_7_"  style="overflow:visible;"/>
					</clipPath>
					<path class="st5" d="M14.9,10.1c0,2.6-2.2,4.8-4.8,4.8c-2.7,0-4.8-2.1-4.8-4.8c0-2.6,2.2-4.8,4.8-4.8
						C12.7,5.3,14.9,7.4,14.9,10.1"/>
					<path class="st6" d="M7.2,8C6.7,8,6.1,8,5.6,8.1C5.5,8.4,5.4,8.6,5.3,8.8c0.6-0.1,1.3-0.2,1.9-0.2c2.8,0,5.4,1.1,7.4,2.8
						c0.1-0.2,0.1-0.5,0.2-0.8C12.8,9,10.1,8,7.2,8"/>
				</g>
			</g>
		</g>
	</g>
</g>
</svg>
