<?xml version="1.0" encoding="utf-8"?>
<!-- Generator: Adobe Illustrator 16.0.0, SVG Export Plug-In . SVG Version: 6.00 Build 0)  -->
<!DOCTYPE svg PUBLIC "-//W3C//DTD SVG 1.1//EN" "http://www.w3.org/Graphics/SVG/1.1/DTD/svg11.dtd">
<svg version="1.1" xmlns="http://www.w3.org/2000/svg" xmlns:xlink="http://www.w3.org/1999/xlink" x="0px" y="0px" width="20px"
	 height="20px" viewBox="0 0 20 20" enable-background="new 0 0 20 20" xml:space="preserve">
<g id="Isolation_Mode">
	<g>
		<path fill-rule="evenodd" clip-rule="evenodd" fill="#FAFAFA" d="M19.5,10c0,2.6-0.9,4.9-2.8,6.7c-1.9,1.9-4.1,2.8-6.7,2.8
			s-4.9-0.9-6.7-2.8c-1.9-1.9-2.8-4.1-2.8-6.7c0-2.6,0.9-4.9,2.8-6.7C5.1,1.4,7.4,0.5,10,0.5s4.9,0.9,6.7,2.8
			C18.6,5.1,19.5,7.4,19.5,10z"/>
		<path fill-rule="evenodd" clip-rule="evenodd" fill="#00287A" d="M15.5,2.3l-3.6,3.8V0.6C13.2,0.9,14.4,1.5,15.5,2.3z M19.1,12.7
			c-0.2,0.8-0.6,1.6-1.1,2.5l-2.4-2.5H19.1z M18,4.8c0.6,0.8,1,1.6,1.1,2.5h-3.5L18,4.8z M8,19.3c-1.3-0.3-2.6-0.8-3.7-1.6L8,13.9
			V19.3z M15.5,17.7c-1,0.8-2.2,1.3-3.6,1.6v-5.4L15.5,17.7z M2,15.2c-0.5-0.7-0.9-1.5-1.1-2.4h3.4L2,15.2z M0.8,7.3
			c0.3-1,0.7-1.8,1.1-2.4l2.3,2.4H0.8z M4.3,2.3C5.4,1.5,6.6,1,8,0.7v5.4L4.3,2.3z"/>
		<path fill-rule="evenodd" clip-rule="evenodd" fill="#D01329" d="M2.4,4.1l0.7-0.8l3.7,3.9H5.4L2.4,4.1z M11.1,0.5v7.7h8.3
			l0.1,1.7l-0.1,1.1h-8.4v8.4L10,19.5l-1.2-0.1v-8.4H0.5V10c0-0.8,0-1.3,0.1-1.7h8.2V0.5C9,0.5,9.4,0.5,10,0.5L11.1,0.5z M12.9,7.3
			h-1.5L16,2.6l0.8,0.8L12.9,7.3z M8.5,12.1l-4.9,5l-0.8-0.8L7,12.1H8.5z M12.8,12.1h1.4l3.4,3.6l-0.7,0.8L12.8,12.1z"/>
	</g>
</g>
<g id="Isolation_Mode_1_">
</g>
</svg>
