<?xml version="1.0" encoding="utf-8"?>
<!-- Generator: Adobe Illustrator 15.0.0, SVG Export Plug-In . SVG Version: 6.00 Build 0)  -->
<!DOCTYPE svg PUBLIC "-//W3C//DTD SVG 1.0//EN" "http://www.w3.org/TR/2001/REC-SVG-20010904/DTD/svg10.dtd">
<svg version="1.0" id="Layer_1" xmlns="http://www.w3.org/2000/svg" xmlns:xlink="http://www.w3.org/1999/xlink" x="0px" y="0px"
	 width="30px" height="30px" viewBox="0 0 50 50" enable-background="new 0 0 50 50" xml:space="preserve">
<g>
	<path fill-rule="evenodd" clip-rule="evenodd" fill="#FFFFFF" d="M28.3,39.3c0.1-0.4,0.2-0.8,0.2-1.3c0-0.4-0.1-0.9-0.2-1.3
		c-0.2-0.4-0.4-0.8-0.8-1.1c-0.6-0.5-1.2-0.8-1.9-0.9l-0.5,0c-0.4,0-0.8,0.1-1.1,0.3c-0.4,0.2-0.8,0.4-1.1,0.7
		c-0.3,0.3-0.5,0.7-0.7,1.1c-0.2,0.4-0.3,0.8-0.3,1.3c0,0.4,0.1,0.9,0.3,1.3s0.4,0.8,0.7,1.1c0.3,0.3,0.7,0.5,1.1,0.7
		c0.3,0.1,0.7,0.2,1.1,0.3h0.5c0.7-0.1,1.4-0.4,1.9-1C27.9,40.1,28.2,39.7,28.3,39.3z M32,36l2.3,0.9v2.3l-2.4,0.9l-0.5,1.1l1.1,2.3
		l-1.6,1.7l-2.4-0.9l-1.2,0.5L26.5,47h-2.4l-1.3-2.6l-1.1-0.5L20,45.3l-1.7-1.7l0.9-2.4L18.6,40l-2.2-0.8v-2.4l2.2-0.6l0.4-1.1
		l-0.9-2.6l1.6-1.7l2.2,1l1.3-0.5l1-2.3h2.4l0.7,2.3l1.1,0.5l2.4-1.1l1.7,1.7l-0.8,2.3L32,36z M30.7,17.1c0,0.7,0.2,1.4,0.5,2
		c0.2,0.6,0.6,1.2,1.1,1.7c0.5,0.5,1,0.8,1.7,1.1c0.6,0.2,1.2,0.4,1.8,0.4h0.5c0.6,0,1.2-0.2,1.8-0.4c0.6-0.3,1.2-0.6,1.7-1.1
		c0.5-0.5,0.8-1,1.1-1.7c0.3-0.6,0.5-1.3,0.5-2c0-0.7-0.2-1.4-0.5-2c-0.2-0.6-0.6-1.2-1.1-1.7c-0.5-0.5-1.1-0.8-1.7-1.1
		c-0.6-0.2-1.2-0.4-1.8-0.4h-0.5c-0.6,0-1.2,0.2-1.8,0.4c-0.6,0.3-1.2,0.6-1.7,1.1c-0.5,0.5-0.8,1-1.1,1.7
		C30.8,15.7,30.7,16.4,30.7,17.1z M12.7,18.2c-0.4-0.2-0.9-0.3-1.4-0.4h-0.4c-0.5,0-0.9,0.2-1.4,0.4c-0.5,0.2-0.9,0.5-1.3,0.9
		c-0.4,0.4-0.7,0.8-0.9,1.3c-0.2,0.5-0.4,1-0.4,1.6c0,0.6,0.1,1.1,0.4,1.6c0.2,0.5,0.5,0.9,0.9,1.3c0.4,0.4,0.8,0.7,1.3,0.9
		c0.4,0.2,0.9,0.3,1.4,0.3h0.2c0.2,0,0.3,0,0.5,0c0.4,0,0.8-0.1,1.2-0.3c0.5-0.2,0.9-0.5,1.3-0.9c0.4-0.3,0.7-0.8,0.9-1.3
		c0.2-0.5,0.3-1,0.3-1.6c0-0.5-0.1-1.1-0.3-1.6c-0.2-0.5-0.5-0.9-0.9-1.3C13.7,18.7,13.3,18.4,12.7,18.2z M17.9,12.9L20,15l-1.1,2.9
		l0.6,1.5l2.8,1.1v2.9l-2.9,1.1l-0.6,1.4l1.3,2.8l-2,2.2l-2.9-1.2l-1.5,0.6l-1,2.9h-3L8.1,30l-1.3-0.7L4.5,31l-2.2-2.1l1.1-3.1
		l-0.6-1.4l-2.8-1v-3l2.8-0.7l0.5-1.3l-1.2-3.2l2-2.1l2.7,1.2l1.6-0.7l1.3-2.9h2.9l1,2.9l1.4,0.6L17.9,12.9z M27,5.9l3.4,1.5l2-0.8
		L34,3h3.7l1.2,3.6l1.8,0.8l3.8-1.8l2.7,2.7l-1.4,3.7l0.8,2l3.5,1.4v3.6l-3.7,1.5L45.6,22l1.7,3.6l-2.5,2.7L41,26.8l-1.9,0.8
		l-1.3,3.7H34L32,27.2l-1.7-0.8l-2.9,2.1l-2.7-2.7l1.4-3.9l-0.8-1.8l-3.5-1.2v-3.8l3.5-0.9l0.6-1.7l-1.4-4L27,5.9z"/>
</g>
</svg>
