<?xml version="1.0" encoding="utf-8"?>
<!-- Generator: Adobe Illustrator 16.0.0, SVG Export Plug-In . SVG Version: 6.00 Build 0)  -->
<!DOCTYPE svg PUBLIC "-//W3C//DTD SVG 1.1//EN" "http://www.w3.org/Graphics/SVG/1.1/DTD/svg11.dtd">
<svg version="1.1" id="Layer_1" xmlns="http://www.w3.org/2000/svg" xmlns:xlink="http://www.w3.org/1999/xlink" x="0px" y="0px"
	 width="223.9px" height="123.8px" viewBox="0 0 223.9 123.8" enable-background="new 0 0 223.9 123.8" xml:space="preserve">
<g>
	<path fill-rule="evenodd" clip-rule="evenodd" d="M18.4,58.8C4.8,49.6,4.4,34,25.6,27.5c9.8-3,19.9-0.2,32.9,1.4
		c12.8,1.6,25.5,0.6,37.8-4.7c7-16.6,20.2-22.1,39.4-16.6C147,3.8,158.9,9,171,16.8c7.9-5.8,19.5-5.8,31.4,7.3
		c10.1,11.2,14.4,27.3,5.6,49.1c-7.1,17.6-17,22-26.4,18.5c-5.3,5.3-10.3,7.5-15.1,9.3c-4,12.2-36.8,34.4-47.2,9.2
		c-11.8,6-37.6,5.1-29.8-14.6c-25.5,5-41.8-13-21.7-31.9C46.8,66.1,30.2,66.9,18.4,58.8L18.4,58.8z"/>
	<path fill-rule="evenodd" clip-rule="evenodd" fill="#E4ECF1" d="M96.6,31.5C80.9,34.6,64.4,34,49,32c-8-1.1-14.5-2.6-21.4-0.5
		C8.1,37.4,12,54.1,31.3,59.2c14.6,3.9,31,0.7,47.3-2.9c2.3-0.5,2.5,1.1,0.4,3c-40.8,36.1,12.7,39.2,37.2,16.2
		c-5.2-0.9-9.6-3.3-13.3-7.2c-9.6,1.1-17.8,1.2-25.3,0.7c8.3-1.9,16.1-4,20.2-7.8C94.1,56.3,96.3,44.5,96.6,31.5L96.6,31.5z"/>
	<path fill-rule="evenodd" clip-rule="evenodd" fill="#E4ECF1" d="M142.7,85.5c9.3-8,24.4-2.2,19.1,10.8
		c-4.8,11.8-17.5,24.3-32.1,19.9c-3.6-1.1-4.9-4.2-3.1-7.9C135.1,101.2,142,93.7,142.7,85.5L142.7,85.5z"/>
	<path fill-rule="evenodd" clip-rule="evenodd" fill="#E4ECF1" d="M137.7,87c3.9-10.9-3.6-14.3-17.1-9.8
		c-5.9,7.8-15.3,13.6-26.2,18.1c-2.6,4.5-4.5,13.4,9.3,13.4C119.4,108.7,132.5,101.4,137.7,87L137.7,87z"/>
	<path fill-rule="evenodd" clip-rule="evenodd" fill="#E4ECF1" d="M118.6,71.4c11.4-0.8,22.7-2.1,25.1,7
		c14.2-1.7,26.2-0.6,24.7,17.2c14.4-7.3,19.6-22.2,20.6-40.5c2.1,8.1,1.6,16.8-2.7,26.4c4.8-7.6,6.9-15.1,7.9-22.6
		c1,10.2-1.1,20.1-5.4,29.6c29.9-9.9,21.6-78.2-12.1-69.4c8.1,14.1,7.1,28.4,4.6,43c2.5-30-9.8-50.6-42.3-51.9
		c5.1,4.9,7.9,11.2,10.4,17.7c-10.4-12.3-21.1-18.1-31.7-16.7c-7.6,1-12.9,7.9-15.4,18.3c-2.8,11.4-5.6,23.3,0.6,31.1
		c19.8,25.1,30.6-29.1,15.8-41.4C139.4,32.6,130.9,59.6,118.6,71.4L118.6,71.4z"/>
	<path fill-rule="evenodd" clip-rule="evenodd" d="M131.4,62.5c19.5,12,31,2.4,36-16.5C159.9,62.4,147.9,67.9,131.4,62.5L131.4,62.5
		z"/>
	<path fill-rule="evenodd" clip-rule="evenodd" fill="#FFFFFF" d="M132.8,53.9c-1.3,3.4-3.1,5.8,3.5,6.5
		c14.3,1.6,31.7-8.9,31.3-27.8c-0.1-6.8-5-12.6-13.8-16.5c-4.3-1.9-6.3-0.5-4,2.3c2.8,3.4,4.3,6.2,3.6,10c-1.2,5.9-3,6.9-5.6,2.9
		c-5.4-8.2-13.1-13.5-21.7-16.9c-5.4-2.1-6.8,0.1-2.6,3.9C133,27,138.7,37.9,132.8,53.9L132.8,53.9z"/>
	<path fill-rule="evenodd" clip-rule="evenodd" fill="#FFFFFF" d="M108,21.7c1.1-2.2,3.6-4.2,6.4-0.8c7.4,9.1,10.9,21.8,5.1,35.6
		c-4.9,11.7-12.7,6.8-15.7-0.5C99.9,46.4,101.7,34.1,108,21.7L108,21.7z"/>
	<path fill-rule="evenodd" clip-rule="evenodd" fill="#FFFFFF" d="M70.8,85.1c-5.7-1.8-5.5-8,0.8-10.3c7.5-2.8,15.7-3.2,26.7-2.6
		c8.7,0.5,10.7,3.6,5.7,7.2C92.5,87.6,81.1,88.4,70.8,85.1L70.8,85.1z"/>
	<path fill-rule="evenodd" clip-rule="evenodd" fill="#FFFFFF" d="M103,105.2c-6.3,0-8.5-4.5-3.9-7.1c8.9-5.1,20.1-12.3,24.9-17.7
		c5.7-6.4,13.3,0.2,10.1,7.5C129.5,98.3,117.3,105.2,103,105.2L103,105.2z"/>
	<path fill-rule="evenodd" clip-rule="evenodd" fill="#FFFFFF" d="M135.6,114.4c-5.7,0.9-7-2.2-3.6-5.5c6.5-6.5,10.4-14.3,16-22.5
		c3.4-4.9,14.3-1.6,11.6,7.9C156.1,107,145.2,112.7,135.6,114.4L135.6,114.4z"/>
	<path fill-rule="evenodd" clip-rule="evenodd" fill="#FFFFFF" d="M85.7,51.3c-18.4,7-38.1,8.6-54.4,3.7c-12.7-3.8-20-16.8,0.8-20.4
		c17.4-3,35.3,2.1,52.7,4.8C94.8,41,92.4,48.7,85.7,51.3L85.7,51.3z"/>
	<path fill-rule="evenodd" clip-rule="evenodd" fill="#FFFFFF" d="M190.3,45.4c1.7,5,9.9,6.9,11.3-4.3c1-7.7-6.2-13-11.8-17
		c-7.7-5.5-7.7-2.3-6.4,0.8C186.3,31.4,187.8,38.1,190.3,45.4L190.3,45.4z"/>
	<path fill-rule="evenodd" clip-rule="evenodd" fill="#FFFFFF" d="M155.2,75.2c-5.9-1.2-5.2-2.2,0.5-4.6c7.9-3.3,12-12.6,15.2-22.9
		c1.6-5.4,5.8-3.8,7.2,2.7c1.7,8-0.6,18.3-1.4,28.8c-0.5,6.1-1,6.1-5.4,1.6C167.4,76.9,161.6,76.5,155.2,75.2L155.2,75.2z"/>
</g>
</svg>
