<?xml version="1.0" encoding="utf-8"?>
<!-- Generator: Adobe Illustrator 16.0.0, SVG Export Plug-In . SVG Version: 6.00 Build 0)  -->
<!DOCTYPE svg PUBLIC "-//W3C//DTD SVG 1.1//EN" "http://www.w3.org/Graphics/SVG/1.1/DTD/svg11.dtd">
<svg version="1.1" id="Layer_1" xmlns="http://www.w3.org/2000/svg" xmlns:xlink="http://www.w3.org/1999/xlink" x="0px" y="0px"
	 width="140px" height="40px" viewBox="0 0 140 40" enable-background="new 0 0 140 40" xml:space="preserve">
<g>
	<path fill-rule="evenodd" clip-rule="evenodd" fill="#FFFFFF" d="M56.2,28.3C56.2,28.3,56.2,28.3,56.2,28.3l0,0.1L56.2,28.3
		L56.2,28.3z M52.6,29.3L52.6,29.3L52.6,29.3L52.6,29.3C52.6,29.2,52.6,29.2,52.6,29.3z M53.3,28.3c0.1,0,0.2-0.1,0.4-0.1
		c-0.1-0.1-0.2-0.1-0.2-0.2L53.3,28c-0.1,0-0.2,0.1-0.2,0.1c-0.1,0-0.1,0.1-0.2,0.2c0,0,0,0.1,0,0.1c0,0.1,0,0.1,0,0.1
		C53.1,28.4,53.2,28.4,53.3,28.3z M52.5,27L52.5,27c0-0.1-0.1-0.1-0.1-0.1s0,0,0,0.1c0,0-0.1,0-0.1,0c0,0,0.1,0,0.1,0
		c0,0,0,0.1,0,0.1C52.5,27.1,52.5,27,52.5,27C52.5,27,52.5,27,52.5,27z M55.8,27C55.8,27,55.9,27,55.8,27L55.8,27
		C55.9,26.9,55.9,26.9,55.8,27L55.8,27z M55.5,26.1c0.1-0.1,0.1-0.2,0.2-0.3c0-0.1,0.1-0.1,0.2-0.3c0-0.1-0.1-0.2-0.1-0.2
		c0-0.1,0-0.1-0.1-0.1c-0.1,0-0.2,0-0.3,0.2c-0.1,0.1-0.1,0.2-0.1,0.3s0,0.2,0.1,0.2C55.4,26,55.5,26.1,55.5,26.1z M53.5,24.1
		c-0.1,0-0.1-0.1-0.1-0.1c0,0-0.1,0-0.1,0s-0.1,0-0.1,0c0,0,0,0.1-0.1,0.1c0,0,0,0.1,0.1,0.1c0,0,0.1,0,0.1,0l0,0
		C53.3,24.2,53.4,24.2,53.5,24.1z M53,22.4v-0.1l0,0v0l-0.1,0L53,22.4C52.9,22.4,52.9,22.4,53,22.4z M51.8,22.3L51.8,22.3L51.8,22.3
		L51.8,22.3C51.7,22.2,51.7,22.2,51.8,22.3L51.8,22.3L51.8,22.3z M51.5,17.2l0.1-0.1l0-0.1c0,0,0,0,0,0l0,0L51.5,17.2
		C51.4,17.1,51.5,17.2,51.5,17.2z M52.5,15.5C52.5,15.5,52.5,15.5,52.5,15.5C52.5,15.5,52.4,15.5,52.5,15.5c-0.1,0-0.1,0-0.2,0.1v0
		L52.5,15.5C52.4,15.6,52.5,15.5,52.5,15.5z M53,13.7c0,0,0-0.1,0-0.1L53,13.7C52.9,13.7,53,13.7,53,13.7L53,13.7z M43.3,24.1
		L43.3,24.1L43.3,24.1L43.3,24.1z M45,8C45,8,44.9,8,45,8l-0.2,0c0,0,0,0,0,0l0,0c0,0,0,0.1,0.1,0.1L45,8C44.9,8,45,8,45,8z
		 M51.8,12c0.1-0.5,0.2-1,0.2-1.5c0-0.5,0-1,0-1.5c0-0.5,0.1-0.9,0.3-1.1s0.5-0.4,1-0.4c0.4,0,0.7,0,0.8,0.3
		c0.2,0.2,0.4,0.4,0.6,0.8c0.1,0.2,0.1,0.4,0,0.6c-0.1,0.3-0.2,0.5-0.4,0.6C54.2,9.8,54.1,9.9,54,10c-0.1,0.1-0.2,0.2-0.3,0.2
		c0,0,0,0.1,0,0.1s0,0.1,0,0.1l0,0h0c0.1-0.1,0.1-0.1,0.2-0.2c0.1-0.1,0.2-0.1,0.3-0.2c0.1-0.1,0.1-0.1,0.2,0c0.1,0,0.1,0,0.1,0.1
		c0,0.2,0,0.4,0,0.6c0,0.2,0,0.3,0,0.5c0,0.2-0.2,0.3-0.3,0.4c0,0.1,0.1,0.2,0.1,0.3c0,0.1,0,0.1,0,0.2c-0.1,0.2-0.1,0.5-0.2,0.8
		c-0.1,0.2-0.2,0.4-0.4,0.6c0,0-0.1,0.1-0.1,0.2c0,0.1,0,0.1,0,0.2c0.1,0.2,0.1,0.3,0,0.5c0,0.2-0.1,0.3-0.1,0.5c0,0.2,0,0.4,0,0.6
		c0,0.2,0.1,0.4,0.2,0.5c0.1,0.1,0.2,0.2,0.2,0.3s0,0.3-0.1,0.5c-0.1,0.2-0.1,0.4-0.1,0.6s-0.1,0.5-0.1,0.7c0.2,0.1,0.4,0.1,0.4,0.2
		c0,0.1,0,0.2-0.2,0.4c-0.1,0.2-0.2,0.4-0.2,0.6c-0.1,0.2-0.1,0.4-0.2,0.6c0,0.1,0,0.1,0,0.2c0,0.1,0.1,0.1,0.1,0.2
		c0.2,0,0.3,0.1,0.3,0.2c0,0.1,0,0.3,0,0.5c0,0.1,0,0.2,0,0.3c0,0.1-0.1,0.2-0.1,0.3c-0.2,0.4-0.2,0.8-0.2,1.1c0,0.4,0.1,0.7,0.3,1
		c0.1,0.3,0.1,0.5,0.1,0.7c0,0.2,0,0.5-0.2,0.7c-0.1,0.1-0.1,0.2-0.1,0.3c0,0.2,0,0.3,0,0.4c0.1,0,0.1-0.1,0.2-0.1
		c0.1-0.1,0.2,0,0.2,0.1c0,0.4,0,0.8,0.2,1.1c0.1,0.3,0.2,0.7,0.3,1c0,0.1,0.1,0.2,0.1,0.3c0,0.1,0,0.1,0,0.2c0,0.1,0,0.2-0.1,0.3
		c0,0-0.1,0-0.2,0c0,0.1,0.1,0.2,0.1,0.3c0,0.1,0.1,0.2,0.1,0.3c0,0.2,0,0.3,0,0.4c0,0.1-0.1,0.3-0.2,0.4c-0.1,0.2-0.3,0.4-0.4,0.6
		c-0.1,0.2-0.3,0.4-0.4,0.6c-0.2,0.1-0.4,0.2-0.6,0.1c-0.2-0.1-0.3-0.2-0.5-0.5c0,0-0.1-0.1-0.1-0.1c-0.1-0.1-0.1-0.1-0.2-0.1
		c-0.2,0-0.3,0-0.3-0.1c0-0.1,0-0.3,0-0.4c-0.1-0.2-0.1-0.4-0.1-0.6s0-0.5,0-0.7c0-0.1,0-0.2,0.1-0.4c0-0.1-0.1-0.2-0.2-0.3
		c-0.1-0.1-0.2-0.3-0.2-0.4c0-0.2,0-0.3,0-0.5c0-0.4,0.1-0.9,0.1-1.3c0-0.4,0.1-0.9,0.1-1.3c0-0.1,0-0.3,0-0.3
		c0-0.1-0.1-0.1-0.3-0.1c0,0-0.1-0.1-0.1-0.1c0-0.1,0-0.2,0-0.3c0-0.2,0-0.4,0-0.7c0-0.2,0-0.4-0.1-0.6c0-0.1,0-0.2,0.1-0.3
		c0-0.1,0.1-0.3,0.1-0.4c0-0.1,0-0.2,0-0.3s0-0.2,0-0.3c-0.1-0.2-0.1-0.3,0-0.3c0-0.1,0.1-0.2,0.3-0.4c0.1-0.1,0.1-0.2,0.1-0.3
		c0-0.1-0.1-0.1-0.2-0.2c-0.2,0-0.3-0.1-0.5-0.1c-0.2-0.1-0.3-0.2-0.4-0.4c0,0,0-0.1,0-0.1c0-0.1,0-0.1,0-0.2
		c-0.1,0.1-0.2,0.1-0.3,0.1c-0.1-0.1-0.3-0.1-0.4,0c-0.1,0.1-0.2,0.2-0.3,0.2c-0.1,0.1-0.2,0.1-0.3,0.3c-0.1,0.2-0.2,0.3-0.3,0.3
		c-0.1,0-0.2,0-0.3-0.1c-0.1,0-0.2,0-0.3,0c-0.1,0-0.1,0-0.2,0c-0.2,0-0.3,0-0.3,0s0-0.1,0-0.3c0-0.1,0-0.2,0-0.3c0-0.1,0-0.1,0-0.2
		c0,0.1-0.1,0.1-0.2,0.1c0,0.1-0.1,0.1-0.1,0.1c0,0-0.1,0.1-0.1,0.2c0,0,0,0.1,0,0.1c0,0.1-0.1,0.2-0.2,0.2c0,0-0.1,0-0.2,0
		c-0.4,0-0.7-0.1-1-0.3c-0.3-0.2-0.6-0.3-0.9-0.5c-0.1,0-0.1-0.1-0.2-0.1s-0.1,0-0.2,0.1c0,0.1-0.1,0.1-0.1,0.2c0,0.1,0,0.2,0,0.3
		c0,0.2,0,0.4,0,0.5c0,0.2-0.1,0.4-0.2,0.6c-0.1,0.2-0.1,0.4-0.1,0.6c0,0.2-0.1,0.4-0.2,0.6c0,0,0,0.1,0,0.2c0,0.1,0,0.2,0,0.3
		c0,0.1,0,0.3,0,0.4c0,0.2,0,0.3,0,0.4c-0.2,0.2-0.3,0.3-0.3,0.5c0,0.2,0,0.4,0.1,0.6c0,0.2,0,0.4,0,0.6c0,0.2,0,0.4,0,0.7
		c0,0.4,0,0.6,0,0.8c-0.1,0.2-0.3,0.3-0.6,0.5c0,0-0.1,0-0.1,0.1c-0.1,0-0.1,0.1-0.1,0.1c0,0-0.1,0.1-0.1,0.1c0,0,0,0.1,0,0.1l0.1,0
		c0,0,0.1,0,0.1,0c0.1-0.1,0.2-0.1,0.3,0c0.1,0,0.2,0.1,0.2,0.3c0,0.3,0,0.6,0,0.8c0,0.3,0.1,0.6,0.3,0.8v0.2
		c-0.1,0.2-0.3,0.4-0.4,0.7c-0.1,0.2-0.2,0.4-0.4,0.6l0,0c0,0,0,0.1-0.1,0.2c0,0.1,0,0.1,0,0.2c-0.1,0.2-0.1,0.4-0.2,0.4
		c-0.1,0.1-0.2,0.1-0.4,0c-0.1,0-0.1,0-0.2,0c0,0-0.1,0-0.1,0.2c0.1,0.1,0.1,0.1,0.1,0.2c0,0.1,0,0.1-0.1,0.3
		c-0.1,0.1-0.2,0.1-0.4,0.1c-0.1,0-0.3,0-0.4,0c0-0.1-0.1-0.3-0.1-0.4c-0.1-0.2-0.1-0.3-0.1-0.5c0,0,0-0.1,0-0.1c0-0.1,0-0.1,0-0.2
		c0,0,0-0.1,0.1-0.1c0.1,0,0.1-0.1,0-0.2c0,0-0.1,0-0.1,0.1C41.1,31,41.1,31,41,31c0,0.1,0,0.2,0,0.3c0,0.1,0,0.2,0,0.3
		c0,0.1,0,0.1,0,0.2c0,0,0,0.1-0.1,0.1c0,0-0.1-0.1-0.1-0.1c0,0,0-0.1,0-0.2c0-0.1,0-0.3,0-0.5c0-0.1,0-0.3,0-0.5
		c0.1-0.4,0.2-0.9,0.2-1.3c0-0.4,0-0.9,0-1.3c0-0.4,0-0.8,0-1.2c0.1-0.4,0.3-0.7,0.6-1c0.1-0.1,0.1-0.1,0-0.2c0-0.1-0.1-0.1-0.1-0.1
		c-0.1,0-0.2-0.1-0.2-0.1c0-0.1,0-0.2,0-0.3c0.1-0.3,0.2-0.5,0.3-0.8c0.1-0.3,0.3-0.5,0.5-0.6c0.1-0.1,0.1-0.1,0.1-0.2
		c0-0.1-0.1-0.2-0.1-0.2c-0.2-0.1-0.3-0.3-0.4-0.3c0-0.1,0.1-0.2,0.4-0.5c0,0,0-0.1,0-0.1c-0.1-0.1-0.1-0.2-0.2-0.3
		c-0.1-0.1-0.1-0.2-0.1-0.3c0-0.2,0-0.4,0-0.5c0.1-0.2,0.2-0.3,0.3-0.5c0.1-0.1,0.1-0.2,0.1-0.3c0-0.1,0-0.2,0-0.3
		c0-0.2,0-0.5,0.1-0.7c0-0.2,0-0.4,0.1-0.6c0.1-0.3,0.2-0.6,0.3-1c0.1-0.3,0.2-0.6,0.4-0.9c-0.1-0.1-0.2-0.1-0.3-0.3s0-0.3,0-0.5
		c0.1-0.4,0.2-0.7,0.3-1.1s0.1-0.8,0.2-1.2c0-0.1,0-0.3,0.1-0.4c0-0.2,0.1-0.3,0.1-0.4c0.1-0.2,0.1-0.4,0.2-0.6
		c0.1-0.2,0.1-0.3,0.1-0.5c0-0.3,0-0.6,0.1-0.9c0-0.3,0.1-0.5,0.3-0.8c0.1-0.1,0.1-0.2,0.1-0.4c0-0.2,0-0.3,0-0.4s0-0.3,0-0.4
		c0-0.1,0-0.2,0-0.3c0-0.4,0-0.9,0.1-1.3c0.1-0.4,0.2-0.8,0.4-1.2c0.1-0.2,0.2-0.4,0.3-0.4c0.1,0,0.2,0,0.3,0.1
		c0.1,0.1,0.1,0.2,0.2,0.3c0.1,0.1,0.1,0.1,0.2,0.1c0.2,0.1,0.3,0.2,0.5,0.3C46,7.4,46,7.6,46,7.8c0,0.1,0,0.2,0.2,0.3
		c0.1,0.1,0.1,0.2,0.2,0.3c0.1,0.1,0.2,0.3,0.3,0.5c0,0.2,0,0.4-0.1,0.6c-0.1,0.2-0.1,0.4-0.1,0.6c0,0.2,0,0.4,0,0.6
		c0,0.2,0,0.3,0,0.4c0,0.1-0.1,0.3-0.2,0.4c-0.1,0.1-0.2,0.3-0.3,0.4c0,0.1,0,0.2,0.1,0.4c0,0.1,0,0.3,0,0.3
		c-0.1,0.1-0.2,0.1-0.3,0.2c0,0-0.1,0-0.1,0c0,0-0.1,0.1-0.1,0.1c0,0,0.1,0,0.1,0.1s0.1,0,0.1,0c0.1,0,0.1,0,0.2,0s0.1,0,0.1,0
		c0,0,0.1,0.1,0.1,0.1c0,0,0,0.1,0,0.1c0,0.1,0,0.1,0,0.1c0,0.1-0.1,0.1-0.1,0.1c0,0-0.1,0.1-0.1,0.1c-0.1,0-0.1,0-0.2,0
		c-0.2,0.1-0.3,0.1-0.3,0.3c0,0.1,0,0.3,0,0.5c0,0.2,0,0.5-0.1,0.8c0,0.2-0.1,0.5-0.3,0.7c0.1,0.2,0.2,0.3,0.3,0.5
		c0,0.2,0,0.4-0.1,0.6c0,0.1-0.1,0.1-0.1,0.2c0,0.1,0,0.1,0,0.2c0,0.2,0,0.3-0.1,0.4c-0.1,0-0.2,0-0.3,0c0,0,0,0.1-0.1,0.1
		c0,0.1-0.1,0.1-0.1,0.2c0,0,0.1,0,0.2,0c0.1,0,0.1,0,0.1,0c0.1,0,0.2,0.1,0.2,0.1c0,0.1,0,0.2,0,0.3c-0.1,0.1-0.1,0.2-0.1,0.3
		c0,0.1,0.1,0.1,0.2,0.1c0.1,0,0.1,0,0.2-0.1c0.1,0,0.1-0.1,0.2-0.1c0.1-0.1,0.2-0.3,0.3-0.4s0.1-0.3,0.1-0.4c0-0.2,0.1-0.4,0.2-0.5
		c0.1-0.1,0.2-0.3,0.3-0.4c0.2-0.1,0.3-0.1,0.3-0.1c0.1,0,0.1,0.1,0.1,0.3s0,0.3,0.1,0.4c0,0.1,0.1,0.2,0.3,0.2
		c0.2,0.1,0.3,0.2,0.4,0.3c0,0.2,0,0.4-0.1,0.6c0.1-0.1,0.3-0.2,0.4-0.4c0.1-0.1,0.3-0.2,0.4-0.3c0.1-0.1,0.3-0.1,0.5,0
		c0,0,0.1-0.1,0.1-0.1c0,0,0-0.1,0-0.1c0.1-0.3,0.2-0.4,0.3-0.4c0.1,0,0.2,0,0.4,0c0.1,0,0.3,0,0.3,0c0.1-0.1,0.2-0.2,0.3-0.4
		c0.1-0.2,0.2-0.3,0.4-0.3c0.1,0,0.2,0.2,0.3,0.4c0,0.1,0,0.1,0,0.2c0,0.1,0,0.1,0,0.2c0,0,0,0.1,0,0.1l0,0.1l0.1-0.1
		c0.1-0.1,0.2-0.3,0.3-0.5c0.1-0.1,0.1-0.3,0.2-0.4c0.1-0.1,0.1-0.2,0.1-0.3c0.1-0.1,0.1-0.2,0.1-0.3c0-0.4,0.1-0.7,0.1-1.1
		c0-0.4,0-0.8,0.1-1.1c0-0.3,0-0.5,0-0.8C51.7,12.5,51.8,12.3,51.8,12z M73.3,20.3C73.3,20.3,73.2,20.2,73.3,20.3
		c-0.2-0.1-0.2-0.1-0.3-0.2v0.1h0c0,0,0,0.1,0,0.2c0,0.1,0.1,0.2,0.1,0.2l0,0C73.2,20.4,73.2,20.3,73.3,20.3z M69.7,24.5L69.7,24.5
		l0-0.1v-0.1C69.7,24.4,69.7,24.4,69.7,24.5C69.7,24.5,69.7,24.5,69.7,24.5z M58,14.7C58,14.7,58,14.8,58,14.7
		C58,14.8,58,14.9,58,15c0.1-0.1,0.1-0.1,0.2-0.2c0,0,0-0.1,0-0.1c0,0,0,0,0,0c0,0-0.1-0.1-0.1-0.1c0,0-0.1,0.1-0.1,0.1
		S58,14.7,58,14.7z M65.8,10.1c-0.1-0.1-0.3-0.1-0.5-0.3c0,0.2,0,0.3,0,0.4c0,0.2,0,0.3,0,0.5c0,0,0,0.1,0,0.1c0,0,0.1,0.1,0.1,0.1
		c0.1,0,0.1,0,0.2-0.1c0.1-0.1,0.2-0.2,0.3-0.3c0.1-0.1,0.1-0.2,0.1-0.3C65.9,10.2,65.8,10.1,65.8,10.1z M67.5,9.9L67.5,9.9
		c0,0.1-0.1,0.1-0.1,0.1c0,0,0,0.1,0,0.1v0l0,0C67.5,10,67.5,10,67.5,9.9z M57.8,12.2H58v-0.1c0,0,0-0.1,0-0.1
		C57.9,12.1,57.9,12.1,57.8,12.2C57.9,12.2,57.9,12.2,57.8,12.2z M57.8,11.4c0,0,0.1,0.1,0.1,0.1l0-0.1c0,0,0-0.1,0-0.1
		c0,0-0.1-0.1-0.1-0.1c0,0-0.1-0.1-0.1-0.1l0,0c0,0.1-0.1,0.1-0.1,0.1C57.7,11.3,57.7,11.4,57.8,11.4z M62.5,9.1L62.5,9.1
		c0-0.1-0.1-0.1-0.1-0.1c-0.1,0-0.2,0.1-0.3,0.3C62,9.4,62,9.6,62,9.7v0c0,0,0,0.1,0,0.1c0.1-0.1,0.2-0.1,0.2-0.2
		c0.1-0.1,0.1-0.1,0.1-0.3c0,0,0.1-0.1,0.1-0.1C62.4,9.2,62.5,9.2,62.5,9.1z M75.8,11.2c0,0-0.1-0.1-0.1-0.1c-0.1,0-0.2,0.1-0.3,0.2
		c-0.1,0.1-0.2,0.2-0.2,0.3c0.1,0.1,0.3,0.1,0.3,0.2c0.1,0.1,0.1,0.1,0.1,0.3c0,0-0.1,0.2-0.2,0.4c-0.1,0.2-0.2,0.5-0.3,0.9
		c-0.1,0.3-0.3,0.6-0.4,0.8c-0.1,0.2-0.1,0.3-0.1,0.3c-0.1,0.1-0.2,0.2-0.2,0.4s-0.1,0.3-0.2,0.5c-0.1,0.1-0.2,0.2-0.3,0.3
		c0,0.2,0,0.4-0.1,0.6c-0.1,0.2-0.2,0.4-0.3,0.6c-0.1,0.4-0.3,0.8-0.4,1.3c-0.2,0.4-0.3,0.8-0.3,1.2c0,0.1,0.1,0.2,0.1,0.3
		c0.1,0.1,0.2,0.1,0.4,0.1c0.1,0,0.3-0.1,0.5-0.1c0.1-0.1,0.3-0.1,0.4-0.1c0.1,0,0.1,0,0.2,0.1c0.1,0,0.1,0.1,0.2,0.1
		c0,0,0.1,0,0.1,0c0,0,0.1-0.1,0.1-0.1c0.2-0.2,0.4-0.3,0.6-0.4c0.3,0,0.5,0,0.7,0c0.1,0,0.2,0.1,0.3,0.2s0.1,0.2,0.2,0.3
		c0,0.1,0.1,0.1,0.1,0.1s0.1,0,0.1-0.1c0.1,0,0.2-0.1,0.3-0.2c0.1-0.1,0.2-0.2,0.2-0.3c0.1-0.1,0.1-0.1,0.1-0.1
		c0-0.1-0.1-0.2-0.2-0.2c-0.2-0.1-0.3-0.2-0.3-0.4c-0.1-0.2-0.1-0.4-0.1-0.6c0-0.2,0-0.3,0.1-0.5c0.1-0.1,0.1-0.3,0.2-0.4
		c-0.2,0-0.3,0-0.3-0.1c-0.1,0-0.1-0.1-0.1-0.3c0-0.3-0.1-0.6-0.2-0.9c-0.1-0.3-0.1-0.5-0.2-0.8c0-0.1,0-0.3,0.1-0.5
		c0-0.2,0-0.3,0-0.5c0-0.2-0.1-0.3-0.2-0.3c-0.1-0.1-0.2-0.2-0.2-0.4c0-0.2,0-0.4-0.1-0.7c-0.1-0.2-0.1-0.5-0.1-0.8c0,0,0-0.1,0-0.1
		c0,0,0-0.1,0-0.1C75.8,11.3,75.8,11.3,75.8,11.2z M70.3,8c0,0.3,0,0.5-0.1,0.8S70,9.3,69.9,9.6c-0.1,0.3-0.3,0.6-0.4,0.8
		c-0.2,0.2-0.3,0.4-0.5,0.4c-0.1,0-0.2,0-0.3,0c-0.1-0.1-0.1-0.1-0.1-0.2c0-0.2,0-0.3,0.1-0.4C69,10,69,10,69,9.9c0-0.1,0-0.2,0-0.3
		c0-0.1,0-0.1,0-0.2c-0.2,0.2-0.4,0.4-0.5,0.6c-0.2,0.1-0.3,0.3-0.3,0.4c0,0.1,0,0.1,0,0.1c0,0,0.1,0.1,0.1,0.2c0,0,0,0.1-0.1,0.1
		L68,10.9c-0.3,0-0.5,0-0.8,0c-0.3,0-0.5,0-0.8-0.1c0,0.1-0.1,0.3-0.2,0.4c-0.1,0.1-0.3,0.2-0.5,0.3c-0.2,0.1-0.3,0.1-0.4,0.1
		c-0.1,0-0.1,0-0.2,0c-0.1,0-0.1,0-0.2,0s-0.2,0-0.3,0s-0.2,0-0.3,0c0,0-0.1,0-0.1,0c-0.1,0-0.1,0-0.1,0c-0.1,0-0.1,0-0.2,0.1
		s-0.2,0.2-0.3,0.3S63.5,12,63.5,12c-0.5,0-0.9,0.1-1.4,0.3c-0.4,0.2-0.9,0.3-1.3,0.3c-0.1,0-0.1,0-0.3,0c-0.3,0-0.4,0.1-0.5,0.3
		C60,13,60,13.2,60,13.4c0,0.2,0,0.4-0.1,0.6c-0.1,0.2-0.2,0.3-0.5,0.3c-0.1,0-0.1,0-0.2,0c0-0.1,0-0.1,0-0.1c0-0.1,0-0.1,0-0.2
		c0-0.1,0-0.1,0-0.2c0-0.1,0-0.1,0-0.2c0,0-0.1-0.1-0.1-0.1C59,13.5,59,13.7,59,13.9c0,0.1,0,0.3,0,0.4c0,0.2,0,0.3,0.1,0.4
		c0.1,0.1,0.1,0.3,0.2,0.4c0,0.1,0,0.2-0.1,0.3c0,0-0.1,0.1-0.1,0.2c-0.3,0.2-0.4,0.4-0.5,0.6c-0.1,0.2-0.1,0.5-0.1,0.8
		c0,0,0,0.1,0.1,0.2c0,0,0,0.1,0,0.1c0,0.1-0.1,0.3-0.2,0.4c-0.1,0.1-0.2,0.1-0.3,0.1c-0.1,0-0.2-0.1-0.3-0.3
		c-0.1-0.1-0.2-0.2-0.3-0.2l-0.1,0.1c0,0.2,0,0.4,0.1,0.5c0.1,0.1,0.1,0.3,0.1,0.4s0,0.2-0.2,0.3c-0.1,0.1-0.2,0.2-0.2,0.4
		s0,0.3,0,0.4s0,0.2,0,0.4c0,0.1-0.1,0.2-0.2,0.2c-0.1,0.1-0.2,0.1-0.2,0.3c0,0.1,0,0.3,0.1,0.4c0,0.2,0.1,0.3,0.1,0.5
		c0.2-0.1,0.3-0.2,0.3-0.3c0.1-0.2,0.1-0.3,0.2-0.5c0.1-0.2,0.3-0.3,0.5-0.3c0.1,0,0.2,0,0.3,0.1c0.1,0.1,0.2,0.1,0.3,0.1
		c0,0,0.1-0.1,0.2-0.3c0.1-0.1,0.1-0.3,0.2-0.4C59,19.1,59,19,59.2,19c0.1,0,0.2,0.1,0.3,0.2c0.1,0.1,0.3,0.1,0.3,0.1
		c0,0,0.1,0,0.2,0c0,0,0.1,0,0.1,0l0.1,0.1c0,0,0.1-0.1,0.1-0.2c0-0.1,0.1-0.2,0.2-0.3c0-0.1,0.1-0.2,0.1-0.2s0.2,0,0.3,0.1
		C60.9,19,61,19,61.1,19c0.1,0,0.2,0,0.4-0.1c0.1-0.1,0.2-0.2,0.3-0.2c0.1,0,0.1,0.1,0.2,0.1c0.1,0,0.1,0,0.2,0c0.1,0,0.1,0,0.2-0.1
		c0.1-0.1,0.2-0.2,0.2-0.2c0.1,0,0.2,0.1,0.3,0.2c0.1,0.1,0.2,0.2,0.3,0.2s0.1-0.1,0.2-0.1c0.1-0.1,0.2-0.3,0.3-0.4s0.2-0.1,0.2-0.1
		c0.1,0,0.2,0.1,0.3,0.3c0.1,0.2,0.1,0.3,0.2,0.3c0,0,0.1-0.1,0.1-0.2c0-0.1,0.1-0.3,0.2-0.3c0.1-0.1,0.1-0.2,0.2-0.2
		c0,0,0.1,0.1,0.1,0.1s0,0.1,0,0.1c0,0,0,0.1,0,0.3c0,0.1,0,0.2,0,0.3h0.1c0.1,0,0.2-0.1,0.3-0.2c0.1-0.1,0.2-0.2,0.3-0.4
		c0.1-0.1,0.2-0.2,0.3-0.2c0.2,0,0.3,0.1,0.4,0.2c0.1,0.1,0.1,0.2,0.1,0.4c0,0,0,0.1,0,0.1c0,0.1,0,0.1,0,0.2l0,0v0.1
		c0,0.2,0,0.3-0.1,0.4c-0.1,0.1-0.1,0.2-0.3,0.3c-0.2,0.1-0.5,0.3-0.7,0.6c-0.3,0.2-0.5,0.5-0.7,0.7c-0.2,0.2-0.4,0.3-0.5,0.3
		c-0.1,0-0.1,0-0.2,0s-0.1,0-0.2,0s-0.1,0-0.1,0c0,0-0.1,0-0.1,0c-0.5,0.2-1.1,0.4-1.6,0.5c-0.6,0.1-1.1,0.1-1.6,0.1
		c-0.1,0-0.3,0.1-0.5,0.2c-0.2,0.1-0.3,0.1-0.3,0.1s-0.1,0-0.2,0s-0.1,0-0.2,0c-0.3,0-0.5,0.1-0.8,0.3c-0.3,0.2-0.5,0.3-0.8,0.3
		c-0.1,0-0.1,0.1-0.2,0.3C57,23,56.9,23,56.8,23c-0.1,0-0.1,0-0.2,0c-0.1,0-0.2,0-0.3,0c-0.1,0-0.1,0-0.2,0c0,0.1,0,0.1,0,0.2
		c0,0.1,0,0.3,0.1,0.3c0.1,0.1,0.2,0.2,0.2,0.4c0,0.1,0,0.3,0,0.3c-0.1,0.1-0.1,0.3-0.2,0.4c0,0.1,0,0.3,0,0.4c0,0.2,0,0.3,0,0.5
		c0.1-0.1,0.1-0.3,0.2-0.3c0.1-0.1,0.1-0.3,0.2-0.4c0.1-0.2,0.1-0.5,0.2-0.8c0.1-0.2,0.2-0.4,0.4-0.4c0,0,0.1,0,0.2,0
		c0,0,0.1,0,0.1,0.1c0,0,0,0.1,0,0.1v0c-0.1,0.3-0.2,0.5-0.3,0.8c-0.1,0.2-0.2,0.4-0.2,0.6c0,0.3,0.2,0.7,0.3,1
		c0.2,0.3,0.4,0.6,0.6,0.9c0.1,0.2,0.2,0.4,0.3,0.6c0.1,0.2,0.1,0.3,0.1,0.3c0,0,0.1-0.1,0.3-0.2c0.1-0.1,0.3-0.1,0.5-0.1
		c0.2,0,0.4,0.1,0.5,0.3c0.1,0.1,0.2,0.2,0.3,0.3c0.1,0,0.2-0.1,0.4-0.2c0.2-0.1,0.3-0.1,0.5-0.1c0,0,0.1,0,0.1,0s0.1,0,0.2,0
		c0.2,0,0.3-0.1,0.5-0.2c0.2-0.1,0.3-0.2,0.5-0.2c0.1,0,0.2,0.1,0.2,0.2c0,0.2,0.1,0.3,0.1,0.5c0,0.2,0,0.4,0,0.5
		c0.1-0.1,0.3-0.3,0.4-0.5c0.1-0.2,0.3-0.5,0.3-0.7c0.1-0.2,0.3-0.3,0.5-0.4c0,0,0,0.1,0,0.1c0,0,0,0.1,0.1,0.1c0,0-0.1,0.1-0.1,0.1
		c0,0,0,0.1,0,0.2c0,0.1,0,0.1,0,0.2c0,0,0.1,0,0.2,0c0.3,0,0.5-0.2,0.6-0.5c-0.1,0-0.2,0.1-0.2,0.1c-0.1,0-0.1,0-0.2,0
		c0.1-0.3,0.2-0.5,0.3-0.6c0.2-0.1,0.4-0.2,0.5-0.2c0.1,0,0.1,0,0.2,0s0.1,0,0.2,0c0.1,0,0.3-0.1,0.5-0.2c0.2-0.1,0.3-0.2,0.5-0.3
		c0.2-0.1,0.4-0.2,0.6-0.2c0.2,0,0.4,0.1,0.6,0.2c0.1,0.1,0.2,0.3,0.2,0.5c0,0.2,0,0.4-0.1,0.6c-0.1,0.2-0.2,0.3-0.4,0.3
		C67,28,67,28,66.9,28c-0.1,0-0.1,0-0.2,0v0c0,0,0,0.1,0,0.1c0,0.1,0,0.2,0,0.3c0,0.1,0,0.2,0,0.2c0,0.1,0,0.2-0.1,0.3
		c-0.1,0.1-0.2,0.2-0.3,0.3c-0.2,0.2-0.4,0.4-0.5,0.7c-0.1,0.2-0.2,0.4-0.3,0.5c-0.1,0.2-0.3,0.3-0.5,0.3c-0.1,0-0.3,0-0.4,0
		c-0.2,0-0.3,0-0.4,0C64,30.7,64,30.9,63.9,31c-0.1,0.1-0.3,0.2-0.6,0.2c-0.1,0-0.2-0.1-0.3-0.2c0-0.1-0.1-0.2-0.1-0.4
		c0-0.1-0.1-0.1-0.2-0.1c-0.1,0-0.2,0-0.3,0.1c-0.1,0.1-0.2,0.1-0.3,0.1c-0.1,0-0.2-0.1-0.3-0.2s-0.2-0.2-0.3-0.3
		c-0.1-0.1-0.2-0.2-0.3-0.2c-0.1,0-0.2,0.2-0.2,0.4c0,0.2-0.1,0.4-0.2,0.6c-0.1,0.2-0.3,0.4-0.6,0.4c-0.3,0-0.4-0.2-0.5-0.4
		c-0.1-0.2-0.2-0.5-0.3-0.7c-0.1-0.2-0.2-0.3-0.4-0.4c-0.2,0-0.4,0.1-0.5,0.2c-0.1,0.2-0.2,0.4-0.2,0.6c-0.1,0.2-0.2,0.4-0.3,0.7
		c0-0.1-0.1-0.1-0.1-0.1c-0.1,0-0.1-0.1-0.1-0.2c0,0,0-0.1,0-0.1l0-0.1c0-0.1-0.1-0.1-0.1-0.1c0-0.1,0-0.1,0-0.2
		c-0.2,0.3-0.3,0.5-0.3,0.5c-0.1,0-0.2,0.1-0.4,0.1c0,0,0-0.1,0-0.1c0-0.1,0-0.1,0-0.1c0-0.1,0-0.2,0-0.4c0-0.1,0.1-0.2,0.1-0.3
		c-0.1,0.1-0.1,0.2-0.2,0.3c0,0.1-0.1,0.2-0.2,0.4c-0.1,0.1-0.1,0.1-0.3,0.1c-0.1,0-0.1,0-0.1,0c0-0.1-0.1-0.1-0.1-0.3
		c0-0.1,0-0.3,0.1-0.4c0.1-0.1,0.1-0.3,0.1-0.5c0,0,0-0.1,0-0.1c0,0-0.1,0-0.1,0s-0.1,0-0.2,0.1c-0.1,0-0.1,0-0.2,0
		c-0.1,0-0.2-0.1-0.2-0.3c0-0.1-0.1-0.1-0.1-0.2c0,0.1,0,0.3-0.1,0.4c0,0.1-0.1,0.2-0.3,0.2c-0.2,0-0.4-0.1-0.5-0.4
		c0-0.3-0.1-0.6-0.2-0.8c-0.1-0.2-0.3-0.5-0.3-0.9c-0.1-0.3-0.1-0.8-0.2-1.4c0-0.4,0.1-0.8,0.1-1.2c0.1-0.4,0.1-0.8,0.1-1.1
		c0-0.1,0-0.2,0-0.4c0-0.1,0-0.1,0-0.3c0-0.2,0.1-0.5,0.1-0.8c0-0.3,0.1-0.6,0.2-0.9c0.1-0.4,0.2-0.9,0.4-1.5
		c0.2-0.6,0.3-1.3,0.5-1.9c0.2-0.7,0.3-1.3,0.3-2c0-0.3,0.1-0.6,0.2-0.9c0.1-0.3,0.2-0.6,0.3-0.9c0-0.2,0.1-0.4,0.2-0.5
		c0.1-0.1,0.2-0.3,0.3-0.3c0.1-0.1,0.3-0.3,0.3-0.6c-0.1,0-0.1,0-0.1,0c-0.1,0-0.2,0-0.2,0.1c-0.1,0-0.1,0-0.2,0h0c0,0,0-0.1,0-0.1
		c0-0.1,0-0.2,0.1-0.4c0-0.2,0.1-0.4,0.1-0.6c0-0.7,0.2-1.2,0.4-1.6s0.7-0.8,1.2-1c0.3-0.1,0.5-0.2,0.8-0.4c0.2-0.2,0.4-0.3,0.6-0.3
		c0.1,0,0.1,0,0.3,0.1c0.1,0,0.1,0.1,0.3,0.1c0.1,0,0.2-0.1,0.3-0.1c0.1-0.1,0.2-0.1,0.3-0.1c0.1,0,0.1,0,0.2,0.1
		c0.1,0.1,0.1,0.1,0.1,0.2c0.2-0.2,0.5-0.5,0.7-0.8c0.2-0.2,0.5-0.4,0.7-0.4c0,0,0.1,0,0.2,0c0,0,0.1,0,0.1,0c0.2,0,0.3-0.1,0.5-0.2
		c0.2-0.1,0.4-0.2,0.5-0.3c0.1,0,0.1,0.1,0.2,0.2s0.2,0.1,0.3,0.1s0.2,0,0.3-0.1C64.7,8.1,64.9,8,65,8c0.1-0.1,0.3-0.1,0.3-0.2
		c0.1,0,0.1,0.1,0.2,0.2C65.6,8,65.7,8,65.8,8c0.1,0,0.3,0,0.3-0.1c0.1-0.1,0.3-0.1,0.4-0.1c0.1,0,0.1,0.1,0.3,0.2
		c0.1,0.1,0.1,0.2,0.2,0.3C67,8.4,67,8.4,67.2,8.4h0.1c0-0.1,0.1-0.1,0.2-0.3c0-0.1,0-0.2-0.1-0.3c0-0.1,0-0.2,0-0.3
		c0-0.1,0.1-0.1,0.3-0.3c0.1-0.1,0.3-0.1,0.4-0.1c0.1,0,0.1,0,0.1,0c0.1,0,0.1,0.1,0.2,0.1c0.2,0,0.4-0.1,0.6-0.3
		c0.2-0.2,0.4-0.3,0.6-0.3c0,0,0.1,0,0.1,0c0,0,0,0.1,0,0.2v0c0,0,0,0.1,0,0.1c0,0.1,0,0.1,0,0.2l0,0.1c0,0,0.1,0,0.2-0.1
		C69.8,7.1,69.9,7.1,70,7l0,0c0,0,0.1,0,0.1,0c0,0,0.1,0,0.1,0c0,0.1,0,0.1,0,0.2C70.3,7.5,70.3,7.7,70.3,8z M80.9,30.3v0.1h0
		L80.9,30.3C81,30.3,80.9,30.3,80.9,30.3z M81.3,28.7c0-0.1-0.1-0.3-0.1-0.5C81.1,28,81,27.9,81,27.8c-0.1,0-0.1,0.1-0.1,0.2
		s0,0.2,0,0.3c0,0.1,0,0.2,0,0.3c0,0.1,0.1,0.2,0.2,0.2L81.3,28.7C81.2,28.7,81.2,28.7,81.3,28.7z M79.5,27.7v-0.1h0L79.5,27.7
		C79.5,27.6,79.5,27.7,79.5,27.7L79.5,27.7z M79.5,25.5C79.5,25.5,79.5,25.5,79.5,25.5C79.4,25.5,79.4,25.5,79.5,25.5l-0.2,0.1
		c0,0,0.1,0,0.1,0.1c0,0,0,0,0,0C79.5,25.7,79.5,25.6,79.5,25.5L79.5,25.5L79.5,25.5z M80.5,26c0.1-0.1,0.1-0.2,0.2-0.3
		c-0.1,0-0.1,0-0.2,0l0,0c-0.1,0-0.1,0-0.2,0.1c0,0.1-0.1,0.1-0.1,0.2c0,0,0,0.1,0,0.1c0,0,0.1,0,0.1,0C80.4,26.1,80.5,26,80.5,26z
		 M82.7,25.7L82.7,25.7L82.7,25.7L82.7,25.7z M83.5,28.3C83.5,28.3,83.6,28.3,83.5,28.3c0-0.2,0.1-0.2,0.1-0.3l-0.1,0v0l-0.1,0.2
		C83.5,28.2,83.5,28.3,83.5,28.3L83.5,28.3z M83.2,26.3L83.2,26.3l0,0.1h0V26.3z M90.3,27.5h-0.1c-0.1,0-0.2,0-0.4,0.2
		c-0.1,0.1-0.2,0.2-0.3,0.3c0.1,0,0.3-0.1,0.3-0.1C90,27.9,90.1,27.8,90.3,27.5z M90.3,25.3l0-0.2c0,0-0.1,0-0.1,0.1h-0.1L90.3,25.3
		L90.3,25.3C90.3,25.3,90.3,25.3,90.3,25.3z M92.5,27.8L92.5,27.8L92.5,27.8L92.5,27.8L92.5,27.8L92.5,27.8z M92,27.3
		c0-0.1,0-0.1,0-0.2l-0.2,0.1c0,0.1,0,0.1,0,0.2c0,0.1,0,0.1,0.2,0.1v-0.1C92,27.4,92,27.4,92,27.3C92,27.3,92,27.3,92,27.3z
		 M94,30.3c0,0,0,0.1,0,0.2c0,0.1,0,0.1,0.1,0.1c0,0,0.1-0.1,0.1-0.1s0-0.1,0-0.1c0,0,0-0.1,0-0.1s0-0.2,0-0.3
		C94.2,30,94.1,30.1,94,30.3C94.1,30.2,94,30.2,94,30.3z M88.5,20.5c0.1,0,0.2,0,0.2,0s0.1-0.1,0.1-0.2c0,0,0,0,0,0h0
		c-0.1,0-0.2,0-0.3,0.1s-0.1,0.1-0.2,0.2C88.3,20.5,88.4,20.5,88.5,20.5C88.5,20.5,88.5,20.5,88.5,20.5z M90.5,19.1L90.5,19.1l0-0.1
		L90.5,19.1l-0.1,0L90.5,19.1C90.4,19.2,90.4,19.1,90.5,19.1z M92.3,16v0.2h0v-0.1L92.3,16z M89.8,18.3v0.1h0.1l0-0.1v0H89.8
		C89.9,18.2,89.8,18.2,89.8,18.3z M91.5,13.9C91.5,13.9,91.5,13.9,91.5,13.9C91.5,13.9,91.5,13.9,91.5,13.9L91.5,13.9z M90.5,12.8
		c0,0.1,0,0.1,0,0.2c0,0.1,0,0.1,0,0.1v0l0,0.1l0.1-0.3l0-0.1C90.5,12.9,90.5,12.8,90.5,12.8z M91.5,12.8c0,0,0-0.1,0-0.1
		c0,0.1-0.1,0.1-0.1,0.1c0,0,0,0.1,0,0.1s0,0.1,0,0.1c0,0,0.1,0,0.1,0L91.5,12.8L91.5,12.8z M87.4,21.3c-0.1,0-0.2,0.1-0.2,0.2
		c0,0.1,0,0.1,0,0.3c0-0.1,0.1-0.1,0.1-0.2S87.4,21.3,87.4,21.3z M78.2,16.9c0.1-0.1,0.1-0.1,0.1-0.1c0,0,0-0.1,0-0.1v0
		c0,0-0.1,0.1-0.1,0.1c0,0,0,0.1,0,0.1L78.2,16.9C78.2,16.9,78.2,16.9,78.2,16.9z M86.7,11.5h0.2c0,0,0,0,0,0
		C86.8,11.5,86.8,11.5,86.7,11.5L86.7,11.5C86.7,11.5,86.7,11.5,86.7,11.5z M87.4,11.5C87.4,11.5,87.4,11.5,87.4,11.5
		c-0.1,0-0.2,0-0.3,0c-0.1,0-0.2,0-0.3,0c0.1,0.1,0.1,0.1,0.1,0.2c0.1,0,0.1,0.1,0.2,0.1l0.1-0.1c0,0,0.1-0.1,0.1-0.1
		C87.4,11.6,87.4,11.6,87.4,11.5z M86.3,11.7l0.1-0.1h0C86.3,11.6,86.3,11.6,86.3,11.7L86.3,11.7z M85,12.1c-0.1,0-0.2,0.1-0.3,0.1
		c-0.1,0.1-0.2,0.2-0.2,0.4c0,0.1,0,0.1,0,0.1c0,0.1,0.1,0.1,0.1,0.1c0,0.1,0,0.1-0.1,0.2c0,0,0,0.1,0,0.1c0,0.1,0,0.2,0.1,0.2
		c0.1,0.1,0.1,0.2,0.1,0.3c0,0.2,0,0.4-0.1,0.6c-0.1,0.1-0.2,0.3-0.3,0.4c-0.1,0.1-0.1,0.2-0.1,0.3c0,0.1-0.1,0.2-0.2,0.3
		C84,15.3,84,15.4,84,15.5c0,0,0,0.1,0,0.2c0,0.1,0,0.1,0,0.1c0.1,0,0.1-0.1,0.2-0.1s0.1,0,0.1,0s0.1,0,0.1,0.1c0,0,0,0,0,0.1
		c0,0.2-0.1,0.3-0.2,0.4c-0.1,0.1-0.3,0.1-0.4,0.1c0.1,0.1,0.1,0.3,0.2,0.4c0.1,0.1,0.1,0.3,0.1,0.4c0,0.1,0,0.1,0,0.2
		c0,0.1,0,0.1,0,0.2c0,0.1,0,0.1,0.1,0.2c0.1,0.1,0.1,0.2,0.1,0.3c0,0.1,0,0.2,0,0.3c0,0.1,0,0.2,0,0.3c0,0.2,0,0.4-0.1,0.5
		c-0.1,0.1-0.2,0.2-0.3,0.4c-0.1,0.2-0.2,0.4-0.3,0.7c0,0,0,0.1,0,0.1c0,0,0,0.1,0,0.1c0.1,0,0.1,0,0.2-0.1c0-0.1,0-0.2,0-0.3v-0.1
		c0-0.1,0-0.2,0-0.2c0,0,0.1,0,0.2,0c0.2,0,0.4,0.1,0.6,0.1C85,20,85.2,20,85.3,20c0.3,0,0.6-0.1,0.9-0.3c0.2-0.1,0.4-0.2,0.6-0.3
		c0.1,0,0.2,0,0.3,0.1c0.1,0.1,0.2,0.1,0.3,0.1c0.1,0,0.1-0.1,0.2-0.1c0.1-0.1,0.1-0.2,0.1-0.3c0,0,0-0.1,0-0.1s0-0.1,0-0.1
		c0,0,0-0.1,0-0.2c0-0.1,0.1-0.2,0.1-0.2c0.1,0,0.1,0,0.2,0.1c0.1,0,0.1,0.1,0.2,0.1c0.1-0.2,0.2-0.3,0.4-0.4
		c0.2-0.1,0.3-0.1,0.4-0.3c0.2-0.3,0.4-0.5,0.7-0.6c0.2-0.2,0.5-0.4,0.7-0.6c0.2-0.2,0.3-0.4,0.5-0.6c0.1-0.3,0.1-0.5,0.1-0.7
		c0-0.1-0.1-0.3-0.3-0.6c-0.2-0.3-0.4-0.6-0.7-0.9s-0.5-0.5-0.7-0.6c-0.1,0-0.1-0.1-0.1-0.2c-0.1-0.1-0.1-0.2-0.2-0.3
		c0-0.1-0.1-0.2-0.1-0.4c-0.1-0.2-0.1-0.3-0.2-0.3c-0.1,0-0.2,0.1-0.4,0.2c-0.1,0.1-0.3,0.1-0.5,0.1h-0.1c-0.2-0.1-0.4-0.2-0.6-0.2
		c-0.2,0-0.4-0.1-0.5-0.2c-0.1-0.1-0.3-0.2-0.5-0.2c-0.2,0-0.3-0.1-0.5-0.1C85.3,12.1,85.2,12.1,85,12.1z M78,8.4c0,0.1,0,0.3,0,0.5
		c0,0.1,0,0.3,0,0.4c0,0.1,0,0.2,0.1,0.3c0,0.1,0,0.2,0,0.3c0,0.1,0,0.3-0.1,0.4c-0.1,0.1-0.2,0.2-0.2,0.4c0,0.1,0,0.1,0,0.2
		c0,0.1,0,0.1,0,0.2l0,0c0,0,0,0.1,0,0.1c0.1-0.1,0.2-0.2,0.3-0.4c0.1-0.2,0.2-0.3,0.3-0.3c0.1,0,0.2,0,0.2,0.1c0,0.1,0,0.1,0,0.2
		c0,0.1,0,0.2,0,0.3c0,0.1,0,0.3,0,0.4c0,0.2,0,0.4,0.1,0.5c0.1,0.2,0.1,0.4,0.1,0.5c0,0.1,0,0.3,0,0.4c-0.1,0.1-0.1,0.3-0.1,0.3
		c0,0.1,0.1,0.3,0.2,0.4c0.1,0.1,0.2,0.2,0.3,0.4c0.1,0.1,0.2,0.2,0.2,0.4c0,0,0,0.1,0,0.1c0,0.1,0,0.1,0,0.2c0,0.1,0,0.2,0,0.3
		c0,0.1,0,0.2,0,0.3s0,0.2,0,0.3s-0.1,0.2-0.2,0.3V16c0,0.1,0.1,0.2,0.2,0.3c0.1,0.1,0.2,0.2,0.2,0.4c0,0.1,0,0.1,0,0.3
		c0,0.1,0,0.1,0,0.3s0,0.2,0.1,0.3c0.1,0.1,0.2,0.2,0.3,0.3c0.1,0.2,0.1,0.4,0.1,0.8c0,0.2,0.2,0.3,0.4,0.4c0.2,0.1,0.4,0.2,0.7,0.3
		c0.2,0.1,0.3,0.2,0.3,0.3c0,0.1,0,0.2-0.1,0.4s-0.1,0.3-0.2,0.5c0,0,0,0.1,0,0.1c0,0.1,0,0.1,0.1,0.2C81,20.8,81,20.9,80.8,21
		c-0.1,0.2-0.2,0.3-0.2,0.4c0,0,0,0.1,0,0.1c0,0.2,0,0.4-0.1,0.7c0,0.2-0.1,0.4-0.1,0.6c0,0.1,0,0.2,0,0.3c0,0.1,0,0.2,0,0.3
		c0,0.1,0,0.2,0,0.3c0,0.1,0,0.2,0,0.3c0,0.1,0.1,0.3,0.3,0.4c0.1,0.1,0.2,0.2,0.2,0.5c0,0.1,0,0.1,0,0.1c0.2,0.3,0.3,0.6,0.3,0.9
		c0,0.3,0,0.7,0,1c0,0.3,0.1,0.6,0.2,0.9c0.1,0.3,0.1,0.6,0.1,1c0,0.1,0,0.3,0,0.5s0,0.3,0,0.4c0,0.1,0.1,0.3,0.1,0.3
		c0.1,0.1,0.1,0.2,0.1,0.3c0,0-0.1,0.2-0.4,0.4c-0.2,0.2-0.4,0.4-0.8,0.6c-0.2,0.2-0.4,0.4-0.6,0.4c0,0-0.1,0-0.2-0.1
		c0,0-0.1,0-0.1,0c-0.1,0-0.2,0-0.2,0c-0.1,0-0.1,0-0.1,0c-0.1,0-0.1,0-0.2,0c0,0,0,0,0-0.1c0-0.1,0-0.1,0-0.3c0-0.1,0-0.1,0-0.3
		c0-0.2,0-0.3-0.2-0.4c-0.1-0.1-0.1-0.2-0.3-0.3c-0.1-0.1-0.1-0.2-0.1-0.3c0-0.1,0-0.2,0.1-0.4s0.1-0.4,0.2-0.6l0.1-0.3v0h0
		c0,0-0.1,0-0.1,0.1c-0.1,0-0.1,0-0.2,0s-0.1-0.1-0.2-0.3c-0.1-0.2-0.1-0.4-0.1-0.6c0-0.3,0-0.5,0-0.7c0-0.2,0-0.4,0.1-0.6
		s0.1-0.4,0.1-0.6c0-0.1,0-0.2-0.1-0.3c-0.1-0.1-0.2-0.2-0.3-0.3c-0.1-0.2-0.1-0.3-0.2-0.5c0-0.2,0-0.4,0-0.6s0-0.4,0-0.5
		c0-0.4,0-0.7-0.1-1c-0.1-0.3-0.3-0.6-0.5-0.8c-0.1-0.1-0.1-0.1-0.2-0.2c-0.1-0.1-0.1-0.1-0.1-0.3c0-0.1,0-0.1,0-0.2
		c0-0.1,0-0.2,0-0.3c0-0.1,0-0.1,0-0.3c0-0.1,0-0.1,0-0.2c0,0.1-0.1,0.2-0.2,0.4c-0.1,0.2-0.1,0.3-0.2,0.3c-0.1,0-0.1-0.1-0.1-0.1
		c0,0-0.1,0-0.1,0c-0.2,0-0.3,0-0.5,0.2c-0.1,0.1-0.3,0.2-0.3,0.3c-0.1,0.1-0.2,0.2-0.3,0.2c0,0,0,0,0-0.1c0,0-0.1-0.1-0.1-0.1
		c-0.1,0.1-0.2,0.1-0.3,0.2C75,22,74.9,22,74.8,22c-0.1,0-0.1-0.1-0.3-0.2c-0.1-0.1-0.2-0.2-0.3-0.3c-0.2,0-0.4,0.1-0.6,0.3
		c-0.2,0.2-0.4,0.3-0.5,0.3c-0.1,0-0.1-0.1-0.2-0.2c0-0.1-0.1-0.2-0.2-0.4c-0.1-0.1-0.2-0.2-0.3-0.2c-0.1,0-0.1,0-0.2,0.1
		c0,0,0,0.1,0,0.1c0,0.2,0,0.3,0.1,0.4c0.1,0.1,0.2,0.2,0.3,0.3c0.1,0.1,0.1,0.2,0.1,0.3c0,0.1,0,0.1,0,0.2c0,0.1-0.1,0.1-0.2,0.1
		c-0.1,0-0.2-0.1-0.3-0.1c-0.1-0.1-0.2-0.1-0.3-0.1c-0.2,0-0.3,0.2-0.4,0.6c-0.1,0.4-0.2,0.8-0.3,1.2c-0.1,0.5-0.2,0.8-0.4,1
		c0,0,0,0.1,0,0.1v0c0,0.1,0,0.1,0,0.2c0,0.1,0,0.1,0,0.2c0,0.3-0.1,0.6-0.2,0.8c-0.1,0.3-0.2,0.5-0.3,0.8c0,0,0,0.1,0,0.2
		c0,0.1,0,0.1,0,0.1c0,0.1,0,0.2,0,0.3c0,0.1,0,0.2,0,0.3c0,0.2-0.1,0.4-0.2,0.7c-0.1,0.3-0.1,0.5-0.1,0.8c0,0.6-0.2,1.1-0.4,1.4
		c-0.2,0.3-0.5,0.4-0.8,0.4c-0.1,0-0.3,0-0.3,0c-0.1-0.1-0.2-0.1-0.4-0.1c-0.1-0.3-0.3-0.7-0.3-1.1c-0.1-0.3-0.2-0.7-0.2-1.1
		c0-0.3,0-0.6,0.2-0.8c0.1-0.2,0.3-0.3,0.3-0.5c0.1-0.1,0.2-0.2,0.2-0.3c0-0.1,0-0.2-0.1-0.4c0-0.2,0-0.3,0-0.4c0-0.1,0-0.2,0-0.3
		c0-0.1,0.1-0.2,0.2-0.3c0-0.4,0.1-0.8,0.1-1.2c0.1-0.4,0.2-0.7,0.4-1c0.3-0.3,0.5-0.7,0.6-1.1c0.1-0.4,0.2-0.8,0.2-1.3
		c0.1-0.6,0.2-1.2,0.4-1.7c0.2-0.5,0.4-1,0.6-1.4c0.2-0.5,0.5-1,0.7-1.5c0.2-0.7,0.4-1.3,0.6-1.9c0.3-0.6,0.6-1.2,0.9-1.8
		c0.5-1.1,1-2.2,1.5-3.3c0.5-1.1,1-2.2,1.5-3.3c0-0.1,0.1-0.1,0.1-0.2C75.9,7,76,7,76,7C76.3,7,76.7,7,77,7.1
		c0.3,0.1,0.5,0.2,0.8,0.4C77.9,7.7,78,8,78,8.4z M89.8,11.5L89.8,11.5c-0.1,0-0.1,0-0.1,0c0,0,0,0,0,0c0,0,0,0,0,0.1L89.8,11.5
		L89.8,11.5z M88.1,9.1c0,0,0.1,0,0.1,0c0,0,0.1,0.1,0.1,0.1c0.1,0,0.2,0,0.3,0c0.1,0,0.2,0.1,0.2,0.3v0c0,0.1,0,0.1,0.1,0.1
		c0.1,0.1,0.2,0.1,0.3,0.2c0.1,0.1,0.1,0.2,0.1,0.3c0,0,0,0.1,0,0.1h0c0,0,0.1,0,0.2-0.1c0.1-0.1,0.2-0.1,0.3-0.1
		c0.1,0,0.2,0.1,0.2,0.2c0,0.1,0.1,0.3,0.1,0.5c0,0.2,0.1,0.3,0.3,0.3c0,0.1,0,0.1,0.1,0.2c0,0,0.1,0.1,0.1,0.1
		c0-0.1,0.1-0.1,0.1-0.2c0-0.1,0.1-0.1,0.1-0.2V11l0.1,0c0,0.1,0.1,0.2,0.2,0.3c0.1,0.1,0.1,0.2,0.2,0.2c0,0,0.1-0.1,0.1-0.2
		c0-0.1,0.1-0.2,0.2-0.2c0.1,0,0.1,0.1,0.3,0.1c0.1,0,0.1,0.1,0.1,0.2c0,0.1,0,0.2,0,0.2c0,0.1,0,0.1,0,0.2c0,0.2,0.1,0.3,0.2,0.4
		s0.2,0.3,0.3,0.5c0,0.1,0,0.1,0,0.1c0,0,0.1,0,0.1,0c0.1,0,0.2,0,0.3-0.1c0.1,0,0.2-0.1,0.3-0.1l0,0.1c0,0.1,0,0.1,0,0.1
		c0,0.1,0,0.1-0.2,0.3c-0.1,0.1-0.1,0.2-0.3,0.3c-0.1,0.1-0.1,0.2-0.1,0.3c0,0.1,0,0.2,0.1,0.3c0.1,0,0.2,0,0.3,0
		c0.1,0,0.1,0,0.1-0.1c0-0.1,0.1-0.2,0.1-0.3c0-0.1,0.1-0.2,0.1-0.2c0,0,0.1,0.1,0.1,0.3c0,0.2,0,0.4,0,0.4c0,0.1-0.1,0.2-0.2,0.3
		c-0.1,0.1-0.2,0.2-0.3,0.3c-0.1,0.1-0.2,0.2-0.2,0.3c0,0.2,0,0.4,0.2,0.7c0.1,0.2,0.3,0.4,0.3,0.6c0.1,0.2,0.2,0.4,0.2,0.5
		c0,0.3-0.2,0.5-0.3,0.6c-0.2,0.1-0.4,0.3-0.6,0.4c-0.2,0.2-0.3,0.5-0.3,1c0,0.1,0,0.1,0,0.2c0,0.1,0,0.2,0,0.3c0,0.1,0,0.1,0,0.1
		c0,0-0.1,0-0.1,0c-0.1,0-0.2-0.1-0.3-0.1c-0.1-0.1-0.1-0.1-0.2-0.2c-0.1,0.1-0.2,0.3-0.3,0.5c-0.1,0.2-0.2,0.3-0.3,0.4
		c0.1,0,0.1,0,0.2-0.1c0-0.1,0.1-0.1,0.1-0.2c0.1,0,0.2,0,0.3,0c0.1,0,0.1,0.1,0.1,0.2c0,0.1,0,0.3-0.2,0.4
		c-0.1,0.1-0.3,0.2-0.4,0.3c-0.2,0.1-0.3,0.1-0.4,0.1c-0.2,0-0.3-0.1-0.5-0.2c-0.1-0.1-0.3-0.1-0.4-0.1c-0.1,0-0.3,0.1-0.3,0.2
		c-0.1,0.1-0.3,0.2-0.3,0.3c-0.1,0.1-0.2,0.2-0.3,0.3c-0.3,0.1-0.4,0.2-0.5,0.5C88,21.7,88,22,88,22.5c0,0.1,0.1,0.2,0.2,0.2
		c0.1,0.1,0.2,0.2,0.2,0.3c0,0.1,0,0.2,0,0.3c0,0.1,0,0.2,0,0.3c0,0.1,0.1,0.3,0.3,0.5c0.1,0.2,0.3,0.4,0.5,0.6
		c0.2,0.2,0.3,0.3,0.5,0.3c0,0,0.1-0.1,0.1-0.1c0,0,0-0.1,0-0.2c0-0.2-0.1-0.3-0.2-0.5c-0.2-0.1-0.3-0.3-0.4-0.3
		c-0.1-0.1-0.2-0.3-0.3-0.5c0,0,0-0.1,0-0.1l0.1,0c0.1,0,0.1,0,0.2,0.1c0.1,0.1,0.2,0.1,0.3,0.1c0.2,0,0.3,0,0.4,0
		c0.1,0,0.2,0,0.3,0c0.1,0,0.3,0,0.3,0.1c0.1,0.1,0.3,0.3,0.5,0.5c0.2,0,0.3,0.1,0.3,0.3c0.1,0.1,0.1,0.3,0.2,0.4
		c0.1,0.2,0.2,0.3,0.3,0.3c0,0,0,0,0,0c0,0,0,0.1,0,0.1c0,0.2-0.1,0.3-0.1,0.5c-0.1,0.2-0.2,0.3-0.2,0.4c0,0,0,0.1,0,0.1
		c0,0,0.1,0,0.2,0l-0.1-0.4c0.1,0,0.2,0,0.3,0c0.1,0,0.2,0,0.3,0c0,0,0.1,0,0.1,0s0.1,0,0.1,0s0.1,0,0.2,0c0,0,0.1-0.1,0.1-0.1
		c0.1,0,0.2,0.1,0.4,0.3c0.2,0.2,0.4,0.3,0.6,0.5c0.2,0.2,0.3,0.4,0.3,0.5c0,0,0,0.1,0,0.2s0,0.1,0,0.2c0,0,0.1,0,0.1,0
		s0.1,0.1,0.1,0.1c0,0.1-0.1,0.2-0.1,0.2c-0.1,0.1-0.1,0.1-0.1,0.2c0,0.1,0,0.1,0.1,0.2c0.1,0.1,0.1,0.2,0.1,0.3c0,0.2,0,0.3,0,0.5
		c0,0.1,0,0.3,0,0.4c0.1-0.2,0.1-0.3,0.2-0.4c0-0.1,0-0.3,0-0.5v-0.5c0,0,0-0.1,0-0.1s0-0.1,0-0.2c0.1,0.1,0.3,0.2,0.5,0.3
		c0.1,0.2,0.3,0.3,0.4,0.5c0.1,0.2,0.3,0.3,0.3,0.4c0.1,0.1,0.2,0.1,0.3,0.2c0.1,0.1,0.1,0.2,0.2,0.3c0,0.1-0.1,0.2-0.2,0.3
		c-0.1,0-0.2,0-0.3,0c0.1,0.2,0.1,0.4,0.3,0.5c0.1,0,0.2,0.1,0.3,0.1c0.1,0,0.1,0.1,0.1,0.3c0,0.2,0,0.4-0.2,0.6
		c-0.1,0.3-0.2,0.5-0.3,0.7c-0.1,0.2-0.3,0.3-0.4,0.3c-0.1,0-0.2-0.1-0.3-0.1c-0.1-0.1-0.1-0.1-0.3-0.2c-0.1,0-0.2,0-0.3,0.2
		c0,0.1-0.1,0.2-0.3,0.3C94,32.1,94,32,93.8,32c-0.1,0-0.2-0.1-0.3-0.2c-0.1,0-0.2-0.1-0.2-0.3c0-0.2,0-0.4-0.1-0.6
		c0-0.2-0.1-0.4-0.2-0.6C93,30.1,92.8,30,92.8,30c0,0-0.1,0-0.1,0c0,0-0.1,0.1-0.1,0.1c0,0.1,0,0.2,0.2,0.4c0.1,0.1,0.1,0.2,0.1,0.3
		c0,0,0,0.1,0,0.2c-0.1,0.1-0.1,0.1-0.2,0.2c-0.1,0-0.1-0.1-0.2-0.2c-0.1-0.1-0.2-0.2-0.2-0.4c-0.1-0.3-0.3-0.5-0.5-0.8
		c-0.2-0.2-0.5-0.3-0.7-0.4c-0.2-0.1-0.3-0.2-0.3-0.2c-0.1-0.3-0.2-0.5-0.4-0.5c-0.2-0.1-0.3-0.2-0.5-0.3c-0.2-0.1-0.3-0.2-0.3-0.4
		c-0.1-0.1-0.3-0.2-0.4-0.4C89,27.5,89,27.3,89,27c0-0.1,0-0.3-0.2-0.3c-0.1-0.1-0.1-0.2-0.3-0.3c-0.1-0.1-0.1-0.2-0.1-0.4
		c0-0.1,0-0.2,0-0.3c0.1-0.1,0.1-0.2,0.1-0.3c0,0,0-0.1,0-0.1s-0.1-0.1-0.1-0.1c-0.1,0.1-0.1,0.3-0.2,0.4c-0.1,0.2-0.1,0.4-0.2,0.5
		c-0.1,0.2-0.1,0.3-0.2,0.3c-0.1,0-0.2-0.1-0.2-0.3c-0.1-0.2-0.1-0.3-0.1-0.5c0-0.2,0-0.3,0-0.3c0-0.1,0-0.2,0-0.3
		c0-0.1,0-0.2,0-0.3c0-0.2-0.1-0.4-0.2-0.5c-0.1-0.1-0.3-0.2-0.4-0.3s-0.2-0.1-0.2-0.1c0-0.1,0.1-0.2,0.2-0.3
		c0.1-0.1,0.1-0.1,0.1-0.2s0-0.1,0-0.2c0,0-0.1-0.1-0.1-0.2c-0.1,0.1-0.2,0.2-0.3,0.3c-0.1,0.1-0.2,0.1-0.3,0.1c0,0-0.1,0-0.1,0
		c0,0.3-0.1,0.5-0.2,0.8c-0.1,0.2-0.3,0.4-0.5,0.4c0,0-0.1,0-0.1,0s0-0.1,0-0.1c0-0.1,0-0.2,0.1-0.3c0.1,0,0.2-0.1,0.3-0.1
		c-0.1-0.1-0.2-0.2-0.3-0.3c-0.1-0.1-0.1-0.2-0.2-0.2s-0.2,0-0.3,0.2c-0.1,0.1-0.2,0.1-0.3,0.1c-0.1,0-0.1-0.1-0.2-0.3
		c-0.1-0.2-0.1-0.3-0.1-0.3c-0.1,0-0.2,0.1-0.3,0.2c-0.1,0.1-0.1,0.2-0.1,0.3c0,0.1,0,0.2,0,0.3c0,0.1,0,0.2,0,0.3
		c0,0.1,0,0.1,0,0.3c0,0.1,0,0.1,0,0.3c0,0.1,0,0.3,0.1,0.5c0.1,0.1,0.2,0.3,0.2,0.5c0,0.1,0,0.1,0,0.2c0,0,0,0.1,0,0.2
		c0,0.1,0,0.2,0,0.3s0,0.2,0,0.3c0,0.1-0.1,0.2-0.3,0.3c-0.1,0.1-0.2,0.2-0.3,0.3c0.1,0.1,0.2,0.1,0.3,0.1c0.1,0,0.2,0,0.3,0
		c0.1,0.2,0.1,0.3,0.2,0.5c0,0.2,0,0.3,0,0.5c0,0,0,0.1,0,0.1s0,0,0,0c0,0-0.1-0.1-0.2-0.1c-0.1,0-0.2,0-0.3,0c0,0.1,0,0.2,0,0.3
		c0,0.1,0.1,0.1,0.1,0.2c0,0.2-0.1,0.3-0.3,0.4c-0.2,0.1-0.3,0.2-0.5,0.2c-0.2,0.1-0.3,0.1-0.3,0.1c-0.1,0-0.1,0-0.2,0
		c0-0.1,0-0.1,0-0.3c0-0.1,0-0.1,0-0.3c0-0.1,0-0.1,0-0.2c0-0.2,0-0.3-0.1-0.4c0,0-0.1-0.1-0.2-0.1c-0.1,0-0.2-0.1-0.4-0.3
		c0.1-0.2,0.1-0.3,0.2-0.4c0.1-0.1,0.2-0.2,0.4-0.4h-0.1c-0.1,0-0.1,0.1-0.3,0.3c-0.1,0.1-0.2,0.3-0.3,0.5C82.2,27.9,82,28,82,28
		c-0.1,0-0.1,0-0.1,0c0,0,0-0.1,0-0.2c0-0.1,0.1-0.3,0.2-0.3c0.1-0.1,0.1-0.2,0.1-0.3H82c-0.1,0-0.2,0-0.3-0.1
		c-0.1,0-0.1-0.1-0.1-0.2c0-0.2,0.1-0.4,0.2-0.7c0.1-0.3,0.2-0.5,0.3-0.6c0-0.1,0-0.1-0.1-0.3c-0.1-0.1-0.1-0.2-0.2-0.3
		c0-0.2,0-0.3,0.2-0.5c0.1-0.2,0.2-0.3,0.3-0.3c0.1,0,0.1,0,0.2,0s0.1,0,0.1,0s0.1,0,0.1,0c0,0,0,0,0,0c0-0.1-0.1-0.1-0.3-0.2
		c-0.1-0.1-0.3-0.2-0.4-0.2l-0.2-0.2c0,0,0-0.1,0.1-0.2c0,0,0-0.1,0-0.1v-0.1c0-0.1-0.1-0.2-0.1-0.3c0-0.1,0-0.2,0-0.3
		c0-0.5,0-1.1,0-1.7c0-0.6,0.1-1.1,0.3-1.5c0-0.1,0.1-0.2,0.2-0.3s0.1-0.1,0.1-0.2c0-0.1,0-0.1,0-0.1c0,0-0.1-0.1-0.2-0.1
		c0-0.3,0.1-0.7,0.1-1.1c0-0.4,0-0.8,0-1.2c0-0.3,0.1-0.6,0.1-0.8c0-0.1,0.1-0.2,0.1-0.4c0-0.1,0-0.3,0-0.4c0-0.1,0-0.3,0-0.3
		c0-0.1,0-0.3,0-0.4c0-0.2,0-0.5,0-0.6c0-0.2,0-0.5,0-0.7v-0.1c0-0.3,0-0.5,0.2-0.6c0.1-0.2,0.3-0.3,0.5-0.3c0.1,0,0.2,0,0.3,0.1
		c0.1,0,0.2,0,0.2,0c0,0,0.1,0,0.1,0c0,0,0.1,0,0.1,0c-0.1-0.3-0.2-0.5-0.3-0.6c-0.1-0.1-0.1-0.3-0.1-0.4c0-0.1,0-0.2,0.1-0.4
		s0.2-0.4,0.3-0.5c0.1-0.1,0.3-0.2,0.5-0.3h0l0,0v0c0-0.1,0.1-0.2,0.1-0.3c0-0.1,0.1-0.2,0.1-0.2c0.1,0,0.2,0.1,0.3,0.3
		C84.9,9.8,85,9.9,85,10c0.1,0,0.3-0.1,0.5-0.2c0.2-0.1,0.4-0.2,0.7-0.2c0.1,0,0.2,0.1,0.3,0.2c0.1,0.1,0.1,0.1,0.2,0.1
		c0.1,0,0.2,0,0.3-0.1c0.1-0.1,0.2-0.1,0.3-0.1c0.1,0,0.1,0,0.1,0.1c0,0.1,0.1,0.1,0.1,0.1c0.1,0,0.1-0.1,0.2-0.2
		c0-0.1,0.1-0.2,0.2-0.3C88,9.2,88,9.1,88.1,9.1z M52.4,25.1C52.4,25,52.4,25,52.4,25.1C52.4,25,52.4,25,52.4,25.1L52.4,25.1z
		 M58.4,28.7c-0.1,0.1-0.1,0.1-0.2,0.2L58.1,29c0,0.1,0.1,0.1,0.1,0.2s0.1,0.1,0.1,0.2c0.1-0.1,0.1-0.1,0.2-0.2s0-0.1,0-0.2
		c0-0.1,0-0.1,0-0.2C58.4,28.8,58.4,28.8,58.4,28.7z M66,28.3c-0.1,0-0.2,0-0.3,0c0,0-0.1,0-0.1,0c0,0-0.1,0-0.2,0
		c-0.1,0.1-0.1,0.1-0.2,0.2c0,0,0,0.1,0,0.1l0,0c0,0.1,0,0.1,0,0.2c0,0.1,0,0.1,0,0.2c0-0.2,0.1-0.3,0.3-0.4
		C65.7,28.5,65.9,28.4,66,28.3c0.1,0,0.2-0.1,0.2-0.2c0,0,0-0.1,0-0.1v0C66.1,28,66.1,28,66.1,28C66.1,28.1,66,28.2,66,28.3z
		 M42,30.5c0-0.1,0.1-0.2,0.1-0.3v0c0,0,0,0,0,0c0,0,0,0.1,0,0.1c0,0-0.1,0.1-0.1,0.1C41.9,30.4,41.9,30.4,42,30.5L42,30.5z
		 M41.4,27.3C41.4,27.2,41.4,27.2,41.4,27.3C41.4,27.2,41.4,27.2,41.4,27.3L41.4,27.3L41.4,27.3L41.4,27.3z M43.1,28.7L43.1,28.7
		L43.1,28.7L43.1,28.7L43.1,28.7z M42.8,26L42.8,26l0.2,0c0,0,0-0.1,0-0.1C42.9,25.9,42.9,25.9,42.8,26C42.8,25.9,42.8,26,42.8,26z
		 M42.4,25.1c0,0,0.1-0.1,0.1-0.1C42.5,25,42.4,25,42.4,25.1c-0.1-0.1-0.1,0-0.2,0v0h0c0,0,0,0.1,0,0.1c0,0,0,0,0,0
		C42.3,25.2,42.3,25.1,42.4,25.1z"/>
</g>
</svg>
