<?xml version="1.0" encoding="utf-8"?>
<!-- Generator: Adobe Illustrator 20.0.0, SVG Export Plug-In . SVG Version: 6.00 Build 0)  -->
<svg version="1.1" id="Layer_1" xmlns="http://www.w3.org/2000/svg" xmlns:xlink="http://www.w3.org/1999/xlink" x="0px" y="0px"
	 viewBox="0 0 190 67" style="enable-background:new 0 0 190 67;" xml:space="preserve">
<style type="text/css">
	.st0{fill:#F1F5F7;}
</style>
<g>
	<g>
		<path class="st0" d="M59.9,26.3c0,0.2-0.1,0.5-0.2,0.7c-0.1,0.2-0.4,0.5-0.5,0.7c-0.2,0.2-0.5,0.5-0.8,0.5l-17.1,7.1L40,31.7
			l18.6-7.8l1.1,1.6C59.8,25.7,59.9,26,59.9,26.3z M52,12.4c0.1,0,0.1,0.1,0.2,0.1c0,0.1,0,0.1,0,0.2c0,0.1,0,0.1,0,0.2l-1.5,2.5
			c0,0.1-0.1,0.1-0.2,0.2c-0.1,0.1-0.2,0.1-0.2,0.2c-0.1,0-0.2,0.1-0.4,0.1s-0.2,0-0.4,0c-0.1,0-0.2-0.1-0.2-0.1
			c-0.1,0-0.1-0.1-0.2-0.1c0-0.1,0-0.1,0-0.2s0.1-0.1,0.1-0.2l1.5-2.5c0-0.1,0.1-0.1,0.2-0.2c0.1-0.1,0.2-0.1,0.2-0.1
			c0.1-0.1,0.2-0.1,0.4-0.1C51.7,12.4,51.9,12.4,52,12.4C51.9,12.4,52,12.4,52,12.4z M43.5,24.4c0.1-0.1,0.1-0.1,0.2-0.2
			c0.1-0.1,0.2-0.1,0.4-0.2s0.2-0.1,0.4-0.1c0.1,0,0.2,0,0.4,0c0.1,0,0.2,0.1,0.2,0.1c0.1,0,0.1,0.1,0.2,0.2c0,0.1,0,0.1,0,0.2
			s-0.1,0.2-0.1,0.2l-1.9,3c-0.1,0.1-0.1,0.2-0.2,0.2c-0.1,0.1-0.2,0.1-0.4,0.2c-0.1,0.1-0.2,0.1-0.4,0.1s-0.2,0-0.4,0
			c-0.1,0-0.2-0.1-0.2-0.1c-0.1-0.1-0.1-0.1-0.1-0.2s0-0.1,0-0.2s0.1-0.2,0.1-0.2L43.5,24.4z M48.6,18c0.1,0,0.1,0.1,0.2,0.2
			c0,0.1,0,0.1,0,0.2s0,0.2-0.1,0.2l-1.6,2.7c0,0.1-0.1,0.1-0.2,0.2c-0.1,0.1-0.1,0.1-0.2,0.2c-0.1,0-0.2,0.1-0.4,0.1
			c-0.1,0-0.2,0-0.4,0c-0.1,0-0.1-0.2-0.1-0.2c-0.1-0.1-0.1-0.1-0.2-0.2c0-0.1,0-0.1,0-0.2s0.1-0.2,0.1-0.2l1.6-2.7
			c0-0.1,0.1-0.1,0.2-0.2c0.1-0.1,0.2-0.1,0.2-0.2c0.1,0,0.2-0.1,0.4-0.1s0.2,0,0.4,0C48.5,17.9,48.6,17.9,48.6,18z M45.8,38.8
			c0.5,0.1,0.9,0.4,1.3,0.5c0.5,0.2,0.8,0.5,1.3,0.8c0.5,0.4,0.7,0.6,1.1,1.1s0.5,0.8,0.7,1.3c0.5,0.9,0.6,2,0.5,3
			c-0.1,1.1-0.4,2.2-0.8,3.2c-0.5,1.1-1.3,2.1-2.2,2.9c-0.9,0.9-2.1,1.5-3.2,2.1c-0.6,0.2-1.3,0.5-1.9,0.5c-0.6,0.1-1.3,0.2-1.9,0.2
			c-0.5,0-1.2-0.1-1.6-0.2c-0.5-0.1-1.2-0.4-1.5-0.5c-0.5-0.2-0.9-0.5-1.3-0.7c-0.5-0.4-0.7-0.7-1.2-1.1c-0.4-0.5-0.6-0.8-0.8-1.3
			c-0.2-0.5-0.5-0.9-0.5-1.4c-0.2-0.8-0.2-1.6-0.1-2.5c0.1-0.8,0.4-1.5,0.6-2.3c0.4-0.7,0.7-1.4,1.3-2.2c0.5-0.6,1.2-1.3,1.9-1.8
			l-5.3-17.9c-0.1-0.2-0.1-0.5,0-0.6c0.1-0.2,0.1-0.5,0.4-0.5c0.2-0.2,0.4-0.5,0.5-0.5c0.2-0.2,0.5-0.4,0.7-0.5l2-0.8l6.7,19
			c0.4-0.1,0.6-0.1,0.9-0.1c0.4,0,0.6,0,0.9,0s0.6,0.1,0.8,0.1C45.1,38.7,45.4,38.7,45.8,38.8z M44.5,41.3c-0.4-0.1-0.6-0.2-0.9-0.2
			c-0.4,0-0.6,0-1.1,0c-0.4,0-0.7,0.1-1.2,0.2c-0.4,0.1-0.7,0.2-1.1,0.5c-0.7,0.4-1.3,0.6-1.9,1.2c-0.5,0.5-1.1,1.1-1.3,1.6
			c-0.5,0.6-0.6,1.3-0.7,2s-0.1,1.3,0.1,2.1c0.1,0.4,0.2,0.7,0.5,0.9c0.2,0.4,0.4,0.5,0.5,0.8c0.2,0.2,0.5,0.5,0.7,0.7
			c0.4,0.2,0.5,0.4,0.9,0.5c0.4,0.1,0.6,0.2,1.1,0.4s0.7,0.1,1.2,0.1S42,52,42.5,52c0.5-0.1,0.8-0.2,1.2-0.5
			c0.7-0.4,1.4-0.7,2.1-1.3c0.6-0.5,1.1-1.2,1.4-1.9c0.4-0.7,0.5-1.3,0.6-2.1c0.1-0.8,0-1.4-0.4-2.1c-0.1-0.4-0.4-0.6-0.5-0.9
			c-0.1-0.4-0.5-0.5-0.6-0.7c-0.2-0.2-0.5-0.5-0.8-0.5C45.1,41.4,44.8,41.3,44.5,41.3z M20.8,40.2c-0.2,0.6-0.2,1.2-0.2,1.6
			c0,0.4,0.1,0.5,0.2,0.7c0.1,0.2,0.2,0.5,0.5,0.7c0.1,0.2,0.4,0.5,0.5,0.5c0.2,0.1,0.5,0.2,0.6,0.5c0.2,0.1,0.5,0.2,0.8,0.2
			c0.4,0,0.5,0,0.9,0c0.4,0,0.6-0.1,0.9-0.1c0.4-0.1,0.7-0.2,1.1-0.4c0.7-0.4,1.3-0.7,1.9-1.2c0.5-0.5,1.1-1.1,1.3-1.5
			c0.5-0.6,0.6-1.2,0.7-1.8c0.1-0.6,0.1-1.2,0-1.6c-0.1-0.2-0.2-0.5-0.4-0.7c-0.1-0.2-0.2-0.5-0.5-0.6c-0.2-0.2-0.4-0.4-0.5-0.5
			c-0.2-0.1-0.5-0.2-0.6-0.4c-0.4-0.1-0.5-0.1-0.7-0.2c-0.4,0-0.5,0-0.8,0c-0.4,0-0.6,0.1-0.9,0.2S25,36,24.7,36.2
			c-0.6,0.2-1.2,0.6-1.6,1.1c-0.5,0.5-0.9,0.9-1.3,1.4C21.3,39.2,21.1,39.7,20.8,40.2z M25.7,33.9c0.5-0.1,0.8-0.2,1.3-0.2
			c0.5-0.1,0.8-0.1,1.3,0c0.5,0,0.8,0.1,1.2,0.2c0.2,0.1,0.5,0.2,0.6,0.2c0.2,0.1,0.5,0.2,0.5,0.4c0.2,0.1,0.5,0.2,0.5,0.5
			c0.2,0.2,0.4,0.4,0.5,0.5l3.3-1.4l1.2,3.7l-3.4,1.4c-0.1,0.7-0.4,1.3-0.6,2.1c-0.4,0.7-0.7,1.3-1.3,2.1c-0.5,0.7-1.3,1.3-1.9,1.8
			c-0.7,0.5-1.5,1.1-2.2,1.3c-0.5,0.2-1.1,0.5-1.5,0.5c-0.5,0.1-0.9,0.2-1.4,0.2s-0.9,0-1.3-0.1c-0.5-0.1-0.8-0.2-1.3-0.5
			c-0.4-0.2-0.7-0.5-0.9-0.6c-0.4-0.2-0.6-0.5-0.7-0.8c-0.2-0.4-0.5-0.6-0.5-1.1c-0.1-0.5-0.2-0.8-0.4-1.3c-0.1-0.8,0.1-1.6,0.5-2.6
			c0.4-0.8,0.7-1.6,1.3-2.3c0.5-0.7,1.3-1.4,2-2.1c0.8-0.6,1.6-1.2,2.5-1.5C24.8,34.3,25.3,34,25.7,33.9z M37.1,35.1
			c0,0.1,0.1,0.2,0.1,0.2c0.1,0.1,0.2,0.1,0.2,0.1c0.1,0,0.2,0,0.4,0c0.1,0,0.2-0.1,0.4-0.1c0.1-0.1,0.2-0.1,0.4-0.2
			c0.1-0.1,0.1-0.1,0.2-0.2c0,0,0-0.1,0-0.2s0-0.2,0-0.2c0-0.1-0.1-0.2-0.1-0.2C38.5,34,38.4,34,38.4,34c-0.1,0-0.2,0-0.4,0
			c-0.1,0-0.2,0-0.4,0.1c-0.1,0-0.2,0.1-0.2,0.2c-0.1,0.1-0.2,0.2-0.2,0.2c-0.1,0.1-0.1,0.2-0.1,0.4S37.1,35.1,37.1,35.1z"/>
	</g>
</g>
<g>
	<path class="st0" d="M69.7,46v-3.2h8.2V46H69.7z"/>
	<path class="st0" d="M79.4,54.1v-4.4l2.5-2.5c0.6-0.6,1-1,1.4-1.4s0.6-0.6,0.8-0.9c0.2-0.2,0.4-0.4,0.5-0.6s0.2-0.3,0.3-0.5
		c0.1-0.2,0.2-0.4,0.2-0.5s0.1-0.3,0.1-0.6c0-0.2,0-0.5,0.1-0.8c0-0.3,0-0.7,0-1.1c0-0.5,0-1-0.1-1.2c0-0.3-0.1-0.5-0.2-0.7
		c-0.1-0.1-0.1-0.2-0.3-0.3c-0.1-0.1-0.4-0.1-0.7-0.1c-0.6,0-0.9,0.2-1,0.5c-0.1,0.2-0.1,0.4-0.1,0.8c0,0.4-0.1,0.9-0.1,1.8
		c0,0.1,0,0.3,0,0.4s0,0.2,0,0.3H79c0-0.2-0.1-0.5-0.1-0.7s0-0.7,0-1.2c0-1,0.1-1.9,0.2-2.6c0.1-0.7,0.4-1.3,0.7-1.8s0.9-0.8,1.5-1
		c0.7-0.2,1.5-0.3,2.6-0.3c0.6,0,1.1,0,1.6,0.1s0.9,0.1,1.2,0.3c0.3,0.1,0.6,0.3,0.9,0.5c0.2,0.2,0.4,0.4,0.6,0.7
		c0.1,0.2,0.3,0.5,0.4,0.8s0.2,0.6,0.3,1c0.1,0.4,0.2,0.8,0.2,1.3c0.1,0.5,0.1,1.1,0.1,1.7c0,0.8,0,1.4-0.1,2s-0.2,1.1-0.4,1.6
		c-0.2,0.5-0.5,1-0.9,1.5s-0.9,1.1-1.6,1.7L84,50l0.1,0.2h4.8v4.1h-9.5V54.1z"/>
	<path class="st0" d="M95.8,54.4c-0.8,0-1.5,0-2-0.1c-0.6,0-1-0.2-1.4-0.4s-0.7-0.5-0.9-0.9c-0.2-0.4-0.4-1-0.5-1.7
		s-0.2-1.7-0.2-2.8s-0.1-2.5-0.1-4.1s0-3,0.1-4.1c0-1.1,0.1-2,0.2-2.8s0.3-1.3,0.5-1.7s0.5-0.7,0.9-0.9s0.9-0.3,1.4-0.4
		c0.6,0,1.3-0.1,2-0.1c0.8,0,1.5,0,2.1,0.1c0.6,0,1.1,0.2,1.4,0.4c0.4,0.2,0.7,0.5,0.9,0.9c0.2,0.4,0.4,1,0.5,1.7s0.2,1.7,0.2,2.8
		s0.1,2.5,0.1,4.1s0,3-0.1,4.1s-0.1,2-0.2,2.8c-0.1,0.7-0.3,1.3-0.5,1.7s-0.5,0.7-0.9,0.9s-0.9,0.3-1.4,0.4
		C97.2,54.4,96.6,54.4,95.8,54.4z M95.8,50.1c0.3,0,0.5,0,0.7-0.1s0.3-0.3,0.4-0.6c0.1-0.4,0.1-0.9,0.2-1.7s0-1.9,0-3.3
		c0-1.5,0-2.6,0-3.4c0-0.8-0.1-1.4-0.1-1.8c-0.1-0.4-0.2-0.6-0.4-0.7c-0.2-0.1-0.4-0.1-0.7-0.1c-0.3,0-0.5,0-0.7,0.1
		s-0.3,0.3-0.4,0.7s-0.1,1-0.1,1.8s0,1.9,0,3.4c0,1.4,0,2.5,0,3.3s0.1,1.4,0.2,1.7c0.1,0.4,0.2,0.6,0.4,0.6
		C95.2,50.1,95.5,50.1,95.8,50.1z"/>
	<path class="st0" d="M107.4,54.1V34.8h5.8c0.9,0,1.6,0.1,2.1,0.3c0.6,0.2,1,0.6,1.3,1.1s0.6,1.2,0.7,2s0.2,1.9,0.2,3.1
		c0,1.3-0.1,2.3-0.2,3.2s-0.4,1.6-0.7,2.1s-0.8,0.9-1.3,1.2c-0.6,0.2-1.3,0.4-2.1,0.4h-1.8V54h-4C107.4,54,107.4,54.1,107.4,54.1z
		 M112.5,44.3c0.4,0,0.6-0.2,0.8-0.6s0.2-1.2,0.2-2.4c0-1-0.1-1.7-0.3-2s-0.5-0.5-0.9-0.5h-1v5.5H112.5z"/>
	<path class="st0" d="M128.1,52.9c-0.2,0.3-0.4,0.6-0.6,0.8c-0.2,0.2-0.5,0.4-0.9,0.5s-0.7,0.2-1.2,0.3s-1,0.1-1.6,0.1
		c-1.2,0-2.2-0.1-2.8-0.3s-1.1-0.6-1.5-1.2c-0.2-0.3-0.3-0.6-0.4-1c-0.1-0.3-0.2-0.8-0.3-1.4c-0.1-0.6-0.1-1.4-0.2-2.3
		c0-1-0.1-2.2-0.1-3.7s0-2.7,0.1-3.7c0-1,0.1-1.7,0.2-2.3c0.1-0.6,0.2-1.1,0.3-1.4c0.1-0.3,0.3-0.7,0.4-1c0.2-0.3,0.4-0.5,0.6-0.7
		c0.2-0.2,0.5-0.4,0.9-0.5c0.3-0.1,0.7-0.2,1.2-0.3s1-0.1,1.6-0.1c1.2,0,2.2,0.1,2.8,0.4c0.6,0.2,1.1,0.6,1.5,1.2
		c0.2,0.3,0.3,0.6,0.4,1c0.1,0.3,0.2,0.8,0.3,1.4s0.1,1.4,0.2,2.3c0,1,0.1,2.2,0.1,3.7s0,2.7-0.1,3.7s-0.1,1.7-0.2,2.3
		c-0.1,0.6-0.2,1.1-0.3,1.4S128.2,52.6,128.1,52.9z M124.8,49.7c0-0.1,0.1-0.3,0.1-0.5s0.1-0.5,0.1-0.8c0-0.4,0-0.9,0-1.5
		s0-1.5,0-2.5c0-1.1,0-1.9,0-2.6c0-0.6,0-1.2,0-1.5c0-0.4,0-0.7-0.1-0.9c0-0.2-0.1-0.3-0.1-0.5c-0.1-0.2-0.2-0.3-0.3-0.4
		s-0.4-0.1-0.7-0.1s-0.6,0-0.7,0.1c-0.1,0.1-0.2,0.2-0.3,0.4c-0.1,0.1-0.1,0.3-0.1,0.5s-0.1,0.5-0.1,0.9s0,0.9-0.1,1.5
		c0,0.6,0,1.5,0,2.6c0,1,0,1.9,0,2.5s0,1.1,0.1,1.5s0.1,0.7,0.1,0.8c0,0.2,0.1,0.3,0.1,0.5c0.1,0.2,0.1,0.3,0.3,0.4
		c0.1,0.1,0.4,0.1,0.7,0.1s0.6,0,0.7-0.1C124.6,50,124.7,49.8,124.8,49.7z"/>
	<path class="st0" d="M130.5,54.1V34.8h4.1v19.3H130.5z"/>
	<path class="st0" d="M144.7,54.1l-4.6-10.3h-0.2v10.3h-3.6V34.8h3.9l2.7,6.7h0.2v-6.7h3.7v19.3H144.7z"/>
	<path class="st0" d="M150.9,54.1V38.9h-3v-4.1H158v4.1h-3v15.2H150.9z"/>
	<path class="st0" d="M164.4,40.8c0-0.1,0-0.3,0-0.3c0-0.1,0-0.3,0-0.5c0-0.6-0.1-1-0.2-1.2c-0.1-0.2-0.5-0.3-1-0.3
		s-0.8,0.1-0.9,0.3c-0.1,0.2-0.2,0.6-0.2,1.2c0,0.6,0.1,1,0.2,1.2c0.1,0.2,0.4,0.4,0.7,0.6c0.4,0.2,0.7,0.4,1.1,0.6
		c0.3,0.2,0.6,0.3,0.9,0.4c0.3,0.1,0.5,0.3,0.8,0.4c0.3,0.1,0.5,0.3,0.8,0.4c0.3,0.2,0.5,0.4,0.7,0.6c0.2,0.2,0.4,0.5,0.5,0.9
		s0.2,0.8,0.3,1.3s0.1,1.2,0.1,2c0,1.2-0.1,2.1-0.2,2.9c-0.2,0.8-0.4,1.4-0.8,1.8c-0.4,0.5-0.9,0.8-1.6,1c-0.7,0.2-1.5,0.3-2.4,0.3
		c-1.6,0-2.8-0.3-3.5-0.9c-0.7-0.6-1.1-1.7-1.1-3.2c0-0.5,0-1,0-1.5s0.1-0.9,0.2-1.2h3.3c0,0.1-0.1,0.2-0.1,0.3s0,0.2,0,0.4
		c0,0.7,0.1,1.3,0.2,1.5c0.2,0.3,0.5,0.4,1,0.4s0.8-0.1,1-0.4c0.2-0.2,0.2-0.8,0.2-1.6c0-0.5-0.1-0.9-0.2-1.1
		c-0.2-0.3-0.4-0.5-0.7-0.7s-0.6-0.4-1-0.6c-0.3-0.2-0.7-0.3-1-0.5s-0.7-0.3-1-0.5s-0.6-0.4-0.9-0.6c-0.5-0.5-0.8-1.1-1-1.9
		c-0.1-0.8-0.2-1.8-0.2-3.1c0-0.9,0.1-1.7,0.2-2.3c0.1-0.6,0.4-1.1,0.8-1.5s0.8-0.7,1.5-0.8c0.6-0.2,1.4-0.3,2.3-0.3
		c0.9,0,1.6,0.1,2.2,0.2c0.6,0.1,1.1,0.4,1.4,0.7c0.4,0.3,0.6,0.8,0.8,1.3s0.2,1.2,0.2,2c0,0.5,0,0.9,0,1.2s-0.1,0.6-0.2,0.8h-3.2
		L164.4,40.8L164.4,40.8z"/>
</g>
<g>
	<path class="st0" d="M75.5,17.9c0-0.1,0-0.2,0-0.2c0-0.1,0-0.2,0-0.4c0-0.4-0.1-0.7-0.2-0.9s-0.3-0.2-0.7-0.2s-0.6,0.1-0.7,0.2
		c0,0.2-0.1,0.5-0.1,0.9s0.1,0.7,0.2,0.8c0.1,0.2,0.3,0.3,0.5,0.4c0.3,0.2,0.5,0.3,0.7,0.4s0.5,0.2,0.6,0.3c0.2,0.1,0.4,0.2,0.6,0.3
		c0.2,0.1,0.4,0.2,0.5,0.3c0.2,0.1,0.4,0.3,0.5,0.5s0.3,0.4,0.4,0.6c0.1,0.3,0.2,0.6,0.2,1s0.1,0.8,0.1,1.4c0,0.8-0.1,1.5-0.2,2
		s-0.3,1-0.6,1.3s-0.6,0.6-1.1,0.7s-1,0.2-1.7,0.2c-1.1,0-2-0.2-2.5-0.6s-0.8-1.2-0.8-2.2c0-0.3,0-0.7,0-1.1s0.1-0.6,0.1-0.9h2.5
		c0,0.1,0,0.2,0,0.2s0,0.2,0,0.3c0,0.5,0.1,0.9,0.2,1.1s0.3,0.3,0.7,0.3c0.4,0,0.6-0.1,0.7-0.3c0.1-0.2,0.2-0.5,0.2-1.1
		c0-0.3-0.1-0.6-0.2-0.8c-0.1-0.2-0.3-0.4-0.5-0.5s-0.4-0.3-0.7-0.4c-0.2-0.1-0.5-0.2-0.7-0.3c-0.2-0.1-0.5-0.2-0.7-0.4
		s-0.4-0.3-0.6-0.4c-0.4-0.3-0.6-0.8-0.7-1.3c-0.1-0.6-0.1-1.3-0.1-2.2c0-0.6,0.1-1.2,0.2-1.6c0.1-0.4,0.3-0.8,0.5-1.1
		s0.6-0.5,1-0.6s1-0.2,1.7-0.2c0.6,0,1.1,0,1.5,0.1s0.8,0.3,1,0.5c0.3,0.2,0.5,0.5,0.6,0.9s0.2,0.9,0.2,1.4c0,0.4,0,0.7,0,0.9
		S78,17.6,78,17.8h-2.5V17.9z"/>
	<path class="st0" d="M79.1,27.3V13.7h4.1c0.6,0,1.1,0.1,1.5,0.2c0.4,0.2,0.7,0.4,0.9,0.8c0.2,0.4,0.4,0.8,0.5,1.4
		c0.1,0.6,0.1,1.3,0.1,2.2c0,0.9,0,1.6-0.1,2.3c-0.1,0.6-0.3,1.1-0.5,1.5s-0.5,0.7-0.9,0.8s-0.9,0.3-1.5,0.3h-1.3v4.1H79.1z
		 M82.7,20.4c0.3,0,0.5-0.1,0.6-0.4s0.2-0.8,0.2-1.7c0-0.7-0.1-1.2-0.2-1.4s-0.3-0.3-0.6-0.3H82v3.9h0.7V20.4z"/>
	<path class="st0" d="M87.2,27.3V13.7H90v10.6h2.9v3H87.2z"/>
	<path class="st0" d="M93.9,27.3V13.7h2.9v13.6H93.9z"/>
	<path class="st0" d="M99.8,27.3V16.6h-2.1v-2.9h7.1v2.9h-2.1v10.7H99.8z"/>
	<path class="st0" d="M113.4,27.3l-0.2-3.1h-1.4l-0.2,3.1h-2.8l1.5-13.6h4.8l1.4,13.6H113.4z M112.6,16.6h-0.2l-0.4,4.9h1.1
		L112.6,16.6z"/>
	<path class="st0" d="M123.1,27.3l-3.2-7.3h-0.1v7.3h-2.6V13.7h2.8l1.9,4.7h0.1v-4.7h2.6v13.6H123.1z"/>
	<path class="st0" d="M129.6,17.9c0-0.1,0-0.2,0-0.2c0-0.1,0-0.2,0-0.4c0-0.4-0.1-0.7-0.2-0.9c-0.1-0.2-0.3-0.2-0.7-0.2
		c-0.3,0-0.6,0.1-0.7,0.2c-0.1,0.2-0.1,0.5-0.1,0.9s0.1,0.7,0.2,0.8c0.1,0.2,0.3,0.3,0.5,0.4c0.3,0.2,0.5,0.3,0.7,0.4
		s0.4,0.2,0.6,0.3s0.4,0.2,0.6,0.3c0.2,0.1,0.4,0.2,0.5,0.3c0.2,0.1,0.4,0.3,0.5,0.5c0.2,0.2,0.3,0.4,0.4,0.6c0.1,0.3,0.2,0.6,0.2,1
		s0.1,0.8,0.1,1.4c0,0.8-0.1,1.5-0.2,2s-0.3,1-0.6,1.3s-0.6,0.6-1.1,0.7s-1,0.2-1.7,0.2c-1.1,0-2-0.2-2.5-0.6s-0.8-1.2-0.8-2.2
		c0-0.3,0-0.7,0-1.1s0.1-0.6,0.1-0.9h2.4c0,0.1,0,0.2,0,0.2s0,0.2,0,0.3c0,0.5,0.1,0.9,0.2,1.1c0.1,0.2,0.3,0.3,0.7,0.3
		s0.6-0.1,0.7-0.3s0.2-0.5,0.2-1.1c0-0.3-0.1-0.6-0.2-0.8c-0.1-0.2-0.3-0.4-0.5-0.5s-0.4-0.3-0.7-0.4c-0.2-0.1-0.5-0.2-0.7-0.3
		c-0.2-0.1-0.5-0.2-0.7-0.4c-0.2-0.1-0.4-0.3-0.6-0.4c-0.4-0.3-0.6-0.8-0.7-1.3c-0.1-0.6-0.1-1.3-0.1-2.2c0-0.6,0.1-1.2,0.2-1.6
		c0.1-0.4,0.3-0.8,0.5-1.1s0.6-0.5,1-0.6s1-0.2,1.7-0.2c0.6,0,1.1,0,1.5,0.1s0.8,0.3,1,0.5c0.3,0.2,0.5,0.5,0.6,0.9s0.2,0.9,0.2,1.4
		c0,0.4,0,0.7,0,0.9s-0.1,0.4-0.1,0.6h-2.4L129.6,17.9L129.6,17.9z"/>
	<path class="st0" d="M140,27.3l-0.9-8.4h-0.2l-1,8.4h-4l-1.2-13.6h2.9l0.6,9.3h0.2l1.2-9.3h2.8l1.3,9.3h0.2l0.6-9.3h2.7L144,27.3
		H140z"/>
	<path class="st0" d="M146.1,27.3V13.7h6v2.9h-3.2V19h3.1v2.8h-3.1v2.5h3.2v3H146.1z"/>
	<path class="st0" d="M157.7,27.3c0-0.1-0.1-0.2-0.1-0.4c0-0.1-0.1-0.3-0.1-0.6c0-0.3-0.1-0.6-0.1-1.1c-0.1-0.5-0.1-1.1-0.2-1.9
		c0-0.3-0.1-0.6-0.1-0.8s-0.1-0.3-0.1-0.4s-0.1-0.2-0.2-0.2c-0.1,0-0.1,0-0.2,0h-0.4v5.4h-2.8V13.7h4.1c0.6,0,1.1,0.1,1.5,0.2
		c0.4,0.1,0.7,0.4,0.9,0.6c0.2,0.3,0.4,0.7,0.5,1.1c0.1,0.5,0.1,1,0.1,1.7s0,1.3-0.1,1.7c0,0.4-0.1,0.7-0.2,0.9
		c-0.1,0.2-0.2,0.4-0.4,0.5c-0.1,0.1-0.3,0.2-0.5,0.3v0.1c0.1,0.1,0.1,0.1,0.2,0.2c0.1,0.1,0.1,0.2,0.2,0.4c0.1,0.2,0.2,0.5,0.3,1
		c0.1,0.4,0.2,1.1,0.3,1.8c0.1,0.6,0.1,1,0.2,1.3s0.1,0.6,0.1,0.8s0.1,0.4,0.1,0.5s0,0.2,0.1,0.3v0.2H157.7z M156.9,19.5
		c0.3,0,0.4-0.1,0.6-0.3c0.1-0.2,0.2-0.7,0.2-1.3c0-0.5-0.1-0.9-0.2-1.1c-0.1-0.2-0.3-0.3-0.6-0.3h-0.7v3
		C156.2,19.5,156.9,19.5,156.9,19.5z"/>
	<path class="st0" d="M165.3,17.9c0-0.1,0-0.2,0-0.2c0-0.1,0-0.2,0-0.4c0-0.4-0.1-0.7-0.2-0.9c-0.1-0.2-0.3-0.2-0.7-0.2
		c-0.3,0-0.6,0.1-0.7,0.2c-0.1,0.2-0.1,0.5-0.1,0.9s0.1,0.7,0.2,0.8c0.1,0.2,0.3,0.3,0.5,0.4c0.3,0.2,0.5,0.3,0.7,0.4
		s0.4,0.2,0.6,0.3s0.4,0.2,0.6,0.3c0.2,0.1,0.4,0.2,0.5,0.3c0.2,0.1,0.4,0.3,0.5,0.5c0.2,0.2,0.3,0.4,0.4,0.6c0.1,0.3,0.2,0.6,0.2,1
		s0.1,0.8,0.1,1.4c0,0.8-0.1,1.5-0.2,2s-0.3,1-0.6,1.3s-0.6,0.6-1.1,0.7s-1,0.2-1.7,0.2c-1.1,0-2-0.2-2.5-0.6s-0.8-1.2-0.8-2.2
		c0-0.3,0-0.7,0-1.1s0.1-0.6,0.1-0.9h2.4c0,0.1,0,0.2,0,0.2s0,0.2,0,0.3c0,0.5,0.1,0.9,0.2,1.1c0.1,0.2,0.3,0.3,0.7,0.3
		s0.6-0.1,0.7-0.3s0.2-0.5,0.2-1.1c0-0.3-0.1-0.6-0.2-0.8c-0.1-0.2-0.3-0.4-0.5-0.5s-0.4-0.3-0.7-0.4c-0.2-0.1-0.5-0.2-0.7-0.3
		c-0.2-0.1-0.5-0.2-0.7-0.4c-0.2-0.1-0.4-0.3-0.6-0.4c-0.4-0.3-0.6-0.8-0.7-1.3c-0.1-0.6-0.1-1.3-0.1-2.2c0-0.6,0.1-1.2,0.2-1.6
		c0.1-0.4,0.3-0.8,0.5-1.1s0.6-0.5,1-0.6s1-0.2,1.7-0.2c0.6,0,1.1,0,1.5,0.1s0.8,0.3,1,0.5c0.3,0.2,0.5,0.5,0.6,0.9s0.2,0.9,0.2,1.4
		c0,0.4,0,0.7,0,0.9s-0.1,0.4-0.1,0.6h-2.4L165.3,17.9L165.3,17.9z"/>
</g>
</svg>
