<?xml version="1.0" encoding="utf-8"?>
<!-- Generator: Adobe Illustrator 20.0.0, SVG Export Plug-In . SVG Version: 6.00 Build 0)  -->
<svg version="1.1" id="Layer_1" xmlns="http://www.w3.org/2000/svg" xmlns:xlink="http://www.w3.org/1999/xlink" x="0px" y="0px"
	 viewBox="0 0 190 67" style="enable-background:new 0 0 190 67;" xml:space="preserve">
<style type="text/css">
	.st0{fill:#FFFFFF;}
	.st1{fill:#F1F5F7;}
</style>
<g>
	<g>
		<path class="st0" d="M65.6,24.8c-0.1-0.1-0.3-0.3-0.4-0.4c-0.1-0.1-0.4-0.1-0.7-0.3c-0.3,0-0.6,0-0.8,0c-0.3,0-0.7,0.1-0.8,0.1
			c-0.3,0.1-0.6,0.3-0.8,0.4c-0.3,0.1-0.6,0.3-0.7,0.6c-0.1,0.1-0.3,0.4-0.4,0.7c0,0.1,0,0.4,0,0.6c0,0.1,0.1,0.3,0.4,0.4
			c0.1,0.1,0.4,0.3,0.7,0.3s0.6,0,0.8,0c0.4,0,0.7-0.1,0.8-0.1c0.3-0.1,0.7-0.3,0.8-0.4c0.3-0.1,0.6-0.4,0.7-0.6
			c0.1-0.1,0.3-0.4,0.3-0.6C65.6,25.2,65.6,25.1,65.6,24.8z M66,25.6c-0.1,0.1-0.3,0.3-0.3,0.4c-0.1,0.1-0.3,0.3-0.4,0.3
			c-0.1,0-0.3,0.1-0.4,0.3c-0.1,0-0.3,0.1-0.6,0.3c0,0.4,0,0.8-0.1,1.3C64,28.6,64,29,63.9,29.5c-0.1,0.6-0.3,0.8-0.4,1.4
			c-0.1,0.6-0.4,0.8-0.7,1.4l0.7,0.1c0.1,0,0.3,0,0.3,0l0.4,0.1c0,0,0.1,0,0.3,0.1c0.1,0,0.3,0.1,0.4,0.1c0.4,0.1,0.8,0.4,1,0.7
			c0.4,0.3,0.7,0.6,0.8,0.8c0.3,0.3,0.4,0.7,0.6,1c0.1,0.4,0.1,0.7,0.1,1.1c0.6,0.3,0.8,0.7,1.3,1.1c0.3,0.6,0.6,0.8,0.7,1.4
			c0.1,0.6,0,1-0.1,1.7c-0.1,0.6-0.4,1-0.8,1.5l-7,9c-0.4,0.6-0.8,0.8-1.4,1.1c-0.6,0.4-1,0.7-1.7,0.8c-0.7,0.1-1.3,0.3-1.8,0.1
			c-0.7,0-1.1-0.1-1.8-0.3l-0.8-0.3l-0.3-0.1c-0.4,0.1-0.7,0.1-1,0.1c-0.4,0-0.7,0-1,0c-0.3,0-0.7-0.1-1-0.1c-0.4,0-0.7-0.1-0.8-0.3
			c-0.1,0-0.3-0.1-0.4-0.1c-0.1,0-0.3-0.1-0.3-0.1c-0.1,0-0.3-0.1-0.3-0.1l-0.3-0.3c-0.7-0.6-1.1-1-1.4-1.7c-0.3-0.7-0.6-1.3-0.6-2
			c0-0.7,0.1-1.4,0.3-2.1c0.3-0.7,0.7-1.3,1.1-2l9-9.8c0.4-0.4,0.7-0.7,1-0.8c0.4-0.3,0.8-0.6,1.3-0.8c0.6-0.1,0.8-0.3,1.4-0.4
			c0.6-0.1,1-0.1,1.5-0.1c0-0.4,0-0.8,0-1.4c0-0.4,0-0.8-0.1-1.3c0-0.4-0.1-0.8-0.3-1.1c-0.1-0.3-0.3-0.8-0.4-1.1
			c-0.4-0.1-0.7-0.3-0.8-0.4c-0.1-0.1-0.4-0.4-0.6-0.6c-0.1-0.3-0.1-0.6-0.1-0.8c0-0.3,0.1-0.6,0.3-0.8c-0.6-0.8-1.1-1.5-1.8-2.2
			c-0.8-0.7-1.5-1.3-2.4-1.8c-0.8-0.6-1.8-0.8-2.8-1.3c-1-0.4-2.1-0.7-3.2-0.8c-1-0.1-2.2-0.3-3.4-0.3c-1,0-2.2,0.1-3.4,0.3
			c-1.1,0.1-2.2,0.4-3.2,0.8c-1,0.4-2.2,0.7-3.2,1.1c-0.1,0.3-0.3,0.6-0.6,0.7c-0.3,0.1-0.4,0.4-0.7,0.6s-0.6,0.3-0.8,0.3
			c-0.3,0-0.6,0.1-0.8,0c-0.4,0.3-0.8,0.4-1.1,0.7c-0.4,0.3-0.8,0.6-1.1,0.8c-0.4,0.3-0.8,0.6-1.1,0.8c-0.4,0.3-0.7,0.6-1,0.8
			c0.3,0.1,0.6,0.4,0.7,0.6c0.1,0.3,0.3,0.4,0.4,0.7c0,0.3,0.1,0.6,0.1,0.8c0,0.3-0.1,0.7-0.3,0.8l-3.8,9.4c-0.3,0.6-0.6,1.1-1,1.7
			c-0.6,0.6-0.8,0.8-1.5,1.3c-0.7,0.4-1.1,0.7-1.8,0.8c-0.7,0.1-1.3,0.3-1.8,0.3h-0.7c0,0-0.1,0-0.3-0.1c-0.1,0-0.1,0-0.3,0
			c-0.1-0.1-0.4-0.1-0.6-0.3c-0.1-0.1-0.3-0.3-0.4-0.4c-0.1-0.1-0.3-0.3-0.4-0.6c-0.1-0.1-0.1-0.3-0.3-0.6h-0.1h-0.1H17h-0.1
			c-0.4-0.1-0.7-0.3-0.8-0.6c-0.3-0.3-0.4-0.6-0.6-0.8c-0.1-0.4-0.1-0.7-0.1-1s0.1-0.8,0.4-1.1l3.4-7c0.1-0.4,0.4-0.8,0.8-1
			c0.3-0.4,0.7-0.7,1-0.8c0.4-0.3,0.8-0.6,1.1-0.7c0.6-0.1,0.8-0.3,1.3-0.4c0.3-0.3,0.6-0.4,0.8-0.7c0.4-0.3,0.7-0.4,0.8-0.6
			c0.4-0.1,0.7-0.3,1-0.3c0.3,0,0.7-0.1,1-0.1h0.8l0.7,0.1c0.3-0.4,0.6-0.7,0.8-1c0.3-0.4,0.7-0.7,0.8-1c0.4-0.4,0.7-0.7,1-0.8
			c0.3-0.1,0.7-0.7,1-0.8c0-0.1,0-0.3,0-0.3c0-0.1,0-0.1,0-0.3c0-0.1,0-0.3,0.1-0.3c0-0.1,0-0.1,0.1-0.3c0.1-0.3,0.3-0.6,0.6-0.7
			c0.3-0.1,0.4-0.4,0.7-0.6s0.6-0.3,0.8-0.3c0.3,0,0.6,0,0.8,0h0.3l0.3,0.1c1.1-0.7,2.4-1.3,3.8-1.8c1.3-0.6,2.5-0.8,3.9-1.3
			c1.4-0.3,2.7-0.6,4.1-0.7c1.4-0.1,2.8,0,4.2,0.1s2.7,0.6,3.9,0.8c1.1,0.4,2.4,1,3.2,1.7c1,0.7,1.8,1.4,2.5,2.4
			c0.7,1,1.3,2,1.7,3.1h0.1H64c0.4,0,0.7,0.1,0.8,0.3c0.3,0.1,0.6,0.4,0.7,0.6c0.1,0.3,0.1,0.6,0.1,0.8C66.3,25.1,66.1,25.3,66,25.6
			z M54.1,18.6c-1-0.4-2.2-0.7-3.4-0.8c-1.1-0.1-2.4-0.3-3.5-0.3c-1.1,0-2.4,0.1-3.5,0.4c-1.1,0.1-2.4,0.4-3.4,0.8
			c-1,0.4-2.2,0.8-3.2,1.1v0.3L37,20.4c1-0.6,2.1-0.8,3.2-1.1c1-0.4,2.2-0.6,3.2-0.8c1.1-0.1,2.4-0.3,3.4-0.3c1.1,0,2.4,0.1,3.4,0.3
			c1.1,0.1,2.2,0.4,3.2,0.8c1,0.4,2,0.8,2.8,1.3c0.8,0.6,1.7,1.1,2.4,1.8c0.8,0.7,1.3,1.4,1.8,2.2l0.7-0.4l0.1-0.1
			c-0.6-0.8-1.1-1.5-2-2.4c-0.7-0.7-1.5-1.3-2.4-1.8C56,19.3,55.2,18.9,54.1,18.6z M51.8,24.1c1.1,0.8,2,1.7,2.5,2.7
			c0.7,1.1,0.8,2.4,0.8,3.8c0,1.4-0.4,2.9-1.1,4.3c-0.8,1.7-2.1,3.5-3.6,5.3c-1.8,2.2-3.6,4.1-5.6,5.6c-2.4,1.8-4.5,3.1-6.9,3.8
			c-2.4,0.8-4.8,0.8-6.9,0c-2-0.8-3.2-2.1-3.9-4.1c-0.6-1.5-0.6-3.5-0.1-5.7c0.4-1.8,0.8-3.8,1.8-5.7c0.8-1.7,1.7-3.2,2.5-4.6
			c0.8-1.3,2-2.4,3.2-3.4c1.1-0.8,2.4-1.7,3.9-2.4c1.4-0.7,2.9-1,4.3-1.1c1.5-0.3,3.1-0.3,4.5,0C49.3,23,50.7,23.4,51.8,24.1z
			 M62.1,27.2c0.1,0.4,0.3,0.8,0.3,1.1c0.1,0.4,0.1,0.8,0.1,1.1s0.1,0.8,0.1,1.3c0,0.4,0,0.8-0.1,1.3h0.3c0.1-0.4,0.1-0.8,0.1-1.3
			c0-0.4,0-0.8,0-1.3c0-0.6,0-0.8-0.1-1.3c0-0.4-0.1-0.8-0.3-1.1L62.1,27.2L62.1,27.2z M61.2,49.7l5.7-6.9c0.3-0.3,0.6-0.7,0.7-1
			c0.1-0.4,0.1-0.7,0.1-1c0-0.4,0-0.7-0.1-1c-0.1-0.3-0.3-0.7-0.6-0.8L67,39.3L56.6,51.5c0.4,0.1,0.8,0.1,1.3,0.1
			c0.4,0,0.8-0.1,1.3-0.3c0.4-0.1,0.8-0.4,1.1-0.6C60.7,50.3,60.9,50,61.2,49.7z M36.3,20.3c0-0.1,0-0.3-0.1-0.4
			c-0.1-0.1-0.3-0.3-0.3-0.4c-0.1-0.1-0.3-0.1-0.6-0.1c-0.1,0-0.4,0-0.6,0c-0.3,0-0.4,0.1-0.6,0.1c-0.1,0.1-0.4,0.3-0.6,0.4
			c-0.1,0.1-0.3,0.3-0.3,0.6c0,0.1-0.1,0.4-0.1,0.6s0,0.4,0.1,0.6c0,0.1,0.1,0.3,0.3,0.4c0.1,0.1,0.3,0.1,0.6,0.1c0.3,0,0.4,0,0.7,0
			c0.1,0,0.4-0.1,0.6-0.1c0.1-0.1,0.3-0.3,0.6-0.4c0.1-0.1,0.3-0.3,0.3-0.6C36.3,20.7,36.3,20.4,36.3,20.3z M34.2,22l-0.3-0.1
			c-0.4,0.3-0.7,0.6-1.1,0.8c-0.4,0.3-0.7,0.6-1,0.8c-0.3,0.3-0.7,0.6-1,0.8c-0.3,0.3-0.7,0.6-0.8,0.8h0.1c0.4-0.3,0.7-0.7,1-0.8
			c0.3-0.1,0.8-0.6,1-0.8c0.4-0.3,0.8-0.6,1.1-0.8C33.5,22.4,33.9,22.3,34.2,22L34.2,22z M22.3,28.1c-0.3,0.1-0.6,0.3-0.8,0.6
			c-0.3,0.3-0.6,0.4-0.7,0.7c-0.1,0.3-0.4,0.4-0.6,0.7l-2.5,5.6c-0.1,0.3-0.3,0.6-0.3,0.8c0,0.3,0,0.6,0,0.8c0,0.3,0.1,0.4,0.3,0.7
			c0.1,0.1,0.3,0.3,0.6,0.4l0.1-0.4l4.3-9.4l0.3-0.6C22.9,27.9,22.6,28,22.3,28.1z"/>
	</g>
</g>
<g>
	<path class="st1" d="M84,30.6v-7.8h-2.4v7.8h-4V11.7h4V19H84v-7.3h4v18.9H84z"/>
	<path class="st1" d="M89.6,30.6V11.7H98v4h-4.5V19h4.4v3.8h-4.4v3.6h4.4v4.2H89.6z"/>
	<path class="st1" d="M105.5,30.6l-0.3-4.4h-1.9l-0.3,4.4h-4l2-18.9h6.6l1.9,18.9H105.5z M104.4,15.7h-0.3l-0.6,6.8h1.6L104.4,15.7z
		"/>
	<path class="st1" d="M116.9,30.6c0-0.1-0.1-0.3-0.1-0.5s-0.1-0.4-0.1-0.8c-0.1-0.4-0.1-0.9-0.2-1.5s-0.2-1.5-0.3-2.6
		c-0.1-0.4-0.1-0.8-0.2-1s-0.1-0.5-0.2-0.6s-0.2-0.2-0.3-0.3c-0.1,0-0.2-0.1-0.3-0.1h-0.6v7.4h-3.9V11.7h5.7c0.8,0,1.5,0.1,2.1,0.3
		c0.5,0.2,1,0.5,1.3,0.9s0.5,0.9,0.7,1.6c0.1,0.6,0.2,1.4,0.2,2.3c0,1,0,1.8-0.1,2.3c-0.1,0.6-0.2,1-0.3,1.3s-0.3,0.6-0.5,0.7
		s-0.4,0.3-0.7,0.5v0.1c0.1,0.1,0.2,0.2,0.3,0.3s0.2,0.3,0.3,0.5c0.1,0.3,0.3,0.8,0.4,1.4s0.3,1.5,0.4,2.6c0.1,0.8,0.2,1.4,0.2,1.8
		c0,0.5,0.1,0.8,0.1,1.1c0,0.3,0.1,0.5,0.1,0.7c0,0.1,0.1,0.3,0.1,0.4v0.1H116.9z M115.7,19.7c0.4,0,0.6-0.2,0.8-0.5
		c0.1-0.3,0.2-0.9,0.2-1.8c0-0.8-0.1-1.3-0.3-1.5c-0.2-0.2-0.5-0.4-0.8-0.4h-1v4.1L115.7,19.7C115.7,19.6,115.7,19.7,115.7,19.7z"/>
	<path class="st1" d="M133.1,30.6l-0.3-4.4h-1.9l-0.3,4.4h-4l2-18.9h6.6l1.9,18.9H133.1z M132,15.7h-0.3l-0.6,6.8h1.6L132,15.7z"/>
	<path class="st1" d="M144.5,23.3h-1.8v-3.8h5.3c0,0.3,0,0.8,0,1.5c0,0.6,0,1.4,0,2.3c0,1,0,1.9,0,2.6s-0.1,1.3-0.2,1.7
		s-0.2,0.8-0.3,1.1c-0.1,0.3-0.2,0.5-0.4,0.8s-0.4,0.5-0.6,0.7c-0.2,0.2-0.5,0.3-0.8,0.5s-0.7,0.2-1.2,0.3s-1,0.1-1.6,0.1
		c-1.2,0-2.1-0.1-2.8-0.3c-0.6-0.2-1.1-0.6-1.4-1.2c-0.2-0.3-0.3-0.6-0.4-0.9c-0.1-0.3-0.2-0.8-0.3-1.4s-0.1-1.4-0.2-2.3
		c0-1,0-2.2,0-3.7s0-2.7,0-3.6s0.1-1.7,0.2-2.3c0.1-0.6,0.2-1,0.3-1.4c0.1-0.3,0.3-0.6,0.4-0.9c0.3-0.6,0.8-1,1.5-1.2
		c0.7-0.2,1.5-0.3,2.8-0.3c1.4,0,2.4,0.2,3.1,0.5c0.7,0.3,1.2,1,1.5,1.8c0.2,0.7,0.3,1.6,0.3,2.8c0,0.2,0,0.4,0,0.5
		c0,0.1,0,0.3,0,0.4h-3.7c0-0.1,0-0.1,0-0.2s0-0.1,0-0.2c0-0.4,0-0.7,0-0.9c0-0.2-0.1-0.4-0.1-0.5c-0.1-0.3-0.5-0.5-1.1-0.5
		c-0.3,0-0.6,0-0.7,0.1c-0.2,0.1-0.3,0.2-0.3,0.4c0,0.1-0.1,0.3-0.1,0.5c0,0.2-0.1,0.4-0.1,0.8s0,0.9,0,1.5s0,1.5,0,2.5
		c0,1.1,0,1.9,0,2.6s0,1.1,0,1.5s0,0.6,0.1,0.8c0,0.2,0.1,0.3,0.1,0.4c0.1,0.4,0.5,0.5,1.2,0.5c0.3,0,0.6,0,0.7-0.1
		c0.2-0.1,0.3-0.2,0.4-0.4c0-0.1,0.1-0.2,0.1-0.3c0-0.1,0.1-0.2,0.1-0.4c0-0.1,0-0.3,0-0.6c0-0.2,0-0.5,0-0.9V23.3z"/>
	<path class="st1" d="M155.2,30.6l-0.3-4.4H153l-0.3,4.4h-4l2-18.9h6.6l1.9,18.9H155.2z M154,15.7h-0.3l-0.6,6.8h1.6L154,15.7z"/>
	<path class="st1" d="M160.4,30.6V11.7h4v18.9H160.4z"/>
	<path class="st1" d="M174.4,30.6l-4.5-10.1h-0.1v10.1h-3.6V11.7h3.8l2.7,6.6h0.1v-6.6h3.6v18.9H174.4z"/>
</g>
<g>
	<path class="st1" d="M89.7,46.8v-3.2h8.2v3.2H89.7z"/>
	<path class="st1" d="M103.7,39.7l-0.2,2.2c0.2-0.1,0.5-0.1,0.8-0.2c0.4-0.1,0.8-0.1,1.3-0.1c0.6,0,1.2,0.1,1.7,0.3s0.9,0.5,1.2,0.9
		c0.3,0.4,0.6,1,0.7,1.7c0.2,0.7,0.2,1.6,0.2,2.6c0,0.9,0,1.7-0.1,2.4c0,0.7-0.1,1.3-0.2,1.8s-0.2,1-0.3,1.3c-0.1,0.4-0.3,0.7-0.4,1
		c-0.2,0.3-0.4,0.5-0.6,0.7s-0.5,0.4-0.9,0.5c-0.3,0.1-0.8,0.2-1.2,0.3s-1,0.1-1.7,0.1c-1.1,0-1.9-0.1-2.6-0.4
		c-0.7-0.2-1.2-0.6-1.5-1.1c-0.4-0.5-0.6-1.1-0.7-1.9C99.1,51,99,50.2,99,49.1c0-0.5,0-1.1,0.1-1.7h3.7c0,0.1,0,0.3,0,0.4
		c0,0.2,0,0.3,0,0.4c0,0.8,0.1,1.4,0.2,1.9c0.1,0.4,0.5,0.7,1,0.7c0.4,0,0.7,0,0.8-0.1c0.2-0.1,0.3-0.2,0.3-0.4
		c0.1-0.3,0.1-0.7,0.2-1.1c0-0.5,0.1-1.2,0.1-2.1c0-0.5,0-0.9-0.1-1.1c0-0.3-0.1-0.5-0.2-0.7s-0.3-0.3-0.5-0.3
		c-0.2-0.1-0.5-0.1-0.8-0.1c-0.5,0-0.9,0.2-1.3,0.5l-3.1-1l0.6-8.9h9v4.1L103.7,39.7L103.7,39.7z"/>
	<path class="st1" d="M115.9,54.9V35.6h5.8c0.9,0,1.6,0.1,2.1,0.3c0.6,0.2,1,0.6,1.3,1.1s0.6,1.2,0.7,2s0.2,1.9,0.2,3.1
		c0,1.3-0.1,2.3-0.2,3.2s-0.4,1.6-0.7,2.1s-0.8,0.9-1.3,1.2c-0.6,0.2-1.3,0.4-2.1,0.4h-1.8v5.8h-4C115.9,54.8,115.9,54.9,115.9,54.9
		z M121,45.1c0.4,0,0.6-0.2,0.8-0.6s0.2-1.2,0.2-2.4c0-1-0.1-1.7-0.3-2s-0.5-0.5-0.9-0.5h-1v5.5H121z"/>
	<path class="st1" d="M136.6,53.7c-0.2,0.3-0.4,0.6-0.6,0.8c-0.2,0.2-0.5,0.4-0.9,0.5s-0.7,0.2-1.2,0.3s-1,0.1-1.6,0.1
		c-1.2,0-2.2-0.1-2.8-0.3s-1.1-0.6-1.5-1.2c-0.2-0.3-0.3-0.6-0.4-1c-0.1-0.3-0.2-0.8-0.3-1.4c-0.1-0.6-0.1-1.4-0.2-2.3
		c0-1-0.1-2.2-0.1-3.7s0-2.7,0.1-3.7c0-1,0.1-1.7,0.2-2.3c0.1-0.6,0.2-1.1,0.3-1.4c0.1-0.3,0.3-0.7,0.4-1c0.2-0.3,0.4-0.5,0.6-0.7
		c0.2-0.2,0.5-0.4,0.9-0.5c0.3-0.1,0.7-0.2,1.2-0.3s1-0.1,1.6-0.1c1.2,0,2.2,0.1,2.8,0.4c0.6,0.2,1.1,0.6,1.5,1.2
		c0.2,0.3,0.3,0.6,0.4,1c0.1,0.3,0.2,0.8,0.3,1.4s0.1,1.4,0.2,2.3c0,1,0.1,2.2,0.1,3.7s0,2.7-0.1,3.7s-0.1,1.7-0.2,2.3
		c-0.1,0.6-0.2,1.1-0.3,1.4S136.7,53.4,136.6,53.7z M133.3,50.5c0-0.1,0.1-0.3,0.1-0.5s0.1-0.5,0.1-0.8c0-0.4,0-0.9,0-1.5
		s0-1.5,0-2.5c0-1.1,0-1.9,0-2.6c0-0.6,0-1.2,0-1.5c0-0.4,0-0.7-0.1-0.9c0-0.2-0.1-0.3-0.1-0.5c-0.1-0.2-0.2-0.3-0.3-0.4
		s-0.4-0.1-0.7-0.1s-0.6,0-0.7,0.1c-0.1,0.1-0.2,0.2-0.3,0.4c-0.1,0.1-0.1,0.3-0.1,0.5s-0.1,0.5-0.1,0.9s0,0.9-0.1,1.5
		c0,0.6,0,1.5,0,2.6c0,1,0,1.9,0,2.5s0,1.1,0.1,1.5s0.1,0.7,0.1,0.8c0,0.2,0.1,0.3,0.1,0.5c0.1,0.2,0.1,0.3,0.3,0.4
		c0.1,0.1,0.4,0.1,0.7,0.1s0.6,0,0.7-0.1C133.1,50.8,133.2,50.6,133.3,50.5z"/>
	<path class="st1" d="M139,54.9V35.6h4.1v19.3H139z"/>
	<path class="st1" d="M153.2,54.9l-4.6-10.3h-0.2v10.3h-3.6V35.6h3.9l2.7,6.7h0.2v-6.7h3.7v19.3H153.2z"/>
	<path class="st1" d="M159.4,54.9V39.7h-3v-4.1h10.1v4.1h-3v15.2H159.4z"/>
	<path class="st1" d="M172.9,41.6c0-0.1,0-0.3,0-0.3c0-0.1,0-0.3,0-0.5c0-0.6-0.1-1-0.2-1.2c-0.1-0.2-0.5-0.3-1-0.3
		s-0.8,0.1-0.9,0.3c-0.1,0.2-0.2,0.6-0.2,1.2c0,0.6,0.1,1,0.2,1.2c0.1,0.2,0.4,0.4,0.7,0.6c0.4,0.2,0.7,0.4,1.1,0.6
		c0.3,0.2,0.6,0.3,0.9,0.4c0.3,0.1,0.5,0.3,0.8,0.4c0.3,0.1,0.5,0.3,0.8,0.4c0.3,0.2,0.5,0.4,0.7,0.6c0.2,0.2,0.4,0.5,0.5,0.9
		s0.2,0.8,0.3,1.3s0.1,1.2,0.1,2c0,1.2-0.1,2.1-0.2,2.9c-0.2,0.8-0.4,1.4-0.8,1.8c-0.4,0.5-0.9,0.8-1.6,1c-0.7,0.2-1.5,0.3-2.4,0.3
		c-1.6,0-2.8-0.3-3.5-0.9c-0.7-0.6-1.1-1.7-1.1-3.2c0-0.5,0-1,0-1.5s0.1-0.9,0.2-1.2h3.3c0,0.1-0.1,0.2-0.1,0.3s0,0.2,0,0.4
		c0,0.7,0.1,1.3,0.2,1.5c0.2,0.3,0.5,0.4,1,0.4s0.8-0.1,1-0.4c0.2-0.2,0.2-0.8,0.2-1.6c0-0.5-0.1-0.9-0.2-1.1
		c-0.2-0.3-0.4-0.5-0.7-0.7s-0.6-0.4-1-0.6c-0.3-0.2-0.7-0.3-1-0.5s-0.7-0.3-1-0.5s-0.6-0.4-0.9-0.6c-0.5-0.5-0.8-1.1-1-1.9
		c-0.1-0.8-0.2-1.8-0.2-3.1c0-0.9,0.1-1.7,0.2-2.3c0.1-0.6,0.4-1.1,0.8-1.5s0.8-0.7,1.5-0.8c0.6-0.2,1.4-0.3,2.3-0.3
		c0.9,0,1.6,0.1,2.2,0.2c0.6,0.1,1.1,0.4,1.4,0.7c0.4,0.3,0.6,0.8,0.8,1.3s0.2,1.2,0.2,2c0,0.5,0,0.9,0,1.2s-0.1,0.6-0.2,0.8h-3.2
		L172.9,41.6L172.9,41.6z"/>
</g>
</svg>
