<?xml version="1.0" encoding="utf-8"?>
<!-- Generator: Adobe Illustrator 20.0.0, SVG Export Plug-In . SVG Version: 6.00 Build 0)  -->
<svg version="1.1" id="flash0.ai" xmlns="http://www.w3.org/2000/svg" xmlns:xlink="http://www.w3.org/1999/xlink" x="0px" y="0px"
	 viewBox="0 0 140 90" style="enable-background:new 0 0 140 90;" xml:space="preserve">
<style type="text/css">
	.st0{fill:#F4F4F4;}
	.st1{fill:#FFBD3B;}
</style>
<g>
	<path class="st0" d="M28.8,40.1L28.6,36h-1.7l-0.3,4.1h-3.7l1.9-17.5h6.1l1.7,17.5H28.8z M27.8,26.2h-0.3l-0.6,6.3h1.4L27.8,26.2z"
		/>
	<path class="st0" d="M33.7,40.1V22.5h4.9c1.1,0,2,0.1,2.5,0.3c0.6,0.2,1,0.6,1.3,1c0.2,0.3,0.3,0.5,0.3,0.9
		c0.1,0.3,0.2,0.7,0.3,1.2c0.1,0.5,0.1,1.2,0.2,2c0,0.9,0.1,1.9,0.1,3.2c0,1.3,0,2.4-0.1,3.2c0,0.9-0.1,1.6-0.2,2.1s-0.2,1-0.3,1.2
		c-0.1,0.3-0.3,0.6-0.3,0.9c-0.2,0.3-0.3,0.5-0.5,0.7c-0.2,0.2-0.4,0.3-0.8,0.4s-0.7,0.2-1,0.3c-0.4,0.1-0.9,0.1-1.5,0.1H33.7z
		 M38.5,36.2c0.3,0,0.5,0,0.6-0.1c0.1-0.1,0.2-0.2,0.3-0.3c0-0.1,0.1-0.3,0.1-0.3c0-0.2,0.1-0.3,0.1-0.7s0-0.8,0-1.3s0-1.3,0-2.2
		c0-0.9,0-1.7,0-2.2s0-1,0-1.3c0-0.3,0-0.5-0.1-0.7c0-0.2-0.1-0.3-0.1-0.4c-0.1-0.1-0.2-0.2-0.3-0.3c-0.1-0.1-0.3-0.1-0.6-0.1h-1.1
		v9.9H38.5z"/>
	<path class="st0" d="M44.6,40.1V22.5h4.9c1.1,0,2,0.1,2.5,0.3c0.6,0.2,1,0.6,1.3,1c0.2,0.3,0.3,0.5,0.3,0.9
		c0.1,0.3,0.2,0.7,0.3,1.2c0.1,0.5,0.1,1.2,0.2,2c0,0.9,0.1,1.9,0.1,3.2c0,1.3,0,2.4-0.1,3.2c0,0.9-0.1,1.6-0.2,2.1
		c-0.1,0.5-0.2,1-0.3,1.2c-0.1,0.3-0.3,0.6-0.3,0.9c-0.2,0.3-0.3,0.5-0.5,0.7s-0.4,0.3-0.8,0.4s-0.7,0.2-1,0.3
		c-0.4,0.1-0.9,0.1-1.5,0.1H44.6z M49.4,36.2c0.3,0,0.5,0,0.6-0.1c0.1-0.1,0.2-0.2,0.3-0.3c0-0.1,0.1-0.3,0.1-0.3
		c0-0.2,0.1-0.3,0.1-0.7s0-0.8,0-1.3s0-1.3,0-2.2c0-0.9,0-1.7,0-2.2s0-1,0-1.3c0-0.3,0-0.5-0.1-0.7c0-0.2-0.1-0.3-0.1-0.4
		c-0.1-0.1-0.2-0.2-0.3-0.3c-0.1-0.1-0.3-0.1-0.6-0.1h-1.1v9.9H49.4z"/>
	<path class="st0" d="M60.1,40.1V22.5h3.7v13.7h3.7v3.9H60.1z"/>
	<path class="st0" d="M68.5,40.1V22.5h7.7v3.7h-4.1v3h4.1v3.6h-4.1v3.3h4.1v3.9H68.5z"/>
	<path class="st0" d="M80,40.1V26.2h-2.8v-3.7h9.1v3.7h-2.8v13.8H80z"/>
	<path class="st0" d="M90,40.1V26.2h-2.8v-3.7h9.1v3.7h-2.8v13.8H90z"/>
	<path class="st0" d="M97.4,40.1V22.5h7.7v3.7h-4.1v3h4.1v3.6h-4.1v3.3h4.1v3.9H97.4z"/>
	<path class="st0" d="M112.4,40.1c-0.1-0.2-0.1-0.3-0.1-0.4c0-0.2-0.1-0.4-0.1-0.8c-0.1-0.3-0.1-0.8-0.2-1.4s-0.2-1.4-0.3-2.4
		c-0.1-0.4-0.1-0.7-0.2-1c-0.1-0.3-0.1-0.4-0.2-0.6c-0.1-0.2-0.2-0.2-0.3-0.3c-0.1,0-0.2-0.1-0.3-0.1h-0.5v6.8h-3.7V22.5h5.3
		c0.8,0,1.4,0.1,1.9,0.3c0.5,0.2,1,0.4,1.2,0.9c0.3,0.3,0.5,0.9,0.6,1.5c0.1,0.6,0.2,1.3,0.2,2.2c0,0.9,0,1.7-0.1,2.2
		c-0.1,0.5-0.2,1-0.3,1.2c-0.2,0.3-0.3,0.5-0.4,0.7c-0.2,0.2-0.4,0.3-0.6,0.4v0c0.1,0.1,0.2,0.2,0.3,0.3c0.1,0.1,0.2,0.3,0.3,0.4
		c0.1,0.3,0.3,0.7,0.3,1.2s0.3,1.4,0.3,2.4c0.1,0.7,0.2,1.3,0.2,1.7c0.1,0.4,0.1,0.8,0.1,1s0.1,0.4,0.1,0.6s0.1,0.3,0.1,0.4V40
		L112.4,40.1L112.4,40.1z M111.3,30c0.3,0,0.6-0.2,0.7-0.4c0.2-0.3,0.2-0.9,0.2-1.7c0-0.7-0.1-1.1-0.3-1.4c-0.2-0.3-0.4-0.3-0.8-0.3
		h-1V30H111.3z"/>
</g>
<g>
	<path class="st1" d="M43.4,59.3v-3.5h9.1v3.5H43.4z"/>
	<path class="st1" d="M58.9,51.5l-0.3,2.4c0.2-0.1,0.5-0.2,0.9-0.3c0.4-0.1,0.9-0.1,1.5-0.1c0.7,0,1.3,0.1,1.9,0.3
		c0.5,0.2,1,0.6,1.3,1c0.3,0.5,0.6,1.1,0.8,1.9c0.2,0.8,0.3,1.7,0.3,2.9c0,1,0,1.9-0.1,2.7c-0.1,0.8-0.1,1.4-0.2,2
		c-0.1,0.6-0.2,1-0.3,1.5c-0.2,0.4-0.3,0.8-0.5,1c-0.2,0.3-0.4,0.6-0.7,0.8c-0.3,0.3-0.6,0.4-1,0.5c-0.3,0.2-0.9,0.3-1.4,0.3
		c-0.5,0.1-1.1,0.1-1.8,0.1c-1.2,0-2.2-0.2-2.9-0.4c-0.7-0.3-1.3-0.7-1.7-1.2c-0.4-0.5-0.7-1.2-0.8-2.1s-0.2-1.8-0.2-3
		c0-0.6,0-1.2,0.1-1.9H58c0,0.2,0,0.3,0,0.4c0,0.2,0,0.3,0,0.5c0,0.9,0.1,1.6,0.2,2.1c0.2,0.5,0.5,0.8,1.1,0.8c0.4,0,0.7,0,0.9-0.1
		c0.2-0.1,0.3-0.2,0.3-0.4c0.1-0.3,0.2-0.8,0.2-1.2c0.1-0.5,0.1-1.3,0.1-2.4c0-0.5,0-1-0.1-1.3c0-0.3-0.1-0.6-0.3-0.7
		c-0.1-0.2-0.3-0.3-0.5-0.3c-0.2-0.1-0.5-0.1-0.9-0.1c-0.6,0-1,0.2-1.5,0.5l-3.5-1.1l0.7-9.9h10v4.5h-5.8V51.5z"/>
</g>
<g>
	<path class="st1" d="M67.1,60.3V46.9h4c0.6,0,1.1,0.1,1.5,0.3c0.3,0.2,0.7,0.4,1,0.8c0.3,0.3,0.3,0.9,0.5,1.4
		c0.1,0.6,0.2,1.3,0.2,2.2s-0.1,1.7-0.2,2.3c-0.1,0.6-0.3,1.1-0.5,1.5c-0.3,0.3-0.5,0.6-1,0.8c-0.3,0.2-0.9,0.3-1.5,0.3h-1.2v4
		C69.9,60.3,67.1,60.3,67.1,60.3z M70.7,53.5c0.3,0,0.4-0.2,0.5-0.4s0.2-0.9,0.2-1.7c0-0.7-0.1-1.2-0.2-1.4
		c-0.1-0.3-0.3-0.3-0.6-0.3h-0.7v3.8H70.7z"/>
	<path class="st1" d="M76.9,60.3V49.7h-2.1v-2.9h7v2.9h-2.1v10.6H76.9z"/>
	<path class="st1" d="M86.3,51c0-0.1,0-0.2,0-0.3c0-0.1,0-0.2,0-0.3c0-0.4-0.1-0.7-0.2-0.9c-0.1-0.2-0.3-0.3-0.7-0.3
		s-0.5,0.1-0.7,0.3c-0.1,0.2-0.2,0.4-0.2,0.9c0,0.3,0.1,0.7,0.2,0.8c0.1,0.2,0.3,0.3,0.5,0.4s0.5,0.3,0.7,0.3
		c0.3,0.1,0.4,0.2,0.6,0.3c0.2,0.1,0.3,0.2,0.5,0.3s0.3,0.2,0.5,0.3c0.2,0.2,0.3,0.3,0.5,0.4c0.2,0.2,0.3,0.3,0.3,0.6s0.2,0.6,0.2,1
		c0.1,0.3,0.1,0.9,0.1,1.4c0,0.8-0.1,1.5-0.2,2c-0.1,0.5-0.3,1-0.6,1.3c-0.3,0.3-0.6,0.5-1,0.7c-0.4,0.2-1,0.2-1.7,0.2
		c-1.1,0-1.9-0.2-2.4-0.6c-0.5-0.4-0.8-1.1-0.8-2.2c0-0.3,0-0.7,0-1c0-0.3,0.1-0.6,0.1-0.9h2.4c0,0.1,0,0.2,0,0.3s0,0.2,0,0.3
		c0,0.5,0.1,0.9,0.2,1c0.1,0.2,0.3,0.3,0.7,0.3s0.6-0.1,0.7-0.3c0.1-0.2,0.2-0.5,0.2-1.1c0-0.3-0.1-0.6-0.2-0.8
		c-0.1-0.2-0.3-0.3-0.5-0.5c-0.2-0.2-0.4-0.3-0.7-0.3s-0.5-0.3-0.7-0.3c-0.3-0.1-0.4-0.3-0.7-0.3s-0.4-0.3-0.6-0.4
		c-0.3-0.3-0.6-0.8-0.7-1.3C82,51.4,82,50.6,82,49.8c0-0.6,0.1-1.1,0.2-1.6s0.3-0.8,0.5-1c0.3-0.3,0.6-0.4,1-0.6
		c0.4-0.1,1-0.2,1.7-0.2c0.6,0,1.1,0.1,1.5,0.2c0.4,0.1,0.8,0.3,1,0.5s0.4,0.5,0.5,0.9c0.1,0.3,0.2,0.9,0.2,1.4c0,0.3,0,0.7,0,0.9
		c0,0.2-0.1,0.4-0.1,0.6h-2.3V51z"/>
	<path class="st1" d="M89.6,60.3v-2.7h2.8v2.7H89.6z"/>
</g>
</svg>
