<?xml version="1.0" encoding="utf-8"?>
<!-- Generator: Adobe Illustrator 16.0.0, SVG Export Plug-In . SVG Version: 6.00 Build 0)  -->
<!DOCTYPE svg PUBLIC "-//W3C//DTD SVG 1.1//EN" "http://www.w3.org/Graphics/SVG/1.1/DTD/svg11.dtd">
<svg version="1.1" id="Layer_1" xmlns="http://www.w3.org/2000/svg" xmlns:xlink="http://www.w3.org/1999/xlink" x="0px" y="0px"
	 width="140px" height="40px" viewBox="0 0 140 40" enable-background="new 0 0 140 40" xml:space="preserve">
<g>
	<path fill-rule="evenodd" clip-rule="evenodd" fill="#FFFFFF" d="M45.6,29.3C45.6,29.3,45.6,29.2,45.6,29.3c0.1-0.1,0.1-0.1,0-0.1
		C45.6,29.2,45.6,29.2,45.6,29.3c0,0-0.1,0.1-0.1,0.1C45.5,29.4,45.6,29.3,45.6,29.3z M44.4,29.3c0-0.1,0.1-0.1,0.1-0.1
		c0,0,0-0.1-0.1-0.1c0,0-0.1,0-0.1,0c0,0.1-0.1,0.1-0.1,0.2c0,0.1,0,0.1-0.1,0.2c0,0,0,0,0,0c0,0,0.1,0.1,0.1,0.1
		C44.3,29.5,44.4,29.4,44.4,29.3z M43.8,26.9L43.8,26.9c0,0.1,0,0.2,0,0.2c0,0,0.1,0.1,0.1,0.1c0,0,0-0.1,0-0.1c0,0,0.1-0.1,0.1-0.1
		c0,0-0.1,0-0.1,0C43.9,26.9,43.8,26.8,43.8,26.9C43.8,26.8,43.8,26.9,43.8,26.9z M44.4,26.2c0,0,0.1-0.1,0.1-0.1
		c0,0,0.1-0.1,0.1-0.1c0,0,0-0.1,0-0.1c0,0-0.1,0-0.1-0.1c0,0,0,0.1,0,0.1c0,0-0.1,0-0.1,0c0,0,0,0.1,0,0.1
		C44.3,26.1,44.4,26.2,44.4,26.2z M45.6,27c0-0.1,0-0.1,0-0.2c-0.1,0-0.1,0-0.1,0c-0.1,0-0.1,0-0.1,0c-0.1,0.1-0.2,0.2-0.3,0.3
		c-0.1,0.1-0.1,0.3-0.1,0.5c0,0,0,0.1,0,0.1c0.1-0.1,0.2-0.2,0.3-0.3c0.1-0.1,0.2-0.2,0.3-0.3C45.5,27.1,45.6,27,45.6,27z
		 M48.5,30.5c0.1-0.1,0.1-0.2,0.1-0.3v0c0,0.1,0.1,0.2,0.1,0.3s0.1,0.1,0.1,0.2s0,0.1-0.1,0.1c0,0.1-0.1,0.1-0.1,0.2
		c0-0.1-0.1-0.1-0.1-0.2c0-0.1,0-0.1,0-0.2C48.5,30.6,48.5,30.6,48.5,30.5z M27.3,26.2V26l0.1,0.2H27.3z M28.8,26
		c-0.1,0-0.3,0-0.4,0c-0.2,0-0.3,0.1-0.3,0.2c0,0.1,0,0.2,0.1,0.3c0.1,0.1,0.2,0.3,0.3,0.3l0.1,0.2c0,0,0.1,0,0.1,0c0,0,0.1,0,0.1,0
		c0.1,0,0.1,0,0.2,0c-0.1,0-0.2-0.1-0.3-0.1c-0.1-0.1-0.2-0.1-0.3-0.2c0-0.1,0.1-0.3,0.1-0.4C28.7,26.2,28.8,26.1,28.8,26z M28,24.3
		c-0.1,0.1-0.1,0.1-0.1,0.2c0,0-0.1,0.1-0.1,0.2c0,0,0,0,0.1,0c0,0,0,0.1,0,0.1l0.3-0.3c0-0.1-0.1-0.1-0.1-0.1S28,24.4,28,24.3z
		 M28.4,22.3c-0.1-0.1-0.2-0.1-0.3-0.1c-0.1,0-0.1-0.1-0.2-0.1c0,0,0,0,0,0.1c0,0-0.1,0-0.1,0c0.1,0.1,0.1,0.1,0.3,0.1
		S28.3,22.3,28.4,22.3z M30.5,19.6L30.5,19.6c0-0.1,0-0.1,0-0.1V19.6z M23.5,21.7l-0.1-0.1l0.1,0h0C23.5,21.5,23.5,21.6,23.5,21.7
		L23.5,21.7z M28.9,16.5L28.8,16c-0.1,0-0.1,0.1-0.1,0.1c-0.1,0-0.1,0.1-0.1,0.2c0,0.1,0,0.1,0.1,0.2c0,0.1,0.1,0.1,0.1,0.1l0-0.1
		C28.9,16.5,28.9,16.5,28.9,16.5z M28.5,11L28.5,11c0-0.1-0.1-0.1-0.1,0v0c0,0,0,0.1,0,0.1c0,0,0,0.1,0,0.1c0,0,0.1,0,0.1,0
		C28.5,11.2,28.5,11.1,28.5,11z M44.7,24.5c0-0.1-0.1-0.1-0.1-0.1c0-0.1,0-0.1,0-0.2c0,0-0.1,0.1-0.1,0.2c0,0-0.1,0.1-0.1,0.1
		s0,0.1,0,0.2c0,0,0.1,0.1,0.1,0.1c0,0,0-0.1,0.1-0.1C44.6,24.6,44.7,24.6,44.7,24.5z M45.5,23.4l-0.1-0.1c0,0,0,0.1,0,0.1l0,0
		c0,0,0,0.1,0,0.1l0,0C45.5,23.6,45.5,23.5,45.5,23.4L45.5,23.4L45.5,23.4z M44.9,20.5h-0.1c0,0,0,0.1,0,0.1h0.1
		C44.9,20.7,44.9,20.6,44.9,20.5L44.9,20.5z M46.3,20.8c0-0.1,0-0.2,0-0.2c0-0.1-0.1-0.1-0.1-0.2c0,0,0-0.1,0.1-0.1
		c0-0.1,0.1-0.1,0.1-0.1c0,0,0.1,0,0.1,0c0,0,0.1,0.1,0.1,0.1s0,0.1-0.1,0.2C46.4,20.5,46.4,20.6,46.3,20.8z M47.3,16L47.3,16
		L47.3,16L47.3,16z M44.4,13c0,0,0.1,0.1,0.1,0.1c-0.1,0-0.2,0-0.3,0c0,0,0-0.1,0-0.1l0.1,0C44.4,12.9,44.4,12.9,44.4,13z
		 M47.3,13.9c0,0,0-0.1,0-0.1c0,0,0-0.1,0-0.1c0-0.1,0.1-0.2,0.1-0.2s0.1,0,0.1,0c0,0,0,0.1,0,0.1c0,0,0,0.1,0,0.1
		c0,0.1-0.1,0.1-0.1,0.1C47.4,13.9,47.4,13.9,47.3,13.9L47.3,13.9z M33,19.3L33,19.3l0.1,0.1L33,19.3z M34.2,20
		c0-0.1,0.1-0.1,0.1-0.2c0,0,0.1-0.1,0.1-0.1c0,0,0-0.1-0.1-0.1s0-0.1,0-0.1c-0.1,0-0.1,0.1-0.1,0.1c0,0,0,0.1,0,0.1s0,0.1,0,0.1
		C34.1,19.9,34.2,19.9,34.2,20z M36.4,18.8v-0.1V18.8L36.4,18.8z M33.9,17.6c0.1,0,0.2,0,0.3,0c0.2,0,0.4,0,0.6-0.1
		c0.2-0.1,0.4-0.2,0.6-0.2c0.1,0,0.1,0,0.3,0.1c0.1,0,0.1,0.1,0.3,0.1c0.1,0,0.2,0,0.3-0.1c0.1,0,0.2,0,0.3,0c0.2,0,0.4,0,0.5,0.1
		c0.2,0.1,0.3,0.2,0.3,0.4c0,0.2-0.1,0.5-0.1,0.8c-0.1,0.3-0.3,0.6-0.5,0.8c-0.2,0.2-0.4,0.4-0.5,0.4c-0.3,0-0.5-0.1-0.6-0.2
		c-0.1-0.1-0.2-0.3-0.3-0.5c0-0.2-0.1-0.5-0.2-0.9v-0.1c0,0-0.1,0-0.1,0l0,0.1c0,0,0,0.1,0,0.1c0,0.1,0,0.2,0,0.3c0,0.1,0,0.2,0,0.3
		c0,0.5-0.1,0.9-0.3,1c-0.1,0.2-0.3,0.4-0.6,0.4c-0.1,0-0.2,0-0.3-0.1c-0.1,0-0.1-0.1-0.1-0.1c-0.1,0-0.2,0-0.3,0
		c-0.2,0-0.3,0-0.4,0.1c-0.1,0.1-0.2,0.1-0.3,0.2c0,0-0.1,0-0.2,0c-0.1,0-0.2,0-0.3-0.1c-0.1,0-0.2-0.1-0.3-0.3c0-0.1,0-0.1-0.1-0.2
		c0,0-0.1,0-0.1,0c0,0-0.1,0-0.2,0.1c-0.1,0.1-0.1,0.2-0.1,0.2c0,0.1,0,0.1,0,0.2c0,0,0,0.1,0,0.2c0,0.1-0.1,0.2-0.3,0.2
		c-0.2,0-0.4,0-0.6,0s-0.4,0-0.6,0.1c-0.2,0.1-0.3,0.3-0.3,0.5c0,0.1,0,0.1,0,0.2c0,0,0,0.1,0,0.2c0,0.1,0,0.2,0,0.3s0,0.2,0,0.3
		c0,0.1,0,0.3,0.1,0.4c0.1,0.1,0.1,0.4,0.2,0.8c0,0.1,0,0.2-0.1,0.3c0,0.1,0,0.3,0,0.4c0,0.3,0,0.5,0.1,0.8c0.1,0.3,0.2,0.5,0.3,0.6
		c0,0,0,0.1,0,0.2c0,0.1,0.1,0.1,0.1,0.2c0,0.2-0.1,0.3-0.2,0.4c-0.1,0.1-0.2,0.3-0.2,0.4c0,0.1,0,0.2,0,0.3c0,0.1,0,0.2,0,0.3
		c0,0.1,0,0.2,0,0.3c-0.1,0.1-0.1,0.1-0.3,0.1s-0.2,0-0.3,0c-0.1,0-0.2,0-0.3,0c-0.2,0-0.4,0.1-0.6,0.3c-0.2,0.2-0.3,0.3-0.5,0.3
		s-0.2-0.1-0.3-0.4c-0.1-0.3-0.1-0.6-0.1-1c0-0.4,0-0.7-0.1-1c0-0.3-0.1-0.5-0.1-0.7c-0.1-0.1-0.2-0.2-0.2-0.3c0-0.1,0-0.3,0-0.4
		c0-0.5,0-1,0.1-1.5c0.1-0.6,0.2-1.1,0.3-1.6c-0.2,0-0.4,0.1-0.6,0.1c-0.2,0-0.4,0-0.6,0c-0.1,0-0.2,0-0.3,0c-0.1,0-0.3,0-0.4-0.1
		c-0.1,0-0.2,0-0.3,0c-0.1,0-0.2,0-0.3,0c-0.3,0-0.6-0.1-1-0.1c-0.3-0.1-0.6-0.1-0.8-0.2c-0.1,0-0.2,0.1-0.3,0.3
		c-0.1,0.2-0.2,0.3-0.3,0.3c-0.1,0-0.2-0.1-0.3-0.3c-0.1-0.2-0.3-0.3-0.4-0.5c-0.1-0.2-0.1-0.3-0.1-0.3c0-0.1,0-0.2,0-0.3
		c0.1-0.1,0.2-0.2,0.3-0.2c0,0,0.1,0.1,0.1,0.2c0,0.1,0,0.1,0,0.1s0.1-0.1,0.1-0.3c0.1-0.1,0.1-0.3,0.1-0.4c0-0.2-0.1-0.3-0.2-0.4
		c-0.1-0.1-0.2-0.2-0.2-0.4c0-0.2,0.1-0.3,0.3-0.4s0.3-0.1,0.4-0.1s0.2,0,0.3,0.1c0.1,0.1,0.2,0.3,0.3,0.4c0.1,0.1,0.1,0.2,0.3,0.2
		s0.2,0,0.4-0.1s0.3-0.2,0.4-0.2c0.1,0,0.2,0,0.3,0.1c0.1,0.1,0.1,0.1,0.3,0.1c0,0,0.1,0,0.1,0c0.1,0,0.1,0,0.1,0
		c0.2,0,0.3,0.1,0.4,0.1c0.1,0.1,0.2,0.2,0.2,0.2c0.1,0,0.2-0.1,0.4-0.2c0.1-0.1,0.3-0.1,0.4-0.1c0.1,0,0.2,0,0.3,0.1
		c0.1,0.1,0.1,0.3,0.1,0.5c0,0.1-0.1,0.3-0.1,0.4c-0.1,0.1-0.2,0.3-0.3,0.4c-0.1,0.1-0.1,0.3-0.2,0.4c0,0,0.1,0.1,0.1,0.1
		c0,0,0,0,0.1,0c0.1,0,0.2-0.1,0.3-0.3c0.1-0.2,0.2-0.5,0.3-0.8c0.1-0.2,0.2-0.5,0.3-0.7l0.1-0.3c0.1-0.1,0.2-0.3,0.3-0.4
		c0.1-0.2,0.1-0.4,0.1-0.6c0.1-0.2,0.1-0.3,0.1-0.3c0-0.1-0.1-0.2-0.2-0.3c-0.1,0-0.2-0.1-0.2-0.3c0-0.3,0-0.6,0-1
		c0.1-0.4,0.2-0.7,0.4-0.9c-0.1-0.1-0.2-0.2-0.2-0.3c0-0.1,0-0.3,0-0.4c0-0.3,0-0.7,0-1.1c0-0.3,0.1-0.7,0.1-1c0-0.2,0-0.4-0.1-0.5
		c0-0.2-0.1-0.3-0.1-0.4c0,0,0.1-0.1,0.2-0.3c0.2-0.2,0.3-0.3,0.5-0.3h0c0,0,0.1,0.1,0.1,0.1c0.1,0,0.1-0.1,0.2-0.1
		c0.1,0,0.1,0,0.2,0c0.1,0,0.3,0.1,0.5,0.3c0.2,0.2,0.3,0.4,0.4,0.6s0.2,0.5,0.3,0.8c0,0.1-0.1,0.2-0.1,0.2c-0.1,0-0.1,0.1-0.2,0.1
		c-0.1,0-0.1,0.1-0.1,0.1c0,0.2,0,0.3,0,0.5c0,0.2-0.1,0.3-0.1,0.5c0,0.3,0.1,0.7,0.2,1c0.1,0.3,0.1,0.7,0.1,1.1
		c0,0.2,0,0.5-0.1,0.8s-0.1,0.5-0.1,0.8c0,0.2,0,0.4,0.1,0.5s0.2,0.2,0.4,0.2c0.1,0,0.1,0,0.1-0.1c0.1,0,0.1,0,0.1,0
		c0.2,0,0.3,0.1,0.5,0.2c0.1,0.1,0.3,0.2,0.4,0.2c0.1,0,0.1,0,0.2-0.1c0.1-0.1,0.1-0.2,0.3-0.3c0.1-0.1,0.2-0.1,0.3-0.2
		c0.1,0,0.2,0.1,0.3,0.1c0.1,0,0.2,0.1,0.3,0.1c0.2,0,0.3,0,0.4-0.1c0.1-0.1,0.2-0.1,0.3-0.2c0.1-0.1,0.3-0.1,0.5-0.1
		C33.7,17.6,33.8,17.6,33.9,17.6z M45.9,11.5l0.1,0L45.9,11.5L45.9,11.5z M44.7,11c0.1,0.1,0.1,0.2,0.2,0.3c0,0.1,0.1,0.2,0.1,0.3
		c-0.1,0-0.1,0.1-0.2,0.2c-0.1,0.1-0.1,0.1-0.2,0.1c-0.1,0-0.2,0-0.3-0.1c0-0.1,0-0.2,0-0.3c0,0,0-0.1,0.1-0.1
		C44.6,11.2,44.6,11.1,44.7,11z M45.4,10.5c0-0.1,0.1-0.1,0.1-0.1c0.2,0,0.3,0,0.4,0.1s0,0.2,0,0.4c0,0.1-0.1,0.1-0.1,0.3
		c-0.1,0.1-0.1,0.1-0.1,0.2c0,0-0.1,0-0.1,0c-0.1,0-0.1,0-0.1,0c-0.1-0.1-0.1-0.2-0.2-0.4c0-0.1,0-0.3,0.1-0.4
		C45.3,10.5,45.4,10.5,45.4,10.5z M73.9,27.4v-0.1V27.4L73.9,27.4z M82.4,27.4v-0.1V27.4L82.4,27.4z M81.5,27.1
		c0,0.1,0.1,0.2,0.1,0.2c0,0.1,0.1,0.1,0.1,0.2c0-0.1,0.1-0.2,0.1-0.3c0-0.1,0.1-0.2,0.1-0.3l0-0.1c0,0.1-0.1,0.2-0.2,0.2
		C81.7,27.1,81.6,27.1,81.5,27.1z M81.8,25.4l-0.1-0.2c0,0,0,0-0.1,0c0,0,0,0.1,0,0.1c0,0,0,0.1,0,0.1c0,0,0,0.1,0,0.1
		C81.6,25.5,81.7,25.5,81.8,25.4C81.7,25.5,81.7,25.4,81.8,25.4z M92.2,29.1c0-0.1,0-0.1,0-0.2c0-0.1-0.1-0.1-0.1-0.2
		c-0.1,0.1-0.1,0.1-0.2,0.2L91.8,29c0,0.1,0.1,0.1,0.1,0.2s0.1,0.1,0.1,0.2c0.1-0.1,0.1-0.1,0.2-0.2S92.2,29.2,92.2,29.1z
		 M89.9,28.3L89.9,28.3C89.9,28.3,89.8,28.3,89.9,28.3L89.9,28.3L89.9,28.3z M89.5,27C89.5,27,89.6,27,89.5,27L89.5,27
		C89.6,26.9,89.6,26.9,89.5,27L89.5,27z M89.3,26.1c0.1-0.1,0.1-0.2,0.2-0.3c0-0.1,0.1-0.1,0.2-0.3c0-0.1,0-0.2,0-0.2
		c0-0.1,0-0.1-0.1-0.1c-0.1,0-0.2,0-0.3,0.2c-0.1,0.1-0.1,0.2-0.1,0.3s0,0.2,0,0.2C89.1,26,89.2,26.1,89.3,26.1z M57.3,28.3
		C57.2,28.3,57.2,28.3,57.3,28.3l-0.1,0.1L57.3,28.3L57.3,28.3z M54.9,29.2c0,0,0.1,0,0.1,0h0c0,0,0.1,0,0.1,0h0l0,0
		c0,0.1,0,0.2,0,0.3c0,0.1,0,0.2,0,0.4c0.1-0.1,0.1-0.3,0.1-0.4c0-0.1,0-0.2-0.1-0.3c0,0,0,0,0,0h-0.1c0,0,0-0.1,0-0.1
		c0,0,0-0.1,0-0.1s-0.1,0-0.1,0s-0.1,0-0.1,0L54.9,29.2C54.9,29.2,54.9,29.2,54.9,29.2z M56.9,26.9L56.9,26.9
		C56.9,27,56.9,27,56.9,26.9L56.9,26.9C56.9,26.9,56.9,26.9,56.9,26.9z M56.4,25.8c0,0.1,0,0.2,0,0.2c0,0.1,0.1,0.1,0.2,0.1
		c0.1-0.1,0.1-0.2,0.2-0.3c0-0.1,0.1-0.1,0.1-0.3c0-0.1,0-0.2,0-0.2c0-0.1,0-0.1-0.1-0.1c-0.1,0-0.2,0-0.3,0.2
		C56.4,25.5,56.4,25.7,56.4,25.8z M59.5,29.1c0-0.1,0-0.1,0-0.2c0-0.1-0.1-0.1-0.1-0.2c-0.1,0.1-0.1,0.1-0.2,0.2L59.1,29
		c0,0.1,0.1,0.1,0.1,0.2s0.1,0.1,0.1,0.2c0.1-0.1,0.1-0.1,0.1-0.2S59.5,29.2,59.5,29.1z M67.3,28C67.3,28,67.3,28,67.3,28v-0.1
		C67.2,28,67.1,28,67.1,28c0,0,0,0.1,0,0.2c-0.1,0-0.2,0-0.3,0c0,0-0.1,0-0.2,0c0,0-0.1,0-0.1,0c-0.1,0.1-0.1,0.1-0.1,0.2
		c0,0,0,0.1,0,0.1l0,0c0,0.1,0,0.1,0,0.2c0,0.1,0,0.1,0,0.2c0-0.2,0.1-0.3,0.3-0.4c0.1-0.1,0.3-0.2,0.4-0.3S67.3,28.2,67.3,28z
		 M73,27.1c0,0.1,0.1,0.2,0.1,0.2c0,0.1,0.1,0.1,0.1,0.2c0-0.1,0.1-0.2,0.1-0.3c0-0.1,0.1-0.2,0.2-0.3l-0.1-0.1
		c0,0.1-0.1,0.2-0.1,0.2C73.2,27.1,73.2,27.1,73,27.1z M73.3,25.4l-0.1-0.2c0,0,0,0,0,0c0,0-0.1,0.1-0.1,0.1c0,0,0,0.1,0.1,0.1
		c0,0,0,0.1,0,0.1c0,0,0,0,0,0C73.2,25.5,73.3,25.4,73.3,25.4z M72.6,21.5c-0.1,0-0.1,0-0.2,0.1c0,0.1,0,0.2,0,0.3
		c0.1-0.1,0.1-0.1,0.1-0.1C72.6,21.7,72.6,21.6,72.6,21.5L72.6,21.5z M72.5,20C72.5,20,72.5,20,72.5,20l0,0.1h0V20L72.5,20
		C72.6,20,72.6,20,72.5,20z M73.3,18.5L73.3,18.5C73.3,18.5,73.3,18.5,73.3,18.5l-0.1,0.1c0,0,0,0.1,0,0.1c0,0,0,0,0,0V18.5
		C73.4,18.5,73.4,18.5,73.3,18.5z M59,14.7C59,14.7,59,14.8,59,14.7c0.1,0.1,0.1,0.2,0.1,0.3c0.1-0.1,0.1-0.1,0.1-0.2
		c0,0,0-0.1,0-0.1c0,0,0,0,0,0c0,0-0.1-0.1-0.1-0.1c0,0-0.1,0.1-0.1,0.1S59,14.7,59,14.7z M59,12.1c0,0,0-0.1-0.1-0.1
		C58.9,12.1,58.9,12.1,59,12.1c-0.1,0-0.1,0-0.1,0.1L59,12.1L59,12.1z M58.9,11.4C58.9,11.4,58.9,11.5,58.9,11.4H59c0,0,0-0.1,0-0.1
		c0,0-0.1-0.1-0.1-0.1c0,0-0.1-0.1-0.1-0.1l-0.1,0c0,0.1-0.1,0.1-0.1,0.1C58.7,11.3,58.8,11.4,58.9,11.4z M72.2,12L72.2,12L72.2,12
		v-0.1C72.2,11.9,72.2,12,72.2,12L72.2,12C72.2,12,72.2,12,72.2,12z M68.5,10C68.5,10,68.5,10,68.5,10c-0.1,0.1,0,0.1,0,0.1v0l0,0
		C68.5,10,68.5,10,68.5,10L68.5,10z M66.8,10.1c-0.1-0.1-0.3-0.1-0.4-0.3c0,0.2,0,0.3-0.1,0.4c0,0.2,0,0.3,0,0.5c0,0,0,0.1,0,0.1
		c0,0,0.1,0.1,0.1,0.1c0.1,0,0.1,0,0.2-0.1c0.1-0.1,0.2-0.2,0.3-0.3c0.1-0.1,0.1-0.2,0.1-0.3C66.9,10.2,66.9,10.1,66.8,10.1z
		 M63.5,9.1c0,0-0.1-0.1-0.1-0.1c-0.1,0-0.2,0.1-0.3,0.3C63.1,9.4,63,9.6,63,9.7v0c0,0,0,0.1,0,0.1c0.1-0.1,0.2-0.1,0.2-0.2
		c0.1-0.1,0.1-0.1,0.1-0.3c0,0,0-0.1,0-0.1C63.5,9.2,63.5,9.2,63.5,9.1L63.5,9.1z M84.4,13C84.4,13,84.5,13,84.4,13
		c0.1,0,0.2,0,0.2,0s0.1-0.1,0.1-0.1c0-0.1,0-0.2,0-0.3c0-0.1,0-0.2-0.1-0.4c-0.1,0.1-0.2,0.3-0.2,0.4S84.3,12.8,84.4,13
		C84.3,13,84.4,13,84.4,13z M86.9,12.5L86.9,12.5c0-0.1,0-0.1,0-0.1l-0.1,0.4c-0.1,0-0.2,0.1-0.3,0.1c-0.1,0-0.1,0.1-0.3,0.1V13
		c0.1,0,0.2,0,0.3,0c0.1,0,0.1-0.1,0.3-0.3L86.9,12.5z M91.8,15c0.1-0.1,0.1-0.1,0.2-0.2c0,0,0-0.1,0-0.1c0,0,0,0,0,0
		c0,0-0.1-0.1-0.1-0.1c0,0-0.1,0.1-0.1,0.1c0,0,0,0.1,0,0.1c0,0,0,0.1,0,0.1C91.7,14.8,91.8,14.9,91.8,15z M82.9,23.3l0,0.3v0
		L82.9,23.3z M82,22.1c-0.1,0.1-0.1,0.2-0.2,0.3c0,0,0,0.1,0,0.2c0,0,0,0.1,0,0.1c-0.1,0-0.1,0-0.1,0.1c0,0,0,0.1-0.1,0.1
		c0.1-0.1,0.1-0.1,0.2-0.3h0c0,0,0-0.1,0-0.1C81.9,22.4,82,22.2,82,22.1z M81,21.6L81,21.6c-0.1-0.1-0.1-0.1-0.1,0
		c0,0.1,0,0.2,0,0.3c0.1-0.1,0.1-0.1,0.1-0.1C81,21.7,81,21.6,81,21.6z M81,20C81,20,81,20,81,20c0,0-0.1,0-0.1,0v0L81,20L81,20
		L81,20z M82.6,20.1L82.6,20.1c-0.1,0-0.2,0.1-0.2,0.2c0,0.1,0,0.2,0,0.3c0,0,0,0.1-0.1,0.1c0,0.1,0,0.1,0,0.1c0,0.1,0,0.1,0,0.2
		c0,0,0.1,0.1,0.1,0.2L82.6,20.1z M74.4,23.3l0.1,0.3v0L74.4,23.3z M73.5,22.1c-0.1,0.1-0.1,0.2-0.1,0.3c0,0,0,0.1,0,0.2
		c0,0,0,0.1-0.1,0.1c-0.1,0-0.1,0-0.2,0.1c0,0,0,0.1,0,0.1c0.1-0.1,0.1-0.1,0.2-0.3h0.1c0,0,0-0.1,0-0.1
		C73.5,22.4,73.5,22.2,73.5,22.1z M74.2,20.1L74.2,20.1c-0.1,0-0.2,0.1-0.2,0.2c0,0.1,0,0.2,0,0.3c0,0,0,0.1,0,0.1
		c0,0.1,0,0.1,0,0.1c0,0.1,0,0.1,0,0.2c0,0,0,0.1,0,0.2L74.2,20.1z M74.7,15.5L74.7,15.5L74.7,15.5L74.7,15.5z M73.8,16.6l0,0.1
		c0,0,0.1-0.1,0.1-0.1c0,0,0.1-0.1,0.1-0.1c0,0,0-0.1,0-0.1c0-0.1,0-0.1-0.1-0.1c0,0,0,0.1,0,0.1C73.9,16.5,73.8,16.6,73.8,16.6z
		 M74.1,14.3L74.1,14.3L74.1,14.3L74.1,14.3c0.1,0,0.1-0.1,0.1-0.1h-0.1C74.1,14.2,74.1,14.2,74.1,14.3z M81.8,18.5
		C81.8,18.5,81.8,18.5,81.8,18.5L81.8,18.5c-0.1-0.1-0.1,0-0.2,0v0.1c0,0,0,0.1,0.1,0.1c0,0,0,0,0,0L81.8,18.5z M82.4,16.5
		C82.4,16.5,82.4,16.5,82.4,16.5c-0.1,0.1-0.1,0.1-0.2,0.2l0,0.1c0,0,0.1-0.1,0.1-0.1c0,0,0.1-0.1,0.1-0.1
		C82.5,16.6,82.5,16.5,82.4,16.5C82.4,16.5,82.4,16.5,82.4,16.5z M83.1,15.5L83.1,15.5L83.1,15.5L83.1,15.5z M82.7,14.1h-0.1
		c0,0,0,0.1,0,0.1l0,0v0h0.1C82.7,14.2,82.7,14.2,82.7,14.1z M80.4,10.8L80.4,10.8L80.4,10.8L80.4,10.8
		C80.4,10.8,80.4,10.8,80.4,10.8z M77.3,11.1L77.3,11.1L77.3,11.1L77.3,11.1L77.3,11.1z M75.3,11.7L75.3,11.7c-0.1,0-0.1,0-0.1,0
		h-0.1l0.1,0.1L75.3,11.7z M91.4,11.2l0,0.1c0,0,0,0,0.1,0c0,0,0,0,0,0.1c0,0,0-0.1,0-0.1s0-0.1,0-0.1
		C91.5,11.2,91.5,11.2,91.4,11.2z M90.3,11.5L90.3,11.5c-0.1,0-0.2,0.1-0.2,0.2c0,0.1,0,0.2,0,0.3c0,0.1,0,0.1,0,0.2
		c0,0,0,0.1,0.1,0.1c0,0,0.1,0,0.1-0.1c0-0.1,0-0.2,0-0.2c0-0.1,0-0.1,0-0.2C90.3,11.6,90.3,11.6,90.3,11.5
		C90.3,11.5,90.3,11.5,90.3,11.5z M88.9,10.8L88.9,10.8l-0.1,0.1L88.9,10.8C88.8,10.8,88.9,10.8,88.9,10.8z M87.8,11.7l0.2,0.1
		l0.1-0.2c0,0,0,0,0-0.1h-0.1c0,0-0.1,0-0.1,0.1C87.8,11.7,87.8,11.7,87.8,11.7z M86.4,12.1V12l0,0L86.4,12.1
		C86.4,12.1,86.4,12.1,86.4,12.1z M85.8,11L85.8,11L85.8,11L85.8,11L85.8,11z M83.7,11.8L83.7,11.8L83.7,11.8
		C83.7,11.7,83.6,11.7,83.7,11.8C83.6,11.7,83.6,11.7,83.7,11.8L83.7,11.8z M103.2,28.3C103.2,28.3,103.2,28.3,103.2,28.3
		c0.1-0.2,0.1-0.2,0.1-0.3l0,0v0l-0.2,0.2C103.1,28.2,103.1,28.3,103.2,28.3L103.2,28.3z M99.5,28.2c0,0-0.1,0-0.2,0
		c0,0-0.1,0-0.2,0c-0.1,0.1-0.1,0.1-0.1,0.2c0,0,0,0.1,0,0.1l0,0c0,0.1,0,0.1,0,0.2c0,0.1,0,0.1,0,0.2c0-0.2,0.1-0.3,0.3-0.4
		c0.1-0.1,0.3-0.2,0.4-0.3c0.1-0.1,0.2-0.1,0.2-0.3c0,0,0-0.1,0-0.1v0C99.8,28,99.8,28,99.8,28c0,0,0,0.1,0,0.2
		C99.7,28.2,99.6,28.2,99.5,28.2z M102.8,26.5v-0.1h0L102.8,26.5L102.8,26.5z M102.3,25.7L102.3,25.7L102.3,25.7L102.3,25.7z
		 M113.8,30.2C113.7,30.2,113.7,30.2,113.8,30.2c-0.1,0.1,0,0.2,0,0.3c0,0.1,0,0.1,0,0.1c0,0,0.1-0.1,0.1-0.1s0-0.1,0-0.1
		c0,0,0-0.1,0-0.1s0-0.2,0-0.3C113.8,30,113.8,30.1,113.8,30.2z M109.9,27.5h-0.1c-0.1,0-0.2,0-0.4,0.2c-0.1,0.1-0.2,0.2-0.3,0.3
		c0.1,0,0.3-0.1,0.3-0.1C109.6,27.9,109.8,27.8,109.9,27.5z M109.9,25.3l0-0.2c0,0-0.1,0-0.1,0.1h0L109.9,25.3L109.9,25.3
		C109.9,25.3,109.9,25.3,109.9,25.3z M112.2,27.8L112.2,27.8l-0.1,0v0.1L112.2,27.8L112.2,27.8z M111.6,27.5L111.6,27.5
		c0-0.1,0-0.2,0.1-0.2c0,0,0-0.1-0.1-0.1c0-0.1,0-0.1,0-0.2l-0.2,0.1c0,0.1,0,0.1,0,0.2C111.4,27.5,111.5,27.5,111.6,27.5z
		 M110.1,19.1L110.1,19.1L110.1,19.1L110.1,19.1l0,0.1C110,19.2,110.1,19.1,110.1,19.1L110.1,19.1z M108.4,20.2L108.4,20.2
		c-0.1,0-0.2,0-0.3,0.1c-0.1,0.1-0.1,0.1-0.2,0.2c0,0,0.1,0,0.2,0c0,0,0.1,0,0.1,0c0.1,0,0.2,0,0.2,0S108.5,20.3,108.4,20.2
		C108.5,20.2,108.5,20.2,108.4,20.2z M107,21.3c-0.1,0-0.2,0.1-0.2,0.2c0,0.1,0,0.1,0,0.3c0-0.1,0.1-0.1,0.1-0.2
		C107,21.4,107,21.3,107,21.3z M111.9,16v0.2h0.1v-0.1L111.9,16z M109.5,18.3v0.1h0L109.5,18.3L109.5,18.3L109.5,18.3
		C109.5,18.2,109.5,18.2,109.5,18.3z M111.2,13.9C111.2,13.9,111.1,13.9,111.2,13.9C111.1,13.9,111.1,13.9,111.2,13.9L111.2,13.9z
		 M110.2,12.9c0,0,0-0.1,0-0.1C110.2,12.9,110.1,12.9,110.2,12.9c-0.1,0.1-0.1,0.2-0.1,0.2v0l0.1,0.1L110.2,12.9L110.2,12.9z
		 M111.1,12.6c0,0.1-0.1,0.1-0.1,0.1c0,0,0,0.1,0,0.1s0,0.1,0,0.1c0,0,0.1,0,0.1,0l0.1-0.3l0,0C111.1,12.7,111.1,12.7,111.1,12.6z
		 M99.4,10.1C99.3,10,99.2,10,99,9.9c0,0.2,0,0.3-0.1,0.4c0,0.2,0,0.3,0,0.5c0,0,0,0.1,0,0.1c0,0,0.1,0.1,0.1,0.1
		c0.1,0,0.1,0,0.2-0.1c0.1-0.1,0.2-0.2,0.3-0.3c0.1-0.1,0.1-0.2,0.1-0.3C99.6,10.2,99.5,10.1,99.4,10.1z M101.2,9.9L101.2,9.9
		c0,0.1-0.1,0.1-0.1,0.1c0,0,0,0.1,0.1,0.1v0l0,0C101.2,10,101.2,10,101.2,9.9z M96.2,9.1L96.2,9.1C96.1,9.1,96.1,9,96,9
		c-0.1,0-0.2,0.1-0.3,0.3c-0.1,0.1-0.1,0.3-0.1,0.4v0c0,0,0,0.1,0,0.1c0.1-0.1,0.2-0.1,0.2-0.2C96,9.6,96,9.5,96,9.4
		c0,0,0-0.1,0-0.1C96.1,9.2,96.2,9.2,96.2,9.1z M109.3,11.6L109.3,11.6l0.2-0.1l-0.1,0c0,0-0.1,0-0.1,0
		C109.3,11.5,109.3,11.5,109.3,11.6C109.3,11.6,109.3,11.6,109.3,11.6z M106.4,11.5L106.4,11.5c-0.1,0-0.1,0.1-0.1,0.1L106.4,11.5
		C106.5,11.5,106.5,11.5,106.4,11.5C106.4,11.5,106.4,11.5,106.4,11.5z M107,11.5C107,11.5,107,11.5,107,11.5c-0.1,0-0.2,0-0.3,0
		c-0.1,0-0.1,0-0.3,0c0.1,0.1,0.1,0.1,0.1,0.2c0.1,0,0.1,0.1,0.2,0.1l0.1-0.1c0,0,0-0.1,0-0.1C107,11.6,107,11.6,107,11.5z
		 M105.9,11.7l0.1-0.1h-0.1C105.9,11.6,105.9,11.6,105.9,11.7L105.9,11.7z M104.7,12.1c-0.1,0-0.2,0.1-0.3,0.1
		c-0.1,0.1-0.2,0.2-0.2,0.4c0,0.1,0,0.1,0,0.1c0,0.1,0,0.1,0,0.1c0,0.1,0,0.1,0,0.2c0,0,0,0.1,0,0.1c0,0.1,0,0.2,0.1,0.2
		c0.1,0.1,0.1,0.2,0.1,0.3c0,0.2,0,0.4-0.1,0.6s-0.2,0.3-0.3,0.4c-0.1,0.1-0.2,0.2-0.2,0.3c0,0.1-0.1,0.2-0.2,0.3
		c-0.1,0.1-0.1,0.2-0.1,0.3c0,0,0,0.1,0.1,0.2c0,0.1,0,0.1,0,0.1c0.1,0,0.1-0.1,0.2-0.1s0.1,0,0.1,0c0,0,0.1,0,0.1,0.1
		c0,0,0,0,0,0.1c0,0.2-0.1,0.3-0.2,0.4c-0.1,0.1-0.3,0.1-0.4,0.1c0.1,0.1,0.1,0.3,0.2,0.4c0.1,0.1,0.1,0.3,0.1,0.4
		c0,0.1,0,0.1-0.1,0.2c0,0.1,0,0.1,0,0.2c0,0.1,0,0.1,0.1,0.2c0.1,0.1,0.1,0.2,0.1,0.3c0,0.1,0,0.2,0.1,0.3c0,0.1,0,0.2,0,0.3
		c0,0.2,0,0.4-0.1,0.5c-0.1,0.1-0.2,0.2-0.3,0.4c-0.1,0.2-0.2,0.4-0.3,0.7c0,0,0,0.1,0,0.1c0,0,0,0.1,0.1,0.1c0.1,0,0.1,0,0.2-0.1
		c0-0.1,0.1-0.2,0.1-0.3v-0.1c0-0.1,0-0.2,0-0.2c0,0,0.1,0,0.2,0c0.2,0,0.4,0.1,0.6,0.1c0.2,0.1,0.3,0.1,0.5,0.1
		c0.3,0,0.6-0.1,0.8-0.3c0.2-0.1,0.4-0.2,0.6-0.3c0.1,0,0.2,0,0.3,0.1c0.1,0.1,0.2,0.1,0.3,0.1c0.1,0,0.1-0.1,0.2-0.1
		c0.1-0.1,0.1-0.2,0.1-0.3c0,0,0-0.1,0-0.1s0-0.1,0-0.1c0,0,0-0.1,0.1-0.2s0.1-0.2,0.1-0.2c0.1,0,0.1,0,0.2,0.1
		c0.1,0,0.1,0.1,0.2,0.1c0.1-0.2,0.2-0.3,0.3-0.4c0.2-0.1,0.3-0.1,0.4-0.3c0.2-0.3,0.4-0.5,0.7-0.6c0.2-0.2,0.5-0.4,0.7-0.6
		c0.2-0.2,0.3-0.4,0.5-0.6c0.1-0.3,0.1-0.5,0.1-0.7c0-0.1-0.1-0.3-0.3-0.6c-0.2-0.3-0.4-0.6-0.7-0.9c-0.3-0.3-0.5-0.5-0.7-0.6
		c-0.1,0-0.1-0.1-0.2-0.2c-0.1-0.1-0.1-0.2-0.2-0.3c0-0.1-0.1-0.2-0.1-0.4c-0.1-0.2-0.1-0.3-0.2-0.3c-0.1,0-0.2,0.1-0.4,0.2
		c-0.1,0.1-0.3,0.1-0.5,0.1h-0.1c-0.2-0.1-0.4-0.2-0.6-0.2c-0.2,0-0.4-0.1-0.6-0.2c-0.1-0.1-0.3-0.2-0.4-0.2c-0.2,0-0.3-0.1-0.5-0.1
		C104.9,12.1,104.8,12.1,104.7,12.1z M103.8,7c0,0,0.1,0,0.2,0c0,0.1,0,0.1,0,0.2c0,0.3,0,0.5,0,0.8c0,0.3,0,0.5-0.1,0.8
		c-0.1,0.3-0.2,0.5-0.3,0.9c-0.1,0.3-0.3,0.6-0.4,0.8c-0.2,0.2-0.3,0.4-0.4,0.4c-0.1,0-0.2,0-0.3,0c-0.1-0.1-0.1-0.1-0.1-0.2
		c0-0.2,0-0.3,0.1-0.4s0.2-0.2,0.2-0.3c0-0.1,0-0.2-0.1-0.3c0-0.1,0-0.1,0-0.2c-0.2,0.2-0.4,0.4-0.6,0.6c-0.2,0.1-0.3,0.3-0.3,0.4
		c0,0.1,0,0.1,0,0.1c0,0,0,0.1,0,0.2c0,0,0,0.1,0,0.1l-0.1,0.1c-0.3,0-0.5,0-0.8,0c-0.3,0-0.5,0-0.8-0.1c0,0.1-0.1,0.3-0.2,0.4
		c-0.1,0.1-0.3,0.2-0.4,0.3c-0.2,0.1-0.3,0.1-0.4,0.1c-0.1,0-0.1,0-0.2,0c-0.1,0-0.1,0-0.2,0c-0.1,0-0.1,0-0.3,0c-0.1,0-0.2,0-0.3,0
		c0,0-0.1,0-0.1,0c-0.1,0-0.1,0-0.1,0c-0.1,0-0.1,0-0.2,0.1c-0.1,0.1-0.1,0.2-0.3,0.3C97.3,12,97.3,12,97.2,12
		c-0.5,0-0.9,0.1-1.4,0.3c-0.4,0.2-0.9,0.3-1.3,0.3c-0.1,0-0.2,0-0.3,0c-0.3,0-0.4,0.1-0.5,0.3c-0.1,0.2-0.1,0.4-0.1,0.5
		c0,0.2,0,0.4-0.1,0.6s-0.2,0.3-0.5,0.3c-0.1,0-0.1,0-0.2,0c0-0.1,0-0.1,0-0.1c0-0.1,0-0.1,0-0.2c0-0.1,0-0.1,0-0.2
		c0-0.1,0-0.1,0-0.2c0,0-0.1-0.1-0.1-0.1c-0.1,0.1-0.2,0.2-0.2,0.4c0,0.1-0.1,0.3-0.1,0.4c0,0.2,0,0.3,0.1,0.4
		c0.1,0.1,0.1,0.3,0.2,0.4c0,0.1,0,0.2,0,0.3c0,0-0.1,0.1-0.1,0.2c-0.3,0.2-0.4,0.4-0.5,0.6c-0.1,0.2-0.1,0.5-0.1,0.8
		c0,0,0,0.1,0,0.2c0,0,0,0.1,0,0.1c0,0.1,0,0.3-0.2,0.4c-0.1,0.1-0.1,0.1-0.3,0.1c-0.1,0-0.2-0.1-0.3-0.3c-0.1-0.1-0.2-0.2-0.3-0.2
		L91,17.3c0,0.2,0,0.4,0.1,0.5c0.1,0.1,0.1,0.3,0.1,0.4s0,0.2-0.1,0.3c-0.1,0.1-0.2,0.2-0.2,0.4s0,0.3,0.1,0.4s0,0.2,0,0.4
		c0,0.1-0.1,0.2-0.2,0.2c-0.1,0.1-0.2,0.1-0.2,0.3c0,0.1,0,0.3,0,0.4c0,0.2,0.1,0.3,0.1,0.5c0.2-0.1,0.3-0.2,0.4-0.3
		c0.1-0.2,0.1-0.3,0.2-0.5c0.1-0.2,0.3-0.3,0.4-0.3c0.1,0,0.2,0,0.3,0.1c0.1,0.1,0.2,0.1,0.3,0.1c0,0,0.1-0.1,0.2-0.3
		c0.1-0.1,0.1-0.3,0.2-0.4s0.2-0.2,0.3-0.2c0.1,0,0.2,0.1,0.3,0.2c0.1,0.1,0.3,0.1,0.3,0.1c0,0,0.1,0,0.2,0c0,0,0.1,0,0.1,0l0.1,0.1
		c0,0,0.1-0.1,0.1-0.2c0-0.1,0.1-0.2,0.2-0.3c0-0.1,0.1-0.2,0.2-0.2s0.2,0,0.3,0.1c0.1,0.1,0.2,0.1,0.3,0.1s0.2,0,0.4-0.1
		c0.1-0.1,0.2-0.2,0.3-0.2c0.1,0,0.1,0.1,0.2,0.1c0.1,0,0.1,0,0.2,0c0.1,0,0.1,0,0.2-0.1c0.1-0.1,0.2-0.2,0.2-0.2
		c0.1,0,0.2,0.1,0.3,0.2c0.1,0.1,0.2,0.2,0.3,0.2c0.1,0,0.1-0.1,0.2-0.1c0.1-0.1,0.2-0.3,0.3-0.4c0.1-0.1,0.2-0.1,0.2-0.1
		c0.1,0,0.2,0.1,0.3,0.3c0.1,0.2,0.1,0.3,0.2,0.3s0.1-0.1,0.2-0.2c0-0.1,0.1-0.3,0.2-0.3c0.1-0.1,0.1-0.2,0.2-0.2
		c0,0,0.1,0.1,0.1,0.1c0,0,0.1,0.1,0.1,0.1c0,0,0,0.1,0,0.3c0,0.1-0.1,0.2-0.1,0.3h0.1c0.1,0,0.2-0.1,0.3-0.2
		c0.1-0.1,0.1-0.2,0.3-0.4c0.1-0.1,0.2-0.2,0.3-0.2c0.2,0,0.3,0.1,0.5,0.2c0.1,0.1,0.1,0.2,0.1,0.4c0,0,0,0.1,0,0.1
		c0,0.1-0.1,0.1-0.1,0.2l0.1,0v0.1c0,0.2,0,0.3-0.1,0.4c-0.1,0.1-0.1,0.2-0.3,0.3c-0.2,0.1-0.5,0.3-0.7,0.6
		c-0.3,0.2-0.5,0.5-0.7,0.7c-0.2,0.2-0.4,0.3-0.6,0.3c-0.1,0-0.1,0-0.2,0c-0.1,0-0.1,0-0.2,0s-0.1,0-0.2,0c0,0-0.1,0-0.1,0
		c-0.5,0.2-1.1,0.4-1.7,0.5s-1.1,0.1-1.6,0.1c-0.1,0-0.3,0.1-0.5,0.2s-0.3,0.1-0.4,0.1c-0.1,0-0.1,0-0.2,0s-0.1,0-0.2,0
		c-0.3,0-0.5,0.1-0.8,0.3c-0.3,0.2-0.6,0.3-0.8,0.3c-0.1,0-0.1,0.1-0.2,0.3C90.7,23,90.6,23,90.5,23c-0.1,0-0.1,0-0.2,0
		c-0.1,0-0.2,0-0.3,0s-0.1,0-0.2,0c0,0.1,0,0.1,0,0.2c0,0.1,0,0.3,0.1,0.3c0.1,0.1,0.1,0.2,0.1,0.4c0,0.1,0,0.3,0,0.3
		c-0.1,0.1-0.1,0.3-0.2,0.4c0,0.1,0,0.3,0,0.4c0,0.2,0,0.3,0,0.5c0.1-0.1,0.1-0.3,0.2-0.3c0.1-0.1,0.1-0.3,0.2-0.4
		c0.1-0.2,0.1-0.5,0.2-0.8c0.1-0.2,0.2-0.4,0.4-0.4c0,0,0.1,0,0.2,0c0,0,0.1,0,0.1,0.1c0,0,0,0.1-0.1,0.1v0
		c-0.1,0.3-0.2,0.5-0.3,0.8c-0.1,0.2-0.2,0.4-0.2,0.6c0,0.3,0.2,0.7,0.4,1c0.2,0.3,0.4,0.6,0.6,0.9c0.1,0.2,0.2,0.4,0.3,0.6
		C92,28,92,28.2,92,28.2c0,0,0.1-0.1,0.3-0.2s0.3-0.1,0.5-0.1c0.2,0,0.4,0.1,0.5,0.3c0.1,0.1,0.2,0.2,0.3,0.3c0.1,0,0.2-0.1,0.4-0.2
		c0.2-0.1,0.3-0.1,0.5-0.1c0,0,0.1,0,0.1,0s0.1,0,0.2,0c0.2,0,0.3-0.1,0.5-0.2c0.2-0.1,0.3-0.2,0.5-0.2c0.1,0,0.2,0.1,0.2,0.2
		c0,0.2,0.1,0.3,0.1,0.5c0,0.2,0,0.4,0,0.5c0.1-0.1,0.3-0.3,0.4-0.5c0.1-0.2,0.3-0.5,0.3-0.7c0.1-0.2,0.3-0.3,0.5-0.4
		c0,0,0,0.1,0,0.1c0,0,0,0.1,0,0.1c0,0,0,0.1,0,0.1c0,0,0,0.1,0,0.2c0,0.1,0,0.1,0,0.2c0,0,0.1,0,0.1,0c0.3,0,0.5-0.2,0.6-0.5
		c-0.1,0-0.2,0.1-0.2,0.1c-0.1,0-0.1,0-0.2,0c0.1-0.3,0.2-0.5,0.3-0.6c0.2-0.1,0.4-0.2,0.5-0.2c0.1,0,0.1,0,0.2,0s0.1,0,0.2,0
		c0.1,0,0.3-0.1,0.5-0.2c0.2-0.1,0.3-0.2,0.5-0.3c0.2-0.1,0.4-0.2,0.6-0.2c0.2,0,0.4,0.1,0.5,0.2c0.1,0.1,0.2,0.3,0.2,0.5
		c0,0.2,0,0.4-0.1,0.6c-0.1,0.2-0.2,0.3-0.4,0.3c-0.1,0-0.1,0-0.2-0.1c-0.1,0-0.1,0-0.2,0v0c0,0-0.1,0.1-0.1,0.1
		c0,0.1,0,0.2,0.1,0.3c0,0.1,0,0.2,0,0.2c0,0.1,0,0.2-0.1,0.3S100.2,29,100,29c-0.2,0.2-0.4,0.4-0.5,0.7c-0.1,0.2-0.2,0.4-0.3,0.5
		c-0.1,0.2-0.3,0.3-0.6,0.3c-0.1,0-0.3,0-0.4,0c-0.2,0-0.3,0-0.5,0c-0.1,0.2-0.2,0.4-0.3,0.5c-0.1,0.1-0.3,0.2-0.5,0.2
		c-0.1,0-0.2-0.1-0.3-0.2c0-0.1-0.1-0.2-0.1-0.4c0-0.1-0.1-0.1-0.1-0.1c-0.1,0-0.2,0-0.3,0.1s-0.2,0.1-0.3,0.1
		c-0.1,0-0.2-0.1-0.3-0.2c-0.1-0.1-0.1-0.2-0.3-0.3c-0.1-0.1-0.2-0.2-0.3-0.2c-0.1,0-0.2,0.2-0.2,0.4c0,0.2-0.1,0.4-0.2,0.6
		c-0.1,0.2-0.3,0.4-0.7,0.4c-0.3,0-0.4-0.2-0.5-0.4c-0.1-0.2-0.2-0.5-0.3-0.7c-0.1-0.2-0.2-0.3-0.3-0.4c-0.2,0-0.4,0.1-0.5,0.2
		c-0.1,0.2-0.2,0.4-0.2,0.6c-0.1,0.2-0.2,0.4-0.3,0.7c0-0.1-0.1-0.1-0.1-0.1c-0.1,0-0.1-0.1-0.1-0.2c0,0,0-0.1,0-0.1l0.1-0.1
		c0-0.1-0.1-0.1-0.1-0.1c0-0.1,0-0.1,0-0.2c-0.2,0.3-0.3,0.5-0.3,0.5c-0.1,0-0.2,0.1-0.4,0.1c0,0,0-0.1,0-0.1c0-0.1,0-0.1,0-0.1
		c0-0.1,0-0.2,0-0.4c0-0.1,0-0.2,0-0.3c-0.1,0.1-0.1,0.2-0.2,0.3c0,0.1-0.1,0.2-0.2,0.4c-0.1,0.1-0.2,0.1-0.3,0.1
		c-0.1,0-0.1,0-0.2,0c0-0.1,0-0.1,0-0.3c0-0.1,0-0.3,0.1-0.4c0.1-0.1,0.1-0.3,0.1-0.5c0,0,0-0.1,0-0.1c0,0-0.1,0-0.1,0
		s-0.1,0-0.2,0.1c-0.1,0-0.1,0-0.2,0c-0.1,0-0.2-0.1-0.2-0.3c0-0.1-0.1-0.1-0.1-0.2c0,0.1,0,0.3-0.1,0.4c0,0.1-0.1,0.2-0.3,0.2
		c-0.2,0-0.4-0.1-0.5-0.4c0-0.3-0.1-0.6-0.2-0.8c-0.1-0.2-0.3-0.5-0.3-0.9c-0.1-0.3-0.1-0.8-0.2-1.4c0-0.4,0.1-0.8,0.1-1.2
		c0.1-0.4,0.1-0.8,0.1-1.1c0-0.1,0-0.2,0-0.4c0-0.1-0.1-0.1-0.1-0.3c0-0.2,0.1-0.5,0.1-0.8c0-0.3,0.1-0.6,0.2-0.9
		c0.1-0.4,0.2-0.9,0.4-1.5c0.2-0.6,0.3-1.3,0.5-1.9c0.2-0.7,0.3-1.3,0.3-2c0-0.3,0.1-0.6,0.2-0.9c0.1-0.3,0.2-0.6,0.3-0.9
		c0-0.2,0.1-0.4,0.2-0.5s0.2-0.3,0.3-0.3c0.1-0.1,0.3-0.3,0.3-0.6c-0.1,0-0.1,0-0.2,0c-0.1,0-0.2,0-0.2,0.1c-0.1,0-0.1,0-0.2,0h-0.1
		c0,0,0-0.1,0-0.1c0-0.1,0-0.2,0.1-0.4c0-0.1,0-0.3,0.1-0.4c0,0-0.1,0-0.1,0c-0.1,0-0.2,0-0.3,0.1c-0.2,0.1-0.3,0.1-0.4,0.1
		c-0.1,0-0.2,0-0.3-0.1c-0.1-0.1-0.1-0.2-0.1-0.4c0-0.2,0-0.5,0.2-0.7c0.1-0.2,0.2-0.5,0.2-0.7c0-0.1,0-0.2,0-0.3
		c-0.1,0.3-0.3,0.7-0.5,1.1c-0.1,0.5-0.3,0.9-0.4,1.3c-0.1,0.3-0.3,0.5-0.4,0.6c-0.1,0-0.1,0-0.2-0.1c0-0.1,0-0.1,0-0.3
		c0-0.1,0-0.2,0-0.3c0-0.1,0-0.2,0-0.3c0-0.1,0-0.3,0-0.3c0-0.1-0.1-0.2-0.3-0.2h0c0,0-0.1,0.1-0.1,0.2c0,0.1,0,0.2,0,0.3
		c0,0.1,0,0.2,0.1,0.3l0,0.1l-0.1-0.1c-0.2,0.1-0.3,0.3-0.4,0.4C87.2,13.9,87,14,86.9,14c-0.1,0-0.2-0.1-0.3-0.3
		c-0.1-0.2-0.3-0.3-0.5-0.3c-0.1,0-0.2,0-0.3,0s-0.1,0-0.2,0c-0.1,0-0.2,0-0.3,0c-0.1-0.1-0.2-0.1-0.3-0.1c-0.1,0-0.2,0.1-0.3,0.4
		c-0.1,0.2-0.2,0.3-0.4,0.4c-0.2,0.1-0.3,0.2-0.4,0.4c-0.1,0.2-0.2,0.5-0.3,0.6c0,0.2-0.1,0.4-0.1,0.5c0,0.1,0.1,0.1,0.2,0.3
		c0.1,0.1,0.1,0.1,0.2,0.3c0,0.1-0.1,0.3-0.2,0.4c-0.1,0.1-0.2,0.3-0.2,0.5c0,0.1,0,0.2,0.1,0.3s0,0.2,0,0.3c0,0.2,0,0.5-0.1,0.8
		c-0.1,0.2-0.1,0.5-0.1,0.7c0,0.1,0,0.2,0.1,0.3c0,0.1,0,0.1,0,0.2c0,0.1-0.1,0.2-0.1,0.3c-0.1,0.1-0.1,0.2-0.1,0.3
		c0,0.1,0,0.2,0.1,0.3c0,0.1,0,0.3,0,0.5c0,0.2,0,0.4,0,0.7s-0.2,0.4-0.3,0.5c0.1,0.3,0.1,0.5,0.2,0.8c0.1,0.3,0.1,0.5,0.1,0.8
		c0,0.2,0,0.4-0.1,0.6c-0.1,0.2-0.1,0.5-0.1,0.7c0,0.3,0,0.5,0,0.8c0,0.6,0,1.2-0.2,1.9c-0.1,0.7-0.3,1.3-0.5,1.8
		C82.4,29.7,82,30,81.5,30c-0.1,0-0.1,0-0.2-0.1s0-0.1,0-0.2s0,0,0,0v0c0-0.1,0-0.2-0.2-0.2c-0.1,0-0.1,0-0.3,0
		c-0.1,0-0.1-0.1-0.1-0.2c0-0.1,0.1-0.2,0.1-0.3c0-0.1,0.1-0.2,0.1-0.3c0-0.1-0.1-0.2-0.2-0.3c-0.1-0.1-0.2-0.2-0.2-0.5
		c0-0.2,0.1-0.3,0.2-0.4c0.1,0,0.3-0.1,0.3-0.1c-0.1-0.1-0.2-0.2-0.4-0.4c-0.2-0.1-0.3-0.3-0.3-0.5c0-0.1,0.1-0.2,0.2-0.3
		c0.1,0,0.2-0.1,0.2-0.2c0-0.1-0.1-0.2-0.1-0.3c-0.1-0.1-0.1-0.2-0.2-0.3c0-0.1,0.1-0.2,0.2-0.3c0.1-0.1,0.2-0.3,0.3-0.3
		c-0.1-0.1-0.2-0.1-0.3-0.2c-0.1,0-0.1-0.1-0.1-0.2c0-0.1,0.1-0.2,0.2-0.4c0.1-0.2,0.2-0.3,0.2-0.4c0,0,0-0.1,0-0.1l-0.1,0
		c-0.2-0.3-0.4-0.6-0.4-1.1c0-0.4,0-0.8,0-1.2c0-0.1,0-0.2,0.1-0.3c0.1-0.1,0.2-0.2,0.2-0.3s0-0.1-0.1-0.3c0-0.1,0-0.1,0-0.2
		c0-0.3,0-0.6,0.1-0.9c0.1-0.3,0.2-0.5,0.3-0.8l0.1-0.3c0-0.1,0-0.1-0.1-0.3c0-0.1-0.1-0.3-0.1-0.4c0-0.2,0-0.3,0.1-0.5s0-0.3,0-0.4
		v-0.1c0-0.3,0.1-0.6,0.3-0.9c0.1-0.4,0.3-0.8,0.4-1.3c-0.1,0-0.2-0.1-0.3-0.3c0-0.1-0.1-0.3-0.1-0.4c-0.1,0.2-0.3,0.3-0.4,0.3
		c-0.2,0-0.3,0-0.5,0c-0.3,0-0.5-0.1-0.8-0.1C79.3,14.1,79,14,78.8,14c-0.2,0-0.4,0.1-0.5,0.3s-0.3,0.2-0.6,0.3
		c-0.2,0-0.3-0.1-0.5-0.1c-0.2-0.1-0.4-0.1-0.6-0.1c-0.1,0-0.1,0-0.3,0.1c-0.1,0-0.1,0-0.3,0c-0.1,0-0.2,0-0.3-0.1
		c-0.1,0.1-0.1,0.2-0.2,0.3c-0.1,0.2-0.2,0.5-0.3,0.6c0,0.2,0,0.4,0,0.5c0,0.1,0,0.1,0.2,0.3c0.1,0.1,0.1,0.1,0.1,0.3
		c0,0.1-0.1,0.3-0.1,0.4c-0.1,0.1-0.2,0.3-0.2,0.5c0,0.1,0,0.2,0,0.3s0,0.2,0,0.3c0,0.2,0,0.5-0.1,0.8c-0.1,0.2-0.1,0.5-0.1,0.7
		c0,0.1,0,0.2,0,0.3c0,0.1,0,0.1,0.1,0.2c0,0.1-0.1,0.2-0.2,0.3c-0.1,0.1-0.2,0.2-0.2,0.3c0,0.1,0,0.2,0.1,0.3c0,0.1,0,0.3,0,0.5
		c0,0.2,0,0.4,0,0.7c-0.1,0.2-0.2,0.4-0.3,0.5c0.1,0.3,0.1,0.5,0.2,0.8C75,23,75,23.2,75,23.5c0,0.2,0,0.4-0.1,0.6
		c-0.1,0.2-0.1,0.5-0.1,0.7c0,0.3,0.1,0.5,0.1,0.8c0,0.6-0.1,1.2-0.2,1.9c-0.1,0.7-0.3,1.3-0.6,1.8C73.9,29.7,73.5,30,73,30
		c-0.1,0-0.1,0-0.1-0.1s-0.1-0.1-0.1-0.2s0,0,0.1,0v0c0-0.1-0.1-0.2-0.2-0.2c-0.1,0-0.2,0-0.3,0c-0.1,0-0.1-0.1-0.2-0.2
		c0-0.1,0.1-0.2,0.1-0.3c0-0.1,0.1-0.2,0.1-0.3c0-0.1-0.1-0.2-0.2-0.3c-0.1-0.1-0.2-0.2-0.2-0.5c0-0.2,0-0.3,0.1-0.4
		c0.1,0,0.3-0.1,0.4-0.1c-0.1-0.1-0.2-0.2-0.4-0.4c-0.2-0.1-0.3-0.3-0.3-0.5c0-0.1,0.1-0.2,0.2-0.3c0.1,0,0.2-0.1,0.2-0.2
		c0-0.1-0.1-0.2-0.2-0.3c-0.1-0.1-0.1-0.2-0.2-0.3c0-0.1,0.1-0.2,0.2-0.3c0.1-0.1,0.2-0.3,0.3-0.3c-0.1-0.1-0.2-0.1-0.3-0.2
		c-0.1,0-0.1-0.1-0.1-0.2c0-0.1,0.1-0.2,0.2-0.4c0.1-0.2,0.2-0.3,0.2-0.4c0,0,0-0.1,0-0.1l0,0C72.2,23.4,72,23,72,22.6
		c0-0.4-0.1-0.8-0.1-1.2c0-0.1,0-0.2,0.1-0.3c0.1-0.1,0.1-0.2,0.1-0.3s0-0.1,0-0.3c0-0.1-0.1-0.1-0.1-0.2c0-0.3,0.1-0.6,0.2-0.9
		c0.1-0.3,0.2-0.5,0.3-0.8l0.1-0.3c0-0.1,0-0.1-0.1-0.3c0-0.1-0.1-0.3-0.1-0.4c0-0.2,0-0.3,0-0.5c0-0.1,0.1-0.3,0.1-0.4v-0.1
		c0-0.3,0.1-0.6,0.3-0.9c0.1-0.4,0.3-0.8,0.3-1.3c-0.1,0-0.2-0.1-0.3-0.3c0-0.1-0.1-0.3-0.1-0.4c-0.1,0.2-0.3,0.3-0.4,0.3
		c-0.2,0-0.3,0-0.5,0c-0.3,0-0.5-0.1-0.8-0.1c-0.2-0.1-0.5-0.1-0.8-0.1c-0.2,0-0.4,0.1-0.5,0.3s-0.3,0.2-0.5,0.3
		c-0.2,0-0.4-0.1-0.6-0.1c-0.2-0.1-0.4-0.1-0.6-0.1c-0.1,0-0.2,0-0.3,0.1c-0.1,0-0.2,0-0.3,0c-0.1,0-0.2-0.1-0.4-0.2
		c-0.2-0.1-0.3-0.2-0.5-0.4c-0.1-0.1-0.2-0.2-0.3-0.2c0-0.1-0.1-0.2-0.1-0.3c0-0.2,0-0.3,0-0.4c0-0.1,0-0.2,0.1-0.3
		c0.1-0.1,0.2-0.1,0.4-0.1c0.1,0,0.2,0,0.3,0c0.1,0,0.1,0,0.2,0c0.1,0,0.1,0,0.2,0l0.2-0.3c0,0,0.1,0.1,0.1,0.1c0,0,0,0.1,0,0.1
		c0.2-0.3,0.3-0.6,0.5-0.9c0.1-0.2,0.3-0.4,0.5-0.4h0.1c0.1,0,0.2-0.1,0.3-0.2c0.1-0.1,0.2-0.2,0.3-0.3c0.1,0,0.2,0.1,0.3,0.1
		c0.1,0.1,0.2,0.1,0.2,0.1c0.1,0,0.1-0.1,0.1-0.2c-0.1,0-0.2,0-0.2,0c-0.1-0.1-0.1-0.1-0.1-0.2c0-0.2,0-0.3,0.1-0.4s0.2-0.2,0.2-0.3
		c0-0.1,0-0.2,0-0.3c0-0.1,0-0.1,0-0.2c-0.2,0.2-0.4,0.4-0.6,0.6c-0.2,0.1-0.3,0.3-0.3,0.4c0,0.1,0,0.1,0,0.1c0,0,0,0.1,0,0.2
		c0,0,0,0.1,0,0.1L69,10.9c-0.3,0-0.5,0-0.8,0c-0.3,0-0.5,0-0.8-0.1c0,0.1-0.1,0.3-0.2,0.4c-0.1,0.1-0.3,0.2-0.4,0.3
		c-0.2,0.1-0.3,0.1-0.4,0.1c-0.1,0-0.1,0-0.2,0c-0.1,0-0.1,0-0.2,0c-0.1,0-0.1,0-0.3,0s-0.2,0-0.3,0c0,0-0.1,0-0.1,0
		c-0.1,0-0.1,0-0.1,0c-0.1,0-0.1,0-0.2,0.1c-0.1,0.1-0.1,0.2-0.3,0.3S64.6,12,64.5,12c-0.5,0-0.9,0.1-1.4,0.3
		c-0.4,0.2-0.9,0.3-1.3,0.3c-0.1,0-0.2,0-0.3,0c-0.3,0-0.4,0.1-0.5,0.3C61,13,61,13.2,61,13.4c0,0.2,0,0.4-0.1,0.6
		c-0.1,0.2-0.2,0.3-0.5,0.3c-0.1,0-0.1,0-0.1,0c0-0.1,0-0.1,0-0.1c0-0.1,0-0.1,0-0.2c0-0.1,0-0.1,0-0.2c0-0.1,0-0.1,0-0.2
		c0,0-0.1-0.1-0.1-0.1c-0.1,0.1-0.2,0.2-0.2,0.4c0,0.1-0.1,0.3-0.1,0.4c0,0.2,0,0.3,0.1,0.4c0.1,0.1,0.1,0.3,0.1,0.4
		c0,0.1,0,0.2,0,0.3c0,0-0.1,0.1-0.1,0.2c-0.3,0.2-0.4,0.4-0.5,0.6c-0.1,0.2-0.1,0.5-0.1,0.8c0,0,0,0.1,0,0.2c0,0,0,0.1,0,0.1
		c0,0.1,0,0.3-0.1,0.4c-0.1,0.1-0.1,0.1-0.3,0.1c-0.1,0-0.2-0.1-0.3-0.3c-0.1-0.1-0.2-0.2-0.3-0.2l-0.1,0.1c0,0.2,0,0.4,0.1,0.5
		c0.1,0.1,0.1,0.3,0.1,0.4s0,0.2-0.1,0.3c-0.1,0.1-0.2,0.2-0.2,0.4s0,0.3,0.1,0.4s0,0.2,0,0.4c0,0.1-0.1,0.2-0.2,0.2
		c-0.1,0.1-0.2,0.1-0.2,0.3c0,0.1,0,0.3,0,0.4c0,0.2,0.1,0.3,0.1,0.5c0.2-0.1,0.3-0.2,0.4-0.3c0.1-0.2,0.1-0.3,0.2-0.5
		c0.1-0.2,0.3-0.3,0.4-0.3c0.1,0,0.1,0,0.3,0.1c0.1,0.1,0.2,0.1,0.3,0.1c0,0,0.1-0.1,0.1-0.3c0.1-0.1,0.1-0.3,0.2-0.4
		c0.1-0.1,0.2-0.2,0.3-0.2c0.1,0,0.2,0.1,0.3,0.2c0.1,0.1,0.3,0.1,0.4,0.1c0,0,0.1,0,0.1,0c0,0,0.1,0,0.1,0l0.1,0.1
		c0,0,0.1-0.1,0.1-0.2c0-0.1,0.1-0.2,0.1-0.3c0-0.1,0.1-0.2,0.2-0.2c0.1,0,0.1,0,0.3,0.1C61.9,19,62,19,62.1,19s0.2,0,0.4-0.1
		c0.1-0.1,0.2-0.2,0.3-0.2c0.1,0,0.1,0.1,0.1,0.1c0.1,0,0.1,0,0.2,0s0.1,0,0.2-0.1c0.1-0.1,0.2-0.2,0.2-0.2c0.1,0,0.2,0.1,0.3,0.2
		c0.1,0.1,0.2,0.2,0.3,0.2c0.1,0,0.1-0.1,0.2-0.1c0.1-0.1,0.2-0.3,0.3-0.4s0.2-0.1,0.2-0.1c0.1,0,0.2,0.1,0.3,0.3
		c0.1,0.2,0.1,0.3,0.1,0.3c0,0,0.1-0.1,0.2-0.2c0-0.1,0.1-0.3,0.1-0.3c0.1-0.1,0.1-0.2,0.2-0.2c0,0,0.1,0.1,0.1,0.1s0.1,0.1,0.1,0.1
		c0,0,0,0.1,0,0.3c0,0.1-0.1,0.2-0.1,0.3h0.1c0.1,0,0.2-0.1,0.3-0.2c0.1-0.1,0.1-0.2,0.3-0.4c0.1-0.1,0.2-0.2,0.3-0.2
		c0.2,0,0.4,0.1,0.5,0.2c0.1,0.1,0.1,0.2,0.1,0.4c0,0,0,0.1,0,0.1c0,0.1-0.1,0.1-0.1,0.2l0.1,0v0.1c0,0.2,0,0.3-0.1,0.4
		c-0.1,0.1-0.1,0.2-0.3,0.3c-0.2,0.1-0.5,0.3-0.7,0.6c-0.3,0.2-0.5,0.5-0.7,0.7c-0.2,0.2-0.4,0.3-0.6,0.3c-0.1,0-0.1,0-0.2,0
		c-0.1,0-0.1,0-0.1,0c0,0-0.1,0-0.2,0c0,0-0.1,0-0.1,0c-0.5,0.2-1.1,0.4-1.7,0.5c-0.6,0.1-1.1,0.1-1.6,0.1c-0.1,0-0.3,0.1-0.5,0.2
		s-0.3,0.1-0.4,0.1c-0.1,0-0.1,0-0.2,0c-0.1,0-0.1,0-0.2,0c-0.3,0-0.5,0.1-0.8,0.3c-0.3,0.2-0.6,0.3-0.9,0.3c-0.1,0-0.1,0.1-0.1,0.3
		C58,23,58,23,57.9,23s-0.1,0-0.2,0c-0.1,0-0.2,0-0.3,0c-0.1,0-0.1,0-0.1,0c0,0.1,0,0.1,0,0.2c0,0.1,0,0.3,0.1,0.3
		c0.1,0.1,0.1,0.2,0.1,0.4c0,0.1,0,0.3,0,0.3c-0.1,0.1-0.1,0.3-0.1,0.4c0,0.1,0,0.3,0,0.4c0,0.2,0,0.3,0,0.5
		c0.1-0.1,0.1-0.3,0.2-0.3c0.1-0.1,0.1-0.3,0.1-0.4c0.1-0.2,0.1-0.5,0.2-0.8c0.1-0.2,0.2-0.4,0.4-0.4c0,0,0.1,0,0.1,0
		c0,0,0.1,0,0.1,0.1c0,0,0,0.1-0.1,0.1v0c-0.1,0.3-0.2,0.5-0.3,0.8c-0.1,0.2-0.2,0.4-0.2,0.6c0,0.3,0.1,0.7,0.4,1
		c0.2,0.3,0.4,0.6,0.6,0.9c0.1,0.2,0.2,0.4,0.3,0.6c0.1,0.2,0.1,0.3,0.1,0.3c0,0,0.1-0.1,0.3-0.2s0.3-0.1,0.5-0.1
		c0.2,0,0.4,0.1,0.5,0.3c0.1,0.1,0.2,0.2,0.3,0.3c0.1,0,0.2-0.1,0.4-0.2c0.2-0.1,0.3-0.1,0.5-0.1c0,0,0.1,0,0.1,0c0,0,0.1,0,0.1,0
		c0.2,0,0.4-0.1,0.5-0.2c0.2-0.1,0.3-0.2,0.5-0.2c0.1,0,0.2,0.1,0.2,0.2c0,0.2,0.1,0.3,0.1,0.5c0,0.2,0,0.4,0,0.5
		c0.1-0.1,0.3-0.3,0.4-0.5c0.1-0.2,0.3-0.5,0.4-0.7c0.1-0.2,0.3-0.3,0.5-0.4c0,0,0,0.1,0,0.1c0,0,0,0.1,0,0.1c0,0,0,0.1,0,0.1
		c0,0,0,0.1,0,0.2c0,0.1,0,0.1,0,0.2c0,0,0.1,0,0.1,0c0.3,0,0.5-0.2,0.6-0.5c-0.1,0-0.2,0.1-0.2,0.1c-0.1,0-0.1,0-0.2,0
		c0.1-0.3,0.2-0.5,0.4-0.6c0.2-0.1,0.4-0.2,0.5-0.2c0.1,0,0.1,0,0.2,0c0.1,0,0.1,0,0.2,0c0.1,0,0.3-0.1,0.5-0.2
		c0.2-0.1,0.4-0.2,0.5-0.3c0.2-0.1,0.4-0.2,0.6-0.2c0.2,0,0.4,0.1,0.5,0.2c0.1,0.1,0.2,0.3,0.2,0.5c0,0.2,0,0.4-0.1,0.6
		c-0.1,0.2-0.2,0.3-0.4,0.3c-0.1,0-0.1,0-0.2-0.1c-0.1,0-0.1,0-0.2,0v0c0,0-0.1,0.1-0.1,0.1c0,0.1,0,0.2,0.1,0.3c0,0.1,0,0.2,0,0.2
		c0,0.1,0,0.2-0.1,0.3c-0.1,0.1-0.2,0.2-0.3,0.3c-0.2,0.2-0.4,0.4-0.5,0.7c-0.1,0.2-0.2,0.4-0.3,0.5c-0.1,0.2-0.3,0.3-0.6,0.3
		c-0.1,0-0.3,0-0.4,0c-0.2,0-0.3,0-0.5,0c-0.1,0.2-0.2,0.4-0.3,0.5c-0.1,0.1-0.3,0.2-0.5,0.2c-0.1,0-0.2-0.1-0.3-0.2
		c0-0.1-0.1-0.2-0.1-0.4c0-0.1-0.1-0.1-0.1-0.1c-0.1,0-0.2,0-0.3,0.1c-0.1,0.1-0.2,0.1-0.3,0.1c-0.1,0-0.2-0.1-0.3-0.2
		c-0.1-0.1-0.1-0.2-0.3-0.3c-0.1-0.1-0.2-0.2-0.3-0.2c-0.1,0-0.2,0.2-0.2,0.4c0,0.2-0.1,0.4-0.2,0.6c-0.1,0.2-0.3,0.4-0.7,0.4
		c-0.3,0-0.4-0.2-0.5-0.4c-0.1-0.2-0.2-0.5-0.3-0.7c-0.1-0.2-0.2-0.3-0.3-0.4c-0.2,0-0.4,0.1-0.5,0.2c-0.1,0.2-0.2,0.4-0.2,0.6
		c-0.1,0.2-0.2,0.4-0.3,0.7c0-0.1-0.1-0.1-0.1-0.1c-0.1,0-0.1-0.1-0.1-0.2c0,0,0-0.1,0-0.1l0.1-0.1c0-0.1-0.1-0.1-0.1-0.1
		c0-0.1,0-0.1,0-0.2c-0.2,0.3-0.3,0.5-0.4,0.5c-0.1,0-0.2,0.1-0.4,0.1c0,0,0-0.1,0-0.1c0-0.1,0-0.1,0-0.1c0-0.1,0-0.2,0-0.4
		c0-0.1,0-0.2,0-0.3c-0.1,0.1-0.1,0.2-0.2,0.3c0,0.1-0.1,0.2-0.1,0.4c-0.1,0.1-0.2,0.1-0.3,0.1c-0.1,0-0.1,0-0.2,0
		c0-0.1,0-0.1,0-0.3c0-0.1,0-0.3,0.1-0.4c0.1-0.1,0.1-0.3,0.1-0.5c0,0,0-0.1,0-0.1c0,0-0.1,0-0.1,0s-0.1,0-0.1,0.1
		c-0.1,0-0.1,0-0.2,0c-0.1,0-0.2-0.1-0.2-0.3c0-0.1-0.1-0.1-0.1-0.2c0,0.1,0,0.3-0.1,0.4c0,0.1-0.1,0.2-0.3,0.2
		c-0.2,0-0.4-0.1-0.5-0.4c0-0.3-0.1-0.5-0.1-0.7c0,0.1,0,0.2,0,0.4c-0.1,0.3-0.2,0.6-0.4,0.8c-0.1,0.2-0.3,0.3-0.6,0.4
		c0,0-0.1,0-0.1,0c0,0-0.1,0.1-0.1,0.1c-0.3,0.2-0.5,0.3-0.7,0.3c-0.2,0-0.4-0.1-0.6-0.4c-0.1-0.1-0.1-0.1-0.2-0.1
		c-0.1,0-0.2,0-0.3,0c-0.2,0.1-0.4,0.2-0.6,0.3c-0.2,0-0.4-0.1-0.6-0.2c-0.1-0.1-0.1-0.1-0.3-0.1c-0.1,0-0.2,0.1-0.3,0.2
		C51.3,31,51.3,31,51.2,31c-0.1,0-0.1,0-0.2,0c-0.1-0.1-0.1-0.2-0.1-0.3c0-0.1,0-0.3,0.1-0.5c0,0,0.1-0.1,0.1-0.1c0,0,0.1,0,0.1,0
		c0-0.1,0.1-0.1,0.1-0.2c0.1-0.1,0.1-0.1,0.1-0.2c0,0,0.1-0.1,0.1-0.2c0,0,0-0.1,0-0.1c-0.1,0-0.2,0-0.3,0c-0.1,0-0.2,0-0.3,0
		c-0.1,0-0.2-0.1-0.3-0.3c0-0.2,0-0.3,0.1-0.5c0-0.1,0.1-0.1,0.1-0.2c0-0.1,0.1-0.1,0.1-0.2c0,0,0.1-0.1,0.1-0.1c0,0,0-0.1,0-0.1
		c0,0-0.1,0-0.1-0.1c0,0-0.1,0-0.1,0c-0.2,0.1-0.4,0.3-0.4,0.5c-0.1,0.2-0.1,0.5-0.1,0.8c0,0.1,0.1,0.1,0.1,0.2
		c0.1,0.1,0.1,0.2,0.1,0.3c0,0.1,0,0.3-0.1,0.4c-0.1,0.1-0.2,0.1-0.3,0.1c0,0-0.1,0-0.1,0s-0.1,0-0.1,0.1c-0.3,0.1-0.4,0-0.5-0.1
		c-0.1-0.1-0.1-0.3-0.1-0.7c0-0.1,0.1-0.3,0.1-0.5c0-0.1,0.1-0.3,0.2-0.5c0.1-0.1,0.1-0.3,0.1-0.4c0-0.1,0-0.3-0.1-0.3
		c0,0,0-0.1-0.1-0.1h0c0,0-0.1,0-0.1,0c0,0,0,0,0,0c0,0.2-0.1,0.3-0.2,0.5c0,0.1-0.1,0.3-0.1,0.5c0,0.2-0.1,0.3-0.2,0.3
		c-0.1,0.1-0.2,0.2-0.3,0.3c-0.1,0-0.2,0-0.3-0.1c-0.1-0.1-0.1-0.2-0.2-0.4c0,0,0-0.1,0-0.1c0,0,0-0.1,0-0.1c0,0,0,0-0.1,0
		s-0.1,0-0.1,0c0,0,0,0.1,0,0.1c0,0,0,0.1,0,0.1c0,0.1,0,0.3,0,0.4c0,0.1,0,0.2,0,0.4c0,0.2,0,0.3,0,0.4c0,0.1-0.1,0.1-0.3,0.2
		c-0.2,0.1-0.3,0.1-0.4,0c-0.1,0-0.1-0.2-0.3-0.4c0-0.1,0-0.1,0-0.2c0-0.1,0-0.1,0-0.2c0-0.1-0.1-0.2-0.1-0.3s-0.1,0-0.2,0
		c0,0,0,0.1,0,0.2c0,0.1-0.1,0.2-0.1,0.3c0,0.1,0.1,0.1,0.1,0.2s0,0.1,0,0.2c0,0.1,0,0.1,0,0.2c-0.1,0.1-0.1,0.1-0.1,0.1
		c0,0-0.1,0-0.1,0c-0.1,0-0.1,0-0.1,0c-0.2-0.1-0.4-0.2-0.6-0.3c-0.2-0.1-0.4,0-0.6,0.3c-0.1-0.1-0.3-0.1-0.5-0.1
		c-0.2,0-0.3,0-0.5,0c-0.1,0-0.2-0.2-0.3-0.4c-0.2-0.1-0.4-0.3-0.5-0.5c0-0.2,0-0.5,0-0.8c0-0.2,0-0.5,0-0.7s0-0.5-0.1-0.7
		c-0.1-0.1-0.1-0.3-0.1-0.5c0-0.2,0.1-0.3,0.3-0.5c0.1-0.1,0.1-0.2,0.1-0.3c0-0.1,0-0.2,0-0.3c-0.2-0.3-0.3-0.7-0.3-1
		c0-0.4,0-0.8,0.1-1.2c0-0.1,0-0.1,0-0.2c0-0.1,0-0.1,0-0.2c0-0.3,0-0.5,0-0.8c0-0.3,0.1-0.5,0.1-0.8c0-0.3,0-0.6,0-0.9
		c0-0.3,0.1-0.6,0.1-0.9c0-0.1,0-0.1,0-0.2c0-0.1,0-0.1,0-0.3c0.1-0.4,0.2-0.8,0.2-1.1c0-0.4,0-0.8,0-1.1s0-0.8,0-1.3
		c0-0.4,0.1-0.8,0.1-1.2c0-0.2,0.1-0.4,0.1-0.6c0.1-0.2,0.1-0.5,0.1-0.7c0.1-0.1,0.1-0.1,0.3-0.2c0.1-0.1,0.1-0.1,0.3-0.3
		c0.1-0.2,0.3-0.3,0.4-0.4c0.1,0,0.2,0.1,0.3,0.3c0.1,0.2,0.2,0.3,0.3,0.3c0.1,0,0.2-0.1,0.3-0.1c0.1-0.1,0.3-0.1,0.4-0.1
		s0.2,0,0.3-0.2c0.1-0.2,0.1-0.3,0.1-0.5c0-0.1,0.1-0.3,0.1-0.5c0-0.1,0.1-0.3,0.1-0.4c-0.1,0-0.1,0-0.2,0c-0.1,0-0.1,0.1-0.1,0.1
		c-0.1,0.1-0.2,0.1-0.3,0c-0.1,0-0.1-0.1-0.1-0.2s-0.1-0.3-0.1-0.5c0,0,0-0.1,0.1-0.1c0,0,0-0.1,0-0.1c0,0,0.1-0.1,0.1-0.1h0.1
		c0.1,0.1,0.2,0.2,0.3,0.3c0.1,0.1,0.1,0.2,0.3,0.3c0.2,0.2,0.3,0.4,0.4,0.6c0.1,0.2,0.1,0.4,0,0.6c0,0.2-0.1,0.5-0.3,0.8
		c0,0-0.1,0.1-0.1,0.1c0,0.1-0.1,0.1-0.1,0.1C47,13.5,47,13.6,47,13.7c0,0.1,0.1,0.1,0.3,0.2l0.1,0.1c0,0.1,0,0.1-0.1,0.3
		c0,0.1,0,0.2,0.1,0.3c0,0.3,0,0.5,0,0.7c0,0.2-0.1,0.3-0.2,0.4c-0.1,0.1-0.3,0.3-0.5,0.4c0,0.1,0,0.2,0,0.4c0,0.2,0,0.3,0,0.4
		c0.1,0.4,0.1,0.7,0,1.1c0,0.3-0.2,0.6-0.4,0.9c-0.1,0.1-0.1,0.3-0.2,0.5c0,0.2-0.1,0.4-0.1,0.6c0,0.1-0.1,0.3-0.1,0.4
		c0,0.1-0.1,0.2-0.1,0.3c-0.1,0.3-0.1,0.5-0.1,0.7c0,0.1,0.2,0.2,0.4,0.3c0.1,0.1,0.2,0.2,0.2,0.3c0,0.1,0,0.2-0.1,0.4
		C46,22.4,46,22.6,46,22.7c0,0.1,0,0.2,0,0.3c0,0.1,0,0.2,0.1,0.2c0,0,0.1,0,0.1,0c0.1,0,0.2,0,0.3,0.1c0.1,0.1,0.1,0.2,0.1,0.3
		c0,0.2,0,0.3-0.1,0.5c0,0.2-0.1,0.3-0.1,0.5c0,0.1-0.1,0.1-0.2,0.2c-0.1,0.1-0.1,0.1-0.2,0.2c-0.1,0.2-0.2,0.3-0.1,0.4
		c0,0.1,0,0.2,0.1,0.4c0,0,0.1,0.1,0.1,0.1c0,0.1,0.1,0.2,0.1,0.3c0.1,0.3,0.2,0.6,0.4,0.8c0.2,0.2,0.4,0.4,0.5,0.6
		c0,0.1,0.1,0.1,0.2,0c0,0,0.1-0.1,0.1-0.2c0-0.2,0.1-0.3,0.2-0.3c0.1-0.1,0.1-0.1,0.3-0.1c0.3,0,0.5,0,0.7,0c0.2,0,0.5,0.1,0.6,0.3
		c0.1,0.1,0.2,0.1,0.2,0.1c0.1,0,0.1-0.1,0.2-0.3c0.1-0.1,0.1-0.2,0.3-0.3c0.1,0,0.1,0.1,0.2,0.3c0,0.1,0.1,0.1,0.1,0.2
		c0,0.1,0.1,0,0.1-0.1c0.1-0.1,0.2-0.2,0.3-0.3c0.1,0,0.2,0,0.3,0c0.3,0.1,0.6,0.2,0.9,0.1c0.3,0,0.6,0,1,0c0.1,0,0.1,0,0.2,0.1
		l0.1,0c0,0.3,0,0.5,0.1,0.5c0,0.1,0.1,0,0.1-0.1c0.1-0.1,0.1-0.2,0.3-0.3c0.1-0.1,0.1-0.2,0.2-0.2c0.1,0,0.1,0,0.2,0.1
		C54,27,54,27,54.1,27s0.2,0,0.3,0c0.1,0,0.1,0.2,0.1,0.4h0.1c0,0,0,0,0,0c0.1-0.2,0.2-0.3,0.3-0.3c0.1,0,0.1,0.1,0.3,0.2
		c0.1,0.1,0.2,0.2,0.3,0.4c0,0.1,0.1,0.1,0.2,0.1c0-0.3-0.1-0.6-0.1-0.9c0-0.4,0.1-0.8,0.1-1.2c0.1-0.4,0.1-0.8,0.1-1.1
		c0-0.1,0-0.2,0-0.4c0-0.1-0.1-0.1-0.1-0.3c0-0.2,0.1-0.5,0.1-0.8c0-0.3,0.1-0.6,0.1-0.9c0.1-0.4,0.2-0.9,0.4-1.5
		c0.2-0.6,0.3-1.3,0.5-1.9c0.2-0.7,0.3-1.3,0.3-2c0-0.3,0.1-0.6,0.1-0.9c0.1-0.3,0.2-0.6,0.3-0.9c0-0.2,0.1-0.4,0.2-0.5
		c0.1-0.1,0.2-0.3,0.3-0.3c0.1-0.1,0.3-0.3,0.4-0.6c-0.1,0-0.1,0-0.2,0c-0.1,0-0.2,0-0.2,0.1c-0.1,0-0.1,0-0.1,0h-0.1
		c0,0,0-0.1,0-0.1c0-0.1,0-0.2,0.1-0.4c0-0.2,0.1-0.4,0.1-0.6c0-0.7,0.2-1.2,0.5-1.6s0.7-0.8,1.2-1c0.3-0.1,0.5-0.2,0.8-0.4
		c0.2-0.2,0.4-0.3,0.5-0.3c0.1,0,0.2,0,0.3,0.1c0.1,0,0.2,0.1,0.3,0.1c0.1,0,0.2-0.1,0.3-0.1c0.1-0.1,0.2-0.1,0.3-0.1
		c0.1,0,0.1,0,0.1,0.1c0.1,0.1,0.1,0.1,0.1,0.2c0.2-0.2,0.5-0.5,0.6-0.8c0.2-0.2,0.5-0.4,0.7-0.4c0,0,0.1,0,0.1,0c0,0,0.1,0,0.1,0
		c0.2,0,0.3-0.1,0.5-0.2c0.2-0.1,0.4-0.2,0.5-0.3c0.1,0,0.1,0.1,0.2,0.2c0.1,0.1,0.1,0.1,0.3,0.1s0.2,0,0.4-0.1S65.9,8,66,8
		c0.1-0.1,0.3-0.1,0.4-0.2c0.1,0,0.1,0.1,0.2,0.2C66.7,8,66.7,8,66.8,8c0.1,0,0.3,0,0.4-0.1c0.1-0.1,0.3-0.1,0.4-0.1
		c0.1,0,0.1,0.1,0.3,0.2c0.1,0.1,0.1,0.2,0.2,0.3c0.1,0.1,0.2,0.1,0.3,0.1h0.1c0-0.1,0.1-0.1,0.1-0.3c0-0.1,0-0.2,0-0.3
		c0-0.1,0-0.2,0-0.3c0-0.1,0.1-0.1,0.3-0.3c0.1-0.1,0.3-0.1,0.3-0.1c0.1,0,0.1,0,0.2,0c0.1,0,0.1,0.1,0.2,0.1c0.2,0,0.4-0.1,0.6-0.3
		c0.2-0.2,0.4-0.3,0.6-0.3c0,0,0.1,0,0.1,0c0,0,0,0.1,0,0.2v0c0,0,0,0.1,0,0.1c0,0.1,0,0.1,0,0.2l0.1,0.1c0,0,0.1,0,0.1-0.1
		C70.9,7.1,70.9,7.1,71,7l0,0c0,0,0.1,0,0.1,0c0,0,0.1,0,0.2,0c0,0.1,0.1,0.1,0.1,0.2c0,0.3,0,0.5-0.1,0.8c0,0.3,0,0.5-0.1,0.8
		s-0.2,0.5-0.3,0.9c-0.1,0.3-0.3,0.6-0.4,0.8c-0.1,0.1-0.2,0.2-0.2,0.3c0,0,0.1,0.1,0.1,0.1c0,0.1,0.1,0.2,0.1,0.3
		c0.1,0,0.2-0.1,0.3-0.2c0.1-0.1,0.2-0.2,0.3-0.2c0.1,0,0.1,0.1,0.3,0.2c0.1,0.1,0.2,0.2,0.3,0.2c0.1,0,0.2-0.1,0.3-0.3
		c0.1-0.1,0.3-0.2,0.5-0.3h0.1c0,0,0.1,0,0.1,0c0.1,0,0.3,0,0.4-0.1c0.2-0.1,0.3-0.1,0.3-0.1s0.1,0,0.2,0.1c0,0.1,0,0.2,0,0.4
		c0.1-0.1,0.3-0.2,0.5-0.3c0.2-0.1,0.4-0.1,0.7-0.1c0.3,0,0.5,0,0.6,0c0.1,0,0.2,0,0.2,0.1c0.1,0.1,0.1,0.2,0.2,0.3l0.1-0.2
		c0,0,0.1-0.1,0.1-0.1c0,0.1,0,0.1,0,0.1c0,0.1-0.1,0.1-0.2,0.2c0,0,0.1,0.1,0.1,0.1h0.1c0.1,0,0.1,0,0.1,0c0,0,0.1-0.1,0.1-0.1
		c0.2-0.3,0.4-0.6,0.8-0.7c0.3-0.1,0.5-0.1,0.8-0.1c0.3,0,0.5,0.1,0.7,0.1c0.2,0,0.3,0,0.4,0c0.1,0,0.3,0.1,0.3,0.2
		c0,0,0.1-0.1,0.2-0.1c0,0,0.1,0,0.1,0c0.1,0,0.2,0,0.3,0.1c0.1,0,0.2,0,0.3,0c0.1,0,0.2,0,0.3-0.1c0.1-0.1,0.3-0.1,0.3-0.1
		s0.2,0.1,0.3,0.2c0.1,0.1,0.2,0.2,0.3,0.2c0.1,0,0.2-0.1,0.3-0.1c0.1,0,0.2,0,0.3,0H82c0.1,0,0.2,0,0.3,0.1
		c0.1,0.1,0.2,0.1,0.3,0.1c0.1,0,0.1,0,0.2-0.1c0.1-0.1,0.2-0.1,0.3-0.1c0.1,0,0.2,0,0.3,0.1c0,0,0.1,0,0.1,0c0.3,0,0.5,0,0.7,0
		c0.1,0,0.2,0,0.2,0.1c0.1,0.1,0.1,0.2,0.2,0.3l0.1-0.2c0,0,0.1-0.1,0.1-0.1c0,0.1,0,0.1,0,0.1c0,0.1-0.1,0.1-0.2,0.2
		c0,0,0.1,0.1,0.1,0.1h0c0.1,0,0.1,0,0.2,0c0,0,0.1-0.1,0.1-0.1c0.2-0.3,0.5-0.6,0.8-0.7c0.3-0.1,0.6-0.1,0.8-0.1
		c0.3,0,0.5,0.1,0.7,0.1c0.2,0,0.3,0,0.5,0s0.3,0.1,0.4,0.2c0,0,0.1-0.1,0.1-0.1c0,0,0.1,0,0.1,0c0.1,0,0.2,0,0.3,0.1
		c0.1,0,0.1,0,0.3,0c0.1,0,0.2,0,0.3-0.1c0.1-0.1,0.3-0.1,0.4-0.1s0.2,0.1,0.3,0.2c0.1,0.1,0.2,0.2,0.3,0.2c0.1,0,0.2-0.1,0.3-0.1
		c0.1,0,0.3,0,0.3,0c0.1,0,0.2,0,0.3,0.1c0.1,0.1,0.2,0.1,0.3,0.1c0.1,0,0.1,0,0.2-0.1c0.1-0.1,0.2-0.1,0.3-0.1c0.1,0,0.2,0,0.3,0.1
		c0.2-0.1,0.4-0.3,0.6-0.4c0.3-0.1,0.5-0.2,0.8-0.4c0.2-0.2,0.4-0.3,0.5-0.3c0.1,0,0.2,0,0.3,0.1c0.1,0,0.2,0.1,0.3,0.1
		c0.1,0,0.2-0.1,0.3-0.1c0.1-0.1,0.2-0.1,0.3-0.1c0.1,0,0.1,0,0.2,0.1c0.1,0.1,0.1,0.1,0.1,0.2c0.2-0.2,0.5-0.5,0.7-0.8
		c0.2-0.2,0.5-0.4,0.7-0.4c0,0,0.1,0,0.1,0c0,0,0.1,0,0.1,0c0.2,0,0.3-0.1,0.5-0.2c0.2-0.1,0.4-0.2,0.5-0.3c0.1,0,0.1,0.1,0.2,0.2
		c0.1,0.1,0.2,0.1,0.3,0.1c0.1,0,0.2,0,0.4-0.1S98.6,8,98.7,8c0.1-0.1,0.3-0.1,0.4-0.2c0.1,0,0.1,0.1,0.2,0.2C99.3,8,99.4,8,99.4,8
		c0.1,0,0.3,0,0.4-0.1c0.1-0.1,0.3-0.1,0.4-0.1c0.1,0,0.1,0.1,0.3,0.2c0.1,0.1,0.1,0.2,0.2,0.3s0.2,0.1,0.3,0.1h0.1
		c0-0.1,0.1-0.1,0.2-0.3c0-0.1,0-0.2,0-0.3c0-0.1,0-0.2,0-0.3c0-0.1,0.1-0.1,0.3-0.3c0.1-0.1,0.3-0.1,0.3-0.1c0.1,0,0.1,0,0.2,0
		c0.1,0,0.1,0.1,0.2,0.1c0.2,0,0.4-0.1,0.6-0.3c0.2-0.2,0.4-0.3,0.6-0.3c0,0,0.1,0,0.1,0c0,0,0,0.1,0,0.2v0c0,0,0,0.1,0,0.1
		c0,0.1,0,0.1,0,0.2l0,0.1c0,0,0.1,0,0.1-0.1c0.1-0.1,0.2-0.2,0.3-0.3L103.8,7C103.8,7,103.8,7,103.8,7z M107.8,9.1
		c0,0,0.1,0.1,0.1,0.1c0.1,0,0.2,0,0.3,0c0.1,0,0.2,0.1,0.2,0.3v0c0,0.1,0,0.1,0.1,0.1c0.1,0.1,0.2,0.1,0.3,0.2
		c0.1,0.1,0.1,0.2,0.1,0.3c0,0,0,0.1,0,0.1h0.1c0,0,0.1,0,0.2-0.1c0.1-0.1,0.2-0.1,0.3-0.1c0.1,0,0.2,0.1,0.2,0.2
		c0,0.1,0.1,0.3,0.1,0.5c0,0.2,0.1,0.3,0.3,0.3c0,0.1,0,0.1,0,0.2c0,0,0.1,0.1,0.1,0.1c0-0.1,0.1-0.1,0.1-0.2c0-0.1,0-0.1,0-0.2V11
		l0.1,0c0,0.1,0.1,0.2,0.2,0.3c0.1,0.1,0.1,0.2,0.2,0.2c0,0,0.1-0.1,0.1-0.2c0-0.1,0.1-0.2,0.2-0.2c0.1,0,0.2,0.1,0.3,0.1
		c0.1,0,0.1,0.1,0.2,0.2c0,0.1,0,0.2-0.1,0.2c0,0.1,0,0.1,0,0.2c0,0.2,0.1,0.3,0.2,0.4c0.1,0.1,0.2,0.3,0.3,0.5c0,0.1,0,0.1,0,0.1
		c0,0,0.1,0,0.1,0c0.1,0,0.2,0,0.3-0.1c0.1,0,0.2-0.1,0.3-0.1l0,0.1c0,0.1,0,0.1,0,0.1c0,0.1,0,0.1-0.2,0.3
		c-0.1,0.1-0.1,0.2-0.3,0.3c-0.1,0.1-0.1,0.2-0.1,0.3c0,0.1,0,0.2,0.1,0.3c0.1,0,0.1,0,0.3,0c0.1,0,0.1,0,0.1-0.1c0-0.1,0-0.2,0-0.3
		c0-0.1,0.1-0.2,0.1-0.2c0,0,0.1,0.1,0.1,0.3c0,0.2,0,0.4,0,0.4c0,0.1-0.1,0.2-0.2,0.3c-0.1,0.1-0.2,0.2-0.3,0.3
		c-0.1,0.1-0.2,0.2-0.2,0.3c0,0.2,0.1,0.4,0.2,0.7c0.1,0.2,0.3,0.4,0.3,0.6c0.1,0.2,0.2,0.4,0.2,0.5c0,0.3-0.2,0.5-0.4,0.6
		c-0.2,0.1-0.4,0.3-0.6,0.4c-0.2,0.2-0.3,0.5-0.3,1c0,0.1,0,0.1,0.1,0.2c0,0.1,0,0.2,0,0.3c0,0.1,0,0.1-0.1,0.1c0,0-0.1,0-0.1,0
		c-0.1,0-0.2-0.1-0.3-0.1c-0.1-0.1-0.1-0.1-0.2-0.2c-0.1,0.1-0.2,0.3-0.3,0.5c-0.1,0.2-0.2,0.3-0.3,0.4c0.1,0,0.1,0,0.2-0.1
		c0-0.1,0.1-0.1,0.1-0.2c0.1,0,0.2,0,0.3,0s0.1,0.1,0.1,0.2c0,0.1,0,0.3-0.2,0.4c-0.1,0.1-0.3,0.2-0.4,0.3c-0.2,0.1-0.3,0.1-0.4,0.1
		c-0.2,0-0.3-0.1-0.5-0.2c-0.1-0.1-0.3-0.1-0.4-0.1s-0.3,0.1-0.3,0.2c-0.1,0.1-0.3,0.2-0.4,0.3c-0.1,0.1-0.2,0.2-0.3,0.3
		c-0.3,0.1-0.4,0.2-0.5,0.5c-0.1,0.2-0.2,0.5-0.2,1c0,0.1,0.1,0.2,0.2,0.2c0.1,0.1,0.2,0.2,0.2,0.3c0,0.1,0,0.2-0.1,0.3
		c0,0.1,0,0.2,0,0.3c0,0.1,0.1,0.3,0.3,0.5c0.1,0.2,0.3,0.4,0.4,0.6c0.2,0.2,0.3,0.3,0.5,0.3c0,0,0.1-0.1,0.1-0.1c0,0,0-0.1,0-0.2
		c0-0.2-0.1-0.3-0.2-0.5c-0.2-0.1-0.3-0.3-0.5-0.3c-0.1-0.1-0.2-0.3-0.3-0.5c0,0,0-0.1,0-0.1l0.1,0c0.1,0,0.1,0,0.2,0.1
		c0.1,0.1,0.1,0.1,0.3,0.1c0.2,0,0.3,0,0.4,0c0.1,0,0.2,0,0.3,0c0.1,0,0.3,0,0.4,0.1c0.1,0.1,0.3,0.3,0.4,0.5c0.2,0,0.3,0.1,0.3,0.3
		c0.1,0.1,0.1,0.3,0.1,0.4c0.1,0.2,0.2,0.3,0.3,0.3c0,0,0.1,0,0.1,0c0,0,0,0.1,0,0.1c0,0.2-0.1,0.3-0.1,0.5
		c-0.1,0.2-0.1,0.3-0.1,0.4c0,0,0,0.1,0,0.1c0,0,0.1,0,0.2,0l-0.1-0.4c0.1,0,0.2,0,0.3,0c0.1,0,0.2,0,0.3,0c0,0,0.1,0,0.1,0
		s0.1,0,0.1,0c0,0,0.1,0,0.2,0c0,0,0.1-0.1,0.2-0.1s0.2,0.1,0.4,0.3c0.2,0.2,0.4,0.3,0.6,0.5c0.2,0.2,0.3,0.4,0.3,0.5
		c0,0,0,0.1,0,0.2s0,0.1,0,0.2c0,0,0.1,0,0.1,0c0.1,0,0.1,0.1,0.1,0.1c0,0.1-0.1,0.2-0.1,0.2c-0.1,0.1-0.1,0.1-0.1,0.2
		c0,0.1,0.1,0.1,0.2,0.2c0.1,0.1,0.1,0.2,0.1,0.3c0,0.2,0.1,0.3,0.1,0.5c0,0.1,0,0.3,0,0.4c0.1-0.2,0.1-0.3,0.2-0.4
		c0-0.1,0.1-0.3,0.1-0.5v-0.5c0,0,0-0.1,0-0.1c0-0.1,0.1-0.1,0.1-0.2c0.1,0.1,0.3,0.2,0.4,0.3c0.1,0.2,0.3,0.3,0.4,0.5
		c0.1,0.2,0.3,0.3,0.3,0.4c0.1,0.1,0.2,0.1,0.3,0.2c0.1,0.1,0.1,0.2,0.2,0.3c0,0.1-0.1,0.2-0.2,0.3c-0.1,0-0.2,0-0.4,0
		c0.1,0.2,0.1,0.4,0.3,0.5c0.1,0,0.2,0.1,0.3,0.1c0.1,0,0.1,0.1,0.1,0.3c0,0.2-0.1,0.4-0.2,0.6c-0.1,0.3-0.2,0.5-0.3,0.7
		c-0.1,0.2-0.3,0.3-0.4,0.3c-0.1,0-0.2-0.1-0.3-0.1c-0.1-0.1-0.2-0.1-0.3-0.2c-0.1,0-0.2,0-0.3,0.2c0,0.1-0.1,0.2-0.3,0.3
		c-0.1-0.1-0.2-0.2-0.3-0.2s-0.2-0.1-0.3-0.2c-0.1,0-0.2-0.1-0.2-0.3c0-0.2,0-0.4-0.1-0.6c0-0.2-0.1-0.4-0.2-0.6
		c-0.1-0.2-0.2-0.3-0.3-0.3c0,0-0.1,0-0.1,0c0,0-0.1,0.1-0.1,0.1c0,0.1,0.1,0.2,0.2,0.4c0.1,0.1,0.2,0.2,0.2,0.3c0,0,0,0.1-0.1,0.2
		c-0.1,0.1-0.1,0.1-0.2,0.2c-0.1,0-0.1-0.1-0.2-0.2c-0.1-0.1-0.1-0.2-0.1-0.4c-0.1-0.3-0.3-0.5-0.6-0.8c-0.2-0.2-0.5-0.3-0.7-0.4
		c-0.2-0.1-0.3-0.2-0.4-0.2c-0.1-0.3-0.2-0.5-0.4-0.5c-0.2-0.1-0.3-0.2-0.5-0.3c-0.2-0.1-0.3-0.2-0.3-0.4c-0.1-0.1-0.3-0.2-0.3-0.4
		c-0.1-0.1-0.2-0.3-0.2-0.5c0-0.1,0-0.3-0.2-0.3c-0.1-0.1-0.1-0.2-0.3-0.3c-0.1-0.1-0.1-0.2-0.1-0.4c0-0.1,0-0.2,0-0.3
		c0.1-0.1,0.1-0.2,0.1-0.3c0,0,0-0.1,0-0.1s-0.1-0.1-0.1-0.1c-0.1,0.1-0.1,0.3-0.1,0.4c-0.1,0.2-0.1,0.4-0.2,0.5
		c-0.1,0.2-0.1,0.3-0.2,0.3c-0.1,0-0.2-0.1-0.2-0.3c-0.1-0.2-0.1-0.3-0.1-0.5c0-0.2,0-0.3,0-0.3c0-0.1,0-0.2,0-0.3
		c0-0.1,0.1-0.2,0.1-0.3c0-0.2-0.1-0.4-0.2-0.5c-0.1-0.1-0.3-0.2-0.4-0.3c-0.1-0.1-0.2-0.1-0.2-0.1c0-0.1,0.1-0.2,0.2-0.3
		c0.1-0.1,0.2-0.1,0.2-0.2s0-0.1-0.1-0.2c0,0-0.1-0.1-0.1-0.2c-0.1,0.1-0.2,0.2-0.3,0.3c-0.1,0.1-0.2,0.1-0.3,0.1c0,0-0.1,0-0.1,0
		c0,0.3-0.1,0.5-0.2,0.8s-0.3,0.4-0.6,0.4c0,0-0.1,0-0.1,0s0-0.1,0-0.1c0-0.1,0-0.2,0.1-0.3c0.1,0,0.1-0.1,0.3-0.1
		c-0.1-0.1-0.2-0.2-0.3-0.3c-0.1-0.1-0.1-0.2-0.2-0.2c-0.1,0-0.2,0-0.3,0.2c-0.1,0.1-0.2,0.1-0.3,0.1c-0.1,0-0.1-0.1-0.2-0.3
		c-0.1-0.2-0.1-0.3-0.1-0.3c-0.1,0-0.2,0.1-0.3,0.2c-0.1,0.1-0.1,0.2-0.1,0.3c0,0.1,0,0.2,0,0.3c0,0.1,0,0.2,0,0.3
		c0,0.1,0,0.1,0,0.3c0,0.1-0.1,0.1-0.1,0.3c0,0.1,0,0.3,0.1,0.5c0.1,0.1,0.2,0.3,0.2,0.5c0,0.1,0,0.1,0,0.2c0,0,0,0.1,0,0.2
		c0,0.1,0,0.2,0.1,0.3s0,0.2,0,0.3c0,0.1-0.1,0.2-0.3,0.3c-0.1,0.1-0.2,0.2-0.3,0.3c0.1,0.1,0.2,0.1,0.3,0.1c0.1,0,0.2,0,0.3,0
		c0.1,0.2,0.1,0.3,0.2,0.5c0,0.2,0.1,0.3,0.1,0.5c0,0,0,0.1,0,0.1s0,0-0.1,0c0,0-0.1-0.1-0.2-0.1c-0.1,0-0.2,0-0.3,0
		c0,0.1,0,0.2,0.1,0.3c0,0.1,0,0.1,0,0.2c0,0.2-0.1,0.3-0.3,0.4c-0.2,0.1-0.3,0.2-0.5,0.2c-0.2,0.1-0.3,0.1-0.3,0.1
		c-0.1,0-0.1,0-0.1,0c0-0.1-0.1-0.1-0.1-0.3c0-0.1,0-0.1,0.1-0.3c0-0.1,0-0.1,0-0.2c0-0.2,0-0.3-0.1-0.4c0,0-0.1-0.1-0.2-0.1
		c-0.1,0-0.2-0.1-0.3-0.3c0.1-0.2,0.1-0.3,0.2-0.4c0.1-0.1,0.2-0.2,0.4-0.4h0c-0.1,0-0.2,0.1-0.3,0.3c-0.1,0.1-0.2,0.3-0.3,0.5
		c-0.1,0.1-0.3,0.2-0.3,0.3c-0.1,0-0.1,0-0.1,0c0,0-0.1-0.1-0.1-0.2c0-0.1,0.1-0.3,0.2-0.3c0.1-0.1,0.2-0.2,0.2-0.3h-0.1
		c-0.1,0-0.2,0-0.3-0.1c-0.1,0-0.1-0.1-0.1-0.2c0-0.2,0.1-0.4,0.2-0.7c0.1-0.3,0.2-0.5,0.3-0.6c0-0.1-0.1-0.1-0.2-0.3
		c-0.1-0.1-0.1-0.2-0.2-0.3c0-0.2,0.1-0.3,0.2-0.5s0.2-0.3,0.3-0.3c0.1,0,0.1,0,0.2,0s0.1,0,0.1,0c0,0,0.1,0,0.1,0c0,0,0,0,0,0
		c0-0.1-0.1-0.1-0.3-0.2c-0.1-0.1-0.3-0.2-0.4-0.2l-0.2-0.2c0,0,0-0.1,0-0.2c0,0,0-0.1,0-0.1v-0.1c0-0.1,0-0.2,0-0.3
		c0-0.1-0.1-0.2-0.1-0.3c0-0.5,0-1.1,0.1-1.7c0-0.6,0.1-1.1,0.3-1.5c0-0.1,0.1-0.2,0.2-0.3c0.1-0.1,0.1-0.1,0.1-0.2
		c0-0.1,0-0.1-0.1-0.1c0,0-0.1-0.1-0.2-0.1c0-0.3,0-0.7,0-1.1c0-0.4,0-0.8,0-1.2c0-0.3,0.1-0.6,0.2-0.8c0-0.1,0-0.2,0-0.4
		c0-0.1,0-0.3,0-0.4c0-0.1,0-0.3,0-0.3c0-0.1,0-0.3,0-0.4c0-0.2,0-0.5,0-0.6c0-0.2,0.1-0.5,0.1-0.7v-0.1c0-0.3,0-0.5,0.1-0.6
		c0.1-0.2,0.3-0.3,0.5-0.3c0.1,0,0.2,0,0.3,0.1c0.1,0,0.2,0,0.2,0s0.1,0,0.1,0c0,0,0.1,0,0.1,0c-0.1-0.3-0.2-0.5-0.3-0.6
		c-0.1-0.1-0.1-0.3-0.1-0.4c0-0.1,0-0.2,0.1-0.4c0.1-0.2,0.1-0.4,0.3-0.5c0.1-0.1,0.3-0.2,0.4-0.3h0.1l0,0v0c0-0.1,0.1-0.2,0.1-0.3
		c0-0.1,0.1-0.2,0.1-0.2c0.1,0,0.2,0.1,0.3,0.3c0.1,0.1,0.2,0.2,0.3,0.3c0.1,0,0.3-0.1,0.5-0.2c0.2-0.1,0.4-0.2,0.7-0.2
		c0.1,0,0.2,0.1,0.3,0.2c0.1,0.1,0.1,0.1,0.2,0.1c0.1,0,0.2,0,0.4-0.1c0.1-0.1,0.2-0.1,0.3-0.1c0.1,0,0.1,0,0.1,0.1
		c0,0.1,0.1,0.1,0.1,0.1c0.1,0,0.1-0.1,0.2-0.2c0-0.1,0.1-0.2,0.1-0.3C107.6,9.2,107.7,9.1,107.8,9.1C107.8,9.1,107.8,9.1,107.8,9.1
		z"/>
</g>
</svg>
