<?xml version="1.0" encoding="utf-8"?>
<!-- Generator: Adobe Illustrator 20.0.0, SVG Export Plug-In . SVG Version: 6.00 Build 0)  -->
<svg version="1.1" id="Layer_1" xmlns="http://www.w3.org/2000/svg" xmlns:xlink="http://www.w3.org/1999/xlink" x="0px" y="0px"
	 width="150px" height="60px" viewBox="0 0 150 60" enable-background="new 0 0 150 60" xml:space="preserve">
<style type="text/css">
	.st0{fill:#2d2d2d;}
	.st1{fill:#BF261F;}
</style>
<path class="st0" d="M114.7,58.8H13.8c-6.6,0-12-5.4-12-12v-34c0-6.6,5.4-12,12-12h100.9c6.6,0,12,5.4,12,12v34
	C126.7,53.4,121.3,58.8,114.7,58.8z"/>
<g>
	<path class="st1" d="M13,32.6v-5.8h15.2v5.8H13z"/>
	<path class="st1" d="M31,47.6v-8.2l4.6-4.6c1.1-1.1,1.9-1.9,2.6-2.6c0.7-0.7,1.2-1.2,1.5-1.6c0.4-0.4,0.7-0.8,0.9-1.1
		c0.2-0.3,0.4-0.6,0.6-1c0.2-0.4,0.3-0.7,0.4-1c0.1-0.3,0.2-0.6,0.2-1c0-0.4,0.1-0.9,0.1-1.4c0-0.5,0-1.2,0-2c0-1,0-1.8-0.1-2.3
		c-0.1-0.5-0.2-0.9-0.4-1.3c-0.1-0.3-0.3-0.5-0.5-0.6c-0.3-0.2-0.7-0.2-1.3-0.2c-1,0-1.7,0.3-1.9,0.8c-0.1,0.3-0.2,0.8-0.3,1.5
		c-0.1,0.7-0.1,1.7-0.1,3.2c0,0.3,0,0.5,0,0.7c0,0.2,0,0.4,0,0.5h-6.9c-0.1-0.4-0.1-0.9-0.1-1.3s0-1.2,0-2.2c0-1.9,0.1-3.5,0.3-4.8
		c0.2-1.3,0.7-2.4,1.3-3.3c0.7-0.8,1.6-1.5,2.8-1.8c1.2-0.4,2.8-0.6,4.8-0.6c1.1,0,2.1,0,3,0.1c0.8,0.1,1.6,0.3,2.2,0.5
		c0.6,0.2,1.2,0.5,1.6,0.9c0.4,0.4,0.8,0.8,1.1,1.3c0.3,0.4,0.5,0.9,0.7,1.4c0.2,0.5,0.4,1.1,0.6,1.8c0.2,0.7,0.3,1.5,0.4,2.3
		c0.1,0.9,0.1,1.9,0.1,3.2c0,1.4,0,2.6-0.1,3.7c-0.1,1.1-0.3,2.1-0.7,3c-0.3,0.9-0.9,1.9-1.6,2.8s-1.7,2-2.9,3.1l-4.1,3.9l0.1,0.4
		h8.9v7.6H31z"/>
	<path class="st1" d="M61,48.2c-1.5,0-2.7,0-3.8-0.1c-1-0.1-1.9-0.3-2.7-0.7c-0.7-0.4-1.3-0.9-1.7-1.7c-0.4-0.8-0.7-1.8-0.9-3.2
		c-0.2-1.4-0.4-3.1-0.4-5.1c-0.1-2.1-0.1-4.6-0.1-7.6c0-2.9,0-5.4,0.1-7.5c0.1-2.1,0.2-3.8,0.4-5.1c0.2-1.4,0.5-2.4,0.9-3.2
		c0.4-0.8,1-1.3,1.7-1.7c0.7-0.4,1.6-0.6,2.7-0.7c1-0.1,2.3-0.1,3.8-0.1c1.5,0,2.7,0,3.8,0.1c1.1,0.1,1.9,0.3,2.7,0.7
		c0.7,0.4,1.3,0.9,1.7,1.7c0.4,0.8,0.7,1.8,1,3.2c0.2,1.4,0.4,3.1,0.4,5.1c0.1,2.1,0.1,4.6,0.1,7.5c0,3,0,5.5-0.1,7.6
		c-0.1,2.1-0.2,3.8-0.4,5.1c-0.2,1.4-0.5,2.4-1,3.2c-0.4,0.8-1,1.3-1.7,1.7s-1.6,0.6-2.7,0.7C63.8,48.2,62.5,48.2,61,48.2z M61,40.3
		c0.5,0,0.9-0.1,1.2-0.2c0.3-0.1,0.5-0.5,0.7-1.2c0.2-0.7,0.3-1.7,0.3-3.2c0-1.4,0.1-3.5,0.1-6.1c0-2.7,0-4.8,0-6.2
		c0-1.5-0.1-2.5-0.3-3.2c-0.1-0.7-0.4-1.1-0.7-1.2c-0.3-0.1-0.8-0.2-1.3-0.2c-0.6,0-1,0.1-1.3,0.2c-0.3,0.1-0.5,0.5-0.7,1.2
		c-0.1,0.7-0.2,1.8-0.3,3.2c0,1.5,0,3.5,0,6.2c0,2.6,0,4.7,0.1,6.1c0,1.4,0.1,2.5,0.3,3.2s0.4,1.1,0.7,1.2
		C60.1,40.2,60.5,40.3,61,40.3z"/>
</g>
<g>
	<path class="st1" d="M73.7,32.2v-20h6c0.9,0,1.6,0.1,2.2,0.4s1,0.6,1.4,1.2c0.3,0.5,0.6,1.2,0.7,2.1c0.1,0.9,0.2,1.9,0.2,3.2
		c0,1.3-0.1,2.4-0.2,3.3c-0.1,0.9-0.4,1.6-0.7,2.2c-0.3,0.6-0.8,1-1.4,1.2c-0.6,0.2-1.3,0.4-2.2,0.4h-1.8v6H73.7z M79,22.1
		c0.4,0,0.7-0.2,0.8-0.6C79.9,21,80,20.2,80,19c0-1.1-0.1-1.7-0.3-2.1c-0.2-0.3-0.5-0.5-0.9-0.5h-1v5.7H79z"/>
	<path class="st1" d="M88.2,32.2V16.4H85v-4.2h10.4v4.2h-3.1v15.7H88.2z"/>
	<path class="st1" d="M102.1,18.4c0-0.1,0-0.3,0-0.4s0-0.3,0-0.5c0-0.6-0.1-1-0.2-1.3s-0.5-0.4-1-0.4s-0.8,0.1-1,0.4
		s-0.2,0.7-0.2,1.3c0,0.6,0.1,1,0.2,1.2c0.1,0.2,0.4,0.5,0.7,0.6c0.4,0.2,0.8,0.4,1.1,0.6s0.7,0.3,0.9,0.4s0.6,0.3,0.8,0.4
		c0.3,0.1,0.5,0.3,0.8,0.4c0.3,0.2,0.5,0.4,0.8,0.7s0.4,0.5,0.5,0.9c0.1,0.4,0.2,0.8,0.3,1.4s0.1,1.2,0.1,2.1c0,1.2-0.1,2.2-0.3,3
		s-0.4,1.4-0.8,1.9s-0.9,0.8-1.6,1c-0.7,0.2-1.5,0.3-2.5,0.3c-1.7,0-2.9-0.3-3.6-0.9C96.4,31,96,29.9,96,28.3c0-0.5,0-1,0-1.5
		s0.1-0.9,0.2-1.3h3.5c0,0.1-0.1,0.2-0.1,0.3c0,0.1,0,0.3,0,0.4c0,0.8,0.1,1.3,0.2,1.6s0.5,0.4,1,0.4s0.9-0.1,1-0.4
		c0.2-0.3,0.3-0.8,0.3-1.6c0-0.5-0.1-0.9-0.2-1.2s-0.4-0.5-0.8-0.8c-0.3-0.2-0.7-0.4-1-0.6c-0.4-0.2-0.7-0.3-1.1-0.5
		c-0.4-0.2-0.7-0.3-1-0.5s-0.6-0.4-0.9-0.6c-0.5-0.5-0.9-1.1-1-2c-0.1-0.8-0.2-1.9-0.2-3.2c0-0.9,0.1-1.7,0.2-2.4
		c0.1-0.6,0.4-1.2,0.8-1.6s0.9-0.7,1.5-0.9c0.6-0.2,1.4-0.3,2.4-0.3c0.9,0,1.6,0.1,2.3,0.2c0.6,0.1,1.1,0.4,1.5,0.7s0.7,0.8,0.8,1.4
		c0.2,0.6,0.3,1.3,0.3,2.1c0,0.5,0,1,0,1.3s-0.1,0.6-0.2,0.8H102.1z"/>
	<path class="st1" d="M107,32.2v-4h4.1v4H107z"/>
</g>
</svg>
