<?xml version="1.0" encoding="utf-8"?>
<!-- Generator: Adobe Illustrator 20.0.0, SVG Export Plug-In . SVG Version: 6.00 Build 0)  -->
<svg version="1.1" id="Layer_1" xmlns="http://www.w3.org/2000/svg" xmlns:xlink="http://www.w3.org/1999/xlink" x="0px" y="0px"
	 width="150px" height="60px" viewBox="0 0 150 60" enable-background="new 0 0 150 60" xml:space="preserve">
<style type="text/css">
	.st0{fill:#2d2d2d;}
	.st1{fill:#BF261F;}
</style>
<path class="st0" d="M114.7,58.8H13.8c-6.6,0-12-5.4-12-12v-34c0-6.6,5.4-12,12-12h100.9c6.6,0,12,5.4,12,12v34
	C126.7,53.4,121.3,58.8,114.7,58.8z"/>
<g>
	<path class="st1" d="M25.2,32.6v-5.8h15.2v5.8H25.2z"/>
	<path class="st1" d="M51,19.6l-0.4,4.1c0.3-0.1,0.8-0.3,1.5-0.4c0.7-0.1,1.5-0.2,2.4-0.2c1.2,0,2.2,0.2,3.1,0.5
		c0.9,0.4,1.6,0.9,2.2,1.7c0.6,0.8,1,1.8,1.3,3.1c0.3,1.3,0.4,2.9,0.4,4.7c0,1.7,0,3.2-0.1,4.5c-0.1,1.3-0.2,2.4-0.3,3.3
		c-0.1,1-0.3,1.8-0.5,2.5c-0.2,0.7-0.5,1.3-0.8,1.8c-0.3,0.5-0.7,1-1.1,1.4c-0.4,0.4-1,0.7-1.6,0.9c-0.6,0.2-1.4,0.4-2.3,0.5
		c-0.9,0.1-1.9,0.1-3.1,0.1c-2,0-3.6-0.2-4.8-0.7c-1.2-0.4-2.1-1.1-2.8-2c-0.7-0.9-1.1-2.1-1.3-3.4c-0.2-1.4-0.3-3-0.3-4.9
		c0-1,0-2.1,0.1-3.2h6.8c0,0.2,0,0.5,0,0.8s0,0.6,0,0.8c0,1.5,0.1,2.6,0.4,3.4c0.2,0.8,0.9,1.2,1.9,1.2c0.7,0,1.2-0.1,1.5-0.2
		c0.3-0.1,0.5-0.3,0.6-0.7c0.2-0.5,0.3-1.2,0.4-2.1c0.1-0.9,0.1-2.1,0.1-3.9c0-0.9,0-1.6-0.1-2.1c-0.1-0.5-0.2-0.9-0.4-1.2
		c-0.2-0.3-0.5-0.5-0.8-0.6c-0.4-0.1-0.8-0.1-1.4-0.1c-0.9,0-1.7,0.3-2.4,0.8l-5.7-1.8l1.1-16.4h16.6v7.6H51z"/>
</g>
<g>
	<path class="st1" d="M64.7,32.2v-20h6c0.9,0,1.6,0.1,2.2,0.4s1,0.6,1.4,1.2c0.3,0.5,0.6,1.2,0.7,2.1c0.1,0.9,0.2,1.9,0.2,3.2
		c0,1.3-0.1,2.4-0.2,3.3c-0.1,0.9-0.4,1.6-0.7,2.2c-0.3,0.6-0.8,1-1.4,1.2c-0.6,0.2-1.3,0.4-2.2,0.4h-1.8v6H64.7z M70,22.1
		c0.4,0,0.7-0.2,0.8-0.6C70.9,21,71,20.2,71,19c0-1.1-0.1-1.7-0.3-2.1c-0.2-0.3-0.5-0.5-0.9-0.5h-1v5.7H70z"/>
	<path class="st1" d="M79.2,32.2V16.4H76v-4.2h10.4v4.2h-3.1v15.7H79.2z"/>
	<path class="st1" d="M93.1,18.4c0-0.1,0-0.3,0-0.4s0-0.3,0-0.5c0-0.6-0.1-1-0.2-1.3s-0.5-0.4-1-0.4s-0.8,0.1-1,0.4
		s-0.2,0.7-0.2,1.3c0,0.6,0.1,1,0.2,1.2c0.1,0.2,0.4,0.5,0.7,0.6c0.4,0.2,0.8,0.4,1.1,0.6s0.7,0.3,0.9,0.4s0.6,0.3,0.8,0.4
		c0.3,0.1,0.5,0.3,0.8,0.4c0.3,0.2,0.5,0.4,0.8,0.7s0.4,0.5,0.5,0.9c0.1,0.4,0.2,0.8,0.3,1.4s0.1,1.2,0.1,2.1c0,1.2-0.1,2.2-0.3,3
		s-0.4,1.4-0.8,1.9s-0.9,0.8-1.6,1c-0.7,0.2-1.5,0.3-2.5,0.3c-1.7,0-2.9-0.3-3.6-0.9C87.4,31,87,29.9,87,28.3c0-0.5,0-1,0-1.5
		s0.1-0.9,0.2-1.3h3.5c0,0.1-0.1,0.2-0.1,0.3c0,0.1,0,0.3,0,0.4c0,0.8,0.1,1.3,0.2,1.6s0.5,0.4,1,0.4s0.9-0.1,1-0.4
		c0.2-0.3,0.3-0.8,0.3-1.6c0-0.5-0.1-0.9-0.2-1.2s-0.4-0.5-0.8-0.8c-0.3-0.2-0.7-0.4-1-0.6c-0.4-0.2-0.7-0.3-1.1-0.5
		c-0.4-0.2-0.7-0.3-1-0.5s-0.6-0.4-0.9-0.6c-0.5-0.5-0.9-1.1-1-2c-0.1-0.8-0.2-1.9-0.2-3.2c0-0.9,0.1-1.7,0.2-2.4
		c0.1-0.6,0.4-1.2,0.8-1.6s0.9-0.7,1.5-0.9c0.6-0.2,1.4-0.3,2.4-0.3c0.9,0,1.6,0.1,2.3,0.2c0.6,0.1,1.1,0.4,1.5,0.7s0.7,0.8,0.8,1.4
		c0.2,0.6,0.3,1.3,0.3,2.1c0,0.5,0,1,0,1.3s-0.1,0.6-0.2,0.8H93.1z"/>
	<path class="st1" d="M98,32.2v-4h4.1v4H98z"/>
</g>
</svg>
