<?xml version="1.0" encoding="utf-8"?>
<!-- Generator: Adobe Illustrator 16.0.0, SVG Export Plug-In . SVG Version: 6.00 Build 0)  -->
<!DOCTYPE svg PUBLIC "-//W3C//DTD SVG 1.1//EN" "http://www.w3.org/Graphics/SVG/1.1/DTD/svg11.dtd">
<svg version="1.1" id="Layer_1" xmlns="http://www.w3.org/2000/svg" xmlns:xlink="http://www.w3.org/1999/xlink" x="0px" y="0px"
	 width="140px" height="40px" viewBox="0 0 140 40" enable-background="new 0 0 140 40" xml:space="preserve">
<g>
	<path fill-rule="evenodd" clip-rule="evenodd" fill="#FFFFFF" d="M84.4,18.1L84.4,18.1L84.4,18.1V18h-0.1L84.4,18.1
		C84.3,18.1,84.4,18.1,84.4,18.1z M84,16.2l0.3,0.4c0-0.1-0.1-0.2-0.1-0.3C84.2,16.3,84.2,16.2,84,16.2z M85.1,16.4
		c0-0.1,0.1-0.2,0.1-0.3c0-0.1,0-0.1,0-0.1v-0.1c0,0,0-0.1,0-0.1c0,0-0.1,0.1-0.2,0.2c0,0-0.1,0.1-0.1,0.1c0,0,0,0,0,0.1
		C85,16.2,85.1,16.3,85.1,16.4z M81.9,17c0,0,0-0.1,0-0.1L82,17C82,17,82,17,81.9,17v0.1C81.9,17.1,81.8,17.1,81.9,17L81.9,17z
		 M83,15.5c0,0-0.1,0-0.1,0c0,0,0,0,0,0l-0.1,0.1c0,0-0.1,0.1-0.1,0.1c0,0,0.1,0,0.1,0.1c0,0,0.1,0,0.1,0c0,0,0-0.1,0-0.1
		C82.9,15.6,82.9,15.6,83,15.5z M81.8,15.4c0-0.1,0.1-0.1,0.1-0.3c0-0.1,0.1-0.2,0.1-0.4c0,0,0-0.1,0-0.1l0-0.1
		c-0.1,0-0.2,0.1-0.3,0.1c0,0,0,0.1,0,0.3s0,0.2,0,0.3C81.7,15.3,81.8,15.3,81.8,15.4z M81.5,13.8C81.6,13.8,81.6,13.8,81.5,13.8
		c0.1,0.1,0.1,0.1,0.2,0.1c0.1-0.1,0.1-0.2,0.2-0.3c0-0.1,0.1-0.2,0.1-0.3c0,0-0.1-0.1-0.1-0.1v0c-0.1,0-0.2,0.1-0.3,0.2
		C81.6,13.5,81.6,13.6,81.5,13.8z M85.3,13.8c0,0-0.1-0.1-0.1-0.1c-0.1,0-0.2,0.1-0.3,0.3c-0.1,0.2-0.1,0.3-0.1,0.5l0.1,0
		c0,0,0.1,0,0.1,0c0,0,0.1-0.1,0.1-0.2c0.1-0.1,0.1-0.2,0.2-0.3l0-0.1C85.3,13.9,85.3,13.8,85.3,13.8z M89,11.1c0,0,0-0.1,0-0.1l0,0
		c0,0,0,0-0.1,0c0,0,0,0,0,0v0.1l0,0L89,11.1L89,11.1z M85.3,9.9l0.1,0.3c0,0,0,0.1-0.1,0.1c0,0,0,0.1,0,0.1c0,0-0.1-0.1-0.1-0.1
		l0,0c0-0.1,0-0.1,0-0.1C85.2,10,85.3,10,85.3,9.9z M99.8,11.4c0,0,0-0.1,0.1-0.1c0.1-0.1,0.1-0.1,0.2-0.3c0.1,0.1,0.1,0.2,0.2,0.3
		c0,0.1,0.1,0.2,0.2,0.3c-0.1,0-0.1,0.1-0.2,0.2c-0.1,0.1-0.1,0.1-0.2,0.1c-0.1,0-0.2,0-0.3-0.1C99.8,11.6,99.8,11.5,99.8,11.4z
		 M92.3,11.3c-0.1,0-0.2,0-0.3,0c-0.1-0.1-0.2-0.1-0.3-0.1c0,0-0.1,0-0.2,0s-0.1,0-0.1,0c-0.1,0-0.1,0-0.2-0.1c-0.1,0-0.1,0-0.2-0.1
		c-0.2,0.2-0.4,0.4-0.5,0.6c-0.1,0.3-0.3,0.5-0.5,0.7c-0.2,0.2-0.3,0.4-0.5,0.5c-0.1,0-0.1,0-0.1,0.1c0,0.1-0.1,0.1-0.1,0.2
		c0,0.1,0,0.1,0,0.3c0,0.1,0,0.3-0.1,0.4c-0.1,0.2-0.1,0.3-0.2,0.5c0,0.1,0,0.2,0,0.3c0,0.1,0,0.1,0,0.2c0,0.2,0,0.4,0,0.5
		c0,0.2-0.1,0.4-0.1,0.6c0.1-0.1,0.2-0.2,0.3-0.3c0.1,0,0.2-0.1,0.2-0.3c0-0.1,0-0.1,0-0.3s0-0.2,0-0.3c0-0.1,0-0.2,0.2-0.4
		c0.1-0.2,0.1-0.3,0.3-0.3c0.1,0,0.2,0.1,0.3,0.4c0,0.2,0,0.4,0,0.5c0,0.2,0,0.5-0.2,0.9c-0.1,0.3-0.1,0.6-0.3,0.9
		c-0.1,0.2-0.2,0.4-0.2,0.4c-0.1,0-0.2,0-0.3-0.1c-0.1-0.1-0.3-0.1-0.3-0.1c0,0.2,0.1,0.3,0.2,0.4c0.1,0.1,0.2,0.2,0.3,0.3
		c0.1,0,0.1,0.1,0.1,0.1s0,0.1-0.1,0.3s-0.1,0.2-0.1,0.3c0,0,0,0.1,0.1,0.1c0,0,0,0.1,0.1,0.1s0.2,0,0.3-0.1c0.1,0,0.2-0.1,0.3-0.1
		c0.1,0,0.2,0,0.2,0.1c0.1,0.1,0.1,0.2,0.1,0.4v0l0,0.1h0.1c0.1-0.2,0.3-0.3,0.4-0.4c0.2-0.1,0.4-0.2,0.6-0.3
		c0.2-0.1,0.3-0.3,0.4-0.5c0.1-0.1,0.1-0.2,0.2-0.2c0.1,0,0.2-0.1,0.3-0.1c0.1,0,0.1,0.1,0.2,0.1c0,0.1,0.1,0.1,0.2,0.1
		c0,0,0.1,0,0.1,0c0,0,0-0.1,0-0.2c0.1-0.2,0.2-0.4,0.3-0.6c0.1-0.2,0.2-0.4,0.3-0.6c0-0.1,0.1-0.2,0.2-0.3c0.1-0.1,0.2-0.1,0.3-0.1
		c0.1-0.1,0.2-0.2,0.2-0.3c0-0.2,0.1-0.4,0.2-0.5s0.2-0.3,0.3-0.5c0.1-0.1,0.2-0.3,0.2-0.5s0-0.5,0.1-0.6c0.1-0.2,0.1-0.4,0.1-0.6
		c0-0.2,0-0.4-0.1-0.6c-0.1-0.2-0.2-0.3-0.3-0.5c-0.1-0.1-0.2-0.3-0.2-0.5c0-0.1,0-0.2,0-0.3c0.1-0.1,0.1-0.2,0.2-0.4h0
		c0,0,0,0,0,0.1c0,0.1-0.1,0.2-0.1,0.3c-0.1,0.2-0.1,0.4-0.2,0.5c-0.1,0.2-0.1,0.3-0.3,0.3c-0.1,0-0.1-0.1-0.2-0.2
		c-0.1-0.1-0.1-0.2-0.2-0.3c-0.1-0.1-0.2-0.1-0.4-0.1c-0.1,0-0.2,0-0.3,0C92.5,11.3,92.4,11.3,92.3,11.3z M91.4,10.1
		c0,0-0.1,0-0.1-0.1l0,0c0,0,0,0.1,0,0.1l0,0c0,0,0,0.1,0,0.1c0,0,0,0.1,0,0.1c0,0,0-0.1,0-0.1C91.3,10.2,91.4,10.2,91.4,10.1z
		 M93.5,10.5C93.6,10.5,93.6,10.5,93.5,10.5l0-0.1C93.6,10.4,93.5,10.4,93.5,10.5L93.5,10.5z M92.5,10c0.1-0.1,0.1-0.2,0.2-0.2
		C92.7,9.8,92.6,9.9,92.5,10c-0.1,0-0.1,0.1-0.2,0.1h0.1C92.4,10.1,92.5,10.1,92.5,10z M93.3,9.5c0.1,0.1,0.1,0.1,0.2,0.1
		c0.1,0,0.2,0,0.3,0c0,0,0.1,0,0.1,0c0,0,0-0.1,0-0.1h0.1v0c0-0.1-0.1-0.1-0.1-0.2c-0.1,0-0.1,0-0.2,0c-0.1,0-0.1,0-0.2,0
		C93.3,9.3,93.3,9.4,93.3,9.5z M92.3,8.4V8.3l0,0c0,0-0.1,0-0.1,0c-0.1,0-0.1,0-0.1,0.1s0,0.1,0,0.1C92.1,8.5,92.2,8.5,92.3,8.4
		C92.3,8.5,92.3,8.4,92.3,8.4z M94.7,8.8c0,0-0.1,0-0.1,0.1s-0.1,0-0.1,0c0,0,0,0.1,0,0.1c0,0,0.1-0.1,0.1-0.1
		C94.6,8.9,94.7,8.8,94.7,8.8z M93.8,7.5c0.2,0,0.5,0.1,0.8,0.3C94.8,7.9,95,8,95.3,8.1c0.2,0.2,0.3,0.3,0.3,0.3
		c0.2,0,0.3,0.1,0.4,0.3C96,8.8,96.1,8.9,96.2,9c0.1,0.1,0.1,0.2,0.3,0.2c0.2,0,0.3,0,0.3,0.1c0,0.1,0,0.2,0,0.3
		c0,0.1,0.1,0.2,0.2,0.4c0.2,0.3,0.4,0.5,0.5,0.6c0.1,0.2,0.1,0.4,0.1,0.7c0,0.3,0,0.6,0,0.9c0,0.3,0,0.5-0.1,0.8
		c-0.1,0.2-0.3,0.4-0.5,0.5c-0.1,0-0.2,0.1-0.3,0.1c-0.1,0.1-0.2,0.1-0.2,0.3c0,0.1,0.1,0.1,0.2,0.1c0.1,0,0.2,0.1,0.3,0.2
		c0.1,0.1,0.2,0.2,0.2,0.3c0,0.2-0.1,0.5-0.3,0.8c-0.2,0.3-0.4,0.5-0.6,0.8c-0.3,0.3-0.5,0.5-0.7,0.8c-0.2,0.2-0.3,0.5-0.3,0.7
		c0,0.2,0.1,0.4,0.3,0.5s0.3,0.3,0.5,0.3c0.1,0,0.1,0,0.2,0c0.1,0,0.2,0,0.3,0c0.2,0,0.4,0.1,0.5,0.3c0.1,0.2,0.2,0.5,0.2,0.8
		c0,0.3-0.1,0.6-0.3,0.8c-0.1,0.2-0.3,0.5-0.4,0.7c-0.2,0.2-0.3,0.5-0.3,0.8c0,0.1-0.1,0.2-0.2,0.3s-0.2,0.1-0.3,0.1
		c-0.1,0-0.3-0.1-0.4-0.2c-0.1-0.1-0.3-0.2-0.5-0.3c-0.1-0.1-0.3-0.1-0.4-0.1c0,0-0.1,0-0.2,0c0,0-0.1,0-0.1,0c0,0-0.1-0.1-0.1-0.1
		c0-0.1,0-0.1,0-0.2c0-0.1,0-0.3,0-0.4c0-0.1,0.1-0.2,0.1-0.3c0-0.1,0-0.3-0.1-0.4c-0.1-0.2-0.1-0.3-0.3-0.3c0,0,0,0,0,0.1
		c0,0,0,0,0,0.1c0,0.1,0,0.1,0,0.3c0,0.1,0,0.1,0,0.2c0,0.3-0.1,0.4-0.3,0.5c-0.2,0.1-0.4,0.2-0.7,0.3c-0.2,0.1-0.4,0.3-0.6,0.5
		c0,0-0.1,0-0.1,0c0,0-0.1,0-0.1,0c-0.1,0-0.3,0-0.4-0.1c-0.1,0-0.2-0.1-0.3-0.1c-0.1,0-0.2,0-0.3,0.1c-0.1,0.1-0.2,0.1-0.3,0.1
		c-0.2,0-0.3,0-0.4-0.1c-0.1-0.1-0.1-0.1-0.2-0.1c-0.1,0-0.1,0.1-0.1,0.2s0,0.3,0,0.4c0,0.2-0.2,0.3-0.4,0.3c-0.1,0-0.1,0-0.1,0
		l-0.1,0c0,0.1,0,0.1,0.1,0.1c0.1,0.1,0.1,0.1,0.1,0.2c0,0.1,0,0.2-0.1,0.2c-0.1,0.1-0.1,0.1-0.2,0.1c-0.1,0-0.2-0.1-0.3-0.3
		c-0.1-0.2-0.1-0.4-0.1-0.5l0,0v0c0,0,0,0.1,0,0.1c0,0,0,0.1,0,0.1c-0.1,0.2-0.1,0.3-0.1,0.5c0,0.1,0,0.3,0,0.5c0,0.2,0,0.3,0,0.5
		c0,0.1,0,0.3,0,0.5c0.1-0.1,0.1-0.3,0.2-0.4c0.1-0.3,0.2-0.4,0.3-0.4c0.1,0,0.2,0.1,0.3,0.2c0.1,0.2,0.1,0.3,0.2,0.5
		c0,0.2,0,0.4,0,0.5c0,0.3-0.1,0.6-0.2,0.9c-0.1,0.3-0.1,0.6-0.1,0.9c0,0.2,0,0.4,0.1,0.6s0.1,0.4,0.2,0.6c0,0.1-0.1,0.3-0.1,0.5
		c-0.1,0.2-0.1,0.3-0.1,0.5c0,0.1,0,0.2,0,0.3c0,0.1,0,0.2,0,0.3c0,0.1,0,0.2,0,0.3c0,0.1,0,0.1,0.1,0.2c0.1,0.1,0.1,0.1,0.2,0.1
		c0.1,0,0.1-0.1,0.1-0.2c0-0.1,0-0.2,0-0.4C89.9,29,90,29,90,29h0c0,0,0.1,0,0.2,0c0,0,0.1,0,0.1-0.1c0-0.1,0-0.1,0-0.2
		c0-0.1,0-0.2-0.1-0.3c-0.1-0.1-0.2-0.1-0.3-0.2c-0.1-0.1-0.2-0.2-0.2-0.3c0-0.1,0.1-0.2,0.2-0.3c0.1,0,0.3,0,0.3,0
		c0.2,0,0.3,0,0.5,0.2c0.2,0.1,0.3,0.2,0.3,0.4c0,0.1,0,0.3-0.1,0.4c-0.1,0.1-0.1,0.3-0.1,0.4c0,0.1,0,0.2,0,0.3
		c0,0.1,0.1,0.3,0.1,0.3c0.1-0.1,0.2-0.3,0.3-0.5c0.1-0.2,0.1-0.3,0.1-0.5c0,0,0-0.1,0-0.1c0,0,0-0.1,0-0.1c0-0.2,0-0.4,0.1-0.6
		c0.1-0.3,0.2-0.5,0.3-0.7C92,27,92,27,92.1,27c0.2-0.1,0.4-0.2,0.6-0.4c0.2-0.2,0.3-0.3,0.5-0.4c0.2-0.1,0.3-0.2,0.5-0.2
		c0.1,0,0.1,0,0.1,0.1c0,0.1,0,0.2,0.1,0.5c0.1-0.1,0.2-0.2,0.2-0.3c0.1-0.2,0.2-0.3,0.3-0.3c0.1,0,0.1,0,0.2,0c0.1,0,0.2,0,0.3,0
		c0-0.1,0-0.2,0-0.3c0-0.1,0-0.2,0-0.2c0.2-0.1,0.3-0.2,0.4-0.4c0.1-0.2,0.2-0.3,0.3-0.4c0.2-0.1,0.4-0.3,0.6-0.5
		c0.2-0.2,0.4-0.4,0.6-0.6c0.2-0.2,0.3-0.3,0.3-0.3c0-0.1-0.1-0.1-0.2-0.1c-0.1,0-0.2-0.1-0.3-0.2c0-0.1,0-0.1,0-0.2
		c0-0.1,0.1-0.2,0.2-0.2c0,0,0.1,0,0.1,0.1c0,0,0.1,0,0.1,0c0.2,0,0.3-0.1,0.3-0.4c0-0.3,0.1-0.5,0.1-0.8S97.8,21,98,21
		c0.1,0,0.3,0.1,0.4,0.3c0.1,0.2,0.2,0.4,0.3,0.6c0,0.2,0,0.4,0,0.6c0,0.3,0,0.6,0,1c-0.1,0.4-0.1,0.7-0.2,1c0,0.1-0.1,0.2-0.2,0.3
		c-0.1,0.1-0.2,0.1-0.3,0.2c-0.1,0.1-0.1,0.2-0.1,0.3c0,0,0,0.1,0,0.1v0.1c0,0.2-0.1,0.5-0.2,0.8c-0.2,0.2-0.3,0.5-0.5,0.7
		c-0.2,0.2-0.3,0.4-0.4,0.5c-0.2,0.4-0.5,0.6-0.8,0.8c-0.4,0.2-0.7,0.3-1,0.4c0-0.1,0-0.3,0-0.4c0-0.2-0.1-0.3-0.2-0.3
		c-0.1,0-0.2,0.1-0.3,0.3c-0.1,0.2-0.2,0.4-0.3,0.7c-0.1,0.2-0.3,0.3-0.5,0.4c-0.2,0-0.3,0.1-0.5,0.2c-0.2,0.1-0.3,0.2-0.5,0.2
		c0,0-0.1,0-0.1,0c0,0-0.1,0-0.1,0c-0.1,0-0.1,0.1-0.2,0.3c0,0.1-0.1,0.2-0.2,0.3c-0.1,0.1-0.2,0.2-0.4,0.2c-0.3,0-0.5,0-0.8,0.2
		c-0.3,0.1-0.5,0.2-0.8,0.4c0,0-0.1,0-0.1,0c0,0-0.1,0-0.1,0s-0.1,0-0.1,0c0,0,0-0.1,0-0.2c0-0.1,0-0.1,0-0.2c0-0.1,0-0.1,0-0.2
		c0,0,0-0.1,0-0.1c0,0-0.1,0-0.1,0c-0.1,0-0.1,0-0.1,0.1c0,0.1,0,0.1,0,0.2c-0.1,0.4-0.3,0.6-0.6,0.8s-0.5,0.3-0.8,0.3
		c-0.1,0-0.1,0-0.2-0.1c0-0.1,0-0.2,0-0.4c0-0.2,0-0.3,0.1-0.3c0.1-0.1,0.1-0.1,0.1-0.2s0-0.1,0-0.2c0-0.1-0.1-0.1-0.1-0.1
		c0,0.1,0,0.2-0.1,0.3c0,0.1,0,0.2,0,0.3c0,0,0,0.1,0,0.1v0c-0.2,0-0.3,0-0.4,0.1c-0.1,0-0.3,0-0.4,0c-0.2,0-0.3-0.2-0.4-0.6
		c-0.1-0.4-0.3-0.8-0.4-1.4c0,0,0-0.1,0-0.1c0,0,0-0.1,0-0.1c0-0.1,0.1-0.2,0.1-0.4c0.1-0.1,0.1-0.2,0.1-0.3c0-0.1,0-0.3-0.1-0.3
		c0-0.1-0.1-0.3-0.1-0.4c0-0.3,0.1-0.4,0.3-0.5c0.2-0.1,0.3-0.1,0.5-0.2c0.2-0.1,0.3-0.3,0.4-0.5c0-0.1,0-0.2,0-0.3
		c0-0.1,0-0.2,0-0.3c0-0.1,0-0.1,0-0.1c0,0-0.1-0.1-0.1-0.1c-0.1,0-0.2,0.1-0.3,0.2c-0.1,0.1-0.1,0.2-0.1,0.3c0,0,0,0.1,0,0.1
		c0,0.1,0,0.1,0,0.2c0,0.1,0,0.2,0,0.3c-0.1,0.1-0.2,0.2-0.3,0.3c-0.1,0.1-0.2,0.2-0.2,0.3c0,0.1-0.1,0.3-0.1,0.4
		c-0.1,0-0.2-0.1-0.3-0.2c0-0.1,0-0.2,0-0.3c0-0.2,0-0.4,0.2-0.6c0.1-0.2,0.2-0.4,0.3-0.6c0.1-0.2,0.1-0.4,0.2-0.6
		c0-0.1-0.1-0.2-0.1-0.3c0-0.1,0-0.2,0-0.3c0-0.2,0-0.4,0-0.6c0-0.2,0-0.3,0-0.5c0-0.1,0-0.2-0.1-0.5c0-0.2-0.1-0.4-0.2-0.5
		c-0.1-0.2-0.1-0.3-0.1-0.3s-0.1,0-0.1,0.1c0,0.1-0.1,0.1-0.3,0.1c-0.1,0-0.1-0.1-0.2-0.4c-0.1-0.2-0.1-0.3-0.1-0.5
		c0,0.1,0,0.1-0.1,0.2c-0.1,0.1-0.2,0.3-0.3,0.4c-0.1,0.1-0.2,0.2-0.4,0.2c0.1,0.1,0.1,0.2,0.2,0.3c0.1,0.1,0.1,0.2,0.1,0.3
		c0,0.1,0,0.2-0.1,0.3c0,0.1-0.1,0.1-0.1,0.3c0,0.2-0.1,0.5-0.1,0.7C85,24.4,85,24.6,85,24.8c0,0.2,0.1,0.4,0.2,0.6
		c0.1,0.2,0.1,0.3,0.1,0.5c0,0.1,0,0.1,0,0.3c-0.1,0.1-0.1,0.2-0.1,0.3c0,0.1,0.1,0.2,0.2,0.2c0.1,0,0.2,0.1,0.2,0.3
		c0,0.1,0,0.1,0,0.3c-0.1,0.1-0.1,0.2-0.1,0.3c0,0.1,0,0.1,0,0.1c0,0,0,0.1,0,0.1c0.1,0.1,0.2,0.3,0.3,0.6s0,0.5,0,0.7
		c0,0.2-0.1,0.3-0.2,0.4c-0.1,0.1-0.2,0.2-0.3,0.4c-0.1,0.3-0.2,0.5-0.3,0.7c-0.2,0.2-0.4,0.3-0.7,0.4C84.2,30.9,84,31,83.8,31
		c-0.1,0-0.3,0-0.5-0.2C83,30.7,83,30.6,83,30.5c0-0.1,0-0.1,0-0.2c0-0.1,0-0.1,0-0.3v0c-0.2,0-0.3-0.1-0.3-0.3
		c0-0.2-0.1-0.4-0.1-0.6c0-0.2-0.1-0.3-0.2-0.4c0-0.2,0-0.3,0-0.5c0-0.2,0-0.3,0-0.5c0-0.5,0-0.9,0.1-1.1c0.1-0.3,0.3-0.4,0.7-0.4
		c0-0.1,0-0.3,0-0.4c0-0.1-0.1-0.1-0.3-0.1h-0.1c-0.2,0-0.3-0.2-0.3-0.5c0-0.3,0-0.5,0-0.8c0.1-0.1,0.2-0.2,0.3-0.2
		c0.1-0.1,0.2-0.1,0.2-0.2c0-0.1,0-0.1-0.1-0.2c-0.1-0.1-0.2-0.2-0.2-0.4c0-0.8,0-1.7,0-2.5c0-0.8,0.1-1.6,0.1-2.4
		c0-0.3,0.1-0.5,0.1-0.8c0-0.2,0-0.4,0-0.7c0-0.3-0.1-0.5-0.3-0.7c-0.1-0.1-0.4-0.2-0.8-0.2l-0.3,0.2c-0.1,0.2-0.3,0.3-0.5,0.5
		c-0.2,0.2-0.3,0.4-0.4,0.6c0.1,0.1,0.3,0.1,0.4,0.3c0.2,0.1,0.3,0.2,0.3,0.3c0,0.1,0,0.1-0.1,0.2c-0.1,0.1-0.1,0.1-0.3,0.1
		c-0.2,0-0.3-0.1-0.3-0.3c0-0.2,0-0.3,0-0.5c-0.3,0.2-0.5,0.4-0.7,0.5c-0.2,0.2-0.3,0.3-0.3,0.5c-0.1,0.1-0.1,0.3-0.1,0.6
		c0.1,0,0.2,0.1,0.3,0.2c0.1,0.1,0.2,0.2,0.3,0.2c0,0.2-0.1,0.3-0.2,0.4c-0.1,0.1-0.2,0.1-0.3,0.3c-0.1,0.1-0.2,0.3-0.3,0.5
		c0,0.1,0,0.2-0.1,0.3c-0.1,0.1-0.1,0.2-0.3,0.2l0.1,0.5l-0.4,0.8c-0.3,0.1-0.5,0.4-0.7,0.7c-0.2,0.3-0.3,0.5-0.5,0.8
		s-0.4,0.3-0.7,0.3c-0.2,0-0.5-0.1-0.8-0.3c-0.3-0.2-0.5-0.5-0.8-0.8C75,22.8,75,22.6,75,22.3c0-0.1,0-0.2,0-0.3s0-0.2,0-0.3
		c0-0.1,0-0.1,0-0.1c0,0,0,0,0,0s-0.1,0-0.2,0c0,0-0.1,0-0.1,0c-0.1,0-0.2-0.1-0.3-0.2c-0.1-0.1-0.2-0.2-0.2-0.3
		c-0.1-0.3-0.2-0.6-0.3-0.9c-0.2-0.4-0.4-0.7-0.6-1c-0.2-0.2-0.3-0.4-0.3-0.4c0,0-0.1,0-0.1,0c0,0-0.1,0.1-0.1,0.1
		c-0.1,0-0.1-0.1-0.1-0.3s-0.1-0.3-0.1-0.4c0,0.1-0.1,0.2-0.3,0.5c-0.1,0.3-0.2,0.5-0.3,0.6c0,0.5,0.1,0.9,0.2,1.1l0.2,0.5
		c0,0.1,0,0.3-0.1,0.4c-0.1,0.1-0.1,0.3-0.1,0.3c0,0.2,0,0.3,0.1,0.5c0,0.2,0,0.3,0,0.5c0,0.1,0,0.1-0.1,0.3
		c-0.1,0.1-0.1,0.2-0.1,0.3c0,0.1,0,0.1,0.1,0.3c0.1,0.1,0.1,0.2,0.1,0.3c0,0.3,0,0.6-0.1,0.8c-0.1,0.3-0.2,0.5-0.4,0.6
		c0,0,0,0.1,0,0.1s0,0.1,0,0.1c0.1,0,0.2-0.1,0.2-0.2c0-0.1,0.1-0.3,0.1-0.3c0.2,0.2,0.3,0.4,0.3,0.7c0,0.2,0,0.4,0,0.7
		c0,0.2,0,0.4,0,0.7c0,0.2,0,0.4,0,0.6c0,0.2,0,0.4,0,0.5c0.1,0.2,0.1,0.4,0.1,0.6c0,0.3,0,0.5-0.1,0.7c0,0.2-0.2,0.4-0.4,0.4
		c-0.1,0-0.1,0-0.2-0.1c-0.1,0-0.2-0.1-0.2-0.1c-0.1,0-0.1,0-0.2,0.1c0,0.1,0,0.1-0.1,0.3c0,0.1-0.1,0.2-0.3,0.2c0,0,0-0.1,0-0.1
		s0-0.1,0-0.1c0-0.2,0.1-0.4,0.2-0.6c0.1-0.2,0.2-0.4,0.3-0.5L70.8,29c-0.1,0-0.1-0.1-0.1-0.2c0-0.1,0-0.1,0-0.1c0-0.1,0-0.3,0-0.4
		c0-0.2,0.1-0.3,0.1-0.4c0-0.1-0.1-0.2-0.1-0.3c0,0,0,0-0.2,0c0,0-0.1,0-0.1,0c0,0-0.1,0.1-0.1,0.1c0.1,0.2,0.1,0.3,0.2,0.4
		c0,0.1,0,0.2,0,0.3c0,0.1,0,0.2-0.1,0.3c-0.1,0.1-0.2,0.2-0.3,0.3c-0.1,0.1-0.1,0.2-0.1,0.3c0,0,0.1,0.1,0.2,0.1
		c0.1,0,0.2,0.1,0.2,0.2c0,0.2-0.1,0.3-0.2,0.5C70.2,30,70,30,69.9,30c-0.1,0-0.2-0.1-0.3-0.2c-0.1-0.1-0.1-0.3-0.1-0.4
		c0-0.2,0-0.4,0.1-0.6c0.1-0.2,0.1-0.4,0.1-0.6c0-0.2,0-0.3,0.1-0.5c0-0.2,0.1-0.4,0.1-0.5c0-0.1,0-0.2,0-0.3c0-0.1,0-0.2,0-0.3
		c0-0.1,0-0.2,0-0.2c0-0.1,0.1-0.1,0.1-0.1h0.2c0.2,0,0.4-0.1,0.5-0.3c0.1-0.2,0.3-0.3,0.3-0.5c0,0,0-0.1,0-0.1h0
		c-0.1,0-0.3,0.1-0.5,0.2c-0.2,0.1-0.5,0.2-0.7,0.3c0,0-0.1,0-0.1-0.1c-0.1-0.1-0.1-0.1-0.1-0.2c0-0.1,0-0.1,0-0.2s0-0.1,0-0.2V25
		c0-0.2,0.1-0.3,0.2-0.5c0.1-0.2,0.1-0.3,0.1-0.5c0-0.1,0-0.2,0-0.4c0-0.1,0-0.3,0-0.4c0-0.2,0-0.4,0-0.7c0-0.2,0.1-0.5,0.1-0.6
		c0-0.2,0-0.3,0-0.4s0.1-0.1,0.2-0.1c0.1,0,0.2,0,0.3,0c0.1-0.1,0.1-0.2,0.1-0.3v-0.1h0c0,0-0.1,0-0.1,0.1h-0.1
		c-0.1,0-0.3,0-0.3-0.1c0,0,0-0.1,0-0.3c0-0.2,0-0.3,0-0.5c0-0.2,0-0.3,0-0.5v-0.4c0-0.3,0-0.6,0.2-0.8c0.1-0.2,0.3-0.5,0.4-0.7
		L70.5,18c-0.1-0.1-0.1-0.1-0.2-0.2c0-0.1,0-0.1,0-0.3c0-0.2,0-0.4,0.1-0.6c0.1-0.2,0.1-0.5,0.1-0.6V16c0-0.2,0-0.4,0.1-0.5
		c0.1-0.2,0.1-0.4,0.2-0.6c0-0.1-0.1-0.3-0.1-0.4c0-0.1-0.1-0.3-0.1-0.4c0-0.1,0.1-0.3,0.2-0.6c0.1-0.3,0.3-0.6,0.5-0.9
		c0.2-0.3,0.3-0.6,0.5-0.8c0.2-0.2,0.3-0.3,0.4-0.3c0.1,0,0.1,0.1,0.2,0.3c0.1,0.2,0.1,0.4,0.2,0.6c0,0.2,0.1,0.5,0.2,0.6
		c0,0.2,0.1,0.3,0.1,0.3c0.1,0,0.3,0,0.4,0s0.3,0,0.5,0c0,0.2,0.1,0.4,0.1,0.5C73.9,14,74,14,74,14c0.1,0,0.1,0,0.2,0
		c0.1,0,0.1,0,0.1,0c0.2,0,0.3,0.1,0.3,0.3c0,0.2,0.1,0.4,0.1,0.5c0,0.2,0.1,0.4,0.2,0.5c0.1,0.1,0.2,0.2,0.2,0.3
		c0.1,0.1,0.1,0.2,0.1,0.3c0,0.2,0,0.4-0.2,0.6c0.1,0.1,0.2,0.1,0.3,0.3c0,0.1,0,0.2,0.1,0.3c0.1,0,0.1-0.1,0.1-0.1
		c0.1,0,0.1-0.1,0.2-0.1c0.1,0,0.2,0.1,0.3,0.3c0.1,0.2,0.1,0.4,0.2,0.6c0,0.2,0.1,0.3,0.1,0.4c0.2,0.1,0.3,0.3,0.3,0.5
		c0.1,0.2,0.1,0.4,0.2,0.6c0-0.1,0-0.2,0-0.4c0-0.1,0.1-0.2,0.3-0.2c0,0,0,0,0,0.1c0,0,0,0.1,0,0.1c0,0.1,0,0.2-0.1,0.3
		c-0.1,0.1-0.2,0.1-0.3,0.1c0.1,0.1,0.3,0.2,0.4,0.3c0.1,0.1,0.2,0.2,0.3,0.2l0.2-0.4c0.1-0.2,0.3-0.5,0.5-0.9
		c0.2-0.4,0.4-0.7,0.5-1.1c0.2-0.4,0.3-0.6,0.5-0.8c0.1-0.2,0.2-0.3,0.4-0.4c0.2-0.1,0.3-0.3,0.3-0.5c0-0.1,0.1-0.3,0.3-0.5
		c0.1-0.2,0.3-0.3,0.4-0.5c0.1-0.2,0.2-0.3,0.3-0.4c0.2-0.2,0.3-0.4,0.5-0.8c0.2-0.3,0.3-0.6,0.4-0.9c0.1-0.2,0.2-0.4,0.3-0.4
		c0,0,0.1,0,0.1,0.1c0.1,0.1,0.1,0.1,0.2,0.1s0,0,0,0c0,0,0-0.1,0-0.1c0-0.1,0-0.1,0-0.2c0-0.1,0-0.1,0-0.3c0-0.1,0.1-0.2,0.3-0.3
		c0.1-0.1,0.3-0.2,0.4-0.3c0.1,0,0.2-0.1,0.3-0.1c0,0,0.1,0,0.1,0.1c0,0,0,0.1,0,0.2c0,0.3-0.1,0.5-0.3,0.6
		c-0.1,0.2-0.2,0.3-0.2,0.4c0,0.1,0,0.1,0,0.2c0,0,0,0.1,0,0.1c0-0.1,0.1-0.1,0.1-0.3c0-0.1,0.1-0.1,0.1-0.2
		c0.2-0.1,0.4-0.4,0.6-0.8c0.1-0.4,0.3-0.8,0.4-1.1c0.2-0.3,0.4-0.5,0.6-0.6c0.1,0,0.1,0,0.1,0.1c0,0,0,0.1,0,0.1
		c0,0.1-0.1,0.2-0.1,0.3c-0.1,0.1-0.2,0.3-0.2,0.4v0.4c0.1-0.1,0.2-0.1,0.3-0.1c0.1,0,0.1-0.1,0.2-0.1c0.1,0,0.1,0.1,0.1,0.1
		c0,0.2,0,0.5-0.1,0.7c-0.1,0.2-0.2,0.3-0.3,0.4l0.2-0.1v0.3c0,0.1,0,0.2-0.1,0.3c-0.1,0.1-0.2,0.1-0.4,0.1c0,0,0.1,0.1,0.1,0.1
		c0.1,0.1,0.2,0.1,0.3,0.1c0.3,0,0.5,0.1,0.7,0.4c0.2,0.2,0.3,0.5,0.4,0.8c0.1,0.3,0.2,0.6,0.2,0.9c0,0.4-0.1,0.8-0.3,1.1
		c-0.1,0.4-0.3,0.8-0.4,1.3v0c0,0.1,0,0.1,0.1,0.2c0,0.1,0,0.1,0.1,0.1c0,0,0-0.1,0-0.1c0,0,0.1,0,0.1,0c0.1,0,0.2,0.1,0.2,0.1
		c0.1,0,0.1,0.1,0.1,0.1c0,0.2-0.1,0.3-0.3,0.4c-0.2,0-0.3,0.1-0.5,0.1c-0.2,0.1-0.3,0.1-0.3,0.3c0,0,0,0.1,0,0.1c0,0.1,0,0.1,0,0.1
		c0.2,0,0.3,0.1,0.5,0.3c0.1,0.2,0.2,0.4,0.2,0.6c0.1,0.2,0.1,0.4,0.1,0.6c0,0.2-0.1,0.3-0.2,0.4c-0.1,0.1-0.3,0.2-0.4,0.2
		c0-0.1,0-0.2,0.1-0.3c0-0.1,0-0.1,0-0.2c0-0.1,0-0.1-0.1-0.2c0,0-0.1-0.1-0.2-0.1s-0.1,0-0.1,0.1c0,0,0,0.1,0,0.1
		c0,0.2,0.1,0.4,0.2,0.5c0.2,0.1,0.3,0.3,0.4,0.4c0.1,0,0.1,0.1,0.2,0.1c0-0.2,0-0.4,0-0.4c0-0.1,0-0.2,0-0.2c0.1,0,0.1,0,0.2,0
		c0.1,0,0.2,0,0.3,0.1c0,0.1,0.1,0.1,0.1,0.2c0,0,0.1,0,0.2-0.1c0-0.1,0-0.1,0-0.1c0-0.1,0-0.2-0.1-0.3c0-0.1-0.1-0.2-0.1-0.3
		c0-0.2,0.1-0.5,0.2-0.8c0.1-0.2,0.1-0.5,0.1-0.8c0-0.1,0-0.2,0-0.3c0-0.1,0-0.1,0-0.3c0-0.8,0.1-1.6,0.2-2.4
		c0.1-0.8,0.2-1.7,0.4-2.5c0,0,0-0.1,0-0.1c0,0,0-0.1,0-0.1c0-0.1,0-0.1,0-0.3c0-0.1,0-0.1,0-0.3c0-0.4,0-0.8,0.1-1.3
		c0.1-0.4,0.2-0.8,0.3-1.3c0-0.1,0-0.3,0-0.4c0-0.2,0.1-0.3,0.1-0.5c0-0.2,0-0.3,0.1-0.3c0.1,0,0.1,0,0.2,0.1
		c0.1,0.1,0.1,0.1,0.2,0.1c0.1,0,0.1,0,0.1-0.1c0-0.1,0-0.3,0-0.4c0.1-0.1,0.2-0.2,0.4-0.3C88.8,8.3,88.9,8.2,89,8
		c0.2-0.2,0.3-0.3,0.4-0.3c0.1,0,0.2,0.1,0.2,0.2c0.1,0.1,0.1,0.3,0.2,0.3c0,0.1,0.1,0.2,0.2,0.3c0,0,0.1-0.1,0.1-0.2
		c0.1-0.1,0.1-0.2,0.1-0.4c0-0.1,0-0.1,0-0.1V7.8c0-0.1,0-0.2,0-0.2c0,0,0.1-0.1,0.1-0.1c0.1,0,0.2,0,0.3,0.1s0.3,0,0.3,0
		c0.2,0,0.4-0.1,0.6-0.2c0.2-0.1,0.3-0.2,0.4-0.2c0.1,0,0.2,0,0.3,0.1c0.1,0.1,0.2,0.1,0.3,0.1c0.1,0,0.2,0,0.3,0s0.1,0,0.3,0
		c0.1,0,0.2,0,0.3,0.1c0.1,0,0.2,0.1,0.3,0.1c0.1,0,0.1,0,0.2-0.1C93.7,7.5,93.8,7.5,93.8,7.5z M114.5,15c0.1-0.1,0.1-0.1,0.2-0.2
		c0,0,0-0.1,0-0.1c0,0,0,0,0,0c0,0-0.1-0.1-0.1-0.1c0,0-0.1,0.1-0.1,0.1s0,0.1,0,0.1c0,0,0,0.1,0,0.1
		C114.5,14.8,114.5,14.9,114.5,15z M101.7,20.8c0-0.1,0-0.2,0-0.2c0-0.1-0.1-0.1-0.1-0.2c0,0,0-0.1,0.1-0.1c0-0.1,0.1-0.1,0.1-0.1
		s0.1,0,0.1,0c0,0,0.1,0.1,0.1,0.1s0,0.1-0.1,0.2C101.8,20.5,101.8,20.6,101.7,20.8z M102.7,16L102.7,16L102.7,16L102.7,16z
		 M102.7,13.9c0,0,0-0.1,0-0.1c0,0,0-0.1,0-0.1c0-0.1,0.1-0.2,0.1-0.2s0.1,0,0.2,0c0,0,0,0.1,0,0.1c0,0,0,0.1,0,0.1
		c0,0.1-0.1,0.1-0.1,0.1C102.8,13.9,102.8,13.9,102.7,13.9L102.7,13.9z M101.3,10.5c0.1,0.1,0,0.2,0,0.4c0,0.1-0.1,0.1-0.1,0.3
		c-0.1,0.1-0.1,0.1-0.2,0.2c0,0-0.1,0-0.1,0c-0.1,0-0.1,0-0.2,0c-0.1-0.1-0.1-0.2-0.2-0.4c0-0.1,0-0.3,0.1-0.4
		c0-0.1,0.1-0.1,0.1-0.1c0-0.1,0.1-0.1,0.1-0.1C101.1,10.4,101.2,10.4,101.3,10.5z M101.4,11.6L101.4,11.6l0-0.1L101.4,11.6z
		 M118.9,9.1L118.9,9.1c0-0.1-0.1-0.1-0.1-0.1c-0.1,0-0.2,0.1-0.3,0.3c-0.1,0.1-0.1,0.3-0.1,0.4v0c0,0,0,0.1,0,0.1
		c0.1-0.1,0.2-0.1,0.2-0.2c0.1-0.1,0.1-0.1,0.1-0.3c0,0,0-0.1,0-0.1C118.9,9.2,118.9,9.2,118.9,9.1z M114.3,12.2h0.1v-0.1
		c0,0,0-0.1-0.1-0.1C114.3,12.1,114.3,12.1,114.3,12.2C114.3,12.2,114.3,12.2,114.3,12.2z M114.3,11.4
		C114.3,11.4,114.3,11.5,114.3,11.4h0.2c0,0,0-0.1,0-0.1c0,0-0.1-0.1-0.1-0.1c0,0-0.1-0.1-0.1-0.1l0,0c0,0.1-0.1,0.1-0.1,0.1
		C114.1,11.3,114.2,11.4,114.3,11.4z M122.5,28.3c-0.1,0-0.2,0-0.3,0c0,0-0.1,0-0.2,0c0,0-0.1,0-0.1,0c-0.1,0.1-0.1,0.1-0.2,0.2
		c0,0,0,0.1,0,0.1l0,0c0,0.1,0,0.1,0,0.2c0,0.1,0,0.1,0,0.2c0-0.2,0.1-0.3,0.3-0.4C122.2,28.5,122.3,28.4,122.5,28.3
		c0.1,0,0.2-0.1,0.2-0.2c0,0,0-0.1,0-0.1v0c-0.1,0.1-0.1,0.1-0.1,0.1C122.5,28.1,122.5,28.2,122.5,28.3z M122.2,10.1
		c-0.1-0.1-0.3-0.1-0.5-0.3c0,0.2,0,0.3,0,0.4c0,0.2,0,0.3,0,0.5c0,0,0,0.1,0,0.1c0,0,0.1,0.1,0.1,0.1c0.1,0,0.1,0,0.2-0.1
		c0.1-0.1,0.2-0.2,0.3-0.3c0.1-0.1,0.1-0.2,0.1-0.3C122.3,10.2,122.3,10.1,122.2,10.1z M124,9.9L124,9.9c0,0.1-0.1,0.1-0.1,0.1
		c0,0,0,0.1,0.1,0.1v0l0,0C124,10,124,10,124,9.9z M126,6.8c0,0,0,0.1,0,0.2v0c0,0,0,0.1,0,0.1c0,0.1,0,0.1,0,0.2l0,0.1
		c0,0,0.1,0,0.2-0.1c0.1-0.1,0.1-0.2,0.3-0.3l0,0c0,0,0.1,0,0.1,0c0,0,0.1,0,0.2,0c0,0.1,0,0.1,0,0.2c0,0.3,0,0.5,0,0.8
		c0,0.3,0,0.5-0.1,0.8c-0.1,0.3-0.2,0.5-0.3,0.9c-0.1,0.3-0.3,0.6-0.4,0.8c-0.2,0.2-0.3,0.4-0.5,0.4c-0.1,0-0.2,0-0.3,0
		c-0.1-0.1-0.1-0.1-0.1-0.2c0-0.2,0-0.3,0.1-0.4c0.1-0.1,0.2-0.2,0.2-0.3c0-0.1,0-0.2,0-0.3c0-0.1,0-0.1,0-0.2
		c-0.2,0.2-0.4,0.4-0.6,0.6c-0.2,0.1-0.3,0.3-0.3,0.4c0,0.1,0,0.1,0,0.1c0,0,0,0.1,0,0.2c0,0,0,0.1,0,0.1l-0.1,0.1
		c-0.3,0-0.5,0-0.8,0c-0.3,0-0.5,0-0.8-0.1c0,0.1-0.1,0.3-0.2,0.4c-0.1,0.1-0.3,0.2-0.5,0.3c-0.2,0.1-0.3,0.1-0.4,0.1
		c-0.1,0-0.1,0-0.2,0c-0.1,0-0.1,0-0.2,0s-0.2,0-0.3,0c-0.1,0-0.2,0-0.3,0c0,0-0.1,0-0.1,0c-0.1,0-0.1,0-0.1,0c-0.1,0-0.1,0-0.2,0.1
		s-0.2,0.2-0.3,0.3c-0.1,0.1-0.2,0.1-0.3,0.1c-0.5,0-0.9,0.1-1.4,0.3c-0.4,0.2-0.9,0.3-1.3,0.3c-0.1,0-0.2,0-0.3,0
		c-0.3,0-0.4,0.1-0.5,0.3c-0.1,0.2-0.1,0.4,0,0.5c0,0.2,0,0.4-0.1,0.6c-0.1,0.2-0.2,0.3-0.5,0.3c-0.1,0-0.1,0-0.1,0
		c0-0.1,0-0.1,0-0.1c0-0.1,0-0.1,0-0.2c0-0.1,0-0.1,0-0.2c0-0.1,0-0.1,0-0.2c0,0-0.1-0.1-0.1-0.1c-0.1,0.1-0.2,0.2-0.2,0.4
		c0,0.1-0.1,0.3-0.1,0.4c0,0.2,0,0.3,0.1,0.4c0.1,0.1,0.1,0.3,0.1,0.4c0,0.1,0,0.2,0,0.3c0,0-0.1,0.1-0.1,0.2
		c-0.3,0.2-0.4,0.4-0.5,0.6c-0.1,0.2-0.1,0.5-0.1,0.8c0,0,0,0.1,0,0.2c0,0,0,0.1,0,0.1c0,0.1,0,0.3-0.1,0.4
		c-0.1,0.1-0.2,0.1-0.3,0.1c-0.1,0-0.2-0.1-0.3-0.3c-0.1-0.1-0.2-0.2-0.3-0.2l-0.1,0.1c0,0.2,0,0.4,0.1,0.5c0.1,0.1,0.1,0.3,0.1,0.4
		s0,0.2-0.2,0.3c-0.1,0.1-0.2,0.2-0.2,0.4s0,0.3,0.1,0.4c0,0.1,0,0.2,0,0.4c0,0.1-0.1,0.2-0.2,0.2c-0.1,0.1-0.2,0.1-0.2,0.3
		c0,0.1,0,0.3,0,0.4c0,0.2,0.1,0.3,0.1,0.5c0.2-0.1,0.3-0.2,0.3-0.3c0.1-0.2,0.1-0.3,0.2-0.5c0.1-0.2,0.3-0.3,0.5-0.3
		c0.1,0,0.1,0,0.3,0.1c0.1,0.1,0.2,0.1,0.3,0.1c0,0,0.1-0.1,0.2-0.3c0.1-0.1,0.1-0.3,0.2-0.4c0.1-0.1,0.2-0.2,0.3-0.2
		c0.1,0,0.2,0.1,0.3,0.2c0.1,0.1,0.3,0.1,0.3,0.1c0,0,0.1,0,0.2,0c0,0,0.1,0,0.1,0l0.1,0.1c0,0,0.1-0.1,0.1-0.2
		c0-0.1,0.1-0.2,0.1-0.3c0-0.1,0.1-0.2,0.2-0.2s0.2,0,0.3,0.1c0.1,0.1,0.2,0.1,0.3,0.1c0.1,0,0.2,0,0.4-0.1c0.1-0.1,0.2-0.2,0.3-0.2
		c0.1,0,0.1,0.1,0.1,0.1c0.1,0,0.1,0,0.2,0s0.1,0,0.2-0.1c0.1-0.1,0.2-0.2,0.2-0.2c0.1,0,0.2,0.1,0.3,0.2c0.1,0.1,0.2,0.2,0.3,0.2
		s0.1-0.1,0.2-0.1c0.1-0.1,0.2-0.3,0.3-0.4c0.1-0.1,0.2-0.1,0.2-0.1c0.1,0,0.2,0.1,0.3,0.3c0.1,0.2,0.1,0.3,0.1,0.3
		c0,0,0.1-0.1,0.2-0.2c0-0.1,0.1-0.3,0.2-0.3c0.1-0.1,0.1-0.2,0.2-0.2c0,0,0.1,0.1,0.1,0.1s0,0.1,0,0.1c0,0,0,0.1,0,0.3
		c0,0.1,0,0.2,0,0.3h0.1c0.1,0,0.2-0.1,0.3-0.2c0.1-0.1,0.2-0.2,0.3-0.4c0.1-0.1,0.2-0.2,0.3-0.2c0.2,0,0.4,0.1,0.5,0.2
		c0.1,0.1,0.1,0.2,0.1,0.4c0,0,0,0.1,0,0.1c0,0.1-0.1,0.1-0.1,0.2l0.1,0v0.1c0,0.2,0,0.3-0.1,0.4c-0.1,0.1-0.1,0.2-0.3,0.3
		c-0.2,0.1-0.5,0.3-0.7,0.6c-0.3,0.2-0.5,0.5-0.7,0.7c-0.2,0.2-0.4,0.3-0.6,0.3c-0.1,0-0.1,0-0.2,0c-0.1,0-0.1,0-0.2,0s-0.1,0-0.2,0
		c0,0-0.1,0-0.1,0c-0.5,0.2-1.1,0.4-1.7,0.5c-0.6,0.1-1.1,0.1-1.6,0.1c-0.1,0-0.3,0.1-0.5,0.2c-0.2,0.1-0.3,0.1-0.3,0.1
		s-0.1,0-0.2,0s-0.1,0-0.2,0c-0.3,0-0.5,0.1-0.8,0.3c-0.3,0.2-0.5,0.3-0.8,0.3c-0.1,0-0.1,0.1-0.2,0.3c-0.1,0.2-0.1,0.3-0.2,0.3
		s-0.1,0-0.2,0c-0.1,0-0.2,0-0.3,0c-0.1,0-0.1,0-0.1,0c0,0.1,0,0.1,0,0.2c0,0.1,0,0.3,0.1,0.3c0.1,0.1,0.2,0.2,0.2,0.4
		c0,0.1,0,0.3,0,0.3c-0.1,0.1-0.1,0.3-0.2,0.4c0,0.1,0,0.3,0,0.4c0,0.2,0,0.3,0,0.5c0.1-0.1,0.1-0.3,0.2-0.3
		c0.1-0.1,0.1-0.3,0.2-0.4c0.1-0.2,0.1-0.5,0.2-0.8c0.1-0.2,0.2-0.4,0.4-0.4c0,0,0.1,0,0.2,0c0,0,0.1,0,0.1,0.1c0,0,0,0.1,0,0.1v0
		c-0.1,0.3-0.2,0.5-0.3,0.8c-0.1,0.2-0.2,0.4-0.2,0.6c0,0.3,0.1,0.7,0.3,1c0.2,0.3,0.4,0.6,0.6,0.9c0.1,0.2,0.2,0.4,0.3,0.6
		c0.1,0.2,0.1,0.3,0.1,0.3c0,0,0.1-0.1,0.3-0.2c0.1-0.1,0.3-0.1,0.5-0.1c0.2,0,0.4,0.1,0.5,0.3c0.1,0.1,0.2,0.2,0.3,0.3
		c0.1,0,0.2-0.1,0.4-0.2c0.2-0.1,0.3-0.1,0.5-0.1c0,0,0.1,0,0.1,0s0.1,0,0.2,0c0.2,0,0.3-0.1,0.5-0.2c0.2-0.1,0.3-0.2,0.5-0.2
		c0.1,0,0.2,0.1,0.2,0.2c0,0.2,0.1,0.3,0.1,0.5c0,0.2,0,0.4,0,0.5c0.1-0.1,0.3-0.3,0.4-0.5c0.1-0.2,0.3-0.5,0.3-0.7
		c0.1-0.2,0.3-0.3,0.5-0.4c0,0,0,0.1,0,0.1c0,0,0,0.1,0,0.1c0,0,0,0.1,0,0.1c0,0,0,0.1,0,0.2c0,0.1,0,0.1,0,0.2c0,0,0.1,0,0.2,0
		c0.3,0,0.5-0.2,0.6-0.5c-0.1,0-0.2,0.1-0.2,0.1c-0.1,0-0.1,0-0.2,0c0.1-0.3,0.2-0.5,0.3-0.6c0.2-0.1,0.4-0.2,0.5-0.2
		c0.1,0,0.1,0,0.2,0s0.1,0,0.2,0c0.1,0,0.3-0.1,0.5-0.2c0.2-0.1,0.3-0.2,0.5-0.3c0.2-0.1,0.4-0.2,0.6-0.2c0.2,0,0.4,0.1,0.5,0.2
		c0.1,0.1,0.2,0.3,0.2,0.5c0,0.2,0,0.4-0.1,0.6c-0.1,0.2-0.2,0.3-0.4,0.3c-0.1,0-0.1,0-0.2-0.1c-0.1,0-0.1,0-0.2,0v0
		c0,0-0.1,0.1-0.1,0.1c0,0.1,0,0.2,0.1,0.3c0,0.1,0,0.2,0,0.2c0,0.1,0,0.2-0.1,0.3c-0.1,0.1-0.2,0.2-0.3,0.3
		c-0.2,0.2-0.4,0.4-0.5,0.7c-0.1,0.2-0.2,0.4-0.3,0.5c-0.1,0.2-0.3,0.3-0.5,0.3c-0.1,0-0.3,0-0.4,0c-0.2,0-0.3,0-0.5,0
		c-0.1,0.2-0.2,0.4-0.3,0.5c-0.1,0.1-0.3,0.2-0.5,0.2c-0.1,0-0.2-0.1-0.3-0.2c0-0.1-0.1-0.2-0.1-0.4c0-0.1-0.1-0.1-0.2-0.1
		c-0.1,0-0.2,0-0.3,0.1s-0.2,0.1-0.3,0.1c-0.1,0-0.2-0.1-0.3-0.2s-0.2-0.2-0.3-0.3c-0.1-0.1-0.2-0.2-0.3-0.2c-0.1,0-0.2,0.2-0.2,0.4
		c0,0.2-0.1,0.4-0.2,0.6c-0.1,0.2-0.3,0.4-0.7,0.4c-0.3,0-0.4-0.2-0.5-0.4c-0.1-0.2-0.2-0.5-0.3-0.7c-0.1-0.2-0.2-0.3-0.3-0.4
		c-0.2,0-0.4,0.1-0.5,0.2c-0.1,0.2-0.2,0.4-0.2,0.6c-0.1,0.2-0.2,0.4-0.3,0.7c0-0.1-0.1-0.1-0.1-0.1c-0.1,0-0.1-0.1-0.1-0.2
		c0,0,0-0.1,0-0.1l0.1-0.1c0-0.1-0.1-0.1-0.1-0.1c0-0.1,0-0.1,0-0.2c-0.2,0.3-0.3,0.5-0.3,0.5c-0.1,0-0.2,0.1-0.4,0.1
		c0,0,0-0.1,0-0.1c0-0.1,0-0.1,0-0.1c0-0.1,0-0.2,0-0.4c0-0.1,0-0.2,0-0.3c-0.1,0.1-0.1,0.2-0.2,0.3c0,0.1-0.1,0.2-0.2,0.4
		c-0.1,0.1-0.2,0.1-0.3,0.1c-0.1,0-0.1,0-0.2,0c0-0.1,0-0.1,0-0.3c0-0.1,0-0.3,0.1-0.4c0.1-0.1,0.1-0.3,0.1-0.5c0,0,0-0.1,0-0.1
		c0,0-0.1,0-0.1,0c0,0-0.1,0-0.2,0.1c-0.1,0-0.1,0-0.2,0c-0.1,0-0.2-0.1-0.2-0.3c0-0.1-0.1-0.1-0.1-0.2c0,0.1,0,0.3-0.1,0.4
		c0,0.1-0.1,0.2-0.3,0.2c-0.2,0-0.4-0.1-0.5-0.4c0-0.3-0.1-0.5-0.2-0.7c0,0.1,0,0.2,0,0.4c-0.1,0.3-0.2,0.6-0.3,0.8
		c-0.1,0.2-0.3,0.3-0.6,0.4c0,0-0.1,0-0.1,0c0,0-0.1,0.1-0.1,0.1c-0.3,0.2-0.5,0.3-0.7,0.3c-0.2,0-0.4-0.1-0.6-0.4
		c-0.1-0.1-0.1-0.1-0.2-0.1c-0.1,0-0.2,0-0.3,0c-0.2,0.1-0.4,0.2-0.6,0.3c-0.2,0-0.4-0.1-0.6-0.2c-0.1-0.1-0.1-0.1-0.3-0.1
		c-0.1,0-0.2,0.1-0.3,0.2c-0.1,0.1-0.1,0.1-0.2,0.1c-0.1,0-0.1,0-0.2,0c-0.1-0.1-0.1-0.2-0.1-0.3c0-0.1,0-0.3,0.1-0.5
		c0,0,0.1-0.1,0.1-0.1c0,0,0.1,0,0.1,0c0-0.1,0.1-0.1,0.1-0.2c0.1-0.1,0.1-0.1,0.2-0.2c0,0,0-0.1,0-0.2c0,0,0-0.1,0-0.1
		c-0.1,0-0.2,0-0.3,0c-0.1,0-0.2,0-0.3,0c-0.1,0-0.2-0.1-0.3-0.3c0-0.2,0-0.3,0.1-0.5c0-0.1,0.1-0.1,0.2-0.2c0-0.1,0.1-0.1,0.1-0.2
		c0,0,0.1-0.1,0.1-0.1c0,0,0-0.1,0-0.1c0,0-0.1,0-0.2-0.1c0,0-0.1,0-0.1,0c-0.2,0.1-0.4,0.3-0.5,0.5s-0.1,0.5-0.1,0.8
		c0,0.1,0.1,0.1,0.1,0.2c0.1,0.1,0.1,0.2,0.2,0.3c0,0.1,0,0.3-0.1,0.4c-0.1,0.1-0.2,0.1-0.3,0.1c0,0-0.1,0-0.1,0s-0.1,0-0.1,0.1
		c-0.3,0.1-0.4,0-0.5-0.1c-0.1-0.1-0.1-0.3-0.1-0.7c0-0.1,0.1-0.3,0.1-0.5c0-0.1,0.1-0.3,0.2-0.5c0.1-0.1,0.1-0.3,0.1-0.4
		c0-0.1,0-0.3-0.1-0.3c0,0,0-0.1,0-0.1h0c0,0-0.1,0-0.1,0c0,0,0,0,0,0c0,0.2-0.1,0.3-0.2,0.5c0,0.1-0.1,0.3-0.1,0.5
		c0,0.2-0.1,0.3-0.2,0.3c-0.1,0.1-0.2,0.2-0.3,0.3c-0.1,0-0.2,0-0.3-0.1c-0.1-0.1-0.1-0.2-0.2-0.4c0,0,0-0.1,0-0.1c0,0,0-0.1,0-0.1
		c0,0,0,0,0,0s-0.1,0-0.1,0c0,0,0,0.1,0,0.1c0,0,0,0.1,0,0.1c0,0.1,0,0.3,0,0.4c0,0.1,0,0.2,0,0.4c0,0.2,0,0.3,0,0.4
		c0,0.1-0.1,0.1-0.3,0.2c-0.2,0.1-0.3,0.1-0.4,0c-0.1,0-0.1-0.2-0.3-0.4c0-0.1,0-0.1,0-0.2c0-0.1,0-0.1,0-0.2c0-0.1-0.1-0.2-0.1-0.3
		c0-0.1-0.1,0-0.2,0c0,0,0,0.1,0,0.2c0,0.1-0.1,0.2-0.1,0.3c0,0.1,0.1,0.1,0.1,0.2s0,0.1,0,0.2c0,0.1,0,0.1,0,0.2
		c-0.1,0.1-0.1,0.1-0.2,0.1c0,0-0.1,0-0.1,0c-0.1,0-0.1,0-0.2,0c-0.2-0.1-0.4-0.2-0.6-0.3c-0.2-0.1-0.4,0-0.7,0.3
		c-0.1-0.1-0.3-0.1-0.5-0.1c-0.2,0-0.3,0-0.5,0c-0.1,0-0.2-0.2-0.3-0.4c-0.2-0.1-0.4-0.3-0.5-0.5c0-0.2,0-0.5,0-0.8
		c0-0.2,0-0.5,0-0.7s0-0.5-0.1-0.7c-0.1-0.1-0.1-0.3,0-0.5c0-0.2,0.1-0.3,0.3-0.5c0.1-0.1,0.2-0.2,0.2-0.3c0-0.1,0-0.2,0-0.3
		c-0.2-0.3-0.3-0.7-0.3-1c0-0.4,0-0.8,0.1-1.2c0-0.1,0-0.1,0-0.2c0-0.1,0-0.1,0-0.2c0-0.3,0-0.5,0-0.8c0-0.3,0.1-0.5,0.1-0.8
		c0-0.3,0-0.6,0-0.9c0-0.3,0-0.6,0-0.9c0-0.1,0-0.1,0-0.2c0-0.1,0-0.1,0-0.3c0.1-0.4,0.2-0.8,0.2-1.1c0-0.4,0-0.8,0-1.1s0-0.8,0-1.3
		c0-0.4,0.1-0.8,0.1-1.2c0-0.2,0.1-0.4,0.1-0.6c0.1-0.2,0.1-0.5,0.2-0.7c0.1-0.1,0.1-0.1,0.3-0.2c0.1-0.1,0.1-0.1,0.3-0.3
		c0.1-0.2,0.3-0.3,0.3-0.4s0.2,0.1,0.3,0.3c0.1,0.2,0.2,0.3,0.3,0.3c0.1,0,0.2-0.1,0.3-0.1c0.1-0.1,0.3-0.1,0.4-0.1
		c0.1,0,0.2,0,0.3-0.2c0.1-0.2,0.1-0.3,0.1-0.5c0-0.1,0.1-0.3,0.1-0.5c0-0.1,0.1-0.3,0.1-0.4c-0.1,0-0.1,0-0.2,0
		c-0.1,0-0.1,0.1-0.1,0.1c-0.1,0.1-0.2,0.1-0.3,0c-0.1,0-0.1-0.1-0.2-0.2s-0.1-0.3-0.1-0.5c0,0,0-0.1,0-0.1c0,0,0-0.1,0-0.1
		c0,0,0.1-0.1,0.1-0.1h0.1c0.1,0.1,0.2,0.2,0.3,0.3c0.1,0.1,0.2,0.2,0.3,0.3c0.2,0.2,0.3,0.4,0.4,0.6c0.1,0.2,0.1,0.4,0,0.6
		c0,0.2-0.1,0.5-0.3,0.8c0,0-0.1,0.1-0.1,0.1c0,0.1-0.1,0.1-0.1,0.1c-0.1,0.2-0.1,0.3-0.1,0.4c0,0.1,0.1,0.1,0.3,0.2l0,0.1
		c0,0.1,0,0.1,0,0.3c0,0.1,0,0.2,0,0.3c0,0.3,0,0.5,0,0.7c0,0.2-0.1,0.3-0.2,0.4c-0.1,0.1-0.3,0.3-0.5,0.4c0,0.1,0,0.2,0,0.4
		c0,0.2,0,0.3,0,0.4c0.1,0.4,0.1,0.7,0,1.1c0,0.3-0.2,0.6-0.4,0.9c-0.1,0.1-0.1,0.3-0.2,0.5c0,0.2-0.1,0.4-0.1,0.6
		c0,0.1-0.1,0.3-0.1,0.4c0,0.1-0.1,0.2-0.1,0.3c-0.1,0.3-0.1,0.5-0.1,0.7c0,0.1,0.2,0.2,0.4,0.3c0.1,0.1,0.2,0.2,0.2,0.3
		c0,0.1,0,0.2-0.2,0.4c-0.1,0.2-0.1,0.3-0.1,0.5c0,0.1,0,0.2,0,0.3c0,0.1,0,0.2,0,0.2s0.1,0,0.2,0c0.1,0,0.2,0,0.3,0.1
		c0.1,0.1,0.1,0.2,0,0.3c0,0.2,0,0.3-0.1,0.5c0,0.2-0.1,0.3-0.2,0.5c0,0.1-0.1,0.1-0.2,0.2c-0.1,0.1-0.1,0.1-0.2,0.2
		c-0.1,0.2-0.2,0.3-0.2,0.4c0,0.1,0,0.2,0.2,0.4c0,0,0.1,0.1,0.1,0.1c0,0.1,0.1,0.2,0.1,0.3c0.1,0.3,0.2,0.6,0.4,0.8
		c0.2,0.2,0.4,0.4,0.5,0.6c0,0.1,0.1,0.1,0.2,0c0,0,0.1-0.1,0.1-0.2c0-0.2,0.1-0.3,0.2-0.3s0.2-0.1,0.3-0.1c0.3,0,0.5,0,0.7,0
		c0.2,0,0.5,0.1,0.6,0.3c0.1,0.1,0.2,0.1,0.2,0.1c0.1,0,0.1-0.1,0.2-0.3c0.1-0.1,0.2-0.2,0.3-0.3c0.1,0,0.1,0.1,0.2,0.3
		c0,0.1,0.1,0.1,0.1,0.2c0,0.1,0.1,0,0.2-0.1c0.1-0.1,0.2-0.2,0.3-0.3c0.1,0,0.2,0,0.3,0c0.3,0.1,0.6,0.2,1,0.1c0.3,0,0.6,0,1,0
		c0.1,0,0.1,0,0.2,0.1l0.1,0c0,0.3,0,0.5,0,0.5c0,0.1,0.1,0,0.2-0.1c0.1-0.1,0.1-0.2,0.3-0.3c0.1-0.1,0.1-0.2,0.2-0.2
		c0.1,0,0.1,0,0.2,0.1c0.1,0.1,0.2,0.1,0.3,0.1c0.1,0,0.2,0,0.3,0c0.1,0,0.1,0.2,0.1,0.4h0.1c0,0,0,0,0,0c0.1-0.2,0.2-0.3,0.3-0.3
		c0.1,0,0.1,0.1,0.3,0.2c0.1,0.1,0.2,0.2,0.3,0.4c0,0.1,0.1,0.1,0.2,0.1c0-0.3-0.1-0.6-0.1-0.9c0-0.4,0.1-0.8,0.1-1.2
		c0.1-0.4,0.1-0.8,0.1-1.1c0-0.1,0-0.2,0-0.4c0-0.1-0.1-0.1-0.1-0.3c0-0.2,0.1-0.5,0.1-0.8c0-0.3,0.1-0.6,0.1-0.9
		c0.1-0.4,0.2-0.9,0.4-1.5c0.2-0.6,0.3-1.3,0.5-1.9c0.2-0.7,0.3-1.3,0.3-2c0-0.3,0.1-0.6,0.2-0.9c0.1-0.3,0.2-0.6,0.3-0.9
		c0-0.2,0.1-0.4,0.2-0.5c0.1-0.1,0.2-0.3,0.3-0.3c0.1-0.1,0.3-0.3,0.3-0.6c-0.1,0-0.1,0-0.2,0c-0.1,0-0.2,0-0.2,0.1
		c-0.1,0-0.1,0-0.2,0h0c0,0,0-0.1,0-0.1c0-0.1,0-0.2,0.1-0.4c0-0.2,0.1-0.4,0.1-0.6c0-0.7,0.2-1.2,0.5-1.6s0.7-0.8,1.2-1
		c0.3-0.1,0.5-0.2,0.8-0.4c0.2-0.2,0.4-0.3,0.5-0.3c0.1,0,0.2,0,0.3,0.1c0.1,0,0.2,0.1,0.3,0.1c0.1,0,0.2-0.1,0.3-0.1
		c0.1-0.1,0.2-0.1,0.3-0.1c0.1,0,0.1,0,0.1,0.1c0.1,0.1,0.1,0.1,0.1,0.2c0.2-0.2,0.5-0.5,0.6-0.8c0.2-0.2,0.5-0.4,0.7-0.4
		c0,0,0.1,0,0.2,0c0,0,0.1,0,0.1,0c0.2,0,0.3-0.1,0.5-0.2c0.2-0.1,0.4-0.2,0.5-0.3c0.1,0,0.1,0.1,0.2,0.2s0.1,0.1,0.3,0.1
		c0.1,0,0.2,0,0.3-0.1c0.1-0.1,0.3-0.2,0.4-0.3c0.1-0.1,0.3-0.1,0.3-0.2c0.1,0,0.1,0.1,0.2,0.2c0.1,0.1,0.1,0.1,0.2,0.1
		c0.1,0,0.3,0,0.3-0.1c0.1-0.1,0.3-0.1,0.4-0.1c0.1,0,0.1,0.1,0.3,0.2c0.1,0.1,0.1,0.2,0.2,0.3c0.1,0.1,0.2,0.1,0.3,0.1h0.1
		c0-0.1,0.1-0.1,0.1-0.3c0-0.1,0-0.2,0-0.3c0-0.1,0-0.2,0-0.3c0-0.1,0.1-0.1,0.3-0.3c0.1-0.1,0.3-0.1,0.3-0.1c0.1,0,0.1,0,0.2,0
		c0.1,0,0.1,0.1,0.2,0.1c0.2,0,0.4-0.1,0.6-0.3C125.5,6.8,125.7,6.7,126,6.8C125.9,6.7,126,6.7,126,6.8z M84.1,21.2L84.1,21.2
		c0-0.1,0-0.1,0-0.2C84.1,21.1,84.1,21.1,84.1,21.2z M75.5,18.4l-0.1-0.1h-0.1c0,0-0.1,0-0.1,0C75.3,18.3,75.3,18.4,75.5,18.4
		L75.5,18.4L75.5,18.4L75.5,18.4z M73.7,15.7l0.1-0.1h0L73.7,15.7L73.7,15.7z M73.7,13.3l0.2-0.1v0.1C73.9,13.3,73.8,13.3,73.7,13.3
		C73.8,13.3,73.7,13.3,73.7,13.3z M80.2,18.5c0,0,0.1,0,0.1,0s0.2,0,0.3,0.1c0.1,0.1,0.2,0.1,0.4,0.3V19c-0.1,0.1-0.2,0.1-0.2,0.1
		c-0.1,0.1-0.1,0.1-0.2,0.1c-0.1,0-0.3,0-0.3-0.1c-0.1-0.1-0.1-0.2-0.1-0.4C80.1,18.6,80.1,18.6,80.2,18.5z M61.3,20.3
		C61.3,20.3,61.2,20.2,61.3,20.3c-0.2-0.1-0.2-0.1-0.3-0.2v0.1h0c0,0,0,0.1,0,0.2c0,0.1,0.1,0.2,0.1,0.2l0.1,0
		C61.2,20.4,61.2,20.3,61.3,20.3z M66.2,16.9c0.1-0.1,0.1-0.1,0.1-0.1c0,0-0.1-0.1-0.1-0.1v0c0,0-0.1,0.1-0.1,0.1
		c0,0-0.1,0.1-0.1,0.1L66.2,16.9C66.2,16.9,66.2,16.9,66.2,16.9z M63.8,11.2c0,0-0.1-0.1-0.1-0.1c-0.1,0-0.2,0.1-0.3,0.2
		c-0.1,0.1-0.2,0.2-0.2,0.3c0.1,0.1,0.3,0.1,0.4,0.2c0.1,0.1,0.1,0.1,0.1,0.3c0,0-0.1,0.2-0.2,0.4c-0.1,0.2-0.2,0.5-0.4,0.9
		c-0.1,0.3-0.3,0.6-0.4,0.8c-0.1,0.2-0.1,0.3-0.1,0.3c-0.1,0.1-0.2,0.2-0.2,0.4s-0.1,0.3-0.1,0.5c-0.1,0.1-0.2,0.2-0.4,0.3
		c0,0.2,0,0.4-0.1,0.6c-0.1,0.2-0.2,0.4-0.3,0.6c-0.1,0.4-0.3,0.8-0.4,1.3c-0.2,0.4-0.3,0.8-0.3,1.2c0,0.1,0.1,0.2,0.1,0.3
		c0.1,0.1,0.2,0.1,0.4,0.1c0.1,0,0.3-0.1,0.4-0.1c0.1-0.1,0.3-0.1,0.5-0.1c0.1,0,0.1,0,0.2,0.1c0.1,0,0.1,0.1,0.2,0.1
		c0,0,0.1,0,0.1,0c0,0,0.1-0.1,0.1-0.1c0.2-0.2,0.4-0.3,0.6-0.4c0.3,0,0.5,0,0.6,0c0.1,0,0.2,0.1,0.3,0.2s0.1,0.2,0.1,0.3
		c0,0.1,0.1,0.1,0.1,0.1s0.1,0,0.1-0.1c0.1,0,0.1-0.1,0.3-0.2c0.1-0.1,0.2-0.2,0.2-0.3c0.1-0.1,0.1-0.1,0.1-0.1c0-0.1,0-0.2-0.1-0.2
		c-0.2-0.1-0.3-0.2-0.4-0.4c-0.1-0.2-0.1-0.4,0-0.6c0-0.2,0-0.3,0-0.5c0.1-0.1,0.1-0.3,0.2-0.4c-0.2,0-0.3,0-0.4-0.1
		c-0.1,0-0.1-0.1-0.1-0.3c0-0.3,0-0.6-0.1-0.9c-0.1-0.3-0.1-0.5-0.1-0.8c0-0.1,0-0.3,0-0.5c0-0.2,0-0.3,0-0.5c0-0.2-0.1-0.3-0.2-0.3
		c-0.1-0.1-0.2-0.2-0.2-0.4c0-0.2,0-0.4-0.1-0.7c-0.1-0.2-0.1-0.5-0.1-0.8c0,0,0-0.1,0-0.1c0,0,0-0.1,0-0.1
		C63.8,11.3,63.8,11.3,63.8,11.2z M63.8,7.2c0-0.1,0.1-0.1,0.1-0.2C63.9,7,64,7,64,7C64.4,7,64.6,7,65,7.1c0.3,0.1,0.5,0.2,0.8,0.4
		C65.9,7.7,66,8,66,8.4c0,0.1,0,0.3,0,0.5c0,0.1-0.1,0.3-0.1,0.4c0,0.1,0,0.2,0.1,0.3c0,0.1,0,0.2,0,0.3c0,0.1,0,0.3-0.1,0.4
		c-0.1,0.1-0.1,0.2-0.1,0.4c0,0.1,0,0.1,0,0.2c0,0.1,0,0.1,0,0.2l0,0c0,0,0,0.1,0,0.1c0.1-0.1,0.2-0.2,0.3-0.4
		c0.1-0.2,0.2-0.3,0.3-0.3c0.1,0,0.2,0,0.2,0.1c0,0.1,0,0.1,0,0.2c0,0.1,0,0.2,0,0.3c0,0.1,0,0.3,0,0.4c0,0.2,0,0.4,0.1,0.5
		c0.1,0.2,0.1,0.4,0.1,0.5c0,0.1,0,0.3-0.1,0.4c-0.1,0.1-0.1,0.3-0.1,0.3c0,0.1,0.1,0.3,0.2,0.4c0.1,0.1,0.2,0.2,0.4,0.4
		c0.1,0.1,0.1,0.2,0.1,0.4c0,0,0,0.1,0,0.1c0,0.1,0,0.1,0,0.2c0,0.1,0,0.2,0,0.3c0,0.1,0,0.2,0,0.3s0,0.2,0,0.3s-0.1,0.2-0.1,0.3V16
		c0,0.1,0.1,0.2,0.2,0.3c0.1,0.1,0.2,0.2,0.2,0.4c0,0.1,0,0.1,0,0.3c0,0.1,0,0.1,0,0.3s0,0.2,0.1,0.3c0.1,0.1,0.2,0.2,0.3,0.3
		c0.1,0.2,0.1,0.4,0.1,0.8c0,0.2,0.2,0.3,0.4,0.4c0.2,0.1,0.4,0.2,0.7,0.3c0.2,0.1,0.3,0.2,0.3,0.3c0,0.1,0,0.2-0.1,0.4
		c-0.1,0.2-0.1,0.3-0.2,0.5c0,0,0,0.1,0.1,0.1c0,0.1,0,0.1,0,0.2C69,20.8,69,20.9,68.9,21c-0.1,0.2-0.2,0.3-0.2,0.4c0,0,0,0.1,0,0.1
		c0,0.2,0,0.4,0,0.7c0,0.2-0.1,0.4-0.1,0.6c0,0.1,0,0.2,0,0.3c0,0.1,0,0.2,0,0.3c0,0.1,0,0.2,0,0.3c0,0.1,0,0.2,0,0.3
		c0,0.1,0.1,0.3,0.3,0.4c0.1,0.1,0.2,0.2,0.2,0.5c0,0.1,0,0.1,0,0.1c0.2,0.3,0.3,0.6,0.4,0.9c0,0.3,0,0.7,0,1c0,0.3,0.1,0.6,0.2,0.9
		c0.1,0.3,0.1,0.6,0.1,1c0,0.1,0,0.3,0,0.5s0,0.3,0,0.4c0,0.1,0.1,0.3,0.1,0.3c0.1,0.1,0.1,0.2,0.1,0.3c0,0-0.1,0.2-0.4,0.4
		c-0.2,0.2-0.5,0.4-0.8,0.6c-0.2,0.2-0.4,0.4-0.6,0.4c0,0-0.1,0-0.1-0.1c0,0-0.1,0-0.1,0c-0.1,0-0.2,0-0.2,0c-0.1,0-0.1,0-0.1,0
		c-0.1,0-0.1,0-0.1,0c0,0,0,0,0-0.1c0-0.1,0-0.1,0-0.3c0-0.1,0-0.1,0-0.3c0-0.2,0-0.3-0.1-0.4c-0.1-0.1-0.1-0.2-0.3-0.3
		c-0.1-0.1-0.1-0.2-0.1-0.3c0-0.1,0-0.2,0.1-0.4c0.1-0.2,0.1-0.4,0.2-0.6l0.1-0.3v0H67c0,0-0.1,0-0.1,0.1c-0.1,0-0.1,0-0.2,0
		c-0.1,0-0.1-0.1-0.2-0.3c-0.1-0.2-0.1-0.4-0.1-0.6c0-0.3,0-0.5,0-0.7c0-0.2,0-0.4,0.1-0.6s0.1-0.4,0.1-0.6c0-0.1-0.1-0.2-0.1-0.3
		c-0.1-0.1-0.2-0.2-0.3-0.3c-0.1-0.2-0.1-0.3-0.1-0.5c0-0.2,0-0.4,0-0.6c0-0.2,0.1-0.4,0.1-0.5c0-0.4-0.1-0.7-0.1-1
		c-0.1-0.3-0.3-0.6-0.5-0.8c-0.1-0.1-0.1-0.1-0.2-0.2c-0.1-0.1-0.1-0.1-0.1-0.3c0-0.1,0-0.1,0-0.2c0-0.1,0-0.2,0-0.3
		c0-0.1,0-0.1,0-0.3c0-0.1,0-0.1,0-0.2c0,0.1-0.1,0.2-0.2,0.4c-0.1,0.2-0.1,0.3-0.2,0.3c-0.1,0-0.1-0.1-0.1-0.1c0,0-0.1,0-0.1,0
		c-0.2,0-0.3,0-0.4,0.2c-0.1,0.1-0.3,0.2-0.4,0.3c-0.1,0.1-0.2,0.2-0.3,0.2c0,0-0.1,0-0.1-0.1c0,0,0-0.1,0-0.1
		c-0.1,0.1-0.2,0.1-0.3,0.2C63,22,62.9,22,62.8,22c-0.1,0-0.1-0.1-0.3-0.2c-0.1-0.1-0.2-0.2-0.3-0.3c-0.2,0-0.4,0.1-0.6,0.3
		c-0.2,0.2-0.4,0.3-0.5,0.3c-0.1,0-0.1-0.1-0.1-0.2c0-0.1-0.1-0.2-0.1-0.4c-0.1-0.1-0.2-0.2-0.4-0.2c-0.1,0-0.1,0-0.2,0.1
		c0,0,0,0.1,0,0.1c0,0.2,0,0.3,0.1,0.4c0.1,0.1,0.1,0.2,0.3,0.3c0.1,0.1,0.1,0.2,0.1,0.3c0,0.1,0,0.1,0,0.2c0,0.1-0.1,0.1-0.2,0.1
		c-0.1,0-0.2-0.1-0.3-0.1c-0.1-0.1-0.2-0.1-0.3-0.1c-0.2,0-0.3,0.2-0.4,0.6c-0.1,0.4-0.2,0.8-0.3,1.2c-0.1,0.5-0.2,0.8-0.4,1
		c0,0,0,0.1-0.1,0.1v0c0,0.1,0,0.1,0,0.2c0,0.1,0,0.1,0,0.2c0,0.3-0.1,0.6-0.2,0.8c-0.1,0.3-0.2,0.5-0.3,0.8c0,0,0,0.1,0,0.2
		c0,0.1,0,0.1,0,0.1c0,0.1,0,0.2,0,0.3c0,0.1,0,0.2,0,0.3c0,0.2-0.1,0.4-0.2,0.7c-0.1,0.3-0.1,0.5-0.1,0.8c0,0.6-0.1,1.1-0.4,1.4
		c-0.2,0.3-0.5,0.4-0.8,0.4c-0.1,0-0.2,0-0.3,0c0,0,0,0.1-0.1,0.1C56.3,31.9,56.1,32,56,32c-0.1,0-0.2-0.1-0.3-0.1
		c-0.1-0.1-0.2-0.1-0.3-0.2c-0.1,0-0.2,0-0.3,0.2c0,0.1-0.1,0.2-0.3,0.3c-0.1-0.1-0.2-0.2-0.3-0.2c-0.1,0-0.2-0.1-0.3-0.2
		c-0.1,0-0.2-0.1-0.2-0.3c0-0.2,0-0.4-0.1-0.6c0-0.2-0.1-0.4-0.2-0.6c-0.1-0.2-0.2-0.3-0.3-0.3c0,0-0.1,0-0.1,0c0,0-0.1,0.1-0.1,0.1
		c0,0.1,0.1,0.2,0.1,0.4c0.1,0.1,0.2,0.2,0.2,0.3c0,0,0,0.1-0.1,0.2c-0.1,0.1-0.1,0.1-0.2,0.2c-0.1,0-0.1-0.1-0.2-0.2
		c-0.1-0.1-0.1-0.2-0.1-0.4c-0.1-0.3-0.3-0.5-0.6-0.8c-0.2-0.2-0.5-0.3-0.7-0.4c-0.2-0.1-0.3-0.2-0.4-0.2c-0.1-0.3-0.2-0.5-0.4-0.5
		c-0.2-0.1-0.3-0.2-0.5-0.3c-0.2-0.1-0.3-0.2-0.4-0.4c-0.1-0.1-0.3-0.2-0.3-0.4c-0.1-0.1-0.2-0.3-0.2-0.5c0-0.1,0-0.3-0.1-0.3
		c-0.1-0.1-0.1-0.2-0.3-0.3c-0.1-0.1-0.1-0.2-0.1-0.4c0-0.1,0-0.2,0-0.3c0.1-0.1,0.1-0.2,0.1-0.3c0,0,0-0.1,0-0.1s-0.1-0.1-0.1-0.1
		c-0.1,0.1-0.1,0.3-0.1,0.4C49,25.8,49,26,48.9,26.1c-0.1,0.2-0.1,0.3-0.2,0.3c-0.1,0-0.2-0.1-0.2-0.3c-0.1-0.2-0.1-0.3-0.1-0.5
		c0-0.2,0-0.3,0-0.3c0-0.1,0-0.2,0-0.3c0-0.1,0.1-0.2,0.1-0.3c0-0.2-0.1-0.4-0.2-0.5c-0.1-0.1-0.3-0.2-0.4-0.3s-0.2-0.1-0.2-0.1
		c0-0.1,0.1-0.2,0.1-0.3c0.1-0.1,0.2-0.1,0.2-0.2s0-0.1-0.1-0.2c0,0-0.1-0.1-0.1-0.2c-0.1,0.1-0.2,0.2-0.3,0.3
		c-0.1,0.1-0.2,0.1-0.3,0.1c0,0-0.1,0-0.1,0c0,0.3-0.1,0.5-0.2,0.8s-0.3,0.4-0.6,0.4c0,0-0.1,0-0.1,0c0,0,0-0.1,0-0.1
		c0-0.1,0-0.2,0.1-0.3c0.1,0,0.1-0.1,0.3-0.1c-0.1-0.1-0.1-0.2-0.3-0.3c-0.1-0.1-0.1-0.2-0.2-0.2c-0.1,0-0.2,0-0.3,0.2
		c-0.1,0.1-0.2,0.1-0.3,0.1c-0.1,0-0.1-0.1-0.2-0.3c-0.1-0.2-0.1-0.3-0.1-0.3c-0.1,0-0.2,0.1-0.3,0.2s-0.1,0.2-0.1,0.3
		c0,0.1,0,0.2,0,0.3c0,0.1,0,0.2,0,0.3c0,0.1,0,0.1,0,0.3c0,0.1-0.1,0.1-0.1,0.3c0,0.1,0,0.3,0.1,0.5c0.1,0.1,0.1,0.3,0.1,0.5
		c0,0.1,0,0.1,0,0.2c0,0,0,0.1,0,0.2c0,0.1,0,0.2,0.1,0.3s0,0.2,0,0.3c0,0.1-0.1,0.2-0.3,0.3c-0.1,0.1-0.2,0.2-0.3,0.3
		c0.1,0.1,0.2,0.1,0.3,0.1c0.1,0,0.2,0,0.3,0c0.1,0.2,0.1,0.3,0.1,0.5c0,0.2,0.1,0.3,0.1,0.5c0,0,0,0.1,0,0.1s0,0-0.1,0
		c0,0-0.1-0.1-0.1-0.1c-0.1,0-0.2,0-0.3,0c0,0.1,0,0.2,0.1,0.3c0,0.1,0,0.1,0,0.2c0,0.2-0.1,0.3-0.3,0.4c-0.2,0.1-0.3,0.2-0.5,0.2
		c-0.2,0.1-0.3,0.1-0.3,0.1c-0.1,0-0.1,0-0.1,0c0-0.1-0.1-0.1-0.1-0.3c0-0.1,0-0.1,0.1-0.3c0-0.1,0-0.1,0-0.2c0-0.2,0-0.3-0.1-0.4
		c0,0-0.1-0.1-0.2-0.1c-0.1,0-0.2-0.1-0.3-0.3c0.1-0.2,0.1-0.3,0.2-0.4c0.1-0.1,0.2-0.2,0.4-0.4h0c-0.1,0-0.2,0.1-0.3,0.3
		c-0.1,0.1-0.2,0.3-0.3,0.5C43,27.9,42.9,28,42.8,28c-0.1,0-0.1,0-0.1,0c0,0-0.1-0.1-0.1-0.2c0-0.1,0.1-0.3,0.1-0.3
		c0.1-0.1,0.2-0.2,0.2-0.3h-0.1c-0.1,0-0.1,0-0.3-0.1c-0.1,0-0.1-0.1-0.1-0.2c0-0.2,0.1-0.4,0.2-0.7c0.1-0.3,0.2-0.5,0.3-0.6
		c0-0.1-0.1-0.1-0.2-0.3c-0.1-0.1-0.1-0.2-0.1-0.3c0-0.2,0.1-0.3,0.1-0.5c0.1-0.2,0.2-0.3,0.4-0.3c0.1,0,0.1,0,0.1,0
		c0,0,0.1,0,0.1,0s0.1,0,0.1,0c0,0,0,0,0,0c0-0.1-0.1-0.1-0.3-0.2c-0.1-0.1-0.3-0.2-0.4-0.2l-0.2-0.2c0,0,0-0.1,0-0.2
		c0,0,0-0.1,0-0.1v-0.1c0-0.1,0-0.2,0-0.3c0-0.1-0.1-0.2-0.1-0.3c0-0.5,0-1.1,0.1-1.7c0-0.6,0.1-1.1,0.3-1.5c0-0.1,0.1-0.2,0.1-0.3
		c0.1-0.1,0.1-0.1,0.1-0.2c0-0.1,0-0.1-0.1-0.1c0,0-0.1-0.1-0.2-0.1c0-0.3,0-0.7,0-1.1c0-0.4,0-0.8,0-1.2c0-0.3,0.1-0.6,0.2-0.8
		c0-0.1,0-0.2,0-0.4c0-0.1,0-0.3,0-0.4c0-0.1,0-0.3,0-0.3c0-0.1,0-0.3,0-0.4c0-0.2,0-0.5,0-0.6c0-0.2,0.1-0.5,0.1-0.7v-0.1
		c0-0.3,0-0.5,0.1-0.6c0.1-0.2,0.3-0.3,0.5-0.3c0.1,0,0.2,0,0.3,0.1c0.1,0,0.2,0,0.2,0c0,0,0.1,0,0.1,0c0,0,0.1,0,0.1,0
		c-0.1-0.3-0.2-0.5-0.3-0.6c-0.1-0.1-0.1-0.3-0.1-0.4c0-0.1,0-0.2,0.1-0.4c0.1-0.2,0.1-0.4,0.3-0.5c0.1-0.1,0.3-0.2,0.4-0.3h0.1l0,0
		v0c0-0.1,0.1-0.2,0.1-0.3c0-0.1,0.1-0.2,0.1-0.2c0.1,0,0.1,0.1,0.3,0.3s0.2,0.2,0.3,0.3c0.1,0,0.3-0.1,0.5-0.2
		c0.2-0.1,0.4-0.2,0.6-0.2c0.1,0,0.2,0.1,0.3,0.2c0.1,0.1,0.1,0.1,0.2,0.1c0.1,0,0.2,0,0.4-0.1C48,9.5,48,9.5,48.1,9.5
		c0.1,0,0.1,0,0.1,0.1c0,0.1,0.1,0.1,0.1,0.1c0.1,0,0.1-0.1,0.2-0.2c0-0.1,0.1-0.2,0.1-0.3c0.1-0.1,0.1-0.1,0.2-0.1c0,0,0.1,0,0.1,0
		c0,0,0.1,0.1,0.1,0.1c0.1,0,0.2,0,0.3,0c0.1,0,0.2,0.1,0.2,0.3v0c0,0.1,0,0.1,0.1,0.1c0.1,0.1,0.2,0.1,0.3,0.2s0.1,0.2,0.1,0.3
		c0,0,0,0.1,0,0.1h0.1c0,0,0.1,0,0.2-0.1c0.1-0.1,0.1-0.1,0.3-0.1s0.1,0.1,0.1,0.2c0,0.1,0.1,0.3,0.1,0.5c0,0.2,0.1,0.3,0.3,0.3
		c0,0.1,0,0.1,0,0.2c0,0,0.1,0.1,0.1,0.1c0-0.1,0.1-0.1,0.1-0.2c0-0.1,0-0.1,0-0.2V11l0.1,0c0,0.1,0.1,0.2,0.2,0.3
		c0.1,0.1,0.1,0.2,0.2,0.2c0,0,0.1-0.1,0.1-0.2c0-0.1,0.1-0.2,0.1-0.2c0.1,0,0.2,0.1,0.3,0.1c0.1,0,0.1,0.1,0.2,0.2
		c0,0.1,0,0.2-0.1,0.2c0,0.1,0,0.1,0,0.2c0,0.2,0.1,0.3,0.2,0.4s0.2,0.3,0.3,0.5c0,0.1,0,0.1,0,0.1c0,0,0.1,0,0.1,0
		c0.1,0,0.1,0,0.3-0.1c0.1,0,0.2-0.1,0.3-0.1l0,0.1c0,0.1,0,0.1,0,0.1c0,0.1,0,0.1-0.1,0.3c-0.1,0.1-0.1,0.2-0.3,0.3
		c-0.1,0.1-0.1,0.2-0.1,0.3c0,0.1,0,0.2,0.1,0.3c0.1,0,0.1,0,0.3,0c0.1,0,0.1,0,0.1-0.1c0-0.1,0-0.2,0-0.3c0-0.1,0.1-0.2,0.1-0.2
		c0,0,0.1,0.1,0.1,0.3c0,0.2,0,0.4,0,0.4c0,0.1-0.1,0.2-0.2,0.3c-0.1,0.1-0.2,0.2-0.3,0.3c-0.1,0.1-0.1,0.2-0.1,0.3
		c0,0.2,0.1,0.4,0.1,0.7c0.1,0.2,0.3,0.4,0.4,0.6c0.1,0.2,0.2,0.4,0.2,0.5c0,0.3-0.1,0.5-0.4,0.6c-0.2,0.1-0.4,0.3-0.6,0.4
		c-0.2,0.2-0.4,0.5-0.4,1c0,0.1,0,0.1,0.1,0.2c0,0.1,0,0.2,0,0.3c0,0.1,0,0.1-0.1,0.1c0,0-0.1,0-0.1,0c-0.1,0-0.2-0.1-0.3-0.1
		c-0.1-0.1-0.1-0.1-0.2-0.2c-0.1,0.1-0.2,0.3-0.3,0.5c-0.1,0.2-0.2,0.3-0.3,0.4c0.1,0,0.1,0,0.2-0.1c0-0.1,0.1-0.1,0.1-0.2
		c0.1,0,0.2,0,0.3,0c0.1,0,0.1,0.1,0.1,0.2c0,0.1,0,0.3-0.1,0.4c-0.1,0.1-0.3,0.2-0.4,0.3c-0.2,0.1-0.3,0.1-0.4,0.1
		c-0.2,0-0.3-0.1-0.5-0.2c-0.1-0.1-0.3-0.1-0.4-0.1s-0.3,0.1-0.4,0.2c-0.1,0.1-0.3,0.2-0.4,0.3c-0.1,0.1-0.2,0.2-0.3,0.3
		c-0.3,0.1-0.4,0.2-0.5,0.5c-0.1,0.2-0.2,0.5-0.2,1c0,0.1,0.1,0.2,0.2,0.2c0.1,0.1,0.2,0.2,0.2,0.3c0,0.1,0,0.2-0.1,0.3
		c0,0.1,0,0.2,0,0.3c0,0.1,0.1,0.3,0.3,0.5c0.1,0.2,0.3,0.4,0.4,0.6c0.2,0.2,0.4,0.3,0.5,0.3c0,0,0.1-0.1,0.1-0.1c0,0,0-0.1,0-0.2
		c0-0.2-0.1-0.3-0.2-0.5c-0.2-0.1-0.3-0.3-0.5-0.3c-0.1-0.1-0.2-0.3-0.3-0.5c0,0,0-0.1,0-0.1l0.1,0c0.1,0,0.1,0,0.2,0.1
		c0.1,0.1,0.1,0.1,0.3,0.1c0.2,0,0.3,0,0.4,0c0.1,0,0.2,0,0.3,0c0.1,0,0.3,0,0.4,0.1c0.1,0.1,0.3,0.3,0.4,0.5c0.2,0,0.3,0.1,0.3,0.3
		c0.1,0.1,0.1,0.3,0.1,0.4c0.1,0.2,0.2,0.3,0.3,0.3c0,0,0.1,0,0.1,0c0,0,0,0.1,0,0.1c0,0.2-0.1,0.3-0.1,0.5
		c-0.1,0.2-0.1,0.3-0.1,0.4c0,0,0,0.1,0,0.1c0,0,0.1,0,0.1,0l-0.1-0.4c0.1,0,0.1,0,0.3,0c0.1,0,0.1,0,0.3,0c0,0,0.1,0,0.1,0
		c0,0,0.1,0,0.1,0s0.1,0,0.1,0c0,0,0.1-0.1,0.2-0.1c0.1,0,0.2,0.1,0.4,0.3c0.2,0.2,0.4,0.3,0.6,0.5c0.2,0.2,0.3,0.4,0.3,0.5
		c0,0,0,0.1,0,0.2s0,0.1,0,0.2c0,0,0.1,0,0.1,0c0.1,0,0.1,0.1,0.1,0.1c0,0.1-0.1,0.2-0.1,0.2c-0.1,0.1-0.1,0.1-0.1,0.2
		c0,0.1,0.1,0.1,0.2,0.2c0.1,0.1,0.1,0.2,0.1,0.3c0,0.2,0.1,0.3,0.1,0.5c0,0.1,0,0.3,0,0.4C55,29,55,28.8,55,28.8
		c0-0.1,0.1-0.3,0.1-0.5v-0.5c0,0,0-0.1,0-0.1s0.1-0.1,0.1-0.2c0.1,0.1,0.3,0.2,0.4,0.3c0.1,0.1,0.2,0.2,0.3,0.3
		C55.9,28,56,28,56,28c0.1-0.1,0.1-0.2,0.1-0.3c0-0.1,0-0.2,0-0.4c0-0.2-0.1-0.3-0.1-0.4c0-0.1,0-0.2,0.1-0.3c0-0.1,0.1-0.2,0.1-0.3
		c0-0.4,0.1-0.8,0.1-1.2c0.1-0.4,0.2-0.7,0.4-1c0.3-0.3,0.5-0.7,0.6-1.1c0.1-0.4,0.2-0.8,0.2-1.3c0.1-0.6,0.2-1.2,0.4-1.7
		c0.2-0.5,0.4-1,0.6-1.4c0.2-0.5,0.5-1,0.7-1.5c0.2-0.7,0.4-1.3,0.6-1.9c0.3-0.6,0.6-1.2,0.9-1.8c0.5-1.1,1-2.2,1.5-3.3
		C62.7,9.4,63.2,8.3,63.8,7.2z M71.8,11L71.8,11L71.8,11L71.8,11z M104.1,30.2L104.1,30.2c0,0.1,0.1,0.2,0.1,0.3s0,0.1,0,0.2
		s0,0.1-0.1,0.1c0,0.1-0.1,0.1-0.1,0.2c0-0.1-0.1-0.1-0.1-0.2c0-0.1,0-0.1,0-0.2c0,0,0-0.1,0-0.2C104,30.4,104.1,30.3,104.1,30.2z
		 M110.3,29.1L110.3,29.1c0,0.1,0,0.1,0,0.1c0,0,0.1,0,0.1,0h0c0,0,0.1,0,0.1,0h0l0,0c0,0.1,0,0.2,0,0.3c0,0.1,0,0.2,0,0.4
		c0.1-0.1,0.1-0.3,0.1-0.4c0-0.1,0-0.2-0.1-0.3c0,0,0,0,0,0h-0.1c0,0,0-0.1,0-0.1c0,0,0-0.1,0-0.1s-0.1,0-0.1,0
		S110.4,29.1,110.3,29.1z M115,29.1c0-0.1,0-0.1,0-0.2c0-0.1-0.1-0.1-0.1-0.2c-0.1,0.1-0.1,0.1-0.2,0.2l-0.1,0.1
		c0,0.1,0.1,0.1,0.1,0.2c0,0.1,0.1,0.1,0.1,0.2c0.1-0.1,0.1-0.1,0.2-0.2C114.9,29.2,115,29.2,115,29.1z M112.7,28.3L112.7,28.3
		C112.6,28.3,112.6,28.3,112.7,28.3L112.7,28.3L112.7,28.3z M112.3,27C112.3,27,112.3,27,112.3,27L112.3,27
		C112.3,26.9,112.3,26.9,112.3,27L112.3,27z M112,26.1c0.1-0.1,0.1-0.2,0.2-0.3c0-0.1,0.1-0.1,0.1-0.3c0-0.1,0-0.2,0-0.2
		c0-0.1,0-0.1-0.1-0.1c-0.1,0-0.2,0-0.3,0.2c-0.1,0.1-0.1,0.2-0.1,0.3s0,0.2,0,0.2C111.9,26,111.9,26.1,112,26.1z M84.3,27.5
		C84.2,27.5,84.2,27.5,84.3,27.5l-0.2-0.1L84,27.7c0,0,0,0,0,0l0,0c0,0,0.1,0,0.1,0C84.2,27.6,84.2,27.6,84.3,27.5z M84.5,25.7
		C84.5,25.7,84.6,25.7,84.5,25.7l0.1-0.1v0c0,0-0.1,0-0.1,0v0V25.7C84.5,25.6,84.5,25.7,84.5,25.7z M87.8,29.8
		C87.8,29.8,87.8,29.8,87.8,29.8c0-0.1,0-0.2,0-0.2c0,0,0-0.1,0-0.1s0-0.1,0-0.1c-0.1,0.1-0.1,0.1-0.2,0.3c-0.1,0.1-0.1,0.2-0.1,0.3
		c0,0.1,0,0.1,0.1,0.2c0.1,0,0.1,0.1,0.1,0.1c0-0.1,0.1-0.2,0.1-0.3C87.7,30,87.7,29.9,87.8,29.8z M93.8,28.2V28c0,0,0,0,0,0
		L93.8,28.2C93.7,28.2,93.7,28.2,93.8,28.2z M94.5,28.6c0.1,0,0.1,0,0.2,0h0.1c0,0,0.1,0,0.1,0c-0.1,0.1-0.1,0.2-0.2,0.3
		C94.7,29,94.6,29,94.5,29c0,0-0.1,0-0.1,0c0,0,0-0.1,0-0.1C94.4,28.8,94.5,28.7,94.5,28.6z M92.3,27.7c-0.1,0-0.2,0-0.3,0
		c-0.1,0.1-0.2,0.2-0.2,0.3c0,0.1,0,0.2,0.1,0.2c0.1,0,0.1,0,0.2,0c0.1,0,0.2,0,0.3,0c0.2,0,0.3-0.1,0.3-0.3c0-0.1,0-0.2-0.2-0.2
		C92.5,27.7,92.5,27.7,92.3,27.7z M95.6,26.8c0,0.1-0.1,0.2-0.1,0.3c-0.1,0.1-0.1,0.1-0.1,0.2h0v0c0-0.1,0.1-0.1,0.1-0.2
		C95.5,27,95.6,26.9,95.6,26.8z M99.8,29.3c0-0.1,0.1-0.1,0.1-0.1c0,0,0-0.1-0.1-0.1c0,0-0.1,0-0.1,0c0,0.1-0.1,0.1-0.1,0.2
		c0,0.1,0,0.1-0.1,0.2c0,0,0,0,0,0c0,0,0.1,0.1,0.1,0.1C99.7,29.5,99.8,29.4,99.8,29.3z M101,29.3C101,29.3,101,29.2,101,29.3
		c0.1-0.1,0.1-0.1,0-0.1C101,29.2,101,29.2,101,29.3c0,0-0.1,0.1-0.1,0.1C100.9,29.4,101,29.3,101,29.3z M96.3,26
		c-0.1,0.1-0.1,0.2-0.1,0.2c-0.1,0.1-0.1,0.2-0.1,0.3c0,0.1,0,0.1,0,0.2s0,0.1,0.1,0.1s0.1,0,0.1-0.1c0-0.1,0.1-0.1,0.1-0.2h0
		c0-0.1,0-0.1,0-0.2c0,0,0-0.1,0-0.1v0C96.4,26.2,96.4,26.1,96.3,26z M101,27c0-0.1,0-0.1,0-0.2c-0.1,0-0.1,0-0.1,0
		c-0.1,0-0.1,0-0.2,0c-0.1,0.1-0.2,0.2-0.3,0.3c-0.1,0.1-0.1,0.3-0.2,0.5c0,0,0,0.1,0,0.1c0.1-0.1,0.2-0.2,0.3-0.3
		c0.1-0.1,0.2-0.2,0.3-0.3C100.9,27.1,101,27,101,27z M99.4,27c0,0-0.1,0-0.1,0c0,0-0.1-0.1-0.1-0.1s0,0,0,0.1L99.1,27
		c0,0,0.1,0.1,0.1,0.1c0,0,0.1,0.1,0.1,0.1c0,0,0-0.1,0-0.1C99.3,27.1,99.4,27,99.4,27z M99.8,26.2c0,0,0.1-0.1,0.1-0.1
		c0,0,0.1-0.1,0.1-0.1c0,0,0-0.1,0-0.1c0,0-0.1,0-0.1-0.1c0,0,0,0.1,0,0.1c0,0-0.1,0-0.1,0c0,0,0,0.1,0,0.1
		C99.7,26.1,99.8,26.2,99.8,26.2z M101,23.5L101,23.5l-0.1-0.2c0,0,0,0.1,0,0.1l0,0c0,0,0,0.1,0,0.1l0,0
		C100.9,23.6,100.9,23.5,101,23.5L101,23.5z M99.9,24.4C99.9,24.4,99.8,24.5,99.9,24.4c-0.1,0.1-0.1,0.2-0.1,0.3
		c0,0,0.1,0.1,0.1,0.1c0,0,0-0.1,0-0.1c0,0,0.1-0.1,0.1-0.1C100.1,24.5,100,24.4,99.9,24.4c0.1-0.1,0.1-0.1,0.1-0.2
		C100,24.3,99.9,24.3,99.9,24.4z M100.3,20.5L100.3,20.5c-0.1,0-0.1,0.1-0.1,0.1h0C100.3,20.7,100.3,20.6,100.3,20.5L100.3,20.5z
		 M95.6,14.9c0-0.1,0-0.1,0-0.1c0,0,0-0.1,0-0.1s-0.1,0-0.2,0.1c-0.1,0-0.1,0-0.2,0c0,0,0.1,0.1,0.1,0.1s0.1,0,0.1,0
		c0,0,0.1,0,0.1,0C95.5,14.9,95.5,14.9,95.6,14.9z M99.8,12.9c0,0,0,0.1,0,0.1c0,0,0.1,0.1,0.1,0.1c-0.1,0-0.2,0-0.3,0
		C99.7,13,99.7,12.9,99.8,12.9L99.8,12.9z M89.5,20.4L89.5,20.4L89.5,20.4L89.5,20.4C89.5,20.5,89.5,20.5,89.5,20.4L89.5,20.4
		L89.5,20.4z M84.3,23.6c0-0.1-0.1-0.2-0.1-0.3c-0.1,0-0.2,0.2-0.2,0.4s0,0.4,0,0.6v0.1h0c0.1,0,0.1-0.1,0.2-0.2s0.1-0.1,0.1-0.2v0
		C84.3,23.9,84.3,23.8,84.3,23.6z M84.8,23.2v-0.1V23.2L84.8,23.2L84.8,23.2z M85.2,21.9v-0.2L85,21.8v0.1H85.2z M84,21l-0.2-0.3
		c0,0,0,0.1,0,0.1C83.9,20.9,83.9,20.9,84,21z M79.2,19.4l-0.1,0.1L79.2,19.4L79.2,19.4z M27.3,14.5c0,0,0.1,0,0.1,0
		c0.1,0,0.1,0,0.1,0c0,0,0.1,0.1,0.1,0.1l-0.3,0.1c0-0.1-0.1-0.1-0.1-0.1S27.2,14.6,27.3,14.5C27.2,14.5,27.3,14.5,27.3,14.5z
		 M68.9,30.3v0.1H69L68.9,30.3C69,30.3,68.9,30.3,68.9,30.3z M69.1,28.2C69.1,28,69,27.9,69,27.8c-0.1,0-0.1,0.1-0.1,0.2
		s0,0.2,0,0.3c0,0.1,0,0.2,0,0.3c0,0.1,0.1,0.2,0.2,0.2l0,0c0,0,0.1-0.1,0.1-0.1C69.2,28.5,69.2,28.3,69.1,28.2z M67.5,27.7v-0.1h0
		L67.5,27.7C67.5,27.6,67.5,27.7,67.5,27.7L67.5,27.7z M67.5,25.5C67.5,25.5,67.5,25.5,67.5,25.5c-0.1,0-0.1,0-0.1,0l0,0
		c0,0,0,0,0,0.1c0,0,0,0,0.1,0C67.5,25.7,67.5,25.6,67.5,25.5L67.5,25.5L67.5,25.5z M68.7,25.8c-0.1,0-0.1,0-0.2,0l0,0
		c-0.1,0-0.1,0-0.2,0.1c0,0.1-0.1,0.1-0.1,0.2c0,0,0,0.1,0,0.1c0,0,0.1,0,0.1,0c0.1,0,0.1-0.1,0.1-0.1
		C68.6,25.9,68.6,25.8,68.7,25.8z M44.4,28.3C44.4,28.3,44.4,28.3,44.4,28.3c0.1-0.2,0.1-0.2,0.1-0.3l0,0v0l-0.2,0.2
		C44.3,28.2,44.3,28.3,44.4,28.3L44.4,28.3z M44,26.3v0.1h0L44,26.3L44,26.3z M43.5,25.7L43.5,25.7L43.5,25.7L43.5,25.7z M55.1,30
		C55,30,55,30.1,55,30.2c0,0-0.1,0.1-0.1,0.1s0,0.1,0.1,0.2c0,0.1,0,0.1,0,0.1c0,0,0.1-0.1,0.1-0.1s0-0.1,0-0.1c0,0,0-0.1,0-0.1
		S55.1,30,55.1,30z M52.8,27.1l-0.1,0.1c0,0.1,0,0.1,0,0.2c0,0.1,0.1,0.1,0.1,0.1v-0.1c0,0,0-0.1,0.1-0.1c0,0,0-0.1-0.1-0.1
		C52.8,27.2,52.8,27.1,52.8,27.1z M51.1,27.5H51c-0.1,0-0.2,0-0.4,0.2c-0.1,0.1-0.2,0.2-0.3,0.3c0.1,0,0.3-0.1,0.4-0.1
		C50.8,27.9,51,27.8,51.1,27.5z M51.1,25.3l0-0.2c0,0-0.1,0-0.1,0.1h0l0.1,0.1L51.1,25.3C51.1,25.3,51.1,25.3,51.1,25.3z M53.3,27.7
		L53.3,27.7L53.3,27.7l0.1,0L53.3,27.7L53.3,27.7z M57.7,24.5L57.7,24.5l0-0.1v-0.1C57.7,24.4,57.7,24.4,57.7,24.5
		C57.7,24.5,57.7,24.5,57.7,24.5z M51.3,19.1L51.3,19.1L51.3,19.1L51.3,19.1l0,0.1C51.3,19.2,51.3,19.1,51.3,19.1L51.3,19.1z
		 M50.8,18.4L50.8,18.4l0-0.1l0,0c0,0,0,0,0,0L50.8,18.4L50.8,18.4z M53.1,16v0.2h0.1v-0.1L53.1,16z M51.4,12.8c0,0.1,0,0.1-0.1,0.2
		c0,0.1,0,0.1,0,0.1v0l0.1,0.1l0.1-0.3l-0.1-0.1C51.4,12.9,51.4,12.8,51.4,12.8z M52.4,13.9C52.4,13.9,52.3,13.9,52.4,13.9
		C52.3,13.9,52.3,13.9,52.4,13.9L52.4,13.9z M52.3,12.6c0,0.1-0.1,0.1-0.1,0.1c0,0,0,0.1,0,0.1s0,0.1,0,0.1c0,0,0.1,0,0.1,0l0.1-0.3
		l0,0C52.3,12.7,52.3,12.7,52.3,12.6z M49.4,20.3c-0.1,0.1-0.1,0.1-0.2,0.2c0,0,0.1,0,0.1,0c0,0,0.1,0,0.1,0c0.1,0,0.2,0,0.2,0
		s0.1-0.1,0.1-0.2c0,0,0,0-0.1,0h0C49.5,20.2,49.4,20.2,49.4,20.3z M48.1,21.5c0-0.1,0.1-0.1,0.1-0.2c-0.1,0-0.2,0.1-0.2,0.2
		c0,0.1,0,0.1,0,0.3C48.1,21.6,48.1,21.5,48.1,21.5z M40.9,24.1c0,0,0,0.1,0,0.1c0.1,0,0.2-0.1,0.3-0.2c0-0.1,0.1-0.2,0.1-0.3
		c0,0,0-0.1,0-0.1l-0.1-0.1c0,0.1-0.1,0.1-0.1,0.2S40.9,23.9,40.9,24.1C40.9,24,40.9,24.1,40.9,24.1z M47.2,11.6L47.2,11.6
		c-0.1,0-0.1,0-0.1,0v0.1L47.2,11.6z M48,11.5c-0.1,0-0.1,0-0.3,0c0.1,0.1,0.1,0.1,0.1,0.2c0.1,0,0.1,0.1,0.2,0.1l0.1-0.1
		c0,0,0-0.1,0-0.1c0-0.1,0-0.1,0-0.2c0,0,0,0,0,0C48.1,11.5,48.1,11.5,48,11.5z M47.5,11.5h0.2c0,0,0,0-0.1,0c0,0,0,0,0,0L47.5,11.5
		C47.5,11.5,47.5,11.5,47.5,11.5z M45.9,12.1c-0.1,0-0.2,0.1-0.3,0.1c-0.1,0.1-0.1,0.2-0.1,0.4c0,0.1,0,0.1,0,0.1c0,0.1,0,0.1,0,0.1
		c0,0.1,0,0.1,0,0.2c0,0,0,0.1,0,0.1c0,0.1,0,0.2,0.1,0.2c0.1,0.1,0.1,0.2,0.1,0.3c0,0.2,0,0.4-0.1,0.6s-0.2,0.3-0.3,0.4
		C45.1,14.8,45,14.9,45,15c0,0.1-0.1,0.2-0.1,0.3c-0.1,0.1-0.1,0.2-0.1,0.3c0,0,0,0.1,0.1,0.2c0,0.1,0,0.1,0,0.1
		c0.1,0,0.1-0.1,0.1-0.1c0,0,0.1,0,0.1,0s0.1,0,0.1,0.1c0,0,0,0,0,0.1c0,0.2-0.1,0.3-0.2,0.4c-0.1,0.1-0.3,0.1-0.4,0.1
		c0.1,0.1,0.1,0.3,0.1,0.4c0.1,0.1,0.1,0.3,0.1,0.4c0,0.1,0,0.1-0.1,0.2c0,0.1,0,0.1,0,0.2c0,0.1,0,0.1,0.1,0.2
		c0.1,0.1,0.1,0.2,0.1,0.3c0,0.1,0,0.2,0.1,0.3c0,0.1,0,0.2,0,0.3c0,0.2,0,0.4-0.1,0.5c-0.1,0.1-0.1,0.2-0.3,0.4
		c-0.1,0.2-0.1,0.4-0.3,0.7c0,0,0,0.1,0,0.1c0,0,0,0.1,0.1,0.1c0.1,0,0.1,0,0.2-0.1c0-0.1,0.1-0.2,0.1-0.3v-0.1c0-0.1,0-0.2,0-0.2
		c0,0,0.1,0,0.1,0c0.2,0,0.4,0.1,0.6,0.1C45.9,20,46,20,46.2,20c0.3,0,0.6-0.1,0.8-0.3c0.2-0.1,0.4-0.2,0.6-0.3c0.1,0,0.2,0,0.3,0.1
		c0.1,0.1,0.2,0.1,0.3,0.1c0.1,0,0.1-0.1,0.1-0.1c0.1-0.1,0.1-0.2,0.1-0.3c0,0,0-0.1,0-0.1s0-0.1,0-0.1c0,0,0-0.1,0.1-0.2
		c0-0.1,0.1-0.2,0.1-0.2c0.1,0,0.1,0,0.2,0.1c0.1,0,0.1,0.1,0.2,0.1c0.1-0.2,0.2-0.3,0.3-0.4c0.2-0.1,0.3-0.1,0.4-0.3
		c0.2-0.3,0.4-0.5,0.6-0.6c0.2-0.2,0.5-0.4,0.7-0.6c0.2-0.2,0.3-0.4,0.5-0.6c0.1-0.3,0.1-0.5,0.1-0.7c0-0.1-0.1-0.3-0.3-0.6
		c-0.2-0.3-0.4-0.6-0.7-0.9s-0.5-0.5-0.7-0.6c-0.1,0-0.1-0.1-0.2-0.2c-0.1-0.1-0.1-0.2-0.1-0.3c0-0.1-0.1-0.2-0.1-0.4
		c-0.1-0.2-0.1-0.3-0.1-0.3c-0.1,0-0.2,0.1-0.4,0.2c-0.1,0.1-0.3,0.1-0.5,0.1h-0.1c-0.2-0.1-0.4-0.2-0.6-0.2c-0.2,0-0.4-0.1-0.6-0.2
		c-0.1-0.1-0.3-0.2-0.4-0.2c-0.2,0-0.3-0.1-0.5-0.1C46.1,12.1,46,12.1,45.9,12.1z M40.5,9.8c0.2,0.2,0.4,0.4,0.5,0.6l0.2,0.3
		c0.1,0,0.1,0,0.2-0.1c0.1,0,0.1,0,0.2,0c0.1,0,0.1,0.1,0.1,0.2c0.1,0.1,0.1,0.2,0.1,0.4c0,0.3-0.1,0.6-0.3,0.9
		c-0.1,0.3-0.3,0.6-0.4,0.8c0,0.2-0.1,0.3-0.3,0.5c-0.2,0.1-0.3,0.2-0.5,0.3c-0.2,0.1-0.3,0.1-0.4,0.1c-0.3,0-0.5-0.1-0.7-0.5
		c-0.2-0.2-0.4-0.5-0.5-0.8c-0.2-0.3-0.4-0.4-0.7-0.4c-0.4,0-0.7,0.1-1,0.5c-0.3,0.3-0.5,0.6-0.8,0.9c-0.2,0.4-0.5,0.6-0.9,0.8
		c-0.2,0.1-0.5,0.3-0.6,0.5c-0.2,0.2-0.4,0.5-0.5,0.7c-0.1,0.2-0.2,0.3-0.2,0.4c-0.1,0.5-0.4,1-0.7,1.4c-0.3,0.4-0.6,0.8-0.9,1.1
		c-0.3,0.4-0.4,0.8-0.4,1.1c0,0.3-0.1,0.5-0.2,0.7c-0.1,0.1-0.3,0.3-0.4,0.5c-0.1,0.2-0.2,0.4-0.2,0.7c0,0.2-0.1,0.4-0.2,0.7
		c-0.1,0.3-0.3,0.6-0.5,0.9c-0.2,0.3-0.4,0.6-0.5,0.9c0,0,0,0.1-0.1,0.1c0,0.1,0,0.1,0,0.2v0c0,0,0,0,0.1,0c0.2,0.4,0.4,0.8,0.7,1.2
		c0.3,0.4,0.6,0.7,1,1c0.3,0.2,0.7,0.4,1.2,0.4c0.1,0,0.2,0,0.3,0c0.1,0,0.2,0,0.4,0s0.2,0.1,0.3,0.2c0.1,0.1,0.2,0.2,0.3,0.3
		c0.1-0.2,0.1-0.3,0.2-0.4c0.1-0.1,0.2-0.2,0.4-0.3c0.2-0.1,0.4-0.2,0.6-0.3c0.2-0.1,0.4-0.2,0.6-0.2c0.1,0,0.2,0,0.3,0.1
		c0.1,0,0.2,0.1,0.3,0.1c0.1,0,0.2-0.1,0.3-0.3c0.2-0.2,0.4-0.3,0.6-0.5c0.2-0.2,0.4-0.4,0.6-0.5c0.4-0.1,0.7-0.4,0.9-0.7
		c0.3-0.3,0.5-0.7,0.6-1.2c0.1-0.3,0.3-0.6,0.5-0.9c0.2-0.2,0.5-0.4,0.8-0.5c0.2-0.1,0.5-0.2,0.7-0.2c0.2,0,0.4,0.1,0.5,0.3
		c0.1,0.2,0.2,0.4,0.2,0.7c0,0.2,0,0.4-0.1,0.8c-0.1,0.4-0.2,0.7-0.4,1c-0.1,0.3-0.3,0.5-0.5,0.7c-0.2,0.1-0.3,0.2-0.4,0.3
		c-0.1,0.1-0.1,0.3-0.1,0.5c0,0.4-0.1,0.7-0.3,1c-0.2,0.2-0.4,0.4-0.6,0.6l-0.1,0c-0.1,0-0.1,0-0.1,0c0,0,0,0,0-0.1
		c0-0.1,0-0.2,0.1-0.3c0.1-0.1,0.2-0.2,0.3-0.3c0.1-0.1,0.1-0.2,0.1-0.4c0,0,0-0.1,0-0.1l0-0.1c-0.1,0-0.2,0.1-0.3,0.2
		c-0.1,0.1-0.2,0.2-0.3,0.2c-0.1,0.3-0.2,0.5-0.3,0.6c-0.1,0.2-0.1,0.3-0.3,0.3c0,0-0.1,0-0.2-0.1c-0.1-0.1-0.2-0.1-0.3-0.1
		c-0.1,0-0.1,0.1-0.1,0.3c0,0.2,0,0.5,0,0.6c0,0.2-0.1,0.3-0.3,0.3c0,0-0.1,0-0.2-0.1c-0.1,0-0.2,0-0.3,0c-0.2,0-0.4,0.1-0.6,0.3
		c-0.1,0.2-0.2,0.3-0.3,0.5c-0.1,0.2-0.2,0.3-0.3,0.3c-0.2,0-0.4,0.1-0.5,0.3c-0.2,0.1-0.4,0.2-0.6,0.2c-0.1,0-0.1,0-0.2,0
		c-0.1-0.1-0.2-0.1-0.2-0.1c-0.2,0-0.4,0.1-0.6,0.2c-0.2,0.1-0.4,0.1-0.6,0.2c0,0-0.1,0-0.1-0.1c0,0,0-0.1,0-0.1
		c-0.1,0-0.2,0-0.3-0.1c-0.1-0.1-0.1-0.1-0.3-0.1c0,0-0.1,0.1-0.1,0.2C32.8,30,32.7,30,32.6,30c-0.1,0-0.3-0.1-0.4-0.3
		c-0.1-0.1-0.1-0.1-0.1-0.2c-0.1,0.1-0.2,0.2-0.3,0.3c-0.1,0.1-0.2,0.1-0.4,0.1s-0.2-0.1-0.3-0.2c-0.1-0.1-0.1-0.2-0.3-0.3
		c-0.1-0.1-0.2-0.1-0.4-0.2c-0.1,0-0.3-0.1-0.6-0.3c-0.3-0.2-0.5-0.5-0.8-0.8c-0.3-0.3-0.4-0.7-0.5-1c0-0.3-0.1-0.5-0.1-0.9
		c0-0.3-0.1-0.6-0.1-0.8v0c0,0,0,0,0.1,0c0,0,0-0.1,0-0.1c-0.1,0.1-0.2,0.1-0.2,0.2C28,25.6,28,25.7,28,25.8s0,0.3,0.1,0.5
		c0.1,0.2,0.1,0.4,0.1,0.5c0,0.2,0,0.3-0.1,0.5c-0.1,0.1-0.2,0.2-0.4,0.3c-0.2,0.1-0.4,0.3-0.7,0.5c0.1,0,0.2,0,0.3,0.1
		c0.1,0.1,0.1,0.2,0.1,0.3c0,0.1-0.1,0.1-0.1,0.2c0,0-0.1,0-0.1,0c-0.1,0-0.1-0.1-0.1-0.1c-0.1,0-0.1-0.1-0.1-0.1
		c-0.2,0.3-0.5,0.6-0.8,0.8c-0.2,0.2-0.5,0.4-0.8,0.6c-0.3,0.2-0.5,0.4-0.8,0.7c-0.3,0.3-0.6,0.4-1,0.5c-0.4,0.1-0.8,0.2-1.1,0.3
		c-0.1,0.1-0.1,0.1-0.2,0.1c-0.1,0-0.1,0-0.2,0c-0.1,0-0.3,0-0.4-0.2c-0.1-0.1-0.3-0.1-0.4-0.1c-0.5,0-1,0.1-1.5,0.3
		c-0.5,0.2-1,0.3-1.4,0.3c-0.1,0-0.2-0.1-0.3-0.2c0-0.1-0.1-0.2-0.1-0.3c0-0.1-0.1-0.2-0.1-0.2c0,0-0.1,0-0.1,0
		c-0.1,0.1-0.2,0.1-0.3,0.2l-0.2,0.1l0.2-0.2c-0.4-0.1-0.7-0.2-0.9-0.5c-0.2-0.3-0.4-0.6-0.4-1.1c-0.1-0.2-0.1-0.4-0.3-0.6
		c-0.1-0.2-0.3-0.5-0.6-0.7h0.1c-0.1-0.1-0.1-0.3-0.1-0.5c0-0.2,0-0.3,0-0.5c0-0.2,0-0.3,0-0.3c0,0-0.1,0-0.2,0
		c-0.1,0-0.1,0.1-0.1,0.1c-0.1,0-0.2-0.1-0.2-0.3c0-0.2,0-0.4,0-0.6c0-0.2,0-0.4,0-0.6c0-0.5,0.1-0.9,0.2-1.2
		c0.2-0.3,0.4-0.4,0.6-0.4c0.5,0,0.9,0.2,1.1,0.6c0.2,0.4,0.4,1,0.5,1.7c0,0.4,0.1,0.8,0.2,1.3c0.1,0.4,0.3,0.8,0.6,1.3
		c0.1,0.1,0.1,0.3,0.2,0.5c0.1,0.2,0.2,0.3,0.2,0.5l0.1,0.2c0,0,0.1-0.1,0.1-0.2c0.1-0.1,0.1-0.3,0.2-0.4c0.1-0.1,0.2-0.2,0.3-0.2
		c0.2,0,0.3,0.1,0.4,0.2c0.1,0.1,0.1,0.2,0.1,0.3c0,0.1,0,0.2-0.1,0.4c0,0.1,0,0.2,0,0.3c0.1,0,0.1,0,0.1,0c0.1,0,0.1,0,0.2,0
		c0.2,0,0.3,0,0.4-0.2c0.1-0.1,0.2-0.3,0.2-0.5c0,0,0-0.1,0-0.1c0,0,0-0.1,0-0.1c0-0.1,0-0.3,0-0.3c0-0.1,0.1-0.2,0.2-0.2
		c0,0,0.1,0.1,0.1,0.2c0.1,0.1,0.1,0.2,0.1,0.3c0.1,0.1,0.1,0.1,0.2,0.1c0.2-0.3,0.4-0.4,0.6-0.4c0.2,0,0.5-0.1,0.8-0.1
		c0.3,0,0.5-0.1,0.8-0.3c0.1-0.1,0.3-0.2,0.5-0.4c0.2-0.1,0.5-0.3,0.8-0.4c0.2-0.2,0.5-0.4,0.7-0.5c0.2-0.2,0.3-0.4,0.3-0.7
		c-0.1-0.3-0.1-0.7-0.1-1.1c0-0.4-0.1-0.8-0.2-1.2C25,24.2,24.9,24,24.6,24c-0.1,0-0.2,0-0.4,0.2c-0.2,0.1-0.3,0.1-0.5,0.1
		c-0.1,0-0.1,0-0.1-0.1c0,0,0-0.1,0-0.1c0-0.1,0.1-0.3,0.1-0.4c0.1-0.2,0.1-0.3,0.1-0.5c-0.3,0.2-0.5,0.3-0.6,0.4
		c-0.1,0.1-0.3,0.2-0.4,0.2c-0.1,0-0.2-0.1-0.4-0.3c-0.2-0.1-0.4-0.3-0.6-0.5c-0.2-0.2-0.3-0.5-0.3-0.7c0-0.1,0-0.1,0.1-0.3
		c0-0.1,0-0.1,0-0.2c-0.1,0.1-0.3,0.3-0.4,0.3c-0.1,0.1-0.3,0.2-0.4,0.2c-0.1,0-0.2-0.1-0.4-0.3c-0.2-0.1-0.5-0.3-0.8-0.5
		c-0.3-0.2-0.5-0.3-0.7-0.5L18.5,21c-0.1-0.1-0.1-0.3-0.2-0.5c0-0.1-0.1-0.2-0.2-0.3s-0.2-0.1-0.3-0.1c-0.1,0-0.3-0.1-0.4-0.2
		c-0.2-0.1-0.4-0.3-0.6-0.5c-0.2-0.2-0.3-0.5-0.4-0.8c-0.1-0.3-0.1-0.6-0.1-0.8c0-0.2,0-0.4,0.1-0.6c0.1-0.2,0.2-0.5,0.3-0.6
		c0.1-0.2,0.1-0.4,0.1-0.6c0-0.1,0-0.1,0-0.1c0-0.1,0-0.1,0-0.1c0-0.1,0-0.2,0-0.3c0.1,0,0.1-0.1,0.2-0.1c0,0,0.1,0,0.1,0
		s0.1,0,0.1,0c0.1,0,0.2-0.1,0.3-0.2c0.1-0.2,0.1-0.3,0.2-0.5c0-0.1,0.1-0.2,0.1-0.3c0.3,0,0.5-0.1,0.6-0.3c0.2-0.2,0.3-0.5,0.4-0.8
		c0.1-0.3,0.3-0.5,0.4-0.8c0.1-0.2,0.3-0.3,0.6-0.3c0.1,0,0.2,0.1,0.3,0.2c0.1,0.1,0.1,0.3,0.1,0.4c0.1,0.2,0.1,0.3,0.1,0.3
		c0.1,0,0.3-0.1,0.4-0.4c0.1-0.2,0.3-0.5,0.4-0.8c0.1-0.2,0.3-0.4,0.4-0.5c0.1,0,0.1,0,0.3,0c0.1,0,0.2-0.1,0.3-0.1
		c0.2,0,0.4,0,0.5,0.1c0.1,0.1,0.3,0.1,0.4,0.1c0.1,0,0.2-0.1,0.4-0.1c0.1-0.1,0.2-0.1,0.3-0.1c0.1,0,0.2,0.1,0.3,0.2
		C23.9,11.8,24,12,24,12c0.1,0.1,0.1,0.2,0.3,0.2c0.1,0,0.2-0.1,0.3-0.3c0.1-0.2,0.1-0.4,0.1-0.6c0-0.1,0-0.1,0-0.2
		c0-0.1,0-0.1,0-0.2c0-0.1,0-0.2,0-0.2s0.1-0.1,0.1-0.1H25c0.1,0,0.2,0,0.4-0.1c0.1-0.1,0.2-0.1,0.4-0.1s0.3,0,0.3,0.1
		c0.1,0.1,0.3,0.2,0.4,0.3c0.1,0.1,0.3,0.2,0.4,0.2c0.2,0,0.4-0.1,0.6-0.2c0.2-0.1,0.4-0.1,0.6-0.1c0.1,0,0.2,0,0.3,0.1
		c0.1,0.1,0.2,0.1,0.3,0.1c0.3,0,0.5,0.2,0.6,0.4c0.1,0.2,0.1,0.5,0.1,0.9c0,0.2-0.1,0.3-0.1,0.5c-0.1,0.2-0.2,0.4-0.3,0.5
		c-0.1,0.2-0.3,0.3-0.4,0.3s-0.3,0-0.4-0.1c-0.2,0-0.3-0.1-0.4-0.1c-0.2,0-0.4,0-0.6,0c-0.2,0-0.4,0.1-0.5,0.1c-0.1,0-0.2,0-0.3,0
		c-0.1,0-0.2,0-0.3-0.1c-0.1,0.1-0.2,0.2-0.3,0.3c-0.1,0-0.2,0-0.3,0c-0.1,0-0.2,0-0.3-0.1c-0.1,0-0.2,0-0.3,0
		c-0.1,0-0.3,0.1-0.5,0.2c-0.3,0.1-0.5,0.3-0.8,0.4c-0.3,0.1-0.5,0.2-0.7,0.3c-0.1,0-0.2-0.1-0.3-0.1c-0.1-0.1-0.1-0.2-0.1-0.3
		C22.3,14,22.3,14,22.3,14s-0.1,0.1-0.1,0.3c-0.1,0.1-0.1,0.3-0.2,0.4c-0.1,0.1-0.2,0.2-0.3,0.2c-0.3,0.1-0.6,0.2-0.9,0.4
		c-0.3,0.2-0.5,0.4-0.9,0.6c-0.2,0.1-0.5,0.2-0.8,0.3c-0.3,0.1-0.5,0.3-0.8,0.5C18.2,16.8,18,17,18,17.3c0,0.2,0.1,0.4,0.2,0.6
		c0.1,0.2,0.2,0.3,0.4,0.3c0.1,0,0.3,0,0.4,0c0.1-0.1,0.2-0.1,0.3-0.1s0.1,0.1,0.1,0.3c0,0.1,0.1,0.3,0.1,0.5c0,0.1,0.1,0.2,0.2,0.2
		h0.1c0.2,0,0.3,0,0.3,0.1c0.1,0.1,0.1,0.2,0.2,0.3c0.1,0.1,0.2,0.2,0.3,0.3c0,0,0-0.1,0.1-0.1c0-0.1,0-0.1,0-0.2c0,0,0-0.1,0-0.1
		c0,0,0-0.1,0-0.1c0-0.2,0-0.3,0.1-0.5c0.1-0.1,0.2-0.3,0.3-0.4c0.1,0,0.2,0.1,0.3,0.1c0.1,0,0.1,0.1,0.2,0.2
		c0.1,0.4,0.3,0.6,0.6,0.8c0.3,0.1,0.6,0.1,0.9,0.1c0.1,0,0.2,0,0.3,0c0.1,0,0.2,0,0.4,0l0.2-0.1l-0.2,0.2c0.1,0.1,0.1,0.3,0.1,0.5
		c0,0.2,0.1,0.4,0.1,0.5c0,0.1,0.1,0.2,0.1,0.2c0.1,0,0.2-0.1,0.3-0.3c0.1-0.2,0.2-0.3,0.4-0.3c0,0,0.1,0,0.1,0l0,0
		c0.2,0.2,0.4,0.4,0.7,0.5c0.2,0,0.4,0.1,0.7,0.2c0.2,0,0.5,0.1,0.7,0.3c0.2,0.2,0.4,0.4,0.6,0.8c0.2,0.4,0.5,0.7,0.6,1
		c0.2,0.3,0.3,0.5,0.3,0.5c0,0.1,0,0.1-0.1,0.2c-0.1,0.1-0.2,0.3-0.4,0.5c0.2,0.1,0.3,0.3,0.5,0.3c0.1,0.1,0.1,0.1,0.2,0.2
		c0-0.2,0-0.3,0.1-0.5c0-0.5,0.1-0.9,0.4-1.4h0c-0.1,0-0.2-0.1-0.3-0.2c0-0.1,0-0.2,0-0.3c0-0.3,0-0.7,0.1-1.2
		c0.1-0.5,0.2-0.9,0.4-1.3c0.2-0.4,0.4-0.8,0.7-0.9c0-0.4,0.2-0.9,0.4-1.3c0.2-0.4,0.5-0.8,0.8-1.2c0.3-0.4,0.6-0.8,0.9-1.1l0,0
		v-0.1c0.1-0.3,0.2-0.6,0.4-0.8c0.2-0.2,0.4-0.3,0.6-0.5c0.2-0.2,0.3-0.4,0.4-0.6c0.2-0.4,0.4-0.7,0.8-1c0.3-0.3,0.7-0.6,1.1-0.9
		c0.3-0.2,0.6-0.4,0.9-0.6c0.2-0.1,0.4-0.2,0.4-0.3h0c0,0,0.1,0,0.1-0.1c0.1,0,0.1-0.1,0.1-0.1c0.1-0.2,0.3-0.3,0.4-0.5
		c0.2-0.2,0.4-0.3,0.6-0.5C38,9.1,38.1,9.1,38.3,9c0.1,0,0.2,0.1,0.4,0.2c0.1,0.1,0.2,0.3,0.3,0.4c0.1,0.1,0.3,0.2,0.4,0.2
		s0.2-0.1,0.4-0.3C39.9,9.4,40,9.3,40,9.1C40.2,9.3,40.3,9.5,40.5,9.8z M50.6,11.6L50.6,11.6v-0.1c0,0-0.1,0-0.1,0c0,0,0,0,0,0
		c0,0,0,0,0,0.1H50.6z M79.4,22.5c0,0-0.1,0-0.1,0h-0.1l0,0v0c0,0,0.1,0,0.1,0c0,0,0.1-0.1,0.1-0.1L79.4,22.5z M79.2,21.8L79.2,21.8
		L79.2,21.8L79.2,21.8z M76.8,22.5c0-0.1,0-0.2,0-0.4C76.7,22.4,76.7,22.5,76.8,22.5c-0.1,0.1-0.1,0.2,0,0.3
		C76.7,22.8,76.8,22.7,76.8,22.5z M77.7,21.8C77.7,21.8,77.7,21.8,77.7,21.8c0-0.1,0-0.2,0-0.3L77.7,21.8L77.7,21.8
		C77.7,21.8,77.7,21.8,77.7,21.8z M77.7,20.2L77.7,20.2h0.1l-0.1-0.1L77.7,20.2L77.7,20.2z M76.1,20.5
		C76.1,20.5,76.1,20.5,76.1,20.5L76,20.7l0.2,0.1v0c0,0,0,0,0,0L76.1,20.5z M77,20.7l0.2-0.2c0,0,0-0.1,0-0.1l-0.1,0l-0.2,0.2
		L77,20.7z M80.2,20.6c0,0.1-0.1,0.2-0.2,0.3c0,0.1-0.1,0.2-0.1,0.2c-0.1,0-0.1,0-0.2-0.1c0,0,0-0.1,0-0.2c0-0.1,0-0.2,0-0.3
		c0,0,0.1-0.1,0.2-0.2c0,0,0.1,0.1,0.1,0.1C80.1,20.5,80.1,20.6,80.2,20.6z M26,16C25.9,16,25.9,15.9,26,16l-0.1-0.1L26,16z
		 M20.8,31.8h0.1v0.1c0,0-0.1,0-0.1,0V31.8z M23.6,29l-0.1,0.3l0.2,0.3c0,0,0-0.1,0-0.1c0,0,0.1-0.1,0.1-0.1c0-0.1-0.1-0.1-0.1-0.1
		C23.7,29.1,23.7,29,23.6,29z M22.2,29.8L22.2,29.8L22.2,29.8C22.2,29.8,22.2,29.8,22.2,29.8z M26.2,26.3
		C26.2,26.3,26.3,26.3,26.2,26.3c0.1-0.1,0.1-0.1,0.1-0.1c0-0.1-0.1-0.1-0.1-0.2c0-0.1-0.1-0.1-0.1-0.2L26,26.1L26.2,26.3z
		 M29.8,25.8v-0.3c0,0-0.1,0-0.1,0.1c0,0-0.1,0.1-0.1,0.1h0.1C29.7,25.7,29.7,25.8,29.8,25.8L29.8,25.8z M35.1,28.5
		c0,0.1,0,0.1,0,0.2c0,0,0-0.1,0.1-0.1v0C35.2,28.5,35.2,28.5,35.1,28.5L35.1,28.5C35.1,28.4,35.1,28.5,35.1,28.5z M31.3,28.7
		c0,0,0-0.1,0-0.2C31.2,28.6,31.2,28.6,31.3,28.7c-0.1,0.1-0.1,0.1-0.1,0.1L31.3,28.7L31.3,28.7C31.3,28.7,31.3,28.7,31.3,28.7z
		 M36.1,28.8L36.1,28.8L36.1,28.8L36.1,28.8L36.1,28.8z M39.8,25.3l0-0.2L39.8,25.3L39.8,25.3z M19.8,32l-0.2,0.2l0-0.3
		c0,0,0-0.1,0-0.1c0,0,0.1,0,0.1,0s0.1,0,0.1,0C19.7,31.9,19.7,31.9,19.8,32z M15.3,28.2c0,0.1-0.1,0.1-0.1,0.1
		c0,0.1-0.1,0.1-0.1,0.1l-0.1,0c0-0.1,0.1-0.2,0.1-0.2C15.2,28.2,15.2,28.2,15.3,28.2z M16.9,25.7l0-0.3c0,0-0.1,0.1-0.1,0.1
		c0,0,0,0.1,0,0.1s0,0.1,0,0.1c0,0.1,0,0.1,0,0.2C16.8,25.7,16.8,25.7,16.9,25.7z M20,14.6c0,0-0.1-0.1-0.1-0.1c0,0-0.1,0-0.1,0h0v0
		c0,0,0,0.1,0,0.1c0,0.1,0.1,0.1,0.1,0.1h0C19.9,14.7,20,14.6,20,14.6z M26,23.6c-0.1,0.1-0.2,0.2-0.2,0.3c0,0.1-0.1,0.2-0.1,0.3
		c0,0.1,0.1,0.3,0.2,0.3c0.1,0.1,0.2,0.2,0.4,0.3s0.2,0.1,0.3,0.2c0.2,0,0.3-0.2,0.4-0.4c0.2-0.2,0.3-0.3,0.3-0.4
		c0-0.1,0-0.3-0.1-0.4c0-0.1-0.1-0.3-0.2-0.4c-0.1,0.2-0.2,0.3-0.3,0.4c0,0.1-0.1,0.2-0.2,0.2s-0.2,0-0.3-0.1
		C26.2,23.8,26.1,23.7,26,23.6z M26.1,22.3c0,0-0.1,0.1-0.1,0.2c0,0,0,0.1,0,0.1l0.1,0.2c0,0,0-0.1,0-0.1c0,0,0-0.1,0-0.2
		c0,0,0-0.1,0-0.1C26.1,22.4,26.1,22.4,26.1,22.3z M26.9,22.1L26.9,22.1L26.9,22.1L26.8,22c0,0,0,0,0,0v0l0,0.1L26.9,22.1
		C26.8,22.1,26.8,22.1,26.9,22.1z M24.8,22.5l0.1-0.1c0,0-0.1-0.1-0.1-0.1h0C24.8,22.4,24.7,22.4,24.8,22.5L24.8,22.5L24.8,22.5z
		 M21,20.7c0.1,0.1,0.2,0.1,0.3,0.1c0-0.2,0-0.3-0.1-0.4c-0.1-0.1-0.2-0.2-0.3-0.2c0,0-0.1,0-0.1,0h0C20.8,20.5,20.9,20.6,21,20.7z
		 M23,20.8L23,20.8c0-0.1,0-0.2,0-0.2c0,0,0-0.1,0-0.1c-0.1,0-0.1,0-0.2,0c0,0-0.1,0-0.1,0c0,0-0.1,0-0.1,0h0
		c0.1,0.1,0.1,0.1,0.2,0.2C22.8,20.8,22.9,20.8,23,20.8z M21,17.9c0,0.1,0,0.1,0,0.2c-0.1,0-0.1,0-0.2-0.1c0,0,0-0.1,0-0.3h0.1
		C20.9,17.8,21,17.8,21,17.9z M21.5,12.7L21.4,13l0.2-0.3L21.5,12.7z M22.3,12.8c0,0,0-0.1,0-0.1l0-0.1l-0.1,0.1
		C22.1,12.7,22.2,12.8,22.3,12.8C22.2,12.8,22.3,12.8,22.3,12.8z M23.9,14.5L23.9,14.5C23.9,14.5,23.9,14.5,23.9,14.5L23.9,14.5z"/>
</g>
</svg>
