<?xml version="1.0" encoding="utf-8"?>
<!-- Generator: Adobe Illustrator 20.0.0, SVG Export Plug-In . SVG Version: 6.00 Build 0)  -->
<svg version="1.1" id="Layer_1" xmlns="http://www.w3.org/2000/svg" xmlns:xlink="http://www.w3.org/1999/xlink" x="0px" y="0px"
	 viewBox="0 0 190 67" style="enable-background:new 0 0 190 67;" xml:space="preserve">
<style type="text/css">
	.st0{fill:#F1F5F7;}
</style>
<g>
	<g>
		<path class="st0" d="M58,19.4l-16.9,7.3l0.4,1.1l17.1-7.3L58,19.4z M56.7,17.2l-16.5,7l0.4,1.1l16.8-7.1L56.7,17.2z M58.4,31.5
			l2.6,5.1l-24.4,10l-5.3-22.4l6-2.6l0.4,1.3L32.8,25l0.3,1.1l4.9-2l0.4,1.1l-4.9,2l0.4,1.1l5-2.1l0.4,1.1l-5,2.1l0.4,1.1l5.1-2.1
			l0.4,1.1L35,31.7l0.4,1.1l5.1-2.1l0.4,1.1l-5.6,2.4l0.4,1.3l5.4-2.3l1.5,4.9L58.4,31.5z M56.2,16.2l-0.5-0.9l-16.1,6.9l0.4,1
			L56.2,16.2z M38.5,19.4l5.1-2.1l-0.4-0.9l-5.1,2.1L38.5,19.4z M36.6,17.7L55,9.8l11.1,17.6L43,37.1L36.6,17.7z M38.8,20.2l0.4,1
			l15.9-6.8l-0.5-0.9L38.8,20.2z M32.7,32.6l-5.1,2.1l0.3,1.3l5.1-2.1l0.4,1.3l-5.3,2.1l0.3,1.3l5.3-2.3l0.4,1.3l-5.4,2.3l0.3,1.4
			l5.5-2.3l0.4,1.4L29,42.9l0.3,1.5l5.6-2.4l1.3,5.6l16.6-6.9l2.5,5.9L29.5,57.2l-4-25.7l6.3-2.8l0.4,1.5l-5,2.1l0.3,1.1l5.1-2.1
			L32.7,32.6z"/>
	</g>
</g>
<g>
	<path class="st0" d="M82.1,17.8c0-0.1,0-0.2,0-0.3c0-0.1,0-0.2,0-0.4c0-0.5-0.1-0.9-0.2-1.1s-0.4-0.3-0.9-0.3s-0.7,0.1-0.9,0.3
		c-0.2,0.2-0.2,0.6-0.2,1.1s0.1,0.9,0.2,1.1s0.3,0.4,0.6,0.6c0.3,0.2,0.7,0.4,1,0.5s0.6,0.3,0.8,0.4c0.3,0.1,0.5,0.2,0.7,0.3
		c0.2,0.1,0.5,0.2,0.7,0.4c0.2,0.2,0.5,0.4,0.7,0.6s0.3,0.5,0.5,0.8c0.1,0.3,0.2,0.7,0.3,1.2c0.1,0.5,0.1,1.1,0.1,1.8
		c0,1-0.1,1.9-0.2,2.6s-0.4,1.2-0.7,1.7c-0.3,0.4-0.8,0.7-1.4,0.9c-0.6,0.2-1.3,0.3-2.2,0.3c-1.4,0-2.5-0.3-3.2-0.8s-1-1.5-1-2.9
		c0-0.4,0-0.9,0-1.3c0-0.5,0.1-0.8,0.1-1.1h3c0,0.1,0,0.2,0,0.3c0,0.1,0,0.2,0,0.3c0,0.7,0.1,1.1,0.2,1.4s0.4,0.4,0.9,0.4
		s0.8-0.1,0.9-0.3c0.1-0.2,0.2-0.7,0.2-1.4c0-0.4-0.1-0.8-0.2-1s-0.4-0.5-0.7-0.7c-0.3-0.2-0.6-0.4-0.9-0.5
		c-0.3-0.2-0.6-0.3-0.9-0.4s-0.6-0.3-0.9-0.4c-0.3-0.2-0.6-0.3-0.8-0.6c-0.5-0.4-0.8-1-0.9-1.7s-0.1-1.7-0.1-2.8
		c0-0.8,0.1-1.5,0.2-2.1c0.1-0.6,0.4-1,0.7-1.4c0.3-0.3,0.8-0.6,1.3-0.7c0.6-0.2,1.3-0.2,2.1-0.2c0.8,0,1.4,0.1,2,0.2
		c0.5,0.1,1,0.3,1.3,0.6c0.3,0.3,0.6,0.7,0.7,1.2s0.2,1.1,0.2,1.8c0,0.5,0,0.9,0,1.1c0,0.3-0.1,0.5-0.1,0.7h-3
		C82.1,18,82.1,17.8,82.1,17.8z"/>
	<path class="st0" d="M92.7,29.8v-7.2h-2.3v7.2h-3.7V12.4h3.7v6.7h2.3v-6.7h3.7v17.4C96.4,29.8,92.7,29.8,92.7,29.8z"/>
	<path class="st0" d="M106.2,28.7c-0.2,0.3-0.3,0.5-0.5,0.7s-0.5,0.3-0.8,0.4s-0.7,0.2-1.1,0.2s-0.9,0.1-1.4,0.1
		c-1.1,0-2-0.1-2.5-0.3c-0.6-0.2-1-0.6-1.3-1.1c-0.2-0.3-0.3-0.5-0.4-0.9s-0.2-0.7-0.3-1.3c-0.1-0.5-0.1-1.2-0.1-2.1s0-2,0-3.3
		s0-2.5,0-3.3c0-0.9,0.1-1.6,0.1-2.1c0.1-0.5,0.2-1,0.3-1.3c0.1-0.3,0.2-0.6,0.4-0.9c0.2-0.3,0.3-0.5,0.5-0.7
		c0.2-0.2,0.5-0.3,0.8-0.4c0.3-0.1,0.7-0.2,1.1-0.2s0.9-0.1,1.5-0.1c1.1,0,1.9,0.1,2.5,0.3c0.6,0.2,1,0.6,1.3,1.1
		c0.2,0.3,0.3,0.6,0.4,0.9s0.2,0.7,0.3,1.3c0.1,0.5,0.1,1.2,0.1,2.1s0,2,0,3.3s0,2.5,0,3.3c0,0.9-0.1,1.6-0.1,2.1
		c-0.1,0.5-0.2,1-0.3,1.3S106.4,28.4,106.2,28.7z M103.3,25.8c0-0.1,0.1-0.2,0.1-0.4c0-0.2,0.1-0.4,0.1-0.8c0-0.3,0-0.8,0-1.4
		s0-1.3,0-2.3s0-1.7,0-2.3s0-1,0-1.4c0-0.3,0-0.6-0.1-0.8c0-0.2-0.1-0.3-0.1-0.4c-0.1-0.2-0.2-0.3-0.3-0.3s-0.3-0.1-0.6-0.1
		s-0.5,0-0.6,0.1s-0.2,0.2-0.3,0.3c0,0.1-0.1,0.2-0.1,0.4c0,0.2,0,0.4-0.1,0.8c0,0.3,0,0.8,0,1.4s0,1.4,0,2.3s0,1.7,0,2.3s0,1,0,1.4
		c0,0.3,0,0.6,0.1,0.8c0,0.2,0.1,0.3,0.1,0.4c0,0.2,0.1,0.3,0.3,0.3c0.1,0.1,0.3,0.1,0.6,0.1s0.5,0,0.6-0.1
		C103.1,26,103.2,25.9,103.3,25.8z"/>
	<path class="st0" d="M117.1,29.8l-1.2-10.7h-0.3l-1.3,10.7h-5.1l-1.5-17.4h3.7l0.8,11.8h0.3l1.6-11.8h3.6l1.5,11.8h0.3l0.8-11.8
		h3.4l-1.5,17.4H117.1z"/>
	<path class="st0" d="M131.6,29.8V16.1h-2.7v-3.7h9.1v3.7h-2.8v13.7C135.2,29.8,131.6,29.8,131.6,29.8z"/>
	<path class="st0" d="M139,29.8V12.4h7.7v3.7h-4.1v3.1h4v3.5h-4V26h4.1v3.9L139,29.8L139,29.8z"/>
	<path class="st0" d="M154,29.8l-1.2-6.3h-0.3l-1.2,6.3h-3.7v-0.1l2.3-9.5l-1.8-7.7v-0.1h3.7l0.9,4.9h0.3l1.1-4.9h3.5v0.1l-1.9,7.7
		l2.2,9.5v0.1H154z"/>
	<path class="st0" d="M161.1,29.8V16.1h-2.7v-3.7h9.1v3.7h-2.7v13.7C164.8,29.8,161.1,29.8,161.1,29.8z"/>
</g>
<g>
	<path class="st0" d="M72.9,47v-3.1h8.2V47H72.9z"/>
	<path class="st0" d="M80.8,55v-4.2h2.8v-8.3h-2.8V39h1.7c0.3,0,0.6,0,0.8-0.1c0.2,0,0.4-0.1,0.5-0.2c0.1-0.1,0.2-0.3,0.3-0.5
		c0.1-0.2,0.1-0.5,0.1-0.9l0.1-1.3h3.3v14.8h2.6V55H80.8z"/>
	<path class="st0" d="M96.2,55.3c-0.8,0-1.5,0-2-0.1s-1-0.2-1.4-0.4s-0.7-0.5-0.9-0.9c-0.2-0.4-0.4-1-0.5-1.7s-0.2-1.7-0.2-2.8
		s0-2.5,0-4.1s0-2.9,0-4s0.1-2,0.2-2.8s0.3-1.3,0.5-1.7s0.5-0.7,0.9-0.9s0.9-0.3,1.4-0.4s1.2-0.1,2-0.1s1.5,0,2,0.1
		c0.6,0,1,0.2,1.4,0.4s0.7,0.5,0.9,0.9c0.2,0.4,0.4,1,0.5,1.7s0.2,1.6,0.2,2.8s0.1,2.5,0.1,4c0,1.6,0,2.9-0.1,4.1
		c0,1.1-0.1,2-0.2,2.8s-0.3,1.3-0.5,1.7s-0.5,0.7-0.9,0.9s-0.9,0.3-1.4,0.4C97.7,55.3,97,55.3,96.2,55.3z M96.2,51.1
		c0.3,0,0.5,0,0.7-0.1s0.3-0.3,0.4-0.6s0.1-0.9,0.2-1.7s0-1.9,0-3.3c0-1.4,0-2.6,0-3.4c0-0.8-0.1-1.4-0.1-1.7
		c-0.1-0.4-0.2-0.6-0.4-0.7c-0.2-0.1-0.4-0.1-0.7-0.1s-0.5,0-0.7,0.1s-0.3,0.3-0.4,0.7s-0.1,0.9-0.1,1.7s0,1.9,0,3.4
		c0,1.4,0,2.5,0,3.3s0.1,1.3,0.2,1.7s0.2,0.6,0.4,0.6C95.7,51,95.9,51.1,96.2,51.1z"/>
	<path class="st0" d="M107.8,55V35.9h5.7c0.9,0,1.6,0.1,2.1,0.3c0.6,0.2,1,0.6,1.3,1.1s0.6,1.2,0.7,2s0.2,1.9,0.2,3.1
		c0,1.2-0.1,2.3-0.2,3.2s-0.4,1.6-0.7,2.1s-0.8,0.9-1.3,1.2c-0.6,0.2-1.3,0.4-2.1,0.4h-1.8V55H107.8z M112.8,45.3
		c0.4,0,0.6-0.2,0.8-0.6c0.2-0.4,0.2-1.2,0.2-2.3c0-1-0.1-1.7-0.3-2s-0.5-0.5-0.8-0.5h-1v5.4C111.7,45.3,112.8,45.3,112.8,45.3z"/>
	<path class="st0" d="M128.2,53.8c-0.2,0.3-0.4,0.6-0.6,0.7c-0.2,0.2-0.5,0.4-0.8,0.5s-0.7,0.2-1.2,0.3s-1,0.1-1.6,0.1
		c-1.2,0-2.2-0.1-2.8-0.3s-1.1-0.6-1.4-1.2c-0.2-0.3-0.3-0.6-0.4-0.9c-0.1-0.3-0.2-0.8-0.3-1.4c-0.1-0.6-0.1-1.4-0.2-2.3
		c0-0.9-0.1-2.2-0.1-3.7s0-2.7,0.1-3.7c0-0.9,0.1-1.7,0.2-2.3s0.2-1,0.3-1.4c0.1-0.3,0.3-0.7,0.4-1c0.2-0.3,0.4-0.5,0.6-0.7
		s0.5-0.4,0.8-0.5s0.7-0.2,1.2-0.3s1-0.1,1.6-0.1c1.2,0,2.1,0.1,2.8,0.4c0.6,0.2,1.1,0.6,1.4,1.2c0.2,0.3,0.3,0.6,0.4,1
		c0.1,0.3,0.2,0.8,0.3,1.4s0.1,1.4,0.2,2.3c0,0.9,0,2.2,0,3.7s0,2.7,0,3.7c0,0.9-0.1,1.7-0.2,2.3s-0.2,1.1-0.3,1.4
		C128.5,53.2,128.3,53.5,128.2,53.8z M125,50.6c0-0.1,0.1-0.3,0.1-0.5s0.1-0.5,0.1-0.8s0-0.9,0-1.5s0-1.5,0-2.5c0-1.1,0-1.9,0-2.5
		s0-1.1,0-1.5s0-0.7-0.1-0.8c0-0.2-0.1-0.3-0.1-0.5c-0.1-0.2-0.2-0.3-0.3-0.4s-0.4-0.1-0.7-0.1s-0.6,0-0.7,0.1s-0.2,0.2-0.3,0.4
		c-0.1,0.1-0.1,0.3-0.1,0.5s-0.1,0.5-0.1,0.8c0,0.4,0,0.9,0,1.5s0,1.5,0,2.5s0,1.9,0,2.5s0,1.1,0,1.5s0.1,0.6,0.1,0.8
		s0.1,0.3,0.1,0.5s0.1,0.3,0.3,0.4c0.1,0.1,0.4,0.1,0.7,0.1s0.5,0,0.7-0.1C124.8,50.9,124.9,50.8,125,50.6z"/>
	<path class="st0" d="M130.6,55V35.9h4.1V55C134.7,55,130.6,55,130.6,55z"/>
	<path class="st0" d="M144.6,55l-4.5-10.2h-0.2V55h-3.6V35.9h3.9l2.7,6.6h0.2v-6.6h3.6V55C146.7,55,144.6,55,144.6,55z"/>
	<path class="st0" d="M150.8,55V40h-3v-4h9.9v4h-3v15H150.8z"/>
	<path class="st0" d="M164.1,41.8c0-0.1,0-0.2,0-0.3s0-0.3,0-0.5c0-0.6-0.1-1-0.2-1.2c-0.1-0.2-0.5-0.3-0.9-0.3s-0.8,0.1-0.9,0.3
		c-0.1,0.2-0.2,0.6-0.2,1.2c0,0.6,0.1,0.9,0.2,1.2s0.4,0.4,0.7,0.6c0.4,0.2,0.7,0.4,1,0.6c0.3,0.2,0.6,0.3,0.9,0.4s0.5,0.2,0.8,0.4
		c0.3,0.1,0.5,0.3,0.8,0.4c0.3,0.2,0.5,0.4,0.7,0.6s0.4,0.5,0.5,0.9s0.2,0.8,0.3,1.3s0.1,1.2,0.1,2c0,1.1-0.1,2.1-0.2,2.8
		c-0.2,0.8-0.4,1.4-0.8,1.8c-0.4,0.5-0.9,0.8-1.5,1s-1.4,0.3-2.4,0.3c-1.6,0-2.7-0.3-3.5-0.9c-0.7-0.6-1.1-1.6-1.1-3.1
		c0-0.5,0-1,0-1.5s0.1-0.9,0.2-1.2h3.3c0,0.1,0,0.2,0,0.3s0,0.2,0,0.4c0,0.7,0.1,1.2,0.2,1.5c0.2,0.3,0.5,0.4,1,0.4s0.8-0.1,1-0.4
		c0.2-0.2,0.2-0.8,0.2-1.6c0-0.5-0.1-0.9-0.2-1.1s-0.4-0.5-0.7-0.7s-0.6-0.4-1-0.6s-0.7-0.3-1-0.5s-0.7-0.3-1-0.5s-0.6-0.4-0.9-0.6
		c-0.5-0.5-0.8-1.1-0.9-1.9c-0.1-0.8-0.2-1.8-0.2-3.1c0-0.9,0.1-1.6,0.2-2.3c0.1-0.6,0.4-1.1,0.7-1.5c0.4-0.4,0.8-0.6,1.4-0.8
		c0.6-0.2,1.4-0.3,2.3-0.3c0.9,0,1.6,0.1,2.2,0.2c0.6,0.1,1.1,0.4,1.4,0.7c0.4,0.3,0.6,0.8,0.8,1.3s0.2,1.2,0.2,2c0,0.5,0,0.9,0,1.2
		s-0.1,0.6-0.2,0.8h-3.3L164.1,41.8L164.1,41.8z"/>
</g>
</svg>
