<?xml version="1.0" encoding="utf-8"?>
<!-- Generator: Adobe Illustrator 20.0.0, SVG Export Plug-In . SVG Version: 6.00 Build 0)  -->
<svg version="1.1" id="flash0.ai" xmlns="http://www.w3.org/2000/svg" xmlns:xlink="http://www.w3.org/1999/xlink" x="0px" y="0px"
	 viewBox="0 0 140 90" style="enable-background:new 0 0 140 90;" xml:space="preserve">
<style type="text/css">
	.st0{fill:#FFBD3B;}
	.st1{fill:#F4F4F4;}
</style>
<g>
	<path class="st0" d="M71.4,61.4V47.6h4.1c0.6,0,1.1,0.1,1.5,0.2c0.4,0.2,0.7,0.4,1,0.8c0.2,0.4,0.4,0.9,0.5,1.5
		c0.1,0.6,0.1,1.3,0.1,2.2c0,0.9,0,1.7-0.1,2.3c-0.1,0.6-0.3,1.1-0.5,1.5c-0.2,0.4-0.6,0.7-1,0.8c-0.4,0.2-0.9,0.3-1.5,0.3h-1.3v4.2
		H71.4z M75,54.4c0.3,0,0.5-0.1,0.6-0.4c0.1-0.3,0.2-0.9,0.2-1.7c0-0.7-0.1-1.2-0.2-1.4c-0.1-0.2-0.3-0.3-0.6-0.3h-0.7v3.9H75z"/>
	<path class="st0" d="M81.4,61.4V50.5h-2.2v-2.9h7.2v2.9h-2.2v10.9H81.4z"/>
	<path class="st0" d="M91,51.9c0-0.1,0-0.2,0-0.2c0-0.1,0-0.2,0-0.4c0-0.4-0.1-0.7-0.2-0.9c-0.1-0.2-0.3-0.2-0.7-0.2
		c-0.4,0-0.6,0.1-0.7,0.2c-0.1,0.2-0.1,0.5-0.1,0.9c0,0.4,0.1,0.7,0.2,0.8c0.1,0.2,0.3,0.3,0.5,0.4c0.3,0.2,0.5,0.3,0.8,0.4
		c0.2,0.1,0.5,0.2,0.7,0.3c0.2,0.1,0.4,0.2,0.6,0.3c0.2,0.1,0.4,0.2,0.5,0.3c0.2,0.1,0.4,0.3,0.5,0.5c0.2,0.2,0.3,0.4,0.4,0.6
		c0.1,0.3,0.2,0.6,0.2,1c0,0.4,0.1,0.9,0.1,1.4c0,0.8-0.1,1.5-0.2,2.1c-0.1,0.5-0.3,1-0.6,1.3c-0.3,0.3-0.6,0.6-1.1,0.7
		c-0.5,0.1-1,0.2-1.7,0.2c-1.1,0-2-0.2-2.5-0.6c-0.5-0.4-0.8-1.2-0.8-2.3c0-0.4,0-0.7,0-1.1c0-0.4,0.1-0.6,0.1-0.9h2.4
		c0,0.1,0,0.2,0,0.2c0,0.1,0,0.2,0,0.3c0,0.5,0.1,0.9,0.2,1.1c0.1,0.2,0.3,0.3,0.7,0.3c0.4,0,0.6-0.1,0.7-0.3
		c0.1-0.2,0.2-0.6,0.2-1.1c0-0.4-0.1-0.6-0.2-0.8c-0.1-0.2-0.3-0.4-0.5-0.5c-0.2-0.1-0.5-0.3-0.7-0.4c-0.2-0.1-0.5-0.2-0.7-0.3
		c-0.2-0.1-0.5-0.2-0.7-0.4c-0.2-0.1-0.4-0.3-0.6-0.4c-0.4-0.3-0.6-0.8-0.7-1.3c-0.1-0.6-0.1-1.3-0.1-2.2c0-0.6,0.1-1.2,0.2-1.6
		c0.1-0.4,0.3-0.8,0.5-1.1c0.3-0.3,0.6-0.5,1-0.6c0.4-0.1,1-0.2,1.7-0.2c0.6,0,1.1,0,1.6,0.1s0.8,0.3,1,0.5c0.3,0.2,0.5,0.6,0.6,0.9
		c0.1,0.4,0.2,0.9,0.2,1.5c0,0.4,0,0.7,0,0.9c0,0.2-0.1,0.4-0.1,0.6H91z"/>
	<path class="st0" d="M94.4,61.4v-2.8h2.9v2.8H94.4z"/>
</g>
<g>
	<path class="st0" d="M37.2,59.1v-3.2h8.4v3.2H37.2z"/>
	<path class="st0" d="M47.1,67.4v-4.5l2.5-2.5c0.6-0.6,1.1-1.1,1.4-1.4c0.4-0.4,0.6-0.7,0.9-0.9c0.2-0.2,0.4-0.4,0.5-0.6
		c0.1-0.2,0.2-0.4,0.3-0.6c0.1-0.2,0.2-0.4,0.2-0.6c0.1-0.2,0.1-0.4,0.1-0.6c0-0.2,0-0.5,0.1-0.8c0-0.3,0-0.7,0-1.1
		c0-0.6,0-1-0.1-1.2c0-0.3-0.1-0.5-0.2-0.7c-0.1-0.1-0.1-0.3-0.3-0.3c-0.1-0.1-0.4-0.1-0.7-0.1c-0.6,0-0.9,0.2-1.1,0.5
		c-0.1,0.2-0.1,0.4-0.1,0.8c0,0.4-0.1,1-0.1,1.8c0,0.1,0,0.3,0,0.4c0,0.1,0,0.2,0,0.3h-3.8c0-0.2-0.1-0.5-0.1-0.7c0-0.3,0-0.7,0-1.2
		c0-1,0.1-1.9,0.2-2.7c0.1-0.7,0.4-1.3,0.7-1.8c0.4-0.5,0.9-0.8,1.6-1c0.7-0.2,1.6-0.3,2.7-0.3c0.6,0,1.2,0,1.6,0.1
		c0.5,0.1,0.9,0.1,1.2,0.3c0.3,0.1,0.6,0.3,0.9,0.5c0.2,0.2,0.5,0.4,0.6,0.7c0.1,0.2,0.3,0.5,0.4,0.8c0.1,0.3,0.2,0.6,0.3,1
		c0.1,0.4,0.2,0.8,0.2,1.3c0.1,0.5,0.1,1.1,0.1,1.8c0,0.8,0,1.5-0.1,2.1c-0.1,0.6-0.2,1.1-0.4,1.7c-0.2,0.5-0.5,1-0.9,1.6
		c-0.4,0.5-0.9,1.1-1.6,1.7L52.1,63l0.1,0.2h4.9v4.2H47.1z"/>
	<path class="st0" d="M63.8,67.8c-0.8,0-1.5,0-2.1-0.1c-0.6,0-1.1-0.2-1.5-0.4c-0.4-0.2-0.7-0.5-0.9-0.9c-0.2-0.4-0.4-1-0.5-1.8
		c-0.1-0.8-0.2-1.7-0.2-2.8c0-1.1-0.1-2.5-0.1-4.2c0-1.6,0-3,0.1-4.2c0-1.1,0.1-2.1,0.2-2.8c0.1-0.8,0.3-1.3,0.5-1.8
		c0.2-0.4,0.5-0.7,0.9-0.9c0.4-0.2,0.9-0.3,1.5-0.4c0.6,0,1.3-0.1,2.1-0.1c0.8,0,1.5,0,2.1,0.1c0.6,0,1.1,0.2,1.5,0.4
		c0.4,0.2,0.7,0.5,0.9,0.9c0.2,0.4,0.4,1,0.5,1.8c0.1,0.8,0.2,1.7,0.2,2.8c0,1.1,0.1,2.5,0.1,4.2c0,1.6,0,3-0.1,4.2
		c0,1.1-0.1,2.1-0.2,2.8c-0.1,0.8-0.3,1.3-0.5,1.8s-0.5,0.7-0.9,0.9s-0.9,0.3-1.5,0.4C65.3,67.8,64.6,67.8,63.8,67.8z M63.8,63.4
		c0.3,0,0.5,0,0.7-0.1c0.2-0.1,0.3-0.3,0.4-0.7c0.1-0.4,0.1-1,0.2-1.8c0-0.8,0-1.9,0-3.4c0-1.5,0-2.6,0-3.5c0-0.8-0.1-1.4-0.1-1.8
		c-0.1-0.4-0.2-0.6-0.4-0.7c-0.2-0.1-0.4-0.1-0.7-0.1s-0.5,0-0.7,0.1c-0.2,0.1-0.3,0.3-0.4,0.7c-0.1,0.4-0.1,1-0.1,1.8
		c0,0.8,0,2,0,3.5c0,1.5,0,2.6,0,3.4c0,0.8,0.1,1.4,0.2,1.8c0.1,0.4,0.2,0.6,0.4,0.7C63.3,63.3,63.5,63.4,63.8,63.4z"/>
</g>
<g>
	<path class="st1" d="M25.1,40.5v-7.3H23v7.3h-3.5V22.6H23v6.9h2.1v-6.9h3.5v17.9H25.1z"/>
	<path class="st1" d="M29.5,40.5V22.6h7.3v3.8h-3.9v3.1h3.8v3.6h-3.8v3.4h3.8v4H29.5z"/>
	<path class="st1" d="M42.9,40.5l-0.3-4.1H41l-0.3,4.1h-3.4l1.8-17.9h5.7l1.6,17.9H42.9z M41.9,26.4h-0.2l-0.5,6.4h1.3L41.9,26.4z"
		/>
	<path class="st1" d="M52.1,40.5c0-0.1-0.1-0.3-0.1-0.5c0-0.2-0.1-0.4-0.1-0.8c0-0.3-0.1-0.8-0.2-1.4c-0.1-0.6-0.2-1.4-0.3-2.5
		c0-0.4-0.1-0.7-0.1-1c0-0.3-0.1-0.4-0.2-0.6c-0.1-0.1-0.1-0.2-0.2-0.3c-0.1,0-0.2-0.1-0.3-0.1h-0.5v7h-3.4V22.6h5
		c0.7,0,1.3,0.1,1.8,0.3c0.5,0.2,0.9,0.5,1.1,0.9c0.3,0.4,0.5,0.9,0.6,1.5c0.1,0.6,0.2,1.3,0.2,2.2c0,0.9,0,1.7-0.1,2.2
		c-0.1,0.5-0.1,0.9-0.3,1.2c-0.1,0.3-0.3,0.5-0.4,0.7c-0.2,0.1-0.4,0.3-0.6,0.4v0.1c0.1,0.1,0.2,0.2,0.3,0.3
		c0.1,0.1,0.2,0.3,0.2,0.5c0.1,0.3,0.2,0.7,0.4,1.3c0.1,0.6,0.2,1.4,0.4,2.4c0.1,0.7,0.2,1.3,0.2,1.7c0,0.4,0.1,0.8,0.1,1.1
		c0,0.3,0.1,0.5,0.1,0.6c0,0.1,0.1,0.3,0.1,0.4v0.1H52.1z M51.1,30.2c0.3,0,0.5-0.1,0.7-0.4c0.1-0.3,0.2-0.9,0.2-1.7
		c0-0.7-0.1-1.2-0.2-1.4c-0.2-0.2-0.4-0.4-0.7-0.4h-0.9v3.9H51.1z"/>
	<path class="st1" d="M64.7,40.5l-0.3-4.1h-1.6l-0.3,4.1h-3.4l1.8-17.9h5.7l1.6,17.9H64.7z M63.7,26.4h-0.2L63,32.8h1.3L63.7,26.4z"
		/>
	<path class="st1" d="M75.8,40.5l-3.9-9.6h-0.1v9.6h-3.1V22.6H72l2.3,6.2h0.1v-6.2h3.1v17.9H75.8z"/>
	<path class="st1" d="M83.2,28.2c0-0.1,0-0.2,0-0.3s0-0.2,0-0.5c0-0.6-0.1-0.9-0.2-1.1c-0.1-0.2-0.4-0.3-0.8-0.3s-0.7,0.1-0.8,0.3
		c-0.1,0.2-0.2,0.6-0.2,1.1c0,0.5,0.1,0.9,0.2,1.1c0.1,0.2,0.3,0.4,0.6,0.6c0.3,0.2,0.6,0.4,0.9,0.5c0.3,0.1,0.5,0.3,0.8,0.4
		s0.5,0.2,0.7,0.3c0.2,0.1,0.4,0.2,0.6,0.4c0.2,0.2,0.4,0.4,0.6,0.6c0.2,0.2,0.3,0.5,0.4,0.8c0.1,0.3,0.2,0.8,0.2,1.3
		c0.1,0.5,0.1,1.1,0.1,1.9c0,1.1-0.1,2-0.2,2.7c-0.1,0.7-0.4,1.3-0.7,1.7c-0.3,0.4-0.8,0.7-1.3,0.9c-0.6,0.2-1.2,0.3-2.1,0.3
		c-1.4,0-2.4-0.3-3-0.8c-0.6-0.6-1-1.5-1-2.9c0-0.5,0-0.9,0-1.4c0-0.5,0.1-0.8,0.1-1.1h2.8c0,0.1,0,0.2,0,0.3c0,0.1,0,0.2,0,0.4
		c0,0.7,0.1,1.2,0.2,1.4c0.1,0.3,0.4,0.4,0.8,0.4s0.7-0.1,0.9-0.3c0.1-0.2,0.2-0.7,0.2-1.5c0-0.5-0.1-0.8-0.2-1
		c-0.1-0.2-0.3-0.5-0.6-0.7c-0.3-0.2-0.5-0.4-0.8-0.5c-0.3-0.2-0.6-0.3-0.9-0.4c-0.3-0.1-0.6-0.3-0.9-0.5c-0.3-0.2-0.5-0.4-0.7-0.6
		c-0.4-0.4-0.7-1-0.8-1.7c-0.1-0.7-0.1-1.7-0.1-2.9c0-0.8,0.1-1.5,0.2-2.1c0.1-0.6,0.3-1,0.6-1.4c0.3-0.4,0.7-0.6,1.2-0.8
		c0.5-0.2,1.2-0.2,2-0.2c0.7,0,1.4,0.1,1.9,0.2c0.5,0.1,0.9,0.3,1.2,0.6c0.3,0.3,0.5,0.7,0.7,1.2c0.1,0.5,0.2,1.1,0.2,1.9
		c0,0.5,0,0.9,0,1.2c0,0.3-0.1,0.5-0.1,0.8H83.2z"/>
	<path class="st1" d="M95.2,40.5l-1.1-11h-0.2l-1.2,11h-4.8l-1.5-17.9h3.4l0.7,12.2h0.2l1.5-12.2h3.4l1.5,12.2h0.2l0.7-12.2h3.2
		L100,40.5H95.2z"/>
	<path class="st1" d="M101.9,40.5V22.6h7.3v3.8h-3.9v3.1h3.8v3.6h-3.8v3.4h3.8v4H101.9z"/>
	<path class="st1" d="M115,40.5c0-0.1-0.1-0.3-0.1-0.5c0-0.2-0.1-0.4-0.1-0.8c0-0.3-0.1-0.8-0.2-1.4c-0.1-0.6-0.2-1.4-0.3-2.5
		c0-0.4-0.1-0.7-0.1-1c0-0.3-0.1-0.4-0.2-0.6c-0.1-0.1-0.1-0.2-0.2-0.3c-0.1,0-0.2-0.1-0.3-0.1H113v7h-3.4V22.6h5
		c0.7,0,1.3,0.1,1.8,0.3c0.5,0.2,0.9,0.5,1.1,0.9c0.3,0.4,0.5,0.9,0.6,1.5c0.1,0.6,0.2,1.3,0.2,2.2c0,0.9,0,1.7-0.1,2.2
		c-0.1,0.5-0.1,0.9-0.3,1.2c-0.1,0.3-0.3,0.5-0.4,0.7c-0.2,0.1-0.4,0.3-0.6,0.4v0.1c0.1,0.1,0.2,0.2,0.3,0.3
		c0.1,0.1,0.2,0.3,0.2,0.5c0.1,0.3,0.2,0.7,0.4,1.3c0.1,0.6,0.2,1.4,0.4,2.4c0.1,0.7,0.2,1.3,0.2,1.7c0,0.4,0.1,0.8,0.1,1.1
		c0,0.3,0.1,0.5,0.1,0.6c0,0.1,0.1,0.3,0.1,0.4v0.1H115z M114,30.2c0.3,0,0.5-0.1,0.7-0.4c0.1-0.3,0.2-0.9,0.2-1.7
		c0-0.7-0.1-1.2-0.2-1.4c-0.2-0.2-0.4-0.4-0.7-0.4H113v3.9H114z"/>
</g>
</svg>
