<?xml version="1.0" encoding="utf-8"?>
<!-- Generator: Adobe Illustrator 20.0.0, SVG Export Plug-In . SVG Version: 6.00 Build 0)  -->
<svg version="1.1" id="flash0.ai" xmlns="http://www.w3.org/2000/svg" xmlns:xlink="http://www.w3.org/1999/xlink" x="0px" y="0px"
	 viewBox="0 0 140 90" style="enable-background:new 0 0 140 90;" xml:space="preserve">
<style type="text/css">
	.st0{fill:#FFBD3B;}
	.st1{enable-background:new    ;}
	.st2{fill:#F4F4F4;}
</style>
<g>
	<path class="st0" d="M73.1,61.5V48h4.1c0.6,0,1.1,0.1,1.5,0.3c0.4,0.2,0.7,0.4,1,0.8c0.3,0.4,0.4,0.9,0.5,1.4
		c0.1,0.6,0.2,1.3,0.2,2.2c0,0.9-0.1,1.7-0.2,2.3c-0.1,0.6-0.3,1.1-0.5,1.5c-0.3,0.4-0.5,0.6-1,0.8c-0.4,0.2-0.9,0.3-1.5,0.3h-1.2
		v4.1C75.9,61.5,73.1,61.5,73.1,61.5z M76.7,54.7c0.3,0,0.4-0.2,0.5-0.4c0.1-0.3,0.2-0.9,0.2-1.7c0-0.7-0.1-1.2-0.2-1.4
		c-0.1-0.3-0.4-0.4-0.6-0.4h-0.7v3.9H76.7z"/>
	<path class="st0" d="M82.9,61.5V50.8h-2.1v-2.9h7.1v2.9h-2.1v10.8H82.9z"/>
	<path class="st0" d="M92.5,52.1c0-0.1,0-0.2,0-0.3s0-0.2,0-0.4c0-0.4-0.1-0.7-0.2-0.9s-0.4-0.3-0.7-0.3c-0.4,0-0.5,0.1-0.7,0.3
		c-0.1,0.2-0.2,0.4-0.2,0.9c0,0.4,0.1,0.7,0.2,0.8c0.1,0.2,0.3,0.3,0.5,0.4c0.3,0.2,0.5,0.3,0.7,0.4c0.3,0.1,0.4,0.2,0.6,0.3
		c0.2,0.1,0.4,0.2,0.5,0.3s0.4,0.2,0.5,0.3c0.2,0.2,0.4,0.3,0.5,0.4s0.3,0.4,0.4,0.6c0.1,0.3,0.2,0.6,0.2,1c0.1,0.4,0.1,0.9,0.1,1.4
		c0,0.8-0.1,1.5-0.2,2s-0.3,1-0.6,1.3c-0.3,0.4-0.6,0.5-1.1,0.7c-0.4,0.2-1.1,0.2-1.7,0.2c-1.1,0-1.9-0.2-2.5-0.6
		c-0.5-0.4-0.8-1.1-0.8-2.2c0-0.4,0-0.7,0-1.1c0-0.4,0.1-0.6,0.1-0.9h2.4c0,0.1,0,0.2,0,0.3c0,0.1,0,0.2,0,0.3
		c0,0.5,0.1,0.9,0.2,1.1c0.1,0.2,0.4,0.3,0.7,0.3c0.4,0,0.6-0.1,0.7-0.3c0.1-0.2,0.2-0.5,0.2-1.1c0-0.4-0.1-0.6-0.2-0.8
		c-0.1-0.2-0.3-0.4-0.5-0.5c-0.2-0.2-0.4-0.3-0.7-0.4c-0.3-0.1-0.5-0.3-0.7-0.4c-0.3-0.1-0.4-0.3-0.7-0.4c-0.3-0.1-0.4-0.3-0.6-0.4
		c-0.4-0.4-0.6-0.8-0.7-1.3c-0.1-0.5-0.1-1.3-0.1-2.2c0-0.6,0.1-1.1,0.2-1.6s0.3-0.8,0.5-1.1c0.3-0.3,0.6-0.4,1.1-0.6
		c0.4-0.1,1-0.2,1.7-0.2c0.6,0,1.1,0.1,1.5,0.2c0.4,0.1,0.8,0.3,1.1,0.5c0.3,0.3,0.4,0.5,0.5,0.9c0.1,0.4,0.2,0.9,0.2,1.4
		c0,0.4,0,0.7,0,0.9c0,0.2-0.1,0.4-0.1,0.6h-2.3V52.1z"/>
	<path class="st0" d="M95.8,61.5v-2.7h2.8v2.7H95.8z"/>
</g>
<g class="st1">
	<path class="st0" d="M39.4,59.3v-3.2h8.3v3.2H39.4z"/>
	<path class="st0" d="M47.5,67.4v-4.3h2.8v-8.5h-2.9v-3.6h1.7c0.3,0,0.6,0,0.9-0.1c0.2,0,0.4-0.1,0.6-0.2c0.1-0.1,0.2-0.3,0.3-0.5
		c0.1-0.2,0.1-0.5,0.1-0.9l0.1-1.4h3.3v15.1h2.7v4.3H47.5z"/>
	<path class="st0" d="M63.1,67.8c-0.8,0-1.5,0-2.1-0.1c-0.6,0-1.1-0.2-1.4-0.4c-0.4-0.2-0.7-0.5-0.9-0.9c-0.2-0.4-0.4-1-0.5-1.7
		C58,63.9,58,63,57.9,61.9c0-1.1-0.1-2.5-0.1-4.1c0-1.6,0-3,0.1-4.1c0-1.1,0.1-2.1,0.2-2.8c0.1-0.7,0.3-1.3,0.5-1.7
		c0.2-0.4,0.5-0.7,0.9-0.9c0.4-0.2,0.9-0.3,1.4-0.4c0.6,0,1.3-0.1,2.1-0.1c0.8,0,1.5,0,2.1,0.1c0.6,0,1.1,0.2,1.4,0.4
		c0.4,0.2,0.7,0.5,0.9,0.9c0.2,0.4,0.4,1,0.5,1.7c0.1,0.7,0.2,1.7,0.2,2.8c0,1.1,0.1,2.5,0.1,4.1c0,1.6,0,3-0.1,4.1
		c0,1.1-0.1,2.1-0.2,2.8c-0.1,0.7-0.3,1.3-0.5,1.7c-0.2,0.4-0.5,0.7-0.9,0.9c-0.4,0.2-0.9,0.3-1.4,0.4
		C64.6,67.8,63.9,67.8,63.1,67.8z M63.1,63.4c0.3,0,0.5,0,0.7-0.1c0.2-0.1,0.3-0.3,0.4-0.7c0.1-0.4,0.1-0.9,0.2-1.7
		c0-0.8,0-1.9,0-3.3c0-1.5,0-2.6,0-3.4c0-0.8-0.1-1.4-0.1-1.8c-0.1-0.4-0.2-0.6-0.4-0.7c-0.2-0.1-0.4-0.1-0.7-0.1
		c-0.3,0-0.5,0-0.7,0.1c-0.2,0.1-0.3,0.3-0.4,0.7c-0.1,0.4-0.1,1-0.1,1.8c0,0.8,0,1.9,0,3.4c0,1.4,0,2.5,0,3.3
		c0,0.8,0.1,1.4,0.2,1.7c0.1,0.4,0.2,0.6,0.4,0.7C62.6,63.4,62.8,63.4,63.1,63.4z"/>
</g>
<g class="st1">
	<path class="st2" d="M32.8,28.8c0-0.1,0-0.2,0-0.3c0-0.1,0-0.2,0-0.5c0-0.5-0.1-0.9-0.2-1.1c-0.1-0.2-0.4-0.3-0.9-0.3
		c-0.5,0-0.7,0.1-0.9,0.3c-0.1,0.2-0.2,0.6-0.2,1.1c0,0.5,0.1,0.9,0.2,1.1c0.1,0.2,0.3,0.4,0.6,0.6c0.3,0.2,0.7,0.4,1,0.5
		c0.3,0.1,0.6,0.3,0.8,0.4c0.3,0.1,0.5,0.2,0.7,0.3c0.2,0.1,0.5,0.2,0.7,0.4c0.2,0.2,0.5,0.4,0.7,0.6c0.2,0.2,0.4,0.5,0.5,0.8
		c0.1,0.3,0.2,0.7,0.3,1.2c0.1,0.5,0.1,1.1,0.1,1.8c0,1.1-0.1,1.9-0.2,2.6c-0.1,0.7-0.4,1.3-0.7,1.7c-0.4,0.4-0.8,0.7-1.4,0.9
		c-0.6,0.2-1.3,0.3-2.2,0.3c-1.5,0-2.5-0.3-3.2-0.8c-0.7-0.6-1-1.5-1-2.9c0-0.5,0-0.9,0-1.4c0-0.5,0.1-0.8,0.2-1.1h3.1
		c0,0.1,0,0.2,0,0.3c0,0.1,0,0.2,0,0.4c0,0.7,0.1,1.2,0.2,1.4c0.1,0.3,0.4,0.4,0.9,0.4c0.5,0,0.8-0.1,0.9-0.3
		c0.1-0.2,0.2-0.7,0.2-1.5c0-0.5-0.1-0.8-0.2-1c-0.1-0.2-0.4-0.5-0.7-0.7c-0.3-0.2-0.6-0.4-0.9-0.5c-0.3-0.2-0.6-0.3-1-0.4
		c-0.3-0.1-0.6-0.3-0.9-0.5c-0.3-0.2-0.6-0.4-0.8-0.6c-0.5-0.4-0.8-1-0.9-1.7c-0.1-0.7-0.2-1.7-0.2-2.9c0-0.8,0.1-1.5,0.2-2.1
		c0.1-0.6,0.4-1,0.7-1.4c0.3-0.4,0.8-0.6,1.3-0.8c0.6-0.2,1.3-0.2,2.2-0.2c0.8,0,1.5,0.1,2,0.2c0.5,0.1,1,0.3,1.3,0.6
		c0.3,0.3,0.6,0.7,0.7,1.2c0.1,0.5,0.2,1.1,0.2,1.9c0,0.5,0,0.9,0,1.1c0,0.3-0.1,0.5-0.2,0.7H32.8z"/>
	<path class="st2" d="M46.7,34.3c0,0.6,0.1,1.1,0.1,1.6c0,0.9-0.1,1.8-0.2,2.4C46.5,39,46.3,39.6,46,40c-0.3,0.5-0.8,0.8-1.4,1
		c-0.6,0.2-1.4,0.3-2.4,0.3c-1.2,0-2.1-0.1-2.7-0.3c-0.6-0.2-1.1-0.6-1.4-1.1c-0.2-0.2-0.3-0.5-0.4-0.9c-0.1-0.3-0.2-0.8-0.3-1.4
		c-0.1-0.6-0.1-1.3-0.2-2.2c0-0.9,0-2,0-3.4s0-2.5,0-3.3c0-0.9,0.1-1.6,0.2-2.1c0.1-0.5,0.2-1,0.3-1.3c0.1-0.3,0.2-0.6,0.4-0.9
		c0.3-0.5,0.8-0.9,1.4-1.1c0.6-0.2,1.5-0.3,2.6-0.3c1,0,1.8,0.1,2.4,0.3c0.6,0.2,1.1,0.5,1.4,0.9c0.3,0.4,0.5,1,0.7,1.6
		c0.1,0.7,0.2,1.5,0.2,2.4c0,0.2,0,0.5,0,0.7c0,0.3,0,0.5,0,0.8h-3.4c0-0.5,0-0.9,0-1.2c0-0.3,0-0.6,0-0.8c0-0.2,0-0.4-0.1-0.5
		c0-0.1,0-0.2-0.1-0.3c-0.1-0.3-0.4-0.4-1-0.4c-0.3,0-0.5,0-0.6,0.1c-0.1,0.1-0.2,0.2-0.3,0.3c0,0.1-0.1,0.3-0.1,0.4
		c0,0.2,0,0.4-0.1,0.7c0,0.3,0,0.8,0,1.4c0,0.6,0,1.4,0,2.3c0,1,0,1.8,0,2.4c0,0.6,0,1.1,0,1.4c0,0.3,0,0.6,0.1,0.8
		c0,0.2,0.1,0.3,0.1,0.4c0,0.2,0.1,0.3,0.3,0.3c0.1,0.1,0.4,0.1,0.7,0.1c0.5,0,0.7-0.1,0.8-0.4c0.1-0.2,0.1-0.3,0.1-0.5
		c0-0.2,0.1-0.4,0.1-0.6c0-0.2,0-0.5,0-0.7c0-0.3,0-0.6,0-0.9H46.7z"/>
	<path class="st2" d="M54,41c0-0.1-0.1-0.3-0.1-0.5c0-0.2-0.1-0.4-0.1-0.7c0-0.3-0.1-0.8-0.2-1.4c-0.1-0.6-0.2-1.4-0.3-2.4
		c0-0.4-0.1-0.7-0.1-1c0-0.2-0.1-0.4-0.2-0.6c-0.1-0.1-0.1-0.2-0.2-0.3c-0.1,0-0.2-0.1-0.3-0.1h-0.6V41h-3.7V23.3h5.4
		c0.8,0,1.5,0.1,2,0.3c0.5,0.2,0.9,0.5,1.2,0.8c0.3,0.4,0.5,0.9,0.6,1.5c0.1,0.6,0.2,1.3,0.2,2.2c0,0.9,0,1.6-0.1,2.2
		c-0.1,0.5-0.2,0.9-0.3,1.2s-0.3,0.5-0.5,0.7c-0.2,0.1-0.4,0.3-0.7,0.4v0.1c0.1,0.1,0.2,0.2,0.3,0.3c0.1,0.1,0.2,0.2,0.3,0.5
		c0.1,0.3,0.3,0.7,0.4,1.3c0.1,0.6,0.3,1.4,0.4,2.4c0.1,0.7,0.2,1.3,0.2,1.7c0,0.4,0.1,0.8,0.1,1.1c0,0.3,0.1,0.5,0.1,0.6
		c0,0.1,0.1,0.3,0.1,0.4V41H54z M52.9,30.8c0.3,0,0.6-0.1,0.7-0.4c0.1-0.3,0.2-0.8,0.2-1.7c0-0.7-0.1-1.2-0.2-1.4
		c-0.2-0.2-0.4-0.4-0.8-0.4h-0.9v3.9H52.9z"/>
	<path class="st2" d="M64.5,41l-0.3-4.1h-1.8L62.1,41h-3.7l1.9-17.7h6.2L68.3,41H64.5z M63.4,27h-0.3l-0.6,6.3H64L63.4,27z"/>
	<path class="st2" d="M80,41V30.4h-0.1L77.2,41h-1.6l-2.7-10.6h-0.1V41h-3.3V23.3h5.2l1.6,7.7h0.2l1.8-7.7h5.2l0,17.7H80z"/>
	<path class="st2" d="M84.9,41V23.3h5.3c0.8,0,1.5,0.1,2,0.3c0.5,0.2,0.9,0.5,1.3,0.8c0.3,0.4,0.5,0.9,0.7,1.5
		c0.1,0.6,0.2,1.3,0.2,2.2c0,0.6,0,1.2-0.1,1.6c0,0.4-0.1,0.7-0.2,1c-0.1,0.3-0.2,0.5-0.4,0.7c-0.2,0.2-0.4,0.3-0.6,0.5V32
		c0.2,0.1,0.4,0.3,0.6,0.4c0.2,0.1,0.3,0.3,0.5,0.6c0.1,0.3,0.2,0.7,0.3,1.2c0.1,0.5,0.1,1.2,0.1,2.1c0,0.9-0.1,1.6-0.2,2.2
		c-0.1,0.6-0.3,1.1-0.6,1.5c-0.3,0.4-0.7,0.7-1.2,0.8c-0.5,0.2-1.2,0.3-2,0.3H84.9z M89.7,30.6c0.4,0,0.6-0.1,0.7-0.4
		c0.1-0.3,0.2-0.8,0.2-1.6c0-0.7-0.1-1.2-0.2-1.4c-0.2-0.2-0.4-0.3-0.8-0.3h-1v3.8H89.7z M89.7,37.5c0.4,0,0.6-0.1,0.8-0.3
		c0.2-0.2,0.2-0.7,0.2-1.4c0-0.8-0.1-1.4-0.2-1.7c-0.1-0.3-0.4-0.5-0.7-0.5h-1.3v3.9H89.7z"/>
	<path class="st2" d="M95.7,41V23.3h3.7v13.8h3.8V41H95.7z"/>
	<path class="st2" d="M104.2,41V23.3h7.8v3.7h-4.2v3.1h4.1v3.6h-4.1v3.3h4.1V41H104.2z"/>
</g>
</svg>
