<?xml version="1.0" encoding="utf-8"?>
<!-- Generator: Adobe Illustrator 15.0.0, SVG Export Plug-In . SVG Version: 6.00 Build 0)  -->
<!DOCTYPE svg PUBLIC "-//W3C//DTD SVG 1.1//EN" "http://www.w3.org/Graphics/SVG/1.1/DTD/svg11.dtd">
<svg version="1.1" xmlns="http://www.w3.org/2000/svg" xmlns:xlink="http://www.w3.org/1999/xlink" x="0px" y="0px" width="30px"
	 height="30px" viewBox="0 0 30 30" enable-background="new 0 0 30 30" xml:space="preserve">
<g id="background">
</g>
<g id="icons">
	<g id="icon_58_">
		<g>
			<path opacity="0.2" d="M14.6,29.8c-7.9,0-14.3-6.4-14.3-14.3c0-7.9,6.4-14.3,14.3-14.3c7.9,0,14.3,6.4,14.3,14.3
				C28.9,23.4,22.5,29.8,14.6,29.8z"/>
			<path fill="#F7F7F7" d="M15.4,28.8c-7.9,0-14.3-6.4-14.3-14.3c0-7.9,6.4-14.3,14.3-14.3c7.9,0,14.3,6.4,14.3,14.3
				C29.7,22.4,23.3,28.8,15.4,28.8z"/>
			<path fill="#2D2D2D" d="M15.4,27.2c-7,0-12.7-5.7-12.7-12.7c0-7,5.7-12.7,12.7-12.7c7,0,12.7,5.7,12.7,12.7
				C28.1,21.5,22.4,27.2,15.4,27.2z"/>
			<path fill="#0A0A0A" d="M15.7,27.2l5.7-4.4c0,0-1.5-2.8-3-4.5c-0.7-0.9,0.2-3.6-0.7-4.6c-0.9-1.1-4.6-2-4.6-2
				c-1-1.3-1.8-2.6-2.3-3.6l-8,8C3.5,22,7.8,26.9,15.7,27.2z"/>
		</g>
		<g>
			<path fill="#FFFFFF" d="M20.5,10.9h-0.3c0.1-0.5,0.1-1.1,0.1-1.8c0-2.7-2.2-4.9-4.9-4.9c-2.7,0-4.9,2.2-4.9,4.9
				c0,0.7,0,1.3,0.1,1.8h-0.3c-0.6,0-1.1,0.5-1.1,1.1v10.2c0,0.6,0.5,1.1,1.1,1.1h10.2c0.6,0,1.1-0.5,1.1-1.1V11.9
				C21.6,11.4,21.1,10.9,20.5,10.9z M16,17.4v3.1h-1.2v-3.1c-0.7-0.2-1.3-0.9-1.3-1.8c0-1,0.8-1.9,1.9-1.9c1,0,1.9,0.8,1.9,1.9
				C17.2,16.5,16.7,17.2,16,17.4z M18.3,10.9h-5.9c0-0.5-0.1-1.1-0.1-1.8c0-1.7,1.4-3.1,3.1-3.1c1.7,0,3.1,1.4,3.1,3.1
				C18.4,9.9,18.4,10.4,18.3,10.9z"/>
		</g>
	</g>
</g>
</svg>
