<?xml version="1.0" encoding="utf-8"?>
<!-- Generator: Adobe Illustrator 20.0.0, SVG Export Plug-In . SVG Version: 6.00 Build 0)  -->
<svg version="1.1" id="flash0.ai" xmlns="http://www.w3.org/2000/svg" xmlns:xlink="http://www.w3.org/1999/xlink" x="0px" y="0px"
	 viewBox="0 0 30.5 30" style="enable-background:new 0 0 30.5 30;" xml:space="preserve">
<style type="text/css">
	.st0{fill:#FFBD3B;}
</style>
<g>
	<g>
		<g>
			<g>
				<path class="st0" d="M19.7,10.2l7.7,1.2c0.6,0.1,0.8,0.8,0.4,1.2L22.2,18c-0.2,0.2-0.3,0.4-0.2,0.6l1.3,7.7
					c0.1,0.6-0.5,1-1.1,0.8l-6.9-3.7c-0.2-0.1-0.5-0.1-0.7,0L7.7,27c-0.5,0.3-1.2-0.2-1.1-0.8L8,18.5c0-0.2,0-0.5-0.2-0.6l-5.5-5.5
					c-0.4-0.4-0.2-1.2,0.4-1.2l7.7-1.1c0.2,0,0.4-0.2,0.6-0.4l3.5-7c0.3-0.5,1-0.5,1.3,0l3.4,7C19.3,10,19.5,10.1,19.7,10.2z"/>
			</g>
		</g>
	</g>
</g>
</svg>
