<?xml version="1.0" encoding="utf-8"?>
<!-- Generator: Adobe Illustrator 20.0.0, SVG Export Plug-In . SVG Version: 6.00 Build 0)  -->
<svg version="1.1" id="flash0.ai" xmlns="http://www.w3.org/2000/svg" xmlns:xlink="http://www.w3.org/1999/xlink" x="0px" y="0px"
	 viewBox="0 0 23.4 30" style="enable-background:new 0 0 23.4 30;" xml:space="preserve">
<style type="text/css">
	
		.st0{opacity:0.76;fill:none;stroke:#4C4C4C;stroke-width:2;stroke-linecap:round;stroke-linejoin:round;stroke-miterlimit:3;stroke-opacity:0.9882;}
	.st1{fill:#FFBD3B;}
</style>
<polyline class="st0" points="20.6,28.6 11.6,28.5 11.6,1.8 20.6,1.8 "/>
<g>
	<g>
		<g>
			<g>
				<path class="st1" d="M15.2,11.4l6.3,1c0.5,0.1,0.7,0.7,0.3,1l-4.6,4.4c-0.1,0.1-0.2,0.3-0.2,0.5l1,6.3c0.1,0.5-0.4,0.9-0.9,0.6
					l-5.6-3c-0.2-0.1-0.4-0.1-0.6,0l-5.6,2.9c-0.4,0.2-0.9-0.1-0.9-0.6l1.2-6.3c0-0.2,0-0.4-0.2-0.5l-4.5-4.5
					c-0.4-0.3-0.2-0.9,0.3-1l6.4-0.9c0.2,0,0.4-0.1,0.5-0.3L11,5.3c0.2-0.4,0.9-0.4,1.1,0l2.8,5.7C14.8,11.2,15,11.4,15.2,11.4z"/>
			</g>
		</g>
	</g>
</g>
</svg>
