<?xml version="1.0" encoding="utf-8"?>
<!-- Generator: Adobe Illustrator 20.0.0, SVG Export Plug-In . SVG Version: 6.00 Build 0)  -->
<svg version="1.1" id="flash0.ai" xmlns="http://www.w3.org/2000/svg" xmlns:xlink="http://www.w3.org/1999/xlink" x="0px" y="0px"
	 viewBox="0 0 30.1 38.6" style="enable-background:new 0 0 30.1 38.6;" xml:space="preserve">
<style type="text/css">
	.st0{opacity:0.35;fill:#FFFFFF;}
	.st1{fill:#FFBD3B;}
</style>
<path class="st0" d="M29.7,1.6c0,0,0-0.1,0-0.1c0,0,0,0,0,0c0,0,0,0,0,0c0,0,0,0,0,0c0-0.1,0-0.1-0.1-0.2c0,0,0-0.1,0-0.1
	c0,0,0-0.1-0.1-0.1c0,0,0,0,0-0.1c0,0-0.1-0.1-0.1-0.1c0,0,0,0,0,0c0,0,0,0,0,0c0,0,0,0,0,0c0,0,0,0,0,0c0,0,0,0,0,0c0,0,0,0,0,0
	c0,0,0,0,0,0c0,0-0.1-0.1-0.1-0.1c0,0,0,0,0,0c0,0,0,0-0.1,0c0,0-0.1-0.1-0.1-0.1c0,0,0,0,0,0c0,0,0,0,0,0c0,0,0,0,0,0
	c-0.1,0-0.1,0-0.2-0.1c0,0,0,0-0.1,0c0,0-0.1,0-0.1,0c0,0-0.1,0-0.1,0l-5,0c-0.1,0-0.2,0-0.3,0H23c-0.7,0-1.3,0.6-1.3,1.3
	S22.3,3,23,3h2.3l-1.8,1.9L22.3,6l-1.3,1.3l-7.2,6.6c-0.2,0.2,0,1.8,0,2.1c0,0.3,0.4-0.2,0.7,0c0,0,0,0,0,0c0,0,0,0,0,0
	c0.2,0.2,0.7,0.3,1,0.3c0.3,0,2.6-2.3,2.9-2.6c0,0,0,0,0,0l4-4.1l1.3-1.3L25,7l2.1-2.1v2.2c0,0.7,0.6,1.3,1.3,1.3
	c0.3,0,0.7-0.1,0.9-0.4c0.2-0.2,0.4-0.6,0.4-0.9V7c0-0.1,0-0.2,0-0.3L29.7,1.6C29.7,1.7,29.7,1.6,29.7,1.6z"/>
<path class="st0" d="M29.5,37.1c0,0,0,0.1,0,0.1c0,0,0,0,0,0c0,0,0,0,0,0c0,0,0,0,0,0c0,0.1,0,0.1-0.1,0.2c0,0,0,0,0,0.1
	c0,0,0,0.1-0.1,0.1c0,0,0,0,0,0.1c0,0-0.1,0.1-0.1,0.1c0,0,0,0,0,0c0,0,0,0,0,0c0,0,0,0,0,0c0,0,0,0,0,0c0,0,0,0,0,0c0,0,0,0,0,0
	c0,0,0,0,0,0c0,0-0.1,0.1-0.1,0.1c0,0,0,0,0,0c0,0,0,0-0.1,0c0,0-0.1,0.1-0.1,0.1c0,0,0,0,0,0c0,0,0,0,0,0c0,0,0,0,0,0
	c-0.1,0-0.1,0-0.2,0.1c0,0,0,0-0.1,0c0,0-0.1,0-0.1,0c0,0-0.1,0-0.1,0l-4.8,0c-0.1,0-0.2,0-0.3,0H23c-0.7,0-1.3-0.6-1.3-1.3
	s0.6-1.3,1.3-1.3h2.2L23.4,34l-1.1-1.1l-1.2-1.3l-4.4-4.5c-0.2-0.2-0.4-0.6-0.4-0.9c0-0.3,0.1-0.7,0.4-0.9c0,0,0,0,0,0c0,0,0,0,0,0
	c0.2-0.2-0.4-1.6,0-1.6c0.3,0,1.6,1.4,1.8,1.6c0,0,0,0,0,0l3.9,4l1.3,1.3l1.3,1.3l2,2.1v-2.2c0-0.7,0.6-1.3,1.3-1.3
	c0.3,0,0.6,0.1,0.9,0.4c0.2,0.2,0.4,0.6,0.4,0.9v0.1c0,0.1,0,0.2,0,0.3L29.5,37.1C29.5,37.1,29.5,37.1,29.5,37.1z"/>
<g>
	<g>
		<g>
			<g>
				<path class="st1" d="M15.2,14.9l6.5,1c0.5,0.1,0.7,0.7,0.3,1l-4.7,4.5c-0.1,0.1-0.2,0.3-0.2,0.5l1.1,6.4
					c0.1,0.5-0.4,0.9-0.9,0.6l-5.8-3.1c-0.2-0.1-0.4-0.1-0.6,0l-5.8,3c-0.5,0.2-1-0.2-0.9-0.7l1.2-6.2c0-0.2,0-0.4-0.2-0.5l-4.6-4.6
					c-0.4-0.4-0.2-1,0.3-1l6.5-1c0.2,0,0.4-0.2,0.5-0.3l2.9-5.8c0.2-0.5,0.9-0.4,1.1,0l2.8,5.9C14.9,14.7,15,14.8,15.2,14.9z"/>
			</g>
		</g>
	</g>
</g>
</svg>
