<?xml version="1.0" encoding="utf-8"?>
<!-- Generator: Adobe Illustrator 20.0.0, SVG Export Plug-In . SVG Version: 6.00 Build 0)  -->
<svg version="1.1" id="flash0.ai" xmlns="http://www.w3.org/2000/svg" xmlns:xlink="http://www.w3.org/1999/xlink" x="0px" y="0px"
	 viewBox="0 0 30.5 30" style="enable-background:new 0 0 30.5 30;" xml:space="preserve">
<style type="text/css">
	.st0{fill:#2980B9;}
</style>
<g>
	<g>
		<path class="st0" d="M20.4,10.2l8.1,1.2c0.6,0.1,0.9,0.9,0.4,1.3L23,18.4c-0.2,0.2-0.3,0.4-0.2,0.7l1.3,8.1
			c0.1,0.6-0.6,1.1-1.1,0.8l-7.2-3.9c-0.2-0.1-0.5-0.1-0.7,0l-7.3,3.8c-0.6,0.3-1.2-0.2-1.1-0.8L8.1,19c0-0.2,0-0.5-0.2-0.7L2,12.5
			c-0.5-0.4-0.2-1.2,0.4-1.3l8.1-1.1c0.3,0,0.5-0.2,0.6-0.4l3.7-7.3c0.3-0.6,1.1-0.6,1.4,0l3.6,7.4C19.9,10,20.1,10.1,20.4,10.2z"/>
	</g>
</g>
</svg>
