<?xml version="1.0" encoding="utf-8"?>
<!-- Generator: Adobe Illustrator 20.0.0, SVG Export Plug-In . SVG Version: 6.00 Build 0)  -->
<svg version="1.1" id="flash0.ai" xmlns="http://www.w3.org/2000/svg" xmlns:xlink="http://www.w3.org/1999/xlink" x="0px" y="0px"
	 viewBox="0 0 50 50" style="enable-background:new 0 0 50 50;" xml:space="preserve">
<style type="text/css">
	.st0{fill:#C0392B;}
	.st1{fill:#2980B9;}
	.st2{fill:#FFBD3B;}
</style>
<g>
	<g>
		<path class="st0" d="M40.5,11l8.1,1.2c0.6,0.1,0.9,0.9,0.4,1.3l-5.9,5.7c-0.2,0.2-0.3,0.4-0.2,0.7l1.3,8.1
			c0.1,0.6-0.6,1.1-1.1,0.8l-7.2-3.9c-0.2-0.1-0.5-0.1-0.7,0l-7.3,3.8c-0.6,0.3-1.2-0.2-1.1-0.8l1.4-8.1c0-0.2,0-0.5-0.2-0.7
			l-5.8-5.8c-0.5-0.4-0.2-1.2,0.4-1.3l8.1-1.1c0.3,0,0.5-0.2,0.6-0.4L35,3.2c0.3-0.6,1.1-0.6,1.4,0l3.6,7.4
			C40,10.8,40.2,10.9,40.5,11z"/>
	</g>
</g>
<g>
	<g>
		<path class="st1" d="M30.4,29.7l8.1,1.2c0.6,0.1,0.9,0.9,0.4,1.3L33,37.9c-0.2,0.2-0.3,0.4-0.2,0.7l1.3,8.1
			c0.1,0.6-0.6,1.1-1.1,0.8l-7.2-3.9c-0.2-0.1-0.5-0.1-0.7,0l-7.3,3.8c-0.6,0.3-1.2-0.2-1.1-0.8l1.4-8.1c0-0.2,0-0.5-0.2-0.7L12,32
			c-0.5-0.4-0.2-1.2,0.4-1.3l8.1-1.1c0.3,0,0.5-0.2,0.6-0.4l3.7-7.3c0.3-0.6,1.1-0.6,1.4,0l3.6,7.4C29.9,29.5,30.1,29.6,30.4,29.7z"
			/>
	</g>
</g>
<g>
	<g>
		<path class="st2" d="M20.4,11.4l8.1,1.2c0.6,0.1,0.9,0.9,0.4,1.3L23,19.6c-0.2,0.2-0.3,0.4-0.2,0.7l1.3,8.1
			c0.1,0.6-0.6,1.1-1.1,0.8l-7.2-3.9c-0.2-0.1-0.5-0.1-0.7,0l-7.3,3.8c-0.6,0.3-1.2-0.2-1.1-0.8l1.4-8.1c0-0.2,0-0.5-0.2-0.7L2,13.7
			c-0.5-0.4-0.2-1.2,0.4-1.3l8.1-1.1c0.3,0,0.5-0.2,0.6-0.4l3.7-7.3c0.3-0.6,1.1-0.6,1.4,0l3.6,7.4C19.9,11.2,20.1,11.3,20.4,11.4z"
			/>
	</g>
</g>
</svg>
