<?xml version="1.0" encoding="utf-8"?>
<!-- Generator: Adobe Illustrator 20.0.0, SVG Export Plug-In . SVG Version: 6.00 Build 0)  -->
<svg version="1.1" id="flash0.ai" xmlns="http://www.w3.org/2000/svg" xmlns:xlink="http://www.w3.org/1999/xlink" x="0px" y="0px"
	 viewBox="0 0 30 30" style="enable-background:new 0 0 30 30;" xml:space="preserve">
<style type="text/css">
	.st0{fill:#1360A5;}
	.st1{fill:#FFFFFF;}
</style>
<g>
	<g>
		<circle class="st0" cx="15" cy="15" r="14.3"/>
	</g>
	<g>
		<g>
			<path class="st1" d="M17,11.2c-0.6,0-1.2-0.2-1.6-0.6c-0.4-0.4-0.7-0.9-0.7-1.5s0.1-1.1,0.5-1.6s0.9-0.7,1.5-0.8
				c0.6,0,1.1,0.2,1.6,0.6C18.7,7.7,19,8.2,19,8.8s-0.1,1.2-0.5,1.6C18.2,10.9,17.7,11.2,17,11.2z M14.4,12c0.2-0.1,0.4-0.1,0.6-0.2
				h0.4c0.6,0,1.1,0.1,1.5,0.4c0.2,0.1,0.3,0.2,0.5,0.4l0.3,0.5l0.1,0.3c0.1,0.3,0.1,0.6,0,0.9l0,0c0,0.2-0.1,0.5-0.2,0.8
				c-0.9,2.9-1.4,4.6-1.5,4.9c-0.1,0.5-0.1,0.9,0,1s0.4,0.1,0.7-0.2c0.2-0.2,0.5-0.4,0.8-0.7l0.3-0.3c0.1-0.1,0.2-0.2,0.3-0.3
				c0.2-0.1,0.3,0,0.5,0.1c0.1,0.1,0.1,0.2,0.1,0.3c0,0.1-0.2,0.2-0.4,0.4l-0.3,0.3c-0.4,0.4-0.9,0.9-1.5,1.3
				c-0.7,0.5-1.2,0.9-1.6,1.1c-1,0.4-1.9,0.4-2.6,0.1c-0.7-0.4-1-1-0.9-2c0.1-0.8,0.4-2.1,1-3.9c0.5-1.3,0.8-2.2,1-2.7
				c0-0.2,0.1-0.3,0.1-0.4c0.1-0.4,0.1-0.6-0.1-0.8c-0.2-0.1-0.4-0.1-0.7,0.1c-0.2,0.1-0.4,0.3-0.7,0.5c-0.1,0-0.2,0.1-0.3,0.3
				s-0.3,0.2-0.4,0.2c-0.1,0-0.2-0.1-0.3-0.2C11,14.1,11,14,11,13.9c0-0.2,0.2-0.4,0.4-0.5C12.6,12.8,13.5,12.2,14.4,12z"/>
		</g>
	</g>
</g>
</svg>
