<?xml version="1.0" encoding="utf-8"?>
<!-- Generator: Adobe Illustrator 20.0.0, SVG Export Plug-In . SVG Version: 6.00 Build 0)  -->
<svg version="1.1" id="Layer_1" xmlns="http://www.w3.org/2000/svg" xmlns:xlink="http://www.w3.org/1999/xlink" x="0px" y="0px"
	 viewBox="0 0 32 32" style="enable-background:new 0 0 32 32;" xml:space="preserve">
<style type="text/css">
	.st0{fill:#232323;}
	.st1{fill:#FFFFFF;}
</style>
<circle class="st0" cx="16" cy="16" r="15.4"/>
<g id="Layer_1_1_">
</g>
<g>
	<path class="st1" d="M23.1,20.5c0,0,0.7-2.3-0.8-4.3c-1.5-1.9-4-2-4-2s2.8,0.4,4.4-0.8c1.6-1.2,1.9-4,1.9-4s-0.1,3.1,0.9,4.3
		c1,1.3,3.9,1.9,3.9,1.9s-2.8-0.1-4.3,0.9C23.7,17.7,23.1,20.5,23.1,20.5z"/>
	<path class="st1" d="M16.9,27.7c0,0,0.2-1.3-0.8-2.3c-1-0.9-2.3-0.8-2.3-0.8s1.6,0,2.4-0.8c0.8-0.8,0.7-2.3,0.7-2.3
		s0.2,1.7,0.8,2.3c0.6,0.6,2.3,0.8,2.3,0.8s-1.6,0.1-2.3,0.8C17,26.1,16.9,27.7,16.9,27.7z"/>
	<path class="st1" d="M17.6,11.2c0,0,0.2-1.5-0.8-2.5c-1.1-1.1-2.6-0.9-2.6-0.9s1.8,0,2.6-0.8c0.9-0.9,0.8-2.6,0.8-2.6
		s0.2,1.9,0.9,2.6c0.7,0.7,2.6,0.8,2.6,0.8s-1.8,0.1-2.5,0.9C17.8,9.4,17.6,11.2,17.6,11.2z"/>
</g>
<g>
	<path class="st1" d="M7,8.7c0.2-0.1,0.5-0.3,0.7-0.4C7.9,8.2,8.2,8.1,8.5,8c0.2-0.1,0.5-0.2,0.7-0.3c0.2-0.1,0.5-0.2,0.8-0.2
		l9.4,11.1c-0.5,0.3-0.9,0.5-1.4,0.7c-0.5,0.2-0.9,0.3-1.4,0.4l-1.8-2.3l-4.2,1.8l0.3,2.9c-0.4,0.3-0.8,0.5-1.2,0.6
		c-0.4,0.2-0.9,0.3-1.3,0.4L7,8.7z M13.3,15.6l-3.7-4.8l0.7,6L13.3,15.6z"/>
</g>
</svg>
