<?xml version="1.0" encoding="utf-8"?>
<!-- Generator: Adobe Illustrator 20.0.0, SVG Export Plug-In . SVG Version: 6.00 Build 0)  -->
<svg version="1.1" id="Layer_1" xmlns="http://www.w3.org/2000/svg" xmlns:xlink="http://www.w3.org/1999/xlink" x="0px" y="0px"
	 viewBox="0 0 115.1 43.6" style="enable-background:new 0 0 115.1 43.6;" xml:space="preserve">
<style type="text/css">
	.st0{fill:#232323;}
	.st1{fill:#FFFFFF;}
</style>
<g transform="matrix( 1, 0, 0, 1, 0,0) ">
	<g>
		<g id="Layer0_0_FILL">
			<path class="st0" d="M114.1,8.5c0-5.2-2.6-7.8-7.8-7.8H25.9c-5.2,0-7.8,2.6-7.8,7.8v2.7L0,21.7l18.1,10.5v2.6
				c0,5.2,2.6,7.9,7.8,7.9h80.3c5.2,0,7.8-2.6,7.8-7.9V8.5z"/>
		</g>
	</g>
</g>
<g transform="matrix( 1.081634521484375, 0, 0, 1.081634521484375, -107.3,58.85) ">
	<g>
		<g id="Layer0_1_FILL">
			<path class="st1" d="M133.5-31.4h-1.3v3.9h-1.7v-3.9h-1.3v8.9h1.3v-4h1.7v4h1.3V-31.4 M126.3-31.6c-0.4,0-0.7,0-0.9,0.1
				c-0.2,0-0.4,0.1-0.5,0.3c-0.2,0.1-0.3,0.3-0.4,0.5c0,0.3,0,0.7,0,1.2c0,0.4,0,0.7,0,0.9c0,0.3,0,0.5,0,0.6c0,0.1,0.1,0.3,0.2,0.4
				c0.1,0.1,0.2,0.2,0.3,0.2c0.1,0.1,0.2,0.2,0.3,0.3c0.2,0.1,0.3,0.1,0.4,0.2c0.2,0.1,0.3,0.2,0.5,0.3c0.2,0.1,0.3,0.1,0.4,0.3
				c0.2,0.1,0.3,0.1,0.4,0.1c0.1,0.1,0.1,0.2,0.1,0.3c0,0.1,0.1,0.1,0.1,0.2c0,0,0,0.1,0,0.2c0,0.1,0,0.2,0,0.3s0,0.2,0,0.3
				c0,0.4,0,0.7,0,0.9c0,0.2,0,0.3-0.2,0.4c0,0.1-0.1,0.2-0.2,0.2s-0.2,0-0.4,0c-0.2,0-0.3,0-0.4,0c-0.1,0-0.1-0.1-0.2-0.2
				c-0.1-0.1-0.1-0.2-0.1-0.3c0-0.2,0-0.4,0-0.8c0-0.2,0-0.3,0-0.4c0-0.1,0-0.2,0-0.3h-1.2c0,0.1,0,0.2,0,0.4c0,0.1,0,0.3,0,0.5
				c0,0.3,0,0.5,0,0.6c0,0.2,0,0.3,0,0.5c0,0.1,0.1,0.2,0.2,0.4c0.1,0.1,0.1,0.2,0.2,0.3c0.1,0.2,0.3,0.3,0.5,0.4
				c0.2,0.1,0.5,0.2,0.9,0.2c0.5,0,0.8-0.1,1.1-0.2c0.3-0.1,0.5-0.2,0.6-0.4c0.1-0.1,0.1-0.2,0.2-0.3c0-0.1,0.1-0.2,0.1-0.4
				c0-0.1,0.1-0.3,0.1-0.6c0-0.2,0-0.5,0-0.8c0-0.3,0-0.5,0-0.7c0-0.2,0-0.3,0-0.4c0-0.1-0.1-0.2-0.1-0.3c0-0.1-0.1-0.2-0.1-0.3
				c-0.1-0.1-0.2-0.2-0.2-0.3c-0.1-0.1-0.2-0.1-0.4-0.2c-0.2-0.2-0.5-0.3-0.7-0.4c-0.3-0.1-0.5-0.2-0.7-0.3
				c-0.1-0.1-0.2-0.2-0.3-0.3c-0.1-0.1-0.1-0.1-0.2-0.2c0-0.1,0-0.1,0-0.2c0-0.1,0-0.1,0-0.1c0-0.1,0-0.2,0-0.3c0-0.1,0-0.2,0-0.4
				c0-0.3,0-0.5,0-0.7c0-0.1,0-0.3,0.1-0.4c0.1-0.1,0.1-0.1,0.2-0.1c0.1,0,0.2,0,0.4,0c0.1,0,0.2,0,0.3,0s0.2,0.1,0.2,0.1
				c0.1,0.1,0.1,0.2,0.1,0.4c0,0.2,0.1,0.4,0.1,0.6c0,0.2,0,0.4,0,0.5c0,0.1,0,0.2-0.1,0.3h1.1c0-0.1,0.1-0.2,0.1-0.4
				c0-0.2,0-0.4,0-0.6c0-0.4,0-0.7-0.1-0.9c0-0.2-0.1-0.4-0.2-0.6c-0.1-0.1-0.3-0.2-0.5-0.3C127.1-31.5,126.8-31.6,126.3-31.6
				 M129-45.9c-0.2-0.2-0.4-0.3-0.8-0.4c-0.3-0.1-0.7-0.2-1.2-0.2c-0.5,0-0.9,0-1.2,0.2c-0.3,0.1-0.6,0.2-0.8,0.4
				c-0.2,0.2-0.3,0.5-0.4,1c-0.1,0.4-0.1,0.8-0.1,1.4c0,0.6,0,1,0,1.3c0,0.4,0,0.7,0.1,0.9c0,0.2,0.1,0.4,0.2,0.5
				c0.1,0.1,0.2,0.2,0.3,0.3c0.1,0.1,0.3,0.3,0.6,0.4c0.2,0.1,0.4,0.3,0.6,0.3c0.2,0.1,0.5,0.3,0.7,0.4c0.2,0.1,0.4,0.3,0.5,0.4
				c0.1,0.1,0.1,0.2,0.2,0.2c0,0.1,0.1,0.2,0.1,0.3c0,0.1,0,0.2,0.1,0.4c0,0.1,0,0.3,0,0.5c0,0.4,0,0.7-0.1,0.8
				c0,0.3-0.1,0.5-0.1,0.5c-0.1,0.1-0.2,0.2-0.3,0.2c-0.1,0.1-0.2,0.1-0.4,0.1c-0.1,0-0.3,0-0.4-0.1c-0.1,0-0.1-0.1-0.2-0.3
				c-0.1-0.1-0.1-0.3-0.2-0.5c0-0.2,0-0.4,0-0.8c0-0.1,0-0.3,0-0.4c0-0.1,0-0.2,0-0.3h-1.6c0,0.2-0.1,0.4-0.1,0.6c0,0.2,0,0.4,0,0.7
				c0,0.6,0,1.1,0.1,1.5c0.1,0.4,0.2,0.7,0.4,1c0.2,0.2,0.5,0.3,0.8,0.5c0.3,0.1,0.7,0.2,1.1,0.2c0.5,0,1-0.1,1.3-0.2
				c0.4-0.1,0.7-0.3,0.9-0.5c0.2-0.3,0.3-0.6,0.4-1.1c0.1-0.5,0.2-1.1,0.2-1.8c0-0.6,0-1,0-1.3c0-0.4-0.1-0.7-0.2-0.9
				c-0.1-0.2-0.2-0.4-0.3-0.5c-0.1-0.1-0.3-0.2-0.5-0.4c-0.1-0.1-0.3-0.2-0.5-0.3c-0.2-0.1-0.4-0.2-0.6-0.3
				c-0.2-0.1-0.4-0.2-0.5-0.3c-0.2-0.1-0.4-0.2-0.5-0.3c-0.1,0-0.1-0.1-0.2-0.2c-0.1-0.1-0.1-0.1-0.2-0.3c0-0.1,0-0.2,0-0.4
				c0-0.1,0-0.3,0-0.5c0-0.3,0-0.5,0-0.8c0-0.2,0.1-0.3,0.2-0.4c0-0.1,0.1-0.1,0.2-0.2c0.1,0,0.2,0,0.3,0c0.4,0,0.6,0.1,0.7,0.3
				c0.1,0.2,0.1,0.5,0.1,1c0,0.2,0,0.4,0,0.5c0,0.1,0,0.2,0,0.3h1.7c0.1-0.2,0.1-0.4,0.1-0.5c0-0.2,0-0.4,0-0.8c0-0.5,0-0.9-0.1-1.2
				C129.4-45.4,129.2-45.6,129-45.9 M166.7-31.4h-2.3l-1.1,8.9h1.3l0.2-2.5h1.2l0.3,2.5h1.3L166.7-31.4 M165.4-29.8
				c0-0.2,0-0.4,0-0.5h0.1c0,0.2,0,0.3,0,0.5c0,0.1,0,0.3,0,0.5l0.3,3.3h-1l0.4-3.3C165.4-29.5,165.4-29.6,165.4-29.8 M169.7-31.4
				h-1.3v8.9h1.3v-3.6c0-0.2,0-0.4,0-0.4c0-0.1,0-0.2,0-0.4h0.2c0,0,0,0.1,0,0.2c0,0,0,0.1,0,0.2c0,0.1,0.1,0.2,0.2,0.4
				c0.1,0.2,0.2,0.5,0.3,0.8c0.1,0.3,0.3,0.7,0.5,1.2c0.2,0.4,0.4,1,0.7,1.7h1.4v0l-2-4.8l1.9-4.1v0h-1.4c-0.4,0.9-0.7,1.6-0.9,2.1
				c-0.2,0.5-0.4,0.9-0.5,1.1c-0.1,0.3-0.2,0.4-0.2,0.5c0,0.1,0,0.2,0,0.2h-0.2c0-0.1,0-0.2,0-0.3c0-0.1,0-0.3,0-0.5V-31.4
				 M160.5-30.3h2.2v-1.1h-3.5v8.9h3.4v-1.1h-2.2v-2.9h2.2v-1h-2.2V-30.3 M158.3-30.3c-0.1-0.2-0.1-0.3-0.2-0.4
				c-0.1-0.1-0.1-0.3-0.2-0.3c-0.2-0.1-0.3-0.2-0.5-0.3c-0.2-0.1-0.4-0.1-0.8-0.1h-2.4v8.9h1.3v-3.7h0.6c0.2,0,0.3,0,0.4,0
				c0.1,0.1,0.2,0.3,0.2,0.5c0.1,0.3,0.1,0.6,0.1,0.9c0,0.3,0.1,0.7,0.1,1c0,0.3,0,0.5,0,0.6c0,0.2,0,0.3,0,0.4
				c0,0.1,0.1,0.2,0.1,0.3c0,0,0.1,0.1,0.1,0.1h1.3v0c-0.1-0.1-0.1-0.2-0.1-0.4c0-0.1,0-0.2,0-0.4c0-0.5-0.1-0.9-0.1-1.3
				c-0.1-0.4-0.1-0.8-0.2-1.2c0-0.3-0.1-0.5-0.2-0.5c-0.1-0.1-0.2-0.2-0.3-0.2v0c0.1-0.1,0.2-0.1,0.3-0.2c0.1-0.1,0.1-0.2,0.2-0.3
				c0-0.1,0.1-0.2,0.1-0.3c0-0.1,0-0.2,0-0.3c0-0.1,0.1-0.3,0.1-0.5c0-0.2,0-0.4,0-0.7s0-0.5,0-0.7
				C158.3-29.9,158.3-30.1,158.3-30.3 M156.3-30.4c0.2,0,0.4,0.1,0.5,0.2c0,0.1,0.1,0.1,0.1,0.2c0,0.1,0,0.2,0,0.3
				c0,0.1,0,0.2,0,0.3c0,0.1,0,0.3,0,0.5c0,0.3,0,0.5,0,0.6c0,0.2,0,0.3,0,0.4c0,0.1,0,0.2,0,0.3c0,0.1-0.1,0.1-0.1,0.2
				c-0.1,0.1-0.2,0.2-0.3,0.3s-0.3,0-0.4,0h-0.6v-3.1H156.3 M163.1-46.3h-2v12.2h2V-46.3 M169.8-46.3H168v5.2h-0.1l-1.7-5.2h-2v12.2
				h1.8v-7.5h0l2.8,7.5h1V-46.3 M153.3-30.2c-0.1-0.3-0.2-0.5-0.3-0.8c-0.2-0.2-0.4-0.3-0.6-0.4c-0.2-0.1-0.5-0.1-0.9-0.1h-2.3v8.9
				h2.5c0.3,0,0.6,0,0.8,0c0.2-0.1,0.4-0.2,0.6-0.4c0.1-0.2,0.2-0.5,0.3-0.8c0.1-0.3,0.1-0.7,0.1-1.2c0-0.4,0-0.8,0-1
				c0-0.2,0-0.4-0.1-0.6c0-0.1-0.1-0.2-0.2-0.3c-0.1-0.1-0.2-0.2-0.4-0.2v-0.1c0.1,0,0.2-0.1,0.3-0.2c0.1,0,0.1-0.1,0.2-0.3
				c0-0.1,0.1-0.3,0.1-0.5c0-0.2,0-0.5,0-0.8C153.4-29.5,153.4-29.9,153.3-30.2 M152-29.9c0,0,0,0.1,0,0.2c0,0.1,0,0.2,0,0.4
				c0,0.1,0,0.3,0,0.5c0,0.3,0,0.5,0,0.7c0,0.2-0.1,0.3-0.1,0.5s-0.1,0.2-0.3,0.2c-0.1,0.1-0.2,0.1-0.3,0.1h-0.8v-3h0.9
				c0.1,0,0.2,0,0.3,0.1c0.1,0,0.2,0.1,0.2,0.2C151.9-30.1,152-30,152-29.9 M151.4-26.6c0.1,0,0.3,0,0.4,0c0.1,0,0.2,0.1,0.2,0.3
				c0.1,0.1,0.1,0.2,0.1,0.4c0,0.2,0,0.5,0,0.9c0,0.3,0,0.6,0,0.8c0,0.2-0.1,0.3-0.2,0.5c0,0.1-0.1,0.2-0.2,0.2c-0.1,0-0.2,0-0.3,0
				h-1v-3.1H151.4 M143.4-31.4h-1.3c-0.2,1.1-0.3,2-0.4,2.8c-0.1,0.8-0.2,1.4-0.3,2c0,0.5-0.1,1-0.1,1.3c0,0.3-0.1,0.5-0.1,0.7
				c0,0.2,0,0.3,0,0.5c0,0.1,0,0.2,0,0.3H141c0-0.1,0-0.2,0-0.3c0-0.1,0-0.3,0-0.5c0-0.2-0.1-0.5-0.1-0.7c0-0.3-0.1-0.8-0.1-1.3
				c-0.1-0.5-0.1-1.2-0.2-2c0-0.8-0.1-1.7-0.2-2.8h-1.3l0.9,8.9h1.9c0.1-0.9,0.2-1.7,0.3-2.4c0.1-0.7,0.1-1.2,0.2-1.7
				s0.1-0.9,0.2-1.2s0-0.5,0-0.7c0-0.2,0-0.3,0-0.5c0-0.1,0-0.1,0-0.3h0.1c0,0.1,0,0.2,0.1,0.3c0,0.1,0,0.3,0,0.5c0,0.2,0,0.4,0,0.7
				s0.1,0.7,0.1,1.2c0.1,0.5,0.1,1,0.2,1.7c0.1,0.7,0.2,1.5,0.3,2.4h1.9l0.8-8.9h-1.2c-0.1,1.1-0.2,2-0.3,2.8
				c-0.1,0.8-0.1,1.4-0.2,2c0,0.5,0,1,0,1.3c0,0.3-0.1,0.5-0.1,0.7c0,0.2,0,0.3,0,0.5c0,0.1,0,0.2,0,0.3h-0.1c0-0.1,0-0.2,0-0.3
				c0-0.1,0-0.3-0.1-0.5c0-0.2-0.1-0.5-0.1-0.7c0-0.3-0.1-0.8-0.2-1.3c-0.1-0.5-0.2-1.2-0.3-2C143.7-29.4,143.5-30.3,143.4-31.4
				 M135.3-31.4c-0.3,0.1-0.5,0.3-0.6,0.6c-0.1,0.1-0.1,0.3-0.2,0.4c-0.1,0.1-0.1,0.3-0.1,0.6c0,0.3-0.1,0.7-0.1,1.1
				c0,0.4,0,1,0,1.7c0,0.7,0,1.3,0,1.8c0,0.4,0.1,0.8,0.1,1.1c0,0.3,0.1,0.5,0.1,0.7c0,0.1,0.1,0.3,0.2,0.5c0.1,0.3,0.3,0.4,0.6,0.5
				c0.3,0.1,0.6,0.2,1.1,0.2c0.5,0,0.9-0.1,1.1-0.2c0.3-0.1,0.5-0.3,0.6-0.5c0-0.2,0.1-0.3,0.1-0.5c0.1-0.2,0.1-0.4,0.2-0.7
				c0-0.3,0-0.7,0-1.1c0-0.4,0-1,0-1.8c0-0.7,0-1.2,0-1.7c0-0.5,0-0.8,0-1.1c0-0.3-0.1-0.5-0.2-0.6c-0.1-0.2-0.1-0.3-0.1-0.4
				c-0.1-0.3-0.3-0.5-0.6-0.6c-0.3-0.1-0.6-0.1-1.1-0.1C135.9-31.6,135.6-31.5,135.3-31.4 M136.4-30.5c0.2,0,0.3,0,0.5,0.1
				c0.1,0.1,0.2,0.2,0.2,0.3c0,0.1,0.1,0.2,0.1,0.3c0,0.1,0,0.2,0,0.4c0,0.2,0,0.5,0,0.9c0,0.4,0,0.9,0,1.5c0,0.6,0,1.1,0,1.5
				c0,0.4,0,0.7,0,0.9c0,0.2,0,0.3,0,0.4c0,0.1,0,0.3-0.1,0.4c0,0.1-0.1,0.2-0.2,0.3c-0.1,0-0.3,0-0.5,0c-0.2,0-0.3,0-0.4,0
				c-0.1-0.1-0.2-0.2-0.2-0.3c0-0.1-0.1-0.2-0.1-0.4c0-0.1,0-0.2,0-0.4c0-0.2,0-0.5,0-0.9c0-0.4,0-0.9,0-1.5c0-0.6,0-1.1,0-1.5
				c0-0.4,0-0.7,0-0.9c0-0.2,0-0.3,0-0.4c0-0.1,0.1-0.3,0.1-0.4s0.1-0.2,0.2-0.3C136.1-30.5,136.2-30.5,136.4-30.5 M138.7-46.3h-2.9
				l-0.8,4.4c-0.1,0.4-0.2,0.8-0.2,1.1c-0.1,0.3-0.1,0.5-0.1,0.8h0c0-0.3-0.1-0.5-0.2-0.8c0-0.3-0.1-0.6-0.2-1.1l-0.8-4.4h-2.9v12.2
				h1.8v-8.4h0.1c0,0.2,0.1,0.4,0.1,0.7s0.1,0.5,0.1,0.6l1.6,7.1h0.9l1.5-7.1c0.1-0.2,0.1-0.4,0.1-0.6c0.1-0.2,0.1-0.5,0.1-0.7h0.1
				v8.4h1.8V-46.3 M144-46.3h-3.3l-1.3,12.2h2l0.3-3h1.3l0.3,3h2L144-46.3 M142.2-44.3h0.2l0.5,5.2h-1.1L142.2-44.3 M152.1-44.3h1.8
				v10.2h2v-10.2h1.7v-2h-5.4V-44.3 M149.1-46.3H146v12.2h2V-39h0.5c0.2,0,0.3,0.1,0.4,0.2c0.1,0.1,0.2,0.4,0.2,0.8
				c0.1,0.5,0.1,0.9,0.1,1.3c0,0.4,0.1,0.8,0.2,1.1c0,0.3,0,0.5,0,0.6c0,0.2,0,0.3,0,0.4c0,0.1,0,0.2,0,0.3c0,0,0.1,0.1,0.1,0.2h2.1
				v-0.1c0-0.1-0.1-0.1-0.1-0.2c0-0.1,0-0.2-0.1-0.3c0-0.1,0-0.2,0-0.3c0-0.1,0-0.3,0-0.5c-0.1-0.6-0.2-1.2-0.2-1.6
				c0-0.5-0.1-0.9-0.1-1.3c-0.1-0.3-0.2-0.6-0.3-0.8c-0.1-0.2-0.2-0.4-0.4-0.5v-0.1c0.1,0,0.2-0.1,0.4-0.2c0.1-0.1,0.2-0.3,0.3-0.5
				c0.1-0.2,0.2-0.5,0.2-0.9c0.1-0.4,0.1-0.9,0.1-1.6c0-0.6,0-1.1-0.1-1.5c-0.1-0.4-0.2-0.8-0.4-1c-0.2-0.3-0.5-0.5-0.8-0.5
				C150-46.2,149.6-46.3,149.1-46.3 M147.9-44.3h0.8c0.1,0,0.2,0,0.3,0c0.1,0,0.1,0.1,0.2,0.2c0.1,0.1,0.2,0.2,0.2,0.4s0,0.5,0,0.9
				c0,0.5,0,0.8,0,1.1s-0.1,0.5-0.2,0.6c-0.1,0.1-0.2,0.2-0.3,0.3c-0.1,0-0.2,0-0.3,0h-0.8V-44.3 M195.1-31.4h-1.5v8.9h1.1V-27
				c0-0.3,0-0.6,0-0.9c0-0.3,0-0.6,0-0.8h0.1c0,0.1,0.1,0.2,0.1,0.3s0.1,0.2,0.2,0.4c0,0.2,0.1,0.4,0.2,0.6c0.1,0.3,0.3,0.7,0.4,1.1
				c0.2,0.4,0.4,1,0.6,1.6c0.3,0.6,0.5,1.4,0.8,2.2h0.8v-8.9h-1.2v3.4c0,0.3,0,0.5,0,0.6c0,0.2,0,0.4,0,0.5h-0.1c0-0.1,0-0.1,0-0.1
				c0-0.1,0-0.2,0-0.3c0-0.1-0.1-0.3-0.2-0.5c-0.1-0.2-0.1-0.5-0.3-0.8c-0.1-0.3-0.2-0.7-0.4-1.1C195.5-30.2,195.3-30.8,195.1-31.4
				 M187-31.4h-1.3l0.9,8.9h1.9c0.1-0.9,0.2-1.7,0.3-2.4c0.1-0.7,0.2-1.2,0.3-1.7c0-0.5,0.1-0.9,0.1-1.2s0.1-0.5,0.1-0.7
				c0-0.2,0-0.3,0-0.5c0-0.1,0-0.1,0-0.3h0.1c0,0.1,0,0.2,0,0.3c0,0.1,0,0.3,0,0.5c0,0.2,0,0.4,0,0.7c0,0.3,0.1,0.7,0.2,1.2
				c0.1,0.5,0.1,1,0.2,1.7c0.1,0.7,0.2,1.5,0.3,2.4h1.8l0.9-8.9h-1.3c-0.1,1.1-0.2,2-0.2,2.8c-0.1,0.8-0.1,1.4-0.2,2
				c0,0.5-0.1,1-0.1,1.3c0,0.3-0.1,0.5-0.1,0.7c0,0.2,0,0.3,0,0.5c0,0.1,0,0.2,0,0.3h-0.1c0-0.1,0-0.2,0-0.3c0-0.1,0-0.3,0-0.5
				c0-0.2-0.1-0.5-0.2-0.7c0-0.3-0.1-0.8-0.1-1.3c-0.1-0.5-0.2-1.2-0.3-2c-0.1-0.8-0.2-1.7-0.3-2.8h-1.3c-0.1,1.1-0.3,2-0.4,2.8
				c-0.1,0.8-0.1,1.4-0.2,2c-0.1,0.5-0.1,1-0.2,1.3c0,0.3,0,0.5-0.1,0.7c0,0.2,0,0.3,0,0.5c0,0.1,0,0.2,0,0.3h-0.1
				c0-0.1,0-0.2-0.1-0.3c0-0.1,0-0.3,0-0.5c0-0.2-0.1-0.5-0.1-0.7c0-0.3,0-0.8,0-1.3c-0.1-0.5-0.1-1.2-0.2-2
				C187.2-29.4,187.1-30.3,187-31.4 M181.8-31.4c-0.3,0.1-0.5,0.3-0.5,0.6c-0.1,0.1-0.2,0.3-0.2,0.4c-0.1,0.1-0.1,0.3-0.1,0.6
				c0,0.3-0.1,0.7-0.1,1.1c0,0.4,0,1,0,1.7c0,0.7,0,1.3,0,1.8c0,0.4,0.1,0.8,0.1,1.1c0,0.3,0,0.5,0.1,0.7c0,0.1,0.1,0.3,0.2,0.5
				c0.1,0.3,0.3,0.4,0.5,0.5c0.3,0.1,0.7,0.2,1.2,0.2s0.9-0.1,1.2-0.2c0.3-0.1,0.5-0.3,0.5-0.5c0.1-0.2,0.1-0.3,0.2-0.5
				c0.1-0.2,0.1-0.4,0.1-0.7c0-0.3,0-0.7,0-1.1c0-0.4,0-1,0-1.8c0-0.7,0-1.2,0-1.7c0-0.5,0-0.8,0-1.1c0-0.3-0.1-0.5-0.1-0.6
				c-0.1-0.2-0.1-0.3-0.2-0.4c-0.1-0.3-0.3-0.5-0.5-0.6c-0.3-0.1-0.7-0.1-1.2-0.1C182.4-31.6,182.1-31.5,181.8-31.4 M182.2-29.8
				c0-0.1,0.1-0.3,0.1-0.4c0.1-0.1,0.2-0.2,0.3-0.3c0.1-0.1,0.2-0.1,0.4-0.1s0.4,0,0.5,0.1c0.1,0.1,0.1,0.2,0.2,0.3
				c0,0.1,0.1,0.2,0.1,0.3c0,0.1,0,0.2,0,0.4c0,0.2,0,0.5,0,0.9c0,0.4,0,0.9,0,1.5c0,0.6,0,1.1,0,1.5c0,0.4,0,0.7,0,0.9
				c0,0.2,0,0.3,0,0.4c0,0.1,0,0.3,0,0.4c-0.1,0.1-0.1,0.2-0.2,0.3c-0.1,0-0.3,0-0.5,0s-0.3,0-0.4,0c-0.1-0.1-0.2-0.2-0.3-0.3
				c0-0.1-0.1-0.2-0.1-0.4c0-0.1,0-0.2,0-0.4c0-0.2,0-0.5,0-0.9s0-0.9,0-1.5c0-0.6,0-1.1,0-1.5c0-0.4,0-0.7,0-0.9
				C182.2-29.6,182.2-29.7,182.2-29.8 M179.9-30.3c-0.1-0.2-0.1-0.3-0.2-0.4c-0.1-0.3-0.3-0.5-0.6-0.6c-0.2-0.1-0.6-0.2-1.1-0.2
				h-2.2v8.9h2.2c0.5,0,0.9,0,1.1-0.1c0.3-0.1,0.5-0.3,0.6-0.6c0.1-0.1,0.1-0.2,0.2-0.4c0-0.1,0.1-0.3,0.1-0.6c0-0.3,0.1-0.6,0.1-1
				c0-0.4,0-1,0-1.8c0-0.7,0-1.2,0-1.6c0-0.4-0.1-0.8-0.1-1.1C180-29.9,180-30.1,179.9-30.3 M178-30.3c0.2,0,0.3,0,0.4,0.1
				c0.1,0,0.2,0.1,0.3,0.3c0,0.1,0.1,0.2,0.1,0.3c0,0.1,0,0.3,0,0.5c0,0.2,0,0.5,0,0.9c0,0.4,0,0.8,0,1.3c0,0.6,0,1.1,0,1.5
				c0,0.4,0,0.6,0,0.8c0,0.2-0.1,0.4-0.1,0.5c0,0.1,0,0.2,0,0.3c-0.1,0.1-0.1,0.2-0.2,0.3c-0.1,0-0.3,0.1-0.5,0.1h-0.8v-6.7H178
				 M178.7-46.3h-2v12.2h2V-46.3 M175.6-45.1c-0.1-0.3-0.2-0.6-0.4-0.8c-0.2-0.2-0.5-0.3-0.8-0.4c-0.3-0.1-0.8-0.2-1.3-0.2
				c-0.5,0-0.9,0-1.2,0.2c-0.3,0.1-0.6,0.2-0.8,0.4c-0.2,0.2-0.3,0.5-0.4,1c-0.1,0.4-0.1,0.8-0.1,1.4c0,0.6,0,1,0,1.3
				c0,0.4,0.1,0.7,0.1,0.9c0,0.2,0.1,0.4,0.2,0.5c0.1,0.1,0.2,0.2,0.3,0.3c0.1,0.1,0.3,0.3,0.5,0.4c0.2,0.1,0.4,0.3,0.7,0.3
				c0.2,0.1,0.5,0.3,0.7,0.4c0.2,0.1,0.4,0.3,0.5,0.4c0,0.1,0.1,0.2,0.1,0.2c0.1,0.1,0.1,0.2,0.2,0.3c0,0.1,0,0.2,0,0.4
				c0,0.1,0,0.3,0,0.5c0,0.4,0,0.7,0,0.8c0,0.3-0.1,0.5-0.2,0.5c-0.1,0.1-0.1,0.2-0.3,0.2c-0.1,0.1-0.3,0.1-0.4,0.1
				c-0.2,0-0.3,0-0.4-0.1c-0.1,0-0.2-0.1-0.3-0.3c0-0.1-0.1-0.3-0.1-0.5c0-0.2,0-0.4,0-0.8c0-0.1,0-0.3,0-0.4c0-0.1,0-0.2,0-0.3
				h-1.7c0,0.2-0.1,0.4-0.1,0.6s0,0.4,0,0.7c0,0.6,0,1.1,0.1,1.5c0.1,0.4,0.3,0.7,0.5,1c0.2,0.2,0.5,0.3,0.8,0.5
				c0.3,0.1,0.7,0.2,1.1,0.2c0.5,0,1-0.1,1.3-0.2c0.3-0.1,0.6-0.3,0.8-0.5c0.2-0.3,0.3-0.6,0.5-1.1c0.1-0.5,0.1-1.1,0.1-1.8
				c0-0.6,0-1,0-1.3c0-0.4,0-0.7-0.1-0.9c-0.1-0.2-0.2-0.4-0.3-0.5c-0.1-0.1-0.3-0.2-0.5-0.4c-0.1-0.1-0.3-0.2-0.5-0.3
				c-0.2-0.1-0.4-0.2-0.7-0.3c-0.2-0.1-0.3-0.2-0.5-0.3c-0.2-0.1-0.4-0.2-0.5-0.3c-0.1,0-0.2-0.1-0.2-0.2s-0.1-0.1-0.1-0.3
				c0-0.1,0-0.2,0-0.4c0-0.1,0-0.3,0-0.5c0-0.3,0-0.5,0-0.8c0-0.2,0.1-0.3,0.1-0.4c0.1-0.1,0.2-0.1,0.3-0.2c0.1,0,0.2,0,0.4,0
				c0.4,0,0.6,0.1,0.6,0.3c0.1,0.2,0.2,0.5,0.2,1c0,0.2,0,0.4,0,0.5s0,0.2,0,0.3h1.6c0.1-0.2,0.1-0.4,0.1-0.5c0-0.2,0-0.4,0-0.8
				C175.7-44.3,175.7-44.7,175.6-45.1 M185.1-42.5c0-0.1,0-0.2,0-0.3c0-0.1,0-0.2,0-0.3c0-0.6-0.1-1-0.2-1.4c0-0.4-0.1-0.7-0.3-1
				c-0.1-0.2-0.2-0.3-0.3-0.4c-0.1-0.1-0.3-0.3-0.5-0.3c-0.2,0-0.4-0.1-0.6-0.1c-0.2-0.1-0.5-0.1-0.9-0.1c-0.3,0-0.6,0-0.8,0.1
				c-0.2,0-0.5,0.1-0.7,0.1c-0.2,0.1-0.4,0.2-0.5,0.3c-0.1,0.1-0.3,0.3-0.3,0.5c-0.1,0.2-0.2,0.4-0.3,0.6c-0.1,0.2-0.1,0.5-0.2,0.9
				c0,0.3,0,0.8,0,1.4c0,0.6,0,1.4,0,2.3c0,1,0,1.8,0,2.4c0,0.6,0,1.1,0,1.5c0,0.4,0.1,0.7,0.2,0.9c0.1,0.2,0.2,0.4,0.3,0.5
				c0.2,0.4,0.5,0.7,0.8,0.8c0.3,0.2,0.8,0.3,1.5,0.3c0.6,0,1.1-0.1,1.5-0.3c0.3-0.1,0.6-0.4,0.8-0.8c0.1-0.1,0.1-0.3,0.2-0.5
				c0-0.2,0.1-0.4,0.2-0.7c0-0.3,0.1-0.7,0.1-1.1s0-1,0-1.6c0-0.5,0-1,0-1.4c0-0.3,0-0.6,0-0.8h-3v2h1.2c0,0.1,0,0.2,0,0.3
				c0,0.1,0,0.3,0,0.5c0,0.1,0,0.3,0,0.5c0,0.2,0,0.4,0,0.5c0,0.1,0,0.3-0.1,0.5c0,0.1,0,0.3,0,0.3c-0.1,0.2-0.2,0.3-0.3,0.4
				c-0.1,0.1-0.3,0.1-0.5,0.1c-0.2,0-0.4,0-0.5-0.1c-0.1-0.1-0.2-0.2-0.3-0.3c0-0.1,0-0.2,0-0.3c0-0.1-0.1-0.3-0.1-0.6
				c0-0.3,0-0.6,0-1.1c0-0.5-0.1-1.1-0.1-1.8c0-0.7,0-1.3,0.1-1.8c0-0.5,0-0.8,0-1.1c0-0.3,0-0.5,0-0.6s0-0.2,0-0.3
				c0-0.2,0.1-0.3,0.2-0.4c0.1-0.1,0.3-0.1,0.5-0.1c0.4,0,0.6,0.1,0.7,0.3c0,0.1,0.1,0.3,0.1,0.5s0,0.4,0,0.6c0,0.2,0,0.3,0,0.3
				c0,0,0,0.1,0,0.2H185.1 M192.5-46.3v2h1.8v10.2h2v-10.2h1.7v-2H192.5 M188.1-46.3h-2v12.2h2v-5.2h1.7v5.2h2v-12.2h-2v5h-1.7
				V-46.3z"/>
		</g>
	</g>
</g>
</svg>
