<?xml version="1.0" encoding="utf-8"?>
<!-- Generator: Adobe Illustrator 20.0.0, SVG Export Plug-In . SVG Version: 6.00 Build 0)  -->
<svg version="1.1" id="Layer_1" xmlns="http://www.w3.org/2000/svg" xmlns:xlink="http://www.w3.org/1999/xlink" x="0px" y="0px"
	 viewBox="0 0 30 30" style="enable-background:new 0 0 30 30;" xml:space="preserve">
<style type="text/css">
	.st0{fill:none;stroke:#FCFCFC;stroke-linecap:square;stroke-miterlimit:3;}
	.st1{fill:#FCFCFC;}
</style>
<g transform="matrix( 1, 0, 0, 1, 200,-147.95) ">
	<g>
		<path id="Layer0_0_1_STROKES" class="st0" d="M-171.2,162.9c0,3.8-1.3,7-4,9.7c-2.7,2.7-5.9,4-9.7,4s-7-1.4-9.7-4
			c-2.7-2.7-4-5.9-4-9.7c0-3.8,1.3-7,4-9.7c2.7-2.7,5.9-4,9.7-4s7,1.3,9.7,4C-172.6,155.9-171.2,159.2-171.2,162.9z"/>
	</g>
</g>
<g transform="matrix( 0.9996337890625, 0, 0, 0.9996337890625, 633.35,-154.2) ">
	<g>
		<g id="Layer0_0_MEMBER_0_FILL">
			<path class="st1" d="M-624.5,175.3v2.5h11.7v-2.5H-624.5 M-617.4,160.8h-2.5v8.5l-2.9-2.9l-1.8,1.7l5.9,5.9l5.9-5.9l-1.7-1.7
				l-2.9,2.9V160.8L-617.4,160.8z"/>
		</g>
	</g>
</g>
</svg>
