<?xml version="1.0" encoding="utf-8"?>
<!-- Generator: Adobe Illustrator 15.0.0, SVG Export Plug-In . SVG Version: 6.00 Build 0)  -->
<!DOCTYPE svg PUBLIC "-//W3C//DTD SVG 1.1//EN" "http://www.w3.org/Graphics/SVG/1.1/DTD/svg11.dtd">
<svg version="1.1" id="Layer_1" xmlns="http://www.w3.org/2000/svg" xmlns:xlink="http://www.w3.org/1999/xlink" x="0px" y="0px"
	 width="30px" height="30px" viewBox="0 0 30 30" enable-background="new 0 0 30 30" xml:space="preserve">
<style type="text/css">
	.st0{fill:#E2E2E2;}
</style>
<path class="st0" d="M27.1,2.7h-6.9h-0.7h0c0-0.5,0-1-0.2-1.4c-0.2-0.6-0.5-1.1-0.8-1.5c-0.6-0.8-1.2-1.6-1.1-2.6l0,0
	c0.1-0.9,0.7-1.8,1.5-2.1c0.3-0.1,0.6-0.2,0.9-0.2c0.6,0,1.2,0.2,1.7,0.5l0,0c0.3,0.1,0.5,0.3,0.8,0.5c0.2,0.1,0.3,0.2,0.5,0.4
	c0.5,0.3,1.1,0.5,1.6,0.6c0.1,0,0.3,0,0.4,0c0.9,0,1.9-0.4,2.8-1.2c0.7-0.7,0.1-1.2-0.6-0.6c-0.7,0.6-1.5,1-2.2,1
	c-0.1,0-0.2,0-0.3,0c-0.4-0.1-0.9-0.2-1.3-0.5c-0.1-0.1-0.3-0.2-0.5-0.3c-0.3-0.2-0.6-0.4-0.9-0.6c-0.7-0.4-1.4-0.6-2.1-0.6
	c-0.4,0-0.9,0.1-1.2,0.2c-1.1,0.4-1.9,1.6-2,2.8c-0.1,0.6,0.1,1.2,0.3,1.7c0.2,0.4,0.5,0.8,0.8,1.2c0,0.1,0.1,0.1,0.1,0.2l0,0
	c0.6,0.8,0.9,1.6,0.9,2.4H2.9C2.1,2.7,1.5,3.3,1.5,4v11.6c0,0.8,0.6,1.4,1.4,1.4h24.2c0.8,0,1.4-0.6,1.4-1.4V4
	C28.5,3.3,27.9,2.7,27.1,2.7z M14.2,5.1c0-0.1,0.1-0.1,0.1-0.1h1.9c0.1,0,0.1,0.1,0.1,0.1V7c0,0.1-0.1,0.1-0.1,0.1h-1.9
	c-0.1,0-0.1-0.1-0.1-0.1V5.1z M17.7,5.1c0-0.1,0.1-0.1,0.1-0.1h1.9c0.1,0,0.1,0.1,0.1,0.1V7c0,0.1-0.1,0.1-0.1,0.1h-1.9
	c-0.1,0-0.1-0.1-0.1-0.1V5.1z M14.6,8.9v1.9c0,0.1-0.1,0.1-0.1,0.1h-1.9c-0.1,0-0.1-0.1-0.1-0.1V8.9c0-0.1,0.1-0.1,0.1-0.1h1.9
	C14.5,8.8,14.6,8.9,14.6,8.9z M10.8,5.1c0-0.1,0.1-0.1,0.1-0.1h1.9C12.9,5,13,5.1,13,5.1V7c0,0.1-0.1,0.1-0.1,0.1h-1.9
	c-0.1,0-0.1-0.1-0.1-0.1V5.1z M11.1,8.9v1.9c0,0.1-0.1,0.1-0.1,0.1H9.1c-0.1,0-0.1-0.1-0.1-0.1V8.9c0-0.1,0.1-0.1,0.1-0.1H11
	C11.1,8.8,11.1,8.9,11.1,8.9z M7.3,5.1C7.3,5.1,7.4,5,7.5,5h1.9c0.1,0,0.1,0.1,0.1,0.1V7c0,0.1-0.1,0.1-0.1,0.1H7.5
	C7.4,7.2,7.3,7.1,7.3,7V5.1z M7.7,8.9v1.9c0,0.1-0.1,0.1-0.1,0.1H5.6c-0.1,0-0.1-0.1-0.1-0.1V8.9c0-0.1,0.1-0.1,0.1-0.1h1.9
	C7.6,8.8,7.7,8.9,7.7,8.9z M3.9,5.1C3.9,5.1,3.9,5,4,5h1.9C6,5,6.1,5.1,6.1,5.1V7c0,0.1-0.1,0.1-0.1,0.1H4C3.9,7.2,3.9,7.1,3.9,7
	V5.1z M6.1,14.6c0,0.1-0.1,0.1-0.1,0.1H4c-0.1,0-0.1-0.1-0.1-0.1v-1.9c0-0.1,0.1-0.1,0.1-0.1h1.9c0.1,0,0.1,0.1,0.1,0.1V14.6z
	 M16.4,14.6c0,0.1-0.1,0.1-0.1,0.1H7.5c-0.1,0-0.1-0.1-0.1-0.1v-1.9c0-0.1,0.1-0.1,0.1-0.1h8.8c0.1,0,0.1,0.1,0.1,0.1V14.6z
	 M19.9,8.9v5.7c0,0.1-0.1,0.1-0.1,0.1h-1.9c-0.1,0-0.1-0.1-0.1-0.1V11H16c-0.1,0-0.1-0.1-0.1-0.1V8.9c0-0.1,0.1-0.1,0.1-0.1h1.8h1.8
	h0.1C19.8,8.8,19.9,8.9,19.9,8.9z M23.3,14.6c0,0.1-0.1,0.1-0.1,0.1h-1.9c-0.1,0-0.1-0.1-0.1-0.1v-1.9c0-0.1,0.1-0.1,0.1-0.1h1.9
	c0.1,0,0.1,0.1,0.1,0.1V14.6z M23.3,10.8c0,0.1-0.1,0.1-0.1,0.1h-1.9c-0.1,0-0.1-0.1-0.1-0.1V8.9c0-0.1,0.1-0.1,0.1-0.1h1.9
	c0.1,0,0.1,0.1,0.1,0.1V10.8z M23.3,7c0,0.1-0.1,0.1-0.1,0.1h-1.9c-0.1,0-0.1-0.1-0.1-0.1V5.1c0-0.1,0.1-0.1,0.1-0.1h1.9
	c0.1,0,0.1,0.1,0.1,0.1V7z M26.8,14.6c0,0.1-0.1,0.1-0.1,0.1h-1.9c-0.1,0-0.1-0.1-0.1-0.1v-1.9c0-0.1,0.1-0.1,0.1-0.1h1.9
	c0.1,0,0.1,0.1,0.1,0.1V14.6z M26.8,10.8c0,0.1-0.1,0.1-0.1,0.1h-1.9c-0.1,0-0.1-0.1-0.1-0.1V8.9c0-0.1,0.1-0.1,0.1-0.1h1.9
	c0.1,0,0.1,0.1,0.1,0.1V10.8z M26.8,7c0,0.1-0.1,0.1-0.1,0.1h-1.9c-0.1,0-0.1-0.1-0.1-0.1V5.1c0-0.1,0.1-0.1,0.1-0.1h1.9
	c0.1,0,0.1,0.1,0.1,0.1V7z"/>
<g>
	<path class="st0" d="M3.3,27.7v-8.3H7v1.8h-2v1.5H7v1.7H5.1v1.6H7v1.8H3.3z"/>
	<path class="st0" d="M10.4,27.7l-0.6-3H9.7l-0.6,3H7.4v-0.1l1.1-4.5l-0.9-3.7v-0.1h1.8l0.4,2.3h0.1l0.5-2.3h1.7v0.1l-0.9,3.7
		l1.1,4.5v0.1H10.4z"/>
	<path class="st0" d="M12.9,23.2v-1.7h1.7v1.7H12.9z M12.9,27.7v-1.7h1.7v1.7H12.9z"/>
	<path class="st0" d="M21.5,27.2c-0.1,0.1-0.2,0.2-0.3,0.3c-0.1,0.1-0.2,0.2-0.4,0.2c-0.1,0.1-0.3,0.1-0.5,0.1c-0.2,0-0.4,0-0.7,0
		c-0.5,0-0.9,0-1.2-0.1c-0.3-0.1-0.5-0.3-0.6-0.5c-0.1-0.1-0.1-0.3-0.2-0.4s-0.1-0.4-0.1-0.6c0-0.3-0.1-0.6-0.1-1s0-0.9,0-1.6
		s0-1.2,0-1.6c0-0.4,0-0.7,0.1-1c0-0.3,0.1-0.5,0.1-0.6s0.1-0.3,0.2-0.4c0.1-0.1,0.2-0.2,0.3-0.3c0.1-0.1,0.2-0.2,0.4-0.2
		c0.1-0.1,0.3-0.1,0.5-0.1c0.2,0,0.4,0,0.7,0c0.5,0,0.9,0.1,1.2,0.2c0.3,0.1,0.5,0.3,0.6,0.5c0.1,0.1,0.1,0.3,0.2,0.4
		c0.1,0.1,0.1,0.3,0.1,0.6c0,0.3,0.1,0.6,0.1,1c0,0.4,0,0.9,0,1.6s0,1.2,0,1.6s0,0.8-0.1,1c0,0.3-0.1,0.5-0.1,0.6
		C21.6,26.9,21.6,27.1,21.5,27.2z M20.1,25.8c0-0.1,0-0.1,0-0.2c0-0.1,0-0.2,0-0.4s0-0.4,0-0.7c0-0.3,0-0.6,0-1.1c0-0.5,0-0.8,0-1.1
		s0-0.5,0-0.7c0-0.2,0-0.3,0-0.4c0-0.1,0-0.1,0-0.2c0-0.1-0.1-0.1-0.1-0.2s-0.2,0-0.3,0c-0.1,0-0.2,0-0.3,0s-0.1,0.1-0.1,0.2
		c0,0.1,0,0.1,0,0.2c0,0.1,0,0.2,0,0.4c0,0.2,0,0.4,0,0.7c0,0.3,0,0.6,0,1.1c0,0.4,0,0.8,0,1.1c0,0.3,0,0.5,0,0.7s0,0.3,0,0.4
		c0,0.1,0,0.1,0,0.2c0,0.1,0.1,0.1,0.1,0.2s0.2,0,0.3,0c0.1,0,0.2,0,0.3,0S20.1,25.9,20.1,25.8z"/>
	<path class="st0" d="M26.1,27.7l-2-4.5H24v4.5h-1.6v-8.3h1.7l1.2,2.9h0.1v-2.9H27v8.3H26.1z"/>
</g>
</svg>
