<?xml version="1.0" encoding="utf-8"?>
<!-- Generator: Adobe Illustrator 20.0.0, SVG Export Plug-In . SVG Version: 6.00 Build 0)  -->
<svg version="1.1" id="Layer_1" xmlns="http://www.w3.org/2000/svg" xmlns:xlink="http://www.w3.org/1999/xlink" x="0px" y="0px"
	 viewBox="0 0 550 50" style="enable-background:new 0 0 550 50;" xml:space="preserve">
<style type="text/css">
	.st0{fill:#CC1800;}
</style>
<g>
	<path d="M27.2,48.7c-6.4,0-11.9-2.3-16.4-6.8C6.2,37.3,4,31.9,4,25.4C4,19,6.2,13.5,10.8,9c4.5-4.6,10-6.8,16.4-6.8
		c6.4,0,11.9,2.3,16.4,6.8c4.6,4.5,6.8,10,6.8,16.4c0,6.4-2.3,11.9-6.8,16.4C39.1,46.4,33.6,48.7,27.2,48.7z M27.2,15.1
		c-2.8,0-5.3,1-7.3,3c-2,2-3,4.5-3,7.3s1,5.3,3,7.3c2,2,4.5,3,7.3,3s5.3-1,7.3-3c2-2,3-4.5,3-7.3s-1-5.3-3-7.3
		C32.5,16.1,30.1,15.1,27.2,15.1z"/>
	<path d="M75,48.7c-5.7,0-10.5-2-14.5-6c-4-4-6-8.9-6-14.5v-26h12.9v26c0,2.1,0.7,3.9,2.2,5.4s3.3,2.2,5.4,2.2s3.9-0.7,5.4-2.2
		c1.5-1.5,2.2-3.3,2.2-5.4v-26h12.9v26c0,5.7-2,10.5-6,14.5C85.5,46.7,80.6,48.7,75,48.7z"/>
	<path d="M99.4,2.2h12.9v46.5H99.4V2.2z"/>
	<path d="M156.3,2.2v46.5h-11.6l-15.5-22.2v22.2h-12.9V2.2h11.7l15.5,22.2V2.2H156.3z"/>
	<path d="M183.5,48.7c-6.4,0-11.9-2.3-16.4-6.8c-4.6-4.5-6.8-10-6.8-16.4c0-6.4,2.3-11.9,6.8-16.4c4.5-4.6,10-6.8,16.4-6.8
		c6.4,0,11.9,2.3,16.4,6.8c4.6,4.5,6.8,10,6.8,16.4c0,6.4-2.3,11.9-6.8,16.4C195.4,46.4,189.9,48.7,183.5,48.7z M183.5,15.1
		c-2.8,0-5.3,1-7.3,3c-2,2-3,4.5-3,7.3s1,5.3,3,7.3c2,2,4.5,3,7.3,3s5.3-1,7.3-3c2-2,3-4.5,3-7.3s-1-5.3-3-7.3
		C188.8,16.1,186.3,15.1,183.5,15.1z"/>
</g>
<g>
	<path class="st0" d="M245.3,33.8c0.6,0,1.1,0.2,1.4,0.6c0.4,0.4,0.6,0.9,0.6,1.4V42c0,0.6-0.2,1-0.6,1.4c-0.4,0.4-0.9,0.6-1.4,0.6
		h-27.7c-0.6,0-1-0.2-1.4-0.6c-0.4-0.4-0.6-0.9-0.6-1.4V9.1c0-0.6,0.2-1.1,0.6-1.4c0.4-0.4,0.9-0.6,1.4-0.6h6.2
		c0.6,0,1.1,0.2,1.4,0.6c0.4,0.4,0.6,0.9,0.6,1.4v24.1c0,0.3,0.2,0.5,0.5,0.5H245.3z"/>
	<path class="st0" d="M263.1,38.9c-0.2,0-0.4,0.1-0.5,0.3l-1.4,3.5c-0.3,0.9-1,1.3-1.9,1.3h-6.6c-0.7,0-1.3-0.3-1.7-0.9
		c-0.4-0.6-0.5-1.2-0.2-1.9l12.8-32.9c0.3-0.9,1-1.3,1.9-1.3h9c0.9,0,1.6,0.4,1.9,1.3L289,41.3c0.3,0.7,0.2,1.3-0.2,1.9
		c-0.4,0.6-1,0.9-1.7,0.9h-6.6c-0.9,0-1.6-0.4-1.9-1.3l-1.3-3.5c-0.1-0.2-0.3-0.3-0.5-0.3H263.1z M270.5,21.6
		c-0.1-0.2-0.3-0.3-0.5-0.3c-0.2,0-0.4,0.1-0.5,0.3l-2.5,6.4c-0.1,0.2,0,0.3,0.1,0.5c0.1,0.2,0.2,0.2,0.4,0.2h4.9
		c0.2,0,0.3-0.1,0.4-0.2c0.1-0.2,0.1-0.3,0.1-0.5L270.5,21.6z"/>
	<path class="st0" d="M303.7,27.8c-0.1-0.2-0.3-0.3-0.6-0.2c-0.2,0.1-0.4,0.3-0.4,0.5V42c0,0.6-0.2,1-0.6,1.4
		c-0.4,0.4-0.9,0.6-1.4,0.6h-6.2c-0.6,0-1-0.2-1.4-0.6c-0.4-0.4-0.6-0.9-0.6-1.4V9.1c0-0.6,0.2-1.1,0.6-1.4c0.4-0.4,0.9-0.6,1.4-0.6
		h6.1c0.7,0,1.3,0.3,1.7,0.9l10.8,15.4c0.1,0.2,0.3,0.3,0.6,0.2c0.2-0.1,0.4-0.2,0.4-0.5V9.1c0-0.6,0.2-1.1,0.6-1.4
		c0.4-0.4,0.9-0.6,1.5-0.6h6.2c0.6,0,1.1,0.2,1.4,0.6c0.4,0.4,0.6,0.9,0.6,1.4V42c0,0.6-0.2,1-0.6,1.4c-0.4,0.4-0.9,0.6-1.4,0.6
		h-6.1c-0.7,0-1.3-0.3-1.7-0.9L303.7,27.8z"/>
	<path class="st0" d="M327.4,26c0-0.2,0-0.3,0-0.5s0-0.3,0-0.5v-0.1c0-0.2,0-0.3,0-0.4c0.2-4.7,2-8.8,5.4-12.1
		c3.4-3.3,7.4-5.1,12.1-5.4c0.1,0,0.3,0,0.4,0c0.1,0,0.1,0,0.1,0c0.2,0,0.3,0,0.5,0c4.3,0,8.1,1.3,11.5,4c0.4,0.4,0.7,0.8,0.7,1.4
		c0,0.6-0.2,1.1-0.6,1.5l-4.6,4.6c-0.7,0.7-1.6,0.8-2.4,0.2c-2.3-1.5-4.7-1.8-7.3-1c-0.1,0-0.1,0-0.1,0c-0.1,0-0.1,0.1-0.2,0.1
		c-0.1,0-0.2,0.1-0.2,0.1c0,0-0.1,0-0.2,0.1c-0.1,0.1-0.2,0.1-0.2,0.1c0,0,0,0-0.1,0c-2.7,1.3-4.3,3.5-4.6,6.5v0c0,0.1,0,0.2,0,0.4
		v0.1c0,0.1,0,0.3,0,0.4c0,0.1,0,0.3,0,0.4V26c0,0.1,0,0.3,0,0.4c0.2,2.1,1.1,3.8,2.7,5.2c1.6,1.4,3.4,2.1,5.5,2.1
		c2.7,0,4.9-1.1,6.6-3.3c0.1-0.2,0.1-0.4,0.1-0.5c-0.1-0.2-0.3-0.3-0.5-0.3h-1.1c-0.5,0-1-0.2-1.4-0.6s-0.6-0.8-0.6-1.4v-4.3
		c0-0.5,0.2-1,0.6-1.4c0.4-0.4,0.8-0.6,1.4-0.6h11.6c0.5,0,1,0.2,1.3,0.6c0.4,0.4,0.6,0.8,0.6,1.4v18.7c0,0.5-0.2,1-0.6,1.4
		c-0.4,0.4-0.8,0.6-1.3,0.6H356c-0.5,0-1-0.2-1.3-0.6s-0.6-0.8-0.6-1.4c-2.6,1.3-5.3,1.9-8.2,1.9c-5.1,0-9.5-1.8-13.1-5.4l0,0
		c-3.3-3.4-5.1-7.4-5.4-12.1C327.4,26.4,327.4,26.3,327.4,26L327.4,26z"/>
	<path class="st0" d="M383.8,44.1c-4.5,0-8.4-1.6-11.6-4.8c-3.2-3.2-4.8-7-4.8-11.6V9.1c0-0.6,0.2-1.1,0.6-1.4
		c0.4-0.4,0.9-0.6,1.4-0.6h6.2c0.6,0,1.1,0.2,1.4,0.6c0.4,0.4,0.6,0.9,0.6,1.4v18.6c0,1.7,0.6,3.1,1.8,4.3c1.2,1.2,2.7,1.8,4.3,1.8
		c1.7,0,3.1-0.7,4.2-1.9c1.2-1.2,1.7-2.6,1.7-4.3V9.1c0-0.6,0.2-1.1,0.6-1.4c0.4-0.4,0.9-0.6,1.4-0.6h6.2c0.6,0,1.1,0.2,1.4,0.6
		c0.4,0.4,0.6,0.9,0.6,1.4v18.4c0,4.5-1.6,8.4-4.8,11.6C392.2,42.4,388.3,44,383.8,44.1z"/>
	<path class="st0" d="M412,38.9c-0.2,0-0.4,0.1-0.5,0.3l-1.4,3.5c-0.3,0.9-1,1.3-1.9,1.3h-6.6c-0.7,0-1.3-0.3-1.7-0.9
		c-0.4-0.6-0.5-1.2-0.2-1.9l12.8-32.9c0.3-0.9,1-1.3,1.9-1.3h9c0.9,0,1.6,0.4,1.9,1.3l12.5,32.9c0.3,0.7,0.2,1.3-0.2,1.9
		c-0.4,0.6-1,0.9-1.7,0.9h-6.6c-0.9,0-1.6-0.4-1.9-1.3l-1.3-3.5c-0.1-0.2-0.3-0.3-0.5-0.3H412z M419.4,21.6
		c-0.1-0.2-0.3-0.3-0.5-0.3c-0.2,0-0.4,0.1-0.5,0.3l-2.5,6.4c-0.1,0.2,0,0.3,0.1,0.5c0.1,0.2,0.2,0.2,0.4,0.2h4.9
		c0.2,0,0.3-0.1,0.4-0.2c0.1-0.2,0.1-0.3,0.1-0.5L419.4,21.6z"/>
	<path class="st0" d="M436.1,26c0-0.2,0-0.3,0-0.5s0-0.3,0-0.5v-0.1c0-0.2,0-0.3,0-0.4c0.2-4.7,2-8.8,5.4-12.1
		c3.4-3.3,7.4-5.1,12.1-5.4c0.1,0,0.3,0,0.4,0c0.1,0,0.1,0,0.1,0c0.2,0,0.3,0,0.5,0c4.3,0,8.1,1.3,11.5,4c0.4,0.4,0.7,0.8,0.7,1.4
		c0,0.6-0.2,1.1-0.6,1.5l-4.6,4.6c-0.7,0.7-1.6,0.8-2.4,0.2c-2.3-1.5-4.7-1.8-7.3-1c-0.1,0-0.1,0-0.1,0c-0.1,0-0.1,0.1-0.2,0.1
		c-0.1,0-0.2,0.1-0.2,0.1c0,0-0.1,0-0.2,0.1c-0.1,0.1-0.2,0.1-0.2,0.1c0,0,0,0-0.1,0c-2.7,1.3-4.3,3.5-4.6,6.5v0c0,0.1,0,0.2,0,0.4
		v0.1c0,0.1,0,0.3,0,0.4c0,0.1,0,0.3,0,0.4V26c0,0.1,0,0.3,0,0.4c0.2,2.1,1.1,3.8,2.7,5.2c1.6,1.4,3.4,2.1,5.5,2.1
		c2.7,0,4.9-1.1,6.6-3.3c0.1-0.2,0.1-0.4,0.1-0.5c-0.1-0.2-0.3-0.3-0.5-0.3h-1.1c-0.5,0-1-0.2-1.4-0.6s-0.6-0.8-0.6-1.4v-4.3
		c0-0.5,0.2-1,0.6-1.4c0.4-0.4,0.8-0.6,1.4-0.6h11.6c0.5,0,1,0.2,1.3,0.6c0.4,0.4,0.6,0.8,0.6,1.4v18.7c0,0.5-0.2,1-0.6,1.4
		c-0.4,0.4-0.8,0.6-1.3,0.6h-6.4c-0.5,0-1-0.2-1.3-0.6s-0.6-0.8-0.6-1.4c-2.6,1.3-5.3,1.9-8.2,1.9c-5.1,0-9.5-1.8-13.1-5.4l0,0
		c-3.3-3.4-5.1-7.4-5.4-12.1C436.2,26.4,436.2,26.3,436.1,26L436.1,26z"/>
	<path class="st0" d="M506,33.8c0.6,0,1.1,0.2,1.4,0.6c0.4,0.4,0.6,0.9,0.6,1.4V42c0,0.6-0.2,1-0.6,1.4c-0.4,0.4-0.9,0.6-1.4,0.6
		h-27.7c-0.6,0-1-0.2-1.4-0.6c-0.4-0.4-0.6-0.9-0.6-1.4V9.1c0-0.6,0.2-1.1,0.6-1.4c0.4-0.4,0.9-0.6,1.4-0.6H506
		c0.6,0,1.1,0.2,1.4,0.6c0.4,0.4,0.6,0.9,0.6,1.4v6.2c0,0.6-0.2,1.1-0.6,1.4c-0.4,0.4-0.9,0.6-1.4,0.6h-19c-0.3,0-0.5,0.2-0.5,0.5
		V21c0,0.3,0.2,0.5,0.5,0.5h12.1c0.6,0,1.1,0.2,1.4,0.6c0.4,0.4,0.6,0.9,0.6,1.5v4.1c0,0.6-0.2,1.1-0.6,1.5
		c-0.4,0.4-0.9,0.6-1.4,0.6H487c-0.3,0-0.5,0.2-0.5,0.5v3.1c0,0.3,0.2,0.5,0.5,0.5H506z"/>
	<path class="st0" d="M523,30.7c-3.3,0-6.1-1.2-8.4-3.5c-2.3-2.3-3.5-5.1-3.4-8.4c0-3.3,1.2-6,3.5-8.3c2.3-2.3,5.1-3.4,8.4-3.4h18.4
		c0.6,0,1.1,0.2,1.4,0.6c0.4,0.4,0.6,0.9,0.6,1.4v6.2c0,0.6-0.2,1.1-0.6,1.4c-0.4,0.4-0.9,0.6-1.4,0.6H523c-0.4,0-0.8,0.2-1.1,0.5
		c-0.3,0.3-0.5,0.7-0.4,1.1c0,0.4,0.2,0.8,0.5,1c0.3,0.3,0.7,0.4,1.1,0.4h10.7c3.3,0,6.1,1.2,8.4,3.5s3.5,5.1,3.4,8.4
		c0,3.2-1.2,6-3.5,8.3s-5.1,3.4-8.4,3.4h-18.4c-0.6,0-1.1-0.2-1.4-0.6c-0.4-0.4-0.6-0.9-0.6-1.4v-6.2c0-0.6,0.2-1.1,0.6-1.4
		c0.4-0.4,0.9-0.6,1.4-0.6h18.5c0.4,0,0.8-0.2,1.1-0.5c0.3-0.3,0.4-0.7,0.4-1.1c0-0.4-0.2-0.8-0.5-1c-0.3-0.3-0.7-0.4-1.1-0.4H523z"
		/>
</g>
</svg>
