<?xml version="1.0" encoding="utf-8"?>
<!-- Generator: Adobe Illustrator 20.0.0, SVG Export Plug-In . SVG Version: 6.00 Build 0)  -->
<svg version="1.1" id="Layer_1" xmlns="http://www.w3.org/2000/svg" xmlns:xlink="http://www.w3.org/1999/xlink" x="0px" y="0px"
	 viewBox="0 0 300 300" style="enable-background:new 0 0 300 300;" xml:space="preserve">
<style type="text/css">
	.st0{fill-rule:evenodd;clip-rule:evenodd;fill:#B32926;}
	.st1{fill-rule:evenodd;clip-rule:evenodd;fill:#D12426;}
	.st2{fill-rule:evenodd;clip-rule:evenodd;fill:#FF474D;}
	.st3{fill-rule:evenodd;clip-rule:evenodd;fill:#FFA600;}
	.st4{fill-rule:evenodd;clip-rule:evenodd;fill:#FFBB00;}
	.st5{fill-rule:evenodd;clip-rule:evenodd;fill:#FFD000;}
	.st6{fill-rule:evenodd;clip-rule:evenodd;fill:#65B30B;}
	.st7{fill-rule:evenodd;clip-rule:evenodd;fill:#7ED104;}
	.st8{fill-rule:evenodd;clip-rule:evenodd;fill:#A8FF20;}
</style>
<g>
	<g>
		<polygon class="st0" points="189.9,204.6 269.7,157.5 269.7,201.1 189.9,248.2 189.9,204.6 		"/>
		<polygon class="st1" points="189.9,204.6 110,157.5 110,201.1 189.9,248.2 189.9,204.6 		"/>
		<polygon class="st0" points="189.9,161 269.7,113.9 269.7,157.5 189.9,204.6 189.9,161 		"/>
		<polygon class="st1" points="189.9,161 110,113.9 110,157.5 189.9,204.6 189.9,161 		"/>
		<polygon class="st2" points="110,113.9 153.9,88 169.6,78.7 210.3,78.8 248.3,101.3 269.7,113.9 189.9,161 110,113.9 		"/>
	</g>
	<g>
		<polygon class="st3" points="110,253.4 189.9,206.2 189.9,249.8 110,297 110,253.4 		"/>
		<polygon class="st4" points="110,253.4 30.1,206.2 30.1,249.8 110,297 110,253.4 		"/>
		<polygon class="st3" points="110,209.8 189.9,162.6 189.9,206.2 110,253.4 110,209.8 		"/>
		<polygon class="st4" points="110,209.8 30.1,162.6 30.1,206.2 110,253.4 110,209.8 		"/>
		<polygon class="st5" points="30.1,162.6 74,136.7 89.8,127.4 130.4,127.5 168.5,150 189.9,162.6 110,209.8 30.1,162.6 		"/>
	</g>
	<g>
		<polygon class="st6" points="147,143.9 226.8,96.7 226.8,140.4 147,187.5 147,143.9 		"/>
		<polygon class="st7" points="147,143.9 67.1,96.7 67.1,140.4 147,187.5 147,143.9 		"/>
		<polygon class="st6" points="147,100.3 226.8,53.1 226.8,96.8 147,143.9 147,100.3 		"/>
		<polygon class="st7" points="147,100.3 67.1,53.1 67.1,96.8 147,143.9 147,100.3 		"/>
		<polygon class="st8" points="67.1,53.1 111,27.2 126.7,17.9 146.8,6 205.4,40.5 226.8,53.1 147,100.3 67.1,53.1 		"/>
	</g>
</g>
</svg>
