<?xml version="1.0" encoding="utf-8"?>
<!-- Generator: Adobe Illustrator 15.0.0, SVG Export Plug-In . SVG Version: 6.00 Build 0)  -->
<!DOCTYPE svg PUBLIC "-//W3C//DTD SVG 1.1//EN" "http://www.w3.org/Graphics/SVG/1.1/DTD/svg11.dtd">
<svg version="1.1" id="Layer_1" xmlns="http://www.w3.org/2000/svg" xmlns:xlink="http://www.w3.org/1999/xlink" x="0px" y="0px"
	 width="90px" height="60px" viewBox="0 0 90 60" enable-background="new 0 0 90 60" xml:space="preserve">
<style type="text/css">
	.st0{fill:#FFFFFF;stroke:#C1C1C1;stroke-width:0.5;stroke-miterlimit:10;}
</style>
<g id="Layer_1_1_">
</g>
<g>
	<path class="st0" d="M14.5,47h4v3.8c-0.9-0.2-1.8-0.7-2.6-1.6c-1-1-1.4-1.6-1.4-2C14.4,47.1,14.5,47,14.5,47z"/>
	<g>
		<g>
			<path class="st0" d="M61.3,11.8l6.2,1.4l0.2,0.1c0.1,0.1,0.2,0.1,0.3,0.2c0.1,0.2,0.1,0.3,0.1,0.4l-0.2,1.4
				c-1.1,6.5-2.8,13.6-5,21.4c-1.4,5-3.6,12-6.6,21c-0.1,0.3-0.3,0.6-0.6,0.9c-0.3,0.2-0.6,0.3-0.9,0.3c-1.1-0.1-2.1-0.2-3.2-0.4
				l-2.3-0.3c-3-0.4-5.9-1-8.8-1.5l-2.4-0.5c-3.1-0.7-6.4-1.5-9.9-2.4l-2.5-0.7c-2.7-0.8-4.9-1.4-6.6-1.9l-1.3-0.4v0
				c1.4-6.4,3.4-13.8,6.1-22c0.7-2.1,3.1-9.3,7.3-21.6l1.2,0.1c1.7,0.1,3.7,0.3,6,0.6c0.3,0,1.1,0.1,2.4,0.3
				c2.3,0.3,5.4,0.8,9.3,1.4l2.5,0.5C54.9,10.5,57.8,11.1,61.3,11.8z"/>
		</g>
		<g>
			<path class="st0" d="M66.8,13.4c-1.1,6.7-2.7,14.2-5,22.4c-1.4,4.9-3.6,12.2-6.6,21.9l-0.1-0.1l-0.1,0l-0.1,0l0,0l-0.2-0.1
				l-0.1-0.1l-0.3-0.2l0,0L54.3,57v0h0l0,0l-0.1-0.1l0-0.1l0,0h0l-0.1-0.1h0v0l0,0l0,0l0-0.1l0,0l0-0.1l0,0v0h0l0-0.1l0,0l0,0l0-0.1
				l0,0l0,0v0l-0.1-0.2v-0.3l0,0v0l0-0.2l0-0.1c3.1-10.2,5.3-17.8,6.5-22.6c2.2-8.4,3.8-16,4.7-22.8c0,0.1,0,0.2,0,0.3l0,0l0,0.4v0
				l0.1,0.4l0,0l0.2,0.4l0.4,0.7l0,0l0.2,0.2L66.8,13.4z"/>
			<path class="st0" d="M33.2,4.2c1.6,0.1,3,0.2,4.3,0.4c1.2,0.1,2.7,0.3,4.4,0.5c1.3,0.2,2.8,0.4,4.5,0.6c1.3,0.2,2.8,0.5,4.5,0.8
				c1.3,0.2,2.9,0.5,4.6,0.9c0.9,0.2,2.5,0.5,4.7,1c1,0.2,2.6,0.6,4.8,1.2c-1,6.9-2.5,14.6-4.8,23c-1.3,4.8-3.4,12.4-6.5,22.6
				c-1.6-0.2-3.2-0.4-4.9-0.7c-1.9-0.3-3.5-0.6-4.9-0.8c-1.1-0.2-2.7-0.5-4.9-0.9c-1-0.2-2.6-0.5-4.8-1c-2.2-0.5-3.8-0.9-4.9-1.1
				c-1.6-0.4-3.2-0.8-4.8-1.2c-2.1-0.5-3.7-1-4.8-1.2L14.9,47c1.5-6.3,3.7-13.6,6.4-21.7c0.5-1.3,3-8.4,7.7-21.3
				C30.3,4,31.8,4.1,33.2,4.2z"/>
			<path class="st0" d="M29.2,50.6c1.1,0.3,2.7,0.6,4.9,1.1c2.3,0.5,3.9,0.8,4.8,1c2.2,0.4,3.8,0.7,4.9,0.9c1.4,0.3,3,0.5,4.9,0.8
				c1.7,0.3,3.3,0.5,4.9,0.7c-0.1,0.2-0.1,0.4-0.1,0.6c0,0.2,0.1,0.4,0.2,0.6c0.1,0.2,0.3,0.4,0.5,0.6c0.2,0.2,0.5,0.4,0.9,0.7
				c-1.5-0.1-3.1-0.3-4.7-0.5c-1.4-0.2-3-0.4-4.7-0.7c-1.7-0.3-3.2-0.6-4.7-0.8l-4.6-1c-1-0.2-2.6-0.6-4.6-1.1l-4.6-1.2
				c-1-0.3-2.6-0.7-4.6-1.2c-1-0.3-2.6-0.7-4.6-1.3c-0.1-0.2-0.2-0.5-0.3-0.6c-0.2-0.2-0.4-0.4-0.6-0.6c-0.3-0.3-0.6-0.5-0.9-0.7
				c-0.3-0.2-0.8-0.5-1.4-1l4.7,1.3c1.1,0.3,2.7,0.7,4.8,1.2C26.1,49.9,27.7,50.3,29.2,50.6z"/>
		</g>
	</g>
	<path class="st0" d="M28.2,2.7l7.1,0.6c-2.5,6.1-5,13.8-7.7,23.4c-2.7,9.4-5.1,16.8-7.3,22.1l-6.2-1.6c1.6-6.5,3.1-12,4.6-16.3
		C20.1,26.4,23.3,17.1,28.2,2.7z"/>
	<path class="st0" d="M64.1,6.9C63.1,13.7,61.3,21.5,59,30c-1.2,4.6-3.5,12.2-6.8,22.7c-0.1,0.3-0.3,0.6-0.6,0.8
		c-0.3,0.3-0.6,0.4-0.9,0.4c-3.3-0.5-6.5-0.9-9.6-1.3c-4.4-0.7-9.1-1.6-14.1-2.6L19,48.4L33.7,3.2c9,0,16.8,0.4,23.6,1.3
		c2.1,0.3,4.1,0.7,5.8,1c0.4,0,0.6,0.1,0.8,0.4C64,6.2,64.1,6.5,64.1,6.9z"/>
</g>
<g>
	<g>
		<g>
			<path class="st0" d="M77.6,46.9c-0.3,0.2-0.9,0.3-1.8,0.4c-1,0-1.8-0.2-2.4-0.5c-0.4-0.3-0.7-0.7-0.9-1.2
				c-0.1-0.4-0.1-0.8-0.1-1.4L71,42.5c-0.6-0.1-1-0.3-1.3-0.4c-0.5-0.2-0.8-0.5-1-0.9c-0.2-0.4-0.2-0.8,0-1.2L67.9,39
				c-0.6,0-1,0-1.2-0.1c-0.4-0.1-0.7-0.3-0.8-0.7c-0.2-0.9-0.4-1.5-0.6-1.9c-0.4-0.7-1-1.1-1.8-1.1c-0.5,0-0.8-0.4-0.9-1.2
				c-0.2-1-0.5-1.7-1-2.1c-0.6-0.5-1.4-0.5-2.3-0.1c-0.9,0.4-1.3,0.6-1.3,0.5c-0.1-0.1-0.2-0.6-0.4-1.5c-0.2-1.1-0.4-1.9-0.6-2.4
				c-1.7,0.8-3.5,0.9-5.3,0.5c-1.9-0.4-3.4-1.3-4.7-2.7c-1.6-1.8-2.4-3.9-2.2-6.3s1.1-4.4,2.9-6.1c1.8-1.6,3.9-2.4,6.3-2.2
				c2.4,0.1,4.4,1.1,6.1,2.9c1.2,1.3,1.9,2.9,2.2,4.7c0.2,1.7,0,3.4-0.8,4.9l17.1,18.9c0.4,0.4,0.6,0.9,0.6,1.5
				c0,0.6-0.2,1.1-0.5,1.5C78.2,46.5,78,46.8,77.6,46.9z"/>
			<path class="st0" d="M50.9,18.3c-0.3,0.3-0.6,0.4-1,0.4c-0.4,0-0.7-0.2-1-0.4c-0.3-0.3-0.4-0.6-0.3-1c0-0.4,0.2-0.7,0.5-1
				c0.3-0.3,0.6-0.4,1-0.4c0.4,0,0.7,0.2,1,0.4c0.3,0.3,0.4,0.6,0.4,1C51.3,17.7,51.2,18,50.9,18.3z"/>
		</g>
	</g>
</g>
</svg>
