<?xml version="1.0" encoding="utf-8"?>
<!-- Generator: Adobe Illustrator 16.0.0, SVG Export Plug-In . SVG Version: 6.00 Build 0)  -->
<!DOCTYPE svg PUBLIC "-//W3C//DTD SVG 1.1//EN" "http://www.w3.org/Graphics/SVG/1.1/DTD/svg11.dtd">
<svg version="1.1" id="Layer_1" xmlns="http://www.w3.org/2000/svg" xmlns:xlink="http://www.w3.org/1999/xlink" x="0px" y="0px"
	 width="30px" height="30px" viewBox="0 0 30 30" enable-background="new 0 0 30 30" xml:space="preserve">
<g>
	<path fill-rule="evenodd" clip-rule="evenodd" fill="#666666" d="M1.342,22.533H3.31v1.878c-0.43-0.082-0.861-0.34-1.292-0.771
		c-0.472-0.472-0.708-0.8-0.708-0.981C1.311,22.614,1.321,22.575,1.342,22.533z"/>
	<g>
		<g>
			
				<radialGradient id="SVGID_1_" cx="21.1094" cy="6.8218" r="25.2489" gradientTransform="matrix(0.8359 0 0 0.8301 4.7759 22.3768)" gradientUnits="userSpaceOnUse">
				<stop  offset="0" style="stop-color:#0057CF"/>
				<stop  offset="0.0627" style="stop-color:#003FAC"/>
				<stop  offset="0.149" style="stop-color:#001387"/>
				<stop  offset="0.2353" style="stop-color:#00036C"/>
				<stop  offset="0.3294" style="stop-color:#000358"/>
				<stop  offset="0.4275" style="stop-color:#09004B"/>
				<stop  offset="0.5294" style="stop-color:#040042"/>
				<stop  offset="0.6471" style="stop-color:#04003D"/>
				<stop  offset="0.8078" style="stop-color:#07003B"/>
			</radialGradient>
			<path fill-rule="evenodd" clip-rule="evenodd" fill="url(#SVGID_1_)" d="M24.337,5.201l3.043,0.704l0.087,0.029
				c0.058,0.028,0.101,0.062,0.129,0.101c0.048,0.076,0.067,0.144,0.061,0.2l-0.104,0.688c-0.544,3.184-1.359,6.684-2.443,10.508
				c-0.693,2.435-1.765,5.87-3.216,10.298c-0.053,0.17-0.153,0.311-0.302,0.427c-0.156,0.107-0.31,0.155-0.465,0.143
				c-0.521-0.053-1.034-0.111-1.547-0.18l-1.139-0.158c-1.472-0.22-2.908-0.473-4.31-0.761l-1.178-0.25
				c-1.527-0.351-3.147-0.744-4.857-1.179l-1.208-0.322c-1.345-0.375-2.428-0.681-3.253-0.919l-0.614-0.181v-0.006
				C3.71,21.18,4.703,17.58,6,13.541c0.328-1.028,1.526-4.567,3.592-10.615l0.593,0.042c0.854,0.067,1.833,0.166,2.942,0.295
				c0.144,0.015,0.544,0.065,1.199,0.15C15.473,3.562,17,3.799,18.908,4.125l1.216,0.222C21.213,4.547,22.615,4.833,24.337,5.201z"
				/>
		</g>
		<g>
			
				<radialGradient id="SVGID_2_" cx="30.3174" cy="0.7622" r="20.2318" gradientTransform="matrix(0.8359 0 0 0.8301 4.7759 22.0267)" gradientUnits="userSpaceOnUse">
				<stop  offset="0" style="stop-color:#FFFFFF"/>
				<stop  offset="0.2157" style="stop-color:#FBFBFB"/>
				<stop  offset="0.3686" style="stop-color:#F2F2F3"/>
				<stop  offset="0.5059" style="stop-color:#E5E6E7"/>
				<stop  offset="0.6314" style="stop-color:#D3D4D6"/>
				<stop  offset="0.749" style="stop-color:#BCBDC0"/>
				<stop  offset="0.8588" style="stop-color:#A0A2A5"/>
				<stop  offset="0.9647" style="stop-color:#838587"/>
				<stop  offset="1" style="stop-color:#787A7C"/>
			</radialGradient>
			<path fill-rule="evenodd" clip-rule="evenodd" fill="url(#SVGID_2_)" d="M26.078,4.395l-0.007,0.007l0.014,0.214v0.008
				l0.044,0.201l0.007,0.007l0.081,0.208l0.123,0.215l0.007,0.008l0.069,0.106l0.01,0.007l0.079,0.108L26.52,5.5l0.484,0.545
				c-0.516,3.306-1.326,6.967-2.429,10.981c-0.665,2.406-1.751,5.995-3.259,10.764l-0.058-0.041l-0.029-0.014l-0.028-0.021
				l-0.01-0.01l-0.079-0.057l-0.026-0.028l-0.053-0.036l-0.072-0.057l-0.007-0.009l-0.087-0.07v-0.009H20.86l-0.007-0.007
				l-0.043-0.034l-0.022-0.029l-0.007-0.007h-0.007l-0.058-0.066h-0.01v-0.006l-0.015-0.022l-0.021-0.021l-0.019-0.029l-0.024-0.019
				l-0.015-0.031l-0.015-0.014v-0.006h-0.007l-0.015-0.031l-0.005-0.019l-0.014-0.023l-0.017-0.028l-0.008-0.021l-0.007-0.014
				v-0.016l-0.029-0.113v-0.158l0.01-0.008v-0.008l0.012-0.099l0.022-0.06c1.522-5.021,2.597-8.723,3.215-11.097
				c1.077-4.108,1.854-7.848,2.328-11.216C26.083,4.281,26.078,4.334,26.078,4.395z"/>
			
				<radialGradient id="SVGID_3_" cx="10.8047" cy="-10.4004" r="20.5389" gradientTransform="matrix(0.8359 0 0 0.8301 4.7759 22.0267)" gradientUnits="userSpaceOnUse">
				<stop  offset="0" style="stop-color:#FFFFFF"/>
				<stop  offset="0.2157" style="stop-color:#FBFBFB"/>
				<stop  offset="0.3686" style="stop-color:#F2F2F3"/>
				<stop  offset="0.5059" style="stop-color:#E5E6E7"/>
				<stop  offset="0.6314" style="stop-color:#D3D4D6"/>
				<stop  offset="0.749" style="stop-color:#BCBDC0"/>
				<stop  offset="0.8588" style="stop-color:#A0A2A5"/>
				<stop  offset="0.9647" style="stop-color:#838587"/>
				<stop  offset="1" style="stop-color:#787A7C"/>
			</radialGradient>
			<path fill-rule="evenodd" clip-rule="evenodd" fill="url(#SVGID_3_)" d="M26.093,4.157c-0.473,3.388-1.249,7.153-2.336,11.295
				c-0.618,2.374-1.692,6.075-3.215,11.097c-0.789-0.091-1.595-0.198-2.415-0.32c-0.914-0.142-1.712-0.271-2.392-0.396
				c-0.534-0.093-1.332-0.242-2.392-0.453c-0.473-0.095-1.265-0.262-2.378-0.502c-1.059-0.239-1.854-0.424-2.384-0.554
				c-0.766-0.175-1.557-0.369-2.372-0.583c-1.045-0.267-1.832-0.467-2.355-0.602l-2.329-0.623c0.744-3.11,1.796-6.656,3.16-10.645
				c0.227-0.66,1.479-4.146,3.758-10.456C9.128,1.44,9.816,1.475,10.51,1.523c0.776,0.057,1.479,0.117,2.11,0.18
				c0.598,0.053,1.315,0.133,2.154,0.244c0.632,0.081,1.361,0.187,2.19,0.315c0.636,0.101,1.375,0.227,2.22,0.381
				c0.649,0.119,1.4,0.267,2.254,0.445c0.448,0.09,1.216,0.258,2.307,0.501C24.258,3.71,25.042,3.899,26.093,4.157z"/>
			
				<radialGradient id="SVGID_4_" cx="21.1709" cy="8.085" r="24.4294" gradientTransform="matrix(0.8359 0 0 0.8301 4.7759 22.0267)" gradientUnits="userSpaceOnUse">
				<stop  offset="0" style="stop-color:#FFFFFF"/>
				<stop  offset="0.2157" style="stop-color:#FBFBFB"/>
				<stop  offset="0.3686" style="stop-color:#F2F2F3"/>
				<stop  offset="0.5059" style="stop-color:#E5E6E7"/>
				<stop  offset="0.6314" style="stop-color:#D3D4D6"/>
				<stop  offset="0.749" style="stop-color:#BCBDC0"/>
				<stop  offset="0.8588" style="stop-color:#A0A2A5"/>
				<stop  offset="0.9647" style="stop-color:#838587"/>
				<stop  offset="1" style="stop-color:#787A7C"/>
			</radialGradient>
			<path fill-rule="evenodd" clip-rule="evenodd" fill="url(#SVGID_4_)" d="M5.356,24.597c-0.501-0.133-1.252-0.343-2.255-0.631
				c-0.042-0.118-0.098-0.226-0.166-0.316c-0.082-0.109-0.176-0.211-0.282-0.307c-0.141-0.13-0.289-0.251-0.448-0.361
				c-0.149-0.109-0.376-0.266-0.681-0.465l2.329,0.623c0.524,0.135,1.31,0.335,2.355,0.602c0.814,0.214,1.605,0.408,2.372,0.583
				c0.53,0.13,1.325,0.314,2.384,0.554c1.113,0.24,1.906,0.407,2.378,0.502c1.061,0.211,1.858,0.36,2.392,0.453
				c0.68,0.124,1.478,0.254,2.392,0.396c0.82,0.122,1.626,0.229,2.415,0.32c-0.034,0.116-0.049,0.222-0.044,0.316
				c0.005,0.09,0.039,0.185,0.101,0.281c0.065,0.099,0.154,0.198,0.269,0.292c0.097,0.092,0.245,0.209,0.449,0.352
				c-0.748-0.07-1.511-0.155-2.293-0.258c-0.7-0.092-1.461-0.201-2.29-0.335c-0.819-0.141-1.584-0.279-2.291-0.417l-2.284-0.474
				c-0.501-0.112-1.258-0.286-2.271-0.525l-2.27-0.573C7.113,25.078,6.359,24.876,5.356,24.597z"/>
		</g>
	</g>
	
		<linearGradient id="SVGID_5_" gradientUnits="userSpaceOnUse" x1="-579.3394" y1="-287.6875" x2="-577.9214" y2="-287.6875" gradientTransform="matrix(-0.8074 -0.215 0.2165 -0.8017 -381.5151 -333.1091)">
		<stop  offset="0" style="stop-color:#EE3338"/>
		<stop  offset="1" style="stop-color:#6C2524"/>
	</linearGradient>
	<path fill-rule="evenodd" clip-rule="evenodd" fill="url(#SVGID_5_)" d="M23.717,19.837l0.757,0.244
		c-0.381,1.304-0.755,2.538-1.119,3.712l-0.911,0.069C22.925,22.371,23.35,21.029,23.717,19.837z"/>
	
		<linearGradient id="SVGID_6_" gradientUnits="userSpaceOnUse" x1="-578.9961" y1="-283.5977" x2="-577.6572" y2="-283.5977" gradientTransform="matrix(-0.8075 -0.2145 0.2161 -0.8019 -381.6254 -333.0179)">
		<stop  offset="0" style="stop-color:#C0D848"/>
		<stop  offset="1" style="stop-color:#748635"/>
	</linearGradient>
	<path fill-rule="evenodd" clip-rule="evenodd" fill="url(#SVGID_6_)" d="M24.373,16.385l0.772,0.266
		c-0.298,1.134-0.641,2.355-1.024,3.668l-0.928,0.044C23.651,18.863,24.047,17.538,24.373,16.385z"/>
	
		<linearGradient id="SVGID_7_" gradientUnits="userSpaceOnUse" x1="-587.3379" y1="-244.0264" x2="-585.8682" y2="-244.0264" gradientTransform="matrix(-0.7793 -0.3003 0.3024 -0.7739 -358.2928 -350.0673)">
		<stop  offset="0" style="stop-color:#AA66A8"/>
		<stop  offset="1" style="stop-color:#44285A"/>
	</linearGradient>
	<path fill-rule="evenodd" clip-rule="evenodd" fill="url(#SVGID_7_)" d="M25.124,12.775l0.781,0.294
		c-0.251,1.105-0.547,2.306-0.89,3.604l-0.939,0.013C24.481,15.267,24.831,13.961,25.124,12.775z"/>
	
		<linearGradient id="SVGID_8_" gradientUnits="userSpaceOnUse" x1="-578.6309" y1="-275.5708" x2="-576.7955" y2="-275.5708" gradientTransform="matrix(-0.808 -0.2128 0.2143 -0.8023 -382.0757 -332.65)">
		<stop  offset="0" style="stop-color:#B1E0E5"/>
		<stop  offset="1" style="stop-color:#007189"/>
	</linearGradient>
	<path fill-rule="evenodd" clip-rule="evenodd" fill="url(#SVGID_8_)" d="M25.704,9.344l0.786,0.324
		c-0.203,1.09-0.448,2.27-0.738,3.538l-0.938-0.015C25.155,11.827,25.452,10.546,25.704,9.344z"/>
	
		<linearGradient id="SVGID_9_" gradientUnits="userSpaceOnUse" x1="-814.6045" y1="-462.7676" x2="-808.7542" y2="-462.7676" gradientTransform="matrix(-0.2373 -0.0653 0.0653 -0.2373 -136.1162 -154.9099)">
		<stop  offset="0" style="stop-color:#FFF215"/>
		<stop  offset="1" style="stop-color:#F89734"/>
	</linearGradient>
	<path fill-rule="evenodd" clip-rule="evenodd" fill="url(#SVGID_9_)" d="M26.136,5.88l0.779,0.36
		c-0.146,1.153-0.328,2.309-0.549,3.466l-0.924-0.064C25.707,8.398,25.939,7.145,26.136,5.88z"/>
	
		<linearGradient id="SVGID_10_" gradientUnits="userSpaceOnUse" x1="-464.1167" y1="-202.5918" x2="-456.0765" y2="-202.5918" gradientTransform="matrix(-0.9927 -0.0233 0.1055 -4.3336 -425.2676 -876.4807)">
		<stop  offset="0.298" style="stop-color:#FFFFFF"/>
		<stop  offset="1" style="stop-color:#373535"/>
	</linearGradient>
	<path fill-rule="evenodd" clip-rule="evenodd" fill="url(#SVGID_10_)" d="M8.064,0.804l3.466,0.3
		c-1.214,2.982-2.471,6.8-3.771,11.454c-1.3,4.646-2.5,8.265-3.6,10.854l-3.039-0.789c0.784-3.198,1.533-5.874,2.248-8.022
		C4.084,12.451,5.65,7.853,8.064,0.804z"/>
	
		<radialGradient id="SVGID_11_" cx="-382.752" cy="7.2041" r="9.5814" gradientTransform="matrix(3.4055 1.0304 -1.0245 3.3859 1332.6083 403.2715)" gradientUnits="userSpaceOnUse">
		<stop  offset="0" style="stop-color:#006ECF"/>
		<stop  offset="0.1412" style="stop-color:#003EC8"/>
		<stop  offset="0.3529" style="stop-color:#0038B5"/>
		<stop  offset="0.6118" style="stop-color:#001E98"/>
		<stop  offset="0.9059" style="stop-color:#001D74"/>
		<stop  offset="1" style="stop-color:#070068"/>
	</radialGradient>
	<path fill-rule="evenodd" clip-rule="evenodd" fill="url(#SVGID_11_)" d="M25.193,2.175c0.183,0,0.307,0.072,0.367,0.216
		c0.105,0.123,0.155,0.267,0.155,0.431c-0.534,3.384-1.374,7.167-2.522,11.352c-0.595,2.256-1.712,5.979-3.354,11.167
		c-0.06,0.163-0.163,0.296-0.307,0.4c-0.163,0.122-0.319,0.186-0.461,0.186c-1.62-0.228-3.19-0.443-4.707-0.647
		c-2.154-0.35-4.462-0.77-6.923-1.261l-3.876-0.801l7.199-22.18c4.409,0,8.267,0.214,11.568,0.646
		C23.378,1.847,24.333,2.011,25.193,2.175z"/>
</g>
<g>
	<g>
		<g>
			
				<linearGradient id="SVGID_12_" gradientUnits="userSpaceOnUse" x1="-369.8462" y1="138.1465" x2="-339.2704" y2="138.1465" gradientTransform="matrix(0.683 0.3499 -0.3502 0.6831 313.0826 44.271)">
				<stop  offset="0.0039" style="stop-color:#C57D1C"/>
				<stop  offset="0.2275" style="stop-color:#E1A236"/>
				<stop  offset="0.4941" style="stop-color:#FFCA53"/>
				<stop  offset="1" style="stop-color:#A26300"/>
			</linearGradient>
			<path fill-rule="evenodd" clip-rule="evenodd" fill="url(#SVGID_12_)" d="M29.378,21.895c0.012,0.248-0.075,0.479-0.264,0.688
				c-0.092,0.18-0.192,0.299-0.308,0.363c-0.169,0.115-0.478,0.189-0.927,0.229c-0.528,0.041-0.928-0.023-1.196-0.205
				c-0.216-0.145-0.354-0.336-0.418-0.578c-0.05-0.17-0.057-0.395-0.028-0.67l-0.74-0.82c-0.29-0.068-0.508-0.137-0.649-0.209
				c-0.226-0.109-0.383-0.25-0.475-0.432c-0.106-0.199-0.099-0.395,0.023-0.582l-0.402-0.447c-0.296,0.008-0.491-0.002-0.592-0.027
				c-0.19-0.043-0.322-0.145-0.396-0.311c-0.101-0.422-0.195-0.729-0.287-0.93c-0.164-0.352-0.458-0.52-0.879-0.508
				c-0.244,0.01-0.395-0.178-0.449-0.562c-0.072-0.484-0.234-0.825-0.488-1.021c-0.309-0.234-0.682-0.243-1.124-0.028
				c-0.426,0.213-0.648,0.308-0.668,0.287c-0.035-0.039-0.092-0.292-0.174-0.755c-0.097-0.523-0.192-0.903-0.294-1.141
				c-0.834,0.378-1.702,0.48-2.6,0.308c-0.91-0.173-1.672-0.603-2.29-1.288c-0.782-0.867-1.133-1.891-1.053-3.073
				C12.783,9,13.274,8.003,14.17,7.193c0.9-0.811,1.942-1.196,3.124-1.156c1.188,0.04,2.168,0.494,2.951,1.359
				c0.58,0.644,0.924,1.399,1.029,2.266c0.105,0.842-0.033,1.65-0.411,2.427l8.23,9.123C29.279,21.42,29.376,21.646,29.378,21.895z"
				/>
			
				<linearGradient id="SVGID_13_" gradientUnits="userSpaceOnUse" x1="-46.7134" y1="65.9082" x2="-17.6482" y2="65.9082" gradientTransform="matrix(0.056 0.7654 -0.7655 0.0562 73.3288 35.8066)">
				<stop  offset="0.0039" style="stop-color:#C57D1C"/>
				<stop  offset="0.0941" style="stop-color:#E1A236"/>
				<stop  offset="0.2039" style="stop-color:#FFCA53"/>
				<stop  offset="0.4" style="stop-color:#FFFF9E"/>
				<stop  offset="0.6902" style="stop-color:#FFC54B"/>
				<stop  offset="1" style="stop-color:#A26300"/>
			</linearGradient>
			<path fill-rule="evenodd" clip-rule="evenodd" fill="url(#SVGID_13_)" d="M29.446,21.877c0.007,0.273-0.078,0.516-0.257,0.725
				c-0.077,0.127-0.194,0.232-0.353,0.314c-0.157,0.104-0.446,0.162-0.867,0.18c-0.486,0.002-0.865-0.084-1.136-0.266
				c-0.216-0.145-0.357-0.332-0.425-0.568c-0.048-0.17-0.06-0.393-0.036-0.664l-0.74-0.82c-0.282-0.066-0.496-0.139-0.644-0.217
				c-0.222-0.107-0.379-0.248-0.473-0.428c-0.11-0.197-0.106-0.391,0.014-0.576l-0.402-0.447c-0.289,0-0.483-0.01-0.583-0.037
				c-0.186-0.047-0.313-0.152-0.388-0.316c-0.11-0.412-0.209-0.715-0.303-0.912c-0.17-0.348-0.459-0.521-0.87-0.518
				c-0.237,0.002-0.388-0.186-0.449-0.563c-0.077-0.479-0.242-0.818-0.496-1.014c-0.306-0.232-0.677-0.247-1.107-0.041
				c-0.411,0.195-0.627,0.284-0.646,0.263c-0.032-0.036-0.096-0.283-0.19-0.739c-0.099-0.517-0.199-0.895-0.298-1.134
				c-0.82,0.364-1.672,0.452-2.554,0.265c-0.891-0.188-1.647-0.624-2.266-1.311c-0.783-0.865-1.145-1.881-1.084-3.043
				c0.059-1.163,0.524-2.137,1.39-2.917c0.867-0.783,1.881-1.144,3.044-1.084c1.164,0.059,2.135,0.522,2.918,1.388
				c0.58,0.644,0.933,1.392,1.055,2.245c0.115,0.832-0.007,1.627-0.366,2.384l8.23,9.121C29.352,21.354,29.446,21.598,29.446,21.877
				z"/>
			
				<linearGradient id="SVGID_14_" gradientUnits="userSpaceOnUse" x1="-290.3872" y1="-522.5283" x2="-281.5016" y2="-522.5283" gradientTransform="matrix(-0.4968 -0.5849 0.585 -0.497 180.4003 -417.2122)">
				<stop  offset="0.0039" style="stop-color:#C57D1C"/>
				<stop  offset="0.1843" style="stop-color:#DF9D31"/>
				<stop  offset="0.4314" style="stop-color:#FFC54B"/>
				<stop  offset="1" style="stop-color:#A26300"/>
			</linearGradient>
			<path fill-rule="evenodd" clip-rule="evenodd" fill="url(#SVGID_14_)" d="M20.158,10.253c-0.325,0.622-0.816,1.232-1.47,1.833
				c-0.665,0.6-1.31,1.019-1.938,1.255c-0.69,0.259-1.208,0.229-1.554-0.088c-0.905-0.821-1.434-1.729-1.587-2.719
				c-0.174-1.125,0.193-2.112,1.103-2.963c0.917-0.854,1.986-1.125,3.207-0.809c1.116,0.286,1.928,0.898,2.438,1.836
				C20.578,9.014,20.513,9.566,20.158,10.253z"/>
			
				<linearGradient id="SVGID_15_" gradientUnits="userSpaceOnUse" x1="-237.2998" y1="-522.4072" x2="-218.1813" y2="-522.4072" gradientTransform="matrix(-0.588 -0.4931 0.4933 -0.5881 139.7192 -410.3117)">
				<stop  offset="0.0039" style="stop-color:#C57D1C"/>
				<stop  offset="0.0941" style="stop-color:#E1A236"/>
				<stop  offset="0.2039" style="stop-color:#FFCA53"/>
				<stop  offset="0.4" style="stop-color:#FFFF9E"/>
				<stop  offset="0.6902" style="stop-color:#FFC54B"/>
				<stop  offset="1" style="stop-color:#A26300"/>
			</linearGradient>
			<path fill-rule="evenodd" clip-rule="evenodd" fill="url(#SVGID_15_)" d="M20.12,10.258c-0.331,0.617-0.822,1.22-1.477,1.811
				c-0.655,0.6-1.29,1.019-1.906,1.256c-0.682,0.269-1.189,0.25-1.525-0.055c-0.865-0.79-1.373-1.683-1.521-2.679
				c-0.164-1.124,0.202-2.104,1.096-2.94c0.926-0.865,1.991-1.14,3.192-0.825c1.079,0.289,1.866,0.894,2.36,1.816
				C20.558,9.044,20.484,9.582,20.12,10.258z"/>
			<path fill-rule="evenodd" clip-rule="evenodd" d="M15.952,9.072c-0.139,0.125-0.301,0.185-0.489,0.18
				c-0.19-0.01-0.35-0.083-0.475-0.217c-0.125-0.139-0.181-0.302-0.165-0.49c0.008-0.191,0.083-0.35,0.222-0.474
				c0.144-0.13,0.313-0.19,0.505-0.181c0.188,0.005,0.344,0.077,0.468,0.216c0.125,0.134,0.184,0.297,0.175,0.49
				C16.176,8.784,16.098,8.943,15.952,9.072z"/>
		</g>
	</g>
	<g>
		
			<linearGradient id="SVGID_16_" gradientUnits="userSpaceOnUse" x1="-940.9795" y1="-3.0298" x2="-908.4307" y2="-3.0298" gradientTransform="matrix(0.2466 -0.1659 0.1659 0.2466 237.5616 -133.6439)">
			<stop  offset="0" style="stop-color:#C90000"/>
			<stop  offset="0.2039" style="stop-color:#A80000"/>
			<stop  offset="0.4824" style="stop-color:#990000"/>
			<stop  offset="0.5765" style="stop-color:#C70000"/>
			<stop  offset="0.6314" style="stop-color:#D42028"/>
			<stop  offset="1" style="stop-color:#D10000"/>
		</linearGradient>
		<path fill-rule="evenodd" clip-rule="evenodd" fill="url(#SVGID_16_)" d="M10.279,15.437c-0.002-0.239-0.073-0.434-0.214-0.588
			c-0.171-0.191-0.401-0.283-0.687-0.274c-0.276,0.01-0.526,0.108-0.748,0.302c-0.22,0.191-0.356,0.423-0.415,0.696
			c-0.058,0.274-0.009,0.522,0.149,0.739c0.162,0.224,0.384,0.338,0.667,0.34l0.03,0.002L10.279,15.437z M8.489,13.7
			c0.091-0.018,0.229-0.038,0.413-0.061l0.858-0.141c0.204-0.033,0.334-0.05,0.397-0.052c0.15-0.006,0.28,0.019,0.388,0.074
			c0.108,0.051,0.268,0.167,0.487,0.349l0.393,0.331l0.049-0.054l0.421,0.478c0.224,0.245,0.339,0.494,0.339,0.746l-0.062,6.722
			c0,0.17-0.035,0.326-0.105,0.471c-0.073,0.15-0.179,0.273-0.315,0.369c-0.11,0.08-0.247,0.135-0.409,0.164
			c-0.078,0.014-0.224,0.027-0.442,0.043l-3.676,0.279c-0.178,0.018-0.313,0.033-0.406,0.037c-0.159,0.01-0.292-0.008-0.399-0.043
			c-0.102-0.037-0.189-0.096-0.265-0.174l-0.5-0.594l0.324-0.703l0.248-5.736c0.01-0.184,0.075-0.375,0.192-0.574
			c0.084-0.139,0.208-0.301,0.371-0.486l0.533-0.602c0.075-0.086,0.192-0.219,0.351-0.399c0.146-0.151,0.287-0.26,0.421-0.325
			C8.2,13.767,8.331,13.728,8.489,13.7z"/>
		
			<linearGradient id="SVGID_17_" gradientUnits="userSpaceOnUse" x1="-917.1758" y1="4.7363" x2="-909.1167" y2="4.7363" gradientTransform="matrix(0.2511 -0.159 0.159 0.2511 237.4516 -131.0499)">
			<stop  offset="0" style="stop-color:#696969"/>
			<stop  offset="0.3137" style="stop-color:#464646"/>
			<stop  offset="0.5608" style="stop-color:#696969"/>
			<stop  offset="0.6314" style="stop-color:#797979"/>
			<stop  offset="0.702" style="stop-color:#464646"/>
			<stop  offset="1" style="stop-color:#696969"/>
		</linearGradient>
		<path fill-rule="evenodd" clip-rule="evenodd" fill="url(#SVGID_17_)" d="M8.951,14.259l0.005,0.002l0.004-0.002l0.027-0.006
			l0.027-0.001c0.278-0.029,0.52,0.038,0.726,0.201c0.112,0.091,0.199,0.208,0.259,0.349c0.058,0.145,0.081,0.293,0.074,0.452
			c-0.01,0.202-0.073,0.395-0.186,0.579c-0.113,0.185-0.263,0.336-0.447,0.455c-0.128,0.08-0.261,0.137-0.393,0.166
			c-0.153,0.035-0.301,0.041-0.448,0.015c-0.149-0.026-0.283-0.082-0.4-0.168c-0.225-0.168-0.347-0.397-0.368-0.687
			c-0.015-0.226,0.036-0.443,0.151-0.655c0.115-0.211,0.275-0.381,0.481-0.512c0.113-0.071,0.22-0.122,0.323-0.149L8.951,14.259z
			 M9.337,14.998c-0.094-0.094-0.209-0.133-0.345-0.118c-0.089,0.007-0.175,0.037-0.259,0.092c-0.086,0.056-0.155,0.125-0.207,0.21
			c-0.052,0.084-0.082,0.172-0.084,0.266c-0.001,0.131,0.041,0.238,0.125,0.32c0.088,0.08,0.192,0.116,0.311,0.105
			c0.097-0.005,0.188-0.035,0.274-0.093c0.09-0.054,0.161-0.126,0.213-0.213c0.052-0.089,0.083-0.181,0.089-0.278
			C9.462,15.17,9.423,15.07,9.337,14.998z"/>
		
			<radialGradient id="SVGID_18_" cx="-910.4341" cy="55.082" r="28.6527" gradientTransform="matrix(0.2573 -0.1487 -0.1487 -0.2573 253.5345 -98.843)" gradientUnits="userSpaceOnUse">
			<stop  offset="0" style="stop-color:#F71B19"/>
			<stop  offset="0.5451" style="stop-color:#FB474D"/>
			<stop  offset="1" style="stop-color:#F71B19"/>
		</radialGradient>
		<path fill-rule="evenodd" clip-rule="evenodd" fill="url(#SVGID_18_)" d="M10.117,12.991c0.104,0.056,0.259,0.173,0.465,0.354
			l0.656,0.568c0.155,0.147,0.272,0.283,0.35,0.407c0.104,0.168,0.153,0.338,0.15,0.509l-0.105,6.608
			c-0.002,0.168-0.04,0.322-0.111,0.467c-0.075,0.15-0.176,0.27-0.306,0.369c-0.11,0.08-0.244,0.133-0.397,0.166
			c-0.075,0.016-0.219,0.037-0.435,0.057L6.749,22.84c-0.179,0.021-0.314,0.035-0.407,0.039c-0.159,0.012-0.293,0-0.401-0.037
			c-0.163-0.055-0.286-0.158-0.367-0.311c-0.078-0.141-0.112-0.303-0.102-0.484l0.341-6.426c0.01-0.182,0.076-0.372,0.199-0.571
			c0.084-0.138,0.209-0.301,0.377-0.487l0.53-0.595c0.08-0.084,0.2-0.215,0.358-0.394c0.146-0.147,0.285-0.255,0.417-0.318
			c0.103-0.049,0.234-0.088,0.396-0.113c0.094-0.015,0.229-0.035,0.408-0.058l0.847-0.123c0.189-0.031,0.321-0.045,0.391-0.044
			C9.882,12.913,10.007,12.938,10.117,12.991z M8.882,13.992C8.609,14,8.359,14.1,8.135,14.293
			c-0.221,0.192-0.359,0.425-0.414,0.697c-0.058,0.276-0.008,0.521,0.148,0.74c0.161,0.224,0.383,0.336,0.667,0.338
			c0.041,0.004,0.093,0,0.155-0.006c0.245-0.043,0.463-0.152,0.656-0.336c0.208-0.191,0.332-0.413,0.373-0.667
			c0.05-0.298-0.019-0.55-0.207-0.759C9.318,14.086,9.109,13.982,8.882,13.992z"/>
		
			<radialGradient id="SVGID_19_" cx="-917.9946" cy="25.5586" r="34.7366" gradientTransform="matrix(0.251 -0.1591 -0.1591 -0.251 245.5834 -118.2254)" gradientUnits="userSpaceOnUse">
			<stop  offset="0" style="stop-color:#FF798C"/>
			<stop  offset="0.2745" style="stop-color:#F92323"/>
			<stop  offset="0.498" style="stop-color:#DE0000"/>
			<stop  offset="1" style="stop-color:#F71B19"/>
		</radialGradient>
		<path fill-rule="evenodd" clip-rule="evenodd" fill="url(#SVGID_19_)" d="M9.418,13.149c0.152-0.021,0.26-0.032,0.323-0.032
			c0.113-0.003,0.211,0.018,0.296,0.06c0.092,0.048,0.224,0.146,0.393,0.295l0.604,0.521l0.014,0.016l0.068,0.058l0.002,0.004
			l0.002-0.003l0.002,0.005c0.136,0.13,0.24,0.25,0.306,0.355c0.094,0.145,0.139,0.292,0.136,0.441l-0.106,6.528
			c0,0.15-0.03,0.285-0.094,0.412c-0.061,0.125-0.148,0.229-0.261,0.309l-0.038,0.025c-0.087,0.053-0.188,0.096-0.303,0.119
			c-0.078,0.016-0.19,0.029-0.338,0.041l-3.841,0.365c-0.261,0.035-0.451,0.033-0.571-0.008c-0.136-0.047-0.234-0.133-0.298-0.268
			c-0.055-0.113-0.08-0.24-0.071-0.381l0.335-6.352c0.01-0.157,0.066-0.323,0.173-0.5c0.081-0.126,0.201-0.279,0.359-0.459
			l0.65-0.729c0.21-0.239,0.377-0.398,0.502-0.477c0.031-0.024,0.063-0.043,0.098-0.055c0.124-0.059,0.315-0.104,0.577-0.132
			L9.418,13.149z M9.837,15.121c0.028-0.155,0.021-0.31-0.021-0.462c-0.042-0.149-0.114-0.281-0.215-0.396
			c-0.22-0.241-0.462-0.359-0.728-0.353c-0.236,0.012-0.453,0.082-0.649,0.208c-0.16,0.099-0.294,0.226-0.403,0.381
			c-0.112,0.158-0.185,0.325-0.219,0.502c-0.035,0.157-0.035,0.313,0,0.467c0.036,0.15,0.102,0.286,0.197,0.406
			c0.183,0.235,0.43,0.354,0.736,0.36c0.101-0.009,0.159-0.012,0.17-0.012L8.71,16.22c0.169-0.028,0.336-0.095,0.499-0.198
			c0.169-0.108,0.309-0.238,0.42-0.395C9.739,15.47,9.807,15.302,9.837,15.121z"/>
		
			<radialGradient id="SVGID_20_" cx="-911.5581" cy="5.6475" r="7.072" gradientTransform="matrix(0.251 -0.1591 -0.1591 -0.251 239.2506 -128.2389)" gradientUnits="userSpaceOnUse">
			<stop  offset="0" style="stop-color:#BCBCBC"/>
			<stop  offset="1" style="stop-color:#767676"/>
		</radialGradient>
		<path fill-rule="evenodd" clip-rule="evenodd" fill="url(#SVGID_20_)" d="M8.702,13.919l0.004,0.001l0.005-0.002l0.025-0.005
			l0.028-0.002c0.282-0.028,0.521,0.039,0.72,0.199c0.113,0.091,0.201,0.207,0.262,0.348c0.061,0.141,0.085,0.292,0.075,0.453
			c-0.012,0.202-0.075,0.395-0.187,0.582c-0.115,0.186-0.262,0.335-0.444,0.453c-0.129,0.083-0.262,0.139-0.399,0.169
			c-0.15,0.036-0.3,0.041-0.447,0.013c-0.151-0.025-0.283-0.08-0.401-0.166c-0.229-0.17-0.351-0.398-0.367-0.686
			c-0.013-0.227,0.039-0.446,0.154-0.657c0.115-0.21,0.276-0.381,0.481-0.513c0.111-0.07,0.218-0.119,0.32-0.145L8.702,13.919z
			 M8.738,14.54c-0.088,0.007-0.173,0.038-0.255,0.089c-0.084,0.058-0.155,0.128-0.208,0.213c-0.054,0.084-0.081,0.174-0.083,0.265
			c-0.005,0.125,0.036,0.232,0.124,0.322c0.084,0.08,0.188,0.115,0.31,0.104c0.102-0.007,0.194-0.038,0.278-0.092
			c0.086-0.054,0.159-0.127,0.212-0.214c0.052-0.088,0.081-0.18,0.085-0.275c0.008-0.117-0.031-0.216-0.112-0.296
			C8.998,14.566,8.881,14.526,8.738,14.54z"/>
		<g>
			
				<linearGradient id="SVGID_21_" gradientUnits="userSpaceOnUse" x1="2.9414" y1="-416.0679" x2="16.8999" y2="-416.0679" gradientTransform="matrix(-0.4353 0.6334 -0.6334 -0.4353 -247.0569 -177.4988)">
				<stop  offset="0" style="stop-color:#CCCCCC"/>
				<stop  offset="1" style="stop-color:#7F7F7F"/>
			</linearGradient>
			<path fill-rule="evenodd" clip-rule="evenodd" fill="url(#SVGID_21_)" d="M9.085,10.266c0.251-0.538,0.592-1.028,1.022-1.475
				c0.395-0.408,0.846-0.755,1.354-1.042c0.616-0.359,1.246-0.596,1.883-0.71c0.654-0.107,1.209-0.067,1.667,0.119
				c0.343,0.136,0.602,0.343,0.775,0.624l0.031,0.043c0.087,0.158,0.134,0.312,0.141,0.462c0.015,0.143-0.019,0.287-0.097,0.431
				c-0.042,0.067-0.096,0.14-0.162,0.215V8.846h-0.357V8.652h-0.089c0.04-0.03,0.077-0.063,0.113-0.097
				c0.049-0.057,0.082-0.108,0.099-0.151c0.004-0.029,0.004-0.064,0-0.107c-0.01-0.073-0.035-0.147-0.078-0.226L15.367,8.04
				c-0.115-0.179-0.294-0.319-0.539-0.419c-0.234-0.101-0.526-0.147-0.869-0.14c-0.346,0.006-0.71,0.068-1.099,0.182
				c-0.395,0.122-0.777,0.294-1.151,0.517c-0.466,0.265-0.882,0.585-1.246,0.958c-0.395,0.408-0.703,0.857-0.925,1.344
				c-0.288,0.595-0.485,1.201-0.592,1.817c-0.115,0.581-0.14,1.104-0.075,1.57c0.051,0.301,0.133,0.548,0.247,0.743
				c0.015,0.029,0.04,0.05,0.075,0.064c0.05,0.007,0.083,0.021,0.098,0.043c0.049,0.049,0.064,0.132,0.043,0.247
				c-0.022,0.128-0.08,0.231-0.173,0.312c-0.043,0.036-0.086,0.033-0.129-0.011c-0.035-0.021-0.082-0.06-0.138-0.119
				c-0.08-0.086-0.147-0.182-0.206-0.289c-0.151-0.259-0.251-0.567-0.301-0.926c-0.051-0.33-0.058-0.703-0.022-1.119
				C8.443,11.975,8.683,11.126,9.085,10.266z M10.698,10.502c0.08-0.062,0.163-0.122,0.25-0.183l0.247-0.14
				c0.388-0.222,0.915-0.438,1.58-0.645c0.043-0.014,0.092-0.03,0.153-0.049v0.522c-0.205,0.059-0.384,0.116-0.538,0.172
				c-0.389,0.137-0.703,0.276-0.948,0.419c-0.073,0.036-0.144,0.079-0.214,0.129c-0.195,0.137-0.369,0.271-0.529,0.409
				c-0.298,0.258-0.534,0.517-0.708,0.774c-0.208,0.309-0.34,0.638-0.398,0.99l-0.496,0.075c0.044-0.48,0.202-0.925,0.473-1.333
				C9.835,11.253,10.211,10.874,10.698,10.502z"/>
		</g>
		<g>
			
				<linearGradient id="SVGID_22_" gradientUnits="userSpaceOnUse" x1="2.938" y1="-415.9502" x2="16.8981" y2="-415.9502" gradientTransform="matrix(-0.4353 0.6334 -0.6334 -0.4353 -247.0569 -177.4988)">
				<stop  offset="0" style="stop-color:#FFFFFF"/>
				<stop  offset="1" style="stop-color:#B2B2B2"/>
			</linearGradient>
			<path fill-rule="evenodd" clip-rule="evenodd" fill="url(#SVGID_22_)" d="M15.637,8.201l0.01,0.032
				c0.052,0.079,0.077,0.154,0.085,0.227c0.009,0.036,0.004,0.071-0.01,0.106c-0.007,0.051-0.035,0.101-0.085,0.151
				c-0.065,0.064-0.152,0.129-0.258,0.194c-0.005,0.001-0.01,0.002-0.012,0.006V8.673h-0.144c0.054-0.038,0.104-0.077,0.144-0.118
				c0.049-0.057,0.082-0.108,0.099-0.151c0.004-0.029,0.004-0.064,0-0.107c-0.01-0.073-0.035-0.147-0.078-0.226L15.367,8.04
				c-0.052-0.086-0.115-0.162-0.193-0.226C15.374,7.914,15.529,8.043,15.637,8.201z M11.453,10.341l-0.237,0.151
				c-0.609,0.422-1.07,0.859-1.378,1.311c-0.229,0.352-0.378,0.728-0.451,1.129l-0.259,0.032c0.016-0.157,0.037-0.326,0.065-0.505
				l0.021-0.097c0.079-0.244,0.197-0.484,0.354-0.72c0.309-0.452,0.767-0.893,1.378-1.323l0.247-0.14
				c0.388-0.222,0.915-0.438,1.58-0.645c0.035-0.012,0.075-0.023,0.12-0.038V9.75C12.285,9.937,11.805,10.135,11.453,10.341z
				 M9.085,10.266c0.251-0.538,0.592-1.028,1.022-1.475c0.395-0.408,0.846-0.755,1.354-1.042c0.616-0.359,1.246-0.596,1.883-0.71
				c0.654-0.107,1.209-0.067,1.667,0.119c0.15,0.064,0.292,0.143,0.419,0.236L15.279,7.33c-0.465-0.188-1.024-0.226-1.676-0.119
				c-0.632,0.108-1.26,0.341-1.883,0.699c-0.508,0.294-0.959,0.646-1.356,1.054c-0.438,0.438-0.777,0.925-1.021,1.463
				c-0.401,0.86-0.641,1.714-0.72,2.56c-0.035,0.408-0.025,0.781,0.032,1.117c0.05,0.359,0.143,0.664,0.28,0.914
				c0.057,0.095,0.126,0.183,0.205,0.269c-0.037,0.014-0.076,0.007-0.12-0.021c-0.028-0.021-0.071-0.06-0.127-0.119
				c-0.08-0.086-0.147-0.182-0.206-0.289c-0.151-0.259-0.251-0.567-0.301-0.926c-0.051-0.33-0.058-0.703-0.022-1.119
				C8.443,11.975,8.683,11.126,9.085,10.266z"/>
		</g>
	</g>
</g>
</svg>
