<?xml version="1.0" encoding="utf-8"?>
<!-- Generator: Adobe Illustrator 15.0.0, SVG Export Plug-In . SVG Version: 6.00 Build 0)  -->
<!DOCTYPE svg PUBLIC "-//W3C//DTD SVG 1.1//EN" "http://www.w3.org/Graphics/SVG/1.1/DTD/svg11.dtd">
<svg version="1.1" id="Layer_1" xmlns="http://www.w3.org/2000/svg" xmlns:xlink="http://www.w3.org/1999/xlink" x="0px" y="0px"
	 width="90px" height="60px" viewBox="0 0 90 60" enable-background="new 0 0 90 60" xml:space="preserve">
<style type="text/css">
	.st0{fill:#FFFFFF;stroke:#BABABA;stroke-width:0.5;stroke-miterlimit:10;}
</style>
<g id="Layer_1_1_">
</g>
<g id="Layer_2">
	<path class="st0" d="M45.8,8.6c0,0-0.2,0-0.2-0.2l0,0c-0.4,0.9-0.9,1.7-1.3,2.8c-0.2,0.6-0.4,1.5-0.9,2.2c0.2,0,0.4,0,0.9,0
		c0.6,0,1.3-0.2,2.4-0.4c1.1-0.2,2.2-0.4,3.2-0.4C48.6,11.2,47.1,9.9,45.8,8.6z M69.9,8.6c3,2.4,5.4,5.2,7.1,8.4
		c-2.8-1.5-5.6-1.9-8.2-1.7c-1.3,0-3.2,0.4-5.6,1.1c1.1,0.9,1.9,1.7,2.8,2.8c2.6,3.2,3.9,8,3.9,14c0,3.2-0.6,6.5-1.7,9.7
		c-1.1,3.2-2.6,6-4.5,8.4c-1.9,2.6-4.3,4.5-6.7,5.6c-2.6,1.3-5.4,1.7-8,1.3C48,58,46.7,57.8,45.2,58c0,0-1.1,0-3.4,0.2
		c-8.2,0.9-14.9-1.3-19.8-6.7c-4.3-4.7-6.5-10.8-6.5-18.1c0-3.2,0.4-6.5,1.7-9.5s2.4-5.6,4.7-7.8c5-4.7,11.2-5.8,19-3.7
		c0.4,0.2,0.9,0.2,1.3,0.4c1.5-4.3,2.6-7.1,3.2-8.4c0.9-2.2,1.7-3.2,2.2-2.8c0.4,0.4,0.9,0.9,0.9,0.9c0,0.2,0,0.6-0.4,1.3
		c-0.4,0.6-0.9,1.3-1.3,2.2c1.1-1.3,2.8-2.4,5-3c2.8-0.6,5.6-0.4,9.1,0.4C63.9,4.5,67.1,6.2,69.9,8.6z"/>
</g>
</svg>
