<?xml version="1.0" encoding="utf-8"?>
<!-- Generator: Adobe Illustrator 16.0.0, SVG Export Plug-In . SVG Version: 6.00 Build 0)  -->
<!DOCTYPE svg PUBLIC "-//W3C//DTD SVG 1.1//EN" "http://www.w3.org/Graphics/SVG/1.1/DTD/svg11.dtd">
<svg version="1.1" id="Layer_1" xmlns="http://www.w3.org/2000/svg" xmlns:xlink="http://www.w3.org/1999/xlink" x="0px" y="0px"
	 width="30px" height="30px" viewBox="0 0 30 30" enable-background="new 0 0 30 30" xml:space="preserve">
<path fill="#FFFFFF" stroke="#000000" stroke-width="0.5" stroke-miterlimit="10" d="M19.3,8.1c1.1,1,1.5,2.1,1.5,3.4
	c0,0.7-0.1,1.2-0.5,1.9c-0.4,0.7-1.2,1.5-2.5,2.5c-0.7,0.6-1.1,1-1.2,1.4c-0.3,0.3-0.3,1-0.1,1.8h-3c0-0.4,0-0.7,0-0.7
	c0-0.8,0.1-1.5,0.4-2.2c0.3-0.7,1-1.4,1.9-2.1c1-0.7,1.5-1.2,1.7-1.5c0.3-0.4,0.4-0.8,0.4-1.4c0-0.7-0.3-1.1-0.7-1.5
	c-0.4-0.4-1.1-0.7-2.1-0.7c-0.8,0-1.5,0.3-2.1,0.7c-0.4,0.6-0.8,1.2-1,2.2l-3-0.4c0.1-1.4,0.7-2.5,1.8-3.4c1.1-1,2.5-1.4,4.1-1.4
	C16.7,6.7,18.2,7.1,19.3,8.1z M23.5,6.6C21.1,4.3,18.2,3,15.1,3c-3.3,0-6.2,1.2-8.5,3.6C4.2,8.9,3.1,11.8,3.1,15
	c0,3.3,1.1,6.1,3.4,8.3c2.3,2.3,5.2,3.6,8.5,3.6c3.3,0,6.1-1.2,8.4-3.6c2.2-2.2,3.4-5.1,3.4-8.3C26.8,11.8,25.7,8.9,23.5,6.6z
	 M24.7,5.2c2.8,2.8,4.1,5.9,4.1,9.8c0,3.9-1.4,7-4.1,9.6c-2.8,2.8-5.9,4.1-9.8,4.1c-3.9,0-7.2-1.4-9.8-4.1c-2.6-2.5-4-5.8-4-9.6
	c0-3.9,1.4-7.2,4-9.8c2.8-2.6,5.9-4,9.8-4C18.8,1.2,22.1,2.6,24.7,5.2z M13.4,20.1h3.2v3.2h-3.2V20.1z"/>
</svg>
