<?xml version="1.0" encoding="utf-8"?>
<!-- Generator: Adobe Illustrator 15.0.0, SVG Export Plug-In . SVG Version: 6.00 Build 0)  -->
<!DOCTYPE svg PUBLIC "-//W3C//DTD SVG 1.1//EN" "http://www.w3.org/Graphics/SVG/1.1/DTD/svg11.dtd">
<svg version="1.1" id="Layer_1" xmlns="http://www.w3.org/2000/svg" xmlns:xlink="http://www.w3.org/1999/xlink" x="0px" y="0px"
	 width="30px" height="30px" viewBox="0 0 30 30" enable-background="new 0 0 30 30" xml:space="preserve">
<g>
	
		<linearGradient id="SVGID_1_" gradientUnits="userSpaceOnUse" x1="-391.8086" y1="-499.3745" x2="-383.2588" y2="-499.3745" gradientTransform="matrix(-0.866 0.5001 -0.5001 -0.866 -576.9875 -216.3571)">
		<stop  offset="0" style="stop-color:#C2D842"/>
		<stop  offset="0.0078" style="stop-color:#C2D842"/>
		<stop  offset="1" style="stop-color:#57AF52"/>
	</linearGradient>
	<path fill-rule="evenodd" clip-rule="evenodd" fill="url(#SVGID_1_)" d="M11.681,23.345l-7.998-0.571l1.16-1.48
		c0.144,0.021,0.354,0.043,0.631,0.068l7.575,0.534L11.681,23.345z"/>
	
		<linearGradient id="SVGID_2_" gradientUnits="userSpaceOnUse" x1="-395.1621" y1="-505.6792" x2="-389.8568" y2="-505.6792" gradientTransform="matrix(-0.8659 0.5002 -0.5002 -0.8659 -576.9908 -216.322)">
		<stop  offset="0" style="stop-color:#C2D842"/>
		<stop  offset="0.0078" style="stop-color:#C2D842"/>
		<stop  offset="1" style="stop-color:#57AF52"/>
	</linearGradient>
	<polygon fill-rule="evenodd" clip-rule="evenodd" fill="url(#SVGID_2_)" points="11.681,23.345 13.049,21.896 20.007,27.166 
		18.601,28.533 18.555,28.547 	"/>
	
		<linearGradient id="SVGID_3_" gradientUnits="userSpaceOnUse" x1="-398.4351" y1="-505.0361" x2="-395.6722" y2="-505.0361" gradientTransform="matrix(-0.8659 0.5002 -0.5002 -0.8659 -576.9894 -216.3287)">
		<stop  offset="0" style="stop-color:#C2D842"/>
		<stop  offset="0.0078" style="stop-color:#C2D842"/>
		<stop  offset="1" style="stop-color:#57AF52"/>
	</linearGradient>
	<path fill-rule="evenodd" clip-rule="evenodd" fill="url(#SVGID_3_)" d="M20.763,21.917l-1.278,1.348
		c-0.024,0.018-0.047,0.045-0.065,0.08c-0.188,0.184-0.455,0.311-0.805,0.386h-0.006l-0.602-1.499l1.167,0.08
		c0.227,0.021,0.456,0.015,0.682-0.015C20.244,22.237,20.545,22.111,20.763,21.917z"/>
	
		<linearGradient id="SVGID_4_" gradientUnits="userSpaceOnUse" x1="-389.6382" y1="-488.3516" x2="-381.7788" y2="-488.3516" gradientTransform="matrix(-0.8659 0.5002 -0.5002 -0.8659 -576.9901 -216.3389)">
		<stop  offset="0" style="stop-color:#C2D842"/>
		<stop  offset="0.0078" style="stop-color:#C2D842"/>
		<stop  offset="1" style="stop-color:#57AF52"/>
	</linearGradient>
	<path fill-rule="evenodd" clip-rule="evenodd" fill="url(#SVGID_4_)" d="M1.81,18.609l-1.382,1.45
		c-0.035-0.278-0.052-0.534-0.052-0.773V9.974c0-0.58,0.101-1.046,0.305-1.397V8.568l1.397-1.367
		c-0.148,0.198-0.245,0.46-0.29,0.788c-0.03,0.159-0.044,0.335-0.044,0.527v9.328C1.744,18.099,1.765,18.352,1.81,18.609z"/>
	
		<linearGradient id="SVGID_5_" gradientUnits="userSpaceOnUse" x1="-385.0083" y1="-495.2041" x2="-381.5747" y2="-495.2041" gradientTransform="matrix(-0.866 0.5001 -0.5001 -0.866 -576.9866 -216.3622)">
		<stop  offset="0" style="stop-color:#C2D842"/>
		<stop  offset="0.0078" style="stop-color:#C2D842"/>
		<stop  offset="1" style="stop-color:#57AF52"/>
	</linearGradient>
	<path fill-rule="evenodd" clip-rule="evenodd" fill="url(#SVGID_5_)" d="M4.843,21.293l-1.16,1.48
		c-1.918-0.243-3.002-1.148-3.255-2.714l1.382-1.45C2.053,20.121,3.064,21.016,4.843,21.293z"/>
	<linearGradient id="SVGID_6_" gradientUnits="userSpaceOnUse" x1="1.7437" y1="16.8291" x2="21.2402" y2="16.8291">
		<stop  offset="0" style="stop-color:#C2D842"/>
		<stop  offset="0.0078" style="stop-color:#C2D842"/>
		<stop  offset="1" style="stop-color:#57AF52"/>
	</linearGradient>
	<path fill-rule="evenodd" clip-rule="evenodd" fill="url(#SVGID_6_)" d="M20.763,21.917c-0.218,0.194-0.519,0.32-0.907,0.38
		c-0.226,0.029-0.455,0.035-0.682,0.015l-1.167-0.08l0.602,1.499h0.006l1.393,3.436l-6.958-5.271l-7.575-0.534
		c-0.277-0.025-0.488-0.048-0.631-0.068c-1.779-0.277-2.79-1.172-3.033-2.684c-0.045-0.258-0.066-0.511-0.066-0.765V8.517
		c0-0.192,0.015-0.369,0.044-0.527c0.044-0.327,0.141-0.59,0.29-0.788c0.119-0.179,0.259-0.32,0.417-0.424
		c0.352-0.208,0.807-0.302,1.368-0.282C3.976,6.5,4.157,6.505,4.404,6.511c0.232,0.01,0.443,0.037,0.631,0.081l12.369,3.092
		c1.491,0.372,2.351,1.284,2.579,2.735l1.196,7.492c0.039,0.301,0.061,0.532,0.061,0.69c0,0.53-0.137,0.946-0.408,1.25
		L20.763,21.917z"/>
</g>
<g>
	
		<linearGradient id="SVGID_7_" gradientUnits="userSpaceOnUse" x1="-276.0205" y1="-527.2197" x2="-264.1519" y2="-527.2197" gradientTransform="matrix(-0.5999 0.8 -0.8 -0.5999 -563.5946 -89.181)">
		<stop  offset="0" style="stop-color:#F08641"/>
		<stop  offset="1" style="stop-color:#FFF130"/>
	</linearGradient>
	<path fill-rule="evenodd" clip-rule="evenodd" fill="url(#SVGID_7_)" d="M29.556,14.055c0.045,0.257,0.068,0.456,0.068,0.595
		c0,0.451-0.132,0.81-0.396,1.078c-0.022,0.004-0.049,0.022-0.073,0.052c-0.224,0.173-0.517,0.282-0.876,0.325
		c-0.214,0.026-0.432,0.031-0.654,0.017l-1.145-0.067l1.946,4.237l-6.732-4.535l-7.954-0.513c-1.729-0.242-2.71-1.01-2.943-2.304
		c-0.04-0.212-0.06-0.433-0.06-0.661V4.266c0-0.194,0.015-0.348,0.044-0.461c0.04-0.272,0.132-0.498,0.275-0.677
		c0.114-0.153,0.25-0.275,0.409-0.363c0.341-0.184,0.78-0.263,1.315-0.239c0.109,0.006,0.29,0.008,0.542,0.008
		c0.218,0.009,0.421,0.038,0.609,0.083L25.908,5.27c1.441,0.307,2.271,1.087,2.488,2.341L29.556,14.055z"/>
	
		<linearGradient id="SVGID_8_" gradientUnits="userSpaceOnUse" x1="-277.4258" y1="-620.2803" x2="-272.4321" y2="-620.2803" gradientTransform="matrix(-0.7371 0.8716 -0.9822 -0.6541 -794.718 -149.9585)">
		<stop  offset="0" style="stop-color:#F08641"/>
		<stop  offset="1" style="stop-color:#FECC39"/>
	</linearGradient>
	<polygon fill-rule="evenodd" clip-rule="evenodd" fill="url(#SVGID_8_)" points="21.691,15.758 20.358,17.004 12.619,16.52 
		13.741,15.247 	"/>
	
		<linearGradient id="SVGID_9_" gradientUnits="userSpaceOnUse" x1="-277.0845" y1="-626.3906" x2="-275.4913" y2="-626.3906" gradientTransform="matrix(-0.7363 0.8721 -0.9827 -0.6534 -794.6292 -149.705)">
		<stop  offset="0" style="stop-color:#F08641"/>
		<stop  offset="1" style="stop-color:#FECC39"/>
	</linearGradient>
	<polygon fill-rule="evenodd" clip-rule="evenodd" fill="url(#SVGID_9_)" points="28.426,20.293 27.066,21.468 27.021,21.484 
		20.358,17.004 21.691,15.758 	"/>
	
		<linearGradient id="SVGID_10_" gradientUnits="userSpaceOnUse" x1="-281.0781" y1="-627.105" x2="-278.9189" y2="-627.105" gradientTransform="matrix(-0.7371 0.8716 -0.9821 -0.6541 -794.7237 -149.9736)">
		<stop  offset="0" style="stop-color:#F08641"/>
		<stop  offset="1" style="stop-color:#FECC39"/>
	</linearGradient>
	<path fill-rule="evenodd" clip-rule="evenodd" fill="url(#SVGID_10_)" d="M28.28,16.104c0.357-0.041,0.65-0.15,0.876-0.323
		l-1.231,1.158c-0.037,0.021-0.058,0.043-0.064,0.064c-0.206,0.169-0.468,0.277-0.784,0.334l-0.593-1.28l1.141,0.063
		C27.849,16.138,28.066,16.134,28.28,16.104z"/>
	
		<linearGradient id="SVGID_11_" gradientUnits="userSpaceOnUse" x1="-281.4419" y1="-611.6455" x2="-272.5508" y2="-611.6455" gradientTransform="matrix(-0.737 0.8717 -0.9823 -0.654 -794.7044 -149.9147)">
		<stop  offset="0" style="stop-color:#F08641"/>
		<stop  offset="1" style="stop-color:#FECC39"/>
	</linearGradient>
	<path fill-rule="evenodd" clip-rule="evenodd" fill="url(#SVGID_11_)" d="M9.707,4.313V4.305l1.35-1.174
		c-0.146,0.178-0.237,0.402-0.274,0.672c-0.03,0.112-0.045,0.267-0.045,0.462v8.009c0,0.233,0.018,0.455,0.055,0.665l-1.323,1.248
		c-0.042-0.243-0.064-0.465-0.064-0.664v-8.01C9.405,5.026,9.505,4.627,9.707,4.313z"/>
	
		<linearGradient id="SVGID_12_" gradientUnits="userSpaceOnUse" x1="-273.7578" y1="-615.8936" x2="-271.5012" y2="-615.8936" gradientTransform="matrix(-0.7362 0.8722 -0.9829 -0.6533 -794.6045 -149.6407)">
		<stop  offset="0" style="stop-color:#F08641"/>
		<stop  offset="1" style="stop-color:#FECC39"/>
	</linearGradient>
	<path fill-rule="evenodd" clip-rule="evenodd" fill="url(#SVGID_12_)" d="M10.792,12.939c0.237,1.296,1.22,2.065,2.949,2.308
		l-1.123,1.272c-1.863-0.211-2.912-0.988-3.149-2.333L10.792,12.939z"/>
</g>
</svg>
