<?xml version="1.0" encoding="utf-8"?>
<!-- Generator: Adobe Illustrator 15.0.0, SVG Export Plug-In . SVG Version: 6.00 Build 0)  -->
<!DOCTYPE svg PUBLIC "-//W3C//DTD SVG 1.1//EN" "http://www.w3.org/Graphics/SVG/1.1/DTD/svg11.dtd">
<svg version="1.1" id="Layer_1" xmlns="http://www.w3.org/2000/svg" xmlns:xlink="http://www.w3.org/1999/xlink" x="0px" y="0px"
	 width="90px" height="60px" viewBox="0 0 90 60" enable-background="new 0 0 90 60" xml:space="preserve">
<style type="text/css">
	.st0{fill:#FFFFFF;stroke:#AAAAAA;stroke-width:0.5;stroke-miterlimit:10;}
</style>
<g id="Layer_1_1_">
</g>
<g>
	<path class="st0" d="M16.5,11.4c0.3-0.4,0.6-0.7,0.9-0.9c0.8-0.5,1.8-0.7,3.1-0.6c0.3,0,0.7,0,1.2,0c0.5,0,1,0.1,1.4,0.2l27.6,6.9
		c3.3,0.8,5.2,2.9,5.8,6.1l2.7,16.7c0.1,0.7,0.1,1.2,0.1,1.5c0,1.2-0.3,2.1-0.9,2.8l-3,3.2c-0.1,0-0.1,0.1-0.2,0.2
		c-0.4,0.4-1,0.7-1.8,0.9l3.1,7.7L53.4,59l-0.1,0L38,47.4l-17.9-1.3c-4.3-0.5-6.7-2.6-7.3-6.1c-0.1-0.6-0.1-1.2-0.1-1.7V17.6
		c0-1.3,0.2-2.3,0.7-3.1v0L16.5,11.4z"/>
</g>
<g>
	<path class="st0" d="M77.9,26.7c0.1,0.6,0.2,1,0.2,1.3c0,1-0.3,1.8-0.9,2.4c-0.1,0-0.1,0.1-0.2,0.1l-2.8,2.6
		c-0.1,0.1-0.1,0.1-0.1,0.1c-0.5,0.4-1.1,0.6-1.8,0.7l3,6.6l-3,2.6l-0.1,0l-14.9-10l-17.3-1.1c-4.2-0.5-6.5-2.2-7-5.2
		c-0.1-0.5-0.1-1-0.1-1.5V7.6c0-1.1,0.2-2,0.7-2.7v0l3-2.6c0.3-0.3,0.6-0.6,0.9-0.8c0.8-0.4,1.7-0.6,2.9-0.5c0.2,0,0.6,0,1.2,0
		c0.5,0,0.9,0.1,1.4,0.2l26.7,5.9c3.2,0.7,5.1,2.4,5.6,5.2L77.9,26.7z"/>
</g>
</svg>
