<?xml version="1.0" encoding="utf-8"?>
<!-- Generator: Adobe Illustrator 15.0.0, SVG Export Plug-In . SVG Version: 6.00 Build 0)  -->
<!DOCTYPE svg PUBLIC "-//W3C//DTD SVG 1.1//EN" "http://www.w3.org/Graphics/SVG/1.1/DTD/svg11.dtd">
<svg version="1.1" id="Layer_1" xmlns="http://www.w3.org/2000/svg" xmlns:xlink="http://www.w3.org/1999/xlink" x="0px" y="0px"
	 width="90px" height="60px" viewBox="0 0 90 60" enable-background="new 0 0 90 60" xml:space="preserve">
<style type="text/css">
	.st0{fill:#FFFFFF;stroke:#B7B7B7;stroke-width:0.5;stroke-miterlimit:10;}
</style>
<g id="Layer_1_1_">
</g>
<g>
	<path class="st0" d="M57.9,2.2c0.6,0,1.1,0.2,1.6,0.5c0,0,0,0,0,0c0.4,0.3,0.7,0.7,0.9,1.1c0.2,0.4,0.4,0.9,0.4,1.4l0.2,22
		c0,0.5-0.1,1-0.3,1.4c-0.1,0.2-0.3,0.5-0.5,0.7c-0.4,0.3-1,0.4-1.5,0.4l-1.9,0c0,0,0,0,0-0.1l-20-0.1c-0.8,0-1.6-0.3-2.2-1
		c-0.6-0.6-0.9-1.4-0.9-2.2l0-1.1l0,0L33.4,3.9c0-0.3,0.1-0.6,0.2-1h0c0.1-0.2,0.2-0.4,0.2-0.5C33.9,2.3,34,2,34.3,1.8
		c0.3-0.2,0.7-0.3,1.1-0.4L57.9,2.2z"/>
	<path class="st0" d="M59.7,29.5l-4.2,0.9c-0.4,0.1-0.8,0.1-1.1,0.1l-21.6-0.1c-0.5,0-0.9-0.1-1.2-0.1c-0.7-0.2-1.2-0.6-1.6-1.2
		c-0.4-0.6-0.6-1.2-0.6-1.8L29.2,5.1c0-0.7,0.2-1.2,0.6-1.8c0.4-0.6,1-0.9,1.7-1.1l4.4-0.9c-0.7,0.1-1.2,0.5-1.7,1.1
		c-0.4,0.5-0.6,1.1-0.6,1.8l0.2,22.1c0,0.9,0.3,1.6,0.9,2.2c0.6,0.6,1.4,0.9,2.3,0.9l20.3,0.1C58.4,29.6,59.2,29.5,59.7,29.5z"/>
</g>
<g>
	<path class="st0" d="M71.1,30.1c0.6,0,1.1,0.2,1.6,0.5c0,0,0,0,0,0c0.4,0.3,0.7,0.7,0.9,1.1c0.2,0.4,0.4,0.9,0.4,1.4l0.2,22
		c0,0.5-0.1,1-0.3,1.4c-0.1,0.2-0.3,0.5-0.5,0.7c-0.4,0.3-1,0.4-1.5,0.4l-1.9,0c0,0,0,0,0-0.1l-20-0.1c-0.8,0-1.6-0.3-2.2-1
		c-0.6-0.6-0.9-1.4-0.9-2.2l0-1.1l0,0l-0.2-21.3c0-0.3,0.1-0.6,0.2-1h0c0.1-0.2,0.2-0.4,0.2-0.5c0.1-0.2,0.3-0.4,0.5-0.7
		c0.3-0.2,0.7-0.3,1.1-0.4L71.1,30.1z"/>
	<path class="st0" d="M72.9,57.4l-4.2,0.9c-0.4,0.1-0.8,0.1-1.1,0.1L46,58.4c-0.5,0-0.9-0.1-1.2-0.1c-0.7-0.2-1.2-0.6-1.6-1.2
		c-0.4-0.6-0.6-1.2-0.6-1.8L42.4,33c0-0.7,0.2-1.2,0.6-1.8c0.4-0.6,1-0.9,1.7-1.1l4.4-0.9c-0.7,0.1-1.2,0.5-1.7,1.1
		c-0.4,0.5-0.6,1.1-0.6,1.8l0.2,22.1c0,0.9,0.3,1.6,0.9,2.2c0.6,0.6,1.4,0.9,2.3,0.9l20.4,0.1C71.6,57.5,72.4,57.5,72.9,57.4z"/>
</g>
<g>
	<path class="st0" d="M42.7,29.5c0.6,0,1.1,0.2,1.6,0.5c0,0,0,0,0,0c0.4,0.3,0.7,0.7,0.9,1.1c0.2,0.4,0.4,0.9,0.4,1.4l0.2,22
		c0,0.5-0.1,1-0.3,1.4c-0.1,0.2-0.3,0.5-0.5,0.7c-0.4,0.3-1,0.4-1.5,0.4l-1.9,0c0,0,0,0,0-0.1l-20-0.1c-0.8,0-1.6-0.3-2.2-1
		c-0.6-0.6-0.9-1.4-0.9-2.2l0-1.1l0,0l-0.2-21.3c0-0.3,0.1-0.6,0.2-1h0c0.1-0.2,0.2-0.4,0.2-0.5c0.1-0.2,0.3-0.4,0.5-0.7
		c0.3-0.2,0.7-0.3,1.1-0.4L42.7,29.5z"/>
	<path class="st0" d="M44.5,56.8l-4.2,0.9c-0.4,0.1-0.8,0.1-1.1,0.1l-21.6-0.1c-0.5,0-0.9-0.1-1.2-0.1c-0.7-0.2-1.2-0.6-1.6-1.2
		c-0.4-0.6-0.6-1.2-0.6-1.8l-0.2-22.3c0-0.6,0.2-1.2,0.6-1.8c0.4-0.6,1-0.9,1.7-1.1l4.4-0.9c-0.7,0.1-1.2,0.5-1.7,1.1
		c-0.4,0.5-0.6,1.1-0.6,1.8l0.2,22.1c0,0.9,0.3,1.6,0.9,2.2c0.6,0.6,1.4,0.9,2.3,0.9l20.3,0.1C43.3,56.9,44,56.8,44.5,56.8z"/>
</g>
</svg>
