<?xml version="1.0" encoding="utf-8"?>
<!-- Generator: Adobe Illustrator 15.0.0, SVG Export Plug-In . SVG Version: 6.00 Build 0)  -->
<!DOCTYPE svg PUBLIC "-//W3C//DTD SVG 1.0//EN" "http://www.w3.org/TR/2001/REC-SVG-20010904/DTD/svg10.dtd">
<svg version="1.0" id="Layer_1" xmlns="http://www.w3.org/2000/svg" xmlns:xlink="http://www.w3.org/1999/xlink" x="0px" y="0px"
	 width="30px" height="30px" viewBox="0 0 30 30" enable-background="new 0 0 30 30" xml:space="preserve">
<radialGradient id="SVGID_1_" cx="8.7002" cy="15.3008" r="16.323" gradientTransform="matrix(0.9835 0 0 -1.0687 0.4935 31.3273)" gradientUnits="userSpaceOnUse">
	<stop  offset="7.843138e-003" style="stop-color:#C70000"/>
	<stop  offset="0.149" style="stop-color:#C00000"/>
	<stop  offset="0.349" style="stop-color:#AE0101"/>
	<stop  offset="0.5843" style="stop-color:#8F0202"/>
	<stop  offset="0.651" style="stop-color:#850202"/>
	<stop  offset="0.7922" style="stop-color:#6E0202"/>
	<stop  offset="0.9647" style="stop-color:#540101"/>
</radialGradient>
<path fill-rule="evenodd" clip-rule="evenodd" fill="url(#SVGID_1_)" d="M13.5,5.8c0,0.1-0.1,0.2-0.1,0.3c-0.2-0.1-0.5-0.2-0.8-0.3
	c-0.6-0.3-1.3-0.5-2.3-0.6c0.5,0.1,1,0.5,1.5,1c0.4,0.5,1,0.7,1.6,0.7c0.4,0,0.8-0.1,1.2-0.4c0.6-0.4,1.1-0.6,1.4-0.7
	c-0.3,0-0.6,0-1,0.1c-0.4,0.2-0.8,0.2-1.1,0.2c0-0.1,0.1-0.2,0.1-0.2c0.1,0,0.3,0,0.4,0c0.3,0,0.6-0.1,1.1-0.2
	c0.4-0.1,0.9-0.2,1.3-0.3c0.1,0.1,0.2,0.2,0.3,0.3c-0.2,0-0.3,0.1-0.5,0.2c-0.7,0.4-1.2,0.7-1.5,0.9C14.5,7,14,7.2,13.5,7.2
	c-0.6,0-1.3-0.4-2-1c-1.8-1.5-3.8-1.4-6,0.3C4.5,7.2,3.7,8,3.1,9c-0.7,1-1.1,2-1.3,2.9c-0.8,3.2-0.9,6-0.2,8.4
	c0.7,2.9,2.3,5.4,4.9,7.3c-1.4-1.2-2.3-3-2.8-5.5c-0.4-2.4-0.3-4.7,0.3-7c0.7-2.4,1.7-4,3.2-4.9c1.7-1,3.7-0.8,6,0.6
	c1,0.7,2.3,0.9,3.7,0.8c1.2-0.1,2.4-0.4,3.5-1c1.1-0.6,1.8-1.2,2.3-1.9c0.2-0.4,0.3-0.7,0.3-1c0.1,0,0.1,0,0.2,0
	c0.1,0,0.3-0.1,0.4-0.1C24,8,24.4,8.5,24.7,9c1.2,1.7,1.9,4.2,1.8,7.3c0,1.6-0.3,3.3-0.9,4.9c-0.5,1.6-1.3,3.1-2.2,4.4
	c-0.9,1.3-2,2.3-3.2,2.9c-1.2,0.7-2.5,0.9-3.8,0.7c-0.5-0.1-1.1-0.2-1.9-0.1c0,0-0.6,0.1-1.6,0.2c-3.9,0.5-7-0.7-9.4-3.5
	c-2.1-2.5-3.1-5.6-3.1-9.3c0-1.8,0.3-3.4,0.8-4.9c0.6-1.6,1.4-2.9,2.4-4c2.4-2.4,5.4-3,9-1.9C13,5.7,13.2,5.8,13.5,5.8z M25.5,21.1
	c0.6-1.6,0.9-3.2,0.9-4.8c0-3.2-0.6-5.7-2-7.4c1.1,1.9,1.6,4.2,1.4,6.8c-0.2,2.4-0.8,4.7-2,6.9c-1.1,2.2-2.5,3.8-4.1,4.8
	c-1.7,1.1-3.3,1.2-4.8,0.4c-0.3-0.1-0.5-0.1-0.8,0.1c-0.5,0.3-0.8,0.5-1,0.6c-1.3,0.6-3.7,0.3-7-0.8c1.9,1.1,4.2,1.6,6.7,1.3
	c0.9-0.1,1.4-0.2,1.6-0.2c0.8,0,1.4,0,1.9,0.1c1.2,0.2,2.5,0,3.7-0.6c1.1-0.7,2.2-1.6,3.1-2.9C24.3,24.2,25,22.7,25.5,21.1z"/>
<path fill-rule="evenodd" clip-rule="evenodd" fill="#4C0101" d="M25.5,21.1c-0.5,1.6-1.3,3-2.2,4.3c-1,1.3-2,2.3-3.1,2.9
	c-1.2,0.7-2.5,0.9-3.7,0.6c-0.5-0.1-1.1-0.2-1.9-0.1c-0.2,0-0.8,0.1-1.6,0.2c-2.6,0.3-4.8-0.1-6.7-1.3c3.3,1.1,5.6,1.3,7,0.8
	c0.2-0.1,0.5-0.3,1-0.6c0.3-0.2,0.5-0.2,0.8-0.1c1.5,0.8,3.1,0.6,4.8-0.4c1.6-1,2.9-2.6,4.1-4.8c1.2-2.2,1.9-4.5,2-6.9
	c0.2-2.6-0.3-4.9-1.4-6.8c1.3,1.7,2,4.2,2,7.4C26.4,17.9,26.1,19.5,25.5,21.1z"/>
<radialGradient id="SVGID_2_" cx="12.1157" cy="16.0957" r="13.8288" fx="16.2915" fy="16.0957" gradientTransform="matrix(0.9835 0 0 -1.0839 0.4935 33.1997)" gradientUnits="userSpaceOnUse">
	<stop  offset="3.921569e-003" style="stop-color:#FC5555"/>
	<stop  offset="0.1137" style="stop-color:#EA3636"/>
	<stop  offset="0.2353" style="stop-color:#DA1A1A"/>
	<stop  offset="0.3412" style="stop-color:#D00909"/>
	<stop  offset="0.4196" style="stop-color:#CC0303"/>
	<stop  offset="0.5255" style="stop-color:#C50303"/>
	<stop  offset="0.6745" style="stop-color:#B20303"/>
	<stop  offset="0.8471" style="stop-color:#930202"/>
	<stop  offset="0.9333" style="stop-color:#820202"/>
</radialGradient>
<path fill-rule="evenodd" clip-rule="evenodd" fill="url(#SVGID_2_)" d="M17.4,5.9C17,6,16.7,6.2,16.4,6.4C16.1,6.6,16,6.8,16,7
	c0,0.2,0.2,0.2,0.6,0c0.7-0.3,1.1-0.5,1.2-0.5c0.1,0,0.2-0.1,0.4-0.1c0.6,0.4,1.1,0.7,1.6,1c1,0.4,2,0.5,3.1,0.3
	c0,0.3-0.1,0.6-0.3,1c-0.4,0.7-1.2,1.4-2.3,1.9c-1.1,0.6-2.3,1-3.5,1c-1.4,0.1-2.6-0.1-3.7-0.8c-2.3-1.4-4.3-1.6-6-0.6
	c-1.5,0.9-2.6,2.5-3.2,4.9c-0.7,2.3-0.8,4.6-0.3,7c0.5,2.5,1.4,4.4,2.8,5.5c-2.6-2-4.2-4.4-4.9-7.3c-0.6-2.4-0.5-5.3,0.2-8.4
	C1.9,11,2.4,10,3.1,9c0.7-1,1.5-1.8,2.4-2.5c2.2-1.7,4.2-1.8,6-0.3c0.7,0.6,1.4,0.9,2,1c0.5,0,1-0.2,1.6-0.5
	c0.3-0.2,0.8-0.5,1.5-0.9c0.2-0.1,0.3-0.1,0.5-0.2C17.2,5.7,17.3,5.8,17.4,5.9z M9.4,5.6C8.9,5.5,8.5,5.5,8,5.6
	c-0.5,0.1-1,0.3-1.4,0.6C6.1,6.6,6,6.9,6.1,7.1C6.3,7.4,6.6,7.4,7,7.2c0.7-0.4,1.1-0.6,1.2-0.6c0.2-0.1,0.7-0.1,1.5,0
	c0.5,0,0.7-0.1,0.6-0.3C10.2,6,9.9,5.8,9.4,5.6z M3.7,8.6c-0.8,1-1.5,2.2-1.9,3.7C1.2,14.1,1,16,1.2,18c0.2,2.3,1,4.6,2.5,6.8
	C1.3,20,0.9,15.9,2.6,12.3c0.4-0.9,1.1-1.9,2-3.1c0.6-0.8,0.9-1.3,0.7-1.5C5,7.5,4.5,7.7,3.7,8.6z"/>
<linearGradient id="SVGID_3_" gradientUnits="userSpaceOnUse" x1="11.1431" y1="-14.6895" x2="12.1571" y2="-14.6895" gradientTransform="matrix(0.2652 0.9642 -0.95 0.3167 -1.485646e-004 -1.586676e-004)">
	<stop  offset="3.921569e-003" style="stop-color:#FFE3E3"/>
	<stop  offset="1" style="stop-color:#FC5A5A"/>
</linearGradient>
<path fill-rule="evenodd" clip-rule="evenodd" fill="url(#SVGID_3_)" d="M18.2,6.5c-0.2,0-0.3,0-0.4,0.1c-0.1,0-0.5,0.2-1.2,0.5
	c-0.4,0.2-0.6,0.1-0.6,0c0-0.3,0.1-0.5,0.4-0.7C16.7,6.2,17,6,17.4,5.9C17.6,6.1,17.9,6.4,18.2,6.5z"/>
<path fill-rule="evenodd" clip-rule="evenodd" fill="#830202" d="M13.8,6.2c0.3,0,0.7,0,1.1-0.2c0.4-0.1,0.8-0.2,1-0.1
	c-0.3,0.1-0.8,0.3-1.4,0.7C14.2,6.9,13.8,7,13.4,7c-0.7,0-1.2-0.3-1.6-0.7c-0.5-0.6-1-0.9-1.5-1c0.9,0.1,1.7,0.3,2.3,0.6
	c0.3,0.1,0.6,0.2,0.8,0.3c0,0.1-0.1,0.3-0.1,0.4c-0.1,0-0.2-0.1-0.2-0.1c-0.3-0.1-0.5-0.2-0.6-0.2c0.2,0.1,0.4,0.2,0.5,0.4
	c0.1,0.1,0.3,0.2,0.5,0.2c0.2,0,0.4,0,0.6-0.1c0.3-0.2,0.5-0.3,0.5-0.3c-0.1,0-0.3,0-0.5,0.1c-0.1,0-0.3,0.1-0.4,0.1
	C13.7,6.5,13.8,6.3,13.8,6.2z"/>
<radialGradient id="SVGID_4_" cx="-2.1836" cy="-14.8135" r="0.9307" fx="-1.9391" fy="-14.8135" gradientTransform="matrix(-0.5021 0.8416 0.7664 0.5391 23.782 16.3817)" gradientUnits="userSpaceOnUse">
	<stop  offset="0.1961" style="stop-color:#3C0101"/>
	<stop  offset="0.3059" style="stop-color:#490101"/>
	<stop  offset="0.5725" style="stop-color:#630202"/>
	<stop  offset="0.8118" style="stop-color:#720202"/>
	<stop  offset="1" style="stop-color:#780202"/>
</radialGradient>
<path fill-rule="evenodd" clip-rule="evenodd" fill="url(#SVGID_4_)" d="M13.7,6.6c0.1,0,0.2,0,0.4-0.1c0.2-0.1,0.4-0.1,0.5-0.1
	c-0.1,0-0.2,0.1-0.5,0.3c-0.2,0.1-0.4,0.2-0.6,0.1c-0.3,0-0.4-0.1-0.5-0.2c-0.2-0.2-0.3-0.4-0.5-0.4c0.2,0,0.4,0.1,0.6,0.2
	c0.1,0,0.2,0.1,0.2,0.1c0,0,0,0.1,0,0.1c0,0.1,0.1,0.1,0.2,0.1c0.1,0,0.2,0,0.2,0C13.6,6.7,13.7,6.7,13.7,6.6z"/>
<linearGradient id="SVGID_5_" gradientUnits="userSpaceOnUse" x1="8.7744" y1="-4.8291" x2="10.6002" y2="-4.8291" gradientTransform="matrix(0.4036 0.9149 -0.8878 0.4651 -2.875924e-004 -5.217195e-004)">
	<stop  offset="3.921569e-003" style="stop-color:#FFDCDC"/>
	<stop  offset="1" style="stop-color:#FC5555"/>
</linearGradient>
<path fill-rule="evenodd" clip-rule="evenodd" fill="url(#SVGID_5_)" d="M9.4,5.6c0.5,0.1,0.8,0.3,0.9,0.6c0.1,0.2-0.1,0.3-0.6,0.3
	c-0.8,0-1.3,0-1.5,0C8.1,6.6,7.7,6.8,7,7.2C6.6,7.4,6.3,7.4,6.1,7.1C6,6.9,6.1,6.6,6.6,6.2C7.1,5.9,7.5,5.7,8,5.6
	C8.5,5.5,8.9,5.5,9.4,5.6z"/>
<linearGradient id="SVGID_6_" gradientUnits="userSpaceOnUse" x1="4.9946" y1="13.9639" x2="10.1881" y2="13.9639" gradientTransform="matrix(0.9487 0.3162 -0.2687 0.9645 2.193451e-004 -2.529025e-004)">
	<stop  offset="3.921569e-003" style="stop-color:#FEC6C6"/>
	<stop  offset="0.7686" style="stop-color:#FC5151"/>
</linearGradient>
<path fill-rule="evenodd" clip-rule="evenodd" fill="url(#SVGID_6_)" d="M3.7,8.6C4.5,7.7,5,7.5,5.3,7.8c0.2,0.2-0.1,0.7-0.7,1.5
	c-0.9,1.1-1.6,2.2-2,3.1C0.9,15.9,1.3,20,3.7,24.7c-1.4-2.2-2.2-4.4-2.5-6.8c-0.2-2,0-3.9,0.6-5.7C2.3,10.8,2.9,9.5,3.7,8.6z"/>
<linearGradient id="SVGID_7_" gradientUnits="userSpaceOnUse" x1="-4.6924" y1="21.8262" x2="-0.9793" y2="21.8262" gradientTransform="matrix(-9.885120e-002 -0.9951 1.0041 -8.230363e-003 1.077652e-004 3.188401e-004)">
	<stop  offset="0" style="stop-color:#7CC750"/>
	<stop  offset="0.2" style="stop-color:#65AB3B"/>
	<stop  offset="0.5412" style="stop-color:#43811B"/>
	<stop  offset="0.8078" style="stop-color:#2E6807"/>
	<stop  offset="0.9647" style="stop-color:#265E00"/>
</linearGradient>
<path fill-rule="evenodd" clip-rule="evenodd" fill="url(#SVGID_7_)" d="M22.9,7.8c-1.1,0.2-2.2,0.1-3.1-0.3c-0.5-0.2-1.1-0.5-1.6-1
	c-0.3-0.2-0.5-0.4-0.8-0.6c-0.1-0.1-0.2-0.2-0.3-0.3c-0.1-0.1-0.2-0.2-0.3-0.3c-0.5-0.5-1.1-1-1.6-1.7c0,0,0.1,0,0.1,0
	c1.7,1.8,3.1,3,4.5,3.6c1,0.4,2.1,0.5,3.2,0.2c1.3-0.4,2.3-0.6,3-0.6c1.2-0.1,2.5,0.2,3.8,0.9c-0.5-0.5-1-1-1.6-1.5
	c-0.2-0.2-0.5-0.4-0.7-0.6c0.3,0.2,0.7,0.4,1,0.6c-1.2-0.9-2.4-1.7-3.5-2.3c0.4-0.2,0.8-0.2,1-0.2c0.5,0.1,1,0.3,1.5,0.8
	c-0.6-0.6-1.1-0.9-1.5-0.9c-0.3,0-0.7,0.1-1.1,0.2C23.9,3.5,23,3.2,22.2,3c0.5-0.3,0.9-0.5,1.2-0.5c0.6-0.1,1.2,0.2,2,0.7
	c-0.8-0.6-1.5-0.8-2.1-0.8c-0.3,0-0.8,0.2-1.3,0.6c-0.5-0.1-0.9-0.2-1.4-0.3c-0.3,0-0.7-0.1-1.1,0c0.4-0.6,0.7-1,1.1-1.1
	c0.5-0.3,1.3-0.3,2.2,0c-1-0.4-1.7-0.4-2.3-0.1c-0.3,0.2-0.7,0.6-1.2,1.2c-0.8,0-1.8,0.2-2.8,0.4c0.3-0.7,0.7-1.2,1-1.4
	C18,1.2,18.8,1,19.8,1c-1-0.1-1.9,0-2.4,0.4c-0.3,0.3-0.6,0.8-1,1.6C16,3.1,15.5,3.3,15,3.4c0.6-1.3,1.6-2.2,3-2.5
	c1.3-0.4,2.7-0.3,4.3,0.2c1.6,0.5,3,1.3,4.4,2.5C28.1,4.9,29.2,6.3,30,8c-1.3-0.8-2.6-1.1-3.9-0.9c-0.6,0.1-1.5,0.2-2.6,0.6
	c-0.1,0-0.3,0.1-0.4,0.1C23.1,7.7,23,7.8,22.9,7.8z"/>
<linearGradient id="SVGID_8_" gradientUnits="userSpaceOnUse" x1="4.0923" y1="-21.4746" x2="8.8905" y2="-21.4746" gradientTransform="matrix(0.1428 0.9897 -1.001 6.458326e-002 0 1.990795e-005)">
	<stop  offset="0.149" style="stop-color:#276600"/>
	<stop  offset="0.4431" style="stop-color:#428B19"/>
	<stop  offset="1" style="stop-color:#7CDB50"/>
</linearGradient>
<path fill-rule="evenodd" clip-rule="evenodd" fill="url(#SVGID_8_)" d="M21.3,3c0.9,0.2,1.8,0.5,2.8,0.9c0.3,0.6,0.5,1,0.8,1.3
	c0.4,0.4,0.9,0.7,1.5,0.9c-0.7-0.2-1.2-0.6-1.5-1c-0.2-0.2-0.4-0.6-0.7-1.2c0.6,0.3,1.3,0.6,2,1c0.2,0.4,0.3,0.7,0.5,0.9
	c0.2,0.2,0.5,0.3,0.8,0.4c-0.3-0.1-0.5-0.3-0.7-0.5c-0.1-0.2-0.3-0.4-0.4-0.8c0.4,0.2,0.8,0.4,1.2,0.7c0.3,0.2,0.5,0.4,0.7,0.6
	c0.6,0.5,1.1,1,1.6,1.5c-1.3-0.7-2.6-1-3.8-0.9c-0.7,0.1-1.7,0.3-3,0.6c-1.1,0.2-2.2,0.1-3.2-0.2c-1.3-0.5-2.8-1.7-4.5-3.6
	c0.3-0.1,0.6-0.2,0.9-0.3c0.5,0.9,1,1.5,1.4,1.9c0.7,0.7,1.6,1.2,2.7,1.6c-1.1-0.5-2-1-2.6-1.6c-0.4-0.4-0.9-1.1-1.4-1.9
	C16.9,3.2,17.4,3.1,18,3c0.6,0.9,1.2,1.5,1.7,1.9c0.7,0.6,1.6,1,2.7,1.2c-1-0.3-1.9-0.7-2.6-1.3c-0.5-0.4-1.1-1-1.6-1.8
	c1-0.2,1.8-0.2,2.6-0.1C20.8,3,21,3,21.1,3c0.4,0.8,0.8,1.4,1.1,1.7c0.6,0.6,1.3,1,2.2,1.2c-0.9-0.3-1.6-0.7-2.2-1.3
	C22,4.3,21.7,3.8,21.3,3z"/>
<path fill-rule="evenodd" clip-rule="evenodd" fill="#175200" d="M26.2,5c-0.7-0.4-1.3-0.7-2-1c0-0.1-0.1-0.1-0.1-0.2l0,0
	c0,0,0,0,0,0.1c-1-0.4-1.9-0.7-2.8-0.9c0,0,0-0.1,0-0.1c0,0-0.1,0-0.1,0c0,0,0,0,0,0.1C21,3,20.8,3,20.7,2.9C19.9,2.8,19,2.9,18.1,3
	c0,0,0-0.1-0.1-0.1c0,0-0.1,0-0.1,0c0,0,0,0.1,0,0.1c-0.5,0.1-1.1,0.2-1.7,0.4c0,0-0.1-0.1-0.1-0.1l0,0c1.8-0.5,3.2-0.7,4.5-0.5
	c1,0.1,2.2,0.5,3.5,1c-1.3-0.6-2.5-0.9-3.5-1.1c-1.4-0.2-3.2,0.1-5.5,0.8c-0.1,0-0.1,0,0,0c0,0,0,0,0,0c0.3-0.1,0.6-0.2,0.9-0.3
	c0,0.1,0.1,0.1,0.1,0.1c-0.3,0.1-0.6,0.2-0.9,0.3c0,0-0.1,0-0.1,0c-0.1,0-0.1,0-0.1-0.1c-0.1-0.1-0.1-0.1,0-0.1
	c0.5-0.2,1-0.3,1.4-0.4c0.4-0.8,0.7-1.3,1-1.6c0.6-0.4,1.4-0.5,2.4-0.4c-1,0-1.7,0.2-2.2,0.6c-0.3,0.2-0.7,0.7-1,1.4
	c1-0.3,2-0.4,2.8-0.4c0.5-0.6,0.8-1,1.2-1.2c0.6-0.3,1.4-0.3,2.3,0.1c-1-0.3-1.7-0.3-2.2,0C20.3,1.6,20,2,19.6,2.6
	c0.4,0,0.7,0,1.1,0c0.4,0.1,0.9,0.1,1.4,0.3c0.5-0.4,1-0.6,1.3-0.6c0.6-0.1,1.3,0.2,2.1,0.8c-0.8-0.5-1.5-0.8-2-0.7
	c-0.3,0-0.7,0.2-1.2,0.5C23,3.2,23.9,3.5,24.8,4c0.4-0.2,0.8-0.3,1.1-0.2c0.5,0.1,1,0.4,1.5,0.9c-0.6-0.5-1.1-0.8-1.5-0.8
	c-0.3,0-0.6,0-1,0.2c1.1,0.6,2.2,1.3,3.5,2.3c-0.3-0.2-0.7-0.4-1-0.6C27,5.5,26.6,5.2,26.2,5C26.2,5,26.2,4.9,26.2,5L26.2,5
	C26.2,4.9,26.2,4.9,26.2,5z"/>
<radialGradient id="SVGID_9_" cx="18.8174" cy="0.7559" r="7.0852" gradientTransform="matrix(0.9835 0 0 0.9682 0.4935 8.285332e-003)" gradientUnits="userSpaceOnUse">
	<stop  offset="0" style="stop-color:#17A800"/>
	<stop  offset="0.2745" style="stop-color:#17A500"/>
	<stop  offset="0.4627" style="stop-color:#179C00"/>
	<stop  offset="0.6275" style="stop-color:#178D00"/>
	<stop  offset="0.7765" style="stop-color:#177700"/>
	<stop  offset="0.9137" style="stop-color:#175B00"/>
	<stop  offset="0.9529" style="stop-color:#175200"/>
</radialGradient>
<path fill-rule="evenodd" clip-rule="evenodd" fill="url(#SVGID_9_)" d="M26.2,5C26.2,4.9,26.2,4.9,26.2,5L26.2,5
	C26.2,4.9,26.2,5,26.2,5c0.2,0.4,0.4,0.6,0.5,0.8c0.2,0.2,0.4,0.4,0.7,0.5c-0.3-0.1-0.6-0.3-0.8-0.4C26.5,5.6,26.3,5.4,26.2,5z
	 M21.3,3c0.4,0.8,0.7,1.3,1,1.6c0.5,0.6,1.2,1,2.2,1.3c-0.9-0.2-1.7-0.6-2.2-1.2c-0.3-0.3-0.7-0.9-1.1-1.7c0,0,0-0.1,0-0.1
	C21.2,2.9,21.2,2.9,21.3,3C21.3,3,21.3,3,21.3,3z M24.2,4c0.2,0.6,0.5,0.9,0.7,1.2c0.4,0.4,0.9,0.8,1.5,1c-0.7-0.2-1.2-0.5-1.5-0.9
	C24.6,5,24.4,4.5,24.2,4c-0.1-0.1-0.1-0.1-0.1-0.1l0,0C24.2,3.9,24.2,3.9,24.2,4z M16.1,3.4c0,0-0.1-0.1-0.1-0.1c0,0,0.1,0,0.1,0
	l0,0c0,0,0,0.1,0.1,0.1c0.5,0.9,0.9,1.5,1.4,1.9c0.7,0.6,1.5,1.1,2.6,1.6c-1.1-0.4-2-0.9-2.7-1.6C17.1,5,16.6,4.3,16.1,3.4z M18.1,3
	c0.6,0.8,1.1,1.4,1.6,1.8c0.7,0.6,1.6,1,2.6,1.3c-1.1-0.2-2-0.6-2.7-1.2c-0.5-0.3-1.1-1-1.7-1.9c0,0,0-0.1,0-0.1
	c0-0.1,0.1-0.1,0.1,0C18,2.9,18.1,3,18.1,3z"/>
<radialGradient id="SVGID_10_" cx="-21.8579" cy="5.5493" r="6.5588" gradientTransform="matrix(-0.9054 -0.3824 0.1987 -1.0726 0.4045 0.4803)" gradientUnits="userSpaceOnUse">
	<stop  offset="0.4157" style="stop-color:#458700"/>
	<stop  offset="1" style="stop-color:#225E00"/>
</radialGradient>
<path fill-rule="evenodd" clip-rule="evenodd" fill="url(#SVGID_10_)" d="M16.2,3.3c0,0-0.1,0-0.1,0c-0.3,0.1-0.6,0.2-0.9,0.3
	c0,0,0,0,0,0c0,0,0,0,0,0c2.2-0.7,4-1,5.5-0.8c1.1,0.1,2.3,0.5,3.5,1.1c-1.3-0.6-2.4-0.9-3.5-1C19.4,2.6,17.9,2.8,16.2,3.3z"/>
<linearGradient id="SVGID_11_" gradientUnits="userSpaceOnUse" x1="14.2461" y1="-4.2168" x2="15.1385" y2="-4.2168" gradientTransform="matrix(0.8716 0.4903 -0.4269 0.9072 6.318092e-006 1.903474e-004)">
	<stop  offset="7.058824e-002" style="stop-color:#B27676"/>
	<stop  offset="0.1882" style="stop-color:#A66060"/>
	<stop  offset="0.4353" style="stop-color:#862626"/>
	<stop  offset="0.5569" style="stop-color:#750808"/>
	<stop  offset="0.9294" style="stop-color:#590606"/>
</linearGradient>
<path fill-rule="evenodd" clip-rule="evenodd" fill="url(#SVGID_11_)" d="M13.4,6.1c0-0.1,0.1-0.2,0.1-0.3c0.7-2.2,1.2-3.7,1.5-4.4
	C15.4,0.3,15.8-0.2,16,0c0.3,0.3,0.4,0.4,0.4,0.5v0c0-0.1-0.1-0.2-0.1-0.2c-0.1-0.1-0.2-0.2-0.2-0.2C15.9,0,15.9,0,15.8,0
	c0,0,0,0.1,0,0.2C15.9,0.4,16,0.5,16,0.5c0,0,0.1,0.1,0.3,0.2h0c0,0.1-0.1,0.3-0.2,0.5c-0.7,0.9-1.3,2.1-1.9,3.6
	c-0.1,0.4-0.3,0.8-0.4,1.1c0,0.1-0.1,0.2-0.1,0.2c0,0.2-0.1,0.3-0.1,0.4c0,0,0,0.1,0,0.1c0,0.1-0.1,0.1-0.2,0
	c-0.1,0-0.2-0.1-0.2-0.1c0,0,0-0.1,0-0.1C13.3,6.4,13.3,6.2,13.4,6.1z M15.7,0.1c-0.3,0.4-0.8,1.4-1.3,2.9c-0.3,0.7-0.6,1.6-0.9,2.8
	c0,0.1-0.1,0.2-0.1,0.3c0,0.1-0.1,0.2-0.1,0.3c0,0.1,0,0.1,0,0c0,0,0.1-0.1,0.1-0.1c0-0.1,0-0.1,0-0.2c0-0.1,0.1-0.2,0.1-0.3
	c0.2-0.5,0.3-1.1,0.6-1.7c0.5-1.6,1-2.8,1.5-3.7C15.7,0.1,15.8,0,15.7,0.1z"/>
<radialGradient id="SVGID_12_" cx="16.0986" cy="0.2007" r="0.487" gradientTransform="matrix(0.9835 0 0 -1.0791 0.4935 0.4133)" gradientUnits="userSpaceOnUse">
	<stop  offset="0" style="stop-color:#B88C81"/>
	<stop  offset="0.1961" style="stop-color:#B3857B"/>
	<stop  offset="0.4784" style="stop-color:#A7736B"/>
	<stop  offset="0.8039" style="stop-color:#925451"/>
	<stop  offset="1" style="stop-color:#833F3F"/>
</radialGradient>
<path fill-rule="evenodd" clip-rule="evenodd" fill="url(#SVGID_12_)" d="M16.4,0.7L16.4,0.7c-0.2-0.1-0.4-0.2-0.4-0.2
	c-0.1,0-0.1-0.1-0.2-0.2c-0.1-0.1-0.1-0.2,0-0.2c0.1-0.1,0.1,0,0.2,0c0.1,0,0.1,0.1,0.2,0.2C16.3,0.4,16.4,0.5,16.4,0.7L16.4,0.7
	C16.4,0.6,16.4,0.7,16.4,0.7z"/>
<linearGradient id="SVGID_13_" gradientUnits="userSpaceOnUse" x1="-6.1489" y1="-14.6816" x2="0.4824" y2="-14.6816" gradientTransform="matrix(-0.3471 0.9378 -0.9164 -0.4051 -4.222691e-004 4.649162e-005)">
	<stop  offset="0" style="stop-color:#DBB4B4"/>
	<stop  offset="0.1412" style="stop-color:#D8B0B0"/>
	<stop  offset="0.2941" style="stop-color:#D1A3A3"/>
	<stop  offset="0.4549" style="stop-color:#C48D8D"/>
	<stop  offset="0.6157" style="stop-color:#B26F6F"/>
	<stop  offset="0.7804" style="stop-color:#9B4848"/>
	<stop  offset="0.9451" style="stop-color:#7F1A1A"/>
	<stop  offset="1" style="stop-color:#750808"/>
</linearGradient>
<path fill-rule="evenodd" clip-rule="evenodd" fill="url(#SVGID_13_)" d="M15.7,0.1c0.1-0.1,0,0-0.1,0.3c-0.5,0.9-1,2.2-1.5,3.7
	c-0.2,0.6-0.4,1.2-0.6,1.7c0,0.1,0,0.2-0.1,0.3c0,0.1,0,0.1,0,0.2c0,0.1-0.1,0.1-0.1,0.1c-0.1,0-0.1,0,0,0c0-0.1,0.1-0.2,0.1-0.3
	c0-0.1,0.1-0.2,0.1-0.3c0.4-1.2,0.7-2.1,0.9-2.8C14.9,1.5,15.4,0.6,15.7,0.1z"/>
<path fill-rule="evenodd" clip-rule="evenodd" fill="none" stroke="#780202" stroke-width="0.95" d="M23.5,7.6C24,8,24.4,8.5,24.7,9
	c1.2,1.7,1.9,4.2,1.8,7.3c0,1.6-0.3,3.3-0.9,4.9c-0.5,1.6-1.3,3.1-2.2,4.4c-0.9,1.3-2,2.3-3.2,2.9c-1.2,0.7-2.5,0.9-3.8,0.7
	c-0.5-0.1-1.1-0.2-1.9-0.1c0,0-0.6,0.1-1.6,0.2c-3.9,0.5-7-0.7-9.4-3.5c-2.1-2.5-3.1-5.6-3.1-9.3c0-1.8,0.3-3.4,0.8-4.9
	c0.6-1.6,1.4-2.9,2.4-4c2.4-2.4,5.4-3,9-1.9c0.2,0.1,0.4,0.2,0.7,0.2 M13.9,5.9c0.1,0,0.3,0,0.4,0c0.3,0,0.6-0.1,1.1-0.2
	c0.4-0.1,0.9-0.2,1.3-0.3"/>
<path fill-rule="evenodd" clip-rule="evenodd" fill="none" stroke="#353802" stroke-width="0.1" stroke-linecap="square" stroke-miterlimit="10" d="
	M22.9,7.8c0.1,0,0.1,0,0.2,0c0.1,0,0.3-0.1,0.4-0.1c1.1-0.3,1.9-0.5,2.6-0.6C27.4,6.9,28.7,7.2,30,8c-0.8-1.6-1.9-3.1-3.3-4.3
	c-1.4-1.2-2.9-2.1-4.4-2.5c-1.6-0.5-3-0.6-4.3-0.2c-1.4,0.4-2.4,1.2-3,2.5 M16.8,5.4c-0.5-0.5-1.1-1-1.6-1.7 M17.1,5.7
	c-0.1-0.1-0.2-0.2-0.3-0.3 M17.1,5.7c0.1,0.1,0.2,0.2,0.3,0.3c0.3,0.2,0.5,0.4,0.8,0.6c0.6,0.4,1.1,0.7,1.6,1c1,0.4,2,0.5,3.1,0.3"
	/>
</svg>
