<?xml version="1.0" encoding="utf-8"?>
<!-- Generator: Adobe Illustrator 20.0.0, SVG Export Plug-In . SVG Version: 6.00 Build 0)  -->
<svg version="1.1" id="Layer_1" xmlns="http://www.w3.org/2000/svg" xmlns:xlink="http://www.w3.org/1999/xlink" x="0px" y="0px"
	 viewBox="0 0 351 160" style="enable-background:new 0 0 351 160;" xml:space="preserve">
<style type="text/css">
	.st0{fill:#FFFFFF;}
</style>
<g>
	<path class="st0" d="M49.1,98.3c-10.5,0-19.4-3.7-26.9-11.2C14.8,79.7,11,70.7,11,60.2s3.7-19.4,11.2-26.9
		c7.4-7.4,16.4-11.2,26.9-11.2S68.5,25.8,76,33.3c7.4,7.4,11.2,16.4,11.2,26.9S83.5,79.6,76,87.1S59.6,98.3,49.1,98.3z M49.1,43.3
		c-4.6,0-8.6,1.6-12,4.9c-3.3,3.3-4.9,7.3-4.9,12c0,4.6,1.6,8.6,4.9,12c3.3,3.3,7.3,4.9,12,4.9c4.6,0,8.6-1.6,12-4.9
		c3.3-3.3,4.9-7.3,4.9-12c0-4.6-1.6-8.6-4.9-12C57.7,45,53.7,43.3,49.1,43.3z"/>
	<path class="st0" d="M127.2,98.3c-9.3,0-17.2-3.2-23.8-9.8c-6.6-6.6-9.9-14.5-9.9-23.8V26.4c0-1.2,0.4-2.2,1.2-3
		c0.9-0.8,1.8-1.2,3-1.2h12.7c1.2,0,2.2,0.4,3,1.2c0.8,0.8,1.2,1.8,1.2,3v38.2c0,3.5,1.2,6.4,3.7,8.9c2.5,2.4,5.5,3.7,8.9,3.6
		c3.4-0.1,6.3-1.3,8.7-3.8c2.4-2.4,3.6-5.4,3.6-8.8V26.4c0-1.2,0.4-2.2,1.3-3c0.8-0.8,1.8-1.2,3-1.2h12.7c1.2,0,2.2,0.4,3,1.2
		c0.8,0.8,1.2,1.8,1.2,3v37.9c0,9.3-3.3,17.3-9.8,23.9C144.4,94.9,136.5,98.3,127.2,98.3z"/>
	<path class="st0" d="M184,22.2c1.2,0,2.2,0.4,3,1.2c0.8,0.8,1.2,1.8,1.2,3v67.7c0,1.1-0.4,2.1-1.2,3c-0.8,0.8-1.8,1.2-3,1.2h-12.7
		c-1.1,0-2.1-0.4-3-1.2c-0.8-0.9-1.2-1.8-1.2-3V26.4c0-1.2,0.4-2.2,1.2-3c0.9-0.8,1.8-1.2,3-1.2C171.3,22.2,184,22.2,184,22.2z"/>
	<path class="st0" d="M217.6,64.8c-0.3-0.4-0.7-0.6-1.2-0.4c-0.5,0.2-0.7,0.5-0.7,1v28.7c0,1.1-0.4,2.1-1.2,3
		c-0.8,0.8-1.8,1.2-3,1.2h-12.7c-1.1,0-2.1-0.4-3-1.2c-0.8-0.9-1.2-1.8-1.2-3V26.4c0-1.2,0.4-2.2,1.2-3c0.9-0.8,1.8-1.2,3-1.2h12.6
		c1.5,0,2.6,0.6,3.5,1.8L237,55.7c0.3,0.4,0.7,0.6,1.2,0.4c0.5-0.2,0.7-0.5,0.7-1V26.4c0-1.2,0.4-2.2,1.2-3c0.9-0.8,1.9-1.2,3-1.2
		h12.7c1.2,0,2.2,0.4,3,1.2c0.8,0.8,1.2,1.8,1.2,3v67.7c0,1.1-0.4,2.1-1.2,3c-0.8,0.8-1.8,1.2-3,1.2h-12.6c-1.5,0-2.6-0.6-3.5-1.8
		L217.6,64.8z"/>
	<path class="st0" d="M304.4,98.3c-10.5,0-19.4-3.7-26.9-11.2c-7.4-7.4-11.2-16.4-11.2-26.9s3.7-19.4,11.2-26.9
		c7.4-7.4,16.4-11.2,26.9-11.2s19.4,3.7,26.9,11.2c7.4,7.4,11.2,16.4,11.2,26.9s-3.7,19.4-11.2,26.9
		C323.9,94.6,314.9,98.3,304.4,98.3z M304.4,43.3c-4.6,0-8.6,1.6-12,4.9c-3.3,3.3-4.9,7.3-4.9,12c0,4.6,1.6,8.6,4.9,12
		c3.3,3.3,7.3,4.9,12,4.9c4.6,0,8.6-1.6,12-4.9c3.3-3.3,4.9-7.3,4.9-12c0-4.6-1.6-8.6-4.9-12C313.1,45,309.1,43.3,304.4,43.3z"/>
</g>
<g>
	<path class="st0" d="M30.3,107.9l-16.2,16.1v-1.2L29,107.9H30.3z M26.5,107.9h1.3l-13.6,13.6v-1.3L26.5,107.9z M14.1,117.8l9.9-9.9
		h1.2L14.1,119V117.8z M14.1,115.3l7.4-7.4h1.3l-8.6,8.6V115.3z M14.1,112.8l4.8-4.8h1.2l-6.1,6.1V112.8z M14.1,110.3l2.3-2.3h1.3
		l-3.6,3.6V110.3z M14.1,107.9h1l-1,1V107.9z M31.5,108c0.4,0,0.7,0.1,1.1,0.1l-9,9h-0.3v0.3l-9.2,9.2v-1.2L31.5,108z M40.8,113.8
		c0.2,0.2,0.3,0.5,0.5,0.8l-26.5,26.5h-0.6v-0.6l17-17c1.2-0.3,1.9-1.1,2.2-2.2L40.8,113.8z M23.3,118.7v1.2l-9.2,9.2v-1.3
		L23.3,118.7z M23.3,121.2v1.3l-9.2,9.2v-1.2L23.3,121.2z M29.7,123.6l-15.6,15.6v-1.3l14.4-14.4H29.7z M27.2,123.6l-13.1,13.1v-1.2
		L26,123.6H27.2z M24.7,123.6l-10.6,10.6v-1.3l9.3-9.3H24.7z M23.3,133.8v1.3l-6.1,6.1H16L23.3,133.8z M23.3,136.3v1.2l-3.5,3.6
		h-1.3L23.3,136.3z M23.3,138.8v1.2l-1,1h-1.2L23.3,138.8z M25.6,132.8h-1.3l17.4-17.3c0.1,0.3,0.2,0.6,0.3,0.9L25.6,132.8z
		 M33.6,108.4c0.3,0.1,0.6,0.2,1,0.3l-8.5,8.4h-1.2L33.6,108.4z M28.1,132.8h-1.2l15.5-15.5c0.1,0.3,0.2,0.7,0.2,1L28.1,132.8z
		 M35.5,109.1c0.3,0.1,0.5,0.3,0.8,0.4l-7.7,7.7h-1.2L35.5,109.1z M29.3,132.8l13.3-13.3c0,0.3,0,0.6,0,0.9c0,0.1,0,0.2,0,0.3
		l-12.1,12.1c-0.1,0-0.2,0-0.3,0H29.3z M31,117.2c-0.2-0.1-0.5-0.1-0.8-0.1h-0.3l7.2-7.2c0.2,0.2,0.5,0.3,0.7,0.5L31,117.2z
		 M32.6,118.2c-0.2-0.2-0.4-0.4-0.7-0.6l6.6-6.6c0.2,0.2,0.4,0.4,0.6,0.6L32.6,118.2z M42.6,122.1c-0.1,0.5-0.2,1.1-0.3,1.6
		l-8.7,8.7c-0.5,0.1-1.1,0.2-1.6,0.3L42.6,122.1z M33.5,119.9c-0.1-0.3-0.2-0.6-0.3-0.9l6.6-6.6c0.2,0.2,0.4,0.5,0.6,0.7L33.5,119.9
		z M41.5,125.7c-1.3,2.6-3.2,4.6-5.9,5.9L41.5,125.7z"/>
	<path class="st0" d="M61.5,107.9c0.2,0,0.4,0,0.6,0c0.2,0,0.4,0,0.7,0l-17.2,17.2c0-0.2,0-0.5,0-0.7c0-0.2,0-0.4,0-0.6L61.5,107.9z
		 M63.9,108c0.4,0,0.7,0.1,1.1,0.2l-19.3,19.3c-0.1-0.3-0.1-0.7-0.2-1.1L63.9,108z M45.6,122.6c0.1-0.5,0.1-1,0.3-1.5l12.8-12.8
		c0.5-0.1,1-0.2,1.5-0.2L45.6,122.6z M66.1,108.4c0.3,0.1,0.6,0.2,1,0.3l-20.8,20.8c-0.1-0.3-0.2-0.6-0.3-1L66.1,108.4z M54.8,109.6
		c0.7-0.3,1.4-0.6,2.1-0.9l-10.6,10.6c0.2-0.7,0.5-1.4,0.9-2.1L54.8,109.6z M46.9,131.3c-0.1-0.3-0.3-0.6-0.4-0.9l8.7-8.7
		c-0.2,0.5-0.4,1.1-0.4,1.7L46.9,131.3z M54.7,124.8c0,0.4,0.1,0.8,0.1,1.1l-7,7.1c-0.2-0.3-0.3-0.5-0.4-0.8L54.7,124.8z
		 M55.1,126.9c0.1,0.3,0.2,0.6,0.4,0.9l-6.7,6.7c-0.2-0.2-0.3-0.5-0.5-0.7L55.1,126.9z M55.9,128.6c0.2,0.2,0.3,0.5,0.5,0.7
		l-6.5,6.5c-0.2-0.2-0.4-0.4-0.6-0.7L55.9,128.6z M57.1,130c0.2,0.2,0.4,0.4,0.7,0.6l-6.6,6.5c-0.2-0.2-0.4-0.4-0.6-0.6L57.1,130z
		 M58.6,131c0.3,0.1,0.5,0.3,0.8,0.4l-6.8,6.7c-0.2-0.2-0.5-0.3-0.7-0.5L58.6,131z M60.4,131.7c0.4,0.1,0.7,0.2,1.1,0.2l-7.3,7.3
		c-0.3-0.2-0.5-0.3-0.8-0.5L60.4,131.7z M62.8,131.8c0.5,0,1.1-0.2,1.6-0.3l-8.4,8.4c-0.3-0.1-0.6-0.2-0.9-0.4L62.8,131.8z
		 M77.8,119.3c0.1,0.3,0.2,0.6,0.3,1l-20.3,20.3c-0.3-0.1-0.6-0.2-1-0.3L77.8,119.3z M59.9,141c-0.4,0-0.7-0.1-1.1-0.2l19.5-19.5
		c0.1,0.4,0.1,0.7,0.2,1.1L59.9,141z M68,109c0.3,0.1,0.6,0.2,0.9,0.3l-7.8,7.8c-0.6,0.1-1.1,0.2-1.7,0.5L68,109z M62.3,141.1
		c-0.2,0-0.2,0-0.3,0c-0.3,0-0.6,0-1,0l17.5-17.5c0,0.3,0,0.7,0,1v0.3L62.3,141.1z M69.7,109.8c0.3,0.2,0.5,0.3,0.8,0.5l-7.1,7
		c-0.4-0.1-0.7-0.1-1.1-0.1L69.7,109.8z M65.1,140.8c-0.5,0.1-1,0.2-1.4,0.2l14.9-14.9c0,0.5-0.1,1-0.2,1.4L65.1,140.8z M71.3,110.7
		c0.2,0.2,0.5,0.3,0.7,0.5l-6.7,6.7c-0.3-0.2-0.6-0.3-0.9-0.4L71.3,110.7z M72.7,111.8c0.2,0.2,0.4,0.4,0.6,0.6l-6.5,6.5
		c-0.2-0.2-0.5-0.4-0.7-0.5L72.7,111.8z M68.8,139.7c-0.6,0.3-1.3,0.5-2,0.7L78,129.3c-0.2,0.7-0.4,1.3-0.7,2L68.8,139.7z M74,113
		c0.2,0.2,0.4,0.4,0.6,0.6l-6.5,6.6c-0.2-0.2-0.4-0.5-0.6-0.7L74,113z M75.2,114.4c0.2,0.2,0.4,0.5,0.5,0.7l-6.8,6.8
		c-0.1-0.3-0.3-0.6-0.4-0.9L75.2,114.4z M77.1,117.5c0.1,0.3,0.3,0.6,0.4,0.9l-8.4,8.4c0.2-0.5,0.3-1,0.3-1.6L77.1,117.5z
		 M76.2,115.9c0.2,0.2,0.3,0.5,0.5,0.8l-7.3,7.3c0-0.4-0.1-0.7-0.2-1.1L76.2,115.9z M75.5,134.2c-1,1.5-2.3,2.7-3.7,3.7L75.5,134.2z
		"/>
	<path class="st0" d="M97.6,107.9c0.4,0,0.7,0,1.1,0l-17.2,17.2V124L97.6,107.9L97.6,107.9z M94.9,107.9h1.3l-14.8,14.8v-1.3
		L94.9,107.9z M81.4,118.9l11-11h1.2l-12.2,12.2V118.9z M91.1,107.9l-9.7,9.7v-1.2l8.5-8.5H91.1z M87.4,107.9h1.3l-7.2,7.2v-1.3
		L87.4,107.9z M81.4,111.4l3.4-3.4h1.2l-4.7,4.7V111.4z M82.3,107.9h1.3l-2.2,2.2v-1.3L82.3,107.9z M90.6,118.5l-9.2,9.2v-1.3
		l9.2-9.2V118.5z M81.4,129l9.2-9.2v1.2l-9.2,9.2V129z M81.4,131.5l9.2-9.2v1.3l-9.2,9.2V131.5z M97.6,123.6c0.2,0,0.4,0,0.6-0.1
		l-16.8,16.8v-1.3l15.5-15.5H97.6z M81.4,136.6l12.9-13h1.3l-14.2,14.2V136.6z M81.4,134l10.4-10.4h1.2l-11.7,11.7V134z
		 M108.5,114.5c0.1,0.3,0.3,0.6,0.4,0.8l-17.5,17.5h-0.8v0.8l-7.5,7.5h-1.2L108.5,114.5z M90.6,136.1l-5,5h-1.3l6.2-6.2V136.1z
		 M90.6,138.6l-2.5,2.5H87l3.7-3.7V138.6z M90.6,141.1h-1.2l1.2-1.2V141.1z M99.8,108.1c0.3,0.1,0.7,0.1,1,0.2l-8.8,8.8h-1.3
		L99.8,108.1z M94,132.8h-1.2l16.6-16.6c0.1,0.3,0.2,0.6,0.3,1L94,132.8z M101.8,108.7c0.3,0.1,0.6,0.2,0.9,0.4l-8.1,8.1h-1.2
		L101.8,108.7z M109.8,118.2c0.1,0.4,0.1,0.7,0.1,1.1l-14.8,14.8l-0.5-0.8L109.8,118.2z M96.1,135.7l-0.5-0.8l14.4-14.4
		c0,0.4,0,0.9-0.1,1.3L96.1,135.7z M103.5,109.4c0.3,0.1,0.5,0.3,0.8,0.5l-7.2,7.2h-1.3L103.5,109.4z M97,137.3l-0.5-0.8l13-13
		c-0.2,0.6-0.4,1.3-0.6,1.9L97,137.3z M98,138.9l-0.5-0.8l6.7-6.7l0.5,0.8L98,138.9z M105,110.4c0.2,0.2,0.5,0.4,0.7,0.6l-6.6,6.6
		c-0.3-0.2-0.6-0.3-0.9-0.3L105,110.4z M98.9,140.5l-0.5-0.8l6.7-6.7l0.5,0.8L98.9,140.5z M106.1,134.5l0.5,0.8l-5.8,5.8h-1.2
		L106.1,134.5z M106.4,111.6c0.2,0.2,0.4,0.4,0.6,0.6l-6.6,6.6c-0.1-0.3-0.3-0.5-0.5-0.7L106.4,111.6z M100.7,121
		c0-0.2,0.1-0.4,0.1-0.6c0-0.2,0-0.4,0-0.6l6.8-6.8c0.2,0.2,0.3,0.5,0.5,0.7L100.7,121z M103.3,141.1h-1.3l5-5l0.5,0.8L103.3,141.1z
		 M105.8,141.1h-1.2l3.4-3.4l0.4,0.8L105.8,141.1z M108.3,141.1h-1.2l1.8-1.8l0.5,0.8L108.3,141.1z M109.9,140.9l0.1,0.2h-0.4
		L109.9,140.9z"/>
	<path class="st0" d="M121.5,107.9l-8.7,8.7v-1.2l7.5-7.5H121.5z M119,107.9l-6.2,6.2v-1.3l5-5H119z M116.5,107.9l-3.7,3.7v-1.2
		l2.5-2.5H116.5z M114,107.9l-1.2,1.2v-1.2H114z M124.1,107.9l-9.2,9.2h-1.3l9.2-9.2H124.1z M126.6,107.9l-9.2,9.2h-1.2l9.2-9.2
		H126.6z M129.1,107.9l-9.2,9.2h-1.3l9.2-9.2H129.1z M131.6,107.9l-9.2,9.2h-1.3l9.2-9.2H131.6z M141.7,107.9l-9.2,9.2h-0.3v0.3
		l-9.2,9.2v-1.2l17.5-17.5H141.7z M139.2,107.9l-16.2,16.2v-1.2l15-15H139.2z M136.7,107.9l-13.7,13.7v-1.3l12.5-12.5H136.7z
		 M134.1,107.9l-11.2,11.2v-1.2l10-10H134.1z M122.9,128l9.2-9.2v1.2l-9.2,9.2V128z M132.1,122.5l-9.2,9.2v-1.2l9.2-9.2V122.5z
		 M122.9,133l9.2-9.2v1.3l-9.2,9.2V133z M122.9,135.5l9.2-9.2v1.2l-9.2,9.2V135.5z M122.9,138l9.2-9.2v1.3l-9.2,9.2V138z
		 M132.1,131.4v1.2l-8.5,8.5h-0.7v-0.5L132.1,131.4z M132.1,133.9v1.3l-6,6h-1.2L132.1,133.9z M132.1,136.4v1.2l-3.5,3.5h-1.3
		L132.1,136.4z M132.1,138.9v1.2l-1,1h-1.2L132.1,138.9z M142.3,108.6v1.2l-7.3,7.3h-1.2L142.3,108.6z M142.3,111.1v1.3l-4.8,4.8
		h-1.3L142.3,111.1z M142.3,113.7v1.3l-2.2,2.2h-1.3L142.3,113.7z M142.3,116.2v1h-1L142.3,116.2z"/>
	<path class="st0" d="M154.3,109l-9.2,9.2V117l9-9h0.2V109z M152.8,107.9l-7.7,7.7v-1.3l6.5-6.5H152.8z M150.3,107.9l-5.2,5.2v-1.2
		l4-4H150.3z M147.8,107.9l-2.7,2.7v-1.2l1.5-1.5H147.8z M145.2,107.9l-0.2,0.2v-0.2H145.2z M154.3,111.5l-9.2,9.2v-1.3l9.2-9.2
		V111.5z M154.3,114l-9.2,9.2V122l9.2-9.2V114z M154.3,116.5l-9.2,9.2v-1.3l9.2-9.2V116.5z M154.3,119l-9.1,9.1
		c0-0.4-0.1-0.8-0.1-1.1l9.2-9.2V119z M145.6,130.3c-0.1-0.3-0.2-0.7-0.2-1l8.9-9v1.3L145.6,130.3z M146.2,132.2
		c-0.1-0.3-0.2-0.6-0.3-0.9l8.4-8.4v1.2L146.2,132.2z M147,133.8c-0.2-0.3-0.3-0.5-0.4-0.8l7.7-7.7v1.1c0,0,0,0.1,0,0.2L147,133.8z
		 M148.1,135.3c-0.2-0.2-0.4-0.5-0.5-0.7l6.9-6.9c0.1,0.3,0.2,0.6,0.3,0.9L148.1,135.3z M155.2,129.5c0.2,0.2,0.4,0.5,0.6,0.7
		l-6.5,6.5c-0.2-0.2-0.4-0.4-0.6-0.6L155.2,129.5z M156.4,130.8c0.2,0.2,0.5,0.3,0.7,0.5l-6.6,6.6c-0.2-0.2-0.5-0.4-0.7-0.6
		L156.4,130.8z M158.1,131.6c0.3,0.1,0.7,0.2,1,0.2l-7.1,7.1c-0.3-0.2-0.5-0.3-0.8-0.5L158.1,131.6z M160.4,131.8
		c0.6-0.1,1.2-0.3,1.8-0.6l-8.5,8.5c-0.3-0.1-0.5-0.3-0.8-0.4L160.4,131.8z M155.5,140.5c-0.3-0.1-0.6-0.2-0.9-0.3l19.8-19.8v1.2
		L155.5,140.5z M174.4,124.1l-16.8,16.8c-0.3,0-0.7-0.1-1-0.2l17.8-17.9V124.1z M174.4,126.7l-14.4,14.4h-0.2c-0.3,0-0.7,0-1,0
		l15.6-15.7V126.7z M174.3,128c-0.1,0.5-0.1,1-0.2,1.5l-11.3,11.3c-0.5,0.1-1,0.2-1.5,0.2L174.3,128z M173.5,131.3
		c-0.3,0.8-0.6,1.5-1,2.3l-5.8,5.8c-0.7,0.4-1.5,0.7-2.3,1L173.5,131.3z M164.6,128.9c0.3-0.6,0.5-1.2,0.5-1.8l9.3-9.3v1.3
		L164.6,128.9z M165.1,117l9.1-9.1h0.1v1.1l-9.2,9.2V117z M165.1,114.5l6.6-6.6h1.2l-7.8,7.8V114.5z M165.1,112l4-4h1.3l-5.3,5.3
		V112z M165.1,109.4l1.5-1.5h1.2l-2.8,2.8V109.4z M165.1,107.9h0.3l-0.3,0.2V107.9z M165.1,119.5l9.2-9.2v1.3l-9.2,9.2V119.5z
		 M165.1,122l9.2-9.2v1.3l-9.2,9.2V122z M165.1,124.6l9.2-9.2v1.2l-9.2,9.2V124.6z"/>
	<path class="st0" d="M177.1,124.3l16.4-16.4h0.2c0.3,0,0.7,0,1,0l-17.6,17.6c0-0.1,0-0.2,0-0.2c0-0.1,0-0.3,0-0.4v0
		c0-0.1,0-0.3,0-0.4V124.3z M177.2,123c0-0.5,0.1-1,0.2-1.4l13.3-13.3c0.5-0.1,0.9-0.1,1.4-0.2L177.2,123z M177.5,127.8
		c-0.1-0.4-0.1-0.7-0.2-1.1l18.6-18.6c0.4,0,0.7,0.1,1.1,0.2L177.5,127.8z M178,129.8c-0.1-0.3-0.2-0.6-0.3-1l20.3-20.3
		c0.3,0.1,0.6,0.2,1,0.3L178,129.8z M177.8,119.9c0.2-0.7,0.4-1.3,0.7-1.9l8.7-8.7c0.6-0.3,1.3-0.5,1.9-0.7L177.8,119.9z
		 M178.7,131.6c-0.1-0.3-0.2-0.6-0.4-0.9l8.4-8.3c-0.2,0.5-0.3,0.9-0.3,1.4v0c0,0,0,0,0,0.1L178.7,131.6z M186.4,125.3L186.4,125.3
		c0,0.3,0.1,0.6,0.2,1l-7,7c-0.2-0.2-0.3-0.5-0.4-0.8l7.3-7.3C186.4,125.3,186.4,125.3,186.4,125.3z M186.9,127.2
		c0.1,0.3,0.2,0.6,0.4,0.9l-6.6,6.6c-0.2-0.2-0.4-0.5-0.5-0.7L186.9,127.2z M180.1,115c0.6-0.8,1.2-1.6,1.9-2.3
		c0.7-0.7,1.4-1.3,2.3-1.9L180.1,115z M187.7,128.8c0.2,0.2,0.4,0.5,0.6,0.7l-6.5,6.5c-0.2-0.2-0.4-0.4-0.6-0.6L187.7,128.8z
		 M189,130.1c0.2,0.2,0.4,0.4,0.7,0.5l-6.6,6.6c-0.2-0.2-0.5-0.4-0.7-0.6L189,130.1z M190.5,131.1c0.3,0.1,0.6,0.3,0.9,0.4l-6.8,6.8
		c-0.3-0.2-0.5-0.3-0.7-0.5L190.5,131.1z M192.4,131.8c0.4,0.1,0.8,0.1,1.1,0.1l-7.4,7.4c-0.3-0.1-0.5-0.3-0.8-0.4L192.4,131.8z
		 M187.9,140c-0.3-0.1-0.6-0.2-0.9-0.4l7.9-7.9c0.6-0.1,1.2-0.3,1.7-0.5L187.9,140z M208.3,120.8h1.2l-19.8,19.8
		c-0.3-0.1-0.7-0.2-1-0.3L208.3,120.8z M210.3,122.6L191.9,141c-0.4,0-0.7-0.1-1.1-0.2l19.5-19.5V122.6z M193.1,117.2
		c-0.5,0-1,0.1-1.5,0.3l8.4-8.4c0.3,0.1,0.6,0.2,0.9,0.4L193.1,117.2z M210.3,125.1l-16,15.9c-0.2,0-0.4,0-0.6,0s-0.4,0-0.6,0
		l17.2-17.2V125.1z M201.6,109.9c0.3,0.1,0.5,0.3,0.8,0.4l-7,7c-0.3-0.1-0.7-0.1-1.1-0.2L201.6,109.9z M210.3,127.7l-13.1,13.1
		c-0.5,0.1-1,0.2-1.5,0.3l14.6-14.6V127.7z M203.2,110.9c0.3,0.2,0.5,0.3,0.7,0.5l-6.6,6.6c-0.3-0.2-0.5-0.3-0.8-0.4L203.2,110.9z
		 M196.5,127.7l6.8-6.8h1.2l-7.4,7.4h-0.7V127.7z M196.5,125.1l4.3-4.3h1.3l-5.5,5.5V125.1z M196.5,122.6l1.8-1.8h1.2l-3,3V122.6z
		 M196.5,120.8h0.5l-0.5,0.5V120.8z M204.6,112c0.2,0.2,0.4,0.4,0.6,0.6l-6.5,6.5c-0.2-0.2-0.4-0.4-0.7-0.6L204.6,112z M205.8,120.8
		h1.3l-7.4,7.4h-1.2L205.8,120.8z M201.1,139.4c-0.7,0.3-1.4,0.6-2.1,0.9l11.3-11.3v1.3L201.1,139.4L201.1,139.4z M210.3,132.7
		l-8.4,8.4h-0.8v-0.4l9.2-9.2V132.7z M210.3,135.2l-5.9,5.9h-1.3l7.1-7.1V135.2z M210.3,137.7l-3.4,3.4h-1.2l4.6-4.6V137.7z
		 M209.5,141.1h-1.2l2.1-2.1v1.3L209.5,141.1z"/>
	<path class="st0" d="M222.3,109l-9.2,9.2V117l9-9h0.2V109z M220.9,107.9l-7.7,7.7v-1.3l6.5-6.5H220.9z M218.3,107.9l-5.2,5.2v-1.2
		l4-4H218.3z M215.8,107.9l-2.7,2.7v-1.2l1.5-1.5H215.8z M213.3,107.9l-0.2,0.2v-0.2H213.3z M222.3,111.5l-9.2,9.2v-1.3l9.2-9.2
		V111.5z M222.3,114l-9.2,9.2V122l9.2-9.2V114z M222.3,116.5l-9.2,9.2v-1.3l9.2-9.2V116.5z M222.3,119l-9.1,9.1
		c0-0.4-0.1-0.8-0.1-1.1l9.2-9.2V119z M213.6,130.3c-0.1-0.3-0.2-0.7-0.2-1l8.9-9v1.3L213.6,130.3z M214.3,132.2
		c-0.1-0.3-0.2-0.6-0.3-0.9l8.4-8.4v1.2L214.3,132.2z M215.1,133.8c-0.2-0.3-0.3-0.5-0.4-0.8l7.7-7.7v1.1c0,0,0,0.1,0,0.2
		L215.1,133.8z M216.1,135.3c-0.2-0.2-0.4-0.5-0.5-0.7l6.9-6.9c0.1,0.3,0.2,0.6,0.3,0.9L216.1,135.3z M223.2,129.5
		c0.2,0.2,0.4,0.5,0.6,0.7l-6.5,6.5c-0.2-0.2-0.4-0.4-0.6-0.6L223.2,129.5z M224.5,130.8c0.2,0.2,0.5,0.3,0.7,0.5l-6.6,6.6
		c-0.2-0.2-0.5-0.4-0.7-0.6L224.5,130.8z M226.1,131.6c0.3,0.1,0.7,0.2,1,0.2l-7.1,7.1c-0.3-0.2-0.5-0.3-0.8-0.5L226.1,131.6z
		 M228.4,131.8c0.6-0.1,1.2-0.3,1.8-0.6l-8.5,8.5c-0.3-0.1-0.5-0.3-0.8-0.4L228.4,131.8z M223.5,140.5c-0.3-0.1-0.6-0.2-0.9-0.3
		l19.8-19.8v1.2L223.5,140.5z M242.4,124.1l-16.8,16.8c-0.3,0-0.7-0.1-1-0.2l17.8-17.9V124.1z M242.4,126.7L228,141.1h-0.2
		c-0.3,0-0.7,0-1,0l15.6-15.7V126.7z M242.3,128c-0.1,0.5-0.1,1-0.2,1.5l-11.3,11.3c-0.5,0.1-1,0.2-1.5,0.2L242.3,128z M241.6,131.3
		c-0.3,0.8-0.6,1.5-1,2.3l-5.8,5.8c-0.7,0.4-1.5,0.7-2.3,1L241.6,131.3z M232.6,128.9c0.3-0.6,0.5-1.2,0.5-1.8l9.3-9.3v1.3
		L232.6,128.9z M233.2,117l9.1-9.1h0.1v1.1l-9.2,9.2V117z M233.2,114.5l6.6-6.6h1.2l-7.8,7.8V114.5z M233.2,112l4-4h1.3l-5.3,5.3
		V112z M233.2,109.4l1.5-1.5h1.2l-2.8,2.8V109.4z M233.2,107.9h0.3l-0.3,0.2V107.9z M233.2,119.5l9.2-9.2v1.3l-9.2,9.2V119.5z
		 M233.2,122l9.2-9.2v1.3l-9.2,9.2V122z M233.2,124.6l9.2-9.2v1.2l-9.2,9.2V124.6z"/>
	<path class="st0" d="M262.5,107.9l-17.3,17.3V124l16.1-16.1H262.5z M260,107.9l-14.8,14.8v-1.2l13.6-13.6H260z M257.5,107.9
		l-12.3,12.3V119l11-11H257.5z M255,107.9l-9.8,9.8v-1.2l8.5-8.5H255z M252.5,107.9l-7.3,7.2v-1.2l6-6H252.5z M249.9,107.9l-4.7,4.7
		v-1.3l3.5-3.5H249.9z M247.4,107.9l-2.2,2.2v-1.2l1-1H247.4z M254.4,117.3v1.2l-9.2,9.2v-1.2L254.4,117.3z M254.4,119.8v1h0.3
		l-9.5,9.5V129L254.4,119.8z M262.2,120.8l-7.4,7.4h-0.4v0.4l-9.2,9.2v-1.3l15.8-15.8H262.2z M259.7,120.8l-14.5,14.5v-1.2
		l13.3-13.3H259.7z M257.2,120.8l-12,12v-1.3l10.7-10.7H257.2z M254.4,129.9v1.2l-9.2,9.2v-1.2L254.4,129.9z M256.2,131.9l-9.2,9.2
		h-1.3l9.2-9.2H256.2z M258.7,131.9l-9.2,9.2h-1.2l9.2-9.2H258.7z M261.2,131.9l-9.2,9.2h-1.2l9.2-9.2H261.2z M263.8,131.9l-9.2,9.2
		h-1.3l9.2-9.2H263.8z M265,107.9l-9.2,9.2h-1.2l9.2-9.2H265z M266.3,131.9l-9.2,9.2h-1.2l9.2-9.2H266.3z M263.5,120.8h1.2l-7.4,7.4
		h-1.2L263.5,120.8z M267.6,107.9l-9.2,9.2h-1.3l9.2-9.2H267.6z M268.8,131.9l-9.2,9.2h-1.3l9.2-9.2H268.8z M266,120.8h1.3l-7.4,7.4
		h-1.2L266,120.8z M270.1,107.9l-9.2,9.2h-1.2l9.2-9.2H270.1z M271.3,131.9l-9.2,9.2h-1.2l9.2-9.2H271.3z M261.2,128.2l6.5-6.5v1.3
		l-5.2,5.2H261.2z M272.6,107.9l-9.2,9.2h-1.3l9.2-9.2H272.6z M273.8,131.9L273.8,131.9l-9.1,9.2h-1.3l9.2-9.2H273.8z M267.6,125.5
		l-2.7,2.7h-1.2l3.9-3.9V125.5z M273.8,108.1v1.2l-7.8,7.9h-1.3L273.8,108.1z M273.8,133.2v1.2l-6.6,6.6h-1.2L273.8,133.2z
		 M267.4,128.2h-1.3l1.4-1.4v1.3L267.4,128.2z M273.8,110.6v1.3l-5.3,5.3h-1.2L273.8,110.6z M273.8,135.7v1.3l-4.1,4.1h-1.2
		L273.8,135.7z M273.8,113.1v1.2l-2.8,2.8h-1.3L273.8,113.1z M273.8,138.3v1.2l-1.6,1.6h-1.3L273.8,138.3z M273.8,115.6v1.3
		l-0.3,0.3h-1.2L273.8,115.6z M273.8,140.8v0.3h-0.3L273.8,140.8z"/>
	<path class="st0" d="M276.5,118.5c0-0.3,0-0.6,0-0.9l9.7-9.7c0.3,0,0.6,0,0.9,0h0.4l-11,11C276.5,118.8,276.5,118.6,276.5,118.5z
		 M276.9,121.1c-0.1-0.3-0.2-0.7-0.2-1l12.2-12.2h1.3L276.9,121.1z M282.9,108.8c0.6-0.3,1.2-0.5,1.9-0.6l-7.9,7.9
		c0.1-0.6,0.3-1.3,0.6-1.9L282.9,108.8z M291.3,107.9h1.2L277.5,123c-0.1-0.3-0.2-0.6-0.3-0.9L291.3,107.9z M293.8,107.9h1.3
		l-16.7,16.7c-0.2-0.2-0.3-0.5-0.5-0.8L293.8,107.9z M288.8,131.9l-9.2,9.2h-1.2V141l9.2-9.1H288.8z M278.4,138.5l6.6-6.6h1.2
		l-7.9,7.9V138.5z M278.4,136l4.1-4.1h1.3l-5.4,5.3V136z M278.4,133.5l1.6-1.6h1.2l-2.8,2.8V133.5z M278.4,131.9h0.3l-0.3,0.3V131.9
		z M285.7,118.6c0,0.3,0.1,0.6,0.3,0.9l-6.5,6.5c-0.2-0.2-0.4-0.4-0.6-0.6L285.7,118.6z M286.9,119.9c0.1,0,0.1,0,0.2,0h1l-7.2,7.2
		c-0.2-0.2-0.5-0.3-0.7-0.5L286.9,119.9z M282.1,141.1h-1.2l9.2-9.2h1.3L282.1,141.1z M289.4,119.9h1.2l-8.1,8.2
		c-0.3-0.1-0.5-0.3-0.8-0.4L289.4,119.9z M284.6,141.1h-1.3l9.2-9.2h1.2L284.6,141.1z M291.9,119.9h1.3l-8.8,8.8
		c-0.3-0.1-0.6-0.2-1-0.3L291.9,119.9z M286.5,129.1c-0.4,0-0.7-0.1-1.1-0.1l9.1-9.1h1.2L286.5,129.1z M287.1,141.1h-1.3l9.2-9.2
		h1.3L287.1,141.1z M296.4,107.9h1.2l-9.2,9.2h-1.2L296.4,107.9z M289,129.1h-1.3l9.2-9.2c0.4,0,0.8,0,1.2,0.1L289,129.1z
		 M289.6,141.1h-1.2l16.9-16.9c0.2,0.2,0.4,0.5,0.5,0.7L289.6,141.1z M298.9,107.9h1.3l-9.2,9.2h-1.3L298.9,107.9z M291.5,129.1
		h-1.2l8.9-9c0.3,0.1,0.7,0.2,1,0.3L291.5,129.1z M306.3,125.7c0.1,0.3,0.3,0.6,0.4,0.9l-14.5,14.5h-1.3L306.3,125.7z M301.4,107.9
		h1.3l-9.2,9.2h-1.2L301.4,107.9z M294.1,129.1h-1.3l8.3-8.3c0.3,0.1,0.6,0.3,0.8,0.4L294.1,129.1z M307,127.5
		c0.1,0.3,0.2,0.7,0.2,1l-12.6,12.6h-1.2L307,127.5z M303.9,107.9h1.2l-9.2,9.2h-1.3L303.9,107.9z M296.6,129.1h-1.2l7.4-7.4
		c0.2,0.2,0.5,0.3,0.7,0.5L296.6,129.1z M307.4,129.7c0,0.3,0,0.6,0,0.8c0,0.1,0,0.2,0,0.4l-10.2,10.2c-0.1,0-0.3,0-0.4,0h-0.9
		L307.4,129.7z M305.6,110l-7.1,7.1h-1.2l8.3-8.3V110z M298.1,130.1c-0.1-0.3-0.3-0.5-0.5-0.7l6.5-6.5c0.2,0.2,0.4,0.4,0.6,0.6
		L298.1,130.1z M307.3,132.3c-0.1,0.6-0.2,1.1-0.4,1.7l-6.5,6.5c-0.6,0.2-1.1,0.3-1.7,0.4L307.3,132.3z M305.6,112.6l-4.6,4.6h-1.2
		l5.8-5.8V112.6z M305.6,115.1l-2,2.1h-1.3l3.3-3.3V115.1z M305.5,136.6c-0.7,1-1.5,1.9-2.6,2.6L305.5,136.6z M305.6,117.1h-0.8
		l0.8-0.8V117.1z"/>
	<path class="st0" d="M327.5,107.9l-17.3,17.3V124l16.1-16.1H327.5z M325,107.9l-14.8,14.8v-1.2l13.6-13.6H325z M322.5,107.9
		l-12.3,12.3V119l11-11H322.5z M320,107.9l-9.8,9.8v-1.2l8.5-8.5H320z M317.5,107.9l-7.3,7.2v-1.2l6-6H317.5z M314.9,107.9l-4.7,4.7
		v-1.3l3.5-3.5H314.9z M312.4,107.9l-2.2,2.2v-1.2l1-1H312.4z M319.4,117.3v1.2l-9.2,9.2v-1.2L319.4,117.3z M319.4,119.8v1h0.3
		l-9.5,9.5V129L319.4,119.8z M327.2,120.8l-7.4,7.4h-0.4v0.4l-9.2,9.2v-1.3l15.8-15.8H327.2z M324.7,120.8l-14.5,14.5v-1.2
		l13.3-13.3H324.7z M322.2,120.8l-12,12v-1.3l10.7-10.7H322.2z M319.4,129.9v1.2l-9.2,9.2v-1.2L319.4,129.9z M321.2,131.9l-9.2,9.2
		h-1.3l9.2-9.2H321.2z M323.7,131.9l-9.2,9.2h-1.2l9.2-9.2H323.7z M326.2,131.9l-9.2,9.2h-1.2l9.2-9.2H326.2z M328.8,131.9l-9.2,9.2
		h-1.3l9.2-9.2H328.8z M330,107.9l-9.2,9.2h-1.2l9.2-9.2H330z M331.3,131.9l-9.2,9.2h-1.2l9.2-9.2H331.3z M328.5,120.8h1.2l-7.4,7.4
		h-1.2L328.5,120.8z M332.6,107.9l-9.2,9.2h-1.3l9.2-9.2H332.6z M333.8,131.9l-9.2,9.2h-1.3l9.2-9.2H333.8z M331,120.8h1.3l-7.4,7.4
		h-1.2L331,120.8z M335.1,107.9l-9.2,9.2h-1.2l9.2-9.2H335.1z M336.3,131.9l-9.2,9.2h-1.2l9.2-9.2H336.3z M326.2,128.2l6.5-6.5v1.3
		l-5.2,5.2H326.2z M337.6,107.9l-9.2,9.2h-1.3l9.2-9.2H337.6z M338.8,131.9L338.8,131.9l-9.1,9.2h-1.3l9.2-9.2H338.8z M332.6,125.5
		l-2.7,2.7h-1.2l3.9-3.9V125.5z M338.8,108.1v1.2l-7.8,7.9h-1.3L338.8,108.1z M338.8,133.2v1.2l-6.6,6.6h-1.2L338.8,133.2z
		 M332.5,128.2h-1.3l1.4-1.4v1.3L332.5,128.2z M338.8,110.6v1.3l-5.3,5.3h-1.2L338.8,110.6z M338.8,135.7v1.3l-4.1,4.1h-1.2
		L338.8,135.7z M338.8,113.1v1.2l-2.8,2.8h-1.3L338.8,113.1z M338.8,138.3v1.2l-1.6,1.6h-1.3L338.8,138.3z M338.8,115.6v1.3
		l-0.3,0.3h-1.2L338.8,115.6z M338.8,140.8v0.3h-0.3L338.8,140.8z"/>
</g>
</svg>
