<?xml version="1.0" encoding="utf-8"?>
<!-- Generator: Adobe Illustrator 16.0.0, SVG Export Plug-In . SVG Version: 6.00 Build 0)  -->
<!DOCTYPE svg PUBLIC "-//W3C//DTD SVG 1.1//EN" "http://www.w3.org/Graphics/SVG/1.1/DTD/svg11.dtd">
<svg version="1.1" id="Vrstva_1" xmlns="http://www.w3.org/2000/svg" xmlns:xlink="http://www.w3.org/1999/xlink" x="0px" y="0px"
	 preserveAspectRatio="none" viewBox="0 0 595.3 841.9" enable-background="new 0 0 595.3 841.9" xml:space="preserve">
<style type="text/css">
	.st0{fill:url(#SVGID_1_);}
	.st1{opacity:9.999999e-02;fill:#FFFFFF;enable-background:new    ;}
	.st2{opacity:0.3;}
</style>
<radialGradient id="SVGID_1_" cx="-795.8603" cy="-442.2168" r="426.725" gradientTransform="matrix(-0.7078 0 0 1.3423 -266.5559 1008.1285)" gradientUnits="userSpaceOnUse">
	<stop  offset="7.843138e-03" style="stop-color:#FFFFFF"/>
	<stop  offset="0.1765" style="stop-color:#EEABA8"/>
	<stop  offset="0.4784" style="stop-color:#E47E77"/>
	<stop  offset="0.8196" style="stop-color:#B00C01"/>
	<stop  offset="0.8549" style="stop-color:#A40B00"/>
	<stop  offset="0.9216" style="stop-color:#950D00"/>
	<stop  offset="1" style="stop-color:#84170C"/>
</radialGradient>
<rect class="st0" width="595.3" height="841.9"/>
<polygon class="st1" points="336.7,0 297.6,420.7 255.7,0 "/>
<polygon class="st1" points="0,0 295.5,420.7 0,125.7 "/>
<polygon class="st1" points="0,55.1 296.3,420.7 0,85 "/>
<polygon class="st1" points="86.2,0 181.4,0 296.6,420.7 "/>
<polygon class="st1" points="139.9,0 296.6,420.7 117.9,0 "/>
<polygon class="st1" points="0,319.7 295.5,420.7 0,376 "/>
<path class="st1" d="M0,341c137.2,38.5,226.5,63.7,267.9,75.6c-41.4-9.1-130.7-29.3-267.9-60.4V341z"/>
<polygon class="st1" points="0,273.1 0,191.5 295.5,419.4 "/>
<polygon class="st1" points="0,219.9 294.7,420.9 0.2,242.9 "/>
<polygon class="st1" points="0,443.4 0,399.2 294.8,420.9 "/>
<polygon class="st1" points="0,429.4 0,411.8 294.8,422.3 "/>
<polygon class="st1" points="307.7,0 297.3,420.7 285,0 "/>
<polygon class="st1" points="595.3,0 298.5,420.7 595.3,125.7 "/>
<polygon class="st1" points="595.3,55.1 297.7,420.7 595.3,85 "/>
<polygon class="st1" points="508.7,0 413.1,0 297.4,420.7 "/>
<polygon class="st1" points="452.5,0 295.2,420.7 474.7,0 "/>
<polygon class="st1" points="595.3,319.7 298.5,420.7 595.3,376 "/>
<path class="st1" d="M595.3,341c-137.8,38.5-227.5,63.7-269,75.6c41.6-9.1,131.3-29.3,269-60.4V341z"/>
<polygon class="st1" points="595.3,273.1 595.3,191.5 298.5,419.4 "/>
<polygon class="st1" points="595.3,219.9 299.3,420.9 595.1,242.9 "/>
<polygon class="st1" points="595.3,443.4 595.3,399.2 299.2,420.9 "/>
<polygon class="st1" points="595.3,429.4 595.3,411.8 299.2,422.3 "/>
<polygon class="st1" points="336.7,841.9 297.6,421.2 255.7,841.9 "/>
<polygon class="st1" points="0,841.9 295.5,421.2 0,716.2 "/>
<polygon class="st1" points="0,786.7 296.3,421.2 0,756.9 "/>
<polygon class="st1" points="86.2,841.9 181.4,841.9 296.6,421.2 "/>
<polygon class="st1" points="139.9,841.9 296.6,421.2 117.9,841.9 "/>
<polygon class="st1" points="0,522.2 295.5,421.2 0,465.8 "/>
<path class="st1" d="M0,501c137.2-38.5,226.5-63.7,267.9-75.6c-41.4,9.1-130.7,29.3-267.9,60.4V501z"/>
<polygon class="st1" points="0,568.8 0,650.4 295.5,422.5 "/>
<polygon class="st1" points="0,621.9 294.7,420.9 0.2,599 "/>
<polygon class="st1" points="307.7,841.9 297.3,421.2 285,841.9 "/>
<polygon class="st1" points="595.3,841.9 298.5,421.2 595.3,716.2 "/>
<polygon class="st1" points="595.3,786.7 297.7,421.2 595.3,756.9 "/>
<polygon class="st1" points="508.7,841.9 413.1,841.9 297.4,421.2 "/>
<polygon class="st1" points="452.5,841.9 295.2,421.2 474.7,841.9 "/>
<polygon class="st1" points="595.3,522.2 298.5,421.2 595.3,465.8 "/>
<path class="st1" d="M595.3,501c-137.8-38.5-227.5-63.7-269-75.6c41.6,9.1,131.3,29.3,269,60.4V501z"/>
<polygon class="st1" points="595.3,568.8 595.3,650.4 298.5,422.5 "/>
<polygon class="st1" points="595.3,621.9 299.3,420.9 595.1,599 "/>
<rect x="-9.7" y="-7.9" class="st2" width="610.7" height="857.8"/>
</svg>
