<?xml version="1.0" encoding="utf-8"?>
<!-- Generator: Adobe Illustrator 16.0.0, SVG Export Plug-In . SVG Version: 6.00 Build 0)  -->
<!DOCTYPE svg PUBLIC "-//W3C//DTD SVG 1.1//EN" "http://www.w3.org/Graphics/SVG/1.1/DTD/svg11.dtd">
<svg version="1.1" id="Layer_1" xmlns="http://www.w3.org/2000/svg" xmlns:xlink="http://www.w3.org/1999/xlink" x="0px" y="0px"
	 width="32px" height="32px" viewBox="0 0 32 32" enable-background="new 0 0 32 32" xml:space="preserve">
<g id="Layer_1_1_">
</g>
<path fill-rule="evenodd" clip-rule="evenodd" fill="#FFFFFF" d="M7.607,2.819h16.796c2.636,0,4.788,2.155,4.788,4.789v16.798
	c0,2.634-2.152,4.788-4.788,4.788H7.607c-2.633,0-4.789-2.154-4.789-4.788V7.607C2.819,4.974,4.974,2.819,7.607,2.819L7.607,2.819z
	 M23.547,4.578h1.268c0.298,0,0.544,0.246,0.544,0.545v1.269c0,0.299-0.246,0.544-0.544,0.544h-1.268
	c-0.3,0-0.544-0.245-0.544-0.544V5.123C23.003,4.824,23.247,4.578,23.547,4.578L23.547,4.578z M20.755,4.578h1.27
	c0.298,0,0.544,0.246,0.544,0.545v1.269c0,0.299-0.246,0.544-0.544,0.544h-1.27c-0.298,0-0.544-0.245-0.544-0.544V5.123
	C20.211,4.824,20.457,4.578,20.755,4.578L20.755,4.578z M18,4.578h1.267c0.302,0,0.545,0.246,0.545,0.545v1.269
	c0,0.299-0.243,0.544-0.545,0.544H18c-0.3,0-0.544-0.245-0.544-0.544V5.123C17.456,4.824,17.7,4.578,18,4.578L18,4.578z
	 M7.607,8.528h16.796c1.378,0,2.504,1.128,2.504,2.505v13.373c0,1.376-1.126,2.502-2.504,2.502H7.607
	c-1.378,0-2.504-1.126-2.504-2.502V11.033C5.103,9.656,6.229,8.528,7.607,8.528L7.607,8.528z"/>
</svg>
