<?xml version="1.0" encoding="utf-8"?>
<!-- Generator: Adobe Illustrator 15.0.0, SVG Export Plug-In . SVG Version: 6.00 Build 0)  -->
<!DOCTYPE svg PUBLIC "-//W3C//DTD SVG 1.1//EN" "http://www.w3.org/Graphics/SVG/1.1/DTD/svg11.dtd">
<svg version="1.1" id="Layer_1" xmlns="http://www.w3.org/2000/svg" xmlns:xlink="http://www.w3.org/1999/xlink" x="0px" y="0px"
	 width="32px" height="32px" viewBox="0 0 32 32" enable-background="new 0 0 32 32" xml:space="preserve">
<g id="Layer_1_1_">
</g>
<g id="fullscreen">
	<g>
		<polygon fill="#FFFFFF" points="25.403,23.053 21.625,19.274 19.274,21.625 23.053,25.403 19.274,29.181 29.181,29.181 
			29.181,19.274 		"/>
		<polygon fill="#FFFFFF" points="12.726,2.819 2.819,2.819 2.819,12.726 6.597,8.948 10.375,12.726 12.642,10.375 8.948,6.597 		
			"/>
		<polygon fill="#FFFFFF" points="12.726,21.625 10.375,19.274 6.597,23.053 2.819,19.274 2.819,29.181 12.726,29.181 8.948,25.403 
					"/>
		<polygon fill="#FFFFFF" points="29.181,2.819 19.274,2.819 23.053,6.597 19.358,10.375 21.625,12.726 25.403,8.948 29.181,12.726 
					"/>
	</g>
</g>
</svg>
