<?xml version="1.0" encoding="utf-8"?>
<!-- Generator: Adobe Illustrator 20.0.0, SVG Export Plug-In . SVG Version: 6.00 Build 0)  -->
<svg version="1.1" id="Layer_1" xmlns="http://www.w3.org/2000/svg" xmlns:xlink="http://www.w3.org/1999/xlink" x="0px" y="0px"
	 viewBox="0 0 80 130" style="enable-background:new 0 0 80 130;" xml:space="preserve">
<style type="text/css">
	.st0{fill:#404040;}
	.st1{fill:#E17B00;}
</style>
<g>
	<g>
		<path class="st0" d="M76.6,104.1l-5.4,0.9l-4.5,0.7c-0.6,0.1-1.1,0.4-1.5,0.8l-3.2,3.3l-3.8,3.9c-1.3,1.3-3.5,1-4.4-0.6L43,92.2
			l-3-5.8l-3.7-7.1c-0.7-1.3-0.2-3,1.2-3.7l2.5-1.3l2.8-1.5L52,68l5.3-2.8c1.3-0.7,3-0.2,3.7,1.2l8.2,15.8l9.3,17.9
			C79.4,101.8,78.4,103.8,76.6,104.1z"/>
	</g>
</g>
<g>
	<path class="st0" d="M43.7,79.3L40,86.4l-3,5.7L26.2,113c-0.9,1.7-3.1,2-4.4,0.6l-3.8-3.9l-3.2-3.3c-0.4-0.4-1-0.7-1.5-0.8
		l-4.5-0.7L3.4,104c-1.8-0.3-2.8-2.3-2-4l9.5-18L19,66.5c0.7-1.3,2.3-1.9,3.7-1.2l5.3,2.8l9.2,4.8l0,0l2.8,1.5l2.5,1.3
		C43.9,76.3,44.4,78,43.7,79.3z"/>
</g>
<g>
	<ellipse class="st0" cx="40" cy="39.7" rx="37" ry="36.6"/>
	<ellipse class="st0" cx="40" cy="37.9" rx="37" ry="36.6"/>
	<g>
		<circle class="st1" cx="39.1" cy="39.7" r="0"/>
		<circle class="st1" cx="39.1" cy="39.7" r="0"/>
	</g>
</g>
</svg>
