<?xml version="1.0" encoding="utf-8"?>
<!-- Generator: Adobe Illustrator 20.0.0, SVG Export Plug-In . SVG Version: 6.00 Build 0)  -->
<svg version="1.1" id="Layer_1" xmlns="http://www.w3.org/2000/svg" xmlns:xlink="http://www.w3.org/1999/xlink" x="0px" y="0px"
	 viewBox="0 0 80 130" style="enable-background:new 0 0 80 130;" xml:space="preserve">
<style type="text/css">
	.st0{fill:#F95050;}
	.st1{fill:#E24040;}
	.st2{opacity:0.15;fill:#3D3D3D;}
	.st3{fill:#F93737;}
	.st4{fill:#C42727;}
	.st5{fill:#E22929;}
	.st6{fill:#ED8C00;}
	.st7{fill:#FFBC38;}
	.st8{opacity:0.1;fill:#FFE5B5;}
</style>
<g>
	<g>
		<path class="st0" d="M76.6,104.1l-5.4,0.9l-4.5,0.7c-0.6,0.1-1.1,0.4-1.5,0.8l-3.2,3.3l-3.8,3.9c-1.3,1.3-3.5,1-4.4-0.6L43,92.2
			l-3-5.8l-3.7-7.1c-0.7-1.3-0.2-3,1.2-3.7l2.5-1.3l2.8-1.5l9.2-4.8l5.3-2.8c1.3-0.7,3-0.2,3.7,1.2l8.2,15.8l9.3,17.9
			C79.4,101.8,78.4,103.8,76.6,104.1z"/>
		<path class="st1" d="M71.2,104.9l-4.5,0.7c-0.6,0.1-1.1,0.4-1.5,0.8l-3.2,3.3l-12.5-24l-6.7-12.8l9.2-4.8l9.1,17.5L71.2,104.9z"/>
	</g>
	<path class="st2" d="M76.6,104.1l-5.4,0.9l-4.5,0.7c-0.6,0.1-1.1,0.4-1.5,0.8l-3.2,3.3l-3.8,3.9c-1.3,1.3-3.5,1-4.4-0.6L43,92.2
		l-3-5.8l-3.7-7.1c-0.7-1.3-0.2-3,1.2-3.7l2.5-1.3l2.8-1.5l9.2-4.8l5.3-2.8c1.3-0.7,3-0.2,3.7,1.2l8.2,15.8l9.3,17.9
		C79.4,101.8,78.4,103.8,76.6,104.1z"/>
</g>
<g>
	<path class="st0" d="M43.7,79.3L40,86.4l-3,5.7L26.2,113c-0.9,1.7-3.1,2-4.4,0.6l-3.8-3.9l-3.2-3.3c-0.4-0.4-1-0.7-1.5-0.8
		l-4.5-0.7l-5.4-0.9c-1.8-0.3-2.8-2.3-2-4L10.9,82L19,66.5c0.7-1.3,2.3-1.9,3.7-1.2l5.3,2.8l9.2,4.8v0l2.8,1.5l2.5,1.3
		C43.9,76.3,44.4,78,43.7,79.3z"/>
	<path class="st1" d="M37.2,72.9L37.2,72.9l-6.5,12.5L18,109.7l-3.2-3.3c-0.4-0.4-1-0.7-1.5-0.8l-4.5-0.7l10.1-19.3L28,68.1v0
		L37.2,72.9z"/>
</g>
<path class="st3" d="M77.5,39c0,20.8-16.8,37.7-37.6,37.7c-8.4,0-16.2-2.8-22.5-7.5c0,0,0,0,0,0c-8.6-6.9-14-17.5-14-29.4
	C3.4,19,20.2,2.2,41,2.2c8.4,0,16.1,2.8,22.4,7.4C72,16.5,77.5,27.1,77.5,39z"/>
<path class="st4" d="M69.4,39c0,16.3-13.2,29.5-29.5,29.5c-9.6,0-18.1-4.6-23.5-11.7c-3.8-5-6-11.1-6-17.8
	c0-16.3,13.2-29.5,29.5-29.5c10.3,0,19.4,5.3,24.6,13.3C67.6,27.4,69.4,33,69.4,39z"/>
<path class="st5" d="M69.4,39c0,16.3-13.2,29.5-29.5,29.5c-9.6,0-18.1-4.6-23.5-11.7c-3-4.6-4.8-10.2-4.8-16.1
	c0-16.3,13.2-29.5,29.5-29.5c9.6,0,18.1,4.6,23.4,11.6C67.6,27.4,69.4,33,69.4,39z"/>
<g>
	<path class="st6" d="M47.2,31.1L58,32.8c0.8,0.1,1.2,1.2,0.6,1.8l-7.9,7.6c-0.2,0.2-0.4,0.6-0.3,0.9l1.8,10.8
		c0.1,0.8-0.8,1.5-1.5,1.1l-9.7-5.2c-0.3-0.2-0.7-0.2-1,0l-9.8,5c-0.8,0.4-1.6-0.3-1.5-1.1l1.9-10.8c0.1-0.3,0-0.7-0.3-0.9l-7.8-7.7
		c-0.6-0.6-0.3-1.6,0.6-1.8L34,31c0.3,0,0.6-0.3,0.8-0.6l4.9-9.8c0.4-0.8,1.5-0.8,1.8,0l4.8,9.9C46.5,30.9,46.8,31.1,47.2,31.1z"/>
	<path class="st7" d="M46.8,30.6l10.9,1.7c0.8,0.1,1.2,1.2,0.6,1.8l-7.9,7.6c-0.2,0.2-0.4,0.6-0.3,0.9l1.8,10.8
		c0.1,0.8-0.8,1.5-1.5,1.1l-9.7-5.2c-0.3-0.2-0.7-0.2-1,0l-9.8,5c-0.8,0.4-1.6-0.3-1.5-1.1l1.9-10.8c0.1-0.3,0-0.7-0.3-0.9l-7.8-7.7
		c-0.6-0.6-0.3-1.6,0.6-1.8l10.9-1.5c0.3,0,0.6-0.3,0.8-0.6l4.9-9.8c0.4-0.8,1.5-0.8,1.8,0L46,30C46.1,30.3,46.4,30.5,46.8,30.6z"/>
</g>
<path class="st8" d="M51.3,18.8c0,5.2-1.2,10-3.4,14.3c-3.4,6.7-9.1,11.9-16.1,14.8c-3.6,1.5-7.6,2.3-11.8,2.3
	c-2.1,0-4.2-0.2-6.2-0.6c-0.2,0-0.5-0.1-0.7-0.2c-2.9-0.7-5.7-1.7-8.2-3.2c-0.3-0.2-0.7-0.4-1-0.6c-0.3-1.9-0.4-3.8-0.4-5.8
	C3.4,19,20.2,2.2,41,2.2c2,0,4,0.2,5.9,0.5c0.1,0.2,0.3,0.5,0.4,0.7c1.5,2.6,2.6,5.5,3.3,8.6c0.1,0.5,0.2,0.9,0.3,1.4
	C51.1,15.1,51.3,16.9,51.3,18.8z"/>
</svg>
