<?xml version="1.0" encoding="utf-8"?>
<!-- Generator: Adobe Illustrator 20.0.0, SVG Export Plug-In . SVG Version: 6.00 Build 0)  -->
<svg version="1.1" id="Layer_1" xmlns="http://www.w3.org/2000/svg" xmlns:xlink="http://www.w3.org/1999/xlink" x="0px" y="0px"
	 viewBox="0 0 80 130" style="enable-background:new 0 0 80 130;" xml:space="preserve">
<style type="text/css">
	.st0{fill:#F95050;}
	.st1{fill:#E24040;}
	.st2{opacity:0.15;fill:#3D3D3D;enable-background:new    ;}
	.st3{fill:#ACB9BF;}
	.st4{fill:#C0CAD1;}
	.st5{fill:#DEE5EB;}
	.st6{fill:#F5F5F5;}
	.st7{fill:#ABB5F0;}
</style>
<g>
	<g>
		<path class="st0" d="M76.6,104.1l-5.4,0.9l-4.5,0.7c-0.6,0.1-1.1,0.4-1.5,0.8l-3.2,3.3l-3.8,3.9c-1.3,1.3-3.5,1-4.4-0.6L43,92.2
			l-3-5.8l-3.7-7.1c-0.7-1.3-0.2-3,1.2-3.7l2.5-1.3l2.8-1.5L52,68l5.3-2.8c1.3-0.7,3-0.2,3.7,1.2l8.2,15.8l9.3,17.9
			C79.4,101.8,78.4,103.8,76.6,104.1z"/>
		<path class="st1" d="M71.2,104.9l-4.5,0.7c-0.6,0.1-1.1,0.4-1.5,0.8l-3.2,3.3l-12.5-24l-6.7-12.8l9.2-4.8l9.1,17.5L71.2,104.9z"/>
	</g>
	<path class="st2" d="M76.6,104.1l-5.4,0.9l-4.5,0.7c-0.6,0.1-1.1,0.4-1.5,0.8l-3.2,3.3l-3.8,3.9c-1.3,1.3-3.5,1-4.4-0.6L43,92.2
		l-3-5.8l-3.7-7.1c-0.7-1.3-0.2-3,1.2-3.7l2.5-1.3l2.8-1.5L52,68l5.3-2.8c1.3-0.7,3-0.2,3.7,1.2l8.2,15.8l9.3,17.9
		C79.4,101.8,78.4,103.8,76.6,104.1z"/>
</g>
<g>
	<path class="st0" d="M43.7,79.3L40,86.4l-3,5.7L26.2,113c-0.9,1.7-3.1,2-4.4,0.6l-3.8-3.9l-3.2-3.3c-0.4-0.4-1-0.7-1.5-0.8
		l-4.5-0.7L3.4,104c-1.8-0.3-2.8-2.3-2-4l9.5-18L19,66.5c0.7-1.3,2.3-1.9,3.7-1.2l5.3,2.8l9.2,4.8l0,0l2.8,1.5l2.5,1.3
		C43.9,76.3,44.4,78,43.7,79.3z"/>
	<path class="st1" d="M37.2,72.9L37.2,72.9l-6.5,12.5L18,109.7l-3.2-3.3c-0.4-0.4-1-0.7-1.5-0.8l-4.5-0.7l10.1-19.3L28,68.1l0,0
		L37.2,72.9z"/>
</g>
<g>
	<ellipse class="st3" cx="40" cy="39.7" rx="37" ry="36.6"/>
	<ellipse class="st4" cx="40" cy="37.9" rx="37" ry="36.6"/>
	<ellipse class="st3" cx="40" cy="37.9" rx="26.2" ry="25.9"/>
	<ellipse class="st5" cx="40" cy="37.9" rx="24.4" ry="24.1"/>
	<path class="st6" d="M16,33.8c4.5,5.2,11.1,8.5,18.6,8.5c12.1,0,22-8.7,24-20c-4.5-5.2-11.1-8.5-18.6-8.5
		C27.9,13.8,18,22.5,16,33.8z"/>
	<g>
		<circle class="st7" cx="39.1" cy="39.7" r="0"/>
		<circle class="st7" cx="39.1" cy="39.7" r="0"/>
	</g>
</g>
</svg>
