<?xml version="1.0" encoding="utf-8"?>
<!-- Generator: Adobe Illustrator 20.0.0, SVG Export Plug-In . SVG Version: 6.00 Build 0)  -->
<svg version="1.1" id="flash0.ai" xmlns="http://www.w3.org/2000/svg" xmlns:xlink="http://www.w3.org/1999/xlink" x="0px" y="0px"
	 viewBox="0 0 55 55" style="enable-background:new 0 0 55 55;" xml:space="preserve">
<style type="text/css">
	.st0{fill:#F93737;}
	.st1{fill:#C42727;}
	.st2{fill:#E22929;}
	.st3{fill:#ED8C00;}
	.st4{fill:#FFBC38;}
</style>
<g>
	<path class="st0" d="M54.5,27.2c0,15.1-12.2,27.3-27.4,27.3c-6.1,0-11.8-2-16.4-5.4l0,0c-6.3-5-10.2-12.7-10.2-21.3
		c0-15.1,12.2-27.3,27.4-27.3c6.1,0,11.7,2,16.3,5.4C50.5,10.9,54.5,18.5,54.5,27.2z"/>
	<path class="st1" d="M48.6,27.2c0,11.8-9.6,21.4-21.5,21.4c-7,0-13.2-3.3-17.1-8.5c-2.8-3.6-4.4-8-4.4-12.9
		c0-11.8,9.6-21.4,21.5-21.4c7.5,0,14.1,3.8,17.9,9.6C47.3,18.8,48.6,22.8,48.6,27.2z"/>
	<path class="st2" d="M48.6,27.2c0,11.8-9.6,21.4-21.5,21.4c-7,0-13.2-3.3-17.1-8.5c-2.2-3.3-3.5-7.4-3.5-11.7C6.5,16.6,16.1,7,28,7
		c7,0,13.2,3.3,17.1,8.4C47.3,18.8,48.6,22.8,48.6,27.2z"/>
	<g>
		<path class="st3" d="M32.4,21.4l7.9,1.2c0.6,0.1,0.9,0.9,0.4,1.3L35,29.5c-0.1,0.1-0.3,0.4-0.2,0.7l1.3,7.8
			c0.1,0.6-0.6,1.1-1.1,0.8L27.9,35c-0.2-0.1-0.5-0.1-0.7,0L20,38.6c-0.6,0.3-1.2-0.2-1.1-0.8l1.4-7.8c0.1-0.2,0-0.5-0.2-0.7
			l-5.7-5.6c-0.4-0.4-0.2-1.2,0.4-1.3l7.9-1.1c0.2,0,0.4-0.2,0.6-0.4l3.6-7.1c0.3-0.6,1.1-0.6,1.3,0l3.5,7.2
			C31.9,21.3,32.1,21.4,32.4,21.4z"/>
		<path class="st4" d="M32.1,21.1l7.9,1.2c0.6,0.1,0.9,0.9,0.4,1.3l-5.8,5.5c-0.1,0.1-0.3,0.4-0.2,0.7l1.3,7.8
			c0.1,0.6-0.6,1.1-1.1,0.8l-7.1-3.8c-0.2-0.1-0.5-0.1-0.7,0l-7.1,3.6c-0.6,0.3-1.2-0.2-1.1-0.8l1.4-7.8c0.1-0.2,0-0.5-0.2-0.7
			l-5.7-5.6c-0.4-0.4-0.2-1.2,0.4-1.3l7.9-1.1c0.2,0,0.4-0.2,0.6-0.4l3.6-7.1c0.3-0.6,1.1-0.6,1.3,0l3.5,7.2
			C31.6,20.9,31.8,21,32.1,21.1z"/>
	</g>
</g>
</svg>
