<?xml version="1.0" encoding="utf-8"?>
<!-- Generator: Adobe Illustrator 20.0.0, SVG Export Plug-In . SVG Version: 6.00 Build 0)  -->
<svg version="1.1" id="flash0.ai" xmlns="http://www.w3.org/2000/svg" xmlns:xlink="http://www.w3.org/1999/xlink" x="0px" y="0px"
	 viewBox="0 0 1076 1076" style="enable-background:new 0 0 1076 1076;" xml:space="preserve">
<style type="text/css">
	.st0{fill:#FFD775;}
	.st1{fill:#FAC746;}
</style>
<g>
	<path class="st0" d="M981.6,143.7c0,44.4-38.8,81.4-85.5,81.4H297.9c-46.6,0-85.5-37-85.5-81.4s38.8-81.4,85.5-81.4h598.2
		C942.7,62.3,981.6,99.3,981.6,143.7z"/>
	<path class="st1" d="M597,1046.1c46.6,0,62.2-37,62.2-81.4V358.2c0-44.4-15.5-81.4-62.2-81.4s-62.2,37-62.2,81.4v610.2
		C534.8,1009.1,550.4,1046.1,597,1046.1z"/>
	<path class="st1" d="M597,935.1c-139.8,0-233.1,44.4-233.1,111c0,18.5,15.5,29.6,31.1,29.6h404c19.4,0,31.1-14.8,31.1-29.6
		C830.1,979.5,736.8,935.1,597,935.1z"/>
	<path class="st1" d="M597,254.6c-174.8,0-299.1,136.8-299.1,303.3S418.3,861.2,597,861.2s299.1-136.8,299.1-303.3
		S771.8,254.6,597,254.6z"/>
	<rect x="297.9" y="225.1" class="st1" width="598.2" height="332.9"/>
</g>
</svg>
