<?xml version="1.0" encoding="utf-8"?>
<!-- Generator: Adobe Illustrator 20.0.0, SVG Export Plug-In . SVG Version: 6.00 Build 0)  -->
<svg version="1.1" id="Layer_1" xmlns="http://www.w3.org/2000/svg" xmlns:xlink="http://www.w3.org/1999/xlink" x="0px" y="0px"
	 viewBox="0 0 160 260" style="enable-background:new 0 0 160 260;" xml:space="preserve">
<style type="text/css">
	.st0{fill:#F95050;}
	.st1{fill:#E24040;}
	.st2{opacity:0.15;fill:#3D3D3D;enable-background:new    ;}
	.st3{fill:#F93737;}
	.st4{fill:#C42727;}
	.st5{fill:#E22929;}
	.st6{fill:#ED8C00;}
	.st7{fill:#FFBC38;}
	.st8{opacity:0.1;fill:#FFE5B5;enable-background:new    ;}
	.st9{fill:#B04D21;}
	.st10{fill:#C25C2A;}
	.st11{fill:#DC753B;}
	.st12{fill:#E68453;}
	.st13{fill:#E17B00;}
	.st14{fill:#ACB9BF;}
	.st15{fill:#C0CAD1;}
	.st16{fill:#DEE5EB;}
	.st17{fill:#F5F5F5;}
	.st18{fill:#ABB5F0;}
	.st19{fill:#F28706;}
	.st20{fill:#F99615;}
	.st21{fill:#FDC00F;}
	.st22{fill:#FFCC4D;}
</style>
<g>
	<g>
		<g>
			<path class="st0" d="M126.1,134.8l-6.7,1.1l-5.6,0.9c-0.7,0.1-1.4,0.5-1.9,1l-4,4.1l-4.7,4.9c-1.6,1.6-4.4,1.2-5.5-0.7l-13.5-26
				l-3.7-7.2l-4.6-8.8c-0.9-1.6-0.2-3.7,1.5-4.6l3.1-1.6l3.5-1.9l11.5-6l6.6-3.5c1.6-0.9,3.7-0.2,4.6,1.5l10.2,19.7l11.6,22.3
				C129.6,131.9,128.3,134.4,126.1,134.8z"/>
			<path class="st1" d="M119.4,135.8l-5.6,0.9c-0.7,0.1-1.4,0.5-1.9,1l-4,4.1l-15.6-29.9l-8.4-16l11.5-6l11.3,21.8L119.4,135.8z"/>
		</g>
		<path class="st2" d="M126.1,134.8l-6.7,1.1l-5.6,0.9c-0.7,0.1-1.4,0.5-1.9,1l-4,4.1l-4.7,4.9c-1.6,1.6-4.4,1.2-5.5-0.7l-13.5-26
			l-3.7-7.2l-4.6-8.8c-0.9-1.6-0.2-3.7,1.5-4.6l3.1-1.6l3.5-1.9l11.5-6l6.6-3.5c1.6-0.9,3.7-0.2,4.6,1.5l10.2,19.7l11.6,22.3
			C129.6,131.9,128.3,134.4,126.1,134.8z"/>
	</g>
	<g>
		<path class="st0" d="M85.1,103.9l-4.6,8.8l-3.7,7.1l-13.5,26c-1.1,2.1-3.9,2.5-5.5,0.7l-4.7-4.9l-4-4.1c-0.5-0.5-1.2-0.9-1.9-1
			l-5.6-0.9l-6.7-1.1c-2.2-0.4-3.5-2.9-2.5-5l11.8-22.4l10.1-19.3c0.9-1.6,2.9-2.4,4.6-1.5l6.6,3.5l11.5,6l0,0l3.5,1.9l3.1,1.6
			C85.3,100.1,86,102.2,85.1,103.9z"/>
		<path class="st1" d="M77,95.9L77,95.9l-8.1,15.6l-15.8,30.3l-4-4.1c-0.5-0.5-1.2-0.9-1.9-1l-5.6-0.9l12.6-24.1l11.3-21.8l0,0
			L77,95.9z"/>
	</g>
	<path class="st3" d="M127.2,53.6c0,25.9-20.9,47-46.9,47c-10.5,0-20.2-3.5-28-9.3l0,0c-10.7-8.6-17.4-21.8-17.4-36.6
		c0-25.9,20.9-46.9,46.9-46.9c10.5,0,20.1,3.5,27.9,9.2C120.4,25.6,127.2,38.8,127.2,53.6z"/>
	<path class="st4" d="M117.1,53.6c0,20.3-16.5,36.8-36.8,36.8c-12,0-22.6-5.7-29.3-14.6c-4.7-6.2-7.5-13.8-7.5-22.2
		c0-20.3,16.5-36.8,36.8-36.8c12.8,0,24.2,6.6,30.7,16.6C114.9,39.2,117.1,46.2,117.1,53.6z"/>
	<path class="st5" d="M117.1,53.6c0,20.3-16.5,36.8-36.8,36.8c-12,0-22.6-5.7-29.3-14.6c-3.7-5.7-6-12.7-6-20.1
		C45.1,35.4,61.5,19,81.8,19c12,0,22.6,5.7,29.2,14.5C114.9,39.2,117.1,46.2,117.1,53.6z"/>
	<g>
		<path class="st6" d="M89.5,43.8l13.5,2.1c1,0.1,1.5,1.5,0.7,2.2l-9.8,9.5c-0.2,0.2-0.5,0.7-0.4,1.1l2.2,13.5c0.1,1-1,1.9-1.9,1.4
			l-12.1-6.5c-0.4-0.2-0.9-0.2-1.2,0l-12.2,6.2c-1,0.5-2-0.4-1.9-1.4l2.4-13.5c0.1-0.4,0-0.9-0.4-1.1l-9.7-9.6
			c-0.7-0.7-0.4-2,0.7-2.2L73,43.7c0.4,0,0.7-0.4,1-0.7l6.1-12.2c0.5-1,1.9-1,2.2,0l6,12.3C88.6,43.5,89,43.8,89.5,43.8z"/>
		<path class="st7" d="M89,43.2l13.6,2.1c1,0.1,1.5,1.5,0.7,2.2L93.4,57c-0.2,0.2-0.5,0.7-0.4,1.1l2.2,13.5c0.1,1-1,1.9-1.9,1.4
			l-12.1-6.5c-0.4-0.2-0.9-0.2-1.2,0l-12.2,6.2c-1,0.5-2-0.4-1.9-1.4l2.4-13.5c0.1-0.4,0-0.9-0.4-1.1l-9.7-9.6
			c-0.7-0.7-0.4-2,0.7-2.2L72.6,43c0.4,0,0.7-0.4,1-0.7l6.1-12.2c0.5-1,1.9-1,2.2,0l6,12.3C88.1,42.8,88.5,43,89,43.2z"/>
	</g>
	<path class="st8" d="M94.6,28.5c0,6.5-1.5,12.5-4.2,17.8C86.1,54.6,79,61.1,70.3,64.7c-4.5,1.9-9.5,2.9-14.7,2.9
		c-2.6,0-5.2-0.2-7.7-0.7c-0.2,0-0.6-0.1-0.9-0.2c-3.6-0.9-7.1-2.1-10.2-4c-0.4-0.2-0.9-0.5-1.2-0.7c-0.4-2.4-0.5-4.7-0.5-7.2
		C34.9,28.7,55.8,7.8,81.7,7.8c2.5,0,5,0.2,7.4,0.6c0.1,0.2,0.4,0.6,0.5,0.9c1.9,3.2,3.2,6.9,4.1,10.7c0.1,0.6,0.2,1.1,0.4,1.7
		C94.3,23.8,94.6,26.1,94.6,28.5z"/>
</g>
<g>
	<g>
		<g>
			<path class="st0" d="M153.6,244.2l-5.4,0.9l-4.5,0.7c-0.6,0.1-1.1,0.4-1.5,0.8l-3.2,3.3l-3.8,3.9c-1.3,1.3-3.5,1-4.4-0.6
				L120,232.3l-3-5.8l-3.7-7.1c-0.7-1.3-0.2-3,1.2-3.7l2.5-1.3l2.8-1.5l9.2-4.8l5.3-2.8c1.3-0.7,3-0.2,3.7,1.2l8.2,15.8l9.3,17.9
				C156.4,241.9,155.4,243.9,153.6,244.2z"/>
			<path class="st1" d="M148.2,245l-4.5,0.7c-0.6,0.1-1.1,0.4-1.5,0.8l-3.2,3.3l-12.5-24l-6.7-12.8l9.2-4.8l9.1,17.5L148.2,245z"/>
		</g>
		<path class="st2" d="M153.6,244.2l-5.4,0.9l-4.5,0.7c-0.6,0.1-1.1,0.4-1.5,0.8l-3.2,3.3l-3.8,3.9c-1.3,1.3-3.5,1-4.4-0.6
			L120,232.3l-3-5.8l-3.7-7.1c-0.7-1.3-0.2-3,1.2-3.7l2.5-1.3l2.8-1.5l9.2-4.8l5.3-2.8c1.3-0.7,3-0.2,3.7,1.2l8.2,15.8l9.3,17.9
			C156.4,241.9,155.4,243.9,153.6,244.2z"/>
	</g>
	<g>
		<path class="st0" d="M120.7,219.4l-3.7,7.1l-3,5.7l-10.8,20.9c-0.9,1.7-3.1,2-4.4,0.6l-3.8-3.9l-3.2-3.3c-0.4-0.4-1-0.7-1.5-0.8
			l-4.5-0.7l-5.4-0.9c-1.8-0.3-2.8-2.3-2-4l9.5-18l8.1-15.5c0.7-1.3,2.3-1.9,3.7-1.2l5.3,2.8l9.2,4.8l0,0l2.8,1.5l2.5,1.3
			C120.9,216.4,121.4,218.1,120.7,219.4z"/>
		<path class="st1" d="M114.2,213L114.2,213l-6.5,12.5L95,249.8l-3.2-3.3c-0.4-0.4-1-0.7-1.5-0.8l-4.5-0.7l10.1-19.3l9.1-17.5l0,0
			L114.2,213z"/>
	</g>
	<g>
		<ellipse class="st9" cx="117" cy="179.8" rx="37" ry="36.6"/>
		<ellipse class="st10" cx="117" cy="178" rx="37" ry="36.6"/>
		<ellipse class="st9" cx="117" cy="178" rx="26.2" ry="25.9"/>
		<ellipse class="st11" cx="117" cy="178" rx="24.4" ry="24.1"/>
		<path class="st12" d="M93,173.9c4.5,5.2,11.1,8.5,18.6,8.5c12.1,0,22-8.7,24-20c-4.5-5.2-11.1-8.5-18.6-8.5
			C104.9,153.9,95,162.6,93,173.9z"/>
		<g>
			<circle class="st13" cx="116.1" cy="179.8" r="0"/>
			<circle class="st13" cx="116.1" cy="179.8" r="0"/>
		</g>
	</g>
</g>
<g>
	<g>
		<g>
			<path class="st0" d="M153.6,244.2l-5.4,0.9l-4.5,0.7c-0.6,0.1-1.1,0.4-1.5,0.8l-3.2,3.3l-3.8,3.9c-1.3,1.3-3.5,1-4.4-0.6
				L120,232.3l-3-5.8l-3.7-7.1c-0.7-1.3-0.2-3,1.2-3.7l2.5-1.3l2.8-1.5l9.2-4.8l5.3-2.8c1.3-0.7,3-0.2,3.7,1.2l8.2,15.8l9.3,17.9
				C156.4,241.9,155.4,243.9,153.6,244.2z"/>
			<path class="st1" d="M148.2,245l-4.5,0.7c-0.6,0.1-1.1,0.4-1.5,0.8l-3.2,3.3l-12.5-24l-6.7-12.8l9.2-4.8l9.1,17.5L148.2,245z"/>
		</g>
		<path class="st2" d="M153.6,244.2l-5.4,0.9l-4.5,0.7c-0.6,0.1-1.1,0.4-1.5,0.8l-3.2,3.3l-3.8,3.9c-1.3,1.3-3.5,1-4.4-0.6
			L120,232.3l-3-5.8l-3.7-7.1c-0.7-1.3-0.2-3,1.2-3.7l2.5-1.3l2.8-1.5l9.2-4.8l5.3-2.8c1.3-0.7,3-0.2,3.7,1.2l8.2,15.8l9.3,17.9
			C156.4,241.9,155.4,243.9,153.6,244.2z"/>
	</g>
	<g>
		<path class="st0" d="M120.7,219.4l-3.7,7.1l-3,5.7l-10.8,20.9c-0.9,1.7-3.1,2-4.4,0.6l-3.8-3.9l-3.2-3.3c-0.4-0.4-1-0.7-1.5-0.8
			l-4.5-0.7l-5.4-0.9c-1.8-0.3-2.8-2.3-2-4l9.5-18l8.1-15.5c0.7-1.3,2.3-1.9,3.7-1.2l5.3,2.8l9.2,4.8l0,0l2.8,1.5l2.5,1.3
			C120.9,216.4,121.4,218.1,120.7,219.4z"/>
		<path class="st1" d="M114.2,213L114.2,213l-6.5,12.5L95,249.8l-3.2-3.3c-0.4-0.4-1-0.7-1.5-0.8l-4.5-0.7l10.1-19.3l9.1-17.5l0,0
			L114.2,213z"/>
	</g>
	<g>
		<ellipse class="st14" cx="117" cy="179.8" rx="37" ry="36.6"/>
		<ellipse class="st15" cx="117" cy="178" rx="37" ry="36.6"/>
		<ellipse class="st14" cx="117" cy="178" rx="26.2" ry="25.9"/>
		<ellipse class="st16" cx="117" cy="178" rx="24.4" ry="24.1"/>
		<path class="st17" d="M93,173.9c4.5,5.2,11.1,8.5,18.6,8.5c12.1,0,22-8.7,24-20c-4.5-5.2-11.1-8.5-18.6-8.5
			C104.9,153.9,95,162.6,93,173.9z"/>
		<g>
			<circle class="st18" cx="116.1" cy="179.8" r="0"/>
			<circle class="st18" cx="116.1" cy="179.8" r="0"/>
		</g>
	</g>
</g>
<g>
	<g>
		<g>
			<path class="st0" d="M82.1,244.2l-5.4,0.9l-4.5,0.7c-0.6,0.1-1.1,0.4-1.5,0.8l-3.2,3.3l-3.8,3.9c-1.3,1.3-3.5,1-4.4-0.6
				l-10.8-20.9l-3-5.8l-3.7-7.1c-0.7-1.3-0.2-3,1.2-3.7l2.5-1.3l2.8-1.5l9.2-4.8l5.3-2.8c1.3-0.7,3-0.2,3.7,1.2l8.2,15.8l9.3,17.9
				C84.9,241.9,83.9,243.9,82.1,244.2z"/>
			<path class="st1" d="M76.7,245l-4.5,0.7c-0.6,0.1-1.1,0.4-1.5,0.8l-3.2,3.3l-12.5-24L48.3,213l9.2-4.8l9.1,17.5L76.7,245z"/>
		</g>
		<path class="st2" d="M82.1,244.2l-5.4,0.9l-4.5,0.7c-0.6,0.1-1.1,0.4-1.5,0.8l-3.2,3.3l-3.8,3.9c-1.3,1.3-3.5,1-4.4-0.6
			l-10.8-20.9l-3-5.8l-3.7-7.1c-0.7-1.3-0.2-3,1.2-3.7l2.5-1.3l2.8-1.5l9.2-4.8l5.3-2.8c1.3-0.7,3-0.2,3.7,1.2l8.2,15.8l9.3,17.9
			C84.9,241.9,83.9,243.9,82.1,244.2z"/>
	</g>
	<g>
		<path class="st0" d="M49.2,219.4l-3.7,7.1l-3,5.7l-10.8,20.9c-0.9,1.7-3.1,2-4.4,0.6l-3.8-3.9l-3.2-3.3c-0.4-0.4-1-0.7-1.5-0.8
			l-4.5-0.7l-5.4-0.9c-1.8-0.3-2.8-2.3-2-4l9.5-18l8.1-15.5c0.7-1.3,2.3-1.9,3.7-1.2l5.3,2.8l9.2,4.8l0,0l2.8,1.5l2.5,1.3
			C49.4,216.4,49.9,218.1,49.2,219.4z"/>
		<path class="st1" d="M42.7,213L42.7,213l-6.5,12.5l-12.7,24.3l-3.2-3.3c-0.4-0.4-1-0.7-1.5-0.8l-4.5-0.7l10.1-19.3l9.1-17.5l0,0
			L42.7,213z"/>
	</g>
	<g>
		<ellipse class="st9" cx="45.5" cy="179.8" rx="37" ry="36.6"/>
		<ellipse class="st10" cx="45.5" cy="178" rx="37" ry="36.6"/>
		<ellipse class="st9" cx="45.5" cy="178" rx="26.2" ry="25.9"/>
		<ellipse class="st11" cx="45.5" cy="178" rx="24.4" ry="24.1"/>
		<path class="st12" d="M21.5,173.9c4.5,5.2,11.1,8.5,18.6,8.5c12.1,0,22-8.7,24-20c-4.5-5.2-11.1-8.5-18.6-8.5
			C33.4,153.9,23.5,162.6,21.5,173.9z"/>
		<g>
			<circle class="st13" cx="44.6" cy="179.8" r="0"/>
			<circle class="st13" cx="44.6" cy="179.8" r="0"/>
		</g>
	</g>
</g>
<g>
	<g>
		<g>
			<path class="st0" d="M118,244.2l-5.4,0.9l-4.5,0.7c-0.6,0.1-1.1,0.4-1.5,0.8l-3.2,3.3l-3.8,3.9c-1.3,1.3-3.5,1-4.4-0.6
				l-10.8-20.9l-3-5.8l-3.7-7.1c-0.7-1.3-0.2-3,1.2-3.7l2.5-1.3l2.8-1.5l9.2-4.8l5.3-2.8c1.3-0.7,3-0.2,3.7,1.2l8.2,15.8l9.3,17.9
				C120.8,241.9,119.8,243.9,118,244.2z"/>
			<path class="st1" d="M112.6,245l-4.5,0.7c-0.6,0.1-1.1,0.4-1.5,0.8l-3.2,3.3l-12.5-24L84.2,213l9.2-4.8l9.1,17.5L112.6,245z"/>
		</g>
		<path class="st2" d="M118,244.2l-5.4,0.9l-4.5,0.7c-0.6,0.1-1.1,0.4-1.5,0.8l-3.2,3.3l-3.8,3.9c-1.3,1.3-3.5,1-4.4-0.6l-10.8-20.9
			l-3-5.8l-3.7-7.1c-0.7-1.3-0.2-3,1.2-3.7l2.5-1.3l2.8-1.5l9.2-4.8l5.3-2.8c1.3-0.7,3-0.2,3.7,1.2l8.2,15.8l9.3,17.9
			C120.8,241.9,119.8,243.9,118,244.2z"/>
	</g>
	<g>
		<path class="st0" d="M85.1,219.4l-3.7,7.1l-3,5.7l-10.8,20.9c-0.9,1.7-3.1,2-4.4,0.6l-3.8-3.9l-3.2-3.3c-0.4-0.4-1-0.7-1.5-0.8
			l-4.5-0.7l-5.4-0.9c-1.8-0.3-2.8-2.3-2-4l9.5-18l8.1-15.5c0.7-1.3,2.3-1.9,3.7-1.2l5.3,2.8l9.2,4.8l0,0l2.8,1.5l2.5,1.3
			C85.3,216.4,85.8,218.1,85.1,219.4z"/>
		<path class="st1" d="M78.6,213L78.6,213l-6.5,12.5l-12.7,24.3l-3.2-3.3c-0.4-0.4-1-0.7-1.5-0.8l-4.5-0.7l10.1-19.3l9.1-17.5l0,0
			L78.6,213z"/>
	</g>
	<g>
		<ellipse class="st14" cx="81.4" cy="179.8" rx="37" ry="36.6"/>
		<ellipse class="st15" cx="81.4" cy="178" rx="37" ry="36.6"/>
		<ellipse class="st14" cx="81.4" cy="178" rx="26.2" ry="25.9"/>
		<ellipse class="st16" cx="81.4" cy="178" rx="24.4" ry="24.1"/>
		<path class="st17" d="M57.4,173.9c4.5,5.2,11.1,8.5,18.6,8.5c12.1,0,22-8.7,24-20c-4.5-5.2-11.1-8.5-18.6-8.5
			C69.3,153.9,59.4,162.6,57.4,173.9z"/>
		<g>
			<circle class="st18" cx="80.5" cy="179.8" r="0"/>
			<circle class="st18" cx="80.5" cy="179.8" r="0"/>
		</g>
	</g>
</g>
<g>
	<g>
		<g>
			<path class="st0" d="M154.9,244.2l-5.4,0.9l-4.5,0.7c-0.6,0.1-1.1,0.4-1.5,0.8l-3.2,3.3l-3.8,3.9c-1.3,1.3-3.5,1-4.4-0.6
				l-10.8-20.9l-3-5.8l-3.7-7.1c-0.7-1.3-0.2-3,1.2-3.7l2.5-1.3l2.8-1.5l9.2-4.8l5.3-2.8c1.3-0.7,3-0.2,3.7,1.2l8.2,15.8l9.3,17.9
				C157.7,241.9,156.7,243.9,154.9,244.2z"/>
			<path class="st1" d="M149.5,245l-4.5,0.7c-0.6,0.1-1.1,0.4-1.5,0.8l-3.2,3.3l-12.5-24l-6.7-12.8l9.2-4.8l9.1,17.5L149.5,245z"/>
		</g>
		<path class="st2" d="M154.9,244.2l-5.4,0.9l-4.5,0.7c-0.6,0.1-1.1,0.4-1.5,0.8l-3.2,3.3l-3.8,3.9c-1.3,1.3-3.5,1-4.4-0.6
			l-10.8-20.9l-3-5.8l-3.7-7.1c-0.7-1.3-0.2-3,1.2-3.7l2.5-1.3l2.8-1.5l9.2-4.8l5.3-2.8c1.3-0.7,3-0.2,3.7,1.2l8.2,15.8l9.3,17.9
			C157.7,241.9,156.7,243.9,154.9,244.2z"/>
	</g>
	<g>
		<path class="st0" d="M122,219.4l-3.7,7.1l-3,5.7l-10.8,20.9c-0.9,1.7-3.1,2-4.4,0.6l-3.8-3.9l-3.2-3.3c-0.4-0.4-1-0.7-1.5-0.8
			l-4.5-0.7l-5.4-0.9c-1.8-0.3-2.8-2.3-2-4l9.5-18l8.1-15.5c0.7-1.3,2.3-1.9,3.7-1.2l5.3,2.8l9.2,4.8l0,0l2.8,1.5l2.5,1.3
			C122.2,216.4,122.7,218.1,122,219.4z"/>
		<path class="st1" d="M115.5,213L115.5,213l-6.5,12.5l-12.7,24.3l-3.2-3.3c-0.4-0.4-1-0.7-1.5-0.8l-4.5-0.7l10.1-19.3l9.1-17.5l0,0
			L115.5,213z"/>
	</g>
	<g>
		<ellipse class="st19" cx="118.3" cy="179.8" rx="37" ry="36.6"/>
		<ellipse class="st20" cx="118.3" cy="178" rx="37" ry="36.6"/>
		<ellipse class="st19" cx="118.3" cy="178" rx="26.2" ry="25.9"/>
		<ellipse class="st21" cx="118.3" cy="178" rx="24.4" ry="24.1"/>
		<path class="st22" d="M94.3,173.9c4.5,5.2,11.1,8.5,18.6,8.5c12.1,0,22-8.7,24-20c-4.5-5.2-11.1-8.5-18.6-8.5
			C106.2,153.9,96.3,162.6,94.3,173.9z"/>
		<g>
			<circle class="st19" cx="117.4" cy="179.8" r="0"/>
			<circle class="st19" cx="117.4" cy="179.8" r="0"/>
		</g>
	</g>
</g>
</svg>
