<?xml version="1.0" encoding="utf-8"?>
<!-- Generator: Adobe Illustrator 15.0.0, SVG Export Plug-In . SVG Version: 6.00 Build 0)  -->
<!DOCTYPE svg PUBLIC "-//W3C//DTD SVG 1.1//EN" "http://www.w3.org/Graphics/SVG/1.1/DTD/svg11.dtd">
<svg version="1.1" id="flash0.ai" xmlns="http://www.w3.org/2000/svg" xmlns:xlink="http://www.w3.org/1999/xlink" x="0px" y="0px"
	 width="90px" height="60px" viewBox="0 0 90 60" enable-background="new 0 0 90 60" xml:space="preserve">
<style type="text/css">
	.st0{fill:#FFFFFF;}
</style>
<path class="st0" d="M69.6,36.4c0,6.3-2.3,11.3-7,15c-3.6,2.8-7.2,4.1-10.8,4.1h-5.2v-12c2.8,0,5.1-0.6,7-1.7
	c2.1-1.3,3.2-3.1,3.2-5.4c-0.1-2-1-3.6-2.7-4.9c-1.9-1.5-4.4-2.3-7.5-2.3H36.4v14.3L14.8,23.3L36.4,3v14.4h15.5
	c3.6,0,7.1,1.4,10.6,4.2C67.2,25.2,69.6,30.2,69.6,36.4z"/>
</svg>
