<?xml version="1.0" encoding="utf-8"?>
<!-- Generator: Adobe Illustrator 15.0.0, SVG Export Plug-In . SVG Version: 6.00 Build 0)  -->
<!DOCTYPE svg PUBLIC "-//W3C//DTD SVG 1.1//EN" "http://www.w3.org/Graphics/SVG/1.1/DTD/svg11.dtd">
<svg version="1.1" id="flash0.ai" xmlns="http://www.w3.org/2000/svg" xmlns:xlink="http://www.w3.org/1999/xlink" x="0px" y="0px"
	 width="90px" height="60px" viewBox="0 0 90 60" enable-background="new 0 0 90 60" xml:space="preserve">
<style type="text/css">
	.st0{fill:#FFFFFF;}
</style>
<g>
	<path class="st0" d="M49.1,47.7c0.1-0.5,0.3-1,0.3-1.6c0-0.5-0.1-1.1-0.3-1.6c-0.3-0.5-0.5-1-1-1.4c-0.8-0.6-1.5-1-2.4-1.1h-0.6
		c-0.5,0-1,0.1-1.4,0.4c-0.5,0.3-1,0.5-1.4,0.9s-0.6,0.9-0.9,1.4c-0.3,0.5-0.4,1-0.4,1.6c0,0.5,0.1,1.1,0.4,1.6
		c0.3,0.5,0.5,1,0.9,1.4s0.9,0.6,1.4,0.9c0.4,0.1,0.9,0.3,1.4,0.4h0.6c0.9-0.1,1.8-0.5,2.4-1.3C48.6,48.7,49,48.2,49.1,47.7z
		 M53.7,43.5l2.9,1.1v2.9l-3,1.1L53,50.1l1.4,2.9l-2,2.1l-3-1.1l-1.5,0.6l-1,2.8h-3l-1.6-3.3l-1.4-0.6l-2.1,1.8l-2.1-2.1l1.1-3
		L37,48.7l-2.8-1v-3l2.8-0.8l0.5-1.4l-1.1-3.3l2-2.1l2.8,1.3l1.6-0.6l1.3-2.9h3l0.9,2.9l1.4,0.6l3-1.4l2.1,2.1l-1,2.9L53.7,43.5z
		 M52.1,19.8c0,0.9,0.3,1.8,0.6,2.5c0.3,0.8,0.8,1.5,1.4,2.1c0.6,0.6,1.3,1,2.1,1.4c0.8,0.3,1.5,0.5,2.3,0.5h0.6
		c0.8,0,1.5-0.3,2.3-0.5c0.8-0.4,1.5-0.8,2.1-1.4s1-1.3,1.4-2.1c0.4-0.8,0.6-1.6,0.6-2.5s-0.2-1.8-0.6-2.5c-0.3-0.8-0.8-1.5-1.4-2.1
		s-1.4-1-2.1-1.4c-0.8-0.3-1.5-0.5-2.3-0.5h-0.6c-0.8,0-1.5,0.3-2.3,0.5c-0.8,0.4-1.5,0.8-2.1,1.4c-0.6,0.6-1,1.3-1.4,2.1
		C52.2,18,52.1,18.9,52.1,19.8z M29.5,21.1c-0.5-0.3-1.1-0.4-1.8-0.5h-0.5c-0.6,0-1.1,0.3-1.8,0.5c-0.6,0.3-1.1,0.6-1.6,1.1
		s-0.9,1-1.1,1.6s-0.5,1.3-0.5,2c0,0.8,0.1,1.4,0.5,2c0.3,0.6,0.6,1.1,1.1,1.6s1,0.9,1.6,1.1c0.5,0.3,1.1,0.4,1.8,0.4h0.3
		c0.3,0,0.4,0,0.6,0c0.5,0,1-0.1,1.5-0.4c0.6-0.3,1.1-0.6,1.6-1.1c0.5-0.4,0.9-1,1.1-1.6c0.3-0.6,0.4-1.3,0.4-2c0-0.6-0.1-1.4-0.4-2
		c-0.3-0.6-0.6-1.1-1.1-1.6C30.7,21.8,30.2,21.4,29.5,21.1z M36,14.5l2.6,2.6l-1.4,3.7l0.8,1.9l3.5,1.4v3.7l-3.7,1.4L37,31l1.6,3.5
		l-2.5,2.8l-3.7-1.5l-1.9,0.8l-1,3.4h-3.8l-2-4L22,35.1l-2.9,2.1l-2.8-2.6l1.4-3.9L17,28.9l-3.5-1.3v-3.8L17,23l0.6-1.6l-1.5-4
		l2.5-2.6l3.4,1.5l2-0.9l1.6-3.7h3.7l1.3,3.7l1.8,0.8L36,14.5z M47.5,5.7l4.3,1.9l2.5-1l2-4.5H61l1.5,4.5l2.3,1l4.8-2.3L73,8.7
		l-1.8,4.7l1,2.5l4.4,1.8v4.5L71.9,24l-1,1.9l2.1,4.5l-3.1,3.4L65.1,32l-2.4,1L61,37.6h-4.8l-2.5-5.2l-2.1-1L48,34.1l-3.4-3.4
		l1.8-4.9l-1-2.3L40.9,22v-4.8l4.4-1.1l0.8-2.1l-1.8-5L47.5,5.7z"/>
</g>
</svg>
