<?xml version="1.0" encoding="utf-8"?>
<!-- Generator: Adobe Illustrator 15.0.0, SVG Export Plug-In . SVG Version: 6.00 Build 0)  -->
<!DOCTYPE svg PUBLIC "-//W3C//DTD SVG 1.1//EN" "http://www.w3.org/Graphics/SVG/1.1/DTD/svg11.dtd">
<svg version="1.1" id="flash0.ai" xmlns="http://www.w3.org/2000/svg" xmlns:xlink="http://www.w3.org/1999/xlink" x="0px" y="0px"
	 width="90px" height="60px" viewBox="0 0 90 60" enable-background="new 0 0 90 60" xml:space="preserve">
<style type="text/css">
	.st0{fill:#FFFFFF;}
</style>
<path class="st0" d="M56.6,2.8c0.5-0.1,1-0.2,1.5-0.1c0.7,0.1,1.6,0.3,2.5,0.7c2.1,0.9,3.7,2.6,4.7,5.1c0.6,1.5,0.7,2.8,0.4,3.9
	c-0.3,0.9-0.9,1.7-2,2.3c-1.8,0.5-3.3,1-4.6,1.5c-2.6,1-3.5,1.8-2.8,2.5l9.5,8.6L53.3,40c0.5,0.5-11.4-11.8-11.5-11.7l-7.3,7.9
	l13.9,14.4l-1.7,1.7c-0.6,0.6-1.5,1.6-2.9,3c-1.2,1.2-2.4,1.9-3.5,2.1c-1.4,0.3-3.1-0.5-5-2.3c-1.9-2.2-3.2-3.6-3.9-4.3L21.3,40.4
	c-1.8-1.7-3.1-2.9-4-3.8c-1.6-1.5-2.8-2.9-3.6-4c-0.5-0.6-0.8-1.3-0.9-2c-0.4-1.8,0.5-3.7,2.6-5.6c1.4-1.6,2.6-2.9,3.6-3.9
	c1.4-1.4,2.5-2.1,3.1-2.2c0.1,0,0.3,0,0.5,0.1h0.1c1,0.8,1.6,2,2,3.6c0.5,2.1,0.9,3.4,1.2,4c1.1,1.8,2.7,2.5,4.7,2
	c0.5-0.1,1-0.3,1.5-0.5c2.5-1,4.3-2.6,5.2-4.7c0.3-0.8,0.6-1.5,0.7-2.3c0-0.4,0-0.8,0-1.2c-0.1-1.3-0.5-2.3-1.4-3
	c-0.7-0.6-2-1.1-3.8-1.6c-1.8-0.4-3.1-1-3.9-1.8c-0.1,0-0.1-0.1-0.1-0.1c-0.5-0.6-0.6-1.2-0.2-1.7c0-0.1,0.6-0.6,1.8-1.7l3.8-3.8
	c2.8-3.1,5.3-3.9,7.5-2.3c1.2,0.9,2.6,2.1,4.2,3.8c0.9,0.9,2.2,2.3,3.9,4.1c1,1,1.9,0.1,2.8-2.9c0.3-1.2,0.6-2.2,0.8-2.9
	c0.4-1.1,0.8-2,1.4-2.5C55.1,3.2,55.8,2.9,56.6,2.8z"/>
<polygon class="st0" points="53.3,41.2 75.4,18.6 82,25.4 53.4,54.8 35.5,36.2 41.9,29.5 "/>
</svg>
