<?xml version="1.0" encoding="utf-8"?>
<!-- Generator: Adobe Illustrator 16.0.0, SVG Export Plug-In . SVG Version: 6.00 Build 0)  -->
<!DOCTYPE svg PUBLIC "-//W3C//DTD SVG 1.1//EN" "http://www.w3.org/Graphics/SVG/1.1/DTD/svg11.dtd">
<svg version="1.1" id="Layer_1" xmlns="http://www.w3.org/2000/svg" xmlns:xlink="http://www.w3.org/1999/xlink" x="0px" y="0px"
	 width="32px" height="32px" viewBox="0 0 32 32" enable-background="new 0 0 32 32" xml:space="preserve">
<g id="Layer_1_1_">
</g>
<g>
	<path fill-rule="evenodd" clip-rule="evenodd" fill="#FFFFFF" d="M11.757,1.511h13.481c2.114,0,3.846,1.73,3.846,3.844v13.483
		c0,2.111-1.731,3.843-3.846,3.843h-0.575v-1.833h0.575c1.108,0,2.014-0.904,2.014-2.01V8.104c0-1.105-0.905-2.01-2.014-2.01H11.757
		c-1.104,0-2.009,0.903-2.009,2.01v0.232H7.915V5.354C7.915,3.241,9.644,1.511,11.757,1.511L11.757,1.511z M24.552,2.924h1.019
		c0.241,0,0.438,0.195,0.438,0.436v1.019c0,0.239-0.197,0.437-0.438,0.437h-1.019c-0.239,0-0.435-0.197-0.435-0.437V3.36
		C24.117,3.119,24.313,2.924,24.552,2.924L24.552,2.924z M22.312,2.924h1.019c0.239,0,0.436,0.195,0.436,0.436v1.019
		c0,0.239-0.196,0.437-0.436,0.437h-1.019c-0.24,0-0.438-0.197-0.438-0.437V3.36C21.874,3.119,22.071,2.924,22.312,2.924
		L22.312,2.924z M20.1,2.924h1.02c0.238,0,0.437,0.195,0.437,0.436v1.019c0,0.239-0.198,0.437-0.437,0.437H20.1
		c-0.24,0-0.437-0.197-0.437-0.437V3.36C19.663,3.119,19.859,2.924,20.1,2.924L20.1,2.924z"/>
	<path fill-rule="evenodd" clip-rule="evenodd" fill="#FFFFFF" d="M6.421,9.252h13.481c2.114,0,3.845,1.73,3.845,3.844v13.482
		c0,2.114-1.73,3.844-3.845,3.844H6.421c-2.114,0-3.844-1.729-3.844-3.844V13.096C2.577,10.983,4.307,9.252,6.421,9.252L6.421,9.252
		z M19.215,10.665h1.019c0.24,0,0.438,0.197,0.438,0.437v1.019c0,0.239-0.197,0.437-0.438,0.437h-1.019
		c-0.239,0-0.437-0.198-0.437-0.437v-1.019C18.778,10.862,18.976,10.665,19.215,10.665L19.215,10.665z M16.975,10.665h1.019
		c0.239,0,0.435,0.197,0.435,0.437v1.019c0,0.239-0.195,0.437-0.435,0.437h-1.019c-0.24,0-0.438-0.198-0.438-0.437v-1.019
		C16.536,10.862,16.734,10.665,16.975,10.665L16.975,10.665z M14.762,10.665h1.02c0.238,0,0.436,0.197,0.436,0.437v1.019
		c0,0.239-0.198,0.437-0.436,0.437h-1.02c-0.239,0-0.436-0.198-0.436-0.437v-1.019C14.326,10.862,14.523,10.665,14.762,10.665
		L14.762,10.665z M6.421,13.836h13.481c1.106,0,2.012,0.904,2.012,2.01v10.732c0,1.106-0.905,2.013-2.012,2.013H6.421
		c-1.105,0-2.011-0.906-2.011-2.013V15.846C4.41,14.74,5.315,13.836,6.421,13.836L6.421,13.836z"/>
</g>
</svg>
