<?xml version="1.0" encoding="utf-8"?>
<!-- Generator: Adobe Illustrator 15.0.0, SVG Export Plug-In . SVG Version: 6.00 Build 0)  -->
<!DOCTYPE svg PUBLIC "-//W3C//DTD SVG 1.1//EN" "http://www.w3.org/Graphics/SVG/1.1/DTD/svg11.dtd">
<svg version="1.1" id="Layer_1" xmlns="http://www.w3.org/2000/svg" xmlns:xlink="http://www.w3.org/1999/xlink" x="0px" y="0px"
	 width="32px" height="32px" viewBox="0 0 32 32" enable-background="new 0 0 32 32" xml:space="preserve">
<g id="Layer_1_1_">
</g>
<g id="fullscreen_x5F_exit">
	<g>
		<polygon fill="#FFFFFF" points="22.982,25.441 26.772,29.231 29.131,26.873 25.341,23.083 29.131,19.293 19.192,19.293 
			19.192,29.231 		"/>
		<polygon fill="#FFFFFF" points="2.769,12.808 12.708,12.808 12.708,2.869 8.917,6.659 5.127,2.953 2.853,5.228 6.559,9.018 		"/>
		<polygon fill="#FFFFFF" points="2.769,26.873 5.127,29.231 8.917,25.441 12.708,29.231 12.708,19.293 2.769,19.293 6.559,23.083 
					"/>
		<polygon fill="#FFFFFF" points="19.192,12.808 29.131,12.808 25.341,9.018 29.047,5.228 26.772,2.953 22.982,6.659 19.192,2.869 
					"/>
	</g>
</g>
</svg>
