<?xml version="1.0" encoding="utf-8"?>
<!-- Generator: Adobe Illustrator 20.0.0, SVG Export Plug-In . SVG Version: 6.00 Build 0)  -->
<svg version="1.1" id="flash0.ai" xmlns="http://www.w3.org/2000/svg" xmlns:xlink="http://www.w3.org/1999/xlink" x="0px" y="0px"
	 width="125px" height="170px" viewBox="0 0 125 170" enable-background="new 0 0 125 170" xml:space="preserve">
<style type="text/css">
	.st0{fill:#2D2D2D;}
	.st1{fill:#FFFFFF;}
	.st2{fill:#57AB33;}
</style>
<path class="st0" d="M112.4,150.3H18.8c-6.6,0-12-5.4-12-12V47.7c0-6.6,5.4-12,12-12h93.7c6.6,0,12,5.4,12,12v90.6
	C124.4,144.9,119,150.3,112.4,150.3z"/>
<g>
	<path class="st1" d="M21.2,77.1L20,55.8l6.4-0.4c1-0.1,1.8,0,2.4,0.2s1.2,0.6,1.6,1.1c0.4,0.6,0.7,1.3,0.9,2.2
		c0.2,0.9,0.3,2.1,0.4,3.4c0.1,1.4,0.1,2.6,0,3.5c-0.1,1-0.3,1.8-0.6,2.4c-0.3,0.6-0.8,1.1-1.4,1.4s-1.4,0.5-2.3,0.5l-2,0.1l0.4,6.4
		L21.2,77.1z M26.2,66c0.4,0,0.7-0.3,0.8-0.7c0.1-0.5,0.2-1.3,0.1-2.6c-0.1-1.1-0.2-1.9-0.4-2.2c-0.2-0.3-0.5-0.5-1-0.5l-1.1,0
		l0.4,6.1L26.2,66z"/>
	<path class="st1" d="M40.9,75.9c-0.1-0.2-0.1-0.3-0.2-0.5c-0.1-0.2-0.1-0.5-0.2-0.9c-0.1-0.4-0.2-1-0.3-1.7s-0.3-1.7-0.5-2.9
		c-0.1-0.5-0.2-0.9-0.2-1.2c-0.1-0.3-0.2-0.5-0.2-0.7c-0.1-0.2-0.2-0.3-0.3-0.3s-0.2-0.1-0.4,0h-0.7l0.5,8.3L34,76.3L32.7,55
		l6.4-0.4c1-0.1,1.8,0,2.4,0.2c0.6,0.2,1.1,0.5,1.5,0.9s0.7,1,0.9,1.7s0.3,1.6,0.4,2.6c0.1,1.1,0.1,2,0,2.6c0,0.6-0.1,1.1-0.3,1.5
		c-0.1,0.4-0.3,0.6-0.5,0.8c-0.2,0.2-0.5,0.4-0.8,0.6v0.2c0.1,0.1,0.2,0.2,0.4,0.3c0.1,0.1,0.2,0.3,0.4,0.5c0.2,0.3,0.4,0.8,0.6,1.5
		c0.2,0.7,0.4,1.6,0.6,2.9c0.2,0.9,0.3,1.5,0.4,2.1c0.1,0.5,0.2,0.9,0.2,1.3c0.1,0.3,0.1,0.6,0.2,0.7c0,0.2,0.1,0.3,0.2,0.5v0.1
		L40.9,75.9z M38.8,63.8c0.4,0,0.7-0.2,0.8-0.6c0.1-0.4,0.2-1,0.1-2c-0.1-0.8-0.2-1.4-0.4-1.7s-0.5-0.4-1-0.4l-1.1,0.1l0.3,4.6
		L38.8,63.8z"/>
	<path class="st1" d="M46.9,75.6l-1.3-21.3l9.4-0.6l0.3,4.5l-5,0.3l0.2,3.7l4.9-0.3l0.3,4.3l-4.9,0.3l0.2,4l5-0.3l0.3,4.7L46.9,75.6
		z"/>
	<path class="st1" d="M60,74.8l-3.8-21.2l4.8-0.3l2.1,14.9h0.3l0.2-15.1l4.7-0.3l-1.4,21.5L60,74.8z"/>
	<path class="st1" d="M70.9,74.2l-1.3-21.3l4.5-0.3l1.3,21.3L70.9,74.2z"/>
	<path class="st1" d="M87.5,71.8c-0.2,0.3-0.4,0.6-0.6,0.9c-0.2,0.2-0.5,0.4-0.9,0.6s-0.8,0.3-1.3,0.4s-1.1,0.1-1.8,0.2
		c-1.4,0.1-2.4,0-3.1-0.2C79,73.4,78.5,73,78,72.3c-0.2-0.3-0.4-0.6-0.5-1c-0.2-0.4-0.3-0.9-0.4-1.5c-0.1-0.7-0.2-1.5-0.3-2.6
		c-0.1-1.1-0.2-2.4-0.3-4.1c-0.1-1.7-0.2-3-0.2-4.1s0-1.9,0-2.6c0-0.7,0.1-1.2,0.2-1.6c0.1-0.4,0.2-0.7,0.4-1.1
		c0.2-0.3,0.4-0.6,0.6-0.9c0.2-0.2,0.5-0.4,0.9-0.6c0.4-0.2,0.8-0.3,1.3-0.4c0.5-0.1,1.1-0.2,1.8-0.2c1.4-0.1,2.4,0,3.1,0.2
		s1.3,0.6,1.7,1.3c0.2,0.3,0.4,0.7,0.5,1c0.2,0.4,0.3,0.9,0.4,1.5c0.1,0.7,0.2,1.5,0.3,2.6c0.1,1,0.2,2.4,0.3,4.1
		c0.1,1.7,0.2,3,0.2,4.1c0,1.1,0,1.9,0,2.6s-0.1,1.2-0.2,1.6C87.8,71.1,87.6,71.4,87.5,71.8z M83.7,68.5c0-0.1,0.1-0.3,0.1-0.5
		s0-0.5,0-0.9s0-1-0.1-1.7c0-0.7-0.1-1.6-0.2-2.8s-0.1-2.1-0.2-2.8s-0.1-1.3-0.1-1.7s-0.1-0.7-0.1-0.9C83,56.9,83,56.7,83,56.6
		c-0.1-0.2-0.2-0.3-0.4-0.4c-0.2-0.1-0.4-0.1-0.8-0.1s-0.6,0.1-0.8,0.2c-0.2,0.1-0.3,0.2-0.3,0.4c0,0.1-0.1,0.3-0.1,0.5s0,0.5,0,0.9
		s0,1,0,1.7s0.1,1.7,0.2,2.8s0.1,2.1,0.2,2.8s0.1,1.3,0.2,1.7c0.1,0.4,0.1,0.7,0.1,0.9c0,0.2,0.1,0.4,0.2,0.5
		c0.1,0.2,0.2,0.3,0.3,0.4C82,69,82.2,69,82.6,69s0.6-0.1,0.8-0.2C83.5,68.8,83.6,68.7,83.7,68.5z"/>
	<path class="st1" d="M95.8,51.3l4.4-0.3l0.9,14.7c0,0.9,0,1.6,0,2.2S101,69,101,69.4c-0.1,0.4-0.1,0.7-0.2,1s-0.2,0.5-0.3,0.8
		c-0.2,0.3-0.4,0.6-0.6,0.8c-0.2,0.2-0.5,0.4-0.9,0.5s-0.8,0.3-1.3,0.3C97,72.9,96.4,73,95.8,73c-1.4,0.1-2.4,0-3.1-0.1
		c-0.7-0.2-1.3-0.5-1.7-1.1c-0.2-0.2-0.3-0.5-0.5-0.7c-0.1-0.2-0.3-0.6-0.4-1s-0.2-0.9-0.3-1.5c-0.1-0.6-0.1-1.3-0.2-2.2l-0.9-14.7
		l4.5-0.3l0.9,14.7c0,0.5,0.1,0.9,0.1,1.2c0,0.3,0.1,0.5,0.2,0.6s0.2,0.2,0.4,0.3c0.2,0,0.4,0,0.7,0c0.3,0,0.5,0,0.7-0.1
		c0.2,0,0.3-0.1,0.4-0.3c0.1-0.2,0.1-0.4,0.1-0.7c0-0.3,0-0.7,0-1.2L95.8,51.3z"/>
	<path class="st1" d="M108.4,57.2c0-0.2,0-0.3,0-0.4c0-0.1,0-0.3,0-0.5c0-0.7-0.1-1.1-0.3-1.4c-0.2-0.2-0.5-0.3-1.1-0.3
		c-0.5,0-0.9,0.2-1,0.4c-0.1,0.3-0.2,0.7-0.1,1.4c0,0.6,0.1,1.1,0.3,1.3c0.2,0.2,0.4,0.5,0.8,0.6c0.4,0.2,0.8,0.4,1.2,0.5
		c0.4,0.1,0.7,0.3,1,0.4c0.3,0.1,0.6,0.2,0.9,0.4c0.3,0.1,0.6,0.3,0.9,0.4c0.3,0.2,0.6,0.4,0.8,0.7c0.3,0.2,0.5,0.6,0.6,1
		s0.3,0.9,0.4,1.5s0.2,1.3,0.2,2.2c0.1,1.3,0.1,2.3-0.1,3.2c-0.1,0.9-0.4,1.5-0.8,2.1c-0.4,0.5-0.9,0.9-1.7,1.2
		c-0.7,0.3-1.6,0.4-2.7,0.5c-1.8,0.1-3.1-0.1-3.9-0.8c-0.9-0.6-1.3-1.8-1.4-3.4c0-0.5-0.1-1.1-0.1-1.6c0-0.6,0-1,0.1-1.3l3.7-0.2
		c0,0.1,0,0.2,0,0.4c0,0.1,0,0.3,0,0.4c0,0.8,0.2,1.4,0.4,1.7c0.2,0.3,0.6,0.4,1.1,0.4c0.6,0,0.9-0.2,1.1-0.5s0.2-0.9,0.2-1.8
		c0-0.5-0.1-1-0.3-1.2c-0.2-0.3-0.5-0.5-0.9-0.8c-0.4-0.2-0.7-0.4-1.1-0.6s-0.8-0.3-1.2-0.5c-0.4-0.1-0.8-0.3-1.1-0.5
		c-0.4-0.2-0.7-0.4-1-0.6c-0.6-0.5-1-1.1-1.2-2s-0.3-2-0.4-3.4c-0.1-1,0-1.8,0.1-2.5s0.4-1.3,0.7-1.7c0.4-0.4,0.9-0.8,1.5-1
		c0.7-0.2,1.5-0.4,2.6-0.4c1-0.1,1.8,0,2.4,0.1c0.7,0.1,1.2,0.3,1.6,0.7c0.4,0.3,0.8,0.8,1,1.4c0.2,0.6,0.3,1.3,0.4,2.2
		c0,0.6,0,1,0,1.4c0,0.3-0.1,0.6-0.1,0.9L108.4,57.2z"/>
</g>
<g id="Isolation_Mode">
	<g>
		<g>
			<g>
				<g>
					<g>
						<path class="st2" d="M103.3,78.3c-0.8-0.6-1.5-0.5-2.2,0.1c-0.3,0.4-0.5,0.7-0.7,1.3c0,0.4-0.2,0.9-0.3,1.6
							c-0.4,1.4-1.4,2.8-3,3.7c-0.8,0.5-1.7,1.3-3,2.6c-1.1,1.2-2.2,1.9-3.1,2.5l-1,11.5c0.5,0.3,1.2,0.5,2.1,0.9
							c1.7,0.7,3.2,1.1,4.7,1.5c2,0.5,4.1,0.8,6.2,1c2.6,0.3,4.3,0.2,5.3-0.3c0.5-0.2,0.8-0.5,1.1-0.6c0.5-0.5,0.7-1,0.5-1.7
							c0-0.1-0.1-0.4-0.4-0.7c-0.1-0.3-0.2-0.4-0.1-0.4c1.2-0.5,1.7-1.3,1.7-2.2c-0.1-0.7-0.5-1.2-1-1.8c1.3-0.3,2-1,2.2-2
							c0.1-1.1-0.2-1.9-1.5-2.5c1-1,1-1.9,0.3-2.9c-0.6-0.9-1.6-1.4-2.7-1.6c-1.7-0.3-2.8-0.5-3.5-0.5c-0.4,0-0.9,0-1.6,0
							c1.7-2.5,2.2-4.8,1.7-7.1C104.4,79.6,104,78.8,103.3,78.3z"/>
						<path class="st2" d="M84.6,88.7c-0.6-0.1-1,0-1.5,0.4s-0.6,0.7-0.7,1.3l-1,10.3c-0.1,0.5,0.1,0.9,0.4,1.4s0.8,0.6,1.4,0.7h0.4
							l1.4-14L84.6,88.7z"/>
						<path class="st2" d="M86.7,101.4c-0.3,0-0.4-0.2-0.7-0.3c-0.1-0.1-0.2-0.4-0.2-0.7s0.2-0.4,0.3-0.6c0.2-0.1,0.5-0.2,0.7-0.2
							c0.3,0,0.4,0.2,0.7,0.3c0.1,0.1,0.2,0.4,0.2,0.7c0,0.3-0.2,0.4-0.3,0.6C87.3,101.5,87,101.5,86.7,101.4z M89.6,91.1
							c0.1-0.5-0.1-0.9-0.4-1.4c-0.4-0.4-0.8-0.6-1.4-0.7l-1.9-0.2l-1.4,13.8l1.9,0.2c0.6,0.1,1,0,1.5-0.4s0.6-0.7,0.7-1.3
							L89.6,91.1z"/>
					</g>
				</g>
			</g>
		</g>
	</g>
</g>
<g>
	<path class="st1" d="M20.9,104.1V82.7h4.4v16.6h4.6v4.7h-9V104.1z"/>
	<path class="st1" d="M31.2,104.1V82.7h9.4v4.5h-5V91h4.9v4.3h-4.9v4h5v4.7L31.2,104.1L31.2,104.1z"/>
	<path class="st1" d="M44.4,104.1l-2.5-21.3h4.8l1.2,15h0.3l1.1-15H54l-2.7,21.3C51.3,104.1,44.4,104.1,44.4,104.1z"/>
	<path class="st1" d="M55.3,104.1V82.7h9.4v4.5h-5V91h4.9v4.3h-4.9v4h5v4.7L55.3,104.1L55.3,104.1z"/>
	<path class="st1" d="M66.5,104.1V82.7h4.4v16.6h4.6v4.7h-9V104.1z"/>
</g>
<g>
	<path class="st1" d="M27.8,111h4.4v14.8c0,0.9-0.1,1.6-0.1,2.2c-0.1,0.6-0.1,1.1-0.2,1.5c-0.1,0.4-0.2,0.7-0.3,1
		c-0.1,0.3-0.2,0.5-0.4,0.7c-0.2,0.3-0.4,0.6-0.7,0.7c-0.3,0.2-0.6,0.4-0.9,0.5c-0.4,0.1-0.8,0.2-1.3,0.3c-0.5,0-1.1,0.1-1.8,0.1
		c-1.4,0-2.4-0.1-3.1-0.3s-1.3-0.6-1.6-1.2c-0.2-0.2-0.3-0.5-0.4-0.7c-0.1-0.3-0.2-0.6-0.3-1c-0.1-0.4-0.2-0.9-0.2-1.5
		c0-0.6-0.1-1.3-0.1-2.2V111h4.5v14.8c0,0.5,0,0.9,0,1.2c0,0.3,0.1,0.5,0.2,0.6c0.1,0.2,0.2,0.2,0.4,0.3c0.2,0.1,0.4,0.1,0.7,0.1
		s0.5,0,0.7-0.1c0.2,0,0.3-0.1,0.4-0.3c0.1-0.2,0.2-0.4,0.2-0.6c0-0.3,0-0.7,0-1.2V111H27.8z"/>
	<path class="st1" d="M33.9,132.3V111h6.4c1,0,1.7,0.1,2.4,0.4c0.6,0.3,1.1,0.7,1.5,1.2c0.4,0.6,0.6,1.3,0.8,2.3
		c0.1,0.9,0.2,2.1,0.2,3.5s-0.1,2.6-0.2,3.5c-0.1,1-0.4,1.8-0.8,2.4c-0.4,0.6-0.9,1-1.5,1.3s-1.4,0.4-2.4,0.4h-2v6.4h-4.4V132.3z
		 M39.6,121.5c0.4,0,0.7-0.2,0.9-0.7s0.3-1.3,0.3-2.6c0-1.1-0.1-1.9-0.3-2.2c-0.2-0.4-0.5-0.5-0.9-0.5h-1.1v6.1h1.1V121.5z"/>
	<path class="st1" d="M46.6,132.3V111h5.9c1.4,0,2.4,0.1,3.1,0.4c0.7,0.3,1.3,0.7,1.6,1.3c0.2,0.3,0.3,0.7,0.5,1
		c0.1,0.4,0.2,0.9,0.3,1.5s0.1,1.5,0.2,2.5c0,1,0.1,2.3,0.1,3.9s0,2.9-0.1,4c0,1-0.1,1.9-0.2,2.5c-0.1,0.6-0.2,1.1-0.3,1.5
		s-0.3,0.7-0.5,1s-0.4,0.6-0.7,0.8s-0.6,0.4-1,0.5s-0.8,0.2-1.3,0.3s-1.1,0.1-1.8,0.1L46.6,132.3L46.6,132.3z M52.5,127.6
		c0.4,0,0.6,0,0.8-0.1c0.1-0.1,0.3-0.2,0.3-0.4c0-0.1,0.1-0.3,0.1-0.5s0.1-0.5,0.1-0.9s0-0.9,0-1.6s0-1.5,0-2.6s0-2,0-2.7
		s0-1.2,0-1.6s0-0.7-0.1-0.9c0-0.2-0.1-0.3-0.1-0.5c-0.1-0.2-0.2-0.3-0.3-0.3c-0.2-0.1-0.4-0.1-0.8-0.1h-1.4v12.2H52.5z"/>
	<path class="st1" d="M66.4,132.3l-0.4-4.9h-2.1l-0.3,4.9h-4.5l2.3-21.3h7.4l2.1,21.3H66.4z M65.1,115.4h-0.3l-0.7,7.6h1.7
		L65.1,115.4z"/>
	<path class="st1" d="M73.8,132.3v-16.8h-3.4V111h11.1v4.5h-3.4v16.8H73.8z"/>
	<path class="st1" d="M82.9,132.3V111h9.4v4.5h-5v3.8h4.9v4.3h-4.9v4h5v4.7H82.9z"/>
	<path class="st1" d="M94.1,132.3V111h5.9c1.4,0,2.4,0.1,3.1,0.4s1.3,0.7,1.6,1.3c0.2,0.3,0.3,0.7,0.5,1c0.1,0.4,0.2,0.9,0.3,1.5
		c0.1,0.6,0.1,1.5,0.2,2.5c0,1,0.1,2.3,0.1,3.9s0,2.9-0.1,4c0,1-0.1,1.9-0.2,2.5c-0.1,0.6-0.2,1.1-0.3,1.5c-0.1,0.4-0.3,0.7-0.5,1
		s-0.4,0.6-0.7,0.8c-0.3,0.2-0.6,0.4-1,0.5s-0.8,0.2-1.3,0.3s-1.1,0.1-1.8,0.1L94.1,132.3L94.1,132.3z M99.9,127.6
		c0.4,0,0.6,0,0.8-0.1c0.2-0.1,0.3-0.2,0.3-0.4c0-0.1,0.1-0.3,0.1-0.5s0.1-0.5,0.1-0.9s0-0.9,0-1.6s0-1.5,0-2.6s0-2,0-2.7
		s0-1.2,0-1.6s0-0.7-0.1-0.9c0-0.2-0.1-0.3-0.1-0.5c-0.1-0.2-0.2-0.3-0.3-0.3c-0.2-0.1-0.4-0.1-0.8-0.1h-1.4v12.2H99.9z"/>
	<path class="st1" d="M107.9,125.9l-0.6-15.8h4.8l-0.5,15.8H107.9z M107.6,132.3V128h4.4v4.3H107.6z"/>
</g>
</svg>
