<?xml version="1.0" encoding="utf-8"?>
<!-- Generator: Adobe Illustrator 20.0.0, SVG Export Plug-In . SVG Version: 6.00 Build 0)  -->
<svg version="1.1" id="flash0.ai" xmlns="http://www.w3.org/2000/svg" xmlns:xlink="http://www.w3.org/1999/xlink" x="0px" y="0px"
	 viewBox="0 0 300 275" style="enable-background:new 0 0 300 275;" xml:space="preserve">
<style type="text/css">
	.st0{fill:#2d2d2d;}
	.st1{fill:#F4F4F4;}
	.st2{fill:#F95050;}
	.st3{fill:#E24040;}
	.st4{fill:#FFC552;}
	.st5{fill:#FCAC2B;}
</style>
<path class="st0" d="M284.7,273.2H15.6c-6.6,0-12-5.4-12-12v-179c0-6.6,5.4-12,12-12h269.1c6.6,0,12,5.4,12,12v179
	C296.7,267.8,291.3,273.2,284.7,273.2z"/>
<path class="st0" d="M283.7-45.5H23.4c-9.1,0-16.5-7.4-16.5-16.5v-109.7c0-9.1,7.4-16.5,16.5-16.5h260.2c9.1,0,16.5,7.4,16.5,16.5
	v109.5C300.2-53,292.8-45.5,283.7-45.5z"/>
<g>
	<path class="st1" d="M73.4,194l-20.5-37.9l-0.5,0.1l3.2,39.3l-13.8,1.2l-5.9-73.4l14.9-1.2L63,146.6l0.5-0.1l-2-25.5l13.9-1.2
		l5.9,73.4L73.4,194z"/>
	<path class="st1" d="M87.7,192.9l-5.9-73.4l32.5-2.7l1.2,15.5l-17.2,1.4l1.1,12.9l16.9-1.4l1.3,14.9l-16.9,1.4l1.2,13.8l17.1-1.4
		l1.3,16.2L87.7,192.9z"/>
	<path class="st1" d="M163.8,186.7l-8.7-44.5l-1.1,0.1l-1.8,45.3l-21.5,1.7l-12.4-72.7l15.4-1.2l7.3,49.6l1.1-0.1l2.7-50.5l15.3-1.2
		l10.8,49.3l1.1-0.1l-0.8-50.1l14.5-1.2l-0.4,73.8L163.8,186.7z"/>
</g>
<g>
	<g>
		<g>
			<polygon class="st2" points="262.9,105.7 262.9,134.8 249.6,163.9 211.5,163.9 198.1,134.8 198.1,105.7 			"/>
			<rect x="214.9" y="105.7" class="st3" width="32.1" height="58.2"/>
			<rect x="195.8" y="103" class="st4" width="69.4" height="10.5"/>
		</g>
		<path class="st4" d="M260.7,163c0,16.7-13.6,30.2-30.2,30.2c-6.7,0-13-2.2-18-5.9l0,0c-6.2-4.6-10.6-11.5-11.8-19.6
			c-0.3-1.5-0.4-3-0.4-4.7c0-16.7,13.6-30.2,30.2-30.2c1.6,0,3.2,0.2,4.8,0.4c5.3,0.8,10.2,3,14.1,6.2
			C256.2,145,260.7,153.5,260.7,163z"/>
		<path class="st5" d="M254.2,163c0,13-10.6,23.7-23.7,23.7c-7.7,0-14.5-3.7-18.9-9.3c-3-3.9-4.8-9-4.8-14.3
			c0-13,10.6-23.7,23.7-23.7c8.2,0,15.6,4.3,19.8,10.6C252.8,153.7,254.2,158.3,254.2,163z"/>
		<path class="st4" d="M235.4,157.4l8,1.2c0.6,0.1,0.9,0.9,0.4,1.3l-5.9,5.6c-0.2,0.2-0.3,0.4-0.3,0.6l1.3,8
			c0.1,0.6-0.5,1.1-1.1,0.8l-7.1-3.8c-0.3-0.1-0.5-0.1-0.7,0l-7.2,3.7c-0.5,0.4-1.2-0.2-1.1-0.8l1.4-8c0.1-0.3,0-0.5-0.3-0.6
			l-5.8-5.7c-0.4-0.4-0.2-1.2,0.4-1.3l8.1-1.1c0.3,0,0.5-0.2,0.5-0.4l3.6-7.2c0.3-0.5,1.1-0.5,1.4,0l3.5,7.3
			C234.9,157.2,235.1,157.4,235.4,157.4z"/>
	</g>
</g>
<g>
	<path class="st1" d="M66.2,239v-14.6h-4.6V239H54v-35.6h7.5v13.7h4.6v-13.7h7.5V239H66.2L66.2,239z"/>
	<path class="st1" d="M77,239v-35.6h7.5V239H77L77,239z"/>
	<path class="st1" d="M99.7,225.2h-3.5v-7.1h10.1c0,0.6,0.1,1.6,0.1,2.7c0,1.2,0,2.7,0,4.3c0,2,0,3.5-0.1,4.9s-0.2,2.4-0.4,3.2
		c-0.2,0.8-0.4,1.6-0.5,2c-0.2,0.5-0.4,1.1-0.7,1.5c-0.4,0.5-0.6,1.1-1.1,1.4c-0.4,0.4-1,0.6-1.6,0.9c-0.6,0.3-1.4,0.4-2.2,0.5
		s-1.8,0.2-2.9,0.2c-2.3,0-4-0.3-5.1-0.6c-1.2-0.4-2-1.2-2.7-2.3c-0.4-0.5-0.5-1.2-0.8-1.7c-0.3-0.6-0.4-1.6-0.5-2.7
		c-0.2-1.1-0.3-2.7-0.4-4.3c-0.1-1.8-0.1-4.1-0.1-7c0-2.7,0-5,0.1-6.7c0.1-1.7,0.2-3.1,0.4-4.3c0.2-1.2,0.4-2,0.5-2.7
		c0.3-0.6,0.5-1.2,0.8-1.7c0.6-1.1,1.6-1.8,2.7-2.2c1.2-0.4,2.9-0.5,5.1-0.5c2.7,0,4.6,0.4,5.9,1c1.3,0.6,2.2,1.8,2.7,3.5
		c0.4,1.3,0.5,3,0.5,5.2c0,0.4,0,0.7,0,1s0,0.5-0.1,0.8h-6.9c0-0.1,0.1-0.2,0.1-0.4c0-0.1,0-0.3,0-0.4c0-0.8,0-1.4-0.1-1.7
		c-0.1-0.4-0.2-0.6-0.2-0.9c-0.2-0.5-0.8-0.9-2.1-0.9c-0.6,0-1.1,0.1-1.4,0.3s-0.5,0.4-0.6,0.6s-0.2,0.5-0.2,0.9
		c-0.1,0.4-0.1,0.8-0.2,1.5c0,0.6-0.1,1.6-0.1,2.7c0,1.2,0,2.7,0,4.7c0,2,0,3.7,0,4.9c0,1.2,0,2.1,0.1,2.7c0,0.6,0.1,1.2,0.1,1.5
		c0.1,0.4,0.1,0.5,0.2,0.7c0.3,0.6,1,1.1,2.2,1.1c0.6,0,1.1-0.1,1.4-0.3s0.5-0.4,0.7-0.6c0.1-0.2,0.2-0.4,0.3-0.5
		c0.1-0.2,0.2-0.4,0.2-0.6c0-0.3,0.1-0.6,0.1-1.1s0-1,0-1.7L99.7,225.2L99.7,225.2z"/>
	<path class="st1" d="M121,239v-14.6h-4.7V239h-7.5v-35.6h7.5v13.7h4.6v-13.7h7.5V239H121L121,239z"/>
	<path class="st1" d="M151.1,214.4c0-0.3,0.1-0.5,0.1-0.6c0-0.2,0-0.5,0-0.9c0-1.1-0.2-1.9-0.4-2.3s-0.8-0.6-1.7-0.6
		s-1.5,0.3-1.7,0.6c-0.3,0.4-0.4,1.2-0.4,2.3c0,1.1,0.2,1.7,0.4,2.2s0.6,0.8,1.3,1.2c0.6,0.4,1.3,0.7,2,1.1c0.5,0.3,1.2,0.5,1.7,0.7
		s1,0.5,1.5,0.6c0.5,0.3,0.9,0.5,1.4,0.8c0.5,0.4,1,0.7,1.3,1.2c0.4,0.4,0.7,1,0.9,1.6c0.3,0.6,0.4,1.5,0.5,2.5
		c0.2,1,0.2,2.2,0.2,3.7c0,2.1-0.2,3.9-0.4,5.3c-0.4,1.4-0.8,2.6-1.5,3.4c-0.6,0.8-1.6,1.5-2.8,1.8c-1.2,0.3-2.7,0.5-4.5,0.5
		c-2.9,0-5.1-0.5-6.5-1.6c-1.4-1.2-2-3-2-5.9c0-0.9,0-1.8,0.1-2.7c0.1-0.9,0.2-1.6,0.4-2.2h6.1c-0.1,0.2-0.1,0.4-0.1,0.5
		c0,0.3,0,0.5,0,0.7c0,1.4,0.2,2.3,0.4,2.8c0.3,0.5,0.9,0.7,1.8,0.7s1.6-0.3,1.9-0.6c0.4-0.5,0.4-1.4,0.4-2.9c0-0.9-0.2-1.6-0.4-2
		c-0.3-0.5-0.7-0.9-1.4-1.4c-0.5-0.4-1.2-0.7-1.8-1.1s-1.3-0.5-1.9-0.9c-0.6-0.3-1.2-0.5-1.9-0.9c-0.5-0.4-1.2-0.7-1.6-1.2
		c-1-0.8-1.6-2-1.7-3.5c-0.2-1.5-0.4-3.4-0.4-5.8c0-1.6,0.2-3,0.4-4.2s0.7-2,1.4-2.7c0.6-0.7,1.6-1.2,2.7-1.6
		c1.2-0.4,2.6-0.5,4.3-0.5c1.6,0,2.9,0.2,4,0.4s2,0.6,2.7,1.3c0.6,0.5,1.2,1.4,1.5,2.4s0.4,2.2,0.4,3.8c0,1,0,1.7-0.1,2.3
		s-0.2,1.1-0.4,1.5L151.1,214.4L151.1,214.4z"/>
	<path class="st1" d="M179,225.3c0.1,1.2,0.2,2.2,0.2,3.2c0,1.9-0.1,3.5-0.4,4.9c-0.2,1.4-0.6,2.6-1.3,3.5c-0.6,0.9-1.6,1.6-2.7,2
		c-1.2,0.4-2.7,0.6-4.8,0.6c-2.4,0-4.1-0.3-5.4-0.6c-1.2-0.4-2.1-1.2-2.7-2.3c-0.4-0.5-0.5-1.1-0.8-1.8c-0.3-0.6-0.4-1.6-0.5-2.7
		c-0.1-1.2-0.3-2.7-0.4-4.4c-0.1-1.8-0.1-4-0.1-6.8c0-2.7,0-5,0.1-6.7c0.1-1.7,0.2-3.1,0.4-4.3s0.4-2,0.5-2.7
		c0.3-0.6,0.5-1.2,0.8-1.7c0.6-1.1,1.6-1.8,2.7-2.2c1.2-0.4,2.9-0.5,5.1-0.5c2,0,3.6,0.2,4.9,0.5c1.2,0.4,2.1,1,2.7,1.8
		c0.6,0.8,1.1,2,1.3,3.3s0.4,2.9,0.4,4.9c0,0.4,0,0.9,0,1.5c0,0.5,0,1.1-0.1,1.7H172c0-0.9,0-1.7,0-2.4s0-1.2-0.1-1.6
		c0-0.4-0.1-0.7-0.1-1c-0.1-0.3-0.1-0.4-0.1-0.5c-0.2-0.5-0.8-0.9-2-0.9c-0.5,0-1.1,0.1-1.3,0.3c-0.3,0.2-0.4,0.4-0.5,0.6
		c-0.1,0.3-0.2,0.5-0.3,0.9c-0.1,0.4-0.1,0.8-0.2,1.5c-0.1,0.6-0.1,1.6-0.1,2.7c0,1.2,0,2.7,0,4.7c0,2,0,3.5,0,4.8s0.1,2.1,0.1,2.7
		c0.1,0.6,0.1,1.2,0.2,1.6c0.1,0.4,0.1,0.6,0.3,0.9c0.1,0.4,0.3,0.5,0.5,0.6c0.3,0.2,0.8,0.2,1.5,0.2c0.9,0,1.5-0.3,1.7-0.8
		c0.2-0.4,0.3-0.6,0.3-1c0-0.4,0.1-0.7,0.2-1.2c0.1-0.4,0.1-0.9,0.1-1.5c0-0.5,0-1.2,0-1.9L179,225.3L179,225.3z"/>
	<path class="st1" d="M198.8,236.7c-0.4,0.5-0.6,1.1-1.1,1.4s-1,0.6-1.6,0.9s-1.4,0.4-2.2,0.5s-1.8,0.2-2.9,0.2
		c-2.3,0-4-0.3-5.1-0.6s-2-1.2-2.7-2.3c-0.4-0.5-0.5-1.2-0.8-1.7c-0.3-0.6-0.4-1.5-0.5-2.7c-0.2-1.2-0.3-2.6-0.4-4.3
		c-0.1-1.8-0.1-4-0.1-6.8c0-2.8,0-5.1,0.1-6.8c0.1-1.7,0.2-3.2,0.4-4.3s0.4-2,0.5-2.7c0.3-0.6,0.5-1.2,0.8-1.8
		c0.4-0.5,0.6-1,1.1-1.4s1-0.6,1.6-0.9s1.4-0.4,2.2-0.5c0.8-0.1,1.9-0.2,2.9-0.2c2.2,0,3.9,0.3,5.1,0.6c1.2,0.4,2,1.2,2.7,2.2
		c0.4,0.5,0.5,1.2,0.8,1.8c0.3,0.6,0.4,1.5,0.5,2.7c0.2,1.2,0.3,2.6,0.4,4.3c0.1,1.7,0.1,4,0.1,6.8c0,2.7,0,5.1-0.1,6.8
		c-0.1,1.8-0.2,3.2-0.4,4.3c-0.2,1.1-0.4,2-0.5,2.7C199.5,235.5,199.1,236.2,198.8,236.7z M192.8,230.7c0.1-0.3,0.2-0.5,0.2-0.8
		c0.1-0.4,0.1-0.8,0.2-1.6c0-0.6,0.1-1.6,0.1-2.7s0-2.7,0-4.6c0-2,0-3.5,0-4.8s0-2.1-0.1-2.8c0-0.7-0.1-1.2-0.2-1.6
		c-0.1-0.4-0.2-0.6-0.2-0.8c-0.2-0.4-0.4-0.5-0.5-0.6c-0.3-0.1-0.6-0.3-1.2-0.3c-0.6,0-1.1,0.1-1.3,0.3s-0.4,0.4-0.5,0.6
		s-0.2,0.5-0.3,0.8s-0.1,0.9-0.2,1.6c-0.1,0.7-0.1,1.6-0.1,2.8s0,2.7,0,4.8c0,1.9,0,3.5,0,4.6s0.1,2.1,0.1,2.7
		c0.1,0.6,0.1,1.2,0.2,1.6c0.1,0.4,0.1,0.6,0.3,0.8c0.1,0.4,0.3,0.5,0.5,0.6c0.3,0.2,0.6,0.2,1.3,0.2c0.5,0,1-0.1,1.2-0.2
		C192.5,231.4,192.7,231.1,192.8,230.7z"/>
	<path class="st1" d="M214.9,239c-0.1-0.3-0.2-0.5-0.3-0.9s-0.2-0.8-0.3-1.5c-0.1-0.6-0.3-1.6-0.4-2.7c-0.2-1.2-0.4-2.7-0.5-4.9
		c-0.1-0.8-0.2-1.5-0.3-2c-0.1-0.5-0.2-0.9-0.4-1.2s-0.3-0.4-0.5-0.5c-0.2-0.1-0.4-0.1-0.5-0.1h-1.2v13.8h-7.4v-35.6h10.7
		c1.6,0,2.9,0.2,3.9,0.5c1.1,0.4,1.9,0.9,2.5,1.7c0.5,0.7,1.1,1.7,1.2,2.9c0.3,1.2,0.4,2.7,0.4,4.4c0,1.9-0.1,3.3-0.2,4.3
		c-0.2,1.1-0.4,1.9-0.5,2.5c-0.3,0.5-0.5,1.1-1,1.3c-0.4,0.4-0.8,0.5-1.3,0.9v0.3c0.2,0.2,0.4,0.4,0.5,0.5c0.2,0.2,0.4,0.5,0.5,0.9
		c0.3,0.5,0.5,1.4,0.7,2.6c0.3,1.2,0.5,2.7,0.7,4.9c0.2,1.5,0.4,2.7,0.4,3.5c0.1,0.9,0.2,1.6,0.3,2.1c0.1,0.5,0.2,0.9,0.2,1.2
		c0.1,0.3,0.1,0.5,0.3,0.8v0.3L214.9,239L214.9,239z M212.7,218.4c0.6,0,1.2-0.4,1.5-0.9c0.3-0.5,0.4-1.7,0.4-3.4
		c0-1.4-0.2-2.4-0.5-2.7c-0.4-0.5-0.8-0.7-1.6-0.7h-1.9v7.8L212.7,218.4L212.7,218.4z"/>
	<path class="st1" d="M224.9,239v-35.6h15.8v7.5h-8.3v6.2h8.2v7.2h-8.2v6.7h8.2v7.9H224.9z"/>
	<path class="st1" d="M244.5,228.3l-0.9-26.3h8.2l-0.8,26.3H244.5L244.5,228.3z M244,239v-7.1h7.4v7.1H244z"/>
</g>
</svg>
