<?xml version="1.0" encoding="utf-8"?>
<!-- Generator: Adobe Illustrator 16.0.0, SVG Export Plug-In . SVG Version: 6.00 Build 0)  -->
<!DOCTYPE svg PUBLIC "-//W3C//DTD SVG 1.1//EN" "http://www.w3.org/Graphics/SVG/1.1/DTD/svg11.dtd">
<svg version="1.1" id="Layer_1" xmlns="http://www.w3.org/2000/svg" xmlns:xlink="http://www.w3.org/1999/xlink" x="0px" y="0px"
	 preserveAspectRatio="none" viewBox="0 0 595.279 841.891" enable-background="new 0 0 595.279 841.891"
	 xml:space="preserve">
<style type="text/css">
	.st0{fill:#F4F4F4;}
	.st1{fill:#D7DADE;}
	.st2{opacity:0.59;}
	.st3{opacity:0.74;}
	.st4{opacity:0.51;}
	.st5{opacity:0.31;}
	.st6{opacity:0.41;}
	.st7{opacity:0.2;}
	.st8{fill:#FFD6DD;}
</style>
<g>
	<polygon class="st0" points="599.5,1204.8 0.3,1206.8 -0.7,-0.7 598.5,-2.7 	"/>
	<g>
		<g>
			<polygon class="st1" points="599,964.7 0.6,967.8 0.6,966.6 599,963.5 			"/>
		</g>
		<g>
			<polygon class="st1" points="598.9,922 0.6,925.2 0.6,924 598.9,920.9 			"/>
		</g>
		<g>
			<polygon class="st1" points="598.8,879.4 0.5,882.6 0.5,881.4 598.8,878.3 			"/>
		</g>
		<g>
			<polygon class="st1" points="598.8,836.8 0.4,840 0.4,838.8 598.8,835.7 			"/>
		</g>
		<g class="st2">
			<polygon class="st1" points="598.7,794.2 0.3,797.4 0.3,796.2 598.7,793.1 			"/>
		</g>
		<g>
			<polygon class="st1" points="598.6,751.6 0.2,754.8 0.2,753.6 598.6,750.5 			"/>
		</g>
		<g>
			<polygon class="st1" points="598.5,709 0.2,712.1 0.2,711 598.5,707.9 			"/>
		</g>
		<g>
			<polygon class="st1" points="598.5,666.4 0.1,669.5 0.1,668.4 598.5,665.2 			"/>
		</g>
		<g>
			<polygon class="st1" points="598.4,623.8 0,626.9 0,625.8 598.4,622.6 			"/>
		</g>
		<g>
			<polygon class="st1" points="598.3,581.2 -0.1,584.3 -0.1,583.2 598.3,580 			"/>
		</g>
		<g>
			<polygon class="st1" points="598.2,538.6 -0.1,541.7 -0.1,540.6 598.2,537.4 			"/>
		</g>
		<g>
			<polygon class="st1" points="598.2,496 -0.2,499.1 -0.2,497.9 598.2,494.8 			"/>
		</g>
		<g>
			<polygon class="st1" points="598.1,453.4 -0.3,456.5 -0.3,455.3 598.1,452.2 			"/>
		</g>
		<g>
			<polygon class="st1" points="598,410.8 -0.3,413.9 -0.3,412.7 598,409.6 			"/>
		</g>
		<g>
			<polygon class="st1" points="597.9,368.2 -0.4,371.3 -0.4,370.1 597.9,367 			"/>
		</g>
		<g>
			<polygon class="st1" points="597.9,325.5 -0.5,328.7 -0.5,327.5 597.9,324.4 			"/>
		</g>
		<g class="st3">
			<polygon class="st1" points="597.8,282.9 -0.6,286.1 -0.6,284.9 597.8,281.8 			"/>
		</g>
		<g>
			<polygon class="st1" points="597.7,240.3 -0.6,243.5 -0.7,242.3 597.7,239.2 			"/>
		</g>
		<g>
			<polygon class="st1" points="597.6,197.7 -0.7,200.9 -0.7,199.7 597.6,196.6 			"/>
		</g>
		<g class="st4">
			<polygon class="st1" points="598.3,1135.1 0.9,1138.2 0.9,1137 598.3,1133.9 			"/>
		</g>
		<g>
			<polygon class="st1" points="598.2,1092.5 0.8,1095.6 0.8,1094.4 598.2,1091.3 			"/>
		</g>
		<g>
			<polygon class="st1" points="598.2,1049.9 0.8,1053 0.8,1051.8 598.2,1048.7 			"/>
		</g>
		<g class="st5">
			<polygon class="st1" points="598.1,1007.3 0.7,1010.4 0.7,1009.2 598.1,1006.1 			"/>
		</g>
		<g class="st6">
			<polygon class="st1" points="598.5,1220.3 1.1,1223.4 1.1,1222.3 598.5,1219.1 			"/>
		</g>
		<g class="st7">
			<polygon class="st1" points="598.4,1177.7 1,1180.8 1,1179.7 598.4,1176.5 			"/>
		</g>
	</g>
	<g>
		<polygon class="st8" points="58.3,1206 57.5,1206 56.5,-0.5 57.3,-0.5 		"/>
	</g>
</g>
</svg>
