<?xml version="1.0" encoding="utf-8"?>
<!-- Generator: Adobe Illustrator 20.0.0, SVG Export Plug-In . SVG Version: 6.00 Build 0)  -->
<svg version="1.1" id="Layer_1" xmlns="http://www.w3.org/2000/svg" xmlns:xlink="http://www.w3.org/1999/xlink" x="0px" y="0px"
	 viewBox="0 0 366 93" style="enable-background:new 0 0 366 93;" xml:space="preserve">
<style type="text/css">
	.st0{opacity:0.18;}
	.st1{fill:#F7F7F7;}
</style>
<g class="st0">
	<path d="M316.3,14.5c-2.1,1.8-3.4,4.8-3.9,8.9s-0.8,12.1-0.8,24c0,11.8,0.2,19.6,0.7,23.4c0.4,3.8,1.6,6.8,3.5,9.1
		c1.9,2.3,4.8,3.4,8.9,3.4c3.4,0,6.1-0.9,8.3-2.7c2.1-1.8,3.4-4.8,4-8.9c0.5-4.1,0.8-12.2,0.8-24.2c0-11.8-0.2-19.6-0.6-23.3
		c-0.5-3.8-1.6-6.8-3.4-9.1s-4.8-3.5-9-3.5C321.2,11.7,318.4,12.6,316.3,14.5z M359.1,47.7c0,11.9-3.3,21.5-9.9,28.7
		c-6.6,7.2-14.7,10.7-24.2,10.7c-10.3,0-18.7-3.8-25.1-11.4c-6.5-7.6-9.7-17.1-9.7-28.4c0-11.5,3.4-20.9,10.2-28.3
		c6.8-7.4,15-11,24.5-11c8.8,0,16.8,3.4,23.8,10.3C355.7,25.1,359.1,34.9,359.1,47.7z M261.7,9h23.4v3.7h-2.7
		c-2.9,0-4.7,0.4-5.4,1.3c-0.7,0.9-1.1,2.6-1.1,5.3V87h-4.1l-45.7-67.7v55.6c0,3.1,0.3,5.1,1,6c0.7,0.9,2.5,1.3,5.4,1.3h4.5v3.7
		h-24.4v-3.7h3c3.1,0,5-0.5,5.6-1.5s0.9-3.8,0.9-8.2V19.3c0-2.9-0.3-4.7-0.8-5.4c-0.6-0.8-2.2-1.1-4.9-1.1h-4.2V9h29.1l30.5,45.2
		V21.1c0-3.5-0.3-5.7-1-6.8s-2.5-1.6-5.5-1.6h-3.6V9z M208.4,12.7H198v69.5h10.4v3.7H169v-3.7h10.1V12.7H169V9h39.4V12.7L208.4,12.7
		z M156.6,13.7c-0.7,0.7-1,2.5-1,5.4v39.9c0,5-0.5,9.5-1.4,13.3c-1,3.8-3.6,7.2-7.8,10.2c-4.2,3-10.7,4.5-19.4,4.5
		c-4.6,0-9.1-0.5-13.4-1.5c-4.4-1.1-7.9-3-10.7-5.6c-2.8-2.7-4.5-5.4-5.2-8.2c-0.7-2.8-1.1-6.1-1.1-9.9V12.7h-10V9h39.5v3.7h-10.6
		v49.7c0,8,1.5,13.3,4.4,16s6.9,4,11.8,4c3.8,0,7.1-0.7,10.2-2.1c3.1-1.4,5.4-3.5,7.1-6.4s2.6-7.7,2.6-14.6V18.7
		c0-2.6-0.2-4.3-0.5-5c-0.3-0.7-2-1-4.9-1h-5.3V9h24.6v3.7h-3.6C159,12.7,157.3,13.1,156.6,13.7z M46.6,11.7c-3.5,0-6.3,0.9-8.4,2.8
		c-2.1,1.8-3.4,4.8-3.9,8.9s-0.8,12.1-0.8,24c0,11.8,0.2,19.6,0.7,23.4c0.4,3.8,1.6,6.8,3.5,9.1c1.9,2.3,4.8,3.4,8.9,3.4
		c3.4,0,6.1-0.9,8.3-2.7c2.1-1.8,3.4-4.8,4-8.9c0.5-4.1,0.8-12.2,0.8-24.2c0-11.8-0.2-19.6-0.6-23.3c-0.5-3.8-1.6-6.8-3.4-9.1
		C53.7,12.8,50.7,11.7,46.6,11.7z M81,47.7c0,11.9-3.3,21.5-9.9,28.7c-6.6,7.2-14.7,10.7-24.2,10.7c-10.3,0-18.7-3.8-25.1-11.4
		c-6.5-7.6-9.7-17.1-9.7-28.4c0-11.5,3.4-20.9,10.2-28.3s15-11,24.5-11c8.8,0,16.8,3.4,23.8,10.3C77.5,25.1,81,34.9,81,47.7z"/>
</g>
<g>
	<path class="st1" d="M313.2,12.8c-2.1,1.8-3.4,4.8-3.9,8.9s-0.8,12.1-0.8,24c0,11.8,0.2,19.6,0.7,23.4c0.4,3.8,1.6,6.8,3.5,9.1
		c1.9,2.3,4.8,3.4,8.9,3.4c3.4,0,6.1-0.9,8.3-2.7c2.1-1.8,3.4-4.8,4-8.9c0.5-4.1,0.8-12.2,0.8-24.2c0-11.8-0.2-19.6-0.6-23.3
		c-0.5-3.8-1.6-6.8-3.4-9.1s-4.8-3.5-9-3.5C318.1,10,315.3,10.9,313.2,12.8z M356,45.9c0,11.9-3.3,21.5-9.9,28.7
		c-6.6,7.2-14.7,10.7-24.2,10.7c-10.3,0-18.7-3.8-25.1-11.4c-6.5-7.6-9.7-17.1-9.7-28.4c0-11.5,3.4-20.9,10.2-28.3
		c6.8-7.4,15-11,24.5-11c8.8,0,16.8,3.4,23.8,10.3C352.6,23.4,356,33.2,356,45.9z M258.6,7.3H282V11h-2.7c-2.9,0-4.7,0.4-5.4,1.3
		c-0.7,0.9-1.1,2.6-1.1,5.3v67.7h-4.1L223,17.6v55.6c0,3.1,0.3,5.1,1,6s2.5,1.3,5.4,1.3h4.5v3.7h-24.4v-3.7h3c3.1,0,5-0.5,5.6-1.5
		s0.9-3.8,0.9-8.2V17.6c0-2.9-0.3-4.7-0.8-5.4c-0.6-0.8-2.2-1.1-4.9-1.1h-4.2V7.3h29.1l30.5,45.2V19.4c0-3.5-0.3-5.7-1-6.8
		s-2.5-1.6-5.5-1.6h-3.6V7.3z M205.3,11h-10.4v69.5h10.4v3.7h-39.4v-3.7H176V11h-10.1V7.3h39.4L205.3,11L205.3,11z M153.5,12
		c-0.7,0.7-1,2.5-1,5.4v39.9c0,5-0.5,9.5-1.4,13.3c-1,3.8-3.6,7.2-7.8,10.2s-10.7,4.5-19.4,4.5c-4.6,0-9.1-0.5-13.4-1.5
		c-4.4-1.1-7.9-3-10.7-5.6c-2.8-2.7-4.5-5.4-5.2-8.2c-0.7-2.8-1.1-6.1-1.1-9.9V11h-10V7.3H123V11h-10.6v49.7c0,8,1.5,13.3,4.4,16
		s6.9,4,11.8,4c3.8,0,7.1-0.7,10.2-2.1s5.4-3.5,7.1-6.4c1.7-2.9,2.6-7.7,2.6-14.6V17c0-2.6-0.2-4.3-0.5-5s-2-1-4.9-1h-5.3V7.3h24.6
		V11h-3.6C155.9,11,154.2,11.4,153.5,12z M43.5,10c-3.5,0-6.3,0.9-8.4,2.8c-2.1,1.8-3.4,4.8-3.9,8.9s-0.8,12.1-0.8,24
		c0,11.8,0.2,19.6,0.7,23.4c0.4,3.8,1.6,6.8,3.5,9.1c1.9,2.3,4.8,3.4,8.9,3.4c3.4,0,6.1-0.9,8.3-2.7c2.1-1.8,3.4-4.8,4-8.9
		c0.5-4.1,0.8-12.2,0.8-24.2c0-11.8-0.2-19.6-0.6-23.3c-0.5-3.8-1.6-6.8-3.4-9.1C50.6,11.1,47.6,10,43.5,10z M77.9,45.9
		c0,11.9-3.3,21.5-9.9,28.7c-6.6,7.2-14.7,10.7-24.2,10.7c-10.3,0-18.7-3.8-25.1-11.4C12.2,66.3,9,56.8,9,45.5
		C9,34,12.4,24.6,19.2,17.2s15-11,24.5-11c8.8,0,16.8,3.4,23.8,10.3C74.4,23.4,77.9,33.2,77.9,45.9z"/>
</g>
</svg>
