<?xml version="1.0" encoding="utf-8"?>
<!-- Generator: Adobe Illustrator 16.0.0, SVG Export Plug-In . SVG Version: 6.00 Build 0)  -->
<!DOCTYPE svg PUBLIC "-//W3C//DTD SVG 1.1//EN" "http://www.w3.org/Graphics/SVG/1.1/DTD/svg11.dtd">
<svg version="1.1" id="Isolation_Mode" xmlns="http://www.w3.org/2000/svg" xmlns:xlink="http://www.w3.org/1999/xlink" x="0px"
	 y="0px" width="216px" height="150px" viewBox="0 0 216 150" enable-background="new 0 0 216 150" xml:space="preserve">
<g opacity="0.3">
	
		<linearGradient id="SVGID_1_" gradientUnits="userSpaceOnUse" x1="-93.8281" y1="-104.3779" x2="80.5185" y2="-104.3779" gradientTransform="matrix(-0.957 0.2902 -0.2902 -0.957 0 0)">
		<stop  offset="0" style="stop-color:#DAD0B1"/>
		<stop  offset="0.5373" style="stop-color:#F7EFC4"/>
		<stop  offset="0.7373" style="stop-color:#EDE5BD"/>
		<stop  offset="1" style="stop-color:#DAD0B1"/>
	</linearGradient>
	<path fill-rule="evenodd" clip-rule="evenodd" fill="url(#SVGID_1_)" d="M3.1,67.4c0.9-1.2,1.3-2.3,1.1-3.2l68.2-16.5l23.3,76.1
		l-72.9,17.6v0c-0.2-0.9-1-1.7-2.4-2.3c-1.4-0.6-2.2-1.4-2.4-2.3c-0.2-0.9,0.2-2,1.1-3.2c0.9-1.2,1.3-2.3,1.1-3.2
		c-0.2-0.9-1-1.7-2.4-2.3c-1.4-0.6-2.2-1.4-2.4-2.4c-0.2-0.9,0.1-1.9,1.1-3.1c1-1.2,1.3-2.3,1.1-3.2c-0.2-0.9-1-1.7-2.4-2.3
		c-1.4-0.6-2.2-1.4-2.4-2.4c-0.2-0.9,0.2-1.9,1.1-3.1c1-1.2,1.3-2.3,1.1-3.2c-0.2-0.9-1-1.7-2.4-2.3c-1.4-0.6-2.2-1.4-2.5-2.4
		c-0.2-0.9,0.2-2,1.1-3.1c0.9-1.2,1.3-2.3,1.1-3.2c-0.2-0.9-1-1.7-2.4-2.3c-1.4-0.7-2.2-1.5-2.4-2.4c-0.2-0.9,0.2-2,1.1-3.1
		c1-1.2,1.3-2.3,1.1-3.2c-0.2-0.9-1-1.7-2.4-2.3c-1.4-0.7-2.2-1.5-2.4-2.4c-0.2-0.9,0.2-2,1.1-3.2c0.9-1.2,1.3-2.3,1.1-3.2
		c-0.2-0.9-1-1.7-2.4-2.3c-1.4-0.6-2.2-1.4-2.4-2.4C1.9,69.6,2.2,68.5,3.1,67.4z"/>
</g>
<g opacity="0.3">
	
		<linearGradient id="SVGID_2_" gradientUnits="userSpaceOnUse" x1="-233.9253" y1="-113.9116" x2="62.1065" y2="-113.9116" gradientTransform="matrix(-0.9213 0.3888 -0.3888 -0.9213 -9.765625e-004 0)">
		<stop  offset="0" style="stop-color:#DAD0B1"/>
		<stop  offset="0.5373" style="stop-color:#F7EFC4"/>
		<stop  offset="0.7373" style="stop-color:#EDE5BD"/>
		<stop  offset="1" style="stop-color:#DAD0B1"/>
	</linearGradient>
	<path fill-rule="evenodd" clip-rule="evenodd" fill="url(#SVGID_2_)" d="M186.7,9c1.5,0.5,2.3,1.2,2.6,2.1c0.3,0.9,0.1,2-0.8,3.3
		c-0.8,1.3-1,2.4-0.7,3.3c0.3,0.9,1.2,1.6,2.6,2.1s2.3,1.2,2.6,2c0.3,0.9,0.1,2-0.8,3.3c-0.8,1.3-1.1,2.4-0.8,3.3
		c0.3,0.9,1.2,1.6,2.6,2.1c1.5,0.5,2.4,1.2,2.7,2.1c0.3,0.9,0.1,2-0.7,3.3s-1,2.4-0.8,3.3c0.3,0.9,1.2,1.6,2.7,2.1
		c1.4,0.5,2.3,1.2,2.6,2c0.3,0.9,0.1,2-0.8,3.3c-0.8,1.3-1,2.4-0.8,3.3c0.3,0.9,1.2,1.5,2.7,2c1.5,0.5,2.3,1.1,2.6,2
		c0.3,0.9,0.1,2-0.8,3.3c-0.8,1.3-1.1,2.4-0.8,3.3c0.3,0.9,1.2,1.6,2.7,2.1c1.5,0.5,2.3,1.2,2.7,2c0.3,0.9,0,2-0.8,3.3
		c-0.8,1.3-1.1,2.4-0.8,3.3c0.3,0.9,1.2,1.6,2.6,2.1c1.5,0.5,2.4,1.1,2.7,2.1c0.3,0.9,0.1,2-0.8,3.3c-0.8,1.3-1,2.4-0.8,3.3
		L93.1,123.7L62,50.5L184,7C184.4,7.9,185.3,8.6,186.7,9z"/>
</g>
</svg>
