<?xml version="1.0" encoding="utf-8"?>
<!-- Generator: Adobe Illustrator 20.0.0, SVG Export Plug-In . SVG Version: 6.00 Build 0)  -->
<svg version="1.1" id="Layer_1" xmlns="http://www.w3.org/2000/svg" xmlns:xlink="http://www.w3.org/1999/xlink" x="0px" y="0px"
	 viewBox="0 0 35 35" style="enable-background:new 0 0 35 35;" xml:space="preserve">
<style type="text/css">
	.st0{fill:#ED5424;}
</style>
<g id="Ñëîé_1">
</g>
<g id="Capa_1">
	<path class="st0" d="M2.7,9C2.6,8.3,2.8,7.7,3.2,7.1s1-0.9,1.6-1.1C5.4,5.9,6,6,6.6,6.4c0.4,0.3,0.7,0.7,1,1.4C8,8.5,8.2,8.9,8.4,9
		c0.3,0.2,0.5,0.3,0.8,0.2c0.4,0,0.8-0.3,1.2-0.8l4.9-7.1l7.1,4.9l0,0c0.5,0.4,1,0.5,1.4,0.4c0.3-0.1,0.5-0.2,0.7-0.5
		c0.1-0.2,0.2-0.6,0.3-1.4c0.1-0.8,0.3-1.3,0.5-1.7c0.4-0.6,0.9-0.9,1.6-1c0.6-0.1,1.3,0.1,1.9,0.5s0.9,1,1.1,1.6
		c0.1,0.7,0,1.3-0.4,1.8c-0.3,0.4-0.7,0.7-1.4,1.1c-0.7,0.3-1.1,0.6-1.2,0.7c-0.2,0.3-0.3,0.5-0.2,0.8c0,0.5,0.3,0.9,0.9,1.2
		l7.1,4.9l-4.9,7.1l0,0c-0.4,0.5-0.8,0.8-1.2,0.9c-0.3,0-0.6-0.1-0.8-0.2c-0.2-0.1-0.4-0.5-0.7-1.2c-0.3-0.7-0.7-1.2-1.1-1.4
		c-0.6-0.4-1.2-0.5-1.8-0.4c-0.6,0.1-1.2,0.5-1.6,1.1s-0.5,1.2-0.5,1.9c0.1,0.7,0.4,1.2,1,1.6c0.4,0.3,0.9,0.4,1.7,0.5
		c0.8,0.1,1.2,0.2,1.4,0.3c0.3,0.2,0.4,0.4,0.5,0.7c0.1,0.4,0,0.9-0.4,1.4l0,0L21.1,34l-7.3-5.1c-0.5-0.3-0.9-0.3-1.3-0.2
		c-0.3,0.1-0.5,0.3-0.6,0.5s-0.2,0.6-0.3,1.4s-0.3,1.3-0.5,1.7c-0.4,0.6-0.9,0.9-1.6,1c-0.6,0.1-1.3-0.1-1.9-0.5s-0.9-1-1.1-1.6
		c-0.1-0.7,0-1.3,0.4-1.8c0.3-0.4,0.7-0.7,1.4-1s1.1-0.6,1.2-0.7c0.2-0.2,0.2-0.5,0.2-0.8c0-0.4-0.2-0.8-0.6-1.1l-7.3-5.1l4.9-7.1
		c0.4-0.5,0.5-1,0.4-1.4c-0.1-0.3-0.2-0.5-0.5-0.7c-0.2-0.1-0.6-0.2-1.4-0.3s-1.3-0.3-1.7-0.5C3.1,10.2,2.8,9.6,2.7,9z"/>
</g>
<g id="Øàð_1">
</g>
<g id="Isolation_Mode">
</g>
<g id="Capa_1_1_">
	<g>
		<path d="M17.3,21.5c-0.3,0.8-0.4,1.6-0.4,2.4c0,1,0.2,2,0.6,2.9s0.9,1.7,1.6,2.4c0.7,0.7,1.5,1.2,2.4,1.6s1.9,0.6,2.9,0.6
			c0.8,0,1.6-0.1,2.4-0.4c0.7-0.3,1.4-0.6,2.1-1.1L18.4,19.5C17.9,20.1,17.6,20.8,17.3,21.5z M33,20.2c0.5,1.2,0.8,2.4,0.8,3.7
			c0,1.3-0.3,2.5-0.8,3.7c-0.5,1.1-1.1,2.1-2,3s-1.9,1.5-3,2c-1.2,0.5-2.4,0.7-3.7,0.7c-1.3,0-2.5-0.2-3.7-0.7c-1.1-0.5-2.1-1.2-3-2
			c-0.9-0.9-1.5-1.9-2-3c-0.5-1.2-0.8-2.4-0.8-3.7c0-1.3,0.3-2.5,0.8-3.7c0.5-1.1,1.2-2.1,2-3c0.9-0.9,1.9-1.5,3-2
			c1.2-0.5,2.4-0.8,3.7-0.8c1.3,0,2.5,0.3,3.7,0.8c1.1,0.5,2.1,1.2,3,2C31.9,18.1,32.6,19.1,33,20.2z M29.6,18.7
			c-0.7-0.7-1.5-1.2-2.4-1.6s-1.9-0.6-2.9-0.6c-0.8,0-1.6,0.1-2.4,0.4c-0.7,0.3-1.4,0.6-2.1,1.1l10.3,10.3c0.5-0.6,0.9-1.3,1.1-2.1
			c0.3-0.8,0.4-1.6,0.4-2.4c0-1-0.2-1.9-0.6-2.9C30.8,20.1,30.2,19.3,29.6,18.7z"/>
	</g>
</g>
</svg>
