<?xml version="1.0" encoding="utf-8"?>
<!-- Generator: Adobe Illustrator 20.0.0, SVG Export Plug-In . SVG Version: 6.00 Build 0)  -->
<svg version="1.1" id="Layer_1" xmlns="http://www.w3.org/2000/svg" xmlns:xlink="http://www.w3.org/1999/xlink" x="0px" y="0px"
	 viewBox="0 0 35 35" style="enable-background:new 0 0 35 35;" xml:space="preserve">
<style type="text/css">
	.st0{fill:#3498DB;}
</style>
<g id="Ñëîé_1">
</g>
<g id="Capa_1">
	<path class="st0" d="M1.8,9c-0.1-0.7,0-1.3,0.4-1.9s1-0.9,1.6-1.1c0.7-0.1,1.3,0,1.8,0.4c0.4,0.3,0.7,0.7,1,1.4
		C7.1,8.5,7.3,8.9,7.5,9C7.7,9.2,8,9.3,8.3,9.3c0.4,0,0.8-0.3,1.2-0.8l4.9-7.1l7.1,4.9l0,0c0.5,0.4,1,0.5,1.4,0.4
		c0.3-0.1,0.5-0.2,0.7-0.5c0.1-0.2,0.2-0.6,0.3-1.4C24,4,24.2,3.5,24.4,3.1c0.4-0.6,0.9-0.9,1.6-1c0.6-0.1,1.3,0.1,1.9,0.5
		s0.9,1,1.1,1.6c0.1,0.7,0,1.3-0.4,1.8c-0.3,0.4-0.7,0.7-1.4,1.1c-0.7,0.3-1.1,0.6-1.2,0.7c-0.2,0.3-0.3,0.5-0.2,0.8
		c0,0.5,0.3,0.9,0.9,1.2l7.1,4.9l-4.9,7.1l0,0c-0.4,0.5-0.8,0.8-1.2,0.9c-0.3,0-0.6-0.1-0.8-0.2c-0.2-0.1-0.4-0.5-0.7-1.2
		c-0.3-0.7-0.7-1.2-1.1-1.4c-0.6-0.4-1.2-0.5-1.8-0.4c-0.6,0.1-1.2,0.5-1.6,1.1s-0.5,1.2-0.5,1.9c0.1,0.7,0.4,1.2,1,1.6
		c0.4,0.3,0.9,0.4,1.7,0.5c0.8,0.1,1.2,0.2,1.4,0.3c0.3,0.2,0.4,0.4,0.5,0.7c0.1,0.4,0,0.9-0.4,1.4l0,0l-5.2,7l-7.3-5.1
		c-0.5-0.3-0.9-0.3-1.3-0.2c-0.3,0.1-0.5,0.3-0.6,0.5s-0.2,0.6-0.3,1.4s-0.3,1.3-0.5,1.7c-0.4,0.6-0.9,0.9-1.6,1
		c-0.6,0.1-1.3-0.1-1.9-0.5s-0.9-1-1.1-1.6c-0.1-0.7,0-1.3,0.4-1.8c0.3-0.4,0.7-0.7,1.4-1s1.1-0.6,1.2-0.7c0.2-0.2,0.2-0.5,0.2-0.8
		c0-0.4-0.2-0.8-0.6-1.1L1,20.6l4.9-7.1c0.4-0.5,0.5-1,0.4-1.4c-0.1-0.3-0.2-0.5-0.5-0.7c-0.2-0.1-0.6-0.2-1.4-0.3s-1.3-0.3-1.7-0.5
		C2.2,10.2,1.9,9.6,1.8,9z"/>
</g>
<g id="Øàð_1">
</g>
<g id="Isolation_Mode">
</g>
<g id="Capa_1_1_">
	<path d="M28.1,21.1c-0.3-0.6-0.7-1.2-1.2-1.8c-0.5-0.5-1.1-0.9-1.7-1.2c-0.7-0.3-1.4-0.4-2.1-0.4s-1.4,0.1-2.1,0.4
		c-0.6,0.3-1.2,0.7-1.7,1.2s-0.9,1.1-1.2,1.8c-0.3,0.6-0.4,1.3-0.4,2.1s0.1,1.4,0.4,2.1c0.3,0.6,0.7,1.2,1.2,1.7s1.1,0.9,1.7,1.2
		c0.7,0.3,1.4,0.4,2.1,0.4s1.4-0.1,2.1-0.4c0.6-0.3,1.2-0.7,1.7-1.2s0.9-1.1,1.2-1.7c0.3-0.7,0.5-1.4,0.5-2.1S28.4,21.8,28.1,21.1z
		 M31.5,17.2c0,0.2-0.1,0.4-0.2,0.5l-0.7,0.7c-0.2,0.2-0.3,0.3-0.3,0.6c-0.1,0.2-0.1,0.5,0,0.6V20c0.2,0.2,0.3,0.4,0.4,0.6
		s0.3,0.3,0.5,0.4s0.4,0.2,0.6,0.2h1c0.2,0,0.4,0.1,0.5,0.2s0.2,0.3,0.2,0.5v2.5c0,0.2-0.1,0.4-0.2,0.5c-0.1,0.2-0.3,0.2-0.5,0.2h-1
		c-0.2,0-0.4,0-0.6,0.1s-0.4,0.3-0.5,0.4L30.4,26c-0.1,0.2-0.1,0.5-0.1,0.6c-0.1,0.2,0,0.4,0,0.6c0.1,0.2,0.2,0.4,0.3,0.6l0.7,0.7
		c0.1,0.2,0.2,0.3,0.2,0.5s-0.1,0.4-0.2,0.5l-1.8,1.8c-0.2,0.2-0.3,0.2-0.5,0.2s-0.4-0.1-0.5-0.2l-0.8-0.7c-0.1-0.2-0.3-0.3-0.6-0.3
		c-0.2-0.1-0.5-0.1-0.6,0h-0.4c-0.2,0.2-0.4,0.3-0.5,0.4c-0.2,0.1-0.3,0.3-0.5,0.5s-0.2,0.4-0.2,0.6v1.1c0,0.2-0.1,0.4-0.2,0.5
		s-0.3,0.2-0.5,0.2h-2.5c-0.2,0-0.4-0.1-0.5-0.2c-0.1-0.2-0.2-0.3-0.2-0.5v-1.1c0-0.2-0.1-0.4-0.2-0.6s-0.3-0.4-0.4-0.5
		c-0.1,0-0.2-0.1-0.3-0.2l-0.6-0.1c-0.2,0-0.4,0-0.6,0c-0.2,0.1-0.4,0.2-0.6,0.3l-0.8,0.7c-0.1,0.2-0.3,0.2-0.5,0.2
		s-0.4-0.1-0.5-0.2l-1.8-1.8c-0.1-0.1-0.2-0.3-0.2-0.5s0.1-0.4,0.2-0.5l0.7-0.7c0.2-0.2,0.3-0.3,0.3-0.6C16,27.2,16,27,16,26.7
		c0-0.1-0.1-0.2-0.1-0.3c-0.1-0.2-0.2-0.3-0.3-0.4l-0.1-0.1c-0.1-0.2-0.3-0.3-0.5-0.5c-0.2-0.1-0.4-0.1-0.6-0.1h-1.1
		c-0.2,0-0.4-0.1-0.5-0.2c-0.2-0.2-0.2-0.3-0.2-0.5V22c0-0.2,0.1-0.4,0.2-0.5c0.1-0.2,0.3-0.2,0.5-0.2h1.1c0.2,0,0.4-0.1,0.6-0.2
		s0.4-0.3,0.5-0.4s0.1-0.2,0.2-0.3l0.1-0.6c0-0.2,0-0.4-0.1-0.6s-0.2-0.4-0.3-0.6l-0.8-0.7c-0.1-0.2-0.2-0.3-0.2-0.5
		s0.1-0.4,0.2-0.5l1.8-1.8c0.2-0.2,0.3-0.2,0.5-0.2s0.4,0.1,0.6,0.2l0.7,0.7c0.1,0.1,0.3,0.2,0.6,0.3c0.2,0.1,0.5,0.1,0.6,0h0.4
		c0.2-0.2,0.4-0.3,0.6-0.4c0.2-0.1,0.3-0.2,0.4-0.5c0.1-0.2,0.2-0.5,0.2-0.6v-1.1c0-0.2,0.1-0.4,0.2-0.5c0.1-0.2,0.3-0.2,0.5-0.2
		h2.6c0.2,0,0.3,0.1,0.5,0.2c0.1,0.1,0.2,0.3,0.2,0.5v1.1c0,0.2,0.1,0.4,0.2,0.6c0.1,0.2,0.3,0.4,0.5,0.5h0.1
		c0.1,0.1,0.1,0.1,0.2,0.2c0.3,0,0.5,0.1,0.6,0.1c0.2,0,0.4,0,0.6,0c0.2-0.1,0.4-0.2,0.6-0.3l0.7-0.7c0.1-0.2,0.3-0.2,0.5-0.2
		s0.4,0.1,0.5,0.2l1.8,1.8C31.4,16.8,31.5,17,31.5,17.2z"/>
</g>
</svg>
