<?xml version="1.0" encoding="utf-8"?>
<!-- Generator: Adobe Illustrator 20.0.0, SVG Export Plug-In . SVG Version: 6.00 Build 0)  -->
<svg version="1.1" id="Layer_1" xmlns="http://www.w3.org/2000/svg" xmlns:xlink="http://www.w3.org/1999/xlink" x="0px" y="0px"
	 viewBox="0 0 35 35" style="enable-background:new 0 0 35 35;" xml:space="preserve">
<style type="text/css">
	.st0{fill:#3498DB;}
</style>
<g id="Ñëîé_1">
</g>
<g id="Capa_1">
	<path class="st0" d="M2,9.2C1.9,8.5,2,7.9,2.4,7.3s1-0.9,1.6-1.1c0.7-0.1,1.3,0,1.8,0.4c0.4,0.3,0.7,0.7,1,1.4s0.6,1.1,0.7,1.2
		C7.8,9.4,8,9.5,8.3,9.4c0.4,0,0.8-0.3,1.2-0.8l4.9-7.1l7.1,4.9l0,0c0.5,0.4,1,0.5,1.4,0.4c0.3-0.1,0.5-0.2,0.7-0.5
		c0.3,0,0.4-0.5,0.5-1.3s0.3-1.3,0.5-1.7c0.4-0.6,0.9-0.9,1.6-1c0.6-0.1,1.3,0.1,1.9,0.5s0.9,1,1.1,1.6c0.1,0.7,0,1.3-0.4,1.8
		C28.5,6.6,28,7,27.3,7.3S26.2,7.9,26.1,8c-0.2,0.3-0.3,0.5-0.2,0.8c0,0.5,0.3,0.9,0.9,1.2l7.1,4.9L29,22l0,0
		c-0.4,0.5-0.8,0.8-1.2,0.9c-0.3,0-0.6-0.1-0.8-0.2c-0.2-0.1-0.4-0.5-0.7-1.2c-0.3-0.7-0.7-1.2-1.1-1.4c-0.6-0.4-1.2-0.5-1.8-0.4
		c-0.6,0.1-1.2,0.5-1.6,1.1s-0.5,1.2-0.5,1.9c0.1,0.7,0.4,1.2,1,1.6c0.4,0.3,0.9,0.4,1.7,0.5c0.8,0.1,1.2,0.2,1.4,0.3
		c0.3,0.2,0.4,0.4,0.5,0.7c0.1,0.4,0,0.9-0.4,1.4l0,0l-4.9,7.1l-7.3-5.1c-0.5-0.3-0.9-0.3-1.3-0.2c-0.3,0.1-0.5,0.2-0.6,0.5
		c-0.1,0.2-0.2,0.6-0.3,1.4s-0.3,1.3-0.5,1.7c-0.4,0.6-0.9,0.9-1.6,1c-0.6,0.1-1.3-0.1-1.9-0.5s-0.9-1-1.1-1.6
		c-0.1-0.7,0-1.3,0.4-1.8c0.3-0.4,0.7-0.7,1.4-1S8.9,28.1,9,28c0-0.5,0.1-0.7,0.1-1c0-0.4-0.2-0.8-0.6-1.1l-7.3-5.1l4.9-7.1
		c0.4-0.5,0.5-1,0.4-1.4C6.4,12,6.3,11.8,6,11.6c-0.2-0.1-0.6-0.2-1.4-0.3C3.9,11.2,3.3,11,3,10.8C2.4,10.4,2.1,9.9,2,9.2z"/>
</g>
<g id="Øàð_1">
</g>
<g id="Isolation_Mode">
</g>
<g id="Capa_1_1_">
</g>
</svg>
