<?xml version="1.0" encoding="utf-8"?>
<!-- Generator: Adobe Illustrator 20.0.0, SVG Export Plug-In . SVG Version: 6.00 Build 0)  -->
<svg version="1.1" id="Layer_1" xmlns="http://www.w3.org/2000/svg" xmlns:xlink="http://www.w3.org/1999/xlink" x="0px" y="0px"
	 viewBox="0 0 35 35" style="enable-background:new 0 0 35 35;" xml:space="preserve">
<style type="text/css">
	.st0{fill:#3498DB;}
</style>
<g id="Ñëîé_1">
</g>
<g id="Capa_1">
	<path class="st0" d="M2,8.8C1.9,8.2,2,7.6,2.4,7s1-1,1.6-1.1c0.7-0.1,1.3,0,1.8,0.4c0.4,0.3,0.7,0.7,1,1.4s0.6,1.1,0.7,1.2
		C7.8,9.1,8,9.2,8.3,9.1c0.4,0,0.8-0.3,1.2-0.8l4.9-7.1l7.1,4.9l0,0c0.5,0.4,1,0.5,1.4,0.4c0.3-0.1,0.5-0.2,0.7-0.5
		c0.1-0.2,0.2-0.6,0.3-1.4c0.1-0.8,0.3-1.3,0.5-1.7c0.4-0.6,0.9-0.9,1.6-1c0.6-0.1,1.3,0.1,1.9,0.5s0.9,1,1.1,1.6
		c0.1,0.7,0,1.3-0.4,1.8c-0.3,0.4-0.7,0.7-1.4,1.1c-0.7,0.3-1.1,0.6-1.2,0.7c-0.2,0.3-0.3,0.5-0.2,0.8c0,0.5,0.3,0.9,0.8,1.2
		l7.1,4.9l-4.9,7.1l0,0c-0.4,0.5-0.8,0.8-1.2,0.9c-0.3,0-0.6-0.1-0.8-0.2c-0.2-0.1-0.4-0.5-0.7-1.2c-0.3-0.7-0.7-1.2-1.1-1.4
		c-0.6-0.4-1.2-0.5-1.8-0.4c-0.6,0.1-1.2,0.5-1.6,1.1s-0.5,1.2-0.5,1.9c0.1,0.7,0.4,1.2,1,1.6c0.4,0.3,0.9,0.4,1.7,0.5
		c0.8,0.1,1.2,0.2,1.4,0.3c0.3,0.2,0.4,0.4,0.5,0.7c0.1,0.4,0,0.9-0.4,1.4l0,0l-4.9,7.1l-7.3-5.1c-0.5-0.3-0.9-0.3-1.3-0.2
		c-0.3,0.1-0.5,0.3-0.6,0.5s-0.2,0.6-0.3,1.4s-0.3,1.3-0.5,1.7c-0.4,0.6-0.9,0.9-1.6,1c-0.6,0.1-1.3-0.1-1.9-0.5s-0.9-1-1.1-1.6
		c-0.1-0.7,0-1.3,0.4-1.8c0.3-0.4,0.7-0.7,1.4-1s1.1-0.6,1.2-0.7C9,27.4,9,27.1,9,26.8c0-0.4-0.2-0.8-0.6-1.1l-7.3-5.1L6,13.5
		c0.4-0.5,0.5-1,0.4-1.4c-0.1-0.3-0.2-0.5-0.5-0.7c-0.2-0.1-0.6-0.2-1.4-0.3s-1.3-0.3-1.7-0.5C2.4,10,2.1,9.5,2,8.8z"/>
</g>
<g id="Øàð_1">
</g>
<g id="Isolation_Mode">
</g>
<g id="Capa_1_1_">
	<g>
		<path d="M19.9,11.9c-0.6-0.3-1.3-0.5-2-0.6c-0.7,0-1.4,0.1-2,0.3c-0.5,0.2-1,0.4-1.4,0.7c-0.1,0.1-0.3,0.2-0.4,0.3
			c-0.5,0.5-1,1-1.3,1.7c-0.3,0.6-0.5,1.3-0.6,2c0,0.2,0,0.4,0,0.6c0,0.5,0.1,1,0.3,1.5c0.1,0.2,0.1,0.4,0.2,0.6
			c0.2,0.4,0.5,0.8,0.8,1.2c0.5,0.6,1,1,1.7,1.3c0.5,0.3,1.1,0.5,1.7,0.5c0.1,0,0.3,0,0.4,0c0.7,0.1,1.3,0,2-0.2
			c0.6-0.2,1.2-0.6,1.8-1c0.5-0.5,1-1,1.3-1.6c0.3-0.7,0.5-1.4,0.5-2.1c0.1-0.7,0-1.4-0.2-2c-0.2-0.7-0.6-1.3-1.1-1.8
			C21.1,12.7,20.6,12.2,19.9,11.9z M20.7,10.2c0.9,0.4,1.7,1,2.3,1.7c0.6,0.7,1,1.5,1.3,2.5c0.3,0.9,0.5,1.8,0.4,2.8
			c0,0.9-0.3,1.8-0.8,2.7c-0.4,0.9-1,1.7-1.8,2.3c-0.7,0.6-1.5,1.1-2.5,1.3C18.9,23.9,18,24,17,24c-0.6,0-1.2-0.1-1.8-0.3l-1,2.1
			l-2-1l1-2.1c-0.5-0.4-0.9-0.8-1.3-1.3c-0.6-0.7-1.1-1.5-1.4-2.4c-0.3-0.9-0.4-1.8-0.3-2.8c0-1,0.3-1.9,0.7-2.8
			c0.1-0.1,0.2-0.2,0.2-0.4c0.4-0.7,1-1.4,1.6-1.9c0.4-0.3,0.8-0.6,1.2-0.8s0.8-0.4,1.2-0.5c1-0.3,1.9-0.4,2.9-0.3
			C19,9.5,19.9,9.8,20.7,10.2z"/>
		<path d="M8.8,34.2c-0.4-0.2-0.7-0.6-0.9-1.1c-0.1-0.5-0.1-1,0.1-1.4l3.4-6.8c0.2-0.5,0.6-0.8,1.1-1s0.9-0.2,1.4,0.1
			c0.4,0.2,0.7,0.6,0.9,1.1c0.1,0.5,0.1,1-0.1,1.4l-3.4,6.8c-0.2,0.5-0.6,0.8-1.1,1C9.7,34.4,9.2,34.4,8.8,34.2z"/>
	</g>
</g>
</svg>
