<?xml version="1.0" encoding="utf-8"?>
<!-- Generator: Adobe Illustrator 16.0.0, SVG Export Plug-In . SVG Version: 6.00 Build 0)  -->
<!DOCTYPE svg PUBLIC "-//W3C//DTD SVG 1.1//EN" "http://www.w3.org/Graphics/SVG/1.1/DTD/svg11.dtd">
<svg version="1.1" id="Layer_1" xmlns="http://www.w3.org/2000/svg" xmlns:xlink="http://www.w3.org/1999/xlink" x="0px" y="0px"
	 width="22px" height="22px" viewBox="0 0 22 22" enable-background="new 0 0 22 22" xml:space="preserve">
<path fill="#FFFFFF" stroke="#000000" stroke-width="0.5" stroke-miterlimit="10" d="M14.2,6c0.8,0.7,1.1,1.5,1.1,2.5
	c0,0.5-0.1,0.9-0.399,1.4C14.6,10.4,14,11,13.1,11.7c-0.5,0.399-0.8,0.7-0.899,1C12,12.9,12,13.4,12.1,14H9.9c0-0.3,0-0.5,0-0.5
	c0-0.6,0.1-1.1,0.3-1.6c0.2-0.5,0.7-1,1.399-1.5c0.7-0.5,1.101-0.9,1.2-1.1c0.2-0.3,0.3-0.6,0.3-1c0-0.5-0.199-0.8-0.5-1.1
	c-0.3-0.3-0.8-0.5-1.5-0.5c-0.6,0-1.1,0.2-1.5,0.5C9.3,7.6,9,8.1,8.9,8.8L6.7,8.5C6.8,7.5,7.2,6.7,8,6s1.8-1,3-1
	C12.3,5,13.4,5.3,14.2,6z M17.2,4.9c-1.7-1.7-3.8-2.6-6.1-2.6c-2.4,0-4.5,0.9-6.2,2.6C3.2,6.6,2.4,8.7,2.4,11c0,2.4,0.8,4.4,2.5,6
	c1.7,1.7,3.8,2.6,6.2,2.6s4.4-0.899,6.1-2.6c1.6-1.6,2.5-3.7,2.5-6C19.6,8.7,18.8,6.6,17.2,4.9z M18.1,3.9c2,2,3,4.3,3,7.1
	s-1,5.1-3,7c-2,2-4.3,3-7.1,3s-5.2-1-7.1-3C2,16.2,1,13.8,1,11s1-5.2,2.9-7.1C5.9,2,8.2,1,11,1S16.2,2,18.1,3.9z M9.9,14.7h2.3V17
	H9.9V14.7z"/>
</svg>
