<?xml version="1.0" encoding="utf-8"?>
<!-- Generator: Adobe Illustrator 16.0.0, SVG Export Plug-In . SVG Version: 6.00 Build 0)  -->
<!DOCTYPE svg PUBLIC "-//W3C//DTD SVG 1.1//EN" "http://www.w3.org/Graphics/SVG/1.1/DTD/svg11.dtd">
<svg version="1.1" id="Layer_1" xmlns="http://www.w3.org/2000/svg" xmlns:xlink="http://www.w3.org/1999/xlink" x="0px" y="0px"
	 width="22px" height="22px" viewBox="0 0 22 22" enable-background="new 0 0 22 22" xml:space="preserve">
<path fill-rule="evenodd" clip-rule="evenodd" d="M8,6c0.7-0.7,1.7-1,3-1c1.4,0,2.4,0.3,3.2,1c0.7,0.7,1,1.5,1,2.5
	c0,0.5-0.1,1-0.3,1.4c-0.4,0.6-1,1.2-1.9,1.9c-0.5,0.4-0.8,0.7-0.8,1C12,12.9,12,13.3,12,14H9.8v-0.5c0-0.4,0.1-1,0.4-1.5
	c0.1-0.5,0.6-1,1.3-1.6s1.2-0.9,1.2-1.1c0.2-0.2,0.3-0.6,0.3-1c0-0.5-0.2-0.8-0.5-1c-0.3-0.3-0.8-0.5-1.5-0.5
	c-0.6,0-1.1,0.2-1.5,0.5C9.2,7.6,9,8.2,8.8,8.8L6.7,8.5C6.7,7.6,7.1,6.8,8,6z M18,3.9c2,2,3,4.4,3,7.1c0,2.8-1,5.1-3,7
	c-2,2-4.3,3-7,3c-2.9,0-5.3-1-7.1-3C1.9,16.2,1,13.9,1,11c0-2.8,1-5.1,2.9-7.1C5.9,2,8.2,1,11,1C13.8,1,16.2,2,18,3.9z M11.1,2.3
	c-2.3,0-4.4,0.9-6.2,2.6C3.2,6.7,2.3,8.7,2.3,11c0,2.4,0.8,4.4,2.5,6c1.7,1.7,3.8,2.6,6.2,2.6c2.4,0,4.4-0.9,6.1-2.6
	c1.7-1.7,2.5-3.7,2.5-6c-0.2-2.4-1-4.4-2.5-6.1C15.4,3.2,13.3,2.3,11.1,2.3z M12.2,14.8V17H9.8v-2.3H12.2z"/>
</svg>
