<?xml version="1.0" encoding="utf-8"?>
<!-- Generator: Adobe Illustrator 20.0.0, SVG Export Plug-In . SVG Version: 6.00 Build 0)  -->
<svg version="1.1" id="Layer_1" xmlns="http://www.w3.org/2000/svg" xmlns:xlink="http://www.w3.org/1999/xlink" x="0px" y="0px"
	 viewBox="0 0 300 250" style="enable-background:new 0 0 300 250;" xml:space="preserve">
<style type="text/css">
	.st0{fill:#C42B23;}
	.st1{fill:#FFB048;}
	.st2{fill:#42AE48;}
	.st3{fill:#2E90C6;}
</style>
<path class="st0" d="M211.5,73.4c0.4,1.2,0.4,2.3,0,3.2c-0.6,1.1-1.4,1.7-2.2,2.1c-2.4,0.8-4.3,2.3-5.7,4.6l-0.1,0.5
	c-1.1,2.2-1.3,4.6-0.6,6.8c0.6,2.4,2.1,4.3,4.5,5.5c2.2,1.2,4.7,1.5,7.2,0.7s4.5-2.4,5.7-4.8l0.2-0.4c1.1-2.2,1.3-4.5,0.6-6.8
	c-0.2-0.8-0.1-1.7,0.3-2.5c0.5-1.1,1.5-1.7,2.9-2c1.2-0.3,2.1-0.3,3.1,0c3.9,1.3,10.6,6,20.2,14.2c-1.3,1.4-3.4,3.9-6.4,7.6
	c-4.1,5.2-6.9,9.2-8.2,12l-0.4,1.1c-0.3,0.8-0.3,1.9-0.1,3c0.2,1.4,0.8,2.2,1.8,2.8c1.1,0.4,2,0.5,2.8,0.2c2.6-0.6,5-0.4,7.2,0.6
	c2.2,1.2,3.8,3.1,4.6,5.6c0.6,2.2,0.4,4.6-0.6,6.8l-0.3,0.4c-1.3,2.4-3.2,3.9-5.6,4.7c-2.5,0.8-5,0.6-7.2-0.5
	c-2.2-1.2-3.8-3.1-4.6-5.6c-0.3-0.8-0.8-1.6-1.8-2.1c-1-0.4-2-0.4-3.3,0.1c-1.1,0.4-1.9,1.1-2.5,1.7c-0.5,0.6-1.2,1.9-2,3.6
	c-2.3,4.9-4.8,11.6-7.3,20.1c-12.3-3.3-20-6.3-23.3-8.7c-0.7-0.5-3.5,1-3.9,0c-0.4-1.2-0.4-3.7,0-4.7c0.4-1,0.2-3.3,1.1-3.7
	c2.5-0.8,1.9-0.7,3.1-3.1l3.9-1.9c1.1-2.2,3.4-3.7,2.7-6c-0.7-2.5-2.3-4.3-4.6-5.5c-2.4-1.2-4.8-1.4-7.2-0.5
	c-2.5,0.8-4.5,2.3-5.7,4.7l-0.2,0.4c-1.1,2.2-1.3,4.6-0.6,6.8c0.2,1,0.1,1.8-0.3,2.5c-0.5,1-1.5,1.7-2.9,2.1c-1.2,0.3-2.1,0.3-3,0
	c-2.4-1-6.5-3.5-12-7.7c-3.9-3-6.7-5.1-8.2-6.6c7.5-8.8,12.3-15.3,14.4-19.6l-3.4-1.7c0.3-0.8,2.4,0.1,2.2-1.1
	c-0.2-1.4-1.8-1.7-2.8-2.2c-0.8-0.4,0.3-0.5-0.8-0.4c-2.4,0.8-5.9-0.1-8.2-1.3c-2.2-1.2-3.1-4.1-3.9-6.5c-0.6-2.3,0.4-7.9,1.4-10.1
	l2.5-1.7c1.3-2.3,1.8-2.2,4.2-3c2.5-0.8,4.6,2.3,6.9,3.5c2.2,1.1,3.7,3,4.5,5.4c0.4,1,1.1,1.6,1.9,2.1c1,0.5,2,0.5,3.3,0
	c1.1-0.4,1.9-1.1,2.4-1.8c0.6-1,1.3-2.1,2-3.6c2.3-4.8,4.8-11.4,7.4-20c1.8,0.3,5.2,1.4,10.2,3c6.7,2.1,11.1,4,13.1,5.6
	C210.6,71.6,211.1,72.4,211.5,73.4z"/>
<path class="st1" d="M163.3,55.2c-0.8-0.4-1.3-1.2-1.6-2.3c-0.4-1.2-0.4-2.4,0-3.3c0.4-0.9,1-1.6,2.1-2c2.5-0.8,4.3-2.3,5.6-4.7h0.2
	c1-2.2,1.2-4.5,0.6-6.8c-0.7-2.5-2.3-4.3-4.6-5.6c-2.2-1.1-4.6-1.3-7.2-0.5c-2.4,0.9-4.3,2.5-5.7,4.7l-0.2,0.4
	c-1,2.2-1.2,4.6-0.6,6.8c0.1,1-0.1,1.9-0.5,2.9c-0.4,0.8-1.3,1.5-2.6,1.8c-1.3,0.3-2.3,0.3-3.1,0c-2.5-0.8-6.5-3.5-12-7.7
	c-4-3-6.6-5.1-8.2-6.6c-7.5,8.8-12.4,15.4-14.5,19.6l-0.4,1.2c-0.3,0.9-0.4,1.8-0.2,3c0.2,1.3,0.8,2.2,1.8,2.6
	c0.9,0.5,1.8,0.6,2.8,0.4c2.4-0.8,4.9-0.7,7.2,0.5c2.3,1.3,3.9,3.1,4.6,5.6c0.7,2.3,0.5,4.6-0.6,6.8l-0.3,0.4
	c-1.1,2.3-3.1,3.9-5.7,4.7c-2.4,0.9-4.8,0.7-7.2-0.6c-2.4-1.3-3.9-3.1-4.5-5.5c-0.4-0.9-1.1-1.6-1.9-2.1c-1-0.5-2-0.5-3.3,0
	c-1,0.4-1.9,1.1-2.4,1.8c-0.6,0.9-1.4,2-2,3.5c-2.4,4.8-6.2,14-8.7,22.6c0.3,0.1,5-1.3,11.5,0.6c6.6,2.1,11,4,13.1,5.5
	c0.1,0.1-14.4,16.4-14.4,16.6c4.4,1.7,17.2,20.1,21.2,22.6c0.8,0.5,6.9-30.8,7.7-30.4c0,0,0.9,0.6,0.9,0.6c0.3-0.1-0.3-0.4,0,0
	c2.5,1.5,5,2.8,7.5,4.2c1.8,0.4,4,1.1,6.5,3c0.9,0.7,1.7,1.6,2.6,2.6c2.8,1.1,5.2,2.7,7.5,4.7c6.5-8.1,10.6-16.4,12.6-20.3l0.4-1.1
	c0.4-1,0.4-1.9,0.2-3c-0.2-1.4-0.8-2.3-1.8-2.8c-0.9-0.5-1.8-0.6-2.8-0.4c-2.4,0.9-4.9,0.7-7.2-0.6c-2.3-1-3.8-3-4.5-5.5
	c-0.7-2.2-0.5-4.6,0.6-6.8l0.2-0.4c1.4-2.3,3.2-3.9,5.7-4.7c2.4-0.9,4.9-0.7,7.2,0.5c2.3,1.2,3.9,3,4.6,5.5c0.4,0.9,1.1,1.7,1.9,2.1
	c0.9,0.5,2,0.5,3.3,0c1-0.4,1.9-1.1,2.4-1.8c0.6-0.8,1.3-2.1,2-3.6c2.3-4.7,4.8-11.4,7.4-20C174.4,60.4,166.6,57.6,163.3,55.2z"/>
<path class="st2" d="M201.5,181c-1.3,0.5-2.3,0.5-3.3,0c-0.8-0.4-1.5-1.2-1.9-2.1c-0.7-2.5-2.2-4.3-4.5-5.5s-4.8-1.4-7.2-0.5
	c-2.5,0.8-4.5,2.4-5.7,4.7l-0.3,0.4c-1.1,2.2-1.3,4.6-0.6,6.8c0.7,2.6,2.3,4.5,4.6,5.5c2.2,1.3,4.7,1.5,7.2,0.6
	c1-0.2,1.9-0.1,2.8,0.4c1,0.5,1.6,1.4,1.8,2.8c0.2,1.1,0.2,2-0.2,3l-0.4,1.1c-2.1,4.3-7,10.9-14.5,19.6
	c-9.5-8.2-16.3-12.8-20.2-14.2c-0.8-0.3-1.9-0.3-3-0.1c-1.4,0.3-2.3,1-2.8,1.9c-0.4,0.8-0.6,1.8-0.5,2.9c0.6,2.4,0.4,4.7-0.5,6.7
	l-0.3,0.4c-1.3,2.3-3.2,3.9-5.7,4.7c-2.5,0.8-5,0.6-7.2-0.6c-2.3-1.2-3.8-3-4.6-5.5c-0.6-2.3-0.4-4.6,0.6-6.8l0.3-0.4
	c1.3-2.3,3.1-3.9,5.6-4.7c1.1-0.4,1.7-1.1,2.1-1.9c0.4-1,0.4-2.1,0-3.3c-0.3-1.1-0.8-1.8-1.6-2.3c-2.1-1.5-6.5-3.4-13.1-5.5
	c-6.4-1.9-9.7-3-10.2-3.1c2.6-8.6,5.1-15.3,7.4-20.1c0.7-1.5,1.5-2.6,2-3.5c0.5-0.7,1.4-1.4,2.5-1.8c1.3-0.5,2.3-0.5,3.2,0
	c0.8,0.5,1.5,1.2,1.9,2.1c0.7,2.4,2.3,4.2,4.6,5.5c2.2,1.3,4.7,1.5,7.2,0.6s4.3-2.4,5.7-4.7l0.2-0.4c1.1-2.2-2.5-3.7-3.2-6
	c-0.7-2.5,0,0-2.3-1.3c-2.3-1.2-3.1-5.1-5.5-4.2c-1,0.2-4.2,2.2-5.1,1.7c-1-0.4-6.9-8.7-3.1-8.7c-0.2-1.2,0.6-5.9,0.9-6.8l2.1-3
	c1.3-2.8,5.1,1.5,9.3-3.8c3-3.8,5.1-6.4,6.4-7.6c1.6,1.5,4.2,3.6,8.2,6.6c5.5,4.2,9.5,6.9,12,7.7c0.8,0.3,1.8,0.3,3,0
	c1.3-0.3,2.2-1,2.8-1.8c0.4-1.1,0.6-1.9,0.4-2.9c-0.6-2.2-0.4-4.6,0.6-6.8l0.3-0.4c1.3-2.2,3.2-3.8,5.7-4.7c2.4-0.8,4.9-0.6,7.2,0.5
	c2.2,1.2,3.8,3.1,4.6,5.5c0.6,2.3,0.4,4.6-0.6,6.8l-0.3,0.4c-1.2,2.3-3.1,3.9-5.7,4.7c-0.8,0.2-1.6,0.8-2.1,1.9
	c-0.4,1-0.4,2.1,0,3.3c0.3,1.1,0.8,1.9,1.6,2.3c3.3,2.4,11.1,5.3,23.3,8.7c-2.5,8.6-5,15.3-7.4,20c-0.6,1.4-1.3,2.5-1.9,3.6
	C203.4,180,202.5,180.6,201.5,181z"/>
<path class="st3" d="M132.4,111.3c3.9,1.4,12.6,6.2,22.2,14.3c-2.1,2.4-6.1,4.8-8.3,7.4c-4.1,5.3-6.9,9.3-8.2,12l-0.5,1.2
	c-0.3,0.8-0.3,1.9-0.1,3c0.3,1.3,0.8,2.2,1.8,2.6c0.8,0.4,1.8,0.5,2.8,0.4c2.4-0.8,4.9-0.6,7.2,0.5c2.3,1.3,3.8,3.1,4.5,5.5
	c0.6,2.3,0.4,4.6-0.6,6.8l-0.2,0.4c-1.3,2.3-3.2,3.9-5.7,4.7c-2.6,0.7-5.1,0.5-7.3-0.6c-2.3-1.3-3.8-3.1-4.5-5.6
	c-0.3-0.8-1-1.5-1.9-2c-1-0.5-2-0.5-3.3,0c-1.1,0.4-1.9,1.1-2.4,1.8c-0.6,0.8-1.3,2-2,3.5c-2.3,4.9-4.8,11.6-7.4,20.1
	c-12.2-3.3-20-6.3-23.3-8.7c-0.7-0.5-1.3-1.3-1.6-2.2c-0.4-1.3-0.5-2.3-0.1-3.2c0.6-1,1.4-1.7,2.2-2.1c2.5-0.8,4.3-2.4,5.7-4.7
	l0.2-0.4c1.1-2.2,1.3-4.6,0.6-6.8c-0.6-2.5-2.1-4.3-4.5-5.6c-2.3-1.3-4.8-1.5-7.2-0.6c-2.5,0.8-4.5,2.4-5.7,4.7l-0.3,0.4
	c-1.1,2.2-1.3,4.5-0.6,6.7c0.2,1,0.1,1.8-0.3,2.6c-0.5,1-1.5,1.7-2.9,2c-1.2,0.3-2.1,0.3-3.1,0c-3.9-1.4-10.6-6.1-20.2-14.2
	c7.6-8.8,12.4-15.4,14.5-19.6l0.4-1.2c0.3-0.8,0.3-1.9,0.2-3c-0.2-1.3-0.8-2.2-1.8-2.8c-0.8-0.4-1.8-0.5-2.8-0.4
	c-2.4,0.8-4.9,0.6-7.2-0.5c-2.2-1.2-3.8-3.1-4.6-5.6c-0.6-2.3-0.4-4.6,0.6-6.8l0.3-0.4c1.3-2.3,3.2-3.9,5.7-4.7
	c2.6-0.7,5-0.5,7.2,0.6c2.2,1.2,3.8,3.1,4.6,5.5c0.2,0.8,0.8,1.5,1.8,2c1,0.5,2,0.5,3.3,0c1.1-0.4,1.9-1.1,2.5-1.8
	c0.6-0.8,1.3-2,2-3.5c1.4-3,3.1-7.2,4.9-12.5c1.6-4.8,2.4-7.3,2.5-7.5c0.3,0.1,3.7,1.2,10.2,3.1c6.7,2.2,11,4,13,5.6
	c0.7,0.5,1.3,1.3,1.7,2.3c0.4,1.2,0.4,2.2,0,3.1c-0.5,1-1.3,1.7-2.1,2.1c-2.5,0.8-4.5,2.4-5.7,4.7l-0.3,0.4
	c-1.1,2.2-1.3,4.5-0.6,6.7c0.7,2.6,2.3,4.5,4.6,5.6c2.3,1.3,4.8,1.5,7.2,0.6c2.6-0.8,4.6-2.4,5.7-4.7l0.3-0.4
	c1.1-2.2,1.3-4.5,0.6-6.7c-0.2-1-0.1-1.8,0.3-2.6c0.5-1,1.5-1.7,2.9-2C130.6,110.9,131.5,110.9,132.4,111.3z"/>
</svg>
