<?xml version="1.0" encoding="utf-8"?>
<!-- Generator: Adobe Illustrator 20.0.0, SVG Export Plug-In . SVG Version: 6.00 Build 0)  -->
<svg version="1.1" id="flash0.ai" xmlns="http://www.w3.org/2000/svg" xmlns:xlink="http://www.w3.org/1999/xlink" x="0px" y="0px"
	 viewBox="0 0 300 250" style="enable-background:new 0 0 300 250;" xml:space="preserve">
<style type="text/css">
	.st0{fill:#F7EDD1;}
	.st1{fill:#0A0B2D;}
	.st2{fill:#DB1F1F;}
	.st3{opacity:0.15;}
	.st4{fill:#1B3E75;}
	.st5{fill:#E8813C;}
	.st6{fill:#F39150;}
	.st7{fill:#F5A26D;}
	.st8{fill:#FFBE23;}
	.st9{fill:#E3A922;}
	.st10{fill:#FFCF5E;}
	.st11{fill:#DE4B49;}
	.st12{fill:#E95F5E;}
	.st13{fill:#F08281;}
	.st14{fill:#C4C4C4;}
	.st15{fill:#ECECEC;}
	.st16{fill:#D9D9D9;}
</style>
<g>
	<g>
		<path class="st0" d="M107.9,47.8c-24.2-0.6-49,8.8-70.5,18.6c-3.5,1.6-6.9,3.3-10.2,5c2.8,9.2,5.7,18.5,8.5,27.7
			c3.4-1.5,6.8-3.1,10.3-4.7c22-10.2,46-19.5,65.9-33.7c24.4,0.6,49.5-5.2,73.4-9.1c4.1-0.7,8.2-1.3,12.2-2
			c-2.8-9.2-5.7-18.4-8.5-27.6c-4,0.5-8.2,1-12.3,1.7C153.5,27.6,127.6,33.7,107.9,47.8z"/>
	</g>
	<g>
		<path class="st1" d="M108.2,48.5c-4.5,1.4-7.8,3.8-7.3,5.2c0.5,1.5,4.5,1.5,9,0.1c4.5-1.4,7.8-3.6,7.4-5.1
			C116.7,47.2,112.7,47.1,108.2,48.5z"/>
	</g>
	<g>
		<path class="st2" d="M19.8,75c13.1,42.8,26.3,85.5,39.4,128.3c26.4-9.5,53.3-17,80.8-22.6c-13.1-42.8-26.3-85.5-39.4-128.3
			C73.1,58,46.2,65.5,19.8,75z"/>
	</g>
	<g class="st3">
		<path class="st4" d="M135.5,181.7c2.1-0.4,3.2-0.6,5.3-1.1c-13.1-42.8-26.3-85.5-39.4-128.3c-2.1,0.4-3.2,0.6-5.3,1.1
			C109.2,96.2,122.3,139,135.5,181.7z"/>
	</g>
	<g>
		<path class="st2" d="M116.6,47.4c13.1,42.8,26.3,85.5,39.4,128.3c25.9-10.8,52.3-19.7,79.5-26.6c-13.1-42.8-26.3-85.5-39.4-128.3
			C168.9,27.8,142.5,36.7,116.6,47.4z"/>
	</g>
	<g class="st3">
		<path class="st4" d="M155.2,176.3c2-0.9,3-1.3,5-2.1c-13.1-42.8-26.3-85.5-39.4-128.3c-2,0.8-3,1.3-5,2.1
			C128.9,90.7,142,133.5,155.2,176.3z"/>
	</g>
	<g>
		<g>
			<path class="st2" d="M99.7,52.5c13.1,42.8,26.3,85.6,39.4,128.4c8.1,0.2,11.1-0.7,17.7-5.4c-13.1-42.8-26.3-85.6-39.4-128.4
				C110.8,51.8,107.8,52.7,99.7,52.5z"/>
		</g>
	</g>
</g>
<g>
	<g>
		<g>
			<path d="M137.5,195.2c-0.7-0.7-3,0.1-5.3,0.8c-2.2,0.7-4.5,1.3-5.5,0.3c-1.9-1.8,2.2-7.2,1.8-9c0-0.1-0.1-0.2-0.1-0.3
				c-0.6-0.8-2.7,0.1-4.7,0.6l-7.9,19l21.5-8.9C137.8,196.7,138,195.7,137.5,195.2z"/>
			<path class="st5" d="M175.3,180.5c-1.2-1.2,1.4-5.3,3.1-9.1c1.1-2.5,1.8-4.8,1-6.2L132.2,196c2.3-0.7,4.6-1.5,5.3-0.8
				c0.5,0.5,0.3,1.5-0.2,2.6l43-17.8C177.9,180.8,176,181.2,175.3,180.5z"/>
			<path class="st6" d="M179.1,164.7c-0.1-0.1-0.3-0.2-0.4-0.3l-0.2-0.1c-1.4-0.7-4-0.3-6.8,0.4c-5.3,1.2-11.7,3.3-14.5,0.7
				c-3-2.9,0-9,1.6-13.6c0.8-2.3,1.3-4.2,0.4-5.2c-0.3-0.4-0.9-0.6-1.5-0.7c-0.5-0.1-1-0.1-1.6,0c-0.2,0-0.4,0-0.6,0.1l-27,41.3
				c0.4,1.7-3.7,7.1-1.8,9c1,1,3.3,0.4,5.5-0.3l47.2-30.8C179.3,165,179.2,164.8,179.1,164.7z"/>
			<path class="st7" d="M128.7,187.2L128.7,187.2l26.9-41.1c-0.7,0.1-1.3,0.2-2.1,0.4c-3.9,0.9-8.6,2.5-10.3,0.5
				c-1-1.2-0.8-3.6,0-6.2l-19.4,46.9c1.9-0.6,4-1.4,4.7-0.6c0.1,0.1,0.1,0.2,0.1,0.3L128.7,187.2z"/>
			<path class="st8" d="M252.3,46L149.7,147.4c0.2,0,6.2-1.4,6.4-1.4c0.6-0.1,1.2-0.1,1.6,0c0.6,0.1,1.2,0.3,1.5,0.7
				c0.8,0.9,0.4,2.9-0.4,5.2c-1.6,4.6-4.6,10.7-1.6,13.6c2.8,2.6,9.2,0.5,14.5-0.7c2.9-0.7,5.4-1.1,6.8-0.4l0.2,0.1
				c0.2,0.1,0.3,0.2,0.4,0.3c0.1,0.1,0.3,0.3,0.4,0.5l99.4-92.8L252.3,46z"/>
			<path class="st9" d="M275,69.6l-95.6,95.6c0.8,1.4,0.1,3.8-1,6.2c-1.7,3.8-4.3,7.9-3.1,9.1c0.7,0.7,2.6,0.3,5.1-0.5l4.7-1.9
				l95.6-95.6L275,69.6z"/>
			<path class="st10" d="M240.7,41.3l-96.2,96.2l-1.3,3.3c-0.8,2.5-1.1,5,0,6.2c1.8,2,6.4,0.5,10.3-0.5c0.7-0.2,1.4-0.3,2.1-0.4
				L251,50.8L240.7,41.3z"/>
		</g>
		<g>
			<path class="st11" d="M283.1,80.3c-1.5-4.5-5.5-11.8-7.8-15.8L246,92.8c3.1,3.1,9.2,9.2,12.3,12.3
				C263.9,99.4,277.4,85.9,283.1,80.3z"/>
			<path class="st12" d="M267.5,55.2C267.5,55.2,267.5,55.2,267.5,55.2c-3.5-3.5-9.2-7.7-13.5-10.3l-27.9,28
				c7.2,7.2,15.7,15.7,22.9,22.9l28.2-28.2C274.5,63.1,271.2,58.9,267.5,55.2z"/>
			<path class="st13" d="M242.5,39.7c-5.6,5.6-19.2,19.2-24.8,24.8c3.3,3.3,6.5,6.5,9.8,9.8L255.8,46
				C251.7,43.4,247.2,41.3,242.5,39.7z"/>
		</g>
	</g>
	<g>
		
			<rect x="238.6" y="97" transform="matrix(0.7072 -0.7071 0.7071 0.7072 0.1834 207.4655)" class="st14" width="24" height="13.1"/>
		
			<rect x="207.5" y="65.5" transform="matrix(0.7071 -0.7071 0.7071 0.7071 13.0497 176.4408)" class="st15" width="24" height="13.8"/>
		
			<rect x="223.2" y="72.9" transform="matrix(0.7071 -0.7071 0.7071 0.7071 6.565 192.0876)" class="st16" width="24" height="30.4"/>
	</g>
</g>
</svg>
