<?xml version="1.0" encoding="utf-8"?>
<!-- Generator: Adobe Illustrator 20.0.0, SVG Export Plug-In . SVG Version: 6.00 Build 0)  -->
<svg version="1.1" id="Layer_1" xmlns="http://www.w3.org/2000/svg" xmlns:xlink="http://www.w3.org/1999/xlink" x="0px" y="0px"
	 viewBox="0 0 260 110" style="enable-background:new 0 0 260 110;" xml:space="preserve">
<style type="text/css">
	.st0{fill:#2d2d2d;}
	.st1{fill:#57AB33;}
</style>
<path class="st0" d="M226.7,108.7H33.3c-6.8,0-12.3-5.5-12.3-12.3V14.9c0-6.8,5.5-12.3,12.3-12.3h193.4c6.8,0,12.3,5.5,12.3,12.3
	v81.4C239,103.1,233.5,108.7,226.7,108.7z"/>
<g>
	<g>
		<g>
			<path class="st1" d="M137.3,56.1V17.6h11.5c1.7,0,3.2,0.2,4.3,0.7s2,1.2,2.6,2.2c0.7,1,1.1,2.4,1.4,4c0.2,1.7,0.4,3.7,0.4,6.2
				s-0.1,4.6-0.4,6.4s-0.7,3.2-1.4,4.3s-1.5,1.8-2.6,2.4c-1.1,0.4-2.6,0.7-4.3,0.7h-3.5V56L137.3,56.1L137.3,56.1z M147.4,36.6
				c0.7,0,1.2-0.4,1.5-1.2s0.4-2.4,0.4-4.7c0-2.1-0.1-3.4-0.5-4c-0.4-0.7-1-1-1.7-1h-1.9v10.9H147.4L147.4,36.6z"/>
			<path class="st1" d="M165.1,56.1V25.8h-6v-8.1h20.1v8.1h-6v30.3H165.1z"/>
			<path class="st1" d="M191.9,29.6c0-0.3,0.1-0.5,0.1-0.7s0-0.5,0-1c0-1.2-0.1-2-0.4-2.4s-1-0.7-1.9-0.7s-1.6,0.2-1.9,0.7
				c-0.3,0.4-0.4,1.2-0.4,2.4c0,1.1,0.1,1.9,0.4,2.4s0.7,0.9,1.4,1.2c0.7,0.4,1.5,0.8,2.1,1.1c0.7,0.3,1.2,0.6,1.8,0.8
				s1.1,0.5,1.6,0.7s1,0.5,1.5,0.9s1,0.8,1.5,1.3c0.4,0.4,0.7,1,1,1.8c0.2,0.7,0.4,1.6,0.6,2.7c0.1,1,0.2,2.4,0.2,4
				c0,2.3-0.1,4.2-0.5,5.7c-0.3,1.5-0.9,2.7-1.6,3.7c-0.7,0.9-1.8,1.5-3.1,2c-1.3,0.4-2.9,0.6-4.9,0.6c-3.2,0-5.5-0.6-7-1.8
				s-2.2-3.3-2.2-6.3c0-1,0-2,0.1-2.9c0.1-1,0.1-1.8,0.3-2.4h6.6c-0.1,0.2-0.1,0.4-0.1,0.7c0,0.2,0,0.5,0,0.7c0,1.5,0.1,2.5,0.4,3.1
				c0.3,0.6,1,0.8,2,0.8s1.7-0.2,2-0.7s0.5-1.5,0.5-3.2c0-1-0.1-1.7-0.4-2.2c-0.3-0.5-0.8-1-1.5-1.5c-0.6-0.4-1.2-0.8-2-1.1
				c-0.7-0.4-1.4-0.7-2.1-1c-0.7-0.3-1.4-0.7-2-1c-0.7-0.4-1.2-0.7-1.7-1.2c-1-0.9-1.7-2.1-1.9-3.7c-0.2-1.6-0.3-3.7-0.3-6.2
				c0-1.8,0.1-3.3,0.4-4.6c0.3-1.2,0.8-2.2,1.5-3c0.7-0.7,1.7-1.3,2.9-1.6c1.2-0.4,2.8-0.5,4.7-0.5c1.7,0,3.2,0.1,4.3,0.4
				c1.2,0.3,2.1,0.7,2.9,1.4c0.7,0.7,1.2,1.5,1.6,2.6c0.3,1.1,0.5,2.4,0.5,4c0,1,0,1.9-0.1,2.5s-0.1,1.2-0.3,1.6h-6.8v-0.1H191.9z"
				/>
			<path class="st1" d="M201.3,56.1v-7.6h7.9v7.6H201.3z"/>
		</g>
	</g>
</g>
<g>
	<path class="st1" d="M72.1,38.9c0.1-0.2,0.1-0.8,0.1-1.9c0-2.2-0.4-3.6-1.1-4.1c-0.8-0.6-2.1-0.8-4.1-0.8c-1.4,0-2.5,0.3-3.2,0.8
		c-0.7,0.5-1.2,1.9-1.4,4.3c-0.1,0.4-0.1,1-0.2,1.8c0,0.8-0.1,1.7-0.1,2.6c0,1-0.1,2-0.1,3c0,1.1-0.1,2.1-0.1,3
		c1.6-0.3,3.1-0.5,4.6-0.6c1.5-0.1,2.8-0.2,4.1-0.2c2.9,0,5.4,0.3,7.6,1c2.2,0.7,4,1.9,5.4,3.6c1.4,1.7,2.5,4,3.3,6.9
		c0.7,2.9,1.1,6.6,1.1,11.1c0,5.8-0.3,10.5-0.9,14c-0.6,3.6-1.7,6.4-3.3,8.4c-1.6,2-3.7,3.3-6.4,4c-2.7,0.7-6.1,1-10.3,1
		c-3,0-5.7-0.2-7.9-0.5c-2.2-0.3-4.1-0.9-5.7-1.9c-1.5-0.9-2.8-2.3-3.8-4.1c-1-1.8-1.8-4.2-2.3-7.2c-0.5-3-0.9-6.7-1.1-11
		c-0.2-4.4-0.3-9.6-0.3-15.7c0-6.5,0.1-12,0.2-16.5c0.1-4.5,0.4-8.3,0.9-11.3c0.5-3,1.2-5.3,2.1-7c0.9-1.7,2.1-2.9,3.7-3.8
		c1.6-0.8,3.5-1.3,5.8-1.5c2.3-0.2,5.1-0.3,8.3-0.3c4.5,0,8.1,0.2,10.8,0.6c2.6,0.4,4.7,1.4,6,2.9c1.4,1.5,2.3,3.8,2.6,6.9
		c0.4,3.1,0.6,7.2,0.6,12.4H72.1z M61.9,67.1c0,1.6,0,2.9,0.1,4c0,1.1,0.1,2,0.2,2.8c0.1,0.8,0.2,1.4,0.3,2c0.1,0.6,0.3,1.1,0.5,1.5
		c0.3,0.8,0.8,1.3,1.4,1.5c0.6,0.3,1.5,0.4,2.7,0.4c1.1,0,2-0.1,2.6-0.3c0.6-0.2,1.1-0.7,1.4-1.5c0.3-0.9,0.5-2.2,0.6-4
		c0.1-1.8,0.2-4.4,0.2-7.6c0-2.7-0.4-4.5-1.1-5.4c-0.7-0.9-2-1.3-3.8-1.3c-1.4,0-2.6,0.1-3.4,0.4c-0.8,0.2-1.4,0.5-1.7,0.8V67.1z"/>
	<path class="st1" d="M110.7,34l-0.9,9c0.8-0.3,1.9-0.6,3.3-0.9s3.2-0.5,5.3-0.5c2.6,0,4.9,0.4,6.9,1.2c2,0.8,3.6,2.1,4.9,3.8
		c1.3,1.8,2.3,4,2.9,6.9c0.7,2.8,1,6.3,1,10.4c0,3.8-0.1,7.1-0.3,9.9c-0.2,2.8-0.4,5.2-0.7,7.3c-0.3,2.1-0.7,3.9-1.2,5.4
		c-0.5,1.5-1.1,2.8-1.8,3.9c-0.7,1.2-1.5,2.2-2.5,3c-1,0.8-2.2,1.5-3.6,2c-1.4,0.5-3.1,0.9-5.1,1.1c-2,0.2-4.2,0.3-6.8,0.3
		c-4.3,0-7.8-0.5-10.5-1.4c-2.7-1-4.7-2.4-6.1-4.4c-1.4-2-2.4-4.5-2.8-7.6c-0.4-3.1-0.7-6.7-0.7-10.8c0-2.2,0.1-4.5,0.3-7h15
		c-0.1,0.5-0.1,1-0.1,1.7c0,0.7,0,1.3,0,1.8c0,3.2,0.3,5.8,0.8,7.6c0.5,1.8,1.9,2.7,4.2,2.7c1.6,0,2.7-0.1,3.3-0.4
		c0.6-0.3,1-0.8,1.2-1.4c0.3-1.2,0.6-2.7,0.8-4.6c0.2-1.9,0.3-4.7,0.3-8.5c0-1.9-0.1-3.5-0.2-4.6c-0.1-1.2-0.4-2.1-0.9-2.7
		c-0.4-0.6-1.1-1-1.9-1.2c-0.8-0.2-1.8-0.3-3.1-0.3c-2.1,0-3.8,0.6-5.3,1.9l-12.6-4l2.5-36h36.4V34H110.7z"/>
</g>
</svg>
