<?xml version="1.0" encoding="utf-8"?>
<!-- Generator: Adobe Illustrator 20.0.0, SVG Export Plug-In . SVG Version: 6.00 Build 0)  -->
<svg version="1.1" id="Layer_1" xmlns="http://www.w3.org/2000/svg" xmlns:xlink="http://www.w3.org/1999/xlink" x="0px" y="0px"
	 viewBox="0 0 200 200" style="enable-background:new 0 0 200 200;" xml:space="preserve">
<style type="text/css">
	.st0{fill:#57AB33;}
	.st1{fill:#FFFFFF;}
</style>
<g>
	<path class="st0" d="M100,15c-0.3,0-0.7,0-1,0c-23.2,0-44.3,9.2-59.8,24.2C24.2,54.7,15,75.7,15,99c0,39.5,26.6,72.7,62.9,82.8
		c7.1,2,14.5,3.1,22.1,3.2c0.3,0,0.7,0,1,0c23.2,0,44.3-9.2,59.8-24.2c13.1-13.6,21.9-31.5,23.8-51.4c0.3-2.8,0.4-5.6,0.4-8.4
		C185,53.8,147,15.6,100,15z"/>
</g>
<path class="st1" d="M154.9,73l-9-9.4c-1.9-1.9-5.9-1.3-9,1.4L88,108L62.1,80.5c-1.9-2-5-2.2-7-0.3l-9.5,8.9c-1.9,1.8-2,5-0.1,7
	l26.8,28.4l10.7,11.3c1.2,1.3,3,1.8,4.6,1.5c0.7-0.2,1.5-0.6,2.2-1c0.5-0.3,1-0.7,1.5-1.1l61.3-53.7C155.8,78.8,156.8,75,154.9,73z"
	/>
</svg>
