<?xml version="1.0" encoding="utf-8"?>
<!-- Generator: Adobe Illustrator 20.0.0, SVG Export Plug-In . SVG Version: 6.00 Build 0)  -->
<svg version="1.1" id="Layer_1" xmlns="http://www.w3.org/2000/svg" xmlns:xlink="http://www.w3.org/1999/xlink" x="0px" y="0px"
	 viewBox="0 0 300 250" style="enable-background:new 0 0 300 250;" xml:space="preserve">
<style type="text/css">
	.st0{fill:#FFFFFF;}
	.st1{fill:#F47731;}
	.st2{fill:#DD3636;}
	.st3{fill:#F7F0F0;}
	.st4{fill:#F2F2F5;}
</style>
<path class="st0" d="M104,129.9c0-8.1,2.2-15.7,6.6-23c4.3-7.1,10.4-13.4,18.2-18.9c7.8-5.4,16.8-9.7,27-12.7
	c10.5-3.1,21.5-4.7,33-4.7s22.5,1.5,33,4.7c10.1,3,19.1,7.2,27,12.7c7.8,5.4,13.9,11.7,18.2,18.9c4.4,7.3,6.7,15.1,6.7,23
	c0,8.1-2.2,15.7-6.7,23c-4.3,7.1-10.4,13.4-18.2,18.9c-7.8,5.4-16.8,9.7-27,12.7c-10.5,3.1-21.5,4.7-33,4.7c-2.4,0-4.3-0.1-6-0.2
	l-5.6,2.5c-2.1,0.9-4,1.8-5.8,2.6c-5.3,2.8-9.1,5.3-11.5,7.5c-4.1,3.7-6.1,7.9-6.1,12.4c-2.2-4.8-2.5-9.9-0.9-15.2
	c1.4-4.5,3.8-8.8,7.6-13.1c-1.1-0.3-2.7-0.9-4.8-1.4c-2.6-0.8-4.3-1.2-4.7-1.4c-3.1-1.1-6-2.3-8.9-3.7c-11.6-5.4-20.8-12.4-27.6-21
	C107.4,149.6,104,140.1,104,129.9z"/>
<g>
	<path class="st1" d="M109.2,131.3c0-7.3,2-14.3,6-21c3.9-6.5,9.4-12.2,16.5-17.2c7.1-4.9,15.3-8.8,24.5-11.6
		c9.5-2.8,19.6-4.3,30-4.3c10.5,0,20.5,1.4,30,4.3c9.2,2.7,17.3,6.5,24.5,11.6c7.1,5,12.6,10.7,16.5,17.2c4.1,6.7,6,13.7,6,21
		s-2,14.3-6,21c-3.9,6.5-9.4,12.2-16.5,17.2s-15.3,8.8-24.5,11.6c-9.5,2.8-19.6,4.3-30,4.3c-2,0-3.8,0-5.4-0.1l-5.1,2.2
		c-1.7,0.7-3.5,1.5-5.3,2.4c-4.8,2.6-8.3,4.8-10.5,6.8c-3.7,3.4-5.5,7.1-5.5,11.2c-2-4.3-2.3-9-0.9-13.9c1.2-4.1,3.5-8,6.9-11.9
		c-1-0.3-2.5-0.8-4.3-1.3c-2.6-0.7-4.1-1.1-4.3-1.2c-2.8-1-5.5-2.1-8.1-3.3c-10.6-4.9-19-11.2-25.1-19
		C112.4,149.1,109.2,140.5,109.2,131.3z"/>
</g>
<path class="st0" d="M174.9,49.2c3.8,6.3,5.7,12.9,5.7,19.8s-1.9,13.5-5.7,19.8c-3.7,6.1-8.8,11.5-15.6,16.2s-14.5,8.3-23.1,10.9
	c-9,2.6-18.5,4-28.3,4c-2,0-3.7-0.1-5.2-0.2l-9.8,4.3c-4.5,2.4-7.8,4.5-9.9,6.5c-3.5,3.2-5.3,6.7-5.3,10.6
	c-1.9-4.1-2.1-8.5-0.9-13.1c1.1-3.8,3.3-7.6,6.5-11.2c-0.9-0.3-2.3-0.7-4.1-1.2c-2.3-0.6-3.7-1-4-1.1c-2.6-0.9-5.2-2-7.7-3.1
	c-10-4.7-17.9-10.6-23.7-18c-6-7.6-8.9-15.7-8.9-24.5c0-6.9,1.9-13.5,5.7-19.8c3.7-6.1,8.9-11.5,15.6-16.2S70.9,24.6,79.6,22
	c9-2.6,18.5-4,28.3-4s19.3,1.4,28.3,4c8.7,2.6,16.4,6.2,23.1,10.9C165.9,37.7,171.1,43.2,174.9,49.2z"/>
<path class="st2" d="M167.6,52c3.5,5.7,5.2,11.7,5.2,18s-1.7,12.2-5.2,18c-3.3,5.5-8.1,10.5-14.2,14.7c-6.1,4.3-13.1,7.6-21,9.9
	c-8.2,2.5-16.8,3.7-25.8,3.7c-1.8,0-3.3,0-4.7-0.1l-4.4,1.9c-1.4,0.6-3,1.3-4.5,2c-4.2,2.2-7.1,4.2-9,5.9c-3.1,2.9-4.8,6.1-4.8,9.7
	c-1.7-3.7-2-7.7-0.8-11.9c1-3.5,3-6.9,5.9-10.2c-0.9-0.3-2.1-0.7-3.7-1.1c-2.3-0.6-3.5-0.9-3.7-1c-2.3-0.9-4.6-1.8-7-2.8
	c-9.1-4.3-16.3-9.7-21.6-16.3c-5.3-7-8-14.4-8-22.3c0-6.3,1.7-12.2,5.2-18c3.3-5.5,8.1-10.5,14.2-14.7s13.1-7.6,21-9.9
	c8.2-2.5,16.8-3.7,25.8-3.7s17.6,1.2,25.8,3.7c7.9,2.3,14.9,5.6,21,9.9C159.5,41.6,164.2,46.5,167.6,52z"/>
<path class="st3" d="M118.9,67.3c0,2.6-0.9,4.8-2.8,6.7c-1.9,1.9-4.1,2.8-6.7,2.8s-4.8-0.9-6.7-2.8s-2.8-4.1-2.8-6.7
	s0.9-4.8,2.8-6.7s4.1-2.8,6.7-2.8s4.8,0.9,6.7,2.8C118,62.5,118.9,64.7,118.9,67.3z"/>
<path class="st3" d="M129.8,60.6c1.9-1.9,4.1-2.8,6.7-2.8s4.8,0.9,6.7,2.8c1.9,1.9,2.8,4.1,2.8,6.7s-0.9,4.8-2.8,6.7
	c-1.9,1.9-4.1,2.8-6.7,2.8s-4.8-0.9-6.7-2.8s-2.8-4-2.8-6.7S127.9,62.5,129.8,60.6z"/>
<path class="st3" d="M91.8,67.3c0,2.6-0.9,4.8-2.8,6.7c-1.9,1.9-4.1,2.8-6.7,2.8s-4.8-0.9-6.7-2.8c-1.9-1.9-2.8-4.1-2.8-6.7
	s0.9-4.8,2.8-6.7s4.1-2.8,6.7-2.8s4.8,0.9,6.7,2.8C90.9,62.5,91.8,64.7,91.8,67.3z"/>
<g>
	<g>
		<path class="st0" d="M188.7,138.9c-2.8-0.2-5.2-1.2-7.2-3.2c-2.1-2.1-3.2-4.8-3.2-7.8c0-3.1,1.1-5.7,3.2-7.8c2-2,4.4-3.1,7.2-3.2
			c0.2,0,0.4,0,0.6,0c3.1,0,5.7,1.1,7.8,3.2s3.2,4.8,3.2,7.8c0,3.1-1.1,5.6-3.2,7.8c-2.1,2.1-4.8,3.2-7.8,3.2
			C189.2,138.9,189,138.9,188.7,138.9z M157.2,138.9c-2.8-0.2-5.2-1.2-7.2-3.2c-2.1-2.1-3.2-4.8-3.2-7.8c0-3.1,1.1-5.7,3.2-7.8
			c2-2,4.4-3.1,7.2-3.2c0.2,0,0.4,0,0.6,0c3.1,0,5.7,1.1,7.8,3.2s3.2,4.8,3.2,7.8c0,3.1-1.1,5.6-3.2,7.8c-2.1,2.1-4.8,3.2-7.8,3.2
			C157.6,138.9,157.4,138.9,157.2,138.9z M220.3,138.9c-2.8-0.2-5.2-1.2-7.2-3.2c-2.1-2.1-3.2-4.8-3.2-7.8c0-3.1,1.1-5.7,3.2-7.8
			c2-2,4.4-3.1,7.2-3.2c0.2,0,0.4,0,0.6,0c3.1,0,5.7,1.1,7.8,3.2s3.2,4.8,3.2,7.8c0,3.1-1.1,5.6-3.2,7.8c-2.1,2.1-4.8,3.2-7.8,3.2
			C220.7,138.9,220.5,138.9,220.3,138.9z"/>
	</g>
</g>
<g>
	<g>
		<polygon class="st4" points="144.1,130 39.3,204.4 43.8,210.6 81.5,183.9 89.5,212.9 		"/>
		<polygon class="st0" points="47.8,154.2 72.6,171.3 34.9,198.1 39.3,204.4 144.1,130 		"/>
	</g>
</g>
</svg>
