<?xml version="1.0" encoding="utf-8"?>
<!-- Generator: Adobe Illustrator 16.0.0, SVG Export Plug-In . SVG Version: 6.00 Build 0)  -->
<!DOCTYPE svg PUBLIC "-//W3C//DTD SVG 1.1//EN" "http://www.w3.org/Graphics/SVG/1.1/DTD/svg11.dtd">
<svg version="1.1" id="Layer_1" xmlns="http://www.w3.org/2000/svg" xmlns:xlink="http://www.w3.org/1999/xlink" x="0px" y="0px"
	 width="595.301px" height="459px" viewBox="0 199.45 595.301 459" enable-background="new 0 199.45 595.301 459"
	 xml:space="preserve">
<g>
	<path fill="#FFFFFF" d="M473.4,313.3c12.101,0,23.7,1.5,34.8,4.5c12.601,3.3,23.801,8.3,33.601,15c5,3.4,9.2,7,12.7,10.7
		c1.6,1.8,3.3,3.7,5,5.9c1.199,1.7,2.6,3.8,4.1,6.3c2.4,4.4,4.1,8.8,5.1,13.2c0.601,2.8,1,5,1,6.7c0.101,2.5,0.101,4.8-0.1,6.8
		c-0.4,4.6-1.4,9-3.1,13.3c-1.4,3.8-3.801,8-7.2,12.5c-1.9,2.6-3.9,4.8-5.9,6.7l-0.8,0.8l0.8,0.7c0.8,0.6,1.8,1.6,3.1,2.8
		c2.9,3.1,5.2,6.2,6.9,9.1c1.8,3.2,3.2,6.5,3.9,9.9c0.399,2.1,0.7,3.8,0.7,5.1c0.1,1.9,0.1,3.601-0.101,5.2
		c-0.3,3.6-1.2,6.9-2.6,10.1c-0.8,1.801-1.601,3.4-2.5,4.801c-0.9,1.399-2,3-3.2,4.699c-4.7,6.101-11.1,11.2-19.2,15.4l-4.2,2
		l0.301,1c1.6,4,2.5,8.4,2.8,13.1c0.2,4.801-0.3,9.4-1.4,13.7c-1.3,4.7-3.2,9.101-5.8,13.3c-1.5,2.4-3,4.5-4.4,6.301
		c-1.399,1.8-3.3,3.699-5.399,5.899c-1.9,1.9-3.9,3.7-6.301,5.601c-1.8,1.399-4.199,3.1-7.199,5.1c-2.601,1.7-5.2,3.2-7.801,4.5
		c-3.399,1.7-6.3,3-8.6,4c-5.6,2.4-11.8,4.4-18.5,6.1c-6.3,1.601-12.9,2.7-19.9,3.4c-4.5,0.4-9.1,0.7-13.8,0.7
		c-2.3,0-4.399-0.101-6.5-0.2c-4-0.2-8.6-0.6-13.8-1.2l-1.4-0.3l-0.8,0.9c-1.5,1.8-3.2,3.6-5.1,5.199c-3.601,3-7.101,5.5-10.7,7.4
		c-3.8,2.2-8,4.1-12.7,5.8c-4.899,1.7-9.7,3-14.399,3.9c-5,1-10.101,1.6-15.301,1.8c-2.1,0.1-4.1,0.2-6.199,0.2l-1.5-0.101
		c-2.5,0-5.101-0.1-7.801-0.399c-10.3-0.8-19.899-3-28.699-6.601L311.5,583l-1.199,0.5c-7.801,3.7-16.4,5.6-25.801,5.8H282.1
		c-2.7,0-5.4-0.1-8-0.399c-1.4-0.101-3.101-0.4-5-0.7l-7.301-1.8c-1-0.301-1.8-0.601-2.3-0.801c-1.5-0.5-3-1.1-4.399-1.699
		c-2.7-1.2-5.301-2.7-7.801-4.301c-3-2.1-5.5-4.399-7.399-7l-1-1.199L237,572c-7.3,2.6-14.899,4.5-22.899,5.7
		c-6.301,1-13.101,1.5-20.4,1.6h-0.5c-7,0-13.7-0.399-20.2-1.3c-7.1-1-13.8-2.3-20-4.1c-3.3-0.9-6.399-1.9-9.5-3.101
		c-2.7-1-5.7-2.3-8.8-3.7c-1.8-0.8-4.6-2.199-8.3-4.199c-2.2-1.301-4.7-2.9-7.5-4.9c-2.601-1.9-4.8-3.7-6.7-5.3
		c-2.1-1.8-4-3.7-5.9-5.8c-3.399-3.5-6.3-7.601-8.8-12.4c-2.3-4.3-3.8-8.6-4.7-13.2C92,516.5,91.9,512,92.5,507.9
		c0.601-3.9,1.601-7.4,2.9-10.601l0.5-1.3l-2-0.3c-12.3-2.101-22.9-6-31.7-11.9c-3.3-2.1-6.4-4.6-9.2-7.3c-2.5-2.5-4.8-5.4-6.7-8.5
		c-1.6-2.8-2.899-5.8-3.899-9c-0.7-2.9-1-6-0.9-9.4c0.2-3.3,0.9-6.3,2.101-9.1c1.399-3.3,3-6.2,4.8-8.6c1.5-2,3.3-4,5.399-5.9
		l0.801-0.7l-0.801-0.8c-2.399-2.4-4.3-4.7-5.6-6.9c-3.8-5.699-5.7-11.8-5.6-18.3c0.1-6.6,2.3-12.7,6.399-18.5
		c1.9-3,4.4-5.7,7.3-8.3c2.7-2.4,5.9-4.8,9.7-7.1c3.4-1.9,7.3-3.8,11.5-5.5c3.7-1.4,8-2.6,12.9-3.7l1.7-0.4l-0.4-1.2
		c-3.8-10.3-4-20.6-0.4-30.9c1.5-4.5,3.9-9.2,7.2-14.1c3.601-4.9,7.5-9.2,11.7-12.9c5.1-4.4,10.2-8.1,15.5-11.1
		c2.9-1.7,5.9-3.2,8.9-4.7c2.899-1.4,6.1-2.7,9.8-4.1c3.1-1.2,6.5-2.3,10.2-3.4c3.699-1,7.3-1.9,10.8-2.6c4.3-0.9,8-1.5,11-1.9
		c3.5-0.5,7.3-0.9,11.399-1.2c3.601-0.3,7.301-0.4,11.101-0.4s7.6,0.1,11.399,0.4c7.301,0.5,14.601,1.5,22,3.1
		c7.7,1.7,14.4,3.7,20.2,6c2,0.8,4.601,1.9,7.9,3.4l1.7,0.7l1.1-1.2c2.3-2.2,4.5-4.1,6.8-5.8c4.9-3.7,10.3-7,16-9.8
		c5.101-2.6,11.5-5.1,19.101-7.5c7.2-2.1,14.2-3.6,21.2-4.7c7.6-1.1,15-1.6,22.2-1.6h1.1c3.8,0,7.2,0.1,10.2,0.3
		c2.899,0.2,6.6,0.5,11.1,1.1c3.8,0.5,7.4,1.1,10.9,1.8c3.6,0.7,7.1,1.6,10.6,2.5c3.8,1,7.101,2.1,10.101,3.3
		c2.199,0.8,5.399,2.1,9.6,3.9c6,2.8,11.5,5.9,16.7,9.6c4.8,3.3,9.2,7.1,13.399,11.5c4,4.4,7.101,8.8,9.2,13
		c2.5,4.9,4.101,9.5,4.8,13.8l0.2,0.9v0.6l0.2,1.5l2.3-0.3C463.2,313.5,468.001,313.3,473.4,313.3z"/>
	<path d="M517.6,331.8c-3.9-2.1-8.9-4.2-14.9-6.4c-5.5-1.9-11-3.4-16.5-4.5c-5.6-1.3-11.5-2.1-17.7-2.6
		c-4.199-0.5-8.699-0.7-13.6-0.7l-2.2-4c5.5-0.9,10.9-1.4,16.101-1.5c6.6-0.2,13.399,0.1,20.3,0.7c7,0.9,13.6,2.1,19.8,3.7
		c6,1.6,12.1,3.7,18.3,6.4c6,2.7,11.3,5.6,16,8.9c5.2,3.6,9.5,7.2,12.9,10.9c3.9,4.1,7,8.3,9.2,12.5c2.6,4.5,4.399,9,5.3,13.4
		c1.1,4.8,1.4,9.3,1,13.8c-0.3,4.4-1.3,9-3.2,13.6c-1.6,4.2-4.1,8.4-7.4,12.8c-3.199,4.3-6.899,8-11,11.3l-2.899,2.2
		c-0.2-0.5-0.601-1-1.101-1.6c-0.8-1-1.3-1.5-1.3-1.601c-0.1-0.5-0.399-1-0.899-1.6c-0.801-1-2-1.4-3.601-1.4
		c3.3-3.5,6-7.199,8.2-11.1c1.8-3.3,3.4-7.1,4.7-11.4c1-3.8,1.5-7.7,1.5-11.6c0-1.7-0.2-3.7-0.5-5.8c-0.2-1.7-0.6-3.6-1.1-5.7
		c-1-4-2.601-7.7-4.7-11.2c-1-1.7-2.2-3.4-3.601-5.2c-1-1.4-2.3-3.1-4.1-5.1c-3.2-3.4-6.6-6.5-10.5-9.3
		C525.7,336.4,521.501,333.7,517.6,331.8z"/>
	<path d="M394.1,270c-3-1-5.9-1.9-8.6-2.6c-6-1.5-12-2.7-18.101-3.4c-3.2-0.4-6.3-0.7-9.3-0.8c-2.1-0.2-5.3-0.3-9.5-0.4
		c-6.6,0-12.8,0.4-18.8,1.1c-7.5,1-13.601,2-18.4,3.3c-5.3,1.3-11.101,3.1-17.3,5.4c-5.8,2.2-11,4.6-15.601,7.4
		c-4.5,2.4-8.5,5.1-12.2,8.1c-5.899-1.8-9.3-2.8-10.199-3.1c3.6-4.2,7.699-8.1,12.3-11.7c5.2-3.8,10.7-7.2,16.399-10
		c5.101-2.6,11.601-5.1,19.4-7.5c7.9-2.3,15.101-3.9,21.601-4.8c7.7-1.1,15.3-1.7,22.6-1.7c3.2,0,7.101,0,11.5,0.3
		c3.5,0.3,7.3,0.7,11.3,1.2c7.5,1,14.8,2.5,21.8,4.5c3.4,0.9,6.801,2,10.4,3.3c3.1,1.1,6.3,2.5,9.7,4c6.5,3,12.2,6.3,17.1,9.7
		c4.8,3.3,9.3,7.2,13.7,11.8c4.3,4.8,7.5,9.2,9.4,13.3c2.7,5.2,4.3,9.9,4.899,14c1.8,9.9,0.4,19.2-4.3,27.8c0.5-9-1.2-17.8-5.2-26.3
		s-9.899-16.1-17.899-22.9c-3.601-3.1-8-6.2-13-9.2c-4.9-2.9-10-5.5-15.3-7.5C399.6,271.8,396.801,270.8,394.1,270z"/>
	<path d="M538.7,485.8c1.601,3.8,2.601,8.4,3.101,13.8c0.1,5.101-0.4,9.801-1.5,14c-1.4,5.101-3.4,9.601-6,13.601
		c-2.8,4.5-6.101,8.7-10,12.5c-4.2,4-8.8,7.6-13.8,10.8c-2.5,1.7-5.2,3.3-8,4.7c-2.7,1.399-5.7,2.8-8.7,4.1
		c-11.9,5.101-25,8.3-39.2,9.7c-15.101,1.5-29.8,0.7-44.2-2.5c0.7-0.6,1.3-1.5,1.9-2.7c0.6-1.6,1.1-2.6,1.3-2.899
		c12.899,1,25.5,0.3,37.7-1.801c5.199-0.899,10.8-2.3,16.6-4.1c5.4-1.7,10.5-3.7,15.3-6c2.9-1.5,5.2-2.7,6.9-3.7
		c1.899-1.1,4-2.399,6.399-3.899c4-2.7,7.601-5.7,10.9-9.101c1.4-1.3,2.8-3,4.4-5c1.199-1.399,2.5-3.2,3.8-5.2
		c2.3-3.399,4-7.1,5.3-11.1c1.4-4.2,2.2-8,2.4-11.5c0.3-3.4,0-7.3-0.801-11.7l-0.399-1.6L524,485.6c1.7-0.3,2.9-0.7,3.7-1.2
		c0.3-0.1,0.8-0.6,1.601-1.399c3.199-1.601,5.3-2.9,6.3-3.9C536.801,481.2,537.9,483.4,538.7,485.8z"/>
	<path d="M97.6,360.4l-3.9,1.1c-7.8,2.4-14.6,5.5-20.2,9.3c-6.2,4.3-10.8,8.7-13.8,13.3c-1.8,2.7-3.1,5.2-3.9,7.7
		c-1,2.4-1.5,5-1.699,8c-0.2,3.101-0.101,5.8,0.3,8.101c0.5,2.6,1.399,5.3,2.7,7.899c1.1,2.5,2.699,5.101,4.699,7.7
		c1.7,2.3,4,4.6,6.801,7.1c4.899,4.301,11.199,8.301,19,11.7c-8.4-1.3-16.4-4.1-24.2-8.5c-3.601-2.2-6.8-4.6-9.7-7.1
		c-2.7-2.5-5.1-5.3-7.2-8.3c-1.899-2.601-3.3-5.7-4.3-9.2c-1-3.601-1.5-6.9-1.4-9.7c0.101-3.2,0.7-6.4,1.7-9.7
		c0.5-1.7,1.2-3.3,2-4.8c0.9-1.7,1.8-3.2,2.8-4.5c2-2.9,4.5-5.7,7.5-8.5c1.5-1.4,3-2.7,4.601-3.8c1.899-1.4,3.7-2.5,5.3-3.5
		c3.6-2.1,7.6-4,11.8-5.7c3.5-1.4,7.9-2.7,13.4-3.9c2.6-0.5,4.7-0.9,6.3-1.1C96.2,356.4,96.7,358.5,97.6,360.4z"/>
	<path d="M493.801,397.8c9-1,18.7-0.399,29,1.9c5,1.2,9.6,2.6,13.899,4.3c4.5,1.9,8.5,4,12,6.4c7.5,4.8,13.101,10.6,16.9,17.399
		c3.8,6.7,5.4,13.601,4.6,20.7c-0.3,3.7-1.199,7.2-2.699,10.4c-1.2,3.199-3.101,6.399-5.801,9.8c-2.3,2.899-5.1,5.8-8.6,8.6
		c-3.1,2.5-6.9,4.9-11.2,7.2c-7.899,4.3-17,7.2-27.3,8.8c-10.3,1.601-19.9,1.601-29,0c9.3-0.6,18.1-2.1,26.4-4.7
		c8.3-2.5,15.5-5.899,21.6-10c6.2-4.199,11-8.899,14.6-14.199c3.601-5.7,5.5-11.2,6-16.5c0.101-3.101,0-5.9-0.5-8.4
		c-0.5-2.6-1.399-5.4-2.899-8.3c-1.601-3.101-3.2-5.7-4.9-7.9c-1.7-2.1-4.1-4.5-7.1-7.2c-2.601-2.199-5.601-4.3-9-6.199
		c-3.2-1.9-6.8-3.7-10.7-5.301C511.9,401.5,503.4,399.3,493.801,397.8z"/>
	<path d="M313.2,576.6c3,1.101,5.301,1.9,6.801,2.301c8.5,2.5,17,3.899,25.5,4.199c9.5,0.301,18-0.3,25.6-2
		c4.1-0.899,8.1-1.899,12-3.3c3.9-1.3,7.5-2.8,10.9-4.6c4-2.2,7.199-4.101,9.6-5.8c2.2-1.601,4.8-3.9,7.9-7
		c2.5-2.801,4.5-5.4,5.899-7.801c1.601-2.5,2.9-5.3,3.9-8.5c1.8-5.699,2.1-11.699,0.899-18.199c4.5,5.3,6.9,11.6,7.101,18.8
		c0,3.3-0.5,6.7-1.5,10.1c-1.3,3.5-3,6.7-5,9.7c-4.4,6.3-10.8,11.8-19.101,16.6c-8.3,4.7-17.6,8-27.8,10c-5,1-10.2,1.601-15.7,1.9
		s-10.8,0.2-15.899-0.3c-10.5-0.8-20.4-3.101-29.5-6.8c-3.3-1.301-6.5-2.801-9.601-4.601l0.7-0.2l0.8-0.5
		C309.6,579,311.801,577.7,313.2,576.6z"/>
	<path d="M234.5,566.3c1.7,0.5,3.3,0.2,4.601-0.8c3.399,4.2,7.699,7.7,13,10.6c4.699,2.4,9.699,4.2,15.199,5.301
		c6,1.199,11.601,1.699,16.801,1.399c5.699-0.2,11.199-1.1,16.399-2.6c5.3-1.5,10.001-3.601,14.2-6.3
		c1.801-1.101,3.7-2.601,5.7-4.301c1.8-1.699,3.3-3.399,4.4-5c1.399-1.899,2.5-3.699,3.3-5.5l1.7-6c2,3.9,2.3,8.301,0.8,13
		c-0.7,2.101-1.8,4.301-3.3,6.4c-1.4,1.9-3.2,3.9-5.4,5.9c-4.3,3.699-9.8,6.699-16.4,8.899c-6.6,2.2-13.6,3.4-20.8,3.601
		c-3.399,0.1-7,0-10.899-0.5c-2.301-0.301-4.101-0.5-5.2-0.801L263.5,588.4l-9.3-3.301c-2.8-1.3-5.5-2.8-8-4.5
		C240.3,576.6,236.4,571.8,234.5,566.3z"/>
	<path d="M232.9,269.7c7.7,1.6,14.6,3.6,20.7,6c6.8,2.7,12.8,5.6,18,8.7c11.5,6.9,19.699,14.7,24.699,23.3
		c-8.699-7.2-18.899-13.3-30.5-18.1c-11.6-4.8-23.8-8.1-36.8-9.8c-5.899-0.8-12.399-1.3-19.5-1.4c-6.6-0.1-13.1,0.2-19.399,0.9
		c-3.101,0.4-6.2,0.8-9.5,1.4l-9.2,1.8c-6.2,1.4-12,3.2-17.5,5.3c-2.8,1.1-5.5,2.3-8.101,3.5c-2.399,1-4.899,2.3-7.6,3.9
		c-4.9,2.7-9.4,5.7-13.5,9.1c-4.4,3.6-8,7.1-11,10.6c-2.7,3.1-5.3,7-7.9,11.7c-2.1,4-3.699,8.2-4.6,12.6c-1.1,4.3-1.5,8.6-1.3,13.2
		c0.2,8.6,2.8,17.5,7.7,26.6c-8.9-7-15.101-15.6-18.5-25.8c-1.4-4.7-2.2-9.6-2.4-14.8c0.2-5.2,1.1-10.2,2.7-14.9
		c1.399-4.4,3.8-9.2,7.399-14.4c3.5-4.9,7.4-9.3,11.801-13.2c4.899-4.3,10.199-8,15.8-11.3c2.899-1.7,6-3.3,9.1-4.8
		c3.2-1.4,6.5-2.8,9.9-4.1c6.899-2.5,14-4.6,21.399-6.1c3.801-0.8,7.5-1.5,11.2-2s7.601-0.8,11.601-1.1
		c7.899-0.5,15.6-0.5,22.899-0.1C217.7,267,225.1,268,232.9,269.7z"/>
	<path d="M40.6,459.3c-0.801-2.899-1.101-6.1-0.9-9.6c0.2-6.2,2.5-12.3,7-18.2c2.3-3,5.2-5.9,8.5-8.5l0.9,0.9
		c0.5,0.5,1,0.8,1.3,0.899c-5.9,8-8.4,16.2-7.4,24.601c0.8,5.699,2.9,10.899,6.4,15.699c3.8,5.2,8.5,9.601,14.1,13.2
		c3.101,1.9,6.3,3.601,9.601,5c3.399,1.5,7,2.8,10.8,3.9c4,1.1,7.899,2,11.6,2.5c-1.2,2.8-2.1,5.5-2.7,8.1
		c-5.5-0.6-10.1-1.399-14-2.399c-4.6-1.2-9-2.7-13.3-4.5c-2-0.801-4-1.7-6.1-2.801c-1.601-0.899-3.5-2-5.5-3.3
		c-3.4-2.3-6.601-4.8-9.5-7.6c-1.8-1.8-3-3.2-3.8-4.2c-1.2-1.6-2.301-3.1-3.101-4.5C42.9,465.8,41.5,462.7,40.6,459.3z"/>
	<path d="M194.5,568.6c5.101,0.2,11,0.101,17.7-0.3c5.8-0.399,11.7-1.2,17.6-2.399c5.7-1.101,11.301-2.601,16.801-4.4
		c10.8-3.5,20.899-8.4,30.1-14.6c-5,7.6-13.2,14.399-24.6,20.5C241,573.1,228.6,577,214.8,579.1c-6.1,1-13.1,1.601-21,1.7
		c-7.8,0-14.899-0.399-21.199-1.3c-7.5-1-14.2-2.4-20.301-4.2c-6.899-2-13.1-4.3-18.699-6.899c-6-2.801-11.301-5.9-16.101-9.301
		c-2.5-1.8-4.8-3.6-6.899-5.399c-2.2-1.9-4.2-3.9-6-5.8C97.1,539.8,92.5,531.1,90.7,521.8c-1.7-9.1-0.5-18.1,3.7-26.899
		C98.6,486.1,105.3,478.6,114.3,472.5c-5.6,7.6-9.1,15.4-10.6,23.6c-1.4,8.101-0.7,16.101,2.2,23.801c1.3,3.399,3.3,7.1,5.899,11.1
		c2.301,3.4,5.101,6.8,8.601,10.2c1.399,1.399,3.2,2.899,5.3,4.6l6,4.3c4.4,2.9,8.8,5.4,13.4,7.4c2.699,1.2,5.199,2.2,7.5,3.1
		c2.899,1.101,5.5,1.9,7.8,2.601c5.5,1.7,11,2.899,16.5,3.8C183.5,567.8,189.3,568.4,194.5,568.6z"/>
</g>
<g>
	<path d="M27.5,588.3c1-4.7,1.601-7.399,1.8-8.1l-9.6-9.9l16.1-3l6.2-13.5l6.4,13.101c1.399,0,6.3,0.199,14.899,0.5
		c-5.8,5.3-9.1,8.399-10.1,9.199l7.7,16.301l-18.3-6.7L26.3,595C26.6,592.9,27,590.6,27.5,588.3z M33.4,579.1l-0.3,0.7
		c-1,2.7-1.7,4.8-2.2,6.3c-0.4,1.301-0.7,2.7-1.2,4.101c1.7-1,3.4-2,5-3c1.8-1.101,4-2.601,6.8-4.5l0.5-0.4l0.5,0.3
		c2.2,1,4.9,2.301,8.2,3.801c1.9,0.8,3.9,1.699,5.9,2.5L54.3,584c-1.5-3.2-2.699-5.6-3.5-7.2L50.4,576l0.7-0.5
		c1.5-1.1,3.1-2.4,4.899-3.9c1.2-0.899,2.3-1.899,3.4-2.8l-4.9-0.1c-3.3,0-5.5,0-6.7,0h-0.6l-0.3-0.601c-1.9-3.8-3.5-7-4.9-9.6
		c-0.8,1.8-1.5,3.3-2,4.5l-1.3,3.2c-0.6,1.7-1,2.8-1.2,3.2l-0.2,0.699L24.4,571.6L33.4,579.1z"/>
	<path fill="#FFCC00" d="M33.4,579.1l-9-7.6L37.3,570l0.2-0.7c0.2-0.399,0.5-1.5,1.2-3.2L40,562.9c0.5-1.2,1.2-2.7,2-4.5
		c1.4,2.699,3.101,5.899,4.9,9.6l0.3,0.6h0.6c1.2,0,3.5,0,6.7,0l4.9,0.101c-1.101,1-2.2,1.899-3.4,2.8c-1.8,1.5-3.399,2.8-4.899,3.9
		l-0.7,0.5l0.399,0.8c0.801,1.6,1.9,4,3.5,7.2L56.6,588.8c-2-0.8-3.9-1.6-5.9-2.5c-3.3-1.5-6-2.7-8.2-3.8l-0.5-0.3l-0.5,0.399
		c-2.7,1.9-5,3.4-6.8,4.5c-1.6,1-3.2,2-5,3c0.4-1.5,0.8-2.8,1.2-4.1c0.5-1.5,1.2-3.6,2.2-6.3L33.4,579.1z"/>
</g>
<g>
	<path fill="#FFCC00" d="M558.001,262.7c-5.9,2.8-10.601,4.7-14.101,5.9c2,7,4.3,15.2,6.9,24.6c-2.2-1.8-4.8-3.9-7.601-6.4
		c-5.6-4.9-9.8-9.1-12.6-12.6l-24.2,13.5c1.4-2.3,3.101-5,5.101-8.1c3.899-6.3,7.5-11.4,10.699-15.5c-3.199-3-6.6-6.5-10.3-10.6
		l-4.5-5.3l6.2,1.4c5.1,1.3,10.1,2.4,15,3.4c1.1-2.5,2.7-5.3,4.5-8.6c2.3-3.8,4.1-6.7,5.2-8.7c0.899,4,1.5,7.4,1.899,10.2
		c0.301,2.5,0.5,5.1,0.5,8l25,5C563.6,260.1,561.001,261.3,558.001,262.7z"/>
	<path d="M538.301,248.9c-0.2-2.3-0.7-4.9-1.3-7.9c-3.7,6-6.301,10.7-7.801,14.1l-0.5,1.2l-1.199-0.3c-7-1.5-12.7-2.8-17-3.9
		c1.899,2.2,5.8,6.5,11.699,13l-12.399,20.5l20.6-11.5l0.8,1c3.5,4.3,9.101,9.6,16.601,16c-2.101-7.7-4-14.5-5.8-20.2l-0.4-1.4
		l1.4-0.5c4.6-1.5,10.6-4.1,18-7.8c-11.5-2.3-18.5-3.7-21-4.2l-1.2-0.3v-1.2C538.7,253.1,538.501,250.9,538.301,248.9z
		 M502.001,248.6l1.6-1.3l22.8,4l10.9-17.6l1.1,0.3l3.3,20.2l26,5.3l-0.6,2.1c-10.4,5.1-17.6,8.3-21.8,9.8
		c1.8,6.2,4.1,14.4,6.899,24.6l-1.8,1.1l-20.399-17.8l-18.7,10.4l-8.5,2.2c-0.101-0.1-0.2-0.4-0.4-0.6l13.7-25.5L502.001,248.6z"/>
</g>
</svg>
