<?xml version="1.0" encoding="utf-8"?>
<!-- Generator: Adobe Illustrator 20.0.0, SVG Export Plug-In . SVG Version: 6.00 Build 0)  -->
<svg version="1.1" id="Layer_1" xmlns="http://www.w3.org/2000/svg" xmlns:xlink="http://www.w3.org/1999/xlink" x="0px" y="0px"
	 viewBox="0 0 200 200" style="enable-background:new 0 0 200 200;" xml:space="preserve">
<style type="text/css">
	.st0{fill:#e6271e;}
	.st1{fill:#FFFFFF;}
</style>
<g>
	<g>
		<path class="st0" d="M100,15c-0.3,0-0.7,0-1,0c-23.2,0-44.3,9.2-59.8,24.2C24.2,54.7,15,75.7,15,99c0,39.5,26.6,72.7,62.9,82.8
			c7.1,2,14.5,3.1,22.1,3.2c0.3,0,0.7,0,1,0c23.2,0,44.3-9.2,59.8-24.2c13.1-13.6,21.9-31.5,23.8-51.4c0.3-2.8,0.4-5.6,0.4-8.4
			C185,53.8,147,15.6,100,15z"/>
	</g>
</g>
<path class="st1" d="M139.7,118.8l-21.5-18.6l21.5-18.6c3.2-2.7,4.2-6.5,2.3-8.5l-9.1-9.5c-1.9-2-5.9-1.3-9.1,1.4l-23.2,20L77.6,65
	c-3.2-2.7-7.2-3.4-9.1-1.4l-9.1,9.5c-1.9,2-0.8,5.8,2.3,8.5l21.5,18.6l-21.5,18.6c-3.2,2.7-4.2,6.5-2.3,8.5l9.1,9.5
	c1.9,2,5.9,1.3,9.1-1.4l23.2-20l23.2,20c3.2,2.7,7.2,3.4,9.1,1.4l9.1-9.5C143.9,125.4,142.9,121.6,139.7,118.8z"/>
</svg>
