<?xml version="1.0" encoding="utf-8"?>
<!-- Generator: Adobe Illustrator 20.0.0, SVG Export Plug-In . SVG Version: 6.00 Build 0)  -->
<svg version="1.1" id="flash0.ai" xmlns="http://www.w3.org/2000/svg" xmlns:xlink="http://www.w3.org/1999/xlink" x="0px" y="0px"
	 viewBox="0 0 300 250" style="enable-background:new 0 0 300 250;" xml:space="preserve">
<style type="text/css">
	.st0{fill:#5A5A5A;}
	.st1{fill:none;}
	.st2{fill:#19191C;}
	.st3{opacity:0.5;enable-background:new    ;}
	.st4{fill:#444248;}
	.st5{fill:#322F37;}
	.st6{fill:#2A282F;}
	.st7{fill:#5E5E63;}
	.st8{fill:#ED8707;}
	.st9{fill:#EFAB18;}
	.st10{fill:#D68E0D;}
	.st11{fill:#FFD833;}
	.st12{fill:#C42535;}
	.st13{fill:#FFDBBB;}
	.st14{opacity:0.4;fill:#F9D0AF;enable-background:new    ;}
	.st15{opacity:0.2;fill:#913916;enable-background:new    ;}
	.st16{fill:#F9D0AF;}
	.st17{fill:#F2E7DB;}
	.st18{fill:#E5393B;}
</style>
<g>
	<g>
		<g>
			<polygon class="st0" points="136.2,125 189,108.7 189.8,111.6 137,127.9 			"/>
		</g>
	</g>
	<g>
		<g>
			<g>
				<line class="st1" x1="116.6" y1="17" x2="115.9" y2="14"/>
			</g>
			<g>
				<line class="st1" x1="119.6" y1="29" x2="118.9" y2="26"/>
			</g>
			<g>
				<line class="st1" x1="122.7" y1="41" x2="121.9" y2="38.1"/>
			</g>
			<g>
				<line class="st1" x1="125.7" y1="53.1" x2="125" y2="50.1"/>
			</g>
			<g>
				<line class="st1" x1="128.7" y1="65.1" x2="128" y2="62.1"/>
			</g>
			<g>
				<line class="st1" x1="131.8" y1="77.2" x2="131.1" y2="74.2"/>
			</g>
			<g>
				<line class="st1" x1="134.8" y1="89.2" x2="134.1" y2="86.2"/>
			</g>
		</g>
		<g>
			<g>
				<polygon class="st0" points="195.5,105.1 142.7,122.2 142,119.2 194.7,102.1 				"/>
			</g>
		</g>
		<ellipse class="st2" cx="143.4" cy="121.7" rx="70.4" ry="25.3"/>
		<polygon class="st2" points="82.6,54.4 73,121.7 213.8,121.7 205.7,54.4 		"/>
		<path class="st3" d="M78.1,96.3c38.9,1.9,68.5,12.1,100.6,46c11-2.1,24.8-8.7,34.9-14.7l-7.7-59.6c-42.4,1.8-82.6-0.7-123.3-13.7
			L78.1,96.3z"/>
		<polygon class="st4" points="34.1,47.1 139.1,14.3 253.7,48.6 139.1,92.9 		"/>
		<polygon class="st5" points="139.1,103.8 139.1,92.9 253.7,48.6 253.7,57.3 		"/>
		<polygon class="st6" points="34.1,57.6 139.1,103.8 139.1,92.9 34.1,47.1 		"/>
		<path class="st7" d="M85,63.7c46,25.7,94.4,11.3,121.7-3c-19.1,11.6-53.1,24.2-68.6,26.6L85,63.7z"/>
		<ellipse class="st8" cx="28.2" cy="80.4" rx="6.4" ry="7.4"/>
		<path class="st9" d="M30,86.4c-8.9-1.8-14.5,9.3-16,17.7c-0.9,4.9,0.5,11.1-0.9,15.8c-1.3,4.7-5.6,8.6-7.7,12.7
			c5.9,3,13.5,2.7,18.1-3.8c-1.5,1.7-2.5,4.3-3.6,6.2c7.2,0.2,12.2-9.8,12.2-17.2c-0.4,2.6,0.4,4.8,0.8,7.2c9-1.1,5.7-22.9,3.5-29.3
			C34.5,89.8,30,86.4,30,86.4z"/>
		<g>
			<path class="st10" d="M28.6,79.2L26.9,78c5.8-11.2,13.6-19.3,23.8-24.8c8.6-4.6,18.8-7.2,31.2-8c4.7-0.3,12.3,1,20.4,2.4
				c15.1,2.7,33.9,5.9,39.3-0.7l1.4,1.6c-6.1,7.4-24.6,4.2-41,1.3c-8-1.3-15.5-2.7-20-2.4C55.9,49.1,38.9,59.2,28.6,79.2z"/>
		</g>
		<ellipse class="st2" cx="139.1" cy="48.8" rx="7.5" ry="3.4"/>
		<path class="st8" d="M4.2,135.4c6.6-1.3,13.6-6.6,15.9-12.8c0.1,0.6,0.1,2,0.1,2.6c4.7-0.3,7-7.1,7.9-11.8
			c-0.4-0.9,1.2,1.6,1.4,1.9c4.3-4.7,4.7-16.6,2.9-22.9c4.6,7,11.6,28.3,0.8,35.1c-0.5-1.2-1.7-2.3-2-3.7
			c-1.1,7.2-5.7,13.9-11.6,15.7c1.2-2.4,1.5-4.8,2-7.2c-2,3.7-5.7,4.7-9.3,3.9L4.2,135.4z"/>
		<ellipse class="st9" cx="27.7" cy="78.6" rx="4.1" ry="4.8"/>
		<path class="st11" d="M24.4,93.5c-4.6-2.1-6.1,8.2-6.4,13.1c4.4,1.9,9.4-3.4,8.3-8.8C26,96.8,25.3,94,24.4,93.5z"/>
	</g>
	<g>
		<g>
			<g>
				<path class="st12" d="M85,151"/>
			</g>
		</g>
		<path class="st12" d="M226.8,165.9c-1.8,13.4,27.5,18.4,40.6,19.7c-4.9,1.3-10.8,2.7-16.9,3c2.6,1.3,4.1,5.1,6.1,6.4
			c-15.6,1.9-41.6-10.1-41.9-24.7L226.8,165.9z"/>
		<path class="st12" d="M221.4,171.3c-11.9,3.9-5.2,22.7-1.5,30.7c-2.9-2.3-10.4-4.9-10.4-4.9s-5.5,0.7-5.9,2.3
			c-7.3-8.3-0.7-24.9,11.4-30.4L221.4,171.3z"/>
		<path class="st13" d="M103.4,149.1c0,0-10,20.4,2.2,38.2s30.9,25.3,38.7,24.8s11.6-4.3,11.6-4.3s44.4-28.1,59.4-36.4
			c12.2-6.8,49.4-23.6,49.4-23.6s-12.3-6.8-17.8-18c-5.5-11.3-5-29.7-5-29.7S221,122.7,190,132.3C159,141.9,103.4,149.1,103.4,149.1
			z"/>
		<path class="st14" d="M139.7,150.2c-5.4-0.8-15.5-0.1-22,5.9c-5.5,5.1-7.4,12.4-3.9,22c4.6,12.7,15.6,22.9,29.8,20.1
			c17-3.3,25-20.1,18.7-33.2C158.4,156.7,147.1,151.3,139.7,150.2z"/>
		<path class="st15" d="M165.1,157.5c-10.1-1.2-17.2,0-27.6,7.6c-8.3,6.1-13,20.9-2.6,33.1c-17.4-7.7-21.9-21.6-20.6-30.9
			c2.1-15.4,20.2-21.2,30.6-20.6L165.1,157.5z"/>
		<path class="st16" d="M127.6,166.3c0,0,9.6-3.1,16,5c12.6,16,0,26.9,0,26.9s8.3-3,22-9.3c13.7-6.2,19.2-14,19.2-14L173,150.2
			L127.6,166.3z"/>
		<path class="st15" d="M144.9,173.7c7.3,7,6,18.1-0.1,25.2c13.2-5.7,26.6-13.6,40.5-19.9c-3-4.3-6.4-11.3-6.5-16.3L144.9,173.7z"/>
		<path class="st17" d="M127.2,151.1c0,0,20.6,5.2,29.3,20.3c12.3,21.3-0.6,36.4-0.6,36.4s45.8-29.7,74.4-44.7
			c24.6-12.9,57.8-23.7,57.8-23.7s12.7-9.7,2.5-26.3c-8.3-13.7-27.3-12.9-27.3-12.9S222.6,122.5,198,130
			C173.4,137.3,127.2,151.1,127.2,151.1z"/>
		<path class="st14" d="M288.1,139.4c-47.8,18.9-89.3,42.2-132.2,67.9c0.6-5.2,4.8-10.6,5.6-15.8c0.9-5.4-0.7-11.2-0.7-16.4
			c12.2-1.7,25.5-10,36.1-15.2c8.6-4.3,38-14.8,62.6-24.3c9.3-3.6,18.4-11.9,20.4-16.2c3.4-7.4-0.5-16.4-0.9-16
			c0,0,13.4,9.7,14.9,17.3C296.1,132.1,288.1,139.4,288.1,139.4z"/>
		<path class="st12" d="M226.9,167.2c5.5-7.4,5.7-19.4,0.2-26.6c-9.3-12-22.8-12.9-22.8-12.9s-6.4,2.1-23.3,7.4
			c22.9-9.2,50.1,16.9,32.3,39.1L226.9,167.2z"/>
		<path class="st18" d="M204.4,129.4c8,2.3,18.6,6.2,22.3,13.1c-0.8,0.4-6.2,2.4-7.2,2.7c-8.9-9.4-14.1-14.2-23.7-13.2L204.4,129.4z
			"/>
		<path class="st18" d="M225.7,174.8c6.5,4.4,13.4,8.3,19.9,12.4c-9.7,4-18.5-4.4-25.3-9.8L225.7,174.8z"/>
	</g>
</g>
</svg>
