<?xml version="1.0" encoding="utf-8"?>
<!-- Generator: Adobe Illustrator 20.0.0, SVG Export Plug-In . SVG Version: 6.00 Build 0)  -->
<svg version="1.1" id="flash0.ai" xmlns="http://www.w3.org/2000/svg" xmlns:xlink="http://www.w3.org/1999/xlink" x="0px" y="0px"
	 viewBox="0 0 55 55" style="enable-background:new 0 0 55 55;" xml:space="preserve">
<style type="text/css">
	.st0{fill:#6AB04C;}
	.st1{fill:#F9F4F4;}
</style>
<g transform="matrix( 1.4893646240234375, 0, 0, 1.4893646240234375, 287.6,-132.45) ">
	<g>
		<g id="Layer1_0_FILL">
			<path class="st0" d="M-162.1,119.9c3.5-3.5,5.2-7.7,5.2-12.6c0-4.9-1.7-9.1-5.2-12.6c-3.5-3.5-7.7-5.2-12.6-5.2
				s-9.1,1.7-12.6,5.2c-3.5,3.5-5.2,7.7-5.2,12.6c0,4.9,1.7,9.1,5.2,12.6c3.5,3.5,7.7,5.2,12.6,5.2S-165.5,123.4-162.1,119.9z"/>
		</g>
	</g>
</g>
<g transform="matrix( 1.205657958984375, 0, 0, 1.205657958984375, -41.55,237.25) ">
	<g>
		<g id="Layer1_1_FILL">
			<path class="st1" d="M44.7-186.6c-3.5,3.5-5.2,7.7-5.2,12.6c0,4.9,1.7,9.1,5.2,12.6c3.5,3.5,7.7,5.2,12.6,5.2s9.1-1.7,12.6-5.2
				c3.5-3.5,5.2-7.7,5.2-12.6c0-4.9-1.7-9.1-5.2-12.6c-3.5-3.5-7.7-5.2-12.6-5.2S48.2-190,44.7-186.6z"/>
		</g>
	</g>
</g>
<g transform="matrix( 0.9219818115234375, 0, 0, 0.9219818115234375, 245.05,167.55) ">
	<g>
		<g id="Layer1_2_FILL">
			<path class="st0" d="M-223.4-164.5c-3.5-3.5-7.7-5.2-12.6-5.2c-4.9,0-9.1,1.7-12.6,5.2c-3.5,3.5-5.2,7.7-5.2,12.6
				c0,4.9,1.7,9.1,5.2,12.6c3.5,3.5,7.7,5.2,12.6,5.2c4.9,0,9.1-1.7,12.6-5.2c3.5-3.5,5.2-7.7,5.2-12.6
				C-218.2-156.8-219.9-161-223.4-164.5z"/>
		</g>
	</g>
</g>
<g transform="matrix( 0.6382598876953125, 0, 0, 0.6378936767578125, 99.8,57.65) ">
	<g>
		<g id="Layer1_3_FILL">
			<path class="st1" d="M-100.7-34.8c3.5-3.5,5.2-7.7,5.2-12.6s-1.7-9.1-5.2-12.6c-3.5-3.5-7.7-5.2-12.6-5.2
				c-4.9,0-9.1,1.7-12.6,5.2c-3.5,3.5-5.2,7.7-5.2,12.6s1.7,9.1,5.2,12.6c3.5,3.5,7.7,5.2,12.6,5.2
				C-108.3-29.6-104.1-31.3-100.7-34.8z"/>
		</g>
	</g>
</g>
<g transform="matrix( 0.7042236328125, 0, 0, 0.7042236328125, 131.7,122.8) ">
	<g>
		<g id="Layer1_4_FILL">
			<path class="st0" d="M-141.6-141.7c-1.7-1.7-3.9-2.6-6.3-2.6c-2.5,0-4.6,0.9-6.3,2.6c-1.7,1.7-2.6,3.9-2.6,6.3
				c0,2.5,0.9,4.6,2.6,6.3s3.9,2.6,6.3,2.6c2.5,0,4.6-0.9,6.3-2.6c1.7-1.7,2.6-3.9,2.6-6.3C-139-137.9-139.8-140-141.6-141.7z"/>
		</g>
	</g>
</g>
</svg>
