<?xml version="1.0" encoding="utf-8"?>
<!-- Generator: Adobe Illustrator 20.0.0, SVG Export Plug-In . SVG Version: 6.00 Build 0)  -->
<svg version="1.1" id="flash0.ai" xmlns="http://www.w3.org/2000/svg" xmlns:xlink="http://www.w3.org/1999/xlink" x="0px" y="0px"
	 viewBox="0 0 300 250" style="enable-background:new 0 0 300 250;" xml:space="preserve">
<style type="text/css">
	.st0{fill:#F7EDD1;}
	.st1{fill:#0A0B2D;}
	.st2{fill:#DB1F1F;}
	.st3{opacity:0.15;}
	.st4{fill:#1B3E75;}
	.st5{fill:#F2F2F5;}
	.st6{fill:#FFFFFF;}
</style>
<g>
	<g>
		<path class="st0" d="M107.9,47.8c-24.2-0.6-49,8.8-70.5,18.6c-3.5,1.6-6.9,3.3-10.2,5c2.8,9.2,5.7,18.5,8.5,27.7
			c3.4-1.5,6.8-3.1,10.3-4.7c22-10.2,46-19.5,65.9-33.7c24.4,0.6,49.5-5.2,73.4-9.1c4.1-0.7,8.2-1.3,12.2-2
			c-2.8-9.2-5.7-18.4-8.5-27.6c-4,0.5-8.2,1-12.3,1.7C153.5,27.6,127.6,33.7,107.9,47.8z"/>
	</g>
	<g>
		<path class="st1" d="M108.2,48.5c-4.5,1.4-7.8,3.8-7.3,5.2c0.5,1.5,4.5,1.5,9,0.1s7.8-3.6,7.4-5.1
			C116.7,47.2,112.7,47.1,108.2,48.5z"/>
	</g>
	<g>
		<path class="st2" d="M19.8,75c13.1,42.8,26.3,85.5,39.4,128.3c26.4-9.5,53.3-17,80.8-22.6c-13.1-42.8-26.3-85.5-39.4-128.3
			C73.1,58,46.2,65.5,19.8,75z"/>
	</g>
	<g class="st3">
		<path class="st4" d="M135.5,181.7c2.1-0.4,3.2-0.6,5.3-1.1c-13.1-42.8-26.3-85.5-39.4-128.3c-2.1,0.4-3.2,0.6-5.3,1.1
			C109.2,96.2,122.3,139,135.5,181.7z"/>
	</g>
	<g>
		<path class="st2" d="M116.6,47.4c13.1,42.8,26.3,85.5,39.4,128.3c25.9-10.8,52.3-19.7,79.5-26.6c-13.1-42.8-26.3-85.5-39.4-128.3
			C168.9,27.8,142.5,36.7,116.6,47.4z"/>
	</g>
	<g class="st3">
		<path class="st4" d="M155.2,176.3c2-0.9,3-1.3,5-2.1c-13.1-42.8-26.3-85.5-39.4-128.3c-2,0.8-3,1.3-5,2.1
			C128.9,90.7,142,133.5,155.2,176.3z"/>
	</g>
	<g>
		<g>
			<path class="st2" d="M99.7,52.5c13.1,42.8,26.3,85.6,39.4,128.4c8.1,0.2,11.1-0.7,17.7-5.4c-13.1-42.8-26.3-85.6-39.4-128.4
				C110.8,51.8,107.8,52.7,99.7,52.5z"/>
		</g>
	</g>
</g>
<g>
	<g>
		<polygon class="st5" points="154.6,77.6 263.1,210.1 273.9,200.9 233.8,154.1 271.3,140 		"/>
		<polygon class="st6" points="198.5,202.5 218.1,167.5 258.3,214.3 267.3,206.5 154.6,77.6 		"/>
	</g>
</g>
</svg>
