<?xml version="1.0" encoding="utf-8"?>
<!-- Generator: Adobe Illustrator 20.0.0, SVG Export Plug-In . SVG Version: 6.00 Build 0)  -->
<svg version="1.1" id="Layer_1" xmlns="http://www.w3.org/2000/svg" xmlns:xlink="http://www.w3.org/1999/xlink" x="0px" y="0px"
	 viewBox="0 0 300 250" style="enable-background:new 0 0 300 250;" xml:space="preserve">
<style type="text/css">
	.st0{fill:#2980B9;stroke:#FFFFFF;stroke-width:6;stroke-miterlimit:10;}
	.st1{fill:#BCBEA5;}
	.st2{fill:#D1D3BE;}
	.st3{fill:#373737;}
	.st4{fill:#4D4D4D;}
	.st5{fill:#FFFFFF;}
	.st6{fill:#5B7374;}
	.st7{fill:#231F00;}
	.st8{fill:#FFFFFF;stroke:#FFFFFF;stroke-miterlimit:10;}
	.st9{fill:#2D8D4A;stroke:#FFFFFF;stroke-width:5;stroke-miterlimit:10;}
	.st10{fill:#272727;}
	.st11{fill:#89897F;}
	.st12{fill:#5F5F5F;}
	.st13{fill:#C1272D;}
	.st14{fill:#EDBD3D;}
	.st15{fill:#1D6AC1;}
	.st16{fill:#E77813;}
	.st17{fill:#2D8D4A;}
	.st18{fill:#F39C12;stroke:#FFFFFF;stroke-width:6;stroke-miterlimit:10;}
	.st19{fill:#AB7F52;}
	.st20{fill:#9B6732;}
	.st21{fill:#E5D9B1;}
	.st22{fill:#F0E9D2;}
	.st23{fill:#DBCA93;}
	.st24{fill:#E5D9B2;}
	.st25{fill:#5F1B18;}
	.st26{fill:#5D0006;}
	.st27{fill:#82522D;}
	.st28{fill:#F2F2F5;}
</style>
<g>
	
		<rect x="33.1" y="55.8" transform="matrix(0.9141 -0.4055 0.4055 0.9141 -34.2433 36.8306)" class="st0" width="73.4" height="86.9"/>
	<g>
		<path class="st1" d="M74.9,78.9l-22.6,10l2.4-11.5l10.1-4.5L74.9,78.9z"/>
		
			<rect x="72.2" y="72.2" transform="matrix(0.9141 -0.4055 0.4055 0.9141 -23.7077 37.1433)" class="st1" width="7.3" height="4.6"/>
		<rect x="44.3" y="84.6" transform="matrix(0.9141 -0.4055 0.4055 0.9141 -31.11 26.9105)" class="st1" width="7.3" height="4.6"/>
		<path class="st2" d="M93.6,107.7L61,122.2c-3.6,1.6-7.7,0-9.3-3.6l-9.2-20.8c-1.6-3.6,0-7.7,3.6-9.3l32.6-14.5
			c3.6-1.6,7.7,0,9.3,3.6l9.2,20.8C98.8,101.9,97.2,106.1,93.6,107.7z"/>
		<path class="st3" d="M56.7,103.9c-1.2-2.8-1.5-5.8-1-8.6l-12,5.3l8,18c1.6,3.6,5.8,5.2,9.3,3.6l7.4-3.3l-3.2-7.2
			C61.5,110.4,58.4,107.7,56.7,103.9z M77.2,85.7c2.5,1.5,4.5,3.7,5.8,6.5c1.7,3.8,1.6,8,0,11.6l3.2,7.2l7.4-3.3
			c3.6-1.6,5.2-5.8,3.6-9.3l-8-18L77.2,85.7z"/>
		<path class="st4" d="M56.6,95.1"/>
		
			<rect x="82.2" y="90.3" transform="matrix(0.9141 -0.4055 0.4055 0.9141 -30.0039 41.9884)" class="st5" width="3.8" height="3.1"/>
		<path class="st1" d="M75.6,111.2c-7.3,3.2-15.8-0.1-19-7.3c-3.2-7.3,0.1-15.8,7.3-19s15.8,0.1,19,7.3
			C86.2,99.5,82.9,108,75.6,111.2z"/>
		<ellipse transform="matrix(0.9141 -0.4055 0.4055 0.9141 -33.7542 36.7271)" class="st6" cx="69.8" cy="98" rx="10.7" ry="10.7"/>
		<ellipse transform="matrix(0.9141 -0.4055 0.4055 0.9141 -33.7541 36.7272)" class="st7" cx="69.8" cy="98" rx="3.5" ry="3.5"/>
		<ellipse transform="matrix(0.9141 -0.4055 0.4055 0.9141 -32.4651 29.0406)" class="st6" cx="52.3" cy="91.1" rx="2" ry="2"/>
	</g>
	
		<rect x="48" y="127.9" transform="matrix(0.9141 -0.4055 0.4055 0.9141 -46.4965 45.9755)" class="st8" width="74.5" height="9.6"/>
</g>
<g>
	
		<rect x="98.6" y="21" transform="matrix(0.9962 -8.704833e-02 8.704833e-02 0.9962 -5.1006 12.0209)" class="st9" width="73.4" height="86.9"/>
	
		<rect x="101.8" y="96.4" transform="matrix(0.9962 -8.704833e-02 8.704833e-02 0.9962 -8.2808 12.4873)" class="st8" width="74.5" height="9.6"/>
	<g>
		<path class="st10" d="M144.8,48.8c-0.3,0-0.6-0.1-0.8-0.4l-12.5-16.3c-0.3-0.4-0.2-1,0.2-1.3c0.4-0.3,1-0.2,1.3,0.2l11.6,15.1
			l8.8-16.9c0.2-0.5,0.8-0.6,1.3-0.4c0.5,0.2,0.6,0.8,0.4,1.3l-9.5,18.2C145.4,48.5,145.1,48.7,144.8,48.8z"/>
		<path class="st3" d="M160,75.7c0.3,3.1-2,5.8-5.1,6l-36.2,3.2c-3.1,0.3-5.8-2-6-5.1l-2-23.2c-0.3-3.1,2-5.8,5.1-6l36.2-3.2
			c3.1-0.3,5.8,2,6,5.1L160,75.7z"/>
		<polygon class="st10" points="155.6,84.7 118.7,87.9 117.6,84.9 156.2,81.5 		"/>
		<g>
			
				<ellipse transform="matrix(0.9962 -8.704833e-02 8.704833e-02 0.9962 -4.5622 13.3566)" class="st10" cx="150.9" cy="59" rx="4.5" ry="4.5"/>
			<path class="st11" d="M154.5,58.7c0.2,2-1.3,3.7-3.3,3.9l0,0c-2,0.2-3.7-1.3-3.9-3.3l0,0c-0.2-2,1.3-3.7,3.3-3.9l0,0
				C152.5,55.2,154.3,56.7,154.5,58.7L154.5,58.7z"/>
			
				<rect x="150.1" y="55" transform="matrix(0.9962 -8.704833e-02 8.704833e-02 0.9962 -4.5622 13.3566)" class="st12" width="1.5" height="7.9"/>
		</g>
		<g>
			<path class="st10" d="M152.3,75.2c-1.2,0.1-2.4-0.3-3.3-1c-1.9-1.6-2.2-4.5-0.6-6.4c0.8-0.9,1.9-1.5,3.1-1.6
				c1.2-0.1,2.4,0.3,3.3,1c1.9,1.6,2.2,4.5,0.6,6.4C154.6,74.5,153.5,75.1,152.3,75.2z"/>
			<path class="st11" d="M154.7,73c-1.3,1.5-3.6,1.7-5.1,0.4l0,0c-1.5-1.3-1.7-3.6-0.4-5.1l0,0c1.3-1.5,3.6-1.7,5.1-0.4l0,0
				C155.7,69.2,155.9,71.5,154.7,73L154.7,73z"/>
			<rect x="148" y="69.9" transform="matrix(0.6429 -0.766 0.766 0.6429 0.1193 141.5808)" class="st12" width="7.8" height="1.5"/>
		</g>
		<g>
			
				<rect x="120.7" y="54.2" transform="matrix(0.9962 -8.704833e-02 8.704833e-02 0.9962 -5.3846 10.9772)" class="st13" width="4.9" height="26"/>
			<path class="st6" d="M114.8,56.3l2,23.2c0,0.1,0,0.2,0.1,0.3L114.8,56C114.8,56.1,114.8,56.2,114.8,56.3z"/>
			<path class="st2" d="M116.1,54.8c-0.7,0.1-1.2,0.6-1.3,1.2l2.1,23.8c0.2,0.6,0.8,1,1.4,0.9l3.5-0.3l-2.3-25.9L116.1,54.8z"/>
			
				<rect x="130.5" y="53.4" transform="matrix(0.9962 -8.704833e-02 8.704833e-02 0.9962 -5.2734 11.8229)" class="st14" width="4.9" height="26"/>
			<path class="st15" d="M142.6,52.5l-3.5,0.3l2.3,25.9l3.5-0.3c0.8-0.1,1.3-0.7,1.3-1.5l-2-23.2C144,53,143.4,52.4,142.6,52.5z"/>
			
				<rect x="125.6" y="53.8" transform="matrix(0.9962 -8.704833e-02 8.704833e-02 0.9962 -5.329 11.4001)" class="st16" width="4.9" height="26"/>
			
				<rect x="135.4" y="52.9" transform="matrix(0.9962 -8.704833e-02 8.704833e-02 0.9962 -5.2178 12.2458)" class="st17" width="4.9" height="26"/>
		</g>
	</g>
</g>
<g>
	
		<rect x="84.5" y="110.4" transform="matrix(0.966 0.2586 -0.2586 0.966 45.0059 -26.8175)" class="st18" width="79.9" height="94.5"/>
	
		<rect x="74.1" y="191.4" transform="matrix(0.966 0.2586 -0.2586 0.966 54.7325 -22.9619)" class="st8" width="81.1" height="10.4"/>
	<g>
		<g>
			
				<rect x="108.8" y="140" transform="matrix(0.2586 -0.966 0.966 0.2586 -62.8107 239.0797)" class="st19" width="31" height="40.9"/>
			<path class="st20" d="M108.6,140.2l-0.5,1.9c0.5,0.5,1.3,1.1,2.1,1.7l0.1,0.1l0.1,0c0.2,0.1,0.6,0.5,0.6,0.7c0,0,0,0.1-0.2,0.3
				c-1.1,1.4-1.4,3.1-0.9,4.7c0.4,1.3,1.5,2.3,2.7,2.7c0,0,0,0,0,0c0.2,0.1,0.4,0.1,0.6,0.1c0.7,0.1,2.9,0.3,4.4-1.2
				c0.9-0.9,1.2-2.2,1.1-3.9c0.1,0,0.1,0,0.3,0c0.6,0.2,1.3,0.7,1.7,1.6c0.4,0.9,0.2,2-0.4,3.1l-0.4,0.7c-2,3.5-4.4,7.5-3.1,10.6
				c0.4,0.9,1.3,2.1,3.4,2.7c1.8,0.5,3-0.1,3.8-0.7c3.1-2.6,2.8-9.9,2.7-11.5c0-0.5,0.1-1.9,0.8-2.6c0.2-0.2,0.5-0.4,1.1-0.4
				c0.4,0,1,0.1,1.6,0.3c1.3,0.4,2,0.9,2.2,1.2c0,0.1,0.1,0.2,0,0.6c-0.9,2.8-0.9,4.8-0.2,6.1c0.4,0.8,1.2,1.4,2.1,1.6
				c0.2,0.1,0.4,0.1,0.7,0.1c0.6,0.1,2.6,0.3,4.1-1c0.8-0.7,1.6-2,1.4-4.4c-0.1-0.7,0-1.6,0.4-2.1c0.5-0.5,1.4-0.5,1.6-0.4l0.1,0
				c2.4,0.4,4,0.4,4.9,0.3l0.6-2.3L108.6,140.2z"/>
			
				<rect x="108.2" y="144.7" transform="matrix(0.2586 -0.966 0.966 0.2586 -67.1567 237.2264)" class="st21" width="25.6" height="35.3"/>
			
				<rect x="119.1" y="144.7" transform="matrix(0.2586 -0.966 0.966 0.2586 -67.1567 237.2264)" class="st22" width="3.6" height="35.3"/>
			<g>
				<path class="st23" d="M110.1,146.2c-0.4,1.1-0.5,2.3-0.1,3.4c0.4,1.3,1.5,2.3,2.7,2.7c0,0,0,0,0,0c0.2,0.1,0.4,0.1,0.6,0.1
					c0.7,0.1,2.9,0.3,4.4-1.2c0.6-0.7,1-1.6,1.1-2.6L110.1,146.2z M127.4,151.2c0.1-0.1,0.2-0.2,0.4-0.2l-7-1.9
					c0.3,0.9,0.2,1.9-0.5,3l-0.4,0.7c-2,3.5-4.4,7.5-3.1,10.6c0.4,0.9,1.3,2.1,3.4,2.7c1.8,0.5,3-0.1,3.8-0.7
					c3.1-2.6,2.8-9.9,2.7-11.5C126.7,153.3,126.8,151.9,127.4,151.2z M140.4,155.4c0-0.3,0-0.7,0-1l-8.2-2.2
					c0.1,0.1,0.1,0.1,0.1,0.2c0,0.1,0.1,0.2,0,0.6c-0.9,2.8-0.9,4.8-0.2,6.1c0.4,0.8,1.2,1.4,2.1,1.6c0.2,0.1,0.4,0.1,0.7,0.1
					c0.6,0.1,2.6,0.3,4.1-1C139.8,159.1,140.7,157.8,140.4,155.4z"/>
			</g>
			<path class="st24" d="M116.8,159.4c-0.4,1.3-0.4,2.6,0,3.8l7.4,2c0.9-0.8,1.4-2,1.8-3.3L116.8,159.4z"/>
			<path class="st25" d="M111.2,142.4c0,0,2.5,1.4,1,3.4c-1.5,2-0.6,4.7,1.4,4.9c2,0.2,4.1-0.1,3.7-3.7c0,0-0.7-1.3,1.5-1.4
				c2.2-0.1,5.5,3,3.1,7.2c-2.4,4.1-6.3,10.2-1.2,11.6c5.2,1.4,4.4-10.6,4.4-10.6s-0.1-4.7,3.5-4.6c1.8,0,6.3,1.1,5.4,4.2
				c-0.9,3-1,5.6,1.2,5.8c0,0,4.1,0.9,3.7-3.7c-0.4-4.5,3.2-4.4,3.8-4.3c0.1,0,6,1,5.1-0.3c-0.1-0.1-38.5-10.4-38.6-10.4
				C107.9,140,111.2,142.4,111.2,142.4z"/>
			<g>
				<path class="st26" d="M131.1,125.3c0-0.6-0.2-1.4-0.8-1.8c-0.9-0.7-3.2,1.1-0.3,2.7c2.6,4.8-0.2,8.9-0.3,9l0.5,0.4l0.5,0.4
					C130.8,135.8,134.2,130.9,131.1,125.3z"/>
				<path class="st13" d="M127.8,145.7c0,0-0.1,0-0.1,0c0,0,0,0-0.1,0c0,0,0,0-0.1,0c0,0-0.1,0-0.1,0c-2.9-0.8-4.6-2.8-4.7-5.6
					c-0.1-2.7,1.3-5.3,3.2-6c0.9-0.3,1.8-0.3,2.6-0.1c0.8,0.2,1.4,0.6,1.8,0.9c0.6-0.2,1.4-0.2,2.2,0c0.9,0.2,1.6,0.8,2.3,1.6
					c1.3,1.7,1.1,4.8-0.4,7C133,145.6,130.6,146.4,127.8,145.7z"/>
			</g>
		</g>
		
			<rect x="118.5" y="144.3" transform="matrix(0.2586 -0.966 0.966 0.2586 -79.8115 246.1297)" class="st27" width="3.8" height="61.4"/>
	</g>
</g>
<g>
	<g>
		<polygon class="st28" points="154.6,77.6 263.1,210.1 273.9,200.9 233.8,154.1 271.3,140 		"/>
		<polygon class="st5" points="198.5,202.5 218.1,167.5 258.3,214.3 267.3,206.5 154.6,77.6 		"/>
	</g>
</g>
</svg>
