<?xml version="1.0" encoding="utf-8"?>
<!-- Generator: Adobe Illustrator 20.0.0, SVG Export Plug-In . SVG Version: 6.00 Build 0)  -->
<svg version="1.1" id="Layer_1" xmlns="http://www.w3.org/2000/svg" xmlns:xlink="http://www.w3.org/1999/xlink" x="0px" y="0px"
	 viewBox="0 0 260 110" style="enable-background:new 0 0 260 110;" xml:space="preserve">
<style type="text/css">
	.st0{fill:#2d2d2d;}
	.st1{fill:#BF261F;}
</style>
<path class="st0" d="M226.7,108.7H33.3c-6.8,0-12.3-5.5-12.3-12.3V14.9c0-6.8,5.5-12.3,12.3-12.3h193.4c6.8,0,12.3,5.5,12.3,12.3
	v81.4C239,103.1,233.5,108.7,226.7,108.7z"/>
<g>
	<g>
		<path class="st1" d="M153.8,56.6v-35h10.5c1.5,0,2.9,0.2,3.9,0.6c1,0.4,1.8,1.1,2.4,2s1,2.2,1.3,3.7c0.2,1.5,0.4,3.4,0.4,5.7
			s-0.1,4.3-0.4,5.8c-0.2,1.6-0.6,2.9-1.3,3.9s-1.5,1.6-2.4,2.2c-1,0.4-2.4,0.6-3.9,0.6h-3.2v10.5L153.8,56.6L153.8,56.6z
			 M163.1,38.8c0.6,0,1.2-0.4,1.5-1.2c0.3-0.7,0.4-2.2,0.4-4.3c0-1.9-0.1-3.1-0.5-3.7c-0.4-0.6-0.9-0.9-1.5-0.9h-1.7v9.9L163.1,38.8
			L163.1,38.8z"/>
		<path class="st1" d="M179.1,56.6V29h-5.4v-7.3H192V29h-5.5v27.6H179.1z"/>
		<path class="st1" d="M203.6,32.4c0-0.3,0.1-0.5,0.1-0.6s0-0.5,0-0.9c0-1.1-0.1-1.8-0.4-2.2c-0.3-0.4-0.9-0.6-1.7-0.6
			c-0.8,0-1.5,0.2-1.7,0.6c-0.3,0.4-0.4,1.2-0.4,2.2s0.1,1.7,0.4,2.2c0.3,0.4,0.6,0.8,1.3,1.2s1.4,0.7,1.9,1
			c0.6,0.3,1.2,0.5,1.6,0.7c0.5,0.2,1,0.5,1.5,0.6c0.5,0.2,0.9,0.5,1.5,0.8c0.5,0.4,0.9,0.7,1.4,1.2c0.4,0.4,0.6,0.9,0.9,1.6
			c0.2,0.6,0.4,1.5,0.5,2.4c0.1,0.9,0.2,2.2,0.2,3.6c0,2.1-0.1,3.8-0.5,5.3c-0.3,1.5-0.8,2.4-1.5,3.4c-0.6,0.8-1.6,1.5-2.8,1.8
			s-2.7,0.5-4.4,0.5c-2.9,0-5-0.5-6.4-1.6c-1.4-1.1-2-3-2-5.7c0-0.9,0-1.8,0.1-2.7c0.1-0.9,0.1-1.6,0.3-2.2h6
			c-0.1,0.2-0.1,0.4-0.1,0.6c0,0.2,0,0.5,0,0.6c0,1.4,0.1,2.3,0.4,2.8c0.3,0.5,0.9,0.7,1.8,0.7s1.5-0.2,1.8-0.6s0.5-1.5,0.5-2.9
			c0-0.9-0.1-1.5-0.4-2c-0.3-0.5-0.7-0.9-1.4-1.4c-0.5-0.4-1.2-0.7-1.8-1c-0.6-0.4-1.3-0.6-1.9-0.9c-0.6-0.3-1.3-0.6-1.8-0.9
			c-0.6-0.4-1.2-0.6-1.5-1.2c-0.9-0.8-1.5-1.9-1.7-3.4c-0.2-1.5-0.3-3.4-0.3-5.6c0-1.6,0.1-3,0.4-4.2c0.3-1.2,0.7-2,1.4-2.7
			c0.6-0.6,1.5-1.2,2.6-1.5c1.2-0.4,2.5-0.5,4.3-0.5c1.5,0,2.9,0.1,4,0.4c1.1,0.3,1.9,0.6,2.6,1.3c0.6,0.6,1.2,1.5,1.5,2.4
			c0.3,1,0.5,2.2,0.5,3.7c0,0.9,0,1.7-0.1,2.3c-0.1,0.5-0.1,1.1-0.3,1.5h-6.2V32.4z"/>
		<path class="st1" d="M212.1,56.6v-7h7.3v7H212.1z"/>
	</g>
</g>
<g>
	<path class="st1" d="M37.6,63.8l-0.5-10.9l28.4-1.2L66,62.6L37.6,63.8z"/>
	<path class="st1" d="M84.7,37.4l-0.4,7.7c0.7-0.2,1.6-0.6,2.7-0.9c1.2-0.3,2.7-0.5,4.5-0.6c2.2-0.1,4.1,0.2,5.9,0.7
		c1.7,0.6,3.1,1.7,4.3,3.1c1.2,1.4,2.1,3.3,2.7,5.7s1.1,5.3,1.2,8.8c0.2,3.2,0.2,6,0.2,8.4c-0.1,2.4-0.2,4.5-0.3,6.2
		c-0.2,1.8-0.4,3.3-0.8,4.6c-0.3,1.3-0.8,2.4-1.3,3.4c-0.6,1-1.2,1.9-2,2.7c-0.8,0.7-1.7,1.3-3,1.8c-1.2,0.5-2.6,0.8-4.2,1.1
		c-1.7,0.2-3.6,0.4-5.7,0.5c-3.6,0.2-6.6-0.1-9-0.8s-4.1-1.9-5.4-3.6c-1.3-1.7-2.2-3.7-2.7-6.4c-0.5-2.6-0.8-5.6-1-9.1
		c-0.1-1.9-0.1-3.9,0-6l12.8-0.4c0,0.4-0.1,0.9,0,1.5c0,0.6,0.1,1.1,0.1,1.6c0.1,2.7,0.4,4.9,0.9,6.4c0.5,1.5,1.7,2.2,3.6,2.2
		c1.3-0.1,2.2-0.2,2.8-0.5c0.5-0.2,0.8-0.7,1-1.2c0.2-1,0.4-2.3,0.5-3.9c0.1-1.6,0.1-4.1-0.1-7.2c-0.1-1.7-0.2-3-0.3-4
		c-0.2-1-0.4-1.7-0.8-2.2s-0.9-0.8-1.7-1c-0.7-0.2-1.6-0.2-2.7-0.2c-1.7,0.1-3.2,0.7-4.4,1.7l-10.9-3l0.7-30.7l31-1.4l0.7,14.1
		L84.7,37.4z"/>
	<path class="st1" d="M128.7,88.9c-2.7,0.1-5.1,0.2-7,0.1c-2-0.1-3.6-0.4-5-1.1c-1.4-0.7-2.5-1.7-3.3-3.1c-0.8-1.4-1.5-3.4-2-5.9
		c-0.5-2.5-0.9-5.7-1.2-9.5c-0.2-3.9-0.6-8.5-0.8-14.1c-0.2-5.5-0.4-10.2-0.4-14c-0.1-3.9,0.1-7,0.3-9.6c0.3-2.6,0.8-4.6,1.5-6
		c0.7-1.5,1.7-2.6,3-3.3c1.3-0.7,3-1.2,4.9-1.5c2-0.2,4.3-0.4,7-0.5s5.1-0.2,7.1-0.1s3.6,0.4,5,1.1s2.5,1.7,3.3,3.1
		c0.8,1.4,1.6,3.4,2.1,5.9c0.5,2.5,0.9,5.7,1.2,9.5c0.2,3.9,0.6,8.5,0.8,14c0.2,5.6,0.4,10.3,0.4,14.2c0.1,3.9-0.1,7-0.3,9.6
		c-0.3,2.6-0.8,4.6-1.6,6c-0.7,1.5-1.7,2.6-3,3.3c-1.3,0.7-2.9,1.2-4.9,1.5C133.8,88.6,131.4,88.8,128.7,88.9z M128,74.1
		c1-0.1,1.7-0.2,2.3-0.4c0.6-0.2,0.9-1,1.2-2.3c0.2-1.2,0.3-3.2,0.3-6c0-2.7-0.2-6.5-0.3-11.4c-0.2-5.1-0.4-9-0.6-11.7
		c-0.2-2.7-0.4-4.7-0.7-6c-0.3-1.2-0.7-2-1.4-2.2c-0.6-0.2-1.4-0.2-2.5-0.2c-1.1,0.1-1.8,0.2-2.4,0.5c-0.6,0.2-0.9,1.1-1.2,2.3
		c-0.2,1.3-0.2,3.3-0.2,6c0.1,2.7,0.2,6.6,0.4,11.7c0.2,4.9,0.4,8.7,0.7,11.4c0.2,2.7,0.5,4.6,0.8,5.9c0.3,1.2,0.7,2,1.3,2.2
		C126.3,74.1,127,74.2,128,74.1z"/>
</g>
</svg>
