<?xml version="1.0" encoding="utf-8"?>
<!-- Generator: Adobe Illustrator 20.0.0, SVG Export Plug-In . SVG Version: 6.00 Build 0)  -->
<svg version="1.1" id="flash0.ai" xmlns="http://www.w3.org/2000/svg" xmlns:xlink="http://www.w3.org/1999/xlink" x="0px" y="0px"
	 viewBox="0 0 262 180" style="enable-background:new 0 0 262 180;" xml:space="preserve">
<style type="text/css">
	.st0{fill:#222222;}
	.st1{fill:#F93737;}
	.st2{fill:#E22929;}
	.st3{fill:#FFBD3B;}
</style>
<path class="st0" d="M204,55.3c0,26.6-21.5,48.3-48.1,48.3c-10.8,0-20.7-3.6-28.8-9.6l0,0c-11-8.8-17.9-22.4-17.9-37.6
	c0-26.6,21.5-48.1,48.1-48.1c10.8,0,20.6,3.6,28.7,9.5C196.9,26.5,204,40,204,55.3z"/>
<path class="st0" d="M217,142.1c-2.4,0.4-4.8,0.3-7-0.4l0,0c-4.5-1.4-7.6-4.9-8.4-9.6c-0.6-3-0.3-7.6,3.4-12.5l6.1-56.6l34.5-0.1
	l-3.7,10.4c-2.8,8.1-4.9,14.4-6,18.8c-1.6,5.9-2.8,12.4-3.7,19.2l-0.8,5.6c0.9,1.4,1.6,3,1.9,4.8c0.6,3.3,0.3,8.4-4.5,13.6
	c-2.6,2.9-5.7,4.9-9.3,6C218.7,141.7,217.9,141.9,217,142.1z"/>
<path class="st1" d="M198.3,55.3c0,23.5-19,42.5-42.4,42.5c-9.5,0-18.3-3.2-25.4-8.5l0,0c-9.7-7.8-15.8-19.7-15.8-33.2
	c0-23.5,19-42.4,42.4-42.4c9.5,0,18.2,3.2,25.3,8.3C192.1,29.9,198.3,41.9,198.3,55.3z"/>
<path class="st2" d="M189.2,55.3c0,18.4-14.9,33.3-33.3,33.3c-10.8,0-20.4-5.2-26.5-13.2c-4.3-5.6-6.8-12.5-6.8-20.1
	c0-18.4,14.9-33.3,33.3-33.3c11.6,0,21.9,6,27.8,15C187.2,42.2,189.2,48.6,189.2,55.3z"/>
<g>
	<path class="st3" d="M164.2,45.4l12.2,1.9c0.9,0.1,1.4,1.4,0.7,2l-8.9,8.6c-0.2,0.2-0.5,0.7-0.3,1l2,12.2c0.1,0.9-0.9,1.7-1.7,1.2
		l-10.9-5.9c-0.3-0.2-0.8-0.2-1.1,0L145,72.2c-0.9,0.5-1.8-0.3-1.7-1.2l2.1-12.2c0.1-0.3,0-0.8-0.3-1l-8.8-8.7
		c-0.7-0.7-0.3-1.8,0.7-2l12.3-1.7c0.3,0,0.7-0.3,0.9-0.7l5.5-11.1c0.5-0.9,1.7-0.9,2,0l5.4,11.2C163.4,45.2,163.7,45.4,164.2,45.4z
		"/>
</g>
<path class="st0" d="M41.6,109.6c-8.6,1.5-16.1-2.2-20.9-10.3c-2.2-3.6-3.7-7.6-4.4-12.2c-0.8-4-0.8-8.5-0.5-13.5
	c0.7-8.3,3.1-16.3,7.1-23.9c5.4-10.1,12.7-16.1,21.4-17.6c5.1-0.8,14.5-0.7,21.1,10.8l2.4,4.2l-3.5,5.3l3.9-1.6l1.9,9.2
	c0.8,4.2,0.8,9.1-0.1,14.7v0.1c-0.8,4.5-2.1,8.9-3.9,12.9C60.8,100.3,52.4,107.8,41.6,109.6z"/>
<path class="st0" d="M54.6,34.4l39.4-13L97.1,52l-2.9,0.8L96,70.4h-0.1L98.1,92l-6.4,1.8c-6.8,1.8-15.4,5-25.6,9.6l-11,5L54.6,34.4z
	"/>
<path class="st0" d="M88.8,63.6l-5.6,2.1l-7.1-30l47.4-13.9l4.2,30.3l-7,1.6c-1.4,0.4-2.9,0.7-4.2,1c-0.6,12-0.5,23.2,0.2,33.3
	l0.4,5.4l-28.3,12.8V63.6z"/>
<path class="st0" d="M73.9,161L50,172.4l-0.9-11.3C49,160.2,48.9,158,49,150l0.1-49.9l4.3-2.2c8.4-4.1,15.2-6.7,21.1-7.7
	c6.2-1,11.2-0.3,14.8,2.3c2.2,1.5,4.9,4.4,5.6,9.5c1.3,7.8-1.2,16-7.4,24.5c1.7,2.3,4.4,6,8.5,11.6l3.6,4.7l-3.6,4.7
	c-2.3,2.9-5.6,7.2-10.1,12.9l-7,8.8L73.9,161z"/>
<path class="st0" d="M78.6,93.5L119,80.3l3.1,31.1l-2.9,0.8l1.9,17.8H121l2.3,22l-6.7,1.7c-7,1.8-15.8,5.1-26.4,9.9l-11.3,5.1
	L78.6,93.5z"/>
<path class="st0" d="M103,150.5c4.1-19.9,7-39.2,8.5-57.3l0.5-5.1l37.7-13.2v11c0,15.3,2,33.3,5.7,53.8l1.1,6.2l-31.6,13.2l-0.2-3.7
	l-24.4,8.2L103,150.5z"/>
<path class="st0" d="M139.2,145.5c-0.1-0.9-0.2-3-0.2-10.9l0.1-36.1c-0.1-6.7-0.1-8.1-0.1-8.5l-0.5-5.2l4.6-2.4
	c6.3-3.4,11.7-5.4,16.7-6.3c6.7-1.1,12.3-0.1,16.9,3.1l0.1,0.1c5.5,4,9,9.7,10.2,16.5c0.4,2.3,0.6,4.9,0.4,7.5
	c-0.6,10.9-4.4,21-11.6,30.2c-7.1,9.2-16.1,15.5-26.4,18.7l-9.3,2.9L139.2,145.5z"/>
<path class="st0" d="M172.6,146.2l7.5-27l-13-32.9L196.7,66l0.6,5.4h25.9l-3.8,10.5c-7.5,20.8-13.2,39.5-16.7,55.8l-1.2,5.4
	L172.6,146.2z"/>
<path class="st3" d="M39.5,101.9c-5.2,0.9-9.4-1.3-12.6-6.8c-1.6-2.7-2.7-5.8-3.4-9.5c-0.6-3.4-0.8-7.2-0.4-11.5
	c0.6-7.2,2.4-14.2,5.9-20.7c4.1-8,9.2-12.5,15.2-13.5c5.3-0.9,9.5,1.4,12.7,7l-6.6,10.4c-1.1-1.2-2.5-1.7-4.2-1.4
	c-3.4,0.6-6.1,3.5-8.2,8.7c-1.6,3.9-2.5,8.3-2.9,12.8c-0.2,1.8-0.1,3.4,0.1,4.8c0.4,2.1,1.1,3.7,2.4,4.8c1.4,1.2,3.1,1.7,5.1,1.3
	c2.3-0.4,4.2-1.9,5.8-4.4c1.3-2,2.2-4.4,2.7-7.2c-3.5,1.4-6.8,2.7-9.7,4.1l0.4-11.6l18.8-7.7c0.7,3.3,0.7,7.1-0.1,11.6
	c-0.7,3.9-1.7,7.7-3.2,11.2C53.4,94.8,47.3,100.5,39.5,101.9z"/>
<path class="st3" d="M74.2,51.2c-0.1,1.5-0.2,3-0.2,4.5V60l10.3-4.4l1.2,10.6c-5,1.9-8.8,3.5-11.6,4.8c0,1,0,2.1,0.1,3.1v3.1
	L86.3,73l1.6,14.2c-6.4,1.7-14.3,4.9-23.8,9.5l-1.4-56l21.9-7.6l1.6,14.3C81.8,48.7,77.9,49.9,74.2,51.2z"/>
<path class="st3" d="M118.5,30.9l2,14.3c-3.5,0.8-6.9,1.7-10,2.5c-0.9,14.7-0.9,28-0.1,39.9l-12.3,5.5V51.5c-1.3,0.5-2.6,0.9-4,1.4
	l-3.9,1.5l-3.4-14.1L118.5,30.9z"/>
<path class="st3" d="M56.6,104.9c7.3-3.8,13.4-6,18.3-6.9c6.7-1.1,10.3,0.7,11.1,5.4c1.1,6.9-1.9,14.5-9,22.8
	c1,1.8,4.9,7.4,11.7,16.7c-2.2,2.9-5.4,7.1-9.7,12.7L67.5,136h-0.1h-0.1c0,6.9,0.2,13.2,0.6,18.9l-11.1,5.4
	c-0.1-1.1-0.1-4.6-0.1-10.4L56.6,104.9z M67.9,115.3c-0.2,1.8-0.3,3.6-0.3,5.4l-0.1,5.4c1.6-1.2,3.1-2.7,4.5-4.4
	c1.6-2.1,2.6-3.9,3-5.6c0.2-0.5,0.2-0.9,0.2-1.3c-0.2-1.1-1-1.6-2.4-1.3C71.5,113.6,69.9,114.2,67.9,115.3z"/>
<path class="st3" d="M100.6,110c-0.1,1.5-0.2,3-0.2,4.5l-0.1,4.3l10.8-4.5l1.2,10.6c-5.2,2-9.2,3.6-12.1,4.8c0,1,0,2.1,0,3.1v3.1
	l12.8-4.3l1.5,14.3c-6.7,1.8-14.9,5-24.8,9.7l-1-55.9l22.8-7.8l1.5,14.3C108.5,107.5,104.4,108.7,100.6,110z"/>
<path class="st3" d="M115.3,151.4c2.9-20.1,4.8-39.4,5.5-57.7l18.6-7.2c0.5,15.8,2.6,34.1,6.5,55.1l-12.8,6l-0.7-9.7l-4,1.7l-0.2,7
	L115.3,151.4z M131.6,127.6l-2.1-29.2h-0.1l-0.8,30.5L131.6,127.6z"/>
<path class="st3" d="M147.4,89.3c5-2.8,9.4-4.6,13.2-5.3c4.2-0.8,7.6-0.1,10.1,2c3.6,2.9,5.8,6.8,6.7,11.6c0.3,1.8,0.4,3.7,0.4,5.7
	c-0.3,9.2-3.2,17.8-8.8,25.6s-12.4,13.1-20.5,15.7c-0.1-1.1-0.2-4.5-0.3-10.2l-0.5-36C147.6,93.1,147.5,90,147.4,89.3z M159.6,100.1
	c-0.5,10.3-0.5,20,0,29.1c2.3-3.4,4.2-7.1,5.7-11.4c1.9-5.2,2.5-9.4,2-12.7C166.5,100.9,164,99.2,159.6,100.1z"/>
<path class="st3" d="M200.4,79.1l11.6,0.2c-6.8,20.9-11.8,39.7-15,56.4l-11,1.1l4.5-18.2L179.3,89l12.5-9.2c0.3,2.3,0.7,5.3,1.2,8.8
	c0.6,3.5,1.3,7,2.3,10.4L200.4,79.1z"/>
<path class="st3" d="M217.7,119.9c1.7-0.6,3.4-0.6,4.9-0.1c1.8,0.6,2.8,1.7,3.1,3.4c0.4,2.3-0.5,4.7-2.6,7c-1.7,1.9-3.6,3.1-5.8,3.9
	c-1.8,0.6-3.4,0.7-4.8,0.2c-1.7-0.6-2.7-1.7-3-3.4c-0.4-2.3,0.4-4.7,2.4-7C213.5,121.8,215.4,120.5,217.7,119.9z M218.2,71l16.3-0.1
	c-2.9,8.3-5,14.7-6.2,19.4c-1.7,6.3-3,13.1-3.9,20.2l-10.7,1.4L218.2,71z"/>
</svg>
