<?xml version="1.0" encoding="utf-8"?>
<!-- Generator: Adobe Illustrator 20.0.0, SVG Export Plug-In . SVG Version: 6.00 Build 0)  -->
<svg version="1.1" id="Layer_1" xmlns="http://www.w3.org/2000/svg" xmlns:xlink="http://www.w3.org/1999/xlink" x="0px" y="0px"
	 viewBox="0 0 300 250" style="enable-background:new 0 0 300 250;" xml:space="preserve">
<style type="text/css">
	.st0{fill:#FFFFFF;}
	.st1{opacity:0.2;fill:url(#SVGID_1_);}
	.st2{fill:#EA3924;}
	.st3{display:none;}
	.st4{display:inline;fill:#FFFFFF;}
	.st5{display:inline;opacity:0.2;}
	.st6{fill:url(#SVGID_2_);}
	.st7{fill:url(#SVGID_3_);}
	.st8{display:inline;fill:#364D5C;}
	.st9{opacity:0.2;fill:url(#SVGID_4_);}
	.st10{fill:#364D5C;}
	.st11{opacity:0.2;fill:url(#SVGID_5_);}
	.st12{fill:#42AE48;}
	.st13{fill:url(#SVGID_6_);}
	.st14{fill:url(#SVGID_7_);}
</style>
<g>
	<g>
		<path class="st0" d="M207.1,116.6c0-8.1,2.4-15.6,6.6-21.8H90.8c-11,0-19.9,8.9-19.9,19.9v3.8c0,11,8.9,19.9,19.9,19.9h122.8
			C209.5,132.2,207.1,124.7,207.1,116.6z"/>
		<radialGradient id="SVGID_1_" cx="142.3069" cy="114.4952" r="52.3428" gradientUnits="userSpaceOnUse">
			<stop  offset="0.5744" style="stop-color:#130C0E"/>
			<stop  offset="0.7977" style="stop-color:#130C0E"/>
			<stop  offset="1" style="stop-color:#130C0E"/>
		</radialGradient>
		<path class="st1" d="M78.2,130.9v-3.8c0-11,8.9-19.9,19.9-19.9h110.1c1.1-4.5,3-8.6,5.4-12.3H90.8c-11,0-19.9,8.9-19.9,19.9v3.8
			c0,6.3,3,11.9,7.5,15.6C78.3,133.1,78.2,132,78.2,130.9z"/>
		<path class="st2" d="M90.8,95.7H220v-7.1H90.8c-14.4,0-26.2,11.8-26.2,26.2v3.8c0,14.4,11.8,26.2,26.2,26.2H220v-7.1H90.8
			c-10.5,0-19.1-8.6-19.1-19.1v-3.8C71.8,104.2,80.3,95.7,90.8,95.7z"/>
	</g>
	<g class="st3">
		<path class="st4" d="M96.6,69.5c0-5.5-2.1-10.5-5.6-14.7h105.3c9.4,0,17.1,6,17.1,13.4v2.6c0,7.4-7.6,13.4-17.1,13.4H91
			C94.6,80,96.6,74.9,96.6,69.5z"/>
		<g class="st5">
			<radialGradient id="SVGID_2_" cx="152.2015" cy="67.3475" r="44.1802" gradientUnits="userSpaceOnUse">
				<stop  offset="0.5744" style="stop-color:#130C0E"/>
				<stop  offset="0.7977" style="stop-color:#130C0E"/>
				<stop  offset="1" style="stop-color:#130C0E"/>
			</radialGradient>
			<path class="st6" d="M196.3,54.7H91c2.2,2.6,3.8,5.5,4.7,8.5h96.1c9.4,0,17.1,6,17.1,13.4v2.6c0,0.2,0,0.4,0,0.6
				c2.8-2.4,4.6-5.6,4.6-9.2v-2.6C213.4,60.8,205.8,54.7,196.3,54.7z"/>
			<radialGradient id="SVGID_3_" cx="91.1216" cy="84.0896" r="0.1289" gradientUnits="userSpaceOnUse">
				<stop  offset="0.5744" style="stop-color:#130C0E"/>
				<stop  offset="0.7977" style="stop-color:#130C0E"/>
				<stop  offset="1" style="stop-color:#130C0E"/>
			</radialGradient>
			<path class="st7" d="M91.1,84.2c0-0.1,0.1-0.2,0.1-0.3c-0.1,0.1-0.2,0.2-0.2,0.3H91.1z"/>
		</g>
		<path class="st8" d="M196.3,55.3H85.6v-4.8h110.8c12.4,0,22.5,7.9,22.5,17.7v2.6c0,9.8-10.1,17.7-22.5,17.7H85.6v-4.8h110.8
			c9,0,16.4-5.8,16.4-12.9v-2.6C212.7,61.1,205.4,55.3,196.3,55.3z"/>
	</g>
</g>
<g>
	<path class="st0" d="M190.9,52.4h-86c1.8,4.1,2.9,8.7,2.9,13.5c0,6.4-1.8,12.3-4.9,17.3h88c7.7,0,14-6.3,14-14v-2.9
		C204.9,58.7,198.6,52.4,190.9,52.4z"/>
	<radialGradient id="SVGID_4_" cx="154.8901" cy="60.9167" r="35.8639" gradientUnits="userSpaceOnUse">
		<stop  offset="0.5744" style="stop-color:#130C0E"/>
		<stop  offset="0.7977" style="stop-color:#130C0E"/>
		<stop  offset="1" style="stop-color:#130C0E"/>
	</radialGradient>
	<path class="st9" d="M192.2,61.3c5.6,0,10.5,3.3,12.7,8.2c0,0,0-0.1,0-0.1v-2.9c0-7.7-6.3-14-14-14h-86c1.2,2.8,2.1,5.8,2.5,8.9
		H192.2z"/>
	<path class="st10" d="M190.9,47.2H96.5v5.2h94.4c7.7,0,14,6.3,14,14v2.9c0,7.7-6.3,14-14,14H96.5v5.2h94.4
		c10.6,0,19.2-8.6,19.2-19.2v-2.9C210.1,55.8,201.5,47.2,190.9,47.2z"/>
</g>
<polygon class="st2" points="179.3,78.4 171.7,73.1 163.8,78.4 163.8,52.4 179.3,52.4 "/>
<g>
	<g>
		<path class="st0" d="M77.9,175c0-8.8-2.8-17-7.6-23.8h141.5c12.7,0,22.9,9.7,22.9,21.7v4.2c0,12-10.3,21.7-22.9,21.7H70.3
			C75.1,192,77.9,183.8,77.9,175z"/>
		
			<radialGradient id="SVGID_5_" cx="138.9618" cy="172.6596" r="57.1951" gradientTransform="matrix(-1.0544 0 0 1 299.0265 0)" gradientUnits="userSpaceOnUse">
			<stop  offset="0.5744" style="stop-color:#130C0E"/>
			<stop  offset="0.7977" style="stop-color:#130C0E"/>
			<stop  offset="1" style="stop-color:#130C0E"/>
		</radialGradient>
		<path class="st11" d="M226.3,190.6v-4.2c0-12-10.3-21.7-22.9-21.7H76.5c-1.3-4.9-3.4-9.4-6.2-13.5h141.5
			c12.7,0,22.9,9.7,22.9,21.7v4.2c0,6.9-3.4,13.1-8.7,17C226.2,193,226.3,191.8,226.3,190.6z"/>
		<path class="st12" d="M211.8,152.1H63v-7.8h148.8c16.6,0,30.2,12.8,30.2,28.6v4.2c0,15.8-13.5,28.6-30.2,28.6H63v-7.8h148.8
			c12.1,0,22-9.3,22-20.8v-4.2C233.8,161.4,223.9,152.1,211.8,152.1z"/>
	</g>
	<g class="st3">
		<path class="st4" d="M205.1,123.5c0-6,2.4-11.5,6.5-16.1H90.3c-10.9,0-19.7,6.6-19.7,14.7v2.8c0,8.1,8.8,14.7,19.7,14.7h121.4
			C207.5,135,205.1,129.4,205.1,123.5z"/>
		<g class="st5">
			
				<radialGradient id="SVGID_6_" cx="149.7736" cy="121.1412" r="48.2758" gradientTransform="matrix(-1.0544 0 0 1 299.0265 0)" gradientUnits="userSpaceOnUse">
				<stop  offset="0.5744" style="stop-color:#130C0E"/>
				<stop  offset="0.7977" style="stop-color:#130C0E"/>
				<stop  offset="1" style="stop-color:#130C0E"/>
			</radialGradient>
			<path class="st13" d="M90.3,107.4h121.4c-2.5,2.8-4.4,6-5.4,9.3H95.5c-10.9,0-19.7,6.6-19.7,14.7v2.8c0,0.2,0,0.5,0,0.7
				c-3.3-2.6-5.3-6.1-5.3-10v-2.8C70.6,113.9,79.4,107.4,90.3,107.4z"/>
			
				<radialGradient id="SVGID_7_" cx="83.0314" cy="139.4353" r="0.1409" gradientTransform="matrix(-1.0544 0 0 1 299.0265 0)" gradientUnits="userSpaceOnUse">
				<stop  offset="0.5744" style="stop-color:#130C0E"/>
				<stop  offset="0.7977" style="stop-color:#130C0E"/>
				<stop  offset="1" style="stop-color:#130C0E"/>
			</radialGradient>
			<path class="st14" d="M211.4,139.6c0-0.1-0.1-0.2-0.1-0.3c0.1,0.1,0.2,0.2,0.3,0.3H211.4z"/>
		</g>
		<path class="st8" d="M90.3,108h127.6v-5.3H90.3c-14.3,0-25.9,8.7-25.9,19.4v2.8c0,10.7,11.6,19.4,25.9,19.4h127.6V139H90.3
			c-10.4,0-18.8-6.3-18.8-14.1v-2.8C71.4,114.3,79.9,108,90.3,108z"/>
	</g>
</g>
<path class="st12" d="M600.2,194.4c-1.4,0.5-2.5,0.5-3.5,0c-0.9-0.4-1.6-1.3-2-2.2c-0.7-2.7-2.4-4.6-4.8-5.9
	c-2.5-1.3-5.1-1.5-7.7-0.5c-2.7,0.9-4.8,2.6-6.1,5l-0.3,0.4c-1.2,2.4-1.4,4.9-0.6,7.3c0.7,2.8,2.5,4.8,4.9,5.9
	c2.4,1.4,5,1.6,7.7,0.6c1.1-0.2,2-0.1,3,0.4c1.1,0.5,1.7,1.5,1.9,3c0.2,1.2,0.2,2.1-0.2,3.2l-0.4,1.2c-2.2,4.6-7.5,11.7-15.5,21
	c-10.2-8.8-17.4-13.7-21.6-15.2c-0.9-0.3-2-0.3-3.2-0.1c-1.5,0.3-2.5,1.1-3,2c-0.4,0.9-0.6,1.9-0.5,3.1c0.6,2.6,0.4,5-0.5,7.2
	l-0.3,0.4c-1.4,2.5-3.4,4.2-6.1,5s-5.3,0.6-7.7-0.6c-2.5-1.3-4.1-3.2-4.9-5.9c-0.6-2.5-0.4-4.9,0.6-7.3l0.3-0.4c1.4-2.5,3.3-4.2,6-5
	c1.2-0.4,1.8-1.2,2.2-2c0.4-1.1,0.4-2.2,0-3.5c-0.3-1.2-0.9-1.9-1.7-2.5c-2.2-1.6-7-3.6-14-5.9c-6.8-2-10.4-3.2-10.9-3.3
	c2.8-9.2,5.5-16.4,7.9-21.5c0.7-1.6,1.6-2.8,2.1-3.7c0.5-0.7,1.5-1.5,2.7-1.9c1.4-0.5,2.5-0.5,3.4,0c0.9,0.5,1.6,1.3,2,2.2
	c0.7,2.6,2.5,4.5,4.9,5.9c2.4,1.4,5,1.6,7.7,0.6c2.7-1,4.6-2.6,6.1-5l0.2-0.4c1.2-2.4-2.7-4-3.5-6.4c-0.7-2.7,0,0-2.5-1.4
	c-2.5-1.3-3.3-5.4-5.9-4.5c-1.1,0.2-4.5,2.4-5.5,1.8c-1.1-0.4-7.4-9.3-3.3-9.3c-0.2-1.3,0.7-6.3,1-7.3l2.3-3.3c1.4-3,5.5,1.6,10-4.1
	c3.2-4.1,5.5-6.8,6.8-8.1c1.7,1.6,4.5,3.9,8.8,7.1c5.9,4.5,10.2,7.4,12.8,8.2c0.9,0.3,1.9,0.3,3.2,0c1.4-0.3,2.4-1.1,3-1.9
	c0.4-1.2,0.6-2,0.4-3.1c-0.6-2.4-0.4-4.9,0.6-7.3l0.3-0.4c1.4-2.4,3.4-4.1,6.1-5c2.6-0.9,5.2-0.6,7.7,0.5c2.4,1.3,4.1,3.3,4.9,5.9
	c0.6,2.5,0.4,4.9-0.6,7.3l-0.3,0.4c-1.3,2.5-3.3,4.2-6.1,5c-0.9,0.2-1.7,0.9-2.2,2c-0.4,1.1-0.4,2.2,0,3.5c0.3,1.2,0.9,2,1.7,2.5
	c3.5,2.6,11.9,5.7,24.9,9.3c-2.7,9.2-5.3,16.4-7.9,21.4c-0.6,1.5-1.4,2.7-2,3.9C602.2,193.3,601.2,193.9,600.2,194.4z"/>
</svg>
