<?xml version="1.0" encoding="utf-8"?>
<!-- Generator: Adobe Illustrator 15.0.0, SVG Export Plug-In . SVG Version: 6.00 Build 0)  -->
<!DOCTYPE svg PUBLIC "-//W3C//DTD SVG 1.1//EN" "http://www.w3.org/Graphics/SVG/1.1/DTD/svg11.dtd">
<svg version="1.1" id="flash0.ai" xmlns="http://www.w3.org/2000/svg" xmlns:xlink="http://www.w3.org/1999/xlink" x="0px" y="0px"
	 width="320px" height="200px" viewBox="0 0 320 200" enable-background="new 0 0 320 200" xml:space="preserve">
<path fill-rule="evenodd" clip-rule="evenodd" d="M186.1,122.2h-1.5h0c-0.3-0.5-0.6-0.9-0.9-1.4l-0.3-0.4l-1.6-2.9
	c-0.5-1-0.9-2-1.3-3.1c-0.5-1.4-0.8-2.8-1-4.2l-0.5-4.5c0-0.1,0-0.1,0-0.2c0,0,0-0.1,0-0.1c0-0.1,0-0.1,0-0.2c0-7,2.2-13,6.5-18
	s9.6-7.5,15.8-7.5c6.2,0,11.4,2.5,15.8,7.5c4.4,5,6.5,11,6.5,18l-0.8,7c-0.2,0.8-0.4,1.5-0.6,2.2c-0.5,1.4-1.1,2.8-1.8,4l-2.4,3.7
	h-1.5c4-4.7,6-10.3,6-16.9c0-6.7-2.1-12.4-6.2-17.1c-4.2-4.7-9.2-7.1-15-7.1c-5.9,0-10.9,2.4-15,7.1c-4.1,4.7-6.2,10.5-6.2,17.1
	C180.1,111.9,182.1,117.5,186.1,122.2z M266.1,176.3h-1.5h0c-0.4-0.5-0.7-1-1-1.4l-1.9-3.3c-0.4-1-0.8-2-1.1-3
	c-0.5-1.4-0.8-2.8-1-4.3l-0.5-4.4c0-0.1,0-0.1,0-0.2s0-0.1,0-0.2c0-7,2.2-13,6.5-18s9.6-7.5,15.8-7.5c6.2,0,11.4,2.5,15.8,7.5
	c4.4,5,6.5,11,6.5,18c0,0.1,0,0.1,0,0.2l-0.8,6.8c0,0.1,0,0.1,0,0.2c-0.1,0.3-0.1,0.5-0.2,0.8c-0.1,0.4-0.2,0.8-0.3,1.2
	c-0.5,1.4-1.1,2.8-1.8,4.1l-2.4,3.6h-1.5c4-4.7,6-10.3,6-16.8c0-6.7-2.1-12.4-6.2-17.2c-4.2-4.7-9.2-7.1-15-7.1
	c-5.9,0-10.9,2.4-15,7.1c-4.1,4.7-6.2,10.5-6.2,17.2C260.1,166.1,262.1,171.7,266.1,176.3z M101.6,63.4c-0.4-1-0.8-2-1.2-3.1
	c-0.4-1.1-0.7-2.2-0.9-3.3l-0.2-1.2L99,51.1c0-7.1,2.2-13.1,6.5-18.1c4.4-5,9.6-7.5,15.8-7.5c6.2,0,11.4,2.5,15.8,7.5
	c4.4,5,6.6,11,6.6,18.1l-0.8,6.9c-0.2,0.7-0.4,1.5-0.6,2.2c-0.1,0.2-0.1,0.3-0.1,0.5c-0.1,0.1-0.1,0.3-0.1,0.4
	c-0.2,0.4-0.3,0.9-0.5,1.3l-1,1.9l-2.4,3.6h-1.5c4-4.7,6-10.3,6-16.8c0-6.7-2.1-12.4-6.2-17.1c-4.2-4.7-9.2-7.1-15-7.1
	c-5.9,0-10.9,2.4-15,7.1c-4.1,4.7-6.2,10.4-6.2,17.1c0,6.5,2,12.1,5.9,16.8h-1.5l-2.4-3.6L101.6,63.4z"/>
<path fill-rule="evenodd" clip-rule="evenodd" fill="#5E100D" d="M121.3,35.2c-5.3,0-9.8,1.9-13.5,5.8c-3.7,3.9-5.6,8.6-5.6,14.2
	c0,5.5,1.9,10.3,5.6,14.1c3.8,3.9,8.3,5.9,13.5,5.9c5.3,0,9.8-2,13.6-5.9c3.7-3.9,5.5-8.6,5.5-14.1c0-5.5-1.9-10.3-5.5-14.2
	C131.1,37.1,126.6,35.2,121.3,35.2z M136.5,67.9c-0.1,0.1-0.1,0.2-0.3,0.4c-4.2,4.7-9.2,7-15,7c-5.9,0-10.9-2.3-15-7
	c-0.1-0.1-0.2-0.3-0.3-0.4c-4-4.7-5.9-10.3-5.9-16.8c0-6.7,2.1-12.4,6.2-17.1c4.1-4.7,9.1-7.1,15-7.1c5.8,0,10.8,2.4,15,7.1
	c4.1,4.7,6.2,10.4,6.2,17.1C142.5,57.6,140.5,63.2,136.5,67.9z"/>
<path fill-rule="evenodd" clip-rule="evenodd" fill="#1C3A16" d="M296.5,176.3c-0.1,0.1-0.2,0.2-0.3,0.3c-4.2,4.7-9.2,7.1-15,7.1
	c-5.9,0-10.9-2.4-15-7.1c-0.1-0.1-0.1-0.2-0.2-0.3c-4-4.7-6-10.3-6-16.8c0-6.7,2.1-12.4,6.2-17.2c4.1-4.7,9.1-7.1,15-7.1
	c5.8,0,10.8,2.4,15,7.1c4.1,4.7,6.2,10.5,6.2,17.2C302.5,166.1,300.5,171.7,296.5,176.3z M267.8,177.8c3.8,3.9,8.3,5.9,13.5,5.9
	s9.8-2,13.5-5.9c3.7-3.9,5.6-8.6,5.6-14.1c0-5.5-1.9-10.3-5.6-14.2c-3.8-3.9-8.3-5.8-13.5-5.8s-9.8,1.9-13.5,5.8
	c-3.7,3.9-5.6,8.7-5.6,14.2C262.2,169.2,264,173.9,267.8,177.8z"/>
<path fill-rule="evenodd" clip-rule="evenodd" fill="#923B0F" d="M201.3,89.4c-5.3,0-9.8,2-13.5,5.9c-3.7,3.9-5.6,8.6-5.6,14.2
	c0,5.5,1.9,10.2,5.6,14.1c3.8,3.9,8.3,5.9,13.5,5.9s9.8-2,13.5-5.9c3.7-3.9,5.6-8.6,5.6-14.1c0-5.6-1.9-10.3-5.6-14.2
	C211.1,91.4,206.6,89.4,201.3,89.4z M216.5,122.2c-0.1,0.1-0.2,0.2-0.3,0.3c-4.2,4.7-9.2,7.1-15,7.1c-5.9,0-10.9-2.4-15-7.1
	c-0.1-0.1-0.1-0.2-0.2-0.3c-4-4.7-6-10.3-6-16.9c0-6.7,2.1-12.4,6.2-17.1c4.1-4.7,9.1-7.1,15-7.1c5.8,0,10.8,2.4,15,7.1
	c4.1,4.7,6.2,10.5,6.2,17.1C222.5,111.9,220.5,117.5,216.5,122.2z"/>
<linearGradient id="SVGID_1_" gradientUnits="userSpaceOnUse" x1="-304.7998" y1="-154.4746" x2="-257.7998" y2="-154.4746" gradientTransform="matrix(-1 0 0 -1 0 0)">
	<stop  offset="0" style="stop-color:#868686"/>
	<stop  offset="0.2471" style="stop-color:#787878"/>
	<stop  offset="0.7098" style="stop-color:#535353"/>
	<stop  offset="1" style="stop-color:#393939"/>
</linearGradient>
<path fill-rule="evenodd" clip-rule="evenodd" fill="url(#SVGID_1_)" d="M259.4,164.3c0.4,2.6,1.1,5,2.2,7.3l1.9,3.3
	c0.3,0.5,0.7,0.9,1,1.4H263c-1.6-2.3-2.9-4.9-3.8-7.8c-0.9-2.9-1.4-6-1.4-9.1c0-7.4,2.3-13.8,6.9-19c4.6-5.2,10.2-7.9,16.6-7.9
	c6.5,0,12,2.6,16.6,7.9c4.6,5.3,6.9,11.6,6.9,19c0,3.1-0.5,6.2-1.3,9.1c-0.9,2.8-2.2,5.4-3.9,7.8H298l2.4-3.6
	c0.7-1.3,1.3-2.7,1.8-4.1c0.1-0.4,0.3-0.8,0.3-1.2c0.1-0.3,0.1-0.5,0.2-0.8c0-0.1,0-0.1,0-0.2l0.8-6.8c0-0.1,0-0.1,0-0.2
	c0-7-2.2-13-6.5-18c-4.3-5-9.6-7.5-15.8-7.5c-6.2,0-11.4,2.5-15.8,7.5s-6.5,11-6.5,18c0,0.1,0,0.1,0,0.2s0,0.1,0,0.2L259.4,164.3z"
	/>
<radialGradient id="SVGID_2_" cx="280.8496" cy="170.5" r="21.2875" gradientTransform="matrix(1 0 0 -1.1433 0 365.4286)" gradientUnits="userSpaceOnUse">
	<stop  offset="0.5294" style="stop-color:#59A42B"/>
	<stop  offset="0.6275" style="stop-color:#559A26"/>
	<stop  offset="0.7922" style="stop-color:#498017"/>
	<stop  offset="1" style="stop-color:#375600"/>
</radialGradient>
<path fill-rule="evenodd" clip-rule="evenodd" fill="url(#SVGID_2_)" d="M267.8,177.8c-3.7-3.9-5.6-8.6-5.6-14.1
	c0-5.5,1.9-10.3,5.6-14.2c3.8-3.9,8.3-5.8,13.5-5.8s9.8,1.9,13.5,5.8c3.7,3.9,5.6,8.7,5.6,14.2c0,5.5-1.9,10.2-5.6,14.1
	c-3.8,3.9-8.3,5.9-13.5,5.9S271.5,181.7,267.8,177.8z"/>
<linearGradient id="SVGID_3_" gradientUnits="userSpaceOnUse" x1="258.9629" y1="174.6992" x2="303.4379" y2="174.6992">
	<stop  offset="0" style="stop-color:#6D6D6D"/>
	<stop  offset="0.1843" style="stop-color:#5F5F5F"/>
	<stop  offset="0.5373" style="stop-color:#3A3A3A"/>
	<stop  offset="1" style="stop-color:#000000"/>
</linearGradient>
<path fill-rule="evenodd" clip-rule="evenodd" fill="url(#SVGID_3_)" d="M266.1,176.3c0.1,0.1,0.1,0.2,0.2,0.3
	c4.1,4.7,9.1,7.1,15,7.1c5.8,0,10.8-2.4,15-7.1c0.1-0.1,0.2-0.2,0.3-0.3h1.5c-0.3,0.4-0.6,0.8-1,1.2c-4.3,5-9.6,7.5-15.8,7.5
	c-6.2,0-11.4-2.5-15.8-7.5c-0.3-0.4-0.7-0.8-1-1.2H266.1z M261.6,171.7c-1.1-2.3-1.8-4.7-2.2-7.3c0.2,1.5,0.6,2.9,1,4.3
	C260.8,169.7,261.2,170.7,261.6,171.7z"/>
<linearGradient id="SVGID_4_" gradientUnits="userSpaceOnUse" x1="-224.7998" y1="-100.2998" x2="-177.7998" y2="-100.2998" gradientTransform="matrix(-1 0 0 -1 0 0)">
	<stop  offset="0" style="stop-color:#868686"/>
	<stop  offset="0.2471" style="stop-color:#787878"/>
	<stop  offset="0.7098" style="stop-color:#535353"/>
	<stop  offset="1" style="stop-color:#393939"/>
</linearGradient>
<path fill-rule="evenodd" clip-rule="evenodd" fill="url(#SVGID_4_)" d="M179.4,110.3c0.4,2.6,1.1,5,2.3,7.3l1.6,2.9l0.3,0.4
	c0.3,0.4,0.6,0.9,0.9,1.4H183c-1.6-2.4-2.9-5-3.8-7.8c-0.9-2.9-1.4-6-1.4-9.1c0-7.4,2.3-13.8,6.9-19c4.6-5.3,10.1-7.9,16.6-7.9
	s12,2.6,16.6,7.9c4.6,5.2,6.9,11.6,6.9,19c0,3.1-0.5,6.2-1.3,9.1c-0.9,2.8-2.2,5.4-3.9,7.8H218l2.4-3.7c1.1-1.9,1.9-4,2.4-6.3l0.8-7
	c0-7-2.2-13-6.5-18c-4.3-5-9.6-7.5-15.8-7.5c-6.2,0-11.4,2.5-15.8,7.5s-6.5,11-6.5,18c0,0.1,0,0.1,0,0.2c0,0,0,0.1,0,0.1
	c0,0,0,0.1,0,0.2L179.4,110.3z"/>
<radialGradient id="SVGID_5_" cx="200.8496" cy="116.25" r="21.2875" gradientTransform="matrix(1 0 0 -1.1433 0 249.1559)" gradientUnits="userSpaceOnUse">
	<stop  offset="0.6" style="stop-color:#FFA30B"/>
	<stop  offset="0.6941" style="stop-color:#FB9909"/>
	<stop  offset="0.851" style="stop-color:#F17F05"/>
	<stop  offset="1" style="stop-color:#E66000"/>
</radialGradient>
<path fill-rule="evenodd" clip-rule="evenodd" fill="url(#SVGID_5_)" d="M201.3,89.4c5.3,0,9.8,2,13.5,5.9c3.7,3.9,5.6,8.6,5.6,14.2
	c0,5.5-1.9,10.2-5.6,14.1c-3.8,3.9-8.3,5.9-13.5,5.9s-9.8-2-13.5-5.9c-3.7-3.9-5.6-8.6-5.6-14.1c0-5.6,1.9-10.3,5.6-14.2
	C191.5,91.4,196,89.4,201.3,89.4z"/>
<linearGradient id="SVGID_6_" gradientUnits="userSpaceOnUse" x1="178.9629" y1="120.5254" x2="223.4379" y2="120.5254">
	<stop  offset="0" style="stop-color:#6D6D6D"/>
	<stop  offset="0.1843" style="stop-color:#5F5F5F"/>
	<stop  offset="0.5373" style="stop-color:#3A3A3A"/>
	<stop  offset="1" style="stop-color:#000000"/>
</linearGradient>
<path fill-rule="evenodd" clip-rule="evenodd" fill="url(#SVGID_6_)" d="M186.1,122.2c0.1,0.1,0.1,0.2,0.2,0.3
	c4.1,4.7,9.1,7.1,15,7.1c5.8,0,10.8-2.4,15-7.1c0.1-0.1,0.2-0.2,0.3-0.3h1.5c-0.3,0.4-0.7,0.8-1,1.1c-4.3,5-9.6,7.5-15.8,7.5
	c-6.2,0-11.4-2.5-15.8-7.5c-0.3-0.4-0.7-0.8-1-1.1H186.1z M222.8,112.3c-0.5,2.2-1.3,4.3-2.4,6.3c0.7-1.3,1.3-2.6,1.8-4
	C222.4,113.8,222.6,113,222.8,112.3z M181.7,117.5c-1.2-2.3-1.9-4.7-2.3-7.3c0.2,1.4,0.6,2.8,1,4.2
	C180.8,115.5,181.2,116.5,181.7,117.5z"/>
<linearGradient id="SVGID_7_" gradientUnits="userSpaceOnUse" x1="-144.7998" y1="-46.0498" x2="-97.7998" y2="-46.0498" gradientTransform="matrix(-1 0 0 -1 0 0)">
	<stop  offset="0" style="stop-color:#868686"/>
	<stop  offset="0.2471" style="stop-color:#787878"/>
	<stop  offset="0.7098" style="stop-color:#535353"/>
	<stop  offset="1" style="stop-color:#393939"/>
</linearGradient>
<path fill-rule="evenodd" clip-rule="evenodd" fill="url(#SVGID_7_)" d="M99.5,57c0.4,2.2,1.1,4.4,2.1,6.4l0.5,0.9l2.4,3.6H103
	c-1.6-2.3-2.9-4.9-3.8-7.7c-0.9-2.9-1.4-6-1.4-9.1c0-7.4,2.3-13.8,6.9-19.1c4.6-5.2,10.2-7.8,16.6-7.8c6.5,0,12,2.6,16.6,7.8
	c4.6,5.3,6.9,11.6,6.9,19.1c0,3.1-0.4,6.2-1.3,9.1c-0.9,2.8-2.2,5.4-3.9,7.7H138l2.4-3.6l1-1.9c0.2-0.4,0.3-0.8,0.5-1.3
	c0-0.1,0.1-0.2,0.1-0.4c0-0.2,0.1-0.3,0.1-0.5c0.2-0.7,0.5-1.5,0.6-2.2l0.8-6.9c0-7.1-2.2-13.1-6.6-18.1c-4.3-5-9.6-7.5-15.8-7.5
	c-6.2,0-11.4,2.5-15.8,7.5c-4.4,5-6.5,11-6.5,18.1l0.4,4.7L99.5,57z"/>
<radialGradient id="SVGID_8_" cx="120.8501" cy="62.1001" r="21.2875" gradientTransform="matrix(1 0 0 -1.1433 0 133.0977)" gradientUnits="userSpaceOnUse">
	<stop  offset="0.5216" style="stop-color:#FF1806"/>
	<stop  offset="0.5922" style="stop-color:#F61706"/>
	<stop  offset="0.7059" style="stop-color:#DE1604"/>
	<stop  offset="0.851" style="stop-color:#B61302"/>
	<stop  offset="1" style="stop-color:#860F00"/>
</radialGradient>
<path fill-rule="evenodd" clip-rule="evenodd" fill="url(#SVGID_8_)" d="M121.3,35.2c5.3,0,9.8,1.9,13.6,5.8
	c3.7,3.9,5.5,8.6,5.5,14.2c0,5.5-1.9,10.3-5.5,14.1c-3.8,3.9-8.3,5.9-13.6,5.9c-5.3,0-9.8-2-13.5-5.9c-3.7-3.9-5.6-8.6-5.6-14.1
	c0-5.5,1.9-10.3,5.6-14.2C111.5,37.1,116,35.2,121.3,35.2z"/>
<linearGradient id="SVGID_9_" gradientUnits="userSpaceOnUse" x1="98.9624" y1="66.7754" x2="143.4374" y2="66.7754">
	<stop  offset="0" style="stop-color:#6D6D6D"/>
	<stop  offset="0.1843" style="stop-color:#5F5F5F"/>
	<stop  offset="0.5373" style="stop-color:#3A3A3A"/>
	<stop  offset="1" style="stop-color:#000000"/>
</linearGradient>
<path fill-rule="evenodd" clip-rule="evenodd" fill="url(#SVGID_9_)" d="M99.5,57c0.2,1.1,0.5,2.2,0.9,3.3c0.4,1.1,0.8,2.1,1.2,3.1
	C100.6,61.3,100,59.2,99.5,57z M106,67.9c0.1,0.1,0.2,0.2,0.3,0.4c4.1,4.7,9.1,7,15,7c5.8,0,10.8-2.3,15-7c0.1-0.1,0.2-0.3,0.3-0.4
	h1.5c-0.3,0.4-0.6,0.8-1,1.2c-4.3,5-9.6,7.5-15.8,7.5c-6.2,0-11.4-2.5-15.8-7.5c-0.3-0.4-0.7-0.8-1-1.2H106z"/>
<linearGradient id="SVGID_10_" gradientUnits="userSpaceOnUse" x1="-144.8125" y1="-78.4502" x2="-97.7875" y2="-78.4502" gradientTransform="matrix(-1 0 0 -1 0 0)">
	<stop  offset="0" style="stop-color:#868686"/>
	<stop  offset="0.2471" style="stop-color:#787878"/>
	<stop  offset="0.7098" style="stop-color:#535353"/>
	<stop  offset="1" style="stop-color:#393939"/>
</linearGradient>
<path fill-rule="evenodd" clip-rule="evenodd" fill="url(#SVGID_10_)" d="M121.3,78.4c0.7,0,1.4,0,2.2,0.1h-4.3
	C119.9,78.4,120.6,78.4,121.3,78.4z"/>
</svg>
