<?xml version="1.0" encoding="utf-8"?>
<!-- Generator: Adobe Illustrator 20.0.0, SVG Export Plug-In . SVG Version: 6.00 Build 0)  -->
<svg version="1.1" id="flash0.ai" xmlns="http://www.w3.org/2000/svg" xmlns:xlink="http://www.w3.org/1999/xlink" x="0px" y="0px"
	 viewBox="0 0 55 55" style="enable-background:new 0 0 55 55;" xml:space="preserve">
<style type="text/css">
	.st0{fill:#3A3A3A;}
	.st1{fill:#FFFFFF;}
</style>
<g>
	<ellipse class="st0" cx="27.5" cy="27.5" rx="27" ry="27"/>
	<g>
		<circle class="st0" cx="26.8" cy="28.1" r="0"/>
		<circle class="st0" cx="26.8" cy="28.1" r="0"/>
	</g>
</g>
<path class="st1" d="M14.5,35.6c-0.1-0.1-0.2-0.2-0.2-0.3c-0.1-0.1-0.2-0.3-0.3-0.5c-0.1-0.2-0.3-0.5-0.4-0.9
	c-0.2-0.4-0.4-0.8-0.6-1.3c-1,0.1-1.9,0-2.5-0.2c-0.6-0.2-1.1-0.5-1.5-1c-0.2-0.3-0.4-0.6-0.6-1c-0.2-0.3-0.3-0.8-0.5-1.4
	c-0.1-0.6-0.3-1.4-0.4-2.4c-0.1-1-0.3-2.3-0.4-3.8c-0.2-1.6-0.3-2.9-0.3-3.9c-0.1-1-0.1-1.8-0.1-2.5c0-0.6,0.1-1.1,0.2-1.5
	c0.1-0.4,0.2-0.7,0.4-1c0.3-0.6,0.8-1.1,1.5-1.4c0.7-0.3,1.7-0.5,3-0.7c0.7-0.1,1.3-0.1,1.8-0.1c0.5,0,1,0.1,1.3,0.1
	c0.4,0.1,0.7,0.2,1,0.4c0.3,0.2,0.5,0.4,0.7,0.7c0.2,0.3,0.4,0.6,0.6,1c0.2,0.3,0.3,0.8,0.5,1.4c0.1,0.6,0.3,1.4,0.4,2.4
	c0.1,1,0.3,2.3,0.4,3.8c0.2,1.6,0.3,2.9,0.3,3.9c0.1,1,0.1,1.8,0.1,2.4c0,0.6-0.1,1.1-0.2,1.5c-0.1,0.4-0.2,0.7-0.4,1.1
	c-0.1,0.3-0.3,0.5-0.5,0.7c-0.2,0.2-0.5,0.4-0.8,0.5c0.4,1.1,0.8,1.8,1.1,2.3s0.5,0.8,0.7,1l0,0.2L14.5,35.6z M14.4,27.5
	c0-0.1,0-0.3,0.1-0.5c0-0.2,0-0.4,0-0.8s-0.1-0.9-0.1-1.6c-0.1-0.7-0.1-1.6-0.3-2.7c-0.1-1.1-0.2-2-0.3-2.7
	c-0.1-0.7-0.1-1.2-0.2-1.6c-0.1-0.4-0.1-0.7-0.2-0.9c-0.1-0.2-0.1-0.3-0.2-0.5c-0.1-0.2-0.2-0.3-0.4-0.3c-0.2-0.1-0.4-0.1-0.8,0
	c-0.4,0-0.6,0.1-0.8,0.2c-0.1,0.1-0.2,0.2-0.3,0.4c0,0.1-0.1,0.3-0.1,0.5c0,0.2,0,0.5,0,0.9c0,0.4,0,0.9,0.1,1.6
	c0.1,0.7,0.1,1.6,0.3,2.7c0.1,1.1,0.2,2,0.3,2.7c0.1,0.7,0.1,1.2,0.2,1.6c0.1,0.4,0.1,0.7,0.2,0.8c0,0.2,0.1,0.3,0.2,0.4
	c0.1,0.2,0.2,0.3,0.4,0.3c0.2,0,0.4,0,0.8,0c0.4,0,0.6-0.1,0.7-0.2C14.2,27.8,14.3,27.7,14.4,27.5z"/>
<path class="st1" d="M25.2,10.6l3.6-0.2l0.6,12c0,0.7,0,1.3,0,1.8c0,0.5-0.1,0.9-0.1,1.2s-0.1,0.6-0.2,0.8c-0.1,0.2-0.2,0.4-0.3,0.6
	c-0.1,0.3-0.3,0.5-0.5,0.6c-0.2,0.2-0.4,0.3-0.7,0.4c-0.3,0.1-0.7,0.2-1.1,0.3c-0.4,0.1-0.9,0.1-1.4,0.1c-1.1,0.1-2,0-2.6-0.1
	c-0.6-0.1-1-0.5-1.4-0.9c-0.1-0.2-0.3-0.4-0.4-0.6c-0.1-0.2-0.2-0.5-0.3-0.8c-0.1-0.3-0.2-0.7-0.2-1.2c-0.1-0.5-0.1-1.1-0.1-1.8
	l-0.6-12l3.7-0.2l0.6,12c0,0.4,0,0.7,0.1,1c0,0.2,0.1,0.4,0.2,0.5c0.1,0.1,0.2,0.2,0.3,0.2c0.1,0,0.3,0,0.6,0c0.2,0,0.4,0,0.5-0.1
	c0.1,0,0.2-0.1,0.3-0.2c0.1-0.1,0.1-0.3,0.1-0.5c0-0.2,0-0.6,0-1L25.2,10.6z"/>
<path class="st1" d="M30.6,27.8l1.2-17.3l3.7,0.3l-1.2,17.3L30.6,27.8z"/>
<path class="st1" d="M35.8,28.3l0.6-4.1l5.9-8.6l-0.1-0.2l-4.3-0.6l0.5-3.7l9.2,1.3l-0.3,2l-7.1,10.4l0.1,0.2l5.2,0.8L45,29.6
	L35.8,28.3z"/>
<g>
	<path class="st1" d="M25,43.2h-5.2c-0.1-0.5-0.1-0.9-0.2-1.3c0-0.4-0.1-0.8-0.1-1.2c0-0.4,0-0.8,0.1-1.2c0-0.4,0.1-0.9,0.2-1.3H25
		v-5.6c0.4-0.1,0.9-0.2,1.3-0.2c0.4,0,0.8-0.1,1.2-0.1c0.4,0,0.8,0,1.2,0.1c0.4,0,0.9,0.1,1.3,0.2v5.6h5.2c0.1,0.5,0.2,0.9,0.2,1.3
		c0,0.4,0.1,0.8,0.1,1.2c0,0.4,0,0.8-0.1,1.2c0,0.4-0.1,0.9-0.2,1.3H30v5.6c-0.5,0.1-0.9,0.2-1.3,0.2c-0.4,0-0.8,0.1-1.2,0.1
		c-0.8,0-1.6-0.1-2.5-0.3V43.2z"/>
</g>
</svg>
