<?xml version="1.0" encoding="utf-8"?>
<!-- Generator: Adobe Illustrator 20.0.0, SVG Export Plug-In . SVG Version: 6.00 Build 0)  -->
<svg version="1.1" id="flash0.ai" xmlns="http://www.w3.org/2000/svg" xmlns:xlink="http://www.w3.org/1999/xlink" x="0px" y="0px"
	 viewBox="0 0 55 55" style="enable-background:new 0 0 55 55;" xml:space="preserve">
<style type="text/css">
	.st0{fill:#D35400;}
</style>
<path class="st0" d="M53.5,10.1c-0.3,1-0.9,1.8-1.9,2.2L47,13.8c-2.6,1-3.5,1.8-2.8,2.5l8.8,8.9c1,1,1.3,2.2,1,3.5s-1,2.6-2.3,4.1
	c-1.5,1.8-3.8,4-6.9,6.4L34.7,49.4c-0.3,0.4-1.3,1.5-2.9,2.9c-1.2,1.2-2.3,1.9-3.5,2c-1.5,0.3-3.1-0.4-5-2.2l-3.8-4.2L5.4,34.1
	c-1.5-1.5-2.8-2.8-3.7-4c-0.4-0.6-0.7-1.3-0.9-1.9c-0.3-1.9,0.4-3.7,2.6-5.6L7,18.9c1.3-1.3,2.3-2,3.1-2.2l0.4,0.1h0.1
	c1,0.9,1.6,2,2.1,3.5c0.4,2.1,0.9,3.4,1.2,4c1,1.9,2.6,2.5,4.7,2.1c0.6-0.1,1-0.3,1.5-0.4c2.5-1,4.1-2.5,5.1-4.7
	c0.3-0.6,0.6-1.3,0.7-2.2v-1.2c0-1.2-0.4-2.2-1.3-2.9c-0.7-0.6-1.9-1.2-3.8-1.5c-1.8-0.4-3.1-1-3.8-1.8l-0.1-0.3
	c-0.6-0.6-0.6-1.2-0.1-1.6l5.6-5.4c2.8-3.1,5.3-3.8,7.3-2.3c1.3,1,2.6,2.2,4.1,3.8l3.8,4.1c1,1,1.9,0.1,2.8-2.8L41,4.3
	c0.3-1,0.7-1.9,1.3-2.5c0.6-0.4,1.2-0.7,2.1-0.9c0.4-0.1,1-0.1,1.5-0.1c0.9,0.1,1.8,0.3,2.5,0.7c2,0.9,3.7,2.6,4.7,5
	C53.6,7.9,53.7,9.1,53.5,10.1z"/>
</svg>
