<?xml version="1.0" encoding="utf-8"?>
<!-- Generator: Adobe Illustrator 20.0.0, SVG Export Plug-In . SVG Version: 6.00 Build 0)  -->
<svg version="1.1" id="Layer_1" xmlns="http://www.w3.org/2000/svg" xmlns:xlink="http://www.w3.org/1999/xlink" x="0px" y="0px"
	 viewBox="0 0 300 250" style="enable-background:new 0 0 300 250;" xml:space="preserve">
<style type="text/css">
	.st0{fill:#840003;}
	.st1{fill:url(#SVGID_1_);}
	.st2{fill:#EFF2F5;}
	.st3{fill:#ABABAB;}
	.st4{fill:#CACBD3;}
	.st5{fill:url(#SVGID_2_);}
	.st6{fill:#3F3F3F;}
	.st7{fill:url(#SVGID_3_);}
	.st8{fill:url(#SVGID_4_);}
	.st9{fill:url(#SVGID_5_);}
	.st10{fill:#E8813C;}
	.st11{fill:#F39150;}
	.st12{fill:#F5A26D;}
	.st13{fill:#FFBE23;}
	.st14{fill:#E3A922;}
	.st15{fill:#FFCF5E;}
	.st16{fill:#DE4B49;}
	.st17{fill:#E95F5E;}
	.st18{fill:#F08281;}
	.st19{fill:#C4C4C4;}
	.st20{fill:#ECECEC;}
	.st21{fill:#D9D9D9;}
</style>
<g>
	<path class="st0" d="M39.9,55.4L195,21.5l33.4,150.4c0.3,1.3,0.1,2.6-0.6,3.8c-0.7,1.2-1.7,1.9-3,2.2L78.4,210.3
		c-1.3,0.3-2.5,0.1-3.6-0.7c-1.1-0.8-1.8-1.8-2.1-3.2L39.2,56.1L39.9,55.4z"/>
	
		<linearGradient id="SVGID_1_" gradientUnits="userSpaceOnUse" x1="488.1355" y1="94.4233" x2="1008.3081" y2="94.4233" gradientTransform="matrix(0.299 -6.640000e-02 -6.640000e-02 -0.299 -82.5558 193.6421)">
		<stop  offset="0.3608" style="stop-color:#D42A29"/>
		<stop  offset="0.7137" style="stop-color:#C70F13"/>
		<stop  offset="1" style="stop-color:#C00006"/>
	</linearGradient>
	<path class="st1" d="M73.3,205.7L39.9,55.4l155.5-34.5l33.4,150.4c0.3,1.4,0.1,2.6-0.6,3.8c-0.7,1.2-1.7,1.9-3,2.2L79.1,209.6
		c-1.3,0.3-2.5,0.1-3.6-0.7C74.3,208.1,73.6,207.1,73.3,205.7z"/>
	<path class="st2" d="M78.4,193.3c-1.1-0.7-1.7-1.6-2-2.9L46,53.6l144.9-32.2l30.4,136.8c0.3,1.2,0.1,2.4-0.6,3.4
		c-0.7,1.1-1.6,1.7-2.8,2l-136,30.2C80.6,194.2,79.5,194,78.4,193.3z"/>
	<g>
		<polygon class="st3" points="184,57 69.6,82.4 69.4,81.6 183.8,56.2 		"/>
		<polygon class="st3" points="188.4,76.9 74,102.3 73.8,101.5 188.2,76.1 		"/>
		<polygon class="st3" points="192.8,96.7 78.4,122.1 78.2,121.3 192.6,95.9 		"/>
		<polygon class="st3" points="197.2,116.5 82.8,141.9 82.6,141.1 197,115.7 		"/>
		<polygon class="st3" points="201.6,136.4 87.2,161.8 87.1,161 201.4,135.6 		"/>
	</g>
	<g>
		<path class="st4" d="M81,65.1l-9.9,2.2c-0.4,0.1-0.8,0-1.1-0.1c-0.3-0.2-0.6-0.5-0.6-0.8l-1.9-8.7l12.9-2.9l1.9,8.7
			c0.1,0.4,0,0.7-0.2,1C81.7,64.8,81.4,65,81,65.1z"/>
		
			<linearGradient id="SVGID_2_" gradientUnits="userSpaceOnUse" x1="-5.6695" y1="1474.8011" x2="21.7172" y2="1474.8011" gradientTransform="matrix(6.640000e-02 0.299 0.299 -6.640000e-02 -367.6506 156.1483)">
			<stop  offset="3.900000e-03" style="stop-color:#424242"/>
			<stop  offset="0.2314" style="stop-color:#393939"/>
			<stop  offset="0.6118" style="stop-color:#1F1F1F"/>
			<stop  offset="0.8078" style="stop-color:#0F0F0F"/>
		</linearGradient>
		<path class="st5" d="M79,63.8l-8.5,1.9c-0.3,0.1-0.7,0-1-0.1c-0.3-0.2-0.5-0.4-0.5-0.7l-1.6-7.1l11.1-2.5l1.6,7.1
			c0.1,0.3,0,0.6-0.2,0.8C79.6,63.5,79.4,63.7,79,63.8z"/>
		<g>
			<path class="st6" d="M80.3,48.2c0.7,3.7,0.6,6.8-0.4,9.4c-0.2,0.6-0.6,1.1-1.1,1.7c-0.7,0.7-1.5,1.1-2.4,1.3
				c-1.6,0.2-3.2-0.6-4.6-2.5l1.8-1.4c0.9,1.2,1.7,1.7,2.5,1.6c0.4-0.1,0.8-0.3,1.2-0.7c0.3-0.3,0.5-0.6,0.6-0.8
				c0.9-2.3,1-5,0.3-8.3c-0.6-3-1.7-5.6-3.1-7.7c-0.6-0.9-1.2-1.6-1.8-2c-0.6-0.5-1.2-0.7-1.7-0.7c-0.5,0-1,0.2-1.3,0.6
				c-0.6,0.8-0.9,2.2-0.8,4.4c0.1,1.7,0.3,3.4,0.7,5.1l-2.2,0.6c-0.4-1.5-0.6-3.1-0.8-4.9c-0.2-3.1,0.2-5.3,1.3-6.6
				c0.8-1,1.8-1.5,3.1-1.5c0.9,0,1.8,0.3,2.8,1c0.9,0.6,1.8,1.6,2.6,2.8C78.4,41.9,79.6,44.8,80.3,48.2z"/>
		</g>
		<path class="st6" d="M68.6,42.2c-0.6-0.9-1.2-1.6-1.8-2c-0.6-0.5-1.2-0.7-1.7-0.7c-0.5,0-1,0.2-1.3,0.6c-0.6,0.8-0.9,2.2-0.8,4.4
			c0.1,1.7,0.3,3.4,0.7,5.1L61.5,50c-0.4-1.6-0.6-3.2-0.8-4.9c-0.2-3.1,0.2-5.3,1.3-6.6c0.8-1,1.8-1.5,3.1-1.5
			c0.9,0,1.8,0.3,2.7,0.9c0.9,0.6,1.8,1.6,2.6,2.8c1.7,2.4,2.9,5.4,3.5,8.7c0.7,3.6,0.6,6.8-0.4,9.4c-0.2,0.6-0.6,1.1-1.1,1.7
			c-0.7,0.7-1.5,1.1-2.4,1.2c-0.6,0.1-1.2,0-1.8-0.2l-0.7-3.3c0.8,0.9,1.5,1.4,2.2,1.3c0.4-0.1,0.8-0.3,1.2-0.7
			c0.3-0.3,0.5-0.6,0.6-0.8c0.9-2.3,0.9-5,0.3-8.3C71.1,46.9,70.1,44.3,68.6,42.2z"/>
	</g>
	<g>
		<path class="st4" d="M178.9,43.8L169,46c-0.4,0.1-0.8,0-1.1-0.1c-0.3-0.2-0.6-0.5-0.6-0.8l-1.9-8.7l12.9-2.9l1.9,8.7
			c0.1,0.4,0,0.7-0.2,1C179.7,43.5,179.3,43.7,178.9,43.8z"/>
		
			<linearGradient id="SVGID_3_" gradientUnits="userSpaceOnUse" x1="-6.3272" y1="1321.9497" x2="21.056" y2="1321.9497" gradientTransform="matrix(6.640000e-02 0.299 0.299 -6.640000e-02 -224.0012 124.8983)">
			<stop  offset="3.900000e-03" style="stop-color:#424242"/>
			<stop  offset="0.2314" style="stop-color:#393939"/>
			<stop  offset="0.6118" style="stop-color:#1F1F1F"/>
			<stop  offset="0.8078" style="stop-color:#0F0F0F"/>
		</linearGradient>
		<path class="st7" d="M176.9,42.5l-8.5,1.9c-0.3,0.1-0.7,0-1-0.1c-0.3-0.2-0.5-0.4-0.5-0.7l-1.6-7.1l11.1-2.5l1.6,7.1
			c0.1,0.3,0,0.6-0.2,0.8C177.6,42.2,177.3,42.4,176.9,42.5z"/>
		<g>
			<path class="st6" d="M178.2,26.9c0.7,3.7,0.6,6.8-0.4,9.4c-0.2,0.6-0.6,1.1-1.1,1.7c-0.7,0.7-1.5,1.1-2.4,1.3
				c-1.6,0.2-3.2-0.6-4.6-2.5l1.8-1.4c0.9,1.2,1.7,1.7,2.5,1.6c0.4-0.1,0.8-0.3,1.2-0.7c0.3-0.3,0.5-0.6,0.6-0.8
				c0.9-2.3,1-5,0.3-8.3c-0.6-3-1.7-5.6-3.1-7.7c-0.6-0.9-1.2-1.6-1.8-2c-0.6-0.5-1.2-0.7-1.7-0.7c-0.5,0-1,0.2-1.3,0.6
				c-0.6,0.8-0.9,2.2-0.8,4.4c0.1,1.7,0.3,3.4,0.7,5.1l-2.2,0.6c-0.4-1.5-0.6-3.1-0.8-4.9c-0.2-3.1,0.2-5.3,1.3-6.6
				c0.8-1,1.8-1.5,3.1-1.5c0.9,0,1.8,0.3,2.8,1c0.9,0.6,1.8,1.6,2.6,2.8C176.3,20.6,177.5,23.5,178.2,26.9z"/>
		</g>
		<path class="st6" d="M166.5,20.9c-0.6-0.9-1.2-1.6-1.8-2c-0.6-0.5-1.2-0.7-1.7-0.7c-0.5,0-1,0.2-1.3,0.6c-0.6,0.8-0.9,2.2-0.8,4.4
			c0.1,1.7,0.3,3.4,0.7,5.1l-2.2,0.5c-0.4-1.6-0.6-3.2-0.8-4.9c-0.2-3.1,0.2-5.3,1.3-6.6c0.8-1,1.8-1.5,3.1-1.5
			c0.9,0,1.8,0.3,2.7,0.9c0.9,0.6,1.8,1.6,2.6,2.8c1.7,2.4,2.9,5.4,3.5,8.7c0.7,3.6,0.6,6.8-0.4,9.4c-0.2,0.6-0.6,1.1-1.1,1.7
			c-0.7,0.7-1.5,1.1-2.4,1.2c-0.6,0.1-1.2,0-1.8-0.2l-0.7-3.3c0.8,0.9,1.5,1.4,2.2,1.3c0.4-0.1,0.8-0.3,1.2-0.7
			c0.3-0.3,0.5-0.6,0.6-0.8c0.9-2.3,1-5,0.3-8.3C169,25.6,168,23,166.5,20.9z"/>
	</g>
	<g>
		<path class="st4" d="M115,57.8L105,60c-0.4,0.1-0.8,0-1.1-0.1c-0.3-0.2-0.6-0.5-0.6-0.8l-1.9-8.7l12.9-2.9l1.9,8.7
			c0.1,0.4,0,0.7-0.2,1C115.7,57.5,115.4,57.7,115,57.8z"/>
		
			<linearGradient id="SVGID_4_" gradientUnits="userSpaceOnUse" x1="-6.0308" y1="1421.8407" x2="21.3525" y2="1421.8407" gradientTransform="matrix(6.640000e-02 0.299 0.299 -6.640000e-02 -317.8508 145.4481)">
			<stop  offset="3.900000e-03" style="stop-color:#424242"/>
			<stop  offset="0.2314" style="stop-color:#393939"/>
			<stop  offset="0.6118" style="stop-color:#1F1F1F"/>
			<stop  offset="0.8078" style="stop-color:#0F0F0F"/>
		</linearGradient>
		<path class="st8" d="M113,56.5l-8.5,1.9c-0.3,0.1-0.7,0-1-0.1c-0.3-0.2-0.5-0.4-0.5-0.7l-1.6-7.1l11.1-2.5l1.6,7.1
			c0.1,0.3,0,0.6-0.2,0.8C113.6,56.2,113.3,56.4,113,56.5z"/>
		<g>
			<path class="st6" d="M114.2,40.9c0.7,3.7,0.6,6.8-0.4,9.4c-0.2,0.6-0.6,1.1-1.1,1.7c-0.7,0.7-1.5,1.1-2.4,1.3
				c-1.6,0.2-3.2-0.6-4.6-2.5l1.8-1.4c0.9,1.2,1.7,1.8,2.5,1.6c0.4-0.1,0.8-0.3,1.2-0.7c0.3-0.3,0.5-0.6,0.6-0.8
				c0.9-2.3,1-5,0.3-8.3c-0.6-3-1.7-5.6-3.1-7.7c-0.6-0.9-1.2-1.6-1.8-2c-0.6-0.5-1.2-0.7-1.7-0.7c-0.5,0-1,0.2-1.3,0.6
				c-0.6,0.8-0.9,2.2-0.8,4.4c0.1,1.7,0.3,3.4,0.7,5.1l-2.2,0.6c-0.4-1.5-0.6-3.1-0.8-4.9c-0.2-3.1,0.2-5.3,1.3-6.6
				c0.8-1,1.8-1.5,3.1-1.5c0.9,0,1.8,0.3,2.8,1c0.9,0.6,1.8,1.6,2.6,2.8C112.4,34.6,113.5,37.5,114.2,40.9z"/>
		</g>
		<path class="st6" d="M102.5,34.9c-0.6-0.9-1.2-1.6-1.8-2c-0.6-0.5-1.2-0.7-1.7-0.7c-0.6,0-1,0.2-1.3,0.6c-0.6,0.8-0.9,2.2-0.8,4.4
			c0.1,1.7,0.3,3.4,0.7,5.1l-2.2,0.5c-0.4-1.6-0.6-3.2-0.8-4.9c-0.2-3.1,0.2-5.3,1.3-6.6c0.8-1,1.8-1.5,3.1-1.5c0.9,0,1.8,0.3,2.7,1
			c0.9,0.6,1.8,1.6,2.6,2.8c1.7,2.4,2.9,5.4,3.5,8.7c0.7,3.6,0.6,6.8-0.4,9.4c-0.2,0.6-0.6,1.1-1.1,1.7c-0.7,0.7-1.5,1.1-2.4,1.2
			c-0.6,0.1-1.2,0-1.8-0.2l-0.7-3.3c0.8,0.9,1.5,1.4,2.2,1.3c0.4-0.1,0.8-0.3,1.2-0.7c0.3-0.3,0.5-0.6,0.6-0.8c0.9-2.3,1-5,0.3-8.3
			C105.1,39.6,104,37,102.5,34.9z"/>
	</g>
	<g>
		<path class="st4" d="M148.7,50.1l-9.9,2.2c-0.4,0.1-0.8,0-1.1-0.1c-0.3-0.2-0.6-0.5-0.6-0.8l-1.9-8.7l12.9-2.9l1.9,8.7
			c0.1,0.4,0,0.7-0.2,1C149.4,49.9,149.1,50.1,148.7,50.1z"/>
		
			<linearGradient id="SVGID_5_" gradientUnits="userSpaceOnUse" x1="-5.7694" y1="1369.0604" x2="21.6145" y2="1369.0604" gradientTransform="matrix(6.640000e-02 0.299 0.299 -6.640000e-02 -268.3508 134.1981)">
			<stop  offset="3.900000e-03" style="stop-color:#424242"/>
			<stop  offset="0.2314" style="stop-color:#393939"/>
			<stop  offset="0.6118" style="stop-color:#1F1F1F"/>
			<stop  offset="0.8078" style="stop-color:#0F0F0F"/>
		</linearGradient>
		<path class="st9" d="M146.7,48.8l-8.5,1.9c-0.3,0.1-0.7,0-1-0.1c-0.3-0.2-0.5-0.4-0.5-0.7l-1.6-7.1l11.1-2.5l1.6,7.1
			c0.1,0.3,0,0.6-0.2,0.8C147.3,48.6,147,48.7,146.7,48.8z"/>
		<g>
			<path class="st6" d="M147.9,33.2c0.7,3.7,0.6,6.8-0.4,9.4c-0.2,0.6-0.6,1.1-1.1,1.7c-0.7,0.7-1.5,1.1-2.4,1.3
				c-1.6,0.2-3.2-0.6-4.6-2.5l1.8-1.4c0.9,1.2,1.7,1.8,2.5,1.6c0.4-0.1,0.8-0.3,1.2-0.7c0.3-0.3,0.5-0.6,0.6-0.8
				c0.9-2.3,1-5,0.3-8.3c-0.6-3-1.7-5.6-3.1-7.7c-0.6-0.9-1.2-1.6-1.8-2c-0.6-0.5-1.2-0.7-1.7-0.7c-0.5,0-1,0.2-1.3,0.6
				c-0.6,0.8-0.9,2.2-0.8,4.4c0.1,1.7,0.3,3.4,0.7,5.1l-2.2,0.6c-0.4-1.5-0.6-3.1-0.8-4.9c-0.2-3.1,0.2-5.3,1.3-6.6
				c0.8-1,1.8-1.5,3.1-1.5c0.9,0,1.8,0.3,2.8,1c0.9,0.6,1.8,1.6,2.6,2.8C146.1,27,147.3,29.9,147.9,33.2z"/>
		</g>
		<path class="st6" d="M136.3,27.2c-0.6-0.9-1.2-1.6-1.8-2c-0.6-0.5-1.2-0.7-1.7-0.7c-0.5,0-1,0.2-1.3,0.6c-0.6,0.8-0.9,2.2-0.8,4.4
			c0.1,1.7,0.3,3.4,0.7,5.1l-2.2,0.5c-0.4-1.6-0.6-3.2-0.8-4.9c-0.2-3.1,0.2-5.3,1.3-6.6c0.8-1,1.8-1.5,3.1-1.5
			c0.9,0,1.8,0.3,2.7,0.9c0.9,0.6,1.8,1.6,2.6,2.8c1.7,2.4,2.9,5.4,3.5,8.7c0.7,3.6,0.6,6.8-0.4,9.4c-0.2,0.6-0.6,1.1-1.1,1.7
			c-0.7,0.7-1.5,1.1-2.4,1.2c-0.6,0.1-1.2,0-1.8-0.2l-0.7-3.3c0.8,0.9,1.5,1.4,2.2,1.3c0.4-0.1,0.8-0.3,1.2-0.7
			c0.3-0.3,0.5-0.6,0.6-0.8c0.9-2.3,1-5,0.3-8.3C138.8,31.9,137.8,29.3,136.3,27.2z"/>
	</g>
</g>
<g>
	<g>
		<g>
			<path d="M93,98.9c0.5-0.9-1-2.8-2.3-4.7c-1.3-1.9-2.5-3.8-1.9-5.1c1.1-2.3,7.4,0,9-0.9c0.1,0,0.2-0.2,0.3-0.2
				c0.6-0.8-0.9-2.5-1.9-4.2L76,81.9l14.6,17.6C91.7,99.7,92.7,99.5,93,98.9z"/>
			<path class="st10" d="M117.8,130.1c0.8-1.5,5.4-0.2,9.4,0.3c2.7,0.3,5,0.3,6.1-0.9L90.7,94.2c1.3,2,2.7,3.9,2.3,4.7
				c-0.3,0.6-1.3,0.7-2.5,0.6l29.2,35.1C118.3,132.6,117.4,131,117.8,130.1z"/>
			<path class="st11" d="M133.7,129.1c0.1-0.1,0.1-0.3,0.2-0.5l0-0.2c0.2-1.5-0.9-3.8-2.4-6.3c-2.7-4.6-6.5-10-4.9-13.4
				c1.8-3.7,8.4-2.6,13.2-2.5c2.4,0.1,4.3,0,5-1.1c0.3-0.4,0.3-1,0.2-1.6c-0.1-0.5-0.2-1-0.5-1.5c-0.1-0.2-0.1-0.4-0.3-0.5
				L97.8,88.2c-1.5,0.9-7.7-1.4-9,0.9c-0.6,1.2,0.6,3.2,1.9,5.1l42.6,35.3C133.5,129.3,133.7,129.2,133.7,129.1z"/>
			<path class="st12" d="M98,88.4L98,88.4l46.4,13.2c-0.3-0.6-0.6-1.2-1-1.9c-2-3.4-4.8-7.3-3.5-9.5c0.8-1.3,3.1-1.8,5.8-1.8
				l-49.6-4.5c1.1,1.6,2.5,3.3,1.9,4.2c-0.1,0.1-0.2,0.2-0.3,0.2L98,88.4z"/>
			<path class="st13" d="M266.4,163.1l-125-66.7c0.1,0.2,3.1,5.4,3.2,5.6c0.3,0.5,0.4,1.1,0.5,1.5c0.1,0.6,0.1,1.2-0.2,1.6
				c-0.6,1-2.6,1.2-5,1.1c-4.8-0.2-11.4-1.2-13.2,2.5c-1.6,3.4,2.2,8.8,4.9,13.4c1.5,2.5,2.6,4.7,2.4,6.3l0,0.2
				c0,0.2-0.1,0.3-0.2,0.5c-0.1,0.1-0.2,0.4-0.4,0.5l116,66.2L266.4,163.1z"/>
			<path class="st14" d="M250.9,191.3l-117.5-61.8c-1.1,1.2-3.5,1.2-6.1,0.9c-4.1-0.5-8.7-1.7-9.4-0.3c-0.5,0.9,0.5,2.5,2,4.6
				l3.2,3.9l117.5,61.8L250.9,191.3z"/>
			<path class="st15" d="M267.4,150.9L149.2,88.7l-3.5-0.3c-2.6,0-5,0.4-5.8,1.8c-1.4,2.3,1.4,6.1,3.5,9.5c0.4,0.6,0.7,1.2,1,1.9
				l117.2,61.7L267.4,150.9z"/>
		</g>
		<g>
			<path class="st16" d="M243.2,202c3.8-2.7,9.5-8.6,12.5-11.9l-35.1-19.2c-2,3.8-5.9,11.3-8,15.1
				C219.7,189.5,236.3,198.3,243.2,202z"/>
			<path class="st17" d="M262.2,180L262.2,180c2.3-4.3,4.5-10.9,5.7-15.7l-34.4-18c-4.7,8.8-10.1,19.3-14.8,28.1l34.7,18.2
				C256.8,188.9,259.8,184.6,262.2,180z"/>
			<path class="st18" d="M269.4,152.1c-6.9-3.6-23.6-12.4-30.5-16c-2.1,4.1-4.2,8-6.3,12l34.8,18.3
				C268.6,161.8,269.3,157,269.4,152.1z"/>
		</g>
	</g>
	<g>
		
			<rect x="205.5" y="166.5" transform="matrix(0.4655 -0.885 0.885 0.4655 -44.5044 282.8929)" class="st19" width="12.9" height="23.6"/>
		
			<rect x="225.2" y="128.2" transform="matrix(0.4655 -0.8851 0.8851 0.4655 0.1056 280.1937)" class="st20" width="13.5" height="23.6"/>
		
			<rect x="207" y="147.5" transform="matrix(0.4655 -0.8851 0.8851 0.4655 -22.3683 281.576)" class="st21" width="29.8" height="23.6"/>
	</g>
</g>
</svg>
