<?xml version="1.0" encoding="utf-8"?>
<!-- Generator: Adobe Illustrator 20.0.0, SVG Export Plug-In . SVG Version: 6.00 Build 0)  -->
<svg version="1.1" id="Layer_1" xmlns="http://www.w3.org/2000/svg" xmlns:xlink="http://www.w3.org/1999/xlink" x="0px" y="0px"
	 viewBox="0 0 300 250" style="enable-background:new 0 0 300 250;" xml:space="preserve">
<style type="text/css">
	.st0{fill:#840003;}
	.st1{fill:url(#SVGID_1_);}
	.st2{fill:#EFF2F5;}
	.st3{fill:#CACBD3;}
	.st4{fill:url(#SVGID_2_);}
	.st5{fill:#3F3F3F;}
	.st6{fill:url(#SVGID_3_);}
	.st7{fill:url(#SVGID_4_);}
	.st8{fill:url(#SVGID_5_);}
	.st9{fill:#E8813C;}
	.st10{fill:#F39150;}
	.st11{fill:#F5A26D;}
	.st12{fill:#FFBE23;}
	.st13{fill:#E3A922;}
	.st14{fill:#FFCF5E;}
	.st15{fill:#DE4B49;}
	.st16{fill:#E95F5E;}
	.st17{fill:#F08281;}
	.st18{fill:#C4C4C4;}
	.st19{fill:#ECECEC;}
	.st20{fill:#D9D9D9;}
</style>
<g>
	<path class="st0" d="M42.8,72.8l142.7-31.2L216.3,180c0.3,1.2,0.1,2.4-0.6,3.5c-0.6,1.1-1.6,1.7-2.8,2L78.3,215.3
		c-1.2,0.3-2.3,0.1-3.3-0.6c-1-0.7-1.7-1.7-1.9-2.9L42.2,73.4L42.8,72.8z"/>
	
		<linearGradient id="SVGID_1_" gradientUnits="userSpaceOnUse" x1="633.1467" y1="1434.9301" x2="1111.6237" y2="1434.9301" gradientTransform="matrix(0.299 -6.640000e-02 6.640000e-02 0.299 -225.8716 -242.7279)">
		<stop  offset="0.3608" style="stop-color:#D42A29"/>
		<stop  offset="0.7137" style="stop-color:#C70F13"/>
		<stop  offset="1" style="stop-color:#C00006"/>
	</linearGradient>
	<path class="st1" d="M73.6,211.1L42.8,72.8L185.9,41l30.7,138.4c0.3,1.3,0.1,2.4-0.6,3.5s-1.6,1.7-2.8,2L78.9,214.7
		c-1.2,0.3-2.3,0.1-3.3-0.6C74.5,213.3,73.9,212.4,73.6,211.1z"/>
	<path class="st2" d="M78.3,199.7c-1-0.6-1.6-1.5-1.8-2.7l-28-125.9l133.3-29.6l28,125.9c0.3,1.1,0.1,2.2-0.6,3.1
		c-0.6,1-1.5,1.6-2.6,1.8L81.5,200.1C80.3,200.5,79.3,200.3,78.3,199.7z"/>
	<g>
		<path class="st3" d="M80.7,81.7l-9.1,2c-0.4,0.1-0.7,0-1-0.1c-0.3-0.2-0.6-0.5-0.6-0.7l-1.7-8l11.9-2.7l1.7,8
			c0.1,0.4,0,0.6-0.2,0.9C81.3,81.4,81,81.6,80.7,81.7z"/>
		
			<linearGradient id="SVGID_2_" gradientUnits="userSpaceOnUse" x1="864.9719" y1="-1244.501" x2="890.1695" y2="-1244.501" gradientTransform="matrix(6.640000e-02 0.299 -0.299 6.640000e-02 -356.2806 -102.1675)">
			<stop  offset="3.900000e-03" style="stop-color:#424242"/>
			<stop  offset="0.2314" style="stop-color:#393939"/>
			<stop  offset="0.6118" style="stop-color:#1F1F1F"/>
			<stop  offset="0.8078" style="stop-color:#0F0F0F"/>
		</linearGradient>
		<path class="st4" d="M78.8,80.5L71,82.3c-0.3,0.1-0.6,0-0.9-0.1c-0.3-0.2-0.5-0.4-0.5-0.6L68.1,75l10.2-2.3l1.5,6.5
			c0.1,0.3,0,0.6-0.2,0.7C79.4,80.2,79.2,80.4,78.8,80.5z"/>
		<g>
			<path class="st5" d="M80,66.2c0.6,3.4,0.6,6.3-0.4,8.6c-0.2,0.6-0.6,1-1,1.6c-0.6,0.6-1.4,1-2.2,1.2c-1.5,0.2-2.9-0.6-4.2-2.3
				l1.7-1.3c0.8,1.1,1.6,1.6,2.3,1.5c0.4-0.1,0.7-0.3,1.1-0.6c0.3-0.3,0.5-0.6,0.6-0.7c0.8-2.1,0.9-4.6,0.3-7.6
				c-0.6-2.8-1.6-5.2-2.9-7.1c-0.6-0.8-1.1-1.5-1.7-1.8c-0.6-0.5-1.1-0.6-1.6-0.6c-0.5,0-0.9,0.2-1.2,0.6c-0.6,0.7-0.8,2-0.7,4
				c0.1,1.6,0.3,3.1,0.6,4.7l-2,0.6c-0.4-1.4-0.6-2.9-0.7-4.5c-0.2-2.9,0.2-4.9,1.2-6.1c0.7-0.9,1.7-1.4,2.9-1.4
				c0.8,0,1.7,0.3,2.6,0.9c0.8,0.6,1.7,1.5,2.4,2.6C78.3,60.4,79.4,63,80,66.2z"/>
		</g>
		<path class="st5" d="M69.3,60.6c-0.6-0.8-1.1-1.5-1.7-1.8c-0.6-0.5-1.1-0.6-1.6-0.6c-0.5,0-0.9,0.2-1.2,0.6c-0.6,0.7-0.8,2-0.7,4
			c0.1,1.6,0.3,3.1,0.6,4.7l-2,0.4c-0.4-1.5-0.6-2.9-0.7-4.5c-0.2-2.9,0.2-4.9,1.2-6.1c0.7-0.9,1.7-1.4,2.9-1.4
			c0.8,0,1.7,0.3,2.5,0.8c0.8,0.6,1.7,1.5,2.4,2.6c1.6,2.2,2.7,5,3.2,8c0.6,3.3,0.6,6.3-0.4,8.6c-0.2,0.6-0.6,1-1,1.6
			c-0.6,0.6-1.4,1-2.2,1.1c-0.6,0.1-1.1,0-1.7-0.2l-0.6-3c0.7,0.8,1.4,1.3,2,1.2c0.4-0.1,0.7-0.3,1.1-0.6c0.3-0.3,0.5-0.6,0.6-0.7
			c0.8-2.1,0.8-4.6,0.3-7.6C71.6,65,70.6,62.6,69.3,60.6z"/>
	</g>
	<g>
		<path class="st3" d="M170.7,62.1l-9.1,2c-0.4,0.1-0.7,0-1-0.1c-0.3-0.2-0.6-0.5-0.6-0.7l-1.7-8l11.9-2.7l1.7,8
			c0.1,0.4,0,0.6-0.2,0.9C171.5,61.8,171.1,62,170.7,62.1z"/>
		
			<linearGradient id="SVGID_3_" gradientUnits="userSpaceOnUse" x1="864.2167" y1="-1065.4951" x2="889.4111" y2="-1065.4951" gradientTransform="matrix(6.640000e-02 0.299 -0.299 6.640000e-02 -212.6312 -133.4175)">
			<stop  offset="3.900000e-03" style="stop-color:#424242"/>
			<stop  offset="0.2314" style="stop-color:#393939"/>
			<stop  offset="0.6118" style="stop-color:#1F1F1F"/>
			<stop  offset="0.8078" style="stop-color:#0F0F0F"/>
		</linearGradient>
		<path class="st6" d="M168.9,60.9l-7.8,1.7c-0.3,0.1-0.6,0-0.9-0.1c-0.3-0.2-0.5-0.4-0.5-0.6l-1.5-6.5l10.2-2.3l1.5,6.5
			c0.1,0.3,0,0.6-0.2,0.7C169.5,60.6,169.3,60.8,168.9,60.9z"/>
		<g>
			<path class="st5" d="M170.1,46.6c0.6,3.4,0.6,6.3-0.4,8.6c-0.2,0.6-0.6,1-1,1.6c-0.6,0.6-1.4,1-2.2,1.2c-1.5,0.2-2.9-0.6-4.2-2.3
				l1.7-1.3c0.8,1.1,1.6,1.6,2.3,1.5c0.4-0.1,0.7-0.3,1.1-0.6c0.3-0.3,0.5-0.6,0.6-0.7c0.8-2.1,0.9-4.6,0.3-7.6
				c-0.6-2.8-1.6-5.2-2.9-7.1c-0.6-0.8-1.1-1.5-1.7-1.8c-0.6-0.5-1.1-0.6-1.6-0.6s-0.9,0.2-1.2,0.6c-0.6,0.7-0.8,2-0.7,4
				c0.1,1.6,0.3,3.1,0.6,4.7l-2,0.6c-0.4-1.4-0.6-2.9-0.7-4.5c-0.2-2.9,0.2-4.9,1.2-6.1c0.7-0.9,1.7-1.4,2.9-1.4
				c0.8,0,1.7,0.3,2.6,0.9c0.8,0.6,1.7,1.5,2.4,2.6C168.3,40.8,169.4,43.4,170.1,46.6z"/>
		</g>
		<path class="st5" d="M159.3,41c-0.6-0.8-1.1-1.5-1.7-1.8c-0.6-0.5-1.1-0.6-1.6-0.6s-0.9,0.2-1.2,0.6c-0.6,0.7-0.8,2-0.7,4
			c0.1,1.6,0.3,3.1,0.6,4.7l-2,0.5c-0.4-1.5-0.6-2.9-0.7-4.5c-0.2-2.9,0.2-4.9,1.2-6.1c0.7-0.9,1.7-1.4,2.9-1.4
			c0.8,0,1.7,0.3,2.5,0.8c0.8,0.6,1.7,1.5,2.4,2.6c1.6,2.2,2.7,5,3.2,8c0.6,3.3,0.6,6.3-0.4,8.6c-0.2,0.6-0.6,1-1,1.6
			c-0.6,0.6-1.4,1-2.2,1.1c-0.6,0.1-1.1,0-1.7-0.2l-0.6-3c0.7,0.8,1.4,1.3,2,1.2c0.4-0.1,0.7-0.3,1.1-0.6c0.3-0.3,0.5-0.6,0.6-0.7
			c0.8-2.1,0.9-4.6,0.3-7.6C161.6,45.4,160.7,43,159.3,41z"/>
	</g>
	<g>
		<path class="st3" d="M111.9,75l-9.2,2c-0.4,0.1-0.7,0-1-0.1c-0.3-0.2-0.6-0.5-0.6-0.7l-1.7-8l11.9-2.7l1.7,8
			c0.1,0.4,0,0.6-0.2,0.9C112.6,74.7,112.3,74.9,111.9,75z"/>
		
			<linearGradient id="SVGID_4_" gradientUnits="userSpaceOnUse" x1="864.548" y1="-1182.6608" x2="889.7425" y2="-1182.6608" gradientTransform="matrix(6.640000e-02 0.299 -0.299 6.640000e-02 -306.4808 -112.8677)">
			<stop  offset="3.900000e-03" style="stop-color:#424242"/>
			<stop  offset="0.2314" style="stop-color:#393939"/>
			<stop  offset="0.6118" style="stop-color:#1F1F1F"/>
			<stop  offset="0.8078" style="stop-color:#0F0F0F"/>
		</linearGradient>
		<path class="st7" d="M110.1,73.8l-7.8,1.7c-0.3,0.1-0.6,0-0.9-0.1c-0.3-0.2-0.5-0.4-0.5-0.6l-1.5-6.5l10.2-2.3l1.5,6.5
			c0.1,0.3,0,0.6-0.2,0.7C110.7,73.5,110.4,73.7,110.1,73.8z"/>
		<g>
			<path class="st5" d="M111.2,59.5c0.6,3.4,0.6,6.3-0.4,8.6c-0.2,0.6-0.6,1-1,1.6c-0.6,0.6-1.4,1-2.2,1.2c-1.5,0.2-2.9-0.6-4.2-2.3
				l1.7-1.3c0.8,1.1,1.6,1.7,2.3,1.5c0.4-0.1,0.7-0.3,1.1-0.6c0.3-0.3,0.5-0.6,0.6-0.7c0.8-2.1,0.9-4.6,0.3-7.6
				c-0.6-2.8-1.6-5.2-2.9-7.1c-0.6-0.8-1.1-1.5-1.7-1.8c-0.6-0.5-1.1-0.6-1.6-0.6s-0.9,0.2-1.2,0.6c-0.6,0.7-0.8,2-0.7,4
				c0.1,1.6,0.3,3.1,0.6,4.7l-2,0.6c-0.4-1.4-0.6-2.9-0.7-4.5c-0.2-2.9,0.2-4.9,1.2-6.1c0.7-0.9,1.7-1.4,2.9-1.4
				c0.8,0,1.7,0.3,2.6,0.9c0.8,0.6,1.7,1.5,2.4,2.6C109.5,53.7,110.6,56.3,111.2,59.5z"/>
		</g>
		<path class="st5" d="M100.4,53.9c-0.6-0.8-1.1-1.5-1.7-1.8c-0.6-0.5-1.1-0.6-1.6-0.6c-0.6,0-0.9,0.2-1.2,0.6c-0.6,0.7-0.8,2-0.7,4
			c0.1,1.6,0.3,3.1,0.6,4.7l-2,0.5c-0.4-1.5-0.6-2.9-0.7-4.5c-0.2-2.9,0.2-4.9,1.2-6.1c0.7-0.9,1.7-1.4,2.9-1.4
			c0.8,0,1.7,0.3,2.5,0.9c0.8,0.6,1.7,1.5,2.4,2.6c1.6,2.2,2.7,5,3.2,8c0.6,3.3,0.6,6.3-0.4,8.6c-0.2,0.6-0.6,1-1,1.6
			c-0.6,0.6-1.4,1-2.2,1.1c-0.6,0.1-1.1,0-1.7-0.2l-0.6-3c0.7,0.8,1.4,1.3,2,1.2c0.4-0.1,0.7-0.3,1.1-0.6c0.3-0.3,0.5-0.6,0.6-0.7
			c0.8-2.1,0.9-4.6,0.3-7.6C102.8,58.3,101.8,55.9,100.4,53.9z"/>
	</g>
	<g>
		<path class="st3" d="M142.9,67.9l-9.1,2c-0.4,0.1-0.7,0-1-0.1c-0.3-0.2-0.6-0.5-0.6-0.7l-1.7-8l11.9-2.7l1.7,8
			c0.1,0.4,0,0.6-0.2,0.9C143.6,67.7,143.3,67.9,142.9,67.9z"/>
		
			<linearGradient id="SVGID_5_" gradientUnits="userSpaceOnUse" x1="864.8541" y1="-1120.7676" x2="890.0491" y2="-1120.7676" gradientTransform="matrix(6.640000e-02 0.299 -0.299 6.640000e-02 -256.9808 -124.1177)">
			<stop  offset="3.900000e-03" style="stop-color:#424242"/>
			<stop  offset="0.2314" style="stop-color:#393939"/>
			<stop  offset="0.6118" style="stop-color:#1F1F1F"/>
			<stop  offset="0.8078" style="stop-color:#0F0F0F"/>
		</linearGradient>
		<path class="st8" d="M141.1,66.7l-7.8,1.7c-0.3,0.1-0.6,0-0.9-0.1c-0.3-0.2-0.5-0.4-0.5-0.6l-1.5-6.5l10.2-2.3l1.5,6.5
			c0.1,0.3,0,0.6-0.2,0.7C141.7,66.5,141.4,66.6,141.1,66.7z"/>
		<g>
			<path class="st5" d="M142.2,52.4c0.6,3.4,0.6,6.3-0.4,8.6c-0.2,0.6-0.6,1-1,1.6c-0.6,0.6-1.4,1-2.2,1.2c-1.5,0.2-2.9-0.6-4.2-2.3
				l1.7-1.3c0.8,1.1,1.6,1.7,2.3,1.5c0.4-0.1,0.7-0.3,1.1-0.6c0.3-0.3,0.5-0.6,0.6-0.7c0.8-2.1,0.9-4.6,0.3-7.6
				c-0.6-2.8-1.6-5.2-2.9-7.1c-0.6-0.8-1.1-1.5-1.7-1.8c-0.6-0.5-1.1-0.6-1.6-0.6c-0.5,0-0.9,0.2-1.2,0.6c-0.6,0.7-0.8,2-0.7,4
				c0.1,1.6,0.3,3.1,0.6,4.7l-2,0.6c-0.4-1.4-0.6-2.9-0.7-4.5c-0.2-2.9,0.2-4.9,1.2-6.1c0.7-0.9,1.7-1.4,2.9-1.4
				c0.8,0,1.7,0.3,2.6,0.9c0.8,0.6,1.7,1.5,2.4,2.6C140.6,46.7,141.7,49.3,142.2,52.4z"/>
		</g>
		<path class="st5" d="M131.5,46.8c-0.6-0.8-1.1-1.5-1.7-1.8c-0.6-0.5-1.1-0.6-1.6-0.6s-0.9,0.2-1.2,0.6c-0.6,0.7-0.8,2-0.7,4
			c0.1,1.6,0.3,3.1,0.6,4.7l-2,0.5c-0.4-1.5-0.6-2.9-0.7-4.5c-0.2-2.9,0.2-4.9,1.2-6.1c0.7-0.9,1.7-1.4,2.9-1.4
			c0.8,0,1.7,0.3,2.5,0.8c0.8,0.6,1.7,1.5,2.4,2.6c1.6,2.2,2.7,5,3.2,8c0.6,3.3,0.6,6.3-0.4,8.6c-0.2,0.6-0.6,1-1,1.6
			c-0.6,0.6-1.4,1-2.2,1.1c-0.6,0.1-1.1,0-1.7-0.2l-0.6-3c0.7,0.8,1.4,1.3,2,1.2c0.4-0.1,0.7-0.3,1.1-0.6c0.3-0.3,0.5-0.6,0.6-0.7
			c0.8-2.1,0.9-4.6,0.3-7.6C133.8,51.2,132.9,48.8,131.5,46.8z"/>
	</g>
</g>
<g>
	<g>
		<g>
			<path d="M102.7,112.8c0.5-0.8-0.9-2.6-2.1-4.3c-1.2-1.7-2.3-3.5-1.7-4.7c1-2.1,6.8,0,8.3-0.8c0.1,0,0.2-0.2,0.3-0.2
				c0.6-0.7-0.8-2.3-1.7-3.9l-18.6-1.7l13.4,16.2C101.5,113.6,102.4,113.4,102.7,112.8z"/>
			<path class="st9" d="M125.5,141.5c0.7-1.4,5-0.2,8.6,0.3c2.5,0.3,4.6,0.3,5.6-0.8l-39.2-32.5c1.2,1.8,2.5,3.6,2.1,4.3
				c-0.3,0.6-1.2,0.6-2.3,0.6l26.9,32.3C126,143.8,125.1,142.3,125.5,141.5z"/>
			<path class="st10" d="M140.1,140.6c0.1-0.1,0.1-0.3,0.2-0.5V140c0.2-1.4-0.8-3.5-2.2-5.8c-2.5-4.2-6-9.2-4.5-12.3
				c1.7-3.4,7.7-2.4,12.1-2.3c2.2,0.1,4,0,4.6-1c0.3-0.4,0.3-0.9,0.2-1.5c-0.1-0.5-0.2-0.9-0.5-1.4c-0.1-0.2-0.1-0.4-0.3-0.5
				L107.1,103c-1.4,0.8-7.1-1.3-8.3,0.8c-0.6,1.1,0.6,2.9,1.7,4.7l39.2,32.5C140,140.8,140.1,140.7,140.1,140.6z"/>
			<path class="st11" d="M107.3,103.2L107.3,103.2l42.7,12.1c-0.3-0.6-0.6-1.1-0.9-1.7c-1.8-3.1-4.4-6.7-3.2-8.7
				c0.7-1.2,2.9-1.7,5.3-1.7L105.6,99c1,1.5,2.3,3,1.7,3.9c-0.1,0.1-0.2,0.2-0.3,0.2L107.3,103.2z"/>
			<path class="st12" d="M262.2,171.9l-115-61.4c0.1,0.2,2.9,5,2.9,5.2c0.3,0.5,0.4,1,0.5,1.4c0.1,0.6,0.1,1.1-0.2,1.5
				c-0.6,0.9-2.4,1.1-4.6,1c-4.4-0.2-10.5-1.1-12.1,2.3c-1.5,3.1,2,8.1,4.5,12.3c1.4,2.3,2.4,4.3,2.2,5.8v0.2c0,0.2-0.1,0.3-0.2,0.5
				c-0.1,0.1-0.2,0.4-0.4,0.5L246.6,202L262.2,171.9z"/>
			<path class="st13" d="M248,197.8L139.9,141c-1,1.1-3.2,1.1-5.6,0.8c-3.8-0.5-8-1.6-8.6-0.3c-0.5,0.8,0.5,2.3,1.8,4.2l2.9,3.6
				l108.1,56.9L248,197.8z"/>
			<path class="st14" d="M263.2,160.7l-108.8-57.2l-3.2-0.3c-2.4,0-4.6,0.4-5.3,1.7c-1.3,2.1,1.3,5.6,3.2,8.7
				c0.4,0.6,0.6,1.1,0.9,1.7l107.8,56.8L263.2,160.7z"/>
		</g>
		<g>
			<path class="st15" d="M240.9,207.7c3.5-2.5,8.7-7.9,11.5-10.9l-32.3-17.7c-1.8,3.5-5.4,10.4-7.4,13.9
				C219.3,196.2,234.5,204.3,240.9,207.7z"/>
			<path class="st16" d="M258.4,187.4L258.4,187.4c2.1-4,4.1-10,5.2-14.4L232,156.4c-4.3,8.1-9.3,17.8-13.6,25.9l31.9,16.7
				C253.4,195.6,256.2,191.7,258.4,187.4z"/>
			<path class="st17" d="M265,161.8c-6.3-3.3-21.7-11.4-28.1-14.7c-1.9,3.8-3.9,7.4-5.8,11l32,16.8
				C264.3,170.7,264.9,166.3,265,161.8z"/>
		</g>
	</g>
	<g>
		
			<rect x="206.2" y="175" transform="matrix(0.4655 -0.885 0.885 0.4655 -51.1258 287.1075)" class="st18" width="11.9" height="21.7"/>
		
			<rect x="224.4" y="139.8" transform="matrix(0.4655 -0.8851 0.8851 0.4655 -10.1177 284.6257)" class="st19" width="12.4" height="21.7"/>
		
			<rect x="207.6" y="157.6" transform="matrix(0.4655 -0.8851 0.8851 0.4655 -30.7551 285.8986)" class="st20" width="27.4" height="21.7"/>
	</g>
</g>
</svg>
