<?xml version="1.0" encoding="utf-8"?>
<!-- Generator: Adobe Illustrator 20.0.0, SVG Export Plug-In . SVG Version: 6.00 Build 0)  -->
<svg version="1.1" id="flash0.ai" xmlns="http://www.w3.org/2000/svg" xmlns:xlink="http://www.w3.org/1999/xlink" x="0px" y="0px"
	 viewBox="0 0 300 250" style="enable-background:new 0 0 300 250;" xml:space="preserve">
<style type="text/css">
	.st0{fill:#FFB000;}
	.st1{fill:#6AB04C;}
	.st2{fill:#5B9341;}
	.st3{fill:#74BC53;}
	.st4{fill:#51823A;}
	.st5{fill:#FFFFFF;}
	.st6{fill:#F2F2F2;}
	.st7{fill-rule:evenodd;clip-rule:evenodd;fill:#304554;}
	.st8{fill-rule:evenodd;clip-rule:evenodd;fill:#DEE3E5;}
	.st9{fill-rule:evenodd;clip-rule:evenodd;fill:#CCD3D6;}
	.st10{fill-rule:evenodd;clip-rule:evenodd;fill:#AAB8BF;}
</style>
<g>
	<path class="st0" d="M94.5,200.8c-2.5,0-3.1-2.8-4.4-38.7c-0.4-10.9-0.9-24.8-1.7-32.2c-0.5,5.1-0.9,13.3-1.2,19.8
		c-1.1,24.6-1.7,30.7-4.7,30.7c-3.2,0-3.9-5.9-4.6-12c-0.3-2.8-0.8-7.4-1.5-8.4c-0.7,0.3-1.3,2.8-1.7,4.6c-0.7,3.2-1.5,6.9-4.2,6.9
		c-2.2,0-3.2-1.5-3.8-2.4s-0.9-1.4-2.2-1.4h-5c-0.8,0-1.5-0.9-1.5-1.9c0-1,0.7-1.9,1.5-1.9h5c2.7,0,3.7,1.7,4.4,2.7
		c0.5,0.8,0.7,1.2,1.6,1.2c0.5-0.3,1.1-2.8,1.3-4.1c0.8-3.3,1.7-7.4,4.7-7.4c3.1,0,3.7,5.4,4.4,11.6c0.3,2.3,0.7,6.4,1.3,8.1
		c1-4.1,1.6-17.4,2-26.5c1-22.5,1.5-27.7,4.2-27.7c2.6,0,3.2,3.2,4.6,40.3c0.4,10,0.9,22.6,1.5,29.9c0.6-5.9,1-15.1,1.3-22.4
		c1.4-28.3,2-32.5,4.7-32.5c2.8,0,3.3,5.8,4.2,22.4c0.4,6.9,1,16.9,1.9,20.3c0.6-2.2,1-7.3,1.3-10.6c0.7-8.7,1.2-15.5,4.6-15.5
		c3.3,0,3.8,5.2,4.3,10.2c0.3,2.7,0.7,7.7,1.7,7.7c1,0,1.4-2.6,1.8-5.9c0.5-3.7,1.1-8.2,4.2-8.2c3.1,0,4,3.8,4.6,6.6
		c0.4,1.5,0.8,3.6,1.4,3.6c0.9,0,1.3-0.8,2.1-2.6c0.7-1.7,1.7-3.8,3.9-3.8c1.8,0,2.7,0.9,3.4,1.5c0.7,0.6,1.2,1,2.6,1h6
		c0.8,0,1.5,0.9,1.5,1.9c0,1-0.7,1.9-1.5,1.9h-6c-2.4,0-3.5-1-4.3-1.8c-0.6-0.5-0.9-0.8-1.7-0.8c-0.4,0-0.7,0.6-1.3,1.9
		c-0.8,1.8-2,4.5-4.7,4.5c-2.8,0-3.7-3.7-4.3-6.3c-0.6-2.7-1-4-1.7-4c-0.6,0-1,3.3-1.2,5c-0.5,3.8-1.2,9.1-4.8,9.1
		c-3.6,0-4.2-5.9-4.7-11c-0.2-2.2-0.6-6-1.2-6.8c-0.9,1.4-1.4,7.9-1.7,11.9c-0.7,8.6-1.2,14.8-4.4,14.8c-3.1,0-3.7-6.4-4.8-24.7
		c-0.3-5.1-0.7-11.6-1.2-15.6c-0.7,5.8-1.2,17-1.7,25.7C97.6,196.7,97,200.8,94.5,200.8z"/>
</g>
<g>
	<g>
		<path class="st1" d="M270.7,11.9L270.7,11.9l-48.1,26.2c-1.9,1-3.5,2.7-4.5,4.9c-0.4,0.8-1,1.5-1.8,2l-15.8,3.5
			c-0.9-0.1-1.8-0.4-2.5-1c-1.8-1.5-4.1-2.3-6.2-2.5l-54.6-3.2l0,0c-2-0.1-3.3,1.3-2.9,3.2l19.1,85.4c0.4,1.9,2.4,3.5,4.4,3.6
			l54.7,3.2c2.1,0.1,4.4,1,6.2,2.5c0.7,0.6,1.6,1,2.5,1l15.8-3.5c0.8-0.4,1.4-1.1,1.8-2c1-2.1,2.7-3.8,4.5-4.9l48.1-26.2
			c1.8-1,2.9-3.3,2.4-5.1l-19.1-85.4C274.2,11.7,272.4,10.9,270.7,11.9z"/>
		<path class="st2" d="M221.9,38.5c-1.6,1-3,2.6-3.9,4.5c-0.4,0.8-1,1.5-1.8,2l-15.8,3.5c-0.9-0.1-1.8-0.4-2.5-1
			c-1.3-1.1-2.8-1.8-4.3-2.2l20.6,92.3c1.5,0.4,3,1.1,4.3,2.2c0.7,0.6,1.6,1,2.5,1l15.8-3.5c0.8-0.4,1.4-1.1,1.8-2
			c0.9-1.9,2.3-3.4,3.9-4.5L221.9,38.5z"/>
		<path class="st3" d="M217.2,44.2c-0.3,0.3-0.6,0.5-0.9,0.7l-15.8,3.5c-0.4,0-0.8-0.1-1.1-0.2l20.6,92.3c0.4,0.1,0.8,0.2,1.1,0.2
			l15.8-3.5c0.3-0.2,0.6-0.4,0.9-0.7L217.2,44.2z"/>
		<g>
			<path class="st4" d="M246.8,98.6c-0.5,0.1-0.9-0.1-1.2-0.5c-0.3-0.5-0.1-1.2,0.4-1.4l33.4-18.2c0.5-0.3,1.2-0.1,1.4,0.4
				c0.3,0.5,0.1,1.2-0.4,1.4L247,98.5C246.9,98.6,246.8,98.6,246.8,98.6z"/>
		</g>
		<g>
			<path class="st4" d="M248.6,106.8c-0.5,0.1-0.9-0.1-1.2-0.5c-0.3-0.5-0.1-1.2,0.4-1.4l33.4-18.2c0.5-0.3,1.2-0.1,1.4,0.4
				c0.3,0.5,0.1,1.2-0.4,1.4l-33.4,18.2C248.8,106.8,248.7,106.8,248.6,106.8z"/>
		</g>
		
			<rect x="217.1" y="122.9" transform="matrix(-0.976 0.2179 -0.2179 -0.976 474.8904 202.0964)" class="st4" width="18.3" height="8.7"/>
		
			<rect x="215.6" y="119.5" transform="matrix(-0.976 0.2179 -0.2179 -0.976 470.3008 188.6733)" class="st4" width="18.3" height="1.5"/>
		
			<rect x="201.7" y="53.7" transform="matrix(0.976 -0.2179 0.2179 0.976 -7.5742 47.3332)" class="st4" width="18.3" height="8.7"/>
		
			<rect x="203.2" y="64.2" transform="matrix(0.976 -0.2179 0.2179 0.976 -9.0542 47.8392)" class="st4" width="18.3" height="1.5"/>
		<path class="st5" d="M216.2,44.9c0.8-0.4,1.4-1.1,1.8-2c1-2.1,2.7-3.8,4.5-4.9l45.2-24.6L255,11.2l-37.6,19.3
			c-5.6,2.7-9.2,9.5-9,16.1L216.2,44.9z"/>
		<path class="st6" d="M191.8,44.9c2.1,0.1,4.4,1,6.2,2.5c0.7,0.6,1.6,1,2.5,1l7.5-1.7c-2.6-6.1-8.8-10.7-14.9-10.7l-42.3-1.5
			l-10.5,7.4L191.8,44.9z"/>
	</g>
</g>
<g>
	<polygon class="st7" points="175,150.1 175,123.3 168,123.3 168,150.1 175,150.1 	"/>
	<polygon class="st7" points="30.7,150.1 30.7,123.3 23.6,123.3 23.6,150.1 30.7,150.1 	"/>
	<path class="st7" d="M101.7,63.3h-6.3c-9.7,0-18.5,2.5-26.1,6.8c-1.6,0.9-2.4,0.4-3.1-0.6l-5.2-8.2c9.8-6.2,21.6-9.8,34.4-9.8h6.3
		c14.5,0,27.6,4.1,38.2,11.3l-5.5,8.2c-0.7,1.1-1.7,1.1-2.8,0.4C123.3,66.3,113.1,63.3,101.7,63.3L101.7,63.3z"/>
	<path class="st8" d="M20.2,123.2v-16.6c0.1-36.8,33-65.1,74.5-65.1h7.3c43.2,0,76.7,27.7,76.7,64.5v17.5c0,0.9-0.2,1.6-1.6,1.6
		h-10.9c-1.5,0-1.6-0.6-1.6-1.7v-17.4c0-27.1-24.9-50.4-62.6-50.4h-7.3c-35.6,0-60.3,23.7-60.4,51v16.8c0,1-0.2,1.7-1.3,1.7H22.2
		C20.5,125.1,20.2,124.4,20.2,123.2L20.2,123.2z"/>
	<path class="st9" d="M163.3,206.9l4.9,1.8c0.8,0.3,1.6-0.1,2-1c7.3-11.9,13.4-26.8,14.8-40.8c0.2-0.9-0.1-1.7-1-2l-4.9-1.8
		L163.3,206.9L163.3,206.9z"/>
	<path class="st8" d="M131.1,217.3h18.1c3.3,0.2,6-1.2,7.4-5l20.9-57.7c1.4-3.8,0.2-6.7-2.5-8.6l-13.9-11.6
		c-0.5-0.5-1.7-0.8-2.1,0.3l-29.3,81C129.4,216.8,130.4,217.3,131.1,217.3L131.1,217.3z"/>
	<path class="st10" d="M121.4,211.8l7.2,4.6c0.4,0.3,0.8,0.4,1-0.3l29.5-81.7c0.2-0.6-0.1-0.8-0.6-0.9l-8.5-1.1
		c-1.6-0.2-3,0.9-3.9,3.2l-25.7,71.2C119.6,209.2,120,211,121.4,211.8L121.4,211.8z"/>
	<path class="st7" d="M157.6,209.2l4.9,1.8c0.8,0.3,1.7-0.1,2-1l17.6-48.6c0.3-0.8-0.1-1.7-1-2l-4.9-1.8L157.6,209.2L157.6,209.2z"
		/>
	<polygon class="st9" points="146.5,217.3 148.7,217.3 174.6,145.7 172.9,144.3 146.5,217.3 	"/>
	<path class="st9" d="M35.4,206.9l-4.9,1.8c-0.8,0.3-1.6-0.1-2-1c-7.3-11.9-13.4-26.8-14.8-40.8c-0.2-0.9,0.1-1.7,1-2l4.9-1.8
		L35.4,206.9L35.4,206.9z"/>
	<path class="st8" d="M67.6,217.3H49.5c-3.3,0.2-6-1.2-7.4-5l-20.9-57.7c-1.4-3.8-0.2-6.7,2.5-8.6l13.9-11.6
		c0.5-0.5,1.7-0.8,2.1,0.3l29.3,81C69.3,216.8,68.3,217.3,67.6,217.3L67.6,217.3z"/>
	<path class="st10" d="M77.3,211.8l-7.2,4.6c-0.4,0.3-0.8,0.4-1-0.3l-29.5-81.7c-0.2-0.6,0.1-0.8,0.6-0.9l8.5-1.1
		c1.6-0.2,3,0.9,3.9,3.2l25.7,71.2C79.1,209.2,78.7,211,77.3,211.8L77.3,211.8z"/>
	<path class="st7" d="M41.1,209.2l-4.9,1.8c-0.8,0.3-1.7-0.1-2-0.9l-17.6-48.6c-0.3-0.8,0.1-1.7,1-2l4.9-1.8L41.1,209.2L41.1,209.2z
		"/>
	<polygon class="st9" points="52.2,217.3 50,217.3 24.1,145.7 25.8,144.3 52.2,217.3 	"/>
</g>
</svg>
