<?xml version="1.0" encoding="utf-8"?>
<!-- Generator: Adobe Illustrator 20.0.0, SVG Export Plug-In . SVG Version: 6.00 Build 0)  -->
<svg version="1.1" id="Layer_1" xmlns="http://www.w3.org/2000/svg" xmlns:xlink="http://www.w3.org/1999/xlink" x="0px" y="0px"
	 viewBox="0 0 260 110" style="enable-background:new 0 0 260 110;" xml:space="preserve">
<style type="text/css">
	.st0{fill:#2d2d2d;}
	.st1{fill:#BF261F;}
	.st2{enable-background:new    ;}
</style>
<path class="st0" d="M226.7,108.7H33.3c-6.8,0-12.3-5.5-12.3-12.3V14.9c0-6.8,5.5-12.3,12.3-12.3h193.4c6.8,0,12.3,5.5,12.3,12.3
	v81.4C239,103.1,233.5,108.7,226.7,108.7z"/>
<g>
	<g>
		<path class="st1" d="M153.8,56.6v-35h10.5c1.5,0,2.9,0.2,3.9,0.6s1.8,1.1,2.4,2s1,2.2,1.3,3.7c0.2,1.5,0.4,3.4,0.4,5.7
			s-0.1,4.3-0.4,5.8c-0.2,1.6-0.6,2.9-1.3,3.9s-1.5,1.6-2.4,2.2c-1,0.4-2.4,0.6-3.9,0.6h-3.2v10.5H153.8L153.8,56.6z M163.1,38.8
			c0.6,0,1.2-0.4,1.5-1.2c0.3-0.7,0.4-2.2,0.4-4.3c0-1.9-0.1-3.1-0.5-3.7s-0.9-0.9-1.5-0.9h-1.7v9.9L163.1,38.8L163.1,38.8z"/>
		<path class="st1" d="M179.1,56.6V29h-5.4v-7.3H192V29h-5.5v27.6H179.1z"/>
		<path class="st1" d="M203.6,32.4c0-0.3,0.1-0.5,0.1-0.6s0-0.5,0-0.9c0-1.1-0.1-1.8-0.4-2.2c-0.3-0.4-0.9-0.6-1.7-0.6
			s-1.5,0.2-1.7,0.6c-0.3,0.4-0.4,1.2-0.4,2.2s0.1,1.7,0.4,2.2c0.3,0.4,0.6,0.8,1.3,1.2s1.4,0.7,1.9,1c0.6,0.3,1.2,0.5,1.6,0.7
			c0.5,0.2,1,0.5,1.5,0.6c0.5,0.2,0.9,0.5,1.5,0.8c0.5,0.4,0.9,0.7,1.4,1.2c0.4,0.4,0.6,0.9,0.9,1.6c0.2,0.6,0.4,1.5,0.5,2.4
			s0.2,2.2,0.2,3.6c0,2.1-0.1,3.8-0.5,5.3c-0.3,1.5-0.8,2.4-1.5,3.4c-0.6,0.8-1.6,1.5-2.8,1.8s-2.7,0.5-4.4,0.5
			c-2.9,0-5-0.5-6.4-1.6s-2-3-2-5.7c0-0.9,0-1.8,0.1-2.7s0.1-1.6,0.3-2.2h6c-0.1,0.2-0.1,0.4-0.1,0.6c0,0.2,0,0.5,0,0.6
			c0,1.4,0.1,2.3,0.4,2.8c0.3,0.5,0.9,0.7,1.8,0.7s1.5-0.2,1.8-0.6s0.5-1.5,0.5-2.9c0-0.9-0.1-1.5-0.4-2c-0.3-0.5-0.7-0.9-1.4-1.4
			c-0.5-0.4-1.2-0.7-1.8-1c-0.6-0.4-1.3-0.6-1.9-0.9c-0.6-0.3-1.3-0.6-1.8-0.9c-0.6-0.4-1.2-0.6-1.5-1.2c-0.9-0.8-1.5-1.9-1.7-3.4
			s-0.3-3.4-0.3-5.6c0-1.6,0.1-3,0.4-4.2c0.3-1.2,0.7-2,1.4-2.7c0.6-0.6,1.5-1.2,2.6-1.5c1.2-0.4,2.5-0.5,4.3-0.5
			c1.5,0,2.9,0.1,4,0.4s1.9,0.6,2.6,1.3c0.6,0.6,1.2,1.5,1.5,2.4c0.3,1,0.5,2.2,0.5,3.7c0,0.9,0,1.7-0.1,2.3
			c-0.1,0.5-0.1,1.1-0.3,1.5h-6.2v-0.1H203.6z"/>
		<path class="st1" d="M212.1,56.6v-7h7.3v7H212.1z"/>
	</g>
</g>
<g>
	<path class="st1" d="M37.6,63.8l-0.5-10.9l28.4-1.2L66,62.6L37.6,63.8z"/>
</g>
<g class="st2">
	<path class="st1" d="M84.3,37.5L84,45.4c0.6-0.3,1.6-0.6,2.8-0.9c1.2-0.3,2.8-0.6,4.5-0.7c2.3-0.1,4.3,0.1,6,0.7
		c1.7,0.6,3.2,1.6,4.4,3.1c1.2,1.5,2.2,3.4,2.9,5.8c0.7,2.4,1.2,5.4,1.4,9c0.2,3.3,0.3,6.1,0.3,8.6c0,2.4-0.1,4.6-0.3,6.4
		c-0.2,1.8-0.4,3.4-0.8,4.8c-0.3,1.3-0.8,2.5-1.3,3.5c-0.5,1-1.2,2-2,2.7c-0.8,0.8-1.8,1.4-3,1.9c-1.2,0.5-2.6,0.9-4.3,1.2
		c-1.7,0.3-3.6,0.5-5.8,0.6c-3.8,0.2-6.8,0-9.2-0.7c-2.3-0.7-4.2-1.9-5.5-3.5c-1.4-1.7-2.3-3.8-2.8-6.4c-0.5-2.6-0.9-5.7-1.1-9.3
		C70.1,70,70,68,70.1,65.8l13-0.8c0,0.4,0,0.9,0,1.5c0,0.6,0.1,1.1,0.1,1.6c0.2,2.8,0.5,5,1.1,6.5c0.5,1.6,1.8,2.3,3.8,2.2
		c1.4-0.1,2.3-0.3,2.8-0.5c0.5-0.3,0.9-0.7,1-1.3c0.2-1,0.4-2.4,0.4-4c0.1-1.6,0-4.1-0.2-7.4c-0.1-1.7-0.2-3-0.4-4
		c-0.2-1-0.5-1.8-0.9-2.3c-0.4-0.5-1-0.8-1.7-1c-0.7-0.1-1.6-0.2-2.7-0.1c-1.8,0.1-3.3,0.7-4.5,1.9l-11.1-2.9l0.3-31.4l31.6-1.8
		l0.8,14.4L84.3,37.5z"/>
	<path class="st1" d="M124.9,35.2l-0.4,7.8c0.6-0.3,1.6-0.6,2.8-0.9c1.2-0.3,2.8-0.6,4.5-0.7c2.3-0.1,4.3,0.1,6,0.7
		c1.7,0.6,3.2,1.6,4.4,3.1c1.2,1.5,2.2,3.4,2.9,5.8c0.7,2.4,1.2,5.4,1.4,9c0.2,3.3,0.3,6.1,0.3,8.6c0,2.4-0.1,4.6-0.3,6.4
		c-0.2,1.8-0.4,3.4-0.8,4.8c-0.3,1.3-0.8,2.5-1.3,3.5c-0.5,1.1-1.2,2-2,2.7c-0.8,0.8-1.8,1.4-3,1.9c-1.2,0.5-2.6,0.9-4.3,1.2
		s-3.6,0.5-5.8,0.6c-3.8,0.2-6.8,0-9.2-0.7c-2.3-0.7-4.2-1.9-5.6-3.5c-1.4-1.7-2.3-3.8-2.8-6.4c-0.5-2.6-0.9-5.7-1.1-9.3
		c-0.1-1.9-0.1-3.9-0.1-6.1l13-0.8c0,0.4,0,0.9,0,1.5c0,0.6,0.1,1.1,0.1,1.6c0.2,2.8,0.5,5,1.1,6.5c0.5,1.6,1.8,2.3,3.8,2.2
		c1.4-0.1,2.3-0.3,2.8-0.5c0.5-0.3,0.9-0.7,1-1.3c0.2-1,0.4-2.4,0.4-4c0.1-1.6,0-4.1-0.2-7.4c-0.1-1.7-0.2-3-0.4-4
		c-0.2-1-0.5-1.8-0.9-2.3c-0.4-0.5-1-0.8-1.7-1c-0.7-0.1-1.6-0.2-2.7-0.1c-1.8,0.1-3.3,0.7-4.5,1.9l-11.1-2.9l0.3-31.4l31.6-1.8
		l0.8,14.4L124.9,35.2z"/>
</g>
</svg>
