<?xml version="1.0" encoding="utf-8"?>
<!-- Generator: Adobe Illustrator 20.0.0, SVG Export Plug-In . SVG Version: 6.00 Build 0)  -->
<svg version="1.1" id="Layer_1" xmlns="http://www.w3.org/2000/svg" xmlns:xlink="http://www.w3.org/1999/xlink" x="0px" y="0px"
	 viewBox="0 0 300 250" style="enable-background:new 0 0 300 250;" xml:space="preserve">
<style type="text/css">
	.st0{fill:#FFB048;}
	.st1{fill:#E67F35;}
	.st2{fill:#8E44AD;}
	.st3{fill:#2E90C6;}
	.st4{fill:#C42B23;}
	.st5{fill:#42AE48;}
	.st6{fill:#F2F2F5;}
	.st7{fill:#FFFFFF;}
</style>
<path class="st0" d="M93.5,47.4l27.1,3.6l2.1,25.2l-27.8,51l-22.5-7.9l-16.9,18.8c-0.6-2.6-1.8-8.5-1.9-11.1c-0.1-2.6,0-5.2,0.3-8
	c0.3-2.6,1-5.2,1.7-7.7c0.9-2.5,1.8-4.9,3.1-7.1l27.9-48.1c0.3-0.5,0.7-1.1,1.1-1.7L93.5,47.4z"/>
<path class="st1" d="M183.8,36.1c1,0.2,1.5,0.3,2,0.4l7.7,24.1l-18.2,15.7h-52.6l-4.5-23.4l-24.8-5.3c1.9-1.7,4-3.4,6.4-4.9
	c2.2-1.5,4.6-2.7,7.1-3.7c2.6-1.1,5.2-1.8,7.6-2.3c2.6-0.6,5.2-0.9,7.7-0.9h55.4c1,0,1.5,0,2,0.1L183.8,36.1z"/>
<path class="st2" d="M246.2,130.9c-0.3,2.6-1,5.2-1.7,7.7c-0.9,2.5-1.8,4.9-3.1,7.1l-27.8,48c-0.3,0.5-0.7,1.1-1.1,1.7l-6.3,7.1
	l-24.8-5.3l-4.3-23.5l28.6-47.8l22.5,7.8l17-18.8c0.6,2.5,1,5.2,1.1,7.9C246.6,125.5,246.5,128.1,246.2,130.9z"/>
<path class="st3" d="M192.9,211.1c-2.6,1.1-5.2,1.8-7.6,2.3c-2.6,0.6-5.2,0.9-7.7,0.9l-57.5-0.1l-6-1l-7.7-24.1l18.2-15.6h52.6
	l4.3,23.5l24.8,5.3c-1.9,1.7-4.1,3.4-6.4,4.8C197.8,208.8,195.4,210.1,192.9,211.1z"/>
<path class="st4" d="M203.2,44.6c2.1,1.6,4.2,3.4,5.8,5.3c1.7,2,3.4,4.1,4.6,6.2l28.5,49.9c0.2,0.3,0.4,1,1,1.8l2.1,6.9l-17,18.8
	l-22.5-7.8l-28.4-51.4l16.1-13.9l-7.7-24.1c2.5,0.9,8.4,2.6,10.8,3.9C198.9,41.7,201.2,43.1,203.2,44.6z"/>
<path class="st5" d="M55.5,138.1l16.9-18.8l22.5,7.9l29.6,46.4l-18.2,15.6l7.7,24.1c-2.5-0.9-8.3-2.5-10.7-3.8
	c-2.4-1.4-4.7-2.7-6.8-4.4c-2.1-1.6-4.1-3.4-5.8-5.2c-1.7-2-3.4-4.1-4.6-6.2l-28.6-49.8c-0.2-0.3-0.4-1-1-1.8L55.5,138.1z"/>
<polygon class="st6" points="132.6,160.5 225.8,56.2 216.9,48.6 184.3,86.8 168.1,58.4 "/>
<polygon class="st7" points="227.8,109.2 197.1,97.9 229.6,59.5 222.3,53.3 132.6,160.5 "/>
</svg>
