<?xml version="1.0" encoding="utf-8"?>
<!-- Generator: Adobe Illustrator 20.0.0, SVG Export Plug-In . SVG Version: 6.00 Build 0)  -->
<svg version="1.1" id="Layer_1" xmlns="http://www.w3.org/2000/svg" xmlns:xlink="http://www.w3.org/1999/xlink" x="0px" y="0px"
	 viewBox="0 0 35 30" style="enable-background:new 0 0 35 30;" xml:space="preserve">
<style type="text/css">
	.st0{fill:url(#SVGID_1_);}
	.st1{fill:#E13E20;}
	.st2{fill:#BF261F;}
</style>
<g id="Layer_1_1_">
</g>
<g id="Ñëîé_1">
	
		<linearGradient id="SVGID_1_" gradientUnits="userSpaceOnUse" x1="469.2591" y1="5195.8438" x2="2754.1619" y2="5195.8438" gradientTransform="matrix(1 0 0 1 -8.3599 -695.9453)">
		<stop  offset="0" style="stop-color:#D4D4D4"/>
		<stop  offset="1" style="stop-color:#FFFFFF"/>
	</linearGradient>
	<path class="st0" d="M1859,3344l779.8,776.9c34.9,34.8,61.6,74.9,80.1,120.3c17.8,43.8,26.8,89.5,26.9,137
		c0.1,47.6-8.7,93.3-26.4,137.2c-18.3,45.5-44.9,85.7-79.7,120.6c-34.4,34.5-73.8,61-118.2,79.4c-44.4,18.4-91,27.6-139.8,27.6
		c-48.6,0-95-9.1-139.3-27.3c-44.2-18.3-83.5-44.5-117.9-78.7l-161-160.4l1.7,920.4c0.1,48.7-9,95.2-27.3,139.6
		c-18.3,44.4-44.6,83.8-79,118.3c-34.3,34.5-73.6,60.9-117.9,79.4c-44.3,18.4-90.8,27.7-139.4,27.8h-0.7
		c-48.5,0-94.9-9.1-139.1-27.4c-44.2-18.3-83.5-44.6-117.9-78.8c-34.4-34.3-60.9-73.6-79.3-117.9s-27.7-90.8-27.8-139.4l-1.7-912.1
		l-152,152.6c-34.4,34.5-73.8,61-118.2,79.4s-91,27.6-139.9,27.6c-48.6,0-95-9.1-139.3-27.3c-44.2-18.3-83.5-44.5-117.8-78.7
		c-34.9-34.8-61.6-74.9-80.1-120.3c-17.8-43.8-26.8-89.5-26.9-137.1s8.7-93.3,26.4-137.2c18.3-45.5,44.8-85.7,79.6-120.6
		l776.9-779.8c34.9-35,75-61.8,120.3-80.3c44.3-18.1,90.3-27.1,137.8-27.1c48.4,0,94.8,9.1,139,27.5
		C1785.3,3283.5,1824.6,3309.8,1859,3344z"/>
	<path class="st1" d="M1654,3331.9c26.5,5.1,51.6,13.8,75.5,26.3c24.6,12.9,46.8,29.2,66.7,49L2576,4184
		c26.4,26.3,46.6,56.6,60.6,90.9c13.5,33.1,20.3,67.6,20.4,103.5c0.1,35.9-6.6,70.4-20,103.5c-13.8,34.3-33.9,64.7-60.3,91.2
		c-26.4,26.4-56.7,46.6-91,60.6c-33.1,13.5-67.6,20.3-103.5,20.4c-35.9,0.1-70.4-6.6-103.5-20c-34.3-13.8-64.7-33.9-91.2-60.3
		l-313.4-312.2l2.2,1135.5c0.1,37.3-7.1,73-21.4,107.2c-13.9,32.9-33.5,62.1-58.8,87.5c-25.3,25.4-54.5,45.2-87.3,59.2
		c-34.1,14.5-69.8,21.8-107.1,21.8c-37.3,0-73-7.1-107.1-21.5c-32.9-13.9-62.1-33.5-87.6-58.8c-25.4-25.3-45.1-54.5-59.1-87.3
		c-14.5-34.1-21.8-69.8-21.8-107.1L1324,4271l-304,305.1c-26.3,26.4-56.6,46.7-91,60.7c-33.1,13.5-67.6,20.3-103.5,20.3
		c-35.9,0.1-70.4-6.6-103.6-20c-34.3-13.8-64.7-33.9-91.2-60.3c-26.4-26.3-46.6-56.6-60.6-90.9c-13.5-33.1-20.3-67.6-20.3-103.5
		c-0.1-35.9,6.6-70.5,20-103.6c13.8-34.3,33.9-64.7,60.3-91.1l776.8-779.8c26.3-26.4,56.6-46.6,90.9-60.6
		c24.7-10.1,50.4-16.5,77.1-19C1601.5,3325.7,1627.9,3326.9,1654,3331.9z"/>
</g>
<path class="st2" d="M32.3,14.4c-0.1-0.3-0.2-0.7-0.3-1c-0.2-0.3-0.4-0.6-0.6-0.9l-9.7-9.8c-0.3-0.3-0.7-0.6-1.2-0.8
	c-0.4-0.2-0.9-0.3-1.3-0.3S18.4,1.7,18,1.9c-0.4,0.2-0.8,0.4-1.2,0.8C16.5,3,16.2,3.4,16,3.9c-0.2,0.4-0.3,0.9-0.3,1.3
	c0,0.5,0.1,0.9,0.3,1.3c0.2,0.4,0.4,0.8,0.8,1.2l3.9,4H6.5c-0.5,0-0.9,0.1-1.4,0.3c-0.4,0.2-0.8,0.4-1.1,0.8s-0.6,0.6-0.7,1
	c-0.2,0.4-0.3,0.9-0.3,1.4s0.1,0.9,0.3,1.4c0.2,0.4,0.4,0.8,0.8,1.1c0.3,0.3,0.7,0.6,1.1,0.8c0.4,0.2,0.9,0.3,1.4,0.3h14.1l-3.8,3.8
	c-0.3,0.3-0.6,0.7-0.8,1.2c-0.2,0.4-0.3,0.9-0.3,1.3c0,0.5,0.1,0.9,0.3,1.3c0.2,0.4,0.4,0.8,0.8,1.2c0.4,0.4,0.7,0.6,1.2,0.8
	c0.4,0.2,0.9,0.3,1.3,0.3c0.5,0,0.9-0.1,1.3-0.3c0.4-0.2,0.8-0.4,1.2-0.8l9.7-9.8c0.3-0.3,0.6-0.7,0.8-1.2c0.1-0.3,0.2-0.7,0.2-1
	C32.4,15.1,32.4,14.8,32.3,14.4z"/>
</svg>
