<?xml version="1.0" encoding="utf-8"?>
<!-- Generator: Adobe Illustrator 20.0.0, SVG Export Plug-In . SVG Version: 6.00 Build 0)  -->
<svg version="1.1" id="Layer_1" xmlns="http://www.w3.org/2000/svg" xmlns:xlink="http://www.w3.org/1999/xlink" x="0px" y="0px"
	 viewBox="0 0 114 120.2" style="enable-background:new 0 0 114 120.2;" xml:space="preserve">
<style type="text/css">
	.st0{fill:#BF261F;}
</style>
<g>
	<path class="st0" d="M3.8,4.1C2.9,4.1,2,5,2,5.9c0,1.8,0,2.6,0,4.4c0.9,28.1,0.9,57.2,1.8,85.3c0,0.9,0.9,1.8,1.8,1.8
		s0.9,0,0.9-0.9c6.2-6.2,12.3-11.4,18.5-17.6c6.2,12.3,11.4,24.6,17.6,36.9c0.9,0.9,1.8,0.9,2.6,0.9l0,0c7-3.5,13.2-6.2,20.2-9.7
		c0.9-0.9,0.9-1.8,0.9-2.6c-6.3-12.3-11.5-24.7-17.7-37c7.9-0.9,16.7-2.6,24.6-3.5c0.9,0,1.8-0.9,1.8-1.8c0-0.9,0-0.9-0.9-0.9
		C51.3,41.9,28.4,23.4,4.6,4.1C4.6,4.1,4.6,4.1,3.8,4.1L3.8,4.1z"/>
</g>
</svg>
