<?xml version="1.0" encoding="utf-8"?>
<!-- Generator: Adobe Illustrator 20.0.0, SVG Export Plug-In . SVG Version: 6.00 Build 0)  -->
<svg version="1.1" id="Layer_1" xmlns="http://www.w3.org/2000/svg" xmlns:xlink="http://www.w3.org/1999/xlink" x="0px" y="0px"
	 viewBox="0 0 32 32" style="enable-background:new 0 0 32 32;" xml:space="preserve">
<style type="text/css">
	.st0{fill:#232323;}
	.st1{fill:#FFFFFF;}
</style>
<circle class="st0" cx="16" cy="16" r="15.4"/>
<g id="Layer_1_1_">
</g>
<path class="st1" d="M11.8,25.6C6.9,23.3,4.7,17.4,7,12.5C9.2,7.9,14.2,5.7,19,7.2l0.8-1.7l0.3,0.5l3.4,4.8l0.3,0.5l-0.6,0.1
	l-5.9,0.5l-0.6,0l0.7-1.5c-3-0.7-6.1,0.8-7.4,3.6c-1.5,3.3-0.1,7.1,3.2,8.7c3.3,1.5,7.1,0.1,8.7-3.2c0.5-1,0.7-2,0.6-3.1l0-0.3
	l0.3,0l2.7-0.2l0.3,0l0,0.3c0.1,1.6-0.2,3.3-0.9,4.8C22.7,25.8,16.8,27.9,11.8,25.6z"/>
</svg>
