<?xml version="1.0" encoding="utf-8"?>
<!-- Generator: Adobe Illustrator 20.0.0, SVG Export Plug-In . SVG Version: 6.00 Build 0)  -->
<svg version="1.1" id="Layer_1" xmlns="http://www.w3.org/2000/svg" xmlns:xlink="http://www.w3.org/1999/xlink" x="0px" y="0px"
	 viewBox="0 0 260 110" style="enable-background:new 0 0 260 110;" xml:space="preserve">
<style type="text/css">
	.st0{fill:#2d2d2d;}
	.st1{fill:#F7F7F7;}
	.st2{fill:#57AB33;}
</style>
<path class="st0" d="M226.7,108.7H33.3c-6.8,0-12.3-5.5-12.3-12.3V14.9c0-6.8,5.5-12.3,12.3-12.3h193.4c6.8,0,12.3,5.5,12.3,12.3
	v81.4C239,103.1,233.5,108.7,226.7,108.7z"/>
<g>
	<g>
		<g>
			<path class="st1" d="M67.2,34.3l-0.9,8.3c0.7-0.2,1.7-0.5,3.1-0.8c1.3-0.3,2.9-0.4,4.9-0.4c2.4,0,4.6,0.4,6.3,1.1
				c1.8,0.7,3.3,1.9,4.6,3.5c1.2,1.6,2.1,3.7,2.7,6.3c0.6,2.6,0.9,5.8,0.9,9.6c0,3.5-0.1,6.5-0.2,9.1c-0.1,2.6-0.4,4.9-0.7,6.8
				c-0.3,1.9-0.7,3.6-1.1,5c-0.4,1.4-1,2.6-1.6,3.6c-0.7,1.1-1.4,2-2.3,2.8c-0.9,0.7-2,1.4-3.3,1.8s-2.9,0.8-4.7,1
				c-1.8,0.2-3.9,0.3-6.2,0.3c-4,0-7.2-0.4-9.7-1.3c-2.4-0.9-4.3-2.3-5.7-4.1c-1.3-1.8-2.2-4.2-2.6-7s-0.6-6.2-0.6-10
				c0-2.1,0.1-4.2,0.3-6.5h13.8C64,63.9,64,64.4,64,65c0,0.6,0,1.2,0,1.7c0,3,0.2,5.3,0.7,7c0.4,1.7,1.8,2.5,3.9,2.5
				c1.5,0,2.5-0.1,3.1-0.4c0.6-0.2,1-0.7,1.2-1.3c0.3-1.1,0.6-2.5,0.7-4.3s0.2-4.3,0.2-7.9c0-1.8-0.1-3.2-0.2-4.3
				c-0.1-1.1-0.4-1.9-0.8-2.5c-0.4-0.6-1-1-1.7-1.2c-0.7-0.2-1.7-0.3-2.9-0.3c-1.9,0-3.5,0.6-4.9,1.7l-11.8-3.5L53.9,19h33.7v15.4
				L67.2,34.3L67.2,34.3z"/>
			<path class="st1" d="M112.4,92.4c-3,0-5.6-0.1-7.6-0.2c-2.1-0.1-3.9-0.6-5.4-1.4c-1.5-0.7-2.6-1.9-3.5-3.5
				c-0.8-1.5-1.5-3.7-1.9-6.5c-0.4-2.8-0.7-6.2-0.9-10.4C93,66.2,92.9,61,92.9,55c0-6,0.1-11.1,0.2-15.3c0.1-4.2,0.4-7.6,0.9-10.4
				c0.4-2.8,1.1-4.9,1.9-6.5c0.8-1.5,2-2.7,3.5-3.5c1.5-0.7,3.2-1.2,5.4-1.4s4.7-0.2,7.6-0.2c3,0,5.6,0.1,7.7,0.2
				c2.1,0.1,4,0.6,5.4,1.4c1.4,0.7,2.6,1.9,3.5,3.5s1.5,3.7,2,6.5c0.4,2.8,0.7,6.2,0.9,10.4c0.1,4.3,0.1,9.3,0.1,15.3
				c0,6-0.1,11.2-0.2,15.4s-0.4,7.6-0.9,10.4c-0.4,2.8-1.1,4.9-2,6.5c-0.9,1.5-2,2.7-3.5,3.5c-1.4,0.7-3.2,1.2-5.4,1.4
				C118,92.3,115.4,92.4,112.4,92.4z M112.4,76.3c1.1,0,1.9-0.1,2.5-0.4s1-1,1.4-2.4c0.3-1.4,0.5-3.5,0.6-6.5
				c0.1-2.9,0.1-7.1,0.1-12.4c0-5.4,0-9.7-0.1-12.7c-0.1-3-0.2-5.2-0.5-6.6c-0.3-1.4-0.7-2.2-1.4-2.5c-0.7-0.2-1.5-0.4-2.6-0.4
				s-2,0.1-2.6,0.4c-0.6,0.2-1,1.1-1.3,2.5c-0.3,1.4-0.4,3.6-0.5,6.6s-0.1,7.2-0.1,12.7c0,5.4,0.1,9.5,0.1,12.4
				c0.1,2.9,0.3,5.1,0.6,6.5c0.3,1.4,0.7,2.2,1.3,2.4C110.5,76.2,111.3,76.3,112.4,76.3z"/>
		</g>
		<g>
			<path class="st1" d="M137.3,56.5V18h11.5c1.7,0,3.2,0.2,4.3,0.7s2,1.2,2.6,2.2c0.7,1,1.1,2.4,1.4,4c0.2,1.7,0.4,3.7,0.4,6.2
				s-0.1,4.6-0.4,6.4s-0.7,3.2-1.4,4.3c-0.7,1.1-1.5,1.8-2.6,2.4c-1.1,0.4-2.6,0.7-4.3,0.7h-3.5v11.5H137.3z M147.4,37
				c0.7,0,1.2-0.4,1.5-1.2c0.3-0.8,0.4-2.4,0.4-4.7c0-2.1-0.1-3.4-0.5-4c-0.4-0.7-1-1-1.7-1h-1.9v10.9L147.4,37L147.4,37z"/>
			<path class="st1" d="M165.1,56.5V26.2h-6v-8.1h20.1v8.1h-6v30.3H165.1z"/>
			<path class="st1" d="M191.9,30c0-0.3,0.1-0.5,0.1-0.7c0-0.2,0-0.5,0-1c0-1.2-0.1-2-0.4-2.4s-1-0.7-1.9-0.7s-1.6,0.2-1.9,0.7
				c-0.3,0.4-0.4,1.2-0.4,2.4c0,1.1,0.1,1.9,0.4,2.4s0.7,0.9,1.4,1.2c0.7,0.4,1.5,0.8,2.1,1.1c0.7,0.3,1.2,0.6,1.8,0.8
				c0.6,0.2,1.1,0.5,1.6,0.7c0.5,0.2,1,0.5,1.5,0.9c0.5,0.4,1,0.8,1.5,1.3c0.4,0.4,0.7,1,1,1.8c0.2,0.7,0.4,1.6,0.6,2.7
				c0.1,1,0.2,2.4,0.2,4c0,2.3-0.1,4.2-0.5,5.7c-0.3,1.5-0.9,2.7-1.6,3.7c-0.7,0.9-1.8,1.5-3.1,2c-1.3,0.4-2.9,0.6-4.9,0.6
				c-3.2,0-5.5-0.6-7-1.8c-1.5-1.2-2.2-3.3-2.2-6.3c0-1,0-2,0.1-2.9c0.1-1,0.1-1.8,0.3-2.4h6.6c-0.1,0.2-0.1,0.4-0.1,0.7
				c0,0.2,0,0.5,0,0.7c0,1.5,0.1,2.5,0.4,3.1c0.3,0.6,1,0.8,2,0.8s1.7-0.2,2-0.7s0.5-1.5,0.5-3.2c0-1-0.1-1.7-0.4-2.2
				c-0.3-0.5-0.8-1-1.5-1.5c-0.6-0.4-1.2-0.8-2-1.1c-0.7-0.4-1.4-0.7-2.1-1c-0.7-0.3-1.4-0.7-2-1c-0.7-0.4-1.2-0.7-1.7-1.2
				c-1-0.9-1.7-2.1-1.9-3.7c-0.2-1.6-0.3-3.7-0.3-6.2c0-1.8,0.1-3.3,0.4-4.6c0.3-1.2,0.8-2.2,1.5-3c0.7-0.7,1.7-1.3,2.9-1.6
				c1.2-0.4,2.8-0.5,4.7-0.5c1.7,0,3.2,0.1,4.3,0.4c1.2,0.3,2.1,0.7,2.9,1.4c0.7,0.7,1.2,1.5,1.6,2.6c0.3,1.1,0.5,2.4,0.5,4
				c0,1,0,1.9-0.1,2.5c-0.1,0.6-0.1,1.2-0.3,1.6h-6.8V30z"/>
			<path class="st1" d="M201.3,56.5v-7.6h7.9v7.6H201.3z"/>
		</g>
	</g>
	<g>
		<path class="st2" d="M165.3,85.1v-6h-6v-4.6h6v-6h4.6v6h6v4.6h-6v6H165.3z"/>
		<path class="st2" d="M178,91.7v-6.6h4.3V72.2h-4.4v-5.4h2.7c0.5,0,1,0,1.3-0.1c0.4-0.1,0.6-0.2,0.8-0.4c0.2-0.2,0.4-0.4,0.5-0.8
			c0.1-0.4,0.2-0.8,0.2-1.4l0.1-2.1h5.1v23h4.1v6.6H178z"/>
		<path class="st2" d="M201.2,68.4l-0.4,3.4c0.3-0.1,0.7-0.2,1.2-0.3c0.5-0.1,1.2-0.2,2-0.2c1,0,1.9,0.1,2.6,0.4
			c0.7,0.3,1.4,0.8,1.9,1.4c0.5,0.7,0.9,1.5,1.1,2.6c0.2,1.1,0.4,2.4,0.4,3.9c0,1.4,0,2.7-0.1,3.7c-0.1,1.1-0.2,2-0.3,2.8
			c-0.1,0.8-0.3,1.5-0.4,2.1c-0.2,0.6-0.4,1.1-0.7,1.5c-0.3,0.4-0.6,0.8-0.9,1.1c-0.4,0.3-0.8,0.6-1.3,0.8c-0.5,0.2-1.2,0.3-1.9,0.4
			c-0.7,0.1-1.6,0.1-2.6,0.1c-1.6,0-3-0.2-4-0.5c-1-0.4-1.8-0.9-2.3-1.7c-0.5-0.8-0.9-1.7-1.1-2.9c-0.2-1.2-0.3-2.5-0.3-4.1
			c0-0.8,0-1.7,0.1-2.7h5.7c0,0.2,0,0.4,0,0.6c0,0.2,0,0.5,0,0.7c0,1.2,0.1,2.2,0.3,2.9c0.2,0.7,0.7,1,1.6,1c0.6,0,1-0.1,1.2-0.2
			c0.2-0.1,0.4-0.3,0.5-0.5c0.1-0.4,0.2-1,0.3-1.7c0.1-0.7,0.1-1.8,0.1-3.2c0-0.7,0-1.3-0.1-1.8c-0.1-0.4-0.2-0.8-0.3-1
			c-0.2-0.2-0.4-0.4-0.7-0.5c-0.3-0.1-0.7-0.1-1.2-0.1c-0.8,0-1.4,0.2-2,0.7l-4.8-1.5l0.9-13.6h13.8v6.3H201.2z"/>
	</g>
</g>
</svg>
