<?xml version="1.0" encoding="utf-8"?>
<!-- Generator: Adobe Illustrator 20.0.0, SVG Export Plug-In . SVG Version: 6.00 Build 0)  -->
<svg version="1.1" id="Layer_1" xmlns="http://www.w3.org/2000/svg" xmlns:xlink="http://www.w3.org/1999/xlink" x="0px" y="0px"
	 viewBox="0 0 260 110" style="enable-background:new 0 0 260 110;" xml:space="preserve">
<style type="text/css">
	.st0{fill:#2d2d2d;}
	.st1{fill:#F7F7F7;}
	.st2{fill:#BF261F;}
</style>
<path class="st0" d="M226.7,108.7H33.3c-6.8,0-12.3-5.5-12.3-12.3V14.9c0-6.8,5.5-12.3,12.3-12.3h193.4c6.8,0,12.3,5.5,12.3,12.3
	v81.4C239,103.1,233.5,108.7,226.7,108.7z"/>
<g>
	<g>
		<path class="st1" d="M67.2,34.3l-0.9,8.3c0.7-0.2,1.7-0.5,3.1-0.8c1.3-0.3,2.9-0.4,4.8-0.4c2.4,0,4.5,0.4,6.3,1.1
			c1.8,0.7,3.3,1.9,4.5,3.5c1.2,1.6,2.1,3.7,2.7,6.3c0.6,2.6,0.9,5.8,0.9,9.6c0,3.5-0.1,6.5-0.2,9.1c-0.1,2.6-0.4,4.8-0.7,6.7
			c-0.3,1.9-0.7,3.6-1.1,5c-0.4,1.4-1,2.6-1.6,3.6c-0.7,1.1-1.4,2-2.3,2.8c-0.9,0.7-2,1.4-3.3,1.8c-1.3,0.4-2.9,0.8-4.7,1
			s-3.9,0.3-6.2,0.3c-4,0-7.2-0.4-9.7-1.3c-2.4-0.9-4.3-2.3-5.6-4.1s-2.2-4.2-2.6-7c-0.4-2.8-0.6-6.2-0.6-10c0-2.1,0.1-4.2,0.3-6.5
			h13.8C64,63.9,64,64.4,64,65c0,0.6,0,1.2,0,1.7c0,3,0.2,5.3,0.7,7c0.4,1.7,1.8,2.5,3.9,2.5c1.5,0,2.5-0.1,3.1-0.4
			c0.6-0.2,1-0.7,1.2-1.3c0.3-1.1,0.6-2.5,0.7-4.3c0.1-1.8,0.2-4.3,0.2-7.8c0-1.8-0.1-3.2-0.2-4.3c-0.1-1.1-0.4-1.9-0.8-2.5
			s-1-1-1.7-1.2c-0.7-0.2-1.7-0.3-2.9-0.3c-1.9,0-3.5,0.6-4.8,1.7l-11.7-3.5l2.3-33.2h33.6v15.3L67.2,34.3L67.2,34.3z"/>
		<path class="st1" d="M112.3,92.3c-3,0-5.6-0.1-7.6-0.2c-2.1-0.1-3.9-0.6-5.4-1.4c-1.5-0.7-2.6-1.9-3.4-3.4
			c-0.8-1.5-1.5-3.7-1.9-6.5c-0.4-2.8-0.7-6.2-0.9-10.4c-0.1-4.3-0.2-9.4-0.2-15.4c0-5.9,0.1-11.1,0.2-15.3s0.4-7.6,0.9-10.4
			c0.4-2.8,1.1-4.9,1.9-6.5c0.8-1.5,2-2.7,3.4-3.4s3.2-1.2,5.4-1.4c2.1-0.1,4.7-0.2,7.6-0.2c3,0,5.6,0.1,7.7,0.2
			c2.1,0.1,4,0.6,5.4,1.4c1.4,0.7,2.6,1.9,3.4,3.4s1.5,3.7,2,6.5c0.4,2.8,0.7,6.2,0.9,10.4c0.1,4.3,0.1,9.3,0.1,15.3
			c0,6-0.1,11.2-0.2,15.3c-0.1,4.2-0.4,7.6-0.9,10.4c-0.4,2.8-1.1,4.9-2,6.5s-2,2.7-3.4,3.4c-1.4,0.7-3.2,1.2-5.4,1.4
			C117.9,92.3,115.3,92.3,112.3,92.3z M112.3,76.3c1.1,0,1.9-0.1,2.5-0.4c0.6-0.2,1-1,1.4-2.4c0.3-1.4,0.5-3.5,0.6-6.5
			c0.1-2.9,0.1-7,0.1-12.4c0-5.4,0-9.7-0.1-12.7c-0.1-3-0.2-5.2-0.5-6.6c-0.3-1.4-0.7-2.2-1.4-2.5c-0.7-0.2-1.5-0.4-2.6-0.4
			c-1.1,0-2,0.1-2.6,0.4c-0.6,0.2-1,1.1-1.3,2.5c-0.3,1.4-0.4,3.6-0.5,6.6c-0.1,3-0.1,7.2-0.1,12.7c0,5.4,0.1,9.5,0.1,12.4
			c0.1,2.9,0.3,5.1,0.6,6.5c0.3,1.4,0.7,2.2,1.3,2.4C110.4,76.1,111.2,76.3,112.3,76.3z"/>
	</g>
	<g>
		<path class="st1" d="M137.2,56.5V18.1h11.5c1.7,0,3.2,0.2,4.3,0.7c1.1,0.4,2,1.2,2.6,2.2c0.7,1,1.1,2.3,1.4,4
			c0.2,1.7,0.4,3.7,0.4,6.2s-0.1,4.6-0.4,6.4c-0.2,1.8-0.7,3.2-1.4,4.3c-0.7,1.1-1.5,1.8-2.6,2.3c-1.1,0.4-2.6,0.7-4.3,0.7h-3.5
			v11.5H137.2z M147.2,37c0.7,0,1.2-0.4,1.5-1.2s0.4-2.4,0.4-4.7c0-2.1-0.1-3.4-0.5-4s-1-1-1.7-1h-1.9V37L147.2,37L147.2,37z"/>
		<path class="st1" d="M164.9,56.5V26.2h-6v-8.1h20v8.1h-6v30.2H164.9z"/>
		<path class="st1" d="M191.7,30.1c0-0.3,0.1-0.5,0.1-0.7c0-0.2,0-0.5,0-1c0-1.2-0.1-2-0.4-2.4c-0.3-0.4-1-0.7-1.9-0.7
			c-1,0-1.6,0.2-1.9,0.7c-0.3,0.4-0.4,1.2-0.4,2.4c0,1.1,0.1,1.9,0.4,2.3c0.3,0.4,0.7,0.9,1.4,1.2c0.7,0.4,1.5,0.8,2.1,1.1
			c0.7,0.3,1.2,0.6,1.8,0.8c0.6,0.2,1.1,0.5,1.6,0.7s1,0.5,1.5,0.9c0.5,0.4,1,0.8,1.5,1.3c0.4,0.4,0.7,1,1,1.8
			c0.2,0.7,0.4,1.6,0.6,2.7c0.1,1,0.2,2.4,0.2,4c0,2.3-0.1,4.2-0.5,5.7c-0.3,1.5-0.9,2.7-1.6,3.7c-0.7,0.9-1.8,1.5-3.1,2
			c-1.3,0.4-2.9,0.6-4.8,0.6c-3.2,0-5.5-0.6-7-1.8c-1.5-1.2-2.2-3.3-2.2-6.3c0-1,0-2,0.1-2.9c0.1-1,0.1-1.8,0.3-2.4h6.6
			c-0.1,0.2-0.1,0.4-0.1,0.7c0,0.2,0,0.5,0,0.7c0,1.5,0.1,2.5,0.4,3.1c0.3,0.6,1,0.8,2,0.8c1,0,1.7-0.2,2-0.7
			c0.3-0.5,0.5-1.5,0.5-3.2c0-1-0.1-1.7-0.4-2.2s-0.8-1-1.5-1.5c-0.6-0.4-1.2-0.8-2-1.1c-0.7-0.4-1.4-0.7-2.1-1
			c-0.7-0.3-1.4-0.7-2-1c-0.7-0.4-1.2-0.7-1.7-1.2c-1-0.9-1.7-2.1-1.9-3.7c-0.2-1.6-0.3-3.7-0.3-6.2c0-1.8,0.1-3.3,0.4-4.5
			c0.3-1.2,0.8-2.2,1.5-3c0.7-0.7,1.7-1.3,2.9-1.6c1.2-0.4,2.8-0.5,4.7-0.5c1.7,0,3.2,0.1,4.3,0.4c1.2,0.3,2.1,0.7,2.9,1.4
			c0.7,0.7,1.2,1.5,1.6,2.6c0.3,1.1,0.5,2.4,0.5,4c0,1,0,1.9-0.1,2.5c-0.1,0.6-0.1,1.2-0.3,1.6h-6.8V30.1z"/>
		<path class="st1" d="M201,56.5v-7.6h7.9v7.6H201z"/>
	</g>
	<g>
		<path class="st2" d="M182.5,84.6v-5.9h-5.9v-4.5h5.9v-5.9h4.5v5.9h5.9v4.5H187v5.9H182.5z"/>
		<path class="st2" d="M201.3,68.2l-0.4,3.4c0.3-0.1,0.7-0.2,1.2-0.3c0.5-0.1,1.2-0.1,2-0.1c1,0,1.8,0.1,2.6,0.4
			c0.7,0.3,1.3,0.7,1.8,1.4c0.5,0.7,0.9,1.5,1.1,2.6c0.2,1,0.4,2.3,0.4,3.9c0,1.4,0,2.6-0.1,3.7c-0.1,1-0.1,2-0.3,2.7
			c-0.1,0.7-0.3,1.5-0.4,2c-0.1,0.6-0.4,1-0.7,1.5c-0.2,0.4-0.6,0.8-1,1.1c-0.4,0.3-0.8,0.6-1.3,0.7s-1.2,0.3-1.9,0.4
			c-0.7,0.1-1.5,0.1-2.5,0.1c-1.6,0-2.9-0.1-3.9-0.5s-1.8-0.9-2.3-1.7c-0.5-0.7-0.9-1.7-1-2.8c-0.1-1.2-0.2-2.5-0.2-4
			c0-0.8,0.1-1.7,0.1-2.6h5.6c0,0.1-0.1,0.4-0.1,0.7c0,0.2,0,0.4,0,0.7c0,1.2,0.1,2.1,0.3,2.8c0.2,0.7,0.7,1,1.5,1
			c0.6,0,1-0.1,1.2-0.1c0.2-0.1,0.4-0.3,0.4-0.5c0.1-0.4,0.2-1,0.3-1.7C204,82,204,81,204,79.6c0-0.7,0-1.3-0.1-1.8s-0.1-0.7-0.3-1
			c-0.1-0.2-0.4-0.4-0.7-0.4c-0.3-0.1-0.7-0.1-1.2-0.1c-0.7,0-1.4,0.2-2,0.7l-4.7-1.5l1-13.4h13.6v6.2H201.3z"/>
	</g>
</g>
</svg>
