<?xml version="1.0" encoding="utf-8"?>
<!-- Generator: Adobe Illustrator 20.0.0, SVG Export Plug-In . SVG Version: 6.00 Build 0)  -->
<svg version="1.1" id="Layer_1" xmlns="http://www.w3.org/2000/svg" xmlns:xlink="http://www.w3.org/1999/xlink" x="0px" y="0px"
	 viewBox="0 0 260 110" style="enable-background:new 0 0 260 110;" xml:space="preserve">
<style type="text/css">
	.st0{fill:#2d2d2d;}
	.st1{fill:#F7F7F7;}
</style>
<path class="st0" d="M226.7,108.7H33.3c-6.8,0-12.3-5.5-12.3-12.3V14.9c0-6.8,5.5-12.3,12.3-12.3h193.4c6.8,0,12.3,5.5,12.3,12.3
	v81.4C239,103.1,233.5,108.7,226.7,108.7z"/>
<g>
	<g>
		<path class="st1" d="M66.7,34.2l-0.9,8.3c0.7-0.2,1.7-0.5,3.1-0.8c1.3-0.3,3-0.4,4.9-0.4c2.4,0,4.6,0.4,6.3,1.1
			c1.8,0.7,3.3,1.9,4.6,3.5c1.2,1.6,2.1,3.8,2.7,6.3c0.6,2.6,0.9,5.8,0.9,9.7c0,3.5-0.1,6.6-0.2,9.2c-0.1,2.6-0.4,4.9-0.7,6.8
			c-0.3,1.9-0.7,3.6-1.1,5s-1,2.6-1.6,3.6c-0.7,1.1-1.4,2-2.3,2.8c-0.9,0.7-2,1.4-3.3,1.8c-1.3,0.4-2.9,0.8-4.7,1s-3.9,0.3-6.3,0.3
			c-4.1,0-7.2-0.4-9.7-1.3c-2.4-0.9-4.4-2.3-5.7-4.1s-2.2-4.2-2.7-7s-0.6-6.2-0.6-10c0-2.1,0.1-4.2,0.3-6.5h13.9
			c-0.1,0.4-0.1,1-0.1,1.6s0,1.2,0,1.7c0,3,0.2,5.3,0.7,7c0.4,1.7,1.8,2.5,3.9,2.5c1.5,0,2.5-0.1,3.1-0.4c0.6-0.2,1-0.7,1.2-1.3
			c0.3-1.1,0.6-2.5,0.7-4.3c0.1-1.8,0.2-4.4,0.2-7.9c0-1.8-0.1-3.2-0.2-4.3c-0.1-1.1-0.4-1.9-0.8-2.5c-0.4-0.6-1-1-1.7-1.2
			s-1.7-0.3-3-0.3c-1.9,0-3.5,0.6-4.9,1.7L51,52.3l2.3-33.4h33.8v15.4L66.7,34.2L66.7,34.2z"/>
		<path class="st1" d="M112.1,92.6c-3,0-5.6-0.1-7.7-0.2c-2.1-0.1-3.9-0.6-5.4-1.4c-1.5-0.7-2.6-1.9-3.5-3.5
			c-0.8-1.6-1.5-3.8-1.9-6.5c-0.4-2.8-0.7-6.3-0.9-10.5c-0.1-4.3-0.2-9.5-0.2-15.5c0-6,0.1-11.1,0.2-15.4c0.1-4.2,0.4-7.7,0.9-10.5
			s1.1-4.9,1.9-6.5c0.8-1.6,2-2.7,3.5-3.5c1.5-0.7,3.2-1.3,5.4-1.4c2.1-0.1,4.7-0.2,7.7-0.2c3,0,5.6,0.1,7.8,0.2
			c2.1,0.1,4,0.6,5.4,1.4c1.4,0.7,2.6,1.9,3.5,3.5c0.9,1.6,1.6,3.8,2,6.5c0.4,2.8,0.7,6.3,0.9,10.5c0.1,4.3,0.1,9.4,0.1,15.4
			c0,6.1-0.1,11.2-0.2,15.4c-0.1,4.2-0.4,7.7-0.9,10.5c-0.4,2.8-1.1,4.9-2,6.5c-0.9,1.6-2,2.7-3.5,3.5c-1.4,0.7-3.2,1.3-5.4,1.4
			C117.7,92.5,115.1,92.6,112.1,92.6z M112.1,76.4c1.1,0,1.9-0.1,2.5-0.4c0.6-0.2,1-1,1.4-2.4c0.3-1.4,0.5-3.5,0.6-6.5
			s0.1-7.1,0.1-12.5c0-5.5,0-9.7-0.1-12.8c-0.1-3-0.2-5.2-0.5-6.6c-0.3-1.4-0.7-2.2-1.4-2.5c-0.7-0.2-1.6-0.4-2.7-0.4
			s-2,0.1-2.7,0.4c-0.6,0.2-1,1.1-1.3,2.5s-0.4,3.6-0.5,6.6c-0.1,3-0.1,7.2-0.1,12.8c0,5.4,0.1,9.5,0.1,12.5c0.1,3,0.3,5.1,0.6,6.5
			c0.3,1.4,0.7,2.2,1.3,2.4C110.2,76.3,111,76.4,112.1,76.4z"/>
	</g>
	<g>
		<path class="st1" d="M137.1,56.5V17.9h11.6c1.7,0,3.2,0.2,4.3,0.7c1.1,0.4,2,1.2,2.7,2.2c0.7,1,1.1,2.4,1.4,4.1
			c0.2,1.7,0.4,3.8,0.4,6.3s-0.1,4.7-0.4,6.4c-0.2,1.8-0.7,3.2-1.4,4.3c-0.7,1.1-1.6,1.8-2.7,2.4c-1.1,0.4-2.6,0.7-4.3,0.7h-3.5
			v11.6H137.1z M147.3,36.9c0.7,0,1.3-0.4,1.6-1.3c0.3-0.8,0.4-2.4,0.4-4.7c0-2.1-0.1-3.4-0.5-4.1s-1-1-1.7-1h-1.9v10.9L147.3,36.9
			L147.3,36.9z"/>
		<path class="st1" d="M165,56.5V26.1H159v-8.1h20.2v8.1h-6.1v30.4H165z"/>
		<path class="st1" d="M192,29.9c0-0.3,0.1-0.5,0.1-0.7c0-0.2,0-0.5,0-1c0-1.2-0.1-2-0.4-2.4c-0.3-0.4-1-0.7-1.9-0.7
			s-1.6,0.2-1.9,0.7c-0.3,0.4-0.4,1.3-0.4,2.4c0,1.1,0.1,1.9,0.4,2.4c0.3,0.4,0.7,0.9,1.4,1.3c0.7,0.4,1.5,0.8,2.1,1.1
			c0.7,0.3,1.3,0.6,1.8,0.8c0.6,0.2,1.1,0.5,1.6,0.7c0.5,0.2,1,0.5,1.6,0.9c0.5,0.4,1,0.8,1.5,1.3c0.4,0.4,0.7,1,1,1.8
			c0.2,0.7,0.4,1.6,0.6,2.7c0.1,1,0.2,2.4,0.2,4c0,2.3-0.1,4.2-0.5,5.8c-0.3,1.6-0.9,2.7-1.6,3.7c-0.7,0.9-1.8,1.6-3.1,2
			c-1.3,0.4-3,0.6-4.9,0.6c-3.2,0-5.5-0.6-7-1.8c-1.5-1.2-2.2-3.3-2.2-6.3c0-1,0-2,0.1-3c0.1-1,0.1-1.8,0.3-2.4h6.6
			c-0.1,0.2-0.1,0.4-0.1,0.7c0,0.2,0,0.5,0,0.7c0,1.5,0.1,2.5,0.4,3.1c0.3,0.6,1,0.8,2,0.8c1,0,1.7-0.2,2-0.7
			c0.3-0.5,0.5-1.6,0.5-3.2c0-1-0.1-1.7-0.4-2.2c-0.3-0.5-0.8-1-1.5-1.5c-0.6-0.4-1.3-0.8-2-1.1c-0.7-0.4-1.4-0.7-2.1-1
			c-0.7-0.3-1.4-0.7-2-1c-0.7-0.4-1.3-0.7-1.7-1.3c-1-0.9-1.7-2.1-1.9-3.8c-0.2-1.6-0.3-3.7-0.3-6.2c0-1.8,0.1-3.3,0.4-4.6
			c0.3-1.3,0.8-2.2,1.5-3c0.7-0.7,1.7-1.3,2.9-1.6c1.3-0.4,2.8-0.5,4.7-0.5c1.7,0,3.2,0.1,4.4,0.4c1.2,0.3,2.1,0.7,2.9,1.4
			c0.7,0.7,1.3,1.6,1.6,2.7c0.3,1.1,0.5,2.4,0.5,4.1c0,1,0,1.9-0.1,2.5c-0.1,0.6-0.1,1.2-0.3,1.6H192V29.9z"/>
		<path class="st1" d="M201.4,56.5v-7.7h8v7.7H201.4z"/>
	</g>
</g>
</svg>
