<?xml version="1.0" encoding="utf-8"?>
<!-- Generator: Adobe Illustrator 20.0.0, SVG Export Plug-In . SVG Version: 6.00 Build 0)  -->
<svg version="1.1" id="Layer_1" xmlns="http://www.w3.org/2000/svg" xmlns:xlink="http://www.w3.org/1999/xlink" x="0px" y="0px"
	 viewBox="0 0 260 110" style="enable-background:new 0 0 260 110;" xml:space="preserve">
<style type="text/css">
	.st0{fill:#2D2D2D;}
	.st1{fill:#F7F7F7;}
	.st2{fill:#EAA62F;}
</style>
<path class="st0" d="M226.7,108.7H33.3c-6.8,0-12.3-5.5-12.3-12.3V14.9c0-6.8,5.5-12.3,12.3-12.3h193.4c6.8,0,12.3,5.5,12.3,12.3
	v81.4C239,103.1,233.5,108.7,226.7,108.7z"/>
<g>
	<g>
		<g>
			<path class="st1" d="M67,34.3l-0.9,8.3c0.7-0.2,1.7-0.5,3.1-0.8c1.3-0.3,2.9-0.4,4.9-0.4c2.4,0,4.6,0.4,6.3,1.1
				c1.8,0.7,3.3,1.9,4.6,3.5c1.2,1.6,2.1,3.7,2.7,6.3s0.9,5.8,0.9,9.6c0,3.5-0.1,6.5-0.2,9.1s-0.4,4.9-0.7,6.8
				c-0.3,1.9-0.7,3.6-1.1,5s-1,2.6-1.6,3.6c-0.7,1.1-1.4,2-2.3,2.8c-0.9,0.7-2,1.4-3.3,1.8s-2.9,0.8-4.7,1s-3.9,0.3-6.2,0.3
				c-4,0-7.2-0.4-9.7-1.3c-2.4-0.9-4.3-2.3-5.7-4.1c-1.3-1.8-2.2-4.2-2.6-7s-0.6-6.2-0.6-10c0-2.1,0.1-4.2,0.3-6.5H64
				c-0.1,0.4-0.1,1-0.1,1.5c0,0.6,0,1.2,0,1.7c0,3,0.2,5.3,0.7,7c0.4,1.7,1.8,2.5,3.9,2.5c1.5,0,2.5-0.1,3.1-0.4
				c0.6-0.2,1-0.7,1.2-1.3c0.3-1.1,0.6-2.5,0.7-4.3s0.2-4.3,0.2-7.9c0-1.8-0.1-3.2-0.2-4.3s-0.4-1.9-0.8-2.5s-1-1-1.7-1.2
				s-1.7-0.3-2.9-0.3c-1.9,0-3.5,0.6-4.9,1.7l-11.8-3.5L53.7,19h33.7v15.4L67,34.3L67,34.3z"/>
			<path class="st1" d="M112.2,92.4c-3,0-5.6-0.1-7.6-0.2c-2.1-0.1-3.9-0.6-5.4-1.4c-1.5-0.7-2.6-1.9-3.5-3.5
				c-0.8-1.5-1.5-3.7-1.9-6.5s-0.7-6.2-0.9-10.4c-0.1-4.3-0.2-9.4-0.2-15.4s0.1-11.1,0.2-15.3s0.4-7.6,0.9-10.4s1.1-4.9,1.9-6.5
				c0.8-1.5,2-2.7,3.5-3.5c1.5-0.7,3.2-1.2,5.4-1.4c2.1-0.1,4.7-0.2,7.6-0.2c3,0,5.6,0.1,7.7,0.2s4,0.6,5.4,1.4
				c1.4,0.7,2.6,1.9,3.5,3.5c0.9,1.5,1.5,3.7,2,6.5c0.4,2.8,0.7,6.2,0.9,10.4c0.1,4.3,0.1,9.3,0.1,15.3s-0.1,11.2-0.2,15.4
				c-0.1,4.2-0.4,7.6-0.9,10.4c-0.4,2.8-1.1,4.9-2,6.5c-0.9,1.5-2,2.7-3.5,3.5c-1.4,0.7-3.2,1.2-5.4,1.4
				C117.8,92.3,115.2,92.4,112.2,92.4z M112.2,76.3c1.1,0,1.9-0.1,2.5-0.4s1-1,1.4-2.4c0.3-1.4,0.5-3.5,0.6-6.5
				c0.1-2.9,0.1-7.1,0.1-12.4c0-5.4,0-9.7-0.1-12.7s-0.2-5.2-0.5-6.6c-0.3-1.4-0.7-2.2-1.4-2.5c-0.7-0.2-1.5-0.4-2.6-0.4
				s-2,0.1-2.6,0.4c-0.6,0.2-1,1.1-1.3,2.5s-0.4,3.6-0.5,6.6s-0.1,7.2-0.1,12.7c0,5.4,0.1,9.5,0.1,12.4c0.1,2.9,0.3,5.1,0.6,6.5
				c0.3,1.4,0.7,2.2,1.3,2.4C110.3,76.2,111.1,76.3,112.2,76.3z"/>
		</g>
		<g>
			<path class="st1" d="M137.1,56.5V18h11.5c1.7,0,3.2,0.2,4.3,0.7s2,1.2,2.6,2.2c0.7,1,1.1,2.4,1.4,4c0.2,1.7,0.4,3.7,0.4,6.2
				s-0.1,4.6-0.4,6.4c-0.2,1.8-0.7,3.2-1.4,4.3s-1.5,1.8-2.6,2.4c-1.1,0.4-2.6,0.7-4.3,0.7h-3.5v11.5L137.1,56.5L137.1,56.5z
				 M147.2,37c0.7,0,1.2-0.4,1.5-1.2s0.4-2.4,0.4-4.7c0-2.1-0.1-3.4-0.5-4c-0.4-0.7-1-1-1.7-1H145V37H147.2L147.2,37z"/>
			<path class="st1" d="M164.9,56.5V26.2h-6v-8.1H179v8.1h-6v30.3H164.9z"/>
			<path class="st1" d="M191.8,30c0-0.3,0.1-0.5,0.1-0.7s0-0.5,0-1c0-1.2-0.1-2-0.4-2.4c-0.3-0.4-1-0.7-1.9-0.7s-1.6,0.2-1.9,0.7
				c-0.3,0.4-0.4,1.2-0.4,2.4c0,1.1,0.1,1.9,0.4,2.4s0.7,0.9,1.4,1.2c0.7,0.4,1.5,0.8,2.1,1.1c0.7,0.3,1.2,0.6,1.8,0.8
				s1.1,0.5,1.6,0.7s1,0.5,1.5,0.9s1,0.8,1.5,1.3c0.4,0.4,0.7,1,1,1.8c0.2,0.7,0.4,1.6,0.6,2.7c0.1,1,0.2,2.4,0.2,4
				c0,2.3-0.1,4.2-0.5,5.7c-0.3,1.5-0.9,2.7-1.6,3.7c-0.7,0.9-1.8,1.5-3.1,2c-1.3,0.4-2.9,0.6-4.9,0.6c-3.2,0-5.5-0.6-7-1.8
				s-2.2-3.3-2.2-6.3c0-1,0-2,0.1-2.9c0.1-1,0.1-1.8,0.3-2.4h6.6c-0.1,0.2-0.1,0.4-0.1,0.7c0,0.2,0,0.5,0,0.7c0,1.5,0.1,2.5,0.4,3.1
				c0.3,0.6,1,0.8,2,0.8s1.7-0.2,2-0.7s0.5-1.5,0.5-3.2c0-1-0.1-1.7-0.4-2.2c-0.3-0.5-0.8-1-1.5-1.5c-0.6-0.4-1.2-0.8-2-1.1
				c-0.7-0.4-1.4-0.7-2.1-1c-0.7-0.3-1.4-0.7-2-1c-0.7-0.4-1.2-0.7-1.7-1.2c-1-0.9-1.7-2.1-1.9-3.7s-0.3-3.7-0.3-6.2
				c0-1.8,0.1-3.3,0.4-4.6c0.3-1.2,0.8-2.2,1.5-3c0.7-0.7,1.7-1.3,2.9-1.6c1.2-0.4,2.8-0.5,4.7-0.5c1.7,0,3.2,0.1,4.3,0.4
				c1.2,0.3,2.1,0.7,2.9,1.4c0.7,0.7,1.2,1.5,1.6,2.6c0.3,1.1,0.5,2.4,0.5,4c0,1,0,1.9-0.1,2.5s-0.1,1.2-0.3,1.6h-6.8V30H191.8z"/>
			<path class="st1" d="M201.2,56.5v-7.6h7.9v7.6H201.2z"/>
		</g>
	</g>
	<g>
		<path class="st2" d="M165.3,85.1v-6h-6v-4.6h6v-6h4.6v6h6v4.6h-6v6H165.3z"/>
		<path class="st2" d="M178,91.7v-6.6h4.3V72.2h-4.4v-5.4h2.7c0.5,0,1,0,1.3-0.1c0.4-0.1,0.6-0.2,0.8-0.4c0.2-0.2,0.4-0.4,0.5-0.8
			s0.2-0.8,0.2-1.4l0.1-2.1h5.1v23h4.1v6.6H178V91.7z"/>
		<path class="st2" d="M201.8,92.2c-1.2,0-2.3,0-3.1-0.1c-0.9-0.1-1.6-0.3-2.2-0.6c-0.6-0.3-1.1-0.8-1.4-1.4
			c-0.3-0.6-0.6-1.5-0.8-2.7c-0.2-1.1-0.3-2.6-0.4-4.3c-0.1-1.7-0.1-3.8-0.1-6.3c0-2.4,0-4.5,0.1-6.2s0.2-3.1,0.4-4.3
			c0.2-1.1,0.4-2,0.8-2.7c0.3-0.6,0.8-1.1,1.4-1.4c0.6-0.3,1.3-0.5,2.2-0.6s1.9-0.1,3.1-0.1c1.2,0,2.3,0,3.2,0.1s1.6,0.3,2.2,0.6
			c0.6,0.3,1.1,0.8,1.4,1.4c0.4,0.6,0.6,1.5,0.8,2.7s0.3,2.6,0.4,4.3c0.1,1.7,0.1,3.8,0.1,6.2c0,2.5,0,4.6-0.1,6.3
			c-0.1,1.7-0.2,3.1-0.4,4.3s-0.4,2-0.8,2.7c-0.4,0.6-0.8,1.1-1.4,1.4c-0.6,0.3-1.3,0.5-2.2,0.6S203.1,92.2,201.8,92.2z M201.8,85.6
			c0.4,0,0.8-0.1,1-0.2s0.4-0.4,0.6-1c0.1-0.6,0.2-1.4,0.3-2.6c0-1.2,0.1-2.9,0.1-5.1s0-4,0-5.2s-0.1-2.1-0.2-2.7
			c-0.1-0.6-0.3-0.9-0.6-1s-0.6-0.2-1.1-0.2s-0.8,0.1-1.1,0.2c-0.2,0.1-0.4,0.4-0.5,1s-0.2,1.5-0.2,2.7s0,3,0,5.2s0,3.9,0.1,5.1
			c0,1.2,0.1,2.1,0.2,2.6c0.1,0.6,0.3,0.9,0.5,1C201,85.5,201.4,85.6,201.8,85.6z"/>
	</g>
</g>
</svg>
