<?xml version="1.0" encoding="utf-8"?>
<!-- Generator: Adobe Illustrator 15.0.0, SVG Export Plug-In . SVG Version: 6.00 Build 0)  -->
<!DOCTYPE svg PUBLIC "-//W3C//DTD SVG 1.1//EN" "http://www.w3.org/Graphics/SVG/1.1/DTD/svg11.dtd">
<svg version="1.1" id="flash0.ai" xmlns="http://www.w3.org/2000/svg" xmlns:xlink="http://www.w3.org/1999/xlink" x="0px" y="0px"
	 width="283px" height="62.4px" viewBox="0 0 283 62.4" enable-background="new 0 0 283 62.4" xml:space="preserve">
<g opacity="0.54">
	<path fill-rule="evenodd" clip-rule="evenodd" d="M81.8,4.1c1.1,0,18.5,0,52.3,0c32.1,0,51.3-0.1,57.5-0.3
		c5.9-0.2,19.5-0.3,40.8-0.1c23.2,0.2,39,0.2,47.2,0c0,0.3-0.1,4.2-0.3,11.7c-0.2,7.5-0.3,13-0.3,16.7c0,0.7-0.1,4.5-0.2,11.4
		c0.1,7.3,0.8,12.6,2,15.9c-21.5,0.5-57.6,0.8-108.1,1c-41.5,0.1-79.4,0-113.5-0.1c-3.8,0-13.6,0-29.4,0.1
		c-10.4,0.1-19.8,0-28.2-0.3c0.8-4.6,1.1-10.5,1-17.7C2.2,34.2,2,28.2,1.8,24.7C1.6,18,1.4,11.3,1.1,4.7l0.1,0
		C10.1,5,23.6,5,41.6,4.8C43.1,4.8,56.5,4.6,81.8,4.1z"/>
</g>
<g>
	<path fill-rule="evenodd" clip-rule="evenodd" fill="#FFFFFF" d="M281,30.2c0,0.7-0.1,4.5-0.2,11.4c0.1,7.3,0.8,12.6,2,15.9
		c-21.5,0.5-57.6,0.8-108.2,1c-41.5,0.1-79.4,0-113.5-0.1c-3.8,0-13.6,0-29.4,0.1c-10.4,0.1-19.8,0-28.2-0.3
		c0.8-4.6,1.1-10.5,1-17.7C4.2,32.2,4,26.3,3.9,22.8c-0.2-6.7-0.5-13.3-0.8-20l0.1,0c8.9,0.3,22.3,0.4,40.4,0.2
		c1.4,0,14.8-0.3,40.2-0.7c1.1,0,18.5,0,52.3,0c32.1,0,51.3-0.1,57.5-0.3c5.9-0.2,19.5-0.3,40.8-0.1c23.2,0.2,39,0.2,47.2,0
		c0,0.3-0.1,4.2-0.3,11.7C281.1,21,281,26.6,281,30.2z"/>
</g>
<g>
	<g>
		<path fill-rule="evenodd" clip-rule="evenodd" fill="#CCCCCC" d="M8.3,3.5c0.7,0,1.3,0.3,1.8,0.9c0.5,0.5,0.7,1.1,0.6,1.9
			c0,0.7-0.3,1.3-0.9,1.8C9.3,8.5,8.7,8.7,8,8.6c-0.7,0-1.3-0.3-1.8-0.9C5.7,7.2,5.5,6.6,5.6,5.9c0-0.7,0.3-1.3,0.9-1.8
			C7,3.7,7.6,3.4,8.3,3.5z"/>
		<path fill-rule="evenodd" clip-rule="evenodd" fill="#BDBDBD" d="M9.9,8C9.3,8.5,8.7,8.7,8,8.6c-0.2,0-0.5-0.1-0.8-0.2
			c0.8,0,1.6-0.2,2.2-0.8c0.6-0.6,1-1.3,1-2.1c0-0.2,0-0.5,0-0.8c0.3,0.4,0.4,0.9,0.4,1.5C10.7,6.9,10.4,7.5,9.9,8z"/>
		<path fill-rule="evenodd" clip-rule="evenodd" fill="#FFFFFF" d="M9.4,4.2C9.7,4.4,10,4.7,10.1,5C9.8,4.7,9.4,4.5,8.8,4.5
			C8.2,4.4,7.7,4.6,7.3,5C6.8,5.4,6.6,5.9,6.6,6.5c0,0.7,0.2,1.2,0.7,1.6C6.8,8,6.5,7.7,6.2,7.2C6,6.8,5.9,6.4,5.9,5.9
			c0-0.6,0.3-1.1,0.8-1.5c0.5-0.4,1-0.6,1.6-0.6l0,0C8.7,3.8,9,4,9.4,4.2z"/>
	</g>
</g>
<g>
	<g>
		<path fill-rule="evenodd" clip-rule="evenodd" fill="#CCCCCC" d="M9.1,51.9c0.7,0,1.3,0.3,1.8,0.9c0.5,0.5,0.7,1.1,0.6,1.9
			c0,0.7-0.3,1.3-0.9,1.8c-0.6,0.5-1.2,0.7-1.9,0.6c-0.7,0-1.3-0.3-1.8-0.9c-0.5-0.5-0.7-1.2-0.6-1.9c0-0.7,0.3-1.3,0.9-1.8
			C7.8,52.1,8.4,51.9,9.1,51.9z"/>
		<path fill-rule="evenodd" clip-rule="evenodd" fill="#BDBDBD" d="M10.7,56.4c-0.6,0.5-1.2,0.7-1.9,0.6C8.6,57,8.3,57,8,56.9
			c0.8,0,1.6-0.2,2.2-0.8c0.6-0.6,1-1.3,1-2.1c0-0.2,0-0.5,0-0.8c0.3,0.4,0.4,0.9,0.4,1.5C11.5,55.4,11.2,56,10.7,56.4z"/>
		<path fill-rule="evenodd" clip-rule="evenodd" fill="#FFFFFF" d="M10.2,52.6c0.3,0.2,0.6,0.5,0.8,0.8c-0.3-0.3-0.8-0.5-1.3-0.5
			c-0.6,0-1.1,0.2-1.5,0.5c-0.4,0.4-0.7,0.9-0.7,1.5c0,0.7,0.2,1.2,0.7,1.6c-0.4-0.2-0.8-0.5-1-0.9c-0.3-0.4-0.4-0.9-0.3-1.4
			c0-0.6,0.3-1.1,0.8-1.5c0.5-0.4,1-0.6,1.6-0.6l0,0C9.5,52.3,9.8,52.4,10.2,52.6z"/>
	</g>
</g>
<g>
	<g>
		<path fill-rule="evenodd" clip-rule="evenodd" fill="#CCCCCC" d="M276.4,3.7c0.7,0,1.4,0.3,1.8,0.9c0.5,0.5,0.7,1.2,0.6,1.9
			c0,0.7-0.3,1.4-0.9,1.8c-0.6,0.5-1.2,0.7-1.9,0.6c-0.7,0-1.3-0.3-1.8-0.9c-0.5-0.6-0.7-1.2-0.7-1.9c0-0.7,0.3-1.3,0.9-1.8
			C275,3.9,275.6,3.6,276.4,3.7z"/>
		<path fill-rule="evenodd" clip-rule="evenodd" fill="#BDBDBD" d="M278,8.4c-0.6,0.5-1.2,0.7-1.9,0.6c-0.2,0-0.5-0.1-0.8-0.2
			c0.9,0,1.6-0.2,2.3-0.8c0.6-0.6,1-1.3,1-2.2c0-0.2,0-0.5,0-0.8c0.3,0.4,0.4,1,0.4,1.5C278.8,7.3,278.5,7.9,278,8.4z"/>
		<path fill-rule="evenodd" clip-rule="evenodd" fill="#FFFFFF" d="M277.5,4.4c0.3,0.2,0.6,0.5,0.8,0.9c-0.3-0.3-0.8-0.5-1.4-0.6
			c-0.6,0-1.1,0.2-1.6,0.6s-0.7,0.9-0.7,1.5c0,0.7,0.2,1.2,0.7,1.7c-0.4-0.2-0.8-0.5-1-0.9c-0.3-0.4-0.4-0.9-0.3-1.4
			c0-0.6,0.3-1.2,0.8-1.6c0.5-0.4,1-0.6,1.7-0.6l0,0C276.7,4,277.1,4.2,277.5,4.4z"/>
	</g>
</g>
<g>
	<g>
		<path fill-rule="evenodd" clip-rule="evenodd" fill="#CCCCCC" d="M276.4,50.5c0.7,0,1.4,0.3,1.8,0.9c0.5,0.5,0.7,1.2,0.6,1.9
			c0,0.7-0.3,1.4-0.9,1.8c-0.6,0.5-1.2,0.7-1.9,0.6c-0.7,0-1.3-0.3-1.8-0.9c-0.5-0.6-0.7-1.2-0.7-1.9c0-0.7,0.3-1.3,0.9-1.8
			C275,50.7,275.6,50.5,276.4,50.5z"/>
		<path fill-rule="evenodd" clip-rule="evenodd" fill="#BDBDBD" d="M278,55.2c-0.6,0.5-1.2,0.7-1.9,0.6c-0.2,0-0.5-0.1-0.8-0.2
			c0.9,0,1.6-0.2,2.3-0.8c0.6-0.6,1-1.3,1-2.2c0-0.2,0-0.5,0-0.8c0.3,0.4,0.4,1,0.4,1.5C278.8,54.1,278.5,54.7,278,55.2z"/>
		<path fill-rule="evenodd" clip-rule="evenodd" fill="#FFFFFF" d="M277.5,51.3c0.3,0.2,0.6,0.5,0.8,0.9c-0.3-0.3-0.8-0.5-1.4-0.6
			c-0.6,0-1.1,0.2-1.6,0.6s-0.7,0.9-0.7,1.5c0,0.7,0.2,1.2,0.7,1.7c-0.4-0.2-0.8-0.5-1-0.9c-0.3-0.4-0.4-0.9-0.3-1.4
			c0-0.6,0.3-1.2,0.8-1.6c0.5-0.4,1-0.6,1.7-0.6l0,0C276.7,50.9,277.1,51,277.5,51.3z"/>
	</g>
</g>
</svg>
