<?xml version="1.0" encoding="utf-8"?>
<!-- Generator: Adobe Illustrator 16.0.0, SVG Export Plug-In . SVG Version: 6.00 Build 0)  -->
<!DOCTYPE svg PUBLIC "-//W3C//DTD SVG 1.1//EN" "http://www.w3.org/Graphics/SVG/1.1/DTD/svg11.dtd">
<svg version="1.1" xmlns="http://www.w3.org/2000/svg" xmlns:xlink="http://www.w3.org/1999/xlink" x="0px" y="0px" preserveAspectRatio="none" viewBox="0 0 550 161" enable-background="new 0 0 550 161" xml:space="preserve">
<g id="Isolation_Mode">
</g>
<g id="Layer_1">
	<g opacity="0.7">
		<path fill-rule="evenodd" clip-rule="evenodd" d="M544.1,78.1v16.6h-54.2l2.2,0.2v0h16.8l-0.1,6.9c-0.4,4.8-1.5,7.6-3.1,8.4
			c-1.2,0.6-2.5,1-4,1h-16.5c-0.1,0-0.1,0-0.2,0c-0.1,0-0.2,0-0.2,0c-2.8,0-6.2-1.4-10.3-4.3c-4.5-3.5-7.9-6-10.1-7.5
			c-3.2,2.3-5.5,5.6-6.9,9.9c0,8.5-0.1,22.6-0.2,42.5c0,2.5-0.9,4.5-2.6,6c-1.6,1.4-3.5,2-5.7,2c-0.8,0-1.6-0.1-2.3-0.3
			c-2.6-0.5-4.4-1.9-5.6-4c-1.1-1.9-1.6-4.8-1.6-8.5c0.1-15.5,0.2-32.8,0.2-51.9c0-0.2,0-0.3,0-0.5H107.1c0,0.2,0,0.3,0,0.5
			c0,19.1,0,36.4,0.1,51.9c0,3.8-0.5,6.6-1.5,8.5c-1.1,2-3,3.4-5.5,3.9c-0.8,0.2-1.6,0.3-2.5,0.3c-2.2,0-4.1-0.7-5.7-2
			c-1.7-1.5-2.6-3.5-2.6-6c-0.2-19.8-0.2-34-0.2-42.5c-1.4-4.3-3.7-7.6-6.9-9.9c-2.2,1.4-5.6,3.9-10.2,7.5c-4,2.8-7.4,4.2-10.2,4.3
			c0,0-0.1,0-0.1,0H45.1c-1.5-0.1-2.8-0.4-4-1c-1.6-0.8-2.7-3.6-3.1-8.4l-0.1-6.9h16.8v0l1.9-0.1H1V78.1c0-1.6,0.6-3,1.8-4.3
			c0.3-0.3,0.7-0.6,1.1-0.8c0.6-0.5,1.2-0.9,1.9-1.2L68,46h409l62.2,25.9c0.6,0.3,1.1,0.6,1.5,0.9c0.6,0.3,1.1,0.6,1.6,1.1
			C543.5,75.1,544.1,76.5,544.1,78.1z"/>
	</g>
	<g>
		<g>
			
				<linearGradient id="SVGID_1_" gradientUnits="userSpaceOnUse" x1="137.6245" y1="260.1504" x2="137.6245" y2="340.4004" gradientTransform="matrix(0.789 0 0 0.789 -10.6499 -113.7998)">
				<stop  offset="0.102" style="stop-color:#C19372"/>
				<stop  offset="0.4549" style="stop-color:#BF9170"/>
				<stop  offset="0.5804" style="stop-color:#B98B69"/>
				<stop  offset="0.6706" style="stop-color:#AE7F5E"/>
				<stop  offset="0.7451" style="stop-color:#9F6F4D"/>
				<stop  offset="0.8039" style="stop-color:#8B5A38"/>
				<stop  offset="0.8118" style="stop-color:#895836"/>
			</linearGradient>
			<path fill-rule="evenodd" clip-rule="evenodd" fill="url(#SVGID_1_)" d="M90.4,92.1c1.1-0.4,2.3-0.6,3.6-0.6
				c0.9,0,1.8,0.1,2.7,0.3c2.8,0.5,5.2,1.7,7.5,3.7c2.6,2.2,4.4,5.2,5.6,8.9c0,15.5,0,29.6,0.1,42.3c0,2.6-0.9,4.6-2.6,6.1
				c-1.5,1.4-3.4,2.1-5.7,2.1c-2.2,0-4.1-0.7-5.7-2c-1.7-1.5-2.6-3.5-2.6-6c-0.2-19.8-0.3-34-0.3-42.4c-1.3-4.3-3.6-7.6-6.9-9.9
				C87.6,93.4,89.1,92.6,90.4,92.1z"/>
			
				<linearGradient id="SVGID_2_" gradientUnits="userSpaceOnUse" x1="170.9575" y1="254.0918" x2="94.8825" y2="317.9418" gradientTransform="matrix(0.789 0 0 0.789 -10.6499 -113.7998)">
				<stop  offset="0.102" style="stop-color:#AA866C"/>
				<stop  offset="0.5765" style="stop-color:#895836"/>
			</linearGradient>
			<path fill-rule="evenodd" clip-rule="evenodd" fill="url(#SVGID_2_)" d="M58.3,94.2c-0.1-2.1,0-3.6,0-4.5l40.4-2.9l6.1-0.2
				c4,0.3,6,1.4,6,3.5c0,19,0,36.3,0.1,51.9c0,3.8-0.5,6.6-1.6,8.6c-1.3,2.4-3.7,3.8-6.9,4.1c3.1-0.8,5.3-2.3,6.4-4.5
				c0.6-1.2,0.9-2.7,0.9-4.5l-0.1-41.4c-1.2-3.7-3.1-6.6-5.6-8.9c-2.2-1.9-4.7-3.1-7.5-3.7c-0.8-0.2-1.7-0.3-2.7-0.3
				c-1.3,0-2.5,0.2-3.6,0.6c-1.4,0.5-2.8,1.3-4.4,2.3c-2.2,1.4-5.5,3.9-10.1,7.5c-4.1,2.8-7.5,4.3-10.3,4.3c-1.4,0-2.8-0.3-4.1-1
				c-0.9-0.5-1.7-1.6-2.2-3.4C58.8,99.8,58.5,97.3,58.3,94.2z"/>
			
				<linearGradient id="SVGID_3_" gradientUnits="userSpaceOnUse" x1="81.2622" y1="257.9512" x2="81.2622" y2="278.6512" gradientTransform="matrix(0.789 0 0 0.789 -10.2998 -113.7998)">
				<stop  offset="0" style="stop-color:#A5693E"/>
				<stop  offset="0.1608" style="stop-color:#F7E1D1"/>
				<stop  offset="0.1725" style="stop-color:#F4DDCD"/>
				<stop  offset="0.2706" style="stop-color:#DEBDA5"/>
				<stop  offset="0.3608" style="stop-color:#CEA689"/>
				<stop  offset="0.4392" style="stop-color:#C49878"/>
				<stop  offset="0.498" style="stop-color:#C19372"/>
				<stop  offset="1" style="stop-color:#875633"/>
			</linearGradient>
			<path fill-rule="evenodd" clip-rule="evenodd" fill="url(#SVGID_3_)" d="M58.7,89.7L58.7,89.7c-0.1,0.9-0.1,2.4,0,4.5
				c0.1,3.1,0.5,5.6,1,7.5c0.5,1.8,1.3,2.9,2.2,3.4c1.2,0.6,2.5,1,3.8,1H49.1c-1.5-0.1-2.8-0.4-4-1c-1.6-0.8-2.7-3.7-3.1-8.4
				l-0.1-6.9H58.7z"/>
			<path fill-rule="evenodd" clip-rule="evenodd" fill="#666666" d="M99.1,114.2c0-0.6,0.2-1.1,0.6-1.6c0.4-0.4,1-0.6,1.6-0.6
				c0.6,0,1.1,0.2,1.5,0.6c0.4,0.4,0.6,1,0.6,1.6c0,0.6-0.2,1.1-0.6,1.6c-0.4,0.4-0.9,0.6-1.5,0.6c-0.6,0-1.1-0.2-1.6-0.6
				C99.4,115.3,99.1,114.8,99.1,114.2z"/>
			<path fill-rule="evenodd" clip-rule="evenodd" fill="#666666" d="M99.1,137.5c0-0.6,0.2-1.1,0.6-1.6c0.4-0.4,1-0.6,1.6-0.6
				c0.6,0,1.1,0.2,1.5,0.6c0.4,0.4,0.6,1,0.6,1.6c0,0.6-0.2,1.1-0.6,1.6c-0.4,0.4-0.9,0.6-1.5,0.6c-0.6,0-1.1-0.2-1.6-0.6
				C99.4,138.7,99.1,138.1,99.1,137.5z"/>
		</g>
		<g>
			
				<linearGradient id="SVGID_4_" gradientUnits="userSpaceOnUse" x1="137.626" y1="260.1494" x2="137.626" y2="340.3994" gradientTransform="matrix(-0.7868 0 0 0.789 564 -113.7998)">
				<stop  offset="0.102" style="stop-color:#C19372"/>
				<stop  offset="0.4549" style="stop-color:#BF9170"/>
				<stop  offset="0.5804" style="stop-color:#B98B69"/>
				<stop  offset="0.6706" style="stop-color:#AE7F5E"/>
				<stop  offset="0.7451" style="stop-color:#9F6F4D"/>
				<stop  offset="0.8039" style="stop-color:#8B5A38"/>
				<stop  offset="0.8118" style="stop-color:#895836"/>
			</linearGradient>
			<path fill-rule="evenodd" clip-rule="evenodd" fill="url(#SVGID_4_)" d="M463.2,92.1c-1.1-0.4-2.3-0.6-3.6-0.6
				c-0.9,0-1.8,0.1-2.7,0.3c-2.8,0.5-5.2,1.7-7.4,3.7c-2.5,2.2-4.4,5.2-5.6,8.9c0,15.5,0,29.6-0.1,42.3c0,2.6,0.9,4.6,2.6,6.1
				c1.5,1.4,3.4,2.1,5.7,2.1c2.2,0,4.1-0.7,5.7-2c1.7-1.5,2.6-3.5,2.6-6c0.2-19.8,0.3-34,0.3-42.4c1.3-4.3,3.6-7.6,6.8-9.9
				C466,93.4,464.6,92.6,463.2,92.1z"/>
			
				<linearGradient id="SVGID_5_" gradientUnits="userSpaceOnUse" x1="170.958" y1="254.0928" x2="94.883" y2="317.9428" gradientTransform="matrix(-0.7868 0 0 0.789 564 -113.7998)">
				<stop  offset="0.102" style="stop-color:#AA866C"/>
				<stop  offset="0.5765" style="stop-color:#895836"/>
			</linearGradient>
			<path fill-rule="evenodd" clip-rule="evenodd" fill="url(#SVGID_5_)" d="M495.2,94.2c0.1-2.1,0-3.6,0-4.5l-40.3-2.9l-6.1-0.2
				c-4,0.3-6,1.4-6,3.5c0,19,0,36.3-0.1,51.9c0,3.8,0.5,6.6,1.6,8.6c1.3,2.4,3.6,3.8,6.9,4.1c-3.1-0.8-5.2-2.3-6.4-4.5
				c-0.6-1.2-0.9-2.7-0.9-4.5l0.1-41.4c1.2-3.7,3-6.6,5.6-8.9c2.2-1.9,4.7-3.1,7.4-3.7c0.8-0.2,1.7-0.3,2.7-0.3
				c1.3,0,2.5,0.2,3.6,0.6c1.4,0.5,2.8,1.3,4.4,2.3c2.2,1.4,5.5,3.9,10.1,7.5c4.1,2.8,7.5,4.3,10.3,4.3c1.4,0,2.8-0.3,4.1-1
				c0.9-0.5,1.7-1.6,2.2-3.4C494.7,99.8,495.1,97.3,495.2,94.2z"/>
			
				<linearGradient id="SVGID_6_" gradientUnits="userSpaceOnUse" x1="81.2632" y1="257.9502" x2="81.2632" y2="278.6502" gradientTransform="matrix(-0.7868 0 0 0.789 564 -113.7998)">
				<stop  offset="0" style="stop-color:#A5693E"/>
				<stop  offset="0.1608" style="stop-color:#F7E1D1"/>
				<stop  offset="0.1725" style="stop-color:#F4DDCD"/>
				<stop  offset="0.2706" style="stop-color:#DEBDA5"/>
				<stop  offset="0.3608" style="stop-color:#CEA689"/>
				<stop  offset="0.4392" style="stop-color:#C49878"/>
				<stop  offset="0.498" style="stop-color:#C19372"/>
				<stop  offset="1" style="stop-color:#875633"/>
			</linearGradient>
			<path fill-rule="evenodd" clip-rule="evenodd" fill="url(#SVGID_6_)" d="M495.2,89.7L495.2,89.7c0.1,0.9,0.1,2.4,0,4.5
				c-0.1,3.1-0.5,5.6-1,7.5c-0.5,1.8-1.3,2.9-2.2,3.4c-1.2,0.6-2.5,1-3.8,1h16.6c1.5-0.1,2.8-0.4,4-1c1.6-0.8,2.6-3.7,3.1-8.4
				l0.1-6.9H495.2z"/>
			<path fill-rule="evenodd" clip-rule="evenodd" fill="#666666" d="M454.5,114.2c0-0.6-0.2-1.1-0.6-1.6c-0.4-0.4-1-0.6-1.6-0.6
				c-0.6,0-1.1,0.2-1.5,0.6c-0.4,0.4-0.6,1-0.6,1.6c0,0.6,0.2,1.1,0.6,1.6c0.4,0.4,0.9,0.6,1.5,0.6c0.6,0,1.1-0.2,1.6-0.6
				C454.3,115.3,454.5,114.8,454.5,114.2z"/>
			<path fill-rule="evenodd" clip-rule="evenodd" fill="#666666" d="M454.5,137.5c0-0.6-0.2-1.1-0.6-1.6c-0.4-0.4-1-0.6-1.6-0.6
				c-0.6,0-1.1,0.2-1.5,0.6c-0.4,0.4-0.6,1-0.6,1.6c0,0.6,0.2,1.1,0.6,1.6c0.4,0.4,0.9,0.6,1.5,0.6c0.6,0,1.1-0.2,1.6-0.6
				C454.3,138.7,454.5,138.1,454.5,137.5z"/>
		</g>
		<g>
			<linearGradient id="SVGID_7_" gradientUnits="userSpaceOnUse" x1="276.0498" y1="90.5996" x2="276.0498" y2="65.9996">
				<stop  offset="0.498" style="stop-color:#A5693E"/>
				<stop  offset="0.5569" style="stop-color:#A76C42"/>
				<stop  offset="0.6118" style="stop-color:#AD764D"/>
				<stop  offset="0.6706" style="stop-color:#B88560"/>
				<stop  offset="0.7255" style="stop-color:#C69B7C"/>
				<stop  offset="0.7843" style="stop-color:#D9B89E"/>
				<stop  offset="0.7882" style="stop-color:#DBBBA3"/>
				<stop  offset="1" style="stop-color:#895836"/>
			</linearGradient>
			<path fill-rule="evenodd" clip-rule="evenodd" fill="url(#SVGID_7_)" d="M547,89.6H5V73c0-1.6,0.6-3.1,1.8-4.3
				c1.1-1,2.5-1.6,4.1-1.7h530.5c1.5,0.1,2.8,0.7,3.9,1.7c1.1,1.2,1.7,2.6,1.7,4.3V89.6z"/>
		</g>
		<g>
			
				<linearGradient id="SVGID_8_" gradientUnits="userSpaceOnUse" x1="6.0498" y1="271.8379" x2="688.4502" y2="271.8379" gradientTransform="matrix(0.789 0 0 0.789 2.6499 -159.0996)">
				<stop  offset="0.1412" style="stop-color:#895836"/>
				<stop  offset="0.5412" style="stop-color:#A5693E"/>
				<stop  offset="0.8275" style="stop-color:#895836"/>
			</linearGradient>
			<path fill-rule="evenodd" clip-rule="evenodd" fill="url(#SVGID_8_)" d="M545.5,69.5c-0.6-0.7-1.3-1.1-2.2-1.1H7.7
				c-0.1,0.1-0.2,0.1-0.2,0.2c0.1-0.2,0.2-0.3,0.2-0.4c0.6-0.6,1.4-1.1,2.2-1.5L72,40.8h408.2l62.1,25.9c1.3,0.6,2.3,1.4,3.1,2.4
				c0.2,0.3,0.4,0.6,0.6,0.8C545.8,69.8,545.6,69.7,545.5,69.5z"/>
		</g>
	</g>
</g>
</svg>
