<?xml version="1.0" encoding="utf-8"?>
<!-- Generator: Adobe Illustrator 20.0.0, SVG Export Plug-In . SVG Version: 6.00 Build 0)  -->
<svg version="1.1" id="flash0.ai" xmlns="http://www.w3.org/2000/svg" xmlns:xlink="http://www.w3.org/1999/xlink" x="0px" y="0px"
	 viewBox="0 0 50 30" style="enable-background:new 0 0 50 30;" xml:space="preserve">
<style type="text/css">
	.st0{fill:#F8FBFF;}
	.st1{fill:#161616;}
</style>
<path class="st0" d="M22.4,23.1h13.9c2.7,0,4.8-1.9,4.8-4.3V4.6c0-2.4-2.2-4.3-4.8-4.3H13.5c-2.7,0-4.8,1.9-4.8,4.3v14.1
	c0,2.4,2.2,4.3,4.8,4.3h2.2v6L22.4,23.1z"/>
<g>
	<path class="st1" d="M17.9,12.9c0,0.5-0.1,1-0.3,1.4c-0.2,0.4-0.4,0.7-0.8,0.9c-0.4,0.2-0.8,0.3-1.2,0.3c-0.5,0-1.1-0.2-1.5-0.4
		v-2.2c0.3,0.3,0.4,0.4,0.7,0.6c0.3,0.2,0.5,0.3,0.8,0.3c0.2,0,0.4-0.1,0.4-0.2s0.2-0.3,0.2-0.4c0-0.1,0-0.3-0.1-0.4
		c-0.1-0.1-0.1-0.2-0.2-0.3c-0.1-0.1-0.3-0.2-0.5-0.4c-0.9-0.5-1.2-1.3-1.2-2.4c0-0.8,0.2-1.4,0.6-1.9c0.4-0.4,0.9-0.7,1.6-0.7
		c0.2,0,0.4,0,0.5,0c0.2,0,0.3,0.1,0.4,0.1c0.1,0,0.3,0.1,0.5,0.2v2c-0.4-0.4-0.9-0.5-1.3-0.5c-0.2,0-0.4,0.1-0.4,0.2
		c-0.1,0.1-0.2,0.3-0.2,0.4c0,0.2,0,0.3,0.1,0.4c0.1,0.1,0.3,0.3,0.5,0.4c0.5,0.4,1,0.7,1.2,1.2C17.7,11.8,17.9,12.4,17.9,12.9z"/>
	<path class="st1" d="M18.5,15.4V7.2h1.6v6.2h1.9v2H18.5z"/>
	<path class="st1" d="M27.6,11.3c0,0.8-0.1,1.5-0.4,2.2c-0.3,0.6-0.5,1.2-1,1.5s-0.9,0.5-1.4,0.5c-0.5,0-1-0.2-1.3-0.5
		c-0.4-0.4-0.7-0.8-1-1.4c-0.3-0.6-0.4-1.3-0.4-2.1c0-0.8,0.1-1.6,0.4-2.2c0.3-0.7,0.6-1.2,1.1-1.6c0.4-0.4,0.9-0.5,1.4-0.5
		s1,0.2,1.3,0.5c0.4,0.4,0.7,0.8,1,1.5C27.5,9.7,27.6,10.5,27.6,11.3z M25.9,11.3c0-0.7-0.1-1.2-0.3-1.6c-0.2-0.4-0.4-0.6-0.7-0.6
		c-0.4,0-0.5,0.2-0.7,0.5C24.1,10,24,10.5,24,11.2c0,0.6,0.1,1.2,0.3,1.5c0.2,0.4,0.4,0.5,0.7,0.5c0.2,0,0.4-0.1,0.5-0.3
		c0.2-0.2,0.3-0.4,0.4-0.7C25.9,12.1,25.9,11.7,25.9,11.3z"/>
	<path class="st1" d="M34.5,15.4h-1.7l-0.7-4.6c0-0.1-0.1-0.4-0.1-1l0,0c0,0.4-0.1,0.8-0.1,1l-0.8,4.6h-1.8l-1.2-8.1h1.8l0.4,4.8
		c0,0.1,0,0.3,0,0.5v0.4l0,0c0-0.1,0-0.3,0.1-0.5c0-0.3,0.1-0.4,0.1-0.5l0.8-4.7H33l0.7,4.8l0.1,0.4V13l0,0v-0.2l0.1-0.8l0.4-4.8H36
		L34.5,15.4z"/>
</g>
</svg>
