<?xml version="1.0" encoding="utf-8"?>
<!-- Generator: Adobe Illustrator 20.0.0, SVG Export Plug-In . SVG Version: 6.00 Build 0)  -->
<svg version="1.1" id="Layer_1" xmlns="http://www.w3.org/2000/svg" xmlns:xlink="http://www.w3.org/1999/xlink" x="0px" y="0px"
	 width="150px" height="35px" viewBox="0 0 150 35" enable-background="new 0 0 150 35" xml:space="preserve">
<style type="text/css">
	.st0{fill:#FFBD3B;}
</style>
<polygon class="st0" points="37.3,13.8 37.2,13.7 37.3,13.7 "/>
<polygon class="st0" points="35.7,13.9 29,22.2 29.3,32.7 18.9,29.2 8.5,32.6 8.7,22.2 2.1,13.8 2.2,13.8 2.1,13.8 12.7,10.6 
	19,2.1 25.2,10.7 35.6,13.8 35.6,13.9 "/>
<polygon class="st0" points="73,13.9 66.3,22.2 66.5,32.7 56.1,29.2 45.8,32.6 46,22.2 39.4,13.8 39.5,13.8 39.4,13.8 50,10.6 
	56.2,2.1 62.5,10.7 72.9,13.8 72.9,13.9 "/>
<polygon class="st0" points="110.3,14 103.6,22.4 103.8,32.9 93.4,29.4 83.1,32.8 83.3,22.4 76.7,13.9 76.8,13.9 76.7,13.9 
	87.3,10.8 93.5,2.2 99.8,10.8 110.2,13.9 110.2,14 "/>
<polygon class="st0" points="74.5,13.8 74.5,13.7 74.5,13.7 "/>
<polygon class="st0" points="111.7,13.7 111.8,13.7 111.8,13.8 "/>
<polygon class="st0" points="149,13.7 149,13.7 149,13.8 "/>
<polygon class="st0" points="147.5,14 140.8,22.4 141,32.9 130.6,29.4 120.3,32.8 120.5,22.4 113.9,13.9 114,13.9 113.9,13.9 
	124.5,10.8 130.7,2.2 137,10.8 147.4,13.9 147.4,14 "/>
</svg>
