<?xml version="1.0" encoding="utf-8"?>
<!-- Generator: Adobe Illustrator 20.0.0, SVG Export Plug-In . SVG Version: 6.00 Build 0)  -->
<svg version="1.1" id="Layer_1" xmlns="http://www.w3.org/2000/svg" xmlns:xlink="http://www.w3.org/1999/xlink" x="0px" y="0px"
	 viewBox="0 0 70.9 70.9" style="enable-background:new 0 0 70.9 70.9;" xml:space="preserve">
<style type="text/css">
	.st0{fill:url(#SVGID_1_);}
	.st1{fill:url(#SVGID_2_);}
	.st2{fill:url(#SVGID_3_);}
	.st3{fill:url(#SVGID_4_);}
	.st4{fill:url(#SVGID_5_);}
</style>
<linearGradient id="SVGID_1_" gradientUnits="userSpaceOnUse" x1="81.7005" y1="733.5797" x2="81.7005" y2="802.5854" gradientTransform="matrix(1 0 0 1 -8.3599 -732.9453)">
	<stop  offset="3.921569e-03" style="stop-color:#FFB300"/>
	<stop  offset="1" style="stop-color:#FDCA02"/>
</linearGradient>
<polygon class="st0" points="73.4,27.6 73.2,27.4 73.4,27.4 "/>
<linearGradient id="SVGID_2_" gradientUnits="userSpaceOnUse" x1="43.9782" y1="735.1756" x2="43.9782" y2="800.7756" gradientTransform="matrix(1 0 0 1 -8.3599 -732.9453)">
	<stop  offset="3.921569e-03" style="stop-color:#FFCC00"/>
	<stop  offset="1" style="stop-color:#FFD900"/>
</linearGradient>
<polygon class="st1" points="70.1,27.8 56.3,44.8 57,66.3 35.6,59.1 14.4,66.1 14.7,44.8 1.2,27.6 1.4,27.6 1.2,27.6 23,20.9 
	35.8,3.5 48.6,21.1 70,27.6 70,27.8 "/>
<linearGradient id="SVGID_3_" gradientUnits="userSpaceOnUse" x1="104.8136" y1="749.8289" x2="104.8136" y2="786.4883" gradientTransform="matrix(1 0 0 1 -8.3599 -732.9453)">
	<stop  offset="3.921569e-03" style="stop-color:#FFB300"/>
	<stop  offset="1" style="stop-color:#FDCA02"/>
</linearGradient>
<polygon class="st2" points="96.5,31.2 96.5,31.1 96.5,31.1 "/>
<linearGradient id="SVGID_4_" gradientUnits="userSpaceOnUse" x1="486.132" y1="775.8137" x2="486.132" y2="906.0059" gradientTransform="matrix(1 0 0 1 -8.3599 -732.9453)">
	<stop  offset="3.921569e-03" style="stop-color:#FFB300"/>
	<stop  offset="1" style="stop-color:#FDCA02"/>
</linearGradient>
<polygon class="st3" points="477.6,93.3 478,93.3 478,93.6 "/>
<linearGradient id="SVGID_5_" gradientUnits="userSpaceOnUse" x1="630.3599" y1="775.8137" x2="630.3599" y2="906.0059" gradientTransform="matrix(1 0 0 1 -8.3599 -732.9453)">
	<stop  offset="3.921569e-03" style="stop-color:#FFB300"/>
	<stop  offset="1" style="stop-color:#FDCA02"/>
</linearGradient>
<polygon class="st4" points="622,93.3 622,93.3 622,93.6 "/>
</svg>
