<?xml version="1.0" encoding="utf-8"?>
<!-- Generator: Adobe Illustrator 20.0.0, SVG Export Plug-In . SVG Version: 6.00 Build 0)  -->
<svg version="1.1" id="Layer_1" xmlns="http://www.w3.org/2000/svg" xmlns:xlink="http://www.w3.org/1999/xlink" x="0px" y="0px"
	 width="150px" height="35px" viewBox="0 0 150 35" enable-background="new 0 0 150 35" xml:space="preserve">
<style type="text/css">
	.st0{fill:url(#SVGID_1_);}
	.st1{fill:#FFBD3B;}
	.st2{fill:#615E4A;fill-opacity:0.502;}
	.st3{fill:url(#SVGID_2_);}
	.st4{fill:url(#SVGID_3_);}
	.st5{fill:url(#SVGID_4_);}
</style>
<linearGradient id="SVGID_1_" gradientUnits="userSpaceOnUse" x1="37.25" y1="714.6875" x2="37.25" y2="748.3125" gradientTransform="matrix(1 0 0 1 0 -714)">
	<stop  offset="3.921569e-03" style="stop-color:#FFB300"/>
	<stop  offset="1" style="stop-color:#FDCA02"/>
</linearGradient>
<polygon class="st0" points="37.3,13.8 37.2,13.7 37.3,13.7 "/>
<polygon class="st1" points="35.7,13.9 29,22.2 29.3,32.7 18.9,29.2 8.5,32.6 8.7,22.2 2.1,13.8 2.2,13.8 2.1,13.8 12.7,10.6 
	19,2.1 25.2,10.7 35.6,13.8 35.6,13.9 "/>
<polygon class="st2" points="73,13.9 66.3,22.2 66.5,32.7 56.1,29.2 45.8,32.6 46,22.2 39.4,13.8 39.5,13.8 39.4,13.8 50,10.6 
	56.2,2.1 62.5,10.7 72.9,13.8 72.9,13.9 "/>
<linearGradient id="SVGID_2_" gradientUnits="userSpaceOnUse" x1="74.5" y1="714.6875" x2="74.5" y2="748.3125" gradientTransform="matrix(1 0 0 1 0 -714)">
	<stop  offset="3.921569e-03" style="stop-color:#FFB300"/>
	<stop  offset="1" style="stop-color:#FDCA02"/>
</linearGradient>
<polygon class="st3" points="74.5,13.8 74.5,13.7 74.5,13.7 "/>
<linearGradient id="SVGID_3_" gradientUnits="userSpaceOnUse" x1="111.75" y1="714.6875" x2="111.75" y2="748.3125" gradientTransform="matrix(1 0 0 1 0 -714)">
	<stop  offset="3.921569e-03" style="stop-color:#FFB300"/>
	<stop  offset="1" style="stop-color:#FDCA02"/>
</linearGradient>
<polygon class="st4" points="111.7,13.7 111.8,13.7 111.8,13.8 "/>
<linearGradient id="SVGID_4_" gradientUnits="userSpaceOnUse" x1="149" y1="714.6875" x2="149" y2="748.3125" gradientTransform="matrix(1 0 0 1 0 -714)">
	<stop  offset="3.921569e-03" style="stop-color:#FFB300"/>
	<stop  offset="1" style="stop-color:#FDCA02"/>
</linearGradient>
<polygon class="st5" points="149,13.7 149,13.7 149,13.8 "/>
<path class="st2" d="M147.3,13.9h0.1l-6.7,8.4l0.2,10.5l-10.3-3.5l-10.4,3.4l0.2-10.4l-6.5-8.4l0,0l0,0l10.5-3.1l6.3-8.5l6.3,8.6
	L147.3,13.9L147.3,13.9z M110.1,13.9L110.1,13.9l-6.6,8.4l0.2,10.5l-10.3-3.5L83,32.6l0.2-10.4l-6.5-8.4l0,0l0,0l10.5-3.1l6.3-8.5
	l6.3,8.6L110.1,13.9L110.1,13.9z"/>
</svg>
