<?xml version="1.0" encoding="utf-8"?>
<!-- Generator: Adobe Illustrator 16.0.0, SVG Export Plug-In . SVG Version: 6.00 Build 0)  -->
<!DOCTYPE svg PUBLIC "-//W3C//DTD SVG 1.1//EN" "http://www.w3.org/Graphics/SVG/1.1/DTD/svg11.dtd">
<svg version="1.1" id="Layer_1" xmlns="http://www.w3.org/2000/svg" xmlns:xlink="http://www.w3.org/1999/xlink" x="0px" y="0px"
	 width="800px" height="200px" viewBox="0 0 800 200" enable-background="new 0 0 800 200" xml:space="preserve">
<path fill-rule="evenodd" clip-rule="evenodd" fill="#00CC00" d="M21.868,25.768C13.957,33.679,10,43.196,10,54.318v50.793
	c0,11.121,3.957,20.614,11.868,28.481c7.866,7.911,17.36,11.867,28.482,11.867c234.186,6.871,458.535,7.188,673.051,0.949
	c0.906-0.046,1.808-0.068,2.714-0.068c13.516,23.781,37.476,40.666,71.885,50.658c-16.864-15.914-19.895-38.091-9.089-66.525
	c3.348-8.771,5.02-17.226,5.02-25.362V54.318c0-11.122-3.934-20.639-11.8-28.55c-7.915-7.867-17.429-11.8-28.551-11.8
	c-229.077-10.624-463.487-10.624-703.229,0C39.229,13.968,29.734,17.901,21.868,25.768z"/>
</svg>
