<?xml version="1.0" encoding="utf-8"?>
<!-- Generator: Adobe Illustrator 20.0.0, SVG Export Plug-In . SVG Version: 6.00 Build 0)  -->
<svg version="1.1" id="Layer_1" xmlns="http://www.w3.org/2000/svg" xmlns:xlink="http://www.w3.org/1999/xlink" x="0px" y="0px"
	 viewBox="0 0 370 463" style="enable-background:new 0 0 370 463;" xml:space="preserve">
<style type="text/css">
	.st0{fill:#020202;}
</style>
<path class="st0" d="M258.2,373.4c-7.6,4.2-8.4,12.5-8.4,12.6l0,34h8.5h8.4V386C266.6,385.9,265.7,377.6,258.2,373.4z M263.6,388.8
	v30h-5.4h-5.4v-30c0,0-0.4-7,5.4-12.5C264,381.8,263.6,388.8,263.6,388.8z M169.1,322.3v43.1h-3.4v-45.7l1.6-3L169.1,322.3z
	 M275.1,322.3l1.8-5.7l1.6,3v45.7h-3.4V322.3z M134.2,450.9L134.2,450.9L134.2,450.9l7.4-2.7h9.8v-5.6l1.6-0.8v-71.2l-1-0.6h-2.1
	v-3.4h-13.5h-13.5v3.4h-2.1l-1,0.6v71.2l1.6,0.8v13.2L134.2,450.9z M127.1,386c0-0.1,0.9-9,9.1-13.4l0.2-0.1l0.2,0.1
	c8.1,4.4,9,13.3,9.1,13.4l0,34.9h-18.5V386z M136.4,373.4c-7.6,4.2-8.4,12.5-8.4,12.6l0,34h16.8V386
	C144.8,385.9,143.9,377.6,136.4,373.4z M141.7,388.8v30h-5.4h-5.4v-30c0,0-0.4-7,5.4-12.5C142.2,381.8,141.7,388.8,141.7,388.8z
	 M258.2,366.5h-13.5v3.4h-2.1l-1,0.6v71.2l1.6,0.8v5.6h9.8l7.3,2.7h0.1v0l13,4.8v-13.2l1.6-0.8v-71.2l-1-0.6h-2.1v-3.4H258.2z
	 M248.9,420.9V386c0-0.1,0.9-9,9.1-13.4l0.2-0.1l0.2,0.1c8.1,4.4,9,13.3,9.1,13.4l0,34.9H248.9z M172.8,369.9v0.1h24.3h0.4h24.3
	v-0.1h1.5l1,0.6v31.2c-2.4-8.9-9-23.9-26.9-26.1l-0.1,0l-0.1,0c-17.9,2.3-24.6,17.2-26.9,26.1v-31.2l1-0.6H172.8z M289.2,316.6
	l1.8,5.7v43.1h-3.4v-45.7L289.2,316.6z M291,318.4l-1.5-4.9l-2.4,4.6l-4-9.3l-4,9.3l-2.4-4.6l-2.7,8.5v43.3h-4.6l0-41.4
	c0-0.1,0.5-11.6-10.8-17.8l-0.3-0.2l-0.3,0.2c-11.3,6.1-10.8,17.6-10.8,17.7v41.4h-4.6v-43.2l-2.7-8.6l-2.4,4.6l-4-9.3l-4,9.3
	l-2.4-4.6l-1.5,4.8v-17l-4.2-1.7v-3.9l6.3-2H240l0.2,0.1v0.1h0.3l2.9,1.5h29.7l2.9-1.5h0.3v-0.1l0.2-0.1h12.4l6.3,2v3.9l-4.2,1.7
	V318.4z M241.4,322.3v43.1H238v-45.7l1.6-3L241.4,322.3z M253.8,449.7l3.1,1.2H137.6l3.1-1.2H253.8z M134.5,452H260l3.1,1.2H131.4
	L134.5,452z M154.1,442.5v-72.6l-1.9-1.1H151v-2.2h21.2v2.2H171l-1.9,1.1v37.7c-0.1,0.5-0.1,0.9-0.1,0.9l0.1,0v33.8l-16.4,5.9h-0.1
	v-4.9L154.1,442.5z M229.8,445l3.2,1.2h-71.5l3.2-1.2H229.8z M120.7,365.3v-43.2l-2.7-8.6l-2.4,4.6l-4-9.3l-4,9.3l-2.4-4.6l-1.5,4.8
	v-17l-4.2-1.7v-3.9l6.3-2h12.4l0.2,0.1v0.1h0.3l2.9,1.5h29.7l2.9-1.5h0.3v-0.1l0.2-0.1H167l6.3,2v3.9l-4.2,1.7v17.1l-1.5-4.9
	l-2.4,4.6l-4-9.3l-4,9.3l-2.4-4.6l-2.7,8.5v43.3h-4.6l0-41.4c0-0.1,0.5-11.6-10.8-17.8l-0.3-0.2l-0.3,0.2
	c-11.3,6.1-10.8,17.6-10.8,17.7v41.4H120.7z M156.6,319.6v45.7h-3.4v-43.1l1.8-5.7L156.6,319.6z M283,311.8l3.4,7.8v45.8h-6.8v-45.8
	L283,311.8z M164.5,319.6v45.8h-6.8v-45.8l3.4-7.8L164.5,319.6z M240.5,186.3c0,0-2.8,4.4-2.8,15.4v14.4h-1.4l-0.2,0.4v-3.3
	c0-2.4-0.9-3.7-1.4-4.2v-7.9c0-1.3-0.7-2.3-1.1-2.7c0.1-8.4,3.4-13.6,4.4-14.9c1.2,0.6,2.1,1.7,2.8,3.1
	C240.7,186.5,240.6,186.4,240.5,186.3z M184.5,233.8c3.1-0.8,7.3-1.4,12.6-1.4h0.4c5.3,0,9.5,0.6,12.6,1.4
	c12.1,10.7,10.8,44.9,10.6,49.9h-1.9c0.3-4.8,0.9-33-21.2-42.9l-0.3-0.1l-0.3,0.1c-22.1,9.9-21.5,38.1-21.2,42.9h-1.9
	C173.7,278.7,172.4,244.5,184.5,233.8z M228.1,217.4v2.8h0.8v8.3h-0.6v3h-0.4l-0.2,6.9h0.6l0,0.5l0.1,0l-0.7,13.4l-1,10l-1-2.5
	l-0.2,10.1l0.6,1.1l0,16.9l-0.6,1.9v3.6l2-0.6h12.7v-2.9l-0.6-2v-16.7l0.6-1.1l0.1-8.9l-0.2-0.2v-4.2l-1-1v-9.8l2.5-8.7l2.8,5.8
	v20.7l-2.8,1.2l0.1-2.5l-0.2-0.2l-0.1,8.2l-0.6,1.1v16.4l0.6,2v3.6l2.3,1.2h2.6V166.5l-9.5-23.2l-1.7,6.2l-5.5,24.8v41.9h0.3
	l0.2,0.4v-3.3c0-2.4,0.9-3.7,1.4-4.2v-7.9c0-1.3,0.7-2.3,1.1-2.7c0.1-10.1,4.8-15.8,5-16l0.3-0.3l0.4,0.1c5.6,2,6.4,13.7,6.4,14.2
	l-0.2,0v34.6L240,229l-2.3,6.4v-2.6v-15.5H237l-2.1,4.4v-8.4c0-2.5-1.1-3.5-1.2-3.5l-0.2-0.2l0-0.3v-8.2c0-0.6-0.2-1.2-0.5-1.6
	c-0.2,0.4-0.5,0.9-0.5,1.6v8.4l-0.2,0.2c0,0-1.2,1.1-1.2,3.5v8.4l-2.1-4.4H229v0.1H228.1z M243,173c-0.6,2.7-2.2,4.7-3.5,4.4
	c-1.3-0.3-1.9-2.7-1.3-5.5c0.6-2.7,2.2-4.7,3.5-4.4C243.1,167.8,243.6,170.2,243,173z M125.6,294.4h21.6V166.4L136.6,137v-3.8
	l0.4-0.1c0.1,0,0.7-0.2,0.7-0.8c0-0.6-0.8-0.7-0.8-0.7l-0.5-0.1V127l1.5,0.4c0.1-0.4,0.2-0.7,0.2-0.9c-0.2,0-0.8,0-1.2,0.1l-0.5,0.1
	l0,0.1l-0.1,0l-0.1,0l0-0.1l-0.5-0.1c-0.4-0.1-1-0.2-1.2-0.1c0,0.2,0.1,0.5,0.2,0.9l1.5-0.4v4.4l-0.5,0.1c0,0-0.8,0.2-0.8,0.7
	c0,0.6,0.7,0.8,0.7,0.8l0.4,0.1l0,0.4v3.4l-10.5,29.5V294.4z M136.3,163.1c2.7,0,4.8,2.2,4.8,4.8s-2.2,4.8-4.8,4.8s-4.8-2.2-4.8-4.8
	S133.7,163.1,136.3,163.1z M127.7,192.7c0-0.5,0.4-11.9,8.3-15.8l0.3-0.1l0.3,0.1c7.9,3.9,8.3,15.3,8.3,15.8v71.9h-17.2V192.7z
	 M156.9,216.1v-14.4c0-11.1-2.8-15.4-2.8-15.4c-0.1,0.1-0.2,0.2-0.4,0.3c0.7-1.4,1.6-2.5,2.8-3.1c1,1.3,4.4,6.6,4.4,14.9
	c-0.3,0.4-1.1,1.4-1.1,2.7v7.9c-0.4,0.5-1.4,1.8-1.4,4.2v3.3l-0.2-0.4H156.9z M148.3,294.4h2.6l2.3-1.2l0-3.7l0.6-1.9v-16.4
	l-0.6-1.1l-0.1-8.2l-0.2,0.2l0.1,2.5l-2.8-1.2v-20.7l2.8-5.8l2.5,8.7v9.8l-1,1v4.2l-0.2,0.2l0.1,8.9l0.6,1.1l0,16.9l-0.6,1.9v2.9
	l12.8,0l1.9,0.6v-3.5l-0.6-2v-16.7l0.6-1.1l-0.2-10.1l-1,2.5l-1-10l-0.7-13.4l0.1,0l0-0.5h0.6l-0.2-6.9h-0.4v-3h-0.6v-8.3h0.8v-2.8
	h-0.9v-0.1h-0.1l-2.1,4.4v-8.4c0-2.5-1.1-3.5-1.2-3.5l-0.2-0.2l0-0.3v-8.2c0-0.6-0.2-1.2-0.5-1.6c-0.2,0.4-0.5,0.9-0.5,1.6v8.4
	l-0.2,0.2c0,0-1.2,1.1-1.2,3.5v8.4l-2.1-4.4h-0.7v15.5v2.6l-2.3-6.4l-4.2,2.2v-34.6l-0.2,0c0-0.5,0.8-12.2,6.4-14.2l0.4-0.1l0.3,0.3
	c0.2,0.2,4.9,5.9,5,16c0.3,0.4,1.1,1.4,1.1,2.7v7.9c0.4,0.5,1.4,1.8,1.4,4.2v3.3l0.2-0.4h0.3v-41.9l-5.5-24.8l-1.7-6.2l-9.5,23.2
	V294.4z M152.8,167.5c1.3-0.3,2.9,1.7,3.5,4.4c0.6,2.7,0,5.2-1.3,5.5c-1.3,0.3-2.9-1.7-3.5-4.4C150.9,170.2,151.5,167.8,152.8,167.5
	z M236.8,319.6v45.8H230v-45.8l3.4-7.8L236.8,319.6z M117.7,316.6l1.8,5.7v43.1h-3.4v-45.7L117.7,316.6z M228.9,319.6v45.7h-3.4
	v-43.1l1.8-5.7L228.9,319.6z M222.4,366.5h21.2v2.2h-1.2l-1.9,1.1v72.6l1.6,0.8v4.9h-0.1l-16.4-5.9v-33.8l0.1,0c0,0,0-0.3-0.1-0.9
	v-37.7l-1.9-1.1h-1.2V366.5z M218,237.6c3.8,1.5,6.8,3.1,9,4.7l-0.5,9.9l-0.5,5.2l-1.4-3.5l-0.4,16.3l0.6,1.1v14l-3-1.2
	c0.2-3.5,1.8-34.5-8.3-48.2C214.9,236.4,216.6,237,218,237.6z M106.2,217.4v2.8h0.8v8.3h-0.6v3H106l-0.2,6.9h0.6l0,0.5l0.1,0
	l-0.7,13.4l-1,10l-1-2.5l-0.2,10.1l0.6,1.1l0,16.9l-0.6,1.9v3.6l2-0.6h12.7v-2.9l-0.6-2v-16.7l0.6-1.1l0.1-8.9l-0.2-0.2v-4.2l-1-1
	v-9.8l2.5-8.7l2.8,5.8v20.7l-2.8,1.2l0.1-2.5l-0.2-0.2l-0.1,8.2l-0.6,1.1v16.4l0.6,2v3.6l2.3,1.2h2.6V166.5l-9.5-23.2l-1.7,6.2
	l-5.5,24.8v41.9h0.3l0.2,0.4v-3.3c0-2.4,0.9-3.7,1.4-4.2v-7.9c0-1.3,0.7-2.3,1.1-2.7c0.1-10.1,4.8-15.8,5-16l0.3-0.3l0.4,0.1
	c5.6,2,6.4,13.7,6.4,14.2l-0.2,0v34.6l-4.2-2.2l-2.3,6.4v-2.6v-15.5h-0.7l-2.1,4.4v-8.4c0-2.5-1.1-3.5-1.2-3.5l-0.2-0.2l0-0.3v-8.2
	c0-0.6-0.2-1.2-0.5-1.6c-0.2,0.4-0.5,0.9-0.5,1.6v8.4l-0.2,0.2c0,0-1.2,1.1-1.2,3.5v8.4l-2.1-4.4h-0.1v0.1H106.2z M121.1,173
	c-0.6,2.7-2.2,4.7-3.5,4.4c-1.3-0.3-1.9-2.7-1.3-5.5c0.6-2.7,2.2-4.7,3.5-4.4C121.2,167.8,121.7,170.2,121.1,173z M103,274
	c-0.3-0.4-0.6-0.9-0.6-1.6c0-0.4,0-1.3,0-2.3l0.6,1.1V274z M103.6,322.3l1.8-5.7l1.6,3v45.7h-3.4V322.3z M111.5,311.8l3.4,7.8v45.8
	h-6.8v-45.8L111.5,311.8z M130.4,61.8l4.1-21.6h3.7l4.1,21.6l-3-1.2h-6L130.4,61.8z M118.6,186.3c0,0-2.8,4.4-2.8,15.4v14.4h-1.4
	l-0.2,0.4v-3.3c0-2.4-0.9-3.7-1.4-4.2v-7.9c0-1.3-0.7-2.3-1.1-2.7c0.1-8.4,3.4-13.6,4.4-14.9c1.2,0.6,2.1,1.7,2.8,3.1
	C118.8,186.5,118.7,186.4,118.6,186.3z M136.3,178.1c-7.1,3.7-7.4,14.5-7.4,14.7v70.8h14.9v-70.8
	C143.8,192.6,143.4,181.8,136.3,178.1z M142.2,248.9h-1.3v13.8h-4.5h-4.5v-13.8h-1.3v-1.3l5.8-16.5l5.8,16.5V248.9z M142.2,203.6
	l-1.2,0.6v33.3l-4.7-11.8l-4.7,11.8v-33.3l-1.2-0.6v-10c0,0,0.6-8.3,5.8-11.5c5.2,3.2,5.8,11.5,5.8,11.5V203.6z M125.9,162L134,61.8
	h4.7l8.1,100.2l-9-25.2V134c0.5-0.3,1.2-0.8,1.2-1.8c0-1-0.7-1.5-1.3-1.7v-1.9l1,0.3l0.2-0.4c0.5-1,0.9-2.2,0.2-2.7
	c-0.4-0.3-1-0.3-1.6-0.3l0.1-0.9h-0.3c0.1-2.4-0.3-2.7-0.4-2.8c-0.3-0.3-0.7-0.3-1,0c-0.1,0.1-0.5,0.5-0.4,2.8h-0.3l0.1,0.9
	c-0.5-0.1-1.2,0-1.6,0.3c-0.6,0.5-0.2,1.8,0.2,2.7l0.2,0.4l1-0.3v1.9c-0.6,0.2-1.3,0.8-1.3,1.7c0,0.9,0.6,1.5,1.2,1.8v2.8L125.9,162
	z M100.2,294.3l2.2-0.8l0,0.2L100.2,294.3z M104,257v-0.8l0.5-2l-0.3,3.2L104,257z M290.6,256.1v0.8l-0.2,0.4l-0.3-3.2L290.6,256.1z
	 M277.3,131.1c0.1,0,0.1,0,0.1,0l-0.1-1h0.5c0,0-0.4-3.1,0.1-3.1c0.4,0,0.1,3.1,0.1,3.1h0.5l-0.1,1c0,0,1.4-0.4,1.8,0
	c0.4,0.4-0.4,2-0.4,2l-1.2-0.4v3.1c0,0,1.3,0.2,1.3,1.3c0,1.1-1.2,1.4-1.2,1.4v0.5l0.4,2l-9.2,22.7l-8.2-101.8l2.7,1.1L277.3,131.1z
	 M292.2,272.4c0,0.7-0.3,1.2-0.6,1.6v-2.8l0.6-1.1C292.2,271.2,292.2,272,292.2,272.4z M247.8,162l8.1-100.2h4.7l8.1,100.2l-9-25.2
	V134c0.5-0.3,1.2-0.8,1.2-1.8c0-1-0.7-1.5-1.3-1.7v-1.9l1,0.3l0.2-0.4c0.5-1,0.9-2.2,0.2-2.7c-0.4-0.3-1-0.3-1.6-0.3l0.1-0.9h-0.3
	c0.1-2.4-0.3-2.7-0.4-2.8c-0.3-0.3-0.7-0.3-1,0c-0.1,0.1-0.5,0.5-0.4,2.8H257l0.1,0.9c-0.5-0.1-1.2,0-1.6,0.3
	c-0.6,0.5-0.2,1.8,0.2,2.7l0.2,0.4l1-0.3v1.9c-0.6,0.2-1.3,0.8-1.3,1.7c0,0.9,0.6,1.5,1.2,1.8v2.8L247.8,162z M284.7,144.7
	c0,0-0.8-1.7-0.4-2c0.4-0.4,1.8,0,1.8,0l-0.1-1h0.5c0,0-0.4-3.1,0.1-3.1c0.4,0,0.1,3.1,0.1,3.1h0.5l-0.1,1c0,0,1.4-0.4,1.8,0
	c0.4,0.4-0.4,2-0.4,2l-1.2-0.4v3.1c0,0,1.3,0.2,1.3,1.3c0,1.1-1.2,1.4-1.2,1.4v3.4l2,1.7v33.4h-1.3v2h-0.2v-16.7l-4.6-20.7h2.3v-3.3
	c0,0-1.2-0.3-1.2-1.4c0-1.1,1.3-1.3,1.3-1.3v-3.1L284.7,144.7z M292.2,293.5l2.1,0.8l-2.1-0.7V293.5z M258.2,178.1
	c-7.1,3.7-7.4,14.5-7.4,14.7v70.8h14.9v-70.8C265.6,192.6,265.3,181.8,258.2,178.1z M264,248.9h-1.3v13.8h-4.5h-4.5v-13.8h-1.3v-1.3
	l5.8-16.5l5.8,16.5V248.9z M264,203.6l-1.2,0.6v33.3l-4.7-11.8l-4.7,11.8v-33.3l-1.2-0.6v-10c0,0,0.6-8.3,5.8-11.5
	c5.2,3.2,5.8,11.5,5.8,11.5V203.6z M276.2,458.1h-18h-24.9h-9.9h-52.3h-9.9h-24.9h-18l3.7-1.4h150.6L276.2,458.1z M278.8,216.1
	v-14.4c0-11.1-2.8-15.4-2.8-15.4c-0.1,0.1-0.2,0.2-0.4,0.3c0.7-1.4,1.6-2.5,2.8-3.1c1,1.3,4.4,6.6,4.4,14.9
	c-0.3,0.4-1.1,1.4-1.1,2.7v7.9c-0.4,0.5-1.4,1.8-1.4,4.2v3.3l-0.2-0.4H278.8z M247.4,294.4H269V166.4L258.5,137v-3.8l0.4-0.1
	c0.1,0,0.7-0.2,0.7-0.8c0-0.6-0.8-0.7-0.8-0.7l-0.5-0.1V127l1.5,0.4c0.1-0.4,0.2-0.7,0.2-0.9c-0.2,0-0.8,0-1.2,0.1l-0.5,0.1l0,0.1
	l-0.1,0l-0.1,0l0-0.1l-0.5-0.1c-0.4-0.1-1-0.2-1.2-0.1c0,0.2,0.1,0.5,0.2,0.9l1.5-0.4v4.4l-0.5,0.1c0,0-0.8,0.2-0.8,0.7
	c0,0.6,0.7,0.8,0.7,0.8l0.4,0.1l0,0.4v3.4l-10.5,29.5V294.4z M258.2,163.1c2.7,0,4.8,2.2,4.8,4.8s-2.2,4.8-4.8,4.8
	c-2.7,0-4.8-2.2-4.8-4.8S255.6,163.1,258.2,163.1z M249.6,192.7c0-0.5,0.4-11.9,8.3-15.8l0.3-0.1l0.3,0.1c7.9,3.9,8.3,15.3,8.3,15.8
	v71.9h-17.2V192.7z M270.2,294.4h2.6l2.3-1.2l0-3.7l0.6-1.9v-16.4l-0.6-1.1L275,262l-0.2,0.2l0.1,2.5l-2.8-1.2v-20.7l2.8-5.8
	l2.5,8.7v9.8l-1,1v4.2l-0.2,0.2l0.1,8.9l0.6,1.1l0,16.9l-0.6,1.9v2.9l12.8,0l1.9,0.6v-3.5l-0.6-2v-16.7l0.6-1.1l-0.2-10.1l-1,2.5
	l-1-10l-0.7-13.4l0.1,0l0-0.5h0.6l-0.2-6.9h-0.4v-3h-0.6v-8.3h0.8v-2.8h-0.9v-0.1h-0.1l-2.1,4.4v-8.4c0-2.5-1.1-3.5-1.2-3.5
	l-0.2-0.2l0-0.3v-8.2c0-0.6-0.2-1.2-0.5-1.6c-0.2,0.4-0.5,0.9-0.5,1.6v8.4l-0.2,0.2c0,0-1.2,1.1-1.2,3.5v8.4l-2.1-4.4h-0.7v15.5v2.6
	l-2.3-6.4l-4.2,2.2v-34.6l-0.2,0c0-0.5,0.8-12.2,6.4-14.2l0.4-0.1l0.3,0.3c0.2,0.2,4.9,5.9,5,16c0.3,0.4,1.1,1.4,1.1,2.7v7.9
	c0.4,0.5,1.4,1.8,1.4,4.2v3.3l0.2-0.4h0.3v-41.9l-5.5-24.8l-1.7-6.2l-9.5,23.2V294.4z M274.7,167.5c1.3-0.3,2.9,1.7,3.5,4.4
	c0.6,2.7,0,5.2-1.3,5.5c-1.3,0.3-2.9-1.7-3.5-4.4C272.8,170.2,273.4,167.8,274.7,167.5z M292,263.7l0.1,1.5c0,0,0,2.6,0,4.7
	L292,263.7z M102.4,270c0-2.1,0-4.7,0-4.7l0.1-1.5L102.4,270z M115,458.1h-13.4v-15.3h2v-72.8l-1.9-1.1h-1.2v-2.2h21.2v2.2h-1.2
	l-1.9,1.1v72.6l1.6,0.8v12.9L115,458.1z M130.1,27c-0.2-0.7-0.9-2.5-0.9-3.3c0-0.9,4-2.6,5.2-2.6c1.2,0,0.3-4.7,0.3-5.8
	c0,0-2-0.7-1.9-1.5c0.1-0.9,2-2,2-2v-1.5c0,0-0.1-2.7,1.6-2.7c1.7,0,1.6,2.7,1.6,2.7v1.5c0,0,1.9,1.1,2,2c0.1,0.9-1.9,1.5-1.9,1.5
	c0,1.1-0.9,5.8,0.3,5.8c1.2,0,5.2,1.7,5.2,2.6c0,0.9-0.7,2.6-0.9,3.3c-0.2,0.7-4.4-0.8-4.4-0.8v6l1.9,1.7v3.4l-1.5,1.8H134l-1.5-1.8
	v-3.4l1.9-1.7v-6C134.4,26.2,130.3,27.7,130.1,27z M106.3,188.8H105v-33.4l2-1.7v-3.4c0,0-1.2-0.3-1.2-1.4c0-1.1,1.3-1.3,1.3-1.3
	v-3.1l-1.2,0.4c0,0-0.8-1.7-0.4-2c0.4-0.4,1.8,0,1.8,0l-0.1-1h0.5c0,0-0.4-3.1,0.1-3.1c0.4,0,0.1,3.1,0.1,3.1h0.5l-0.1,1
	c0,0,1.4-0.4,1.8,0c0.4,0.4-0.4,2-0.4,2l-1.2-0.4v3.1c0,0,1.3,0.2,1.3,1.3c0,1.1-1.2,1.4-1.2,1.4v3.3h2.3l-4.6,20.6l0,0.1v16.7h-0.2
	V188.8z M252,27c-0.2-0.7-0.9-2.5-0.9-3.3c0-0.9,4-2.6,5.2-2.6c1.2,0,0.3-4.7,0.3-5.8c0,0-2-0.7-1.9-1.5c0.1-0.9,2-2,2-2v-1.5
	c0,0-0.1-2.7,1.6-2.7c1.7,0,1.6,2.7,1.6,2.7v1.5c0,0,1.9,1.1,2,2c0.1,0.9-1.9,1.5-1.9,1.5c0,1.1-0.9,5.8,0.3,5.8
	c1.2,0,5.2,1.7,5.2,2.6c0,0.9-0.7,2.6-0.9,3.3c-0.2,0.7-4.4-0.8-4.4-0.8v6l1.9,1.7v3.4l-1.5,1.8h-4.6l-1.5-1.8v-3.4l1.9-1.7v-6
	C256.3,26.2,252.2,27.7,252,27z M114.6,133.2c0,0-0.8-1.7-0.4-2c0.4-0.4,1.8,0,1.8,0l-0.1-1h0.5c0,0-0.4-3.1,0.1-3.1
	c0.4,0,0.1,3.1,0.1,3.1h0.5l-0.1,1c0,0,0.1,0,0.1,0l12.9-67.9l2.7-1.1l-8.2,101.8l-9.2-22.7l0.4-2v-0.5c0,0-1.2-0.3-1.2-1.4
	c0-1.1,1.3-1.3,1.3-1.3v-3.1L114.6,133.2z M236.5,133.2c0,0-0.8-1.7-0.4-2c0.4-0.4,1.8,0,1.8,0l-0.1-1h0.5c0,0-0.4-3.1,0.1-3.1
	c0.4,0,0.1,3.1,0.1,3.1h0.5l-0.1,1c0,0,0.1,0,0.1,0L252,63.2l2.7-1.1l-8.2,101.8l-9.2-22.7l0.4-2v-0.5c0,0-1.2-0.3-1.2-1.4
	c0-1.1,1.3-1.3,1.3-1.3v-3.1L236.5,133.2z M162.8,144.7c0,0-0.8-1.7-0.4-2c0.4-0.4,1.8,0,1.8,0l-0.1-1h0.5c0,0-0.4-3.1,0.1-3.1
	c0.4,0,0.1,3.1,0.1,3.1h0.5l-0.1,1c0,0,1.4-0.4,1.8,0c0.4,0.4-0.4,2-0.4,2l-1.2-0.4v3.1c0,0,1.3,0.2,1.3,1.3c0,1.1-1.2,1.4-1.2,1.4
	v3.4l2,1.7v33.4h-1.3v2h-0.2v-16.7l-4.6-20.7h2.3v-3.3c0,0-1.2-0.3-1.2-1.4c0-1.1,1.3-1.3,1.3-1.3v-3.1L162.8,144.7z M228.2,188.8
	h-1.3v-33.4l2-1.7v-3.4c0,0-1.2-0.3-1.2-1.4c0-1.1,1.3-1.3,1.3-1.3v-3.1l-1.2,0.4c0,0-0.8-1.7-0.4-2c0.4-0.4,1.8,0,1.8,0l-0.1-1h0.5
	c0,0-0.4-3.1,0.1-3.1c0.4,0,0.1,3.1,0.1,3.1h0.5l-0.1,1c0,0,1.4-0.4,1.8,0c0.4,0.4-0.4,2-0.4,2l-1.2-0.4v3.1c0,0,1.3,0.2,1.3,1.3
	c0,1.1-1.2,1.4-1.2,1.4v3.3h2.3l-4.6,20.6l0,0.1v16.7h-0.2V188.8z M187.1,230.5c-0.4-0.4,0.6,0.5,0.6-0.6c0-1.1-0.3-2,0-2.8
	c0.3-0.9,0.5-3.7,0.5-3.7l0.5-12.1l1,8.5l0.7-1c0,0-0.9-5.3,3-8.8l0.2-2.5l0.2,2.2c0.8-0.6,1.8-1.2,3-1.6c0,0-0.4-1.9,0.4-2.3v-5.3
	h-1.6V200h1.6v-1.6h0.2h0.2v1.6h1.6v0.5h-1.6v5.3c0.7,0.4,0.4,2.3,0.4,2.3c1.2,0.4,2.2,1,3,1.6l0.2-2.2l0.2,2.5c3.9,3.5,3,8.8,3,8.8
	l0.7,1l1-8.5l0.5,12.1c0,0,0.2,2.8,0.5,3.7c0.3,0.9,0,1.7,0,2.8c0,1.1,1,0.2,0.6,0.6c-0.3,0.3-0.5,1-0.5,1.3
	c-0.8-0.1-1.7-0.2-2.6-0.3c0-1.3,0-6.9,0-9c0-2.4-1.5-4.5-1.5-4.5c-0.7,1.1-1.2,2.6-1.2,2.6v6.1l0.6,0.8v3.8
	c-1.1-0.1-2.4-0.1-3.6-0.2h2v-10.8l-3.4-5l-3.4,5v10.8h2c-1.3,0-2.5,0.1-3.6,0.2v-3.8l0.6-0.8v-6.1c0,0-0.5-1.6-1.2-2.6
	c0,0-1.5,2-1.5,4.5c0,2.1,0,7.7,0,9c-0.9,0.1-1.8,0.2-2.6,0.3C187.5,231.5,187.3,230.8,187.1,230.5z M155.4,131.1c0.1,0,0.1,0,0.1,0
	l-0.1-1h0.5c0,0-0.4-3.1,0.1-3.1c0.4,0,0.1,3.1,0.1,3.1h0.5l-0.1,1c0,0,1.4-0.4,1.8,0c0.4,0.4-0.4,2-0.4,2l-1.2-0.4v3.1
	c0,0,1.3,0.2,1.3,1.3c0,1.1-1.2,1.4-1.2,1.4v0.5l0.4,2l-9.2,22.7l-8.2-101.8l2.7,1.1L155.4,131.1z M180.5,416.2v25.3H214v-25.3
	c0,0,0-0.6,0-1.6h-16.7h-16.7C180.5,415.6,180.5,416.2,180.5,416.2z M205.4,415.8h7.3v4.2l-1,1.2c0,0,0,1-0.3,1.7
	c-0.3,0.7-0.1,2.8,0.9,3.6c1,0.9,0,2.5,0,2.5v12.4h-6.8V415.8z M191.7,415.8h5.6h5.6v25.6h-5.6h-5.6V415.8z M181.9,415.8h7.3v25.6
	h-6.8V429c0,0-1-1.6,0-2.5c1-0.9,1.2-2.9,0.9-3.6c-0.3-0.7-0.3-1.7-0.3-1.7l-1-1.2V415.8z M220.6,413.1c0-0.3-0.9-27.8-23.2-30.9
	l-0.1,0l-0.1,0c-22.3,3.1-23.2,30.6-23.2,30.9v28.4h-1.3l0-30.2c0-0.3,1.7-28,24.6-31.5c22.9,3.5,24.6,31.2,24.6,31.5v30.2h-1.3
	V413.1z M223.2,411.3c0-0.3-1.8-29.2-25.9-32.8l-0.1,0l-0.1,0c-24.1,3.6-25.8,32.5-25.9,32.9v30.2h-0.2H171h-0.8v-33l0.1,0
	c0-0.3,2.4-28.4,26.9-31.5c24.5,3.1,26.9,31.3,26.9,31.5l0.1,0v33h-0.8h-0.1h-0.2L223.2,411.3z M252.3,61.8l4.1-21.6h3.7l4.1,21.6
	l-3-1.2h-6L252.3,61.8z M197.3,314.1c-9.8,0-17.8,8-17.8,17.8c0,9.8,8,17.8,17.8,17.8c9.8,0,17.8-8,17.8-17.8
	C215.1,322.1,207.1,314.1,197.3,314.1z M212.8,332c0,1.1-1.7,0.6-1.7,0.6s0.9,1.6-0.9,1.6c-0.9,0-2-0.7-2-2.1c0-1.4,1.1-2.1,2-2.1
	c1.7,0,0.9,1.6,0.9,1.6S212.8,330.9,212.8,332z M204,337.8l-3-2.7l0.2-0.3l0.2-0.3l3.4,2.1c0,0,0.7,0.8,0.6,1.3
	C205,338.2,204,337.8,204,337.8z M204.1,339.6c0,0,0.9,0.5,1.2,1.1c0,0-1-0.4-1.4-0.4L204.1,339.6z M200.2,340.3l-1.3-3.8l0.3-0.1
	l0.3-0.1l1.9,3.6c0,0,0.2,1.1-0.1,1.5C200.8,341.2,200.2,340.3,200.2,340.3z M201.2,341.9c-0.2,0.3-0.3,1.4-0.3,1.4
	c-0.4-0.5-0.4-1.5-0.4-1.5L201.2,341.9z M193.2,341.3c-0.3-0.4-0.1-1.5-0.1-1.5l1.9-3.6l0.3,0.1l0.3,0.1l-1.3,3.8
	C194.4,340.3,193.8,341.2,193.2,341.3z M194.1,341.7c0,0,0,1-0.4,1.5c0,0-0.1-1.1-0.3-1.4L194.1,341.7z M190.6,337.8
	c0,0-1,0.5-1.5,0.2c-0.1-0.5,0.6-1.3,0.6-1.3l3.4-2.1l0.2,0.3l0.2,0.3L190.6,337.8z M190.6,340.3c-0.4,0-1.4,0.4-1.4,0.4
	c0.2-0.6,1.2-1.1,1.2-1.1L190.6,340.3z M181.8,332c0-1.1,1.7-0.6,1.7-0.6s-0.9-1.6,0.9-1.6c0.9,0,2,0.7,2,2.1c0,1.4-1.1,2.1-2,2.1
	c-1.7,0-0.9-1.6-0.9-1.6S181.8,333.1,181.8,332z M190.6,326.1l3,2.7l-0.2,0.3l-0.2,0.3l-3.4-2.1c0,0-0.7-0.8-0.6-1.3
	C189.6,325.7,190.6,326.1,190.6,326.1z M190.4,324.3c0,0-0.9-0.5-1.2-1.1c0,0,1,0.4,1.4,0.4L190.4,324.3z M194.4,323.6l1.3,3.8
	l-0.3,0.1l-0.3,0.1l-1.9-3.6c0,0-0.2-1.1,0.1-1.5C193.8,322.7,194.4,323.6,194.4,323.6z M193.4,322c0.2-0.3,0.3-1.4,0.3-1.4
	c0.4,0.5,0.4,1.5,0.4,1.5L193.4,322z M195.2,321.9c0,0-0.5-0.9-0.5-1.5c0,0,0.7,0.9,1,1.1L195.2,321.9z M196.1,321.9
	c0.5,0.2,0.8,1.2,0.8,1.2l0.1,4l-0.4,0l-0.4,0l-0.8-4C195.6,323.3,195.7,322.2,196.1,321.9z M194.7,327.9l-0.3,0.2l-0.3,0.2l-2.7-3
	c0,0-0.5-1-0.2-1.5c0.5-0.1,1.3,0.6,1.3,0.6L194.7,327.9z M189.5,327.8l3.6,1.9l-0.1,0.3l-0.1,0.3l-3.8-1.3c0,0-0.9-0.6-0.9-1.2
	C188.4,327.6,189.5,327.8,189.5,327.8z M188.6,330.3l4,0.8l0,0.4l0,0.4l-4-0.1c0,0-1-0.3-1.2-0.8
	C187.5,330.4,188.6,330.3,188.6,330.3z M185.9,328.4c0,0,1.1-0.1,1.4-0.3l0.1,0.7C187.5,328.7,186.4,328.8,185.9,328.4z
	 M187.2,329.8l-0.5,0.5c-0.2-0.3-1.1-1-1.1-1C186.3,329.3,187.2,329.8,187.2,329.8z M186.7,333.5l0.5,0.5c0,0-0.9,0.5-1.5,0.5
	C185.7,334.5,186.5,333.9,186.7,333.5z M187.5,335.2l-0.1,0.7c-0.3-0.2-1.4-0.3-1.4-0.3C186.4,335.1,187.5,335.2,187.5,335.2z
	 M187.2,333.1c0.2-0.5,1.2-0.8,1.2-0.8l4-0.1l0,0.4l0,0.4l-4,0.8C188.6,333.6,187.5,333.5,187.2,333.1z M188.9,334.8l3.8-1.3
	l0.1,0.3l0.1,0.3l-3.6,1.9c0,0-1.1,0.2-1.5-0.1C188,335.5,188.9,334.8,188.9,334.8z M191.5,338.6l2.7-3l0.3,0.2l0.3,0.2l-2.1,3.4
	c0,0-0.8,0.7-1.3,0.6C191,339.6,191.5,338.6,191.5,338.6z M195.2,342l0.5,0.5c-0.3,0.2-1,1.1-1,1.1C194.6,342.9,195.2,342,195.2,342
	z M195.6,340.7l0.8-4l0.4,0l0.4,0l-0.1,4c0,0-0.3,1-0.8,1.2C195.7,341.7,195.6,340.7,195.6,340.7z M195.2,332c0-1.2,0.9-2.1,2.1-2.1
	c1.2,0,2.1,0.9,2.1,2.1c0,1.2-0.9,2.1-2.1,2.1C196.1,334.1,195.2,333.1,195.2,332z M201.3,322.6c0.3,0.4,0.1,1.5,0.1,1.5l-1.9,3.6
	l-0.3-0.1l-0.3-0.1l1.3-3.8C200.2,323.6,200.8,322.7,201.3,322.6z M200.5,322.2c0,0,0-1,0.4-1.5c0,0,0.1,1.1,0.3,1.4L200.5,322.2z
	 M204,326.1c0,0,1-0.5,1.5-0.2c0.1,0.5-0.6,1.3-0.6,1.3l-3.4,2.1l-0.2-0.3l-0.2-0.3L204,326.1z M203.9,323.6c0.4,0,1.4-0.4,1.4-0.4
	c-0.2,0.6-1.2,1.1-1.2,1.1L203.9,323.6z M203.1,325.3l-2.7,3l-0.3-0.2l-0.3-0.2l2.1-3.4c0,0,0.8-0.7,1.3-0.6
	C203.5,324.3,203.1,325.3,203.1,325.3z M199.4,321.9l-0.5-0.5c0.3-0.2,1-1.1,1-1.1C199.9,321,199.4,321.9,199.4,321.9z M199,323.3
	l-0.8,4l-0.4,0l-0.4,0l0.1-4c0,0,0.3-1,0.8-1.2C198.9,322.2,199,323.3,199,323.3z M197.8,336.7l0.4,0l0.8,4c0,0-0.1,1.1-0.5,1.4
	c-0.5-0.2-0.8-1.2-0.8-1.2l-0.1-4L197.8,336.7z M199.4,342c0,0,0.5,0.9,0.5,1.5c0,0-0.7-0.9-1-1.1L199.4,342z M199.8,336l0.3-0.2
	l0.3-0.2l2.7,3c0,0,0.5,1,0.2,1.5c-0.5,0.1-1.3-0.6-1.3-0.6L199.8,336z M205.1,336.1l-3.6-1.9l0.1-0.3l0.1-0.3l3.8,1.3
	c0,0,0.9,0.6,0.9,1.2C206.2,336.3,205.1,336.1,205.1,336.1z M206,333.6l-4-0.8l0-0.4l0-0.4l4,0.1c0,0,1,0.3,1.2,0.8
	C207.1,333.5,206,333.6,206,333.6z M208.6,335.5c0,0-1.1,0.1-1.4,0.3l-0.1-0.7C207.1,335.2,208.1,335.1,208.6,335.5z M207.4,334.1
	l0.5-0.5c0.2,0.3,1.1,1,1.1,1C208.2,334.6,207.4,334.1,207.4,334.1z M207.8,330.4l-0.5-0.5c0,0,0.9-0.5,1.5-0.5
	C208.9,329.4,208,330.1,207.8,330.4z M207.1,328.7l0.1-0.7c0.3,0.2,1.4,0.3,1.4,0.3C208.1,328.8,207.1,328.7,207.1,328.7z
	 M207.4,330.8c-0.2,0.5-1.2,0.8-1.2,0.8l-4,0.1l0-0.4l0-0.4l4-0.8C206,330.3,207.1,330.4,207.4,330.8z M205.7,329.1l-3.8,1.3
	l-0.1-0.3l-0.1-0.3l3.6-1.9c0,0,1.1-0.2,1.5,0.1C206.5,328.4,205.7,329.1,205.7,329.1z M205.6,325.3l-0.7-0.2c0,0,0.5-0.9,1.1-1.2
	C206,323.9,205.6,324.9,205.6,325.3z M205,318.5c1,0.5-0.4,1.8-0.4,1.8s1.8,0,0.9,1.5c-0.5,0.8-1.6,1.4-2.8,0.7
	c-1.2-0.7-1.3-2-0.8-2.8c0.9-1.5,1.8,0,1.8,0S204.1,318,205,318.5z M201.5,316.3c1.2,0.1,2.4,0.8,2.4,0.8c-1.7,0.3-3.3,2.4-3.3,2.4
	s-0.4-2.6-1.7-3.7C199,315.7,200.4,315.8,201.5,316.3z M197.3,316.5c1.1,0,0.6,1.7,0.6,1.7s1.6-0.9,1.6,0.9c0,0.9-0.7,2-2.1,2
	c-1.4,0-2.1-1.1-2.1-2c0-1.7,1.6-0.9,1.6-0.9S196.2,316.5,197.3,316.5z M193.1,316.3c1.1-0.5,2.5-0.5,2.5-0.5
	c-1.3,1.1-1.7,3.7-1.7,3.7s-1.6-2.1-3.3-2.4C190.6,317.1,191.9,316.4,193.1,316.3z M189.9,320.3c0,0-1.3-1.2-0.4-1.8
	c1-0.5,1.3,1.2,1.3,1.2s0.9-1.5,1.8,0c0.5,0.8,0.4,2.1-0.8,2.8c-1.2,0.7-2.4,0.1-2.8-0.7C188.1,320.4,189.9,320.3,189.9,320.3z
	 M189.6,325.1l-0.7,0.2c0-0.4-0.4-1.4-0.4-1.4C189.1,324.2,189.6,325.1,189.6,325.1z M185.8,320.5c0.7-1,1.9-1.7,1.9-1.7
	c-0.6,1.6,0.4,4,0.4,4s-2.4-1-4-0.4C184.1,322.4,184.8,321.2,185.8,320.5z M183.9,324.2c0.5-1,1.8,0.4,1.8,0.4s0-1.8,1.5-0.9
	c0.8,0.5,1.4,1.6,0.7,2.8c-0.7,1.2-2,1.3-2.8,0.8c-1.5-0.9,0-1.8,0-1.8S183.3,325.2,183.9,324.2z M181.6,327.7
	c0.1-1.2,0.8-2.4,0.8-2.4c0.3,1.7,2.4,3.3,2.4,3.3s-2.6,0.4-3.7,1.7C181.1,330.3,181.1,328.9,181.6,327.7z M181.6,336.2
	c-0.5-1.1-0.5-2.5-0.5-2.5c1.1,1.3,3.7,1.7,3.7,1.7s-2.1,1.6-2.4,3.3C182.4,338.6,181.7,337.3,181.6,336.2z M187.7,345.1
	c0,0-1.2-0.7-1.9-1.7c-1-0.7-1.7-1.9-1.7-1.9c1.6,0.6,4-0.4,4-0.4S187.1,343.5,187.7,345.1z M187.2,340.2c-1.5,0.9-1.5-0.9-1.5-0.9
	s-1.2,1.3-1.8,0.4c-0.5-1,1.2-1.4,1.2-1.4s-1.5-0.9,0-1.8c0.8-0.5,2.1-0.4,2.8,0.8C188.6,338.6,188,339.8,187.2,340.2z M188.9,338.6
	l0.7,0.2c0,0-0.5,0.9-1.1,1.2C188.5,340,188.9,339,188.9,338.6z M189.5,345.4c-1-0.5,0.4-1.8,0.4-1.8s-1.8,0-0.9-1.5
	c0.5-0.8,1.6-1.4,2.8-0.7c1.2,0.7,1.3,2,0.8,2.8c-0.9,1.5-1.8,0-1.8,0S190.5,345.9,189.5,345.4z M193.1,347.6
	c-1.2-0.1-2.4-0.8-2.4-0.8c1.7-0.3,3.3-2.4,3.3-2.4s0.4,2.6,1.7,3.7C195.6,348.2,194.2,348.1,193.1,347.6z M197.3,347.4
	c-1.1,0-0.6-1.7-0.6-1.7s-1.6,0.9-1.6-0.9c0-0.9,0.7-2,2.1-2c1.4,0,2.1,1.1,2.1,2c0,1.7-1.6,0.9-1.6,0.9S198.4,347.4,197.3,347.4z
	 M201.5,347.6c-1.1,0.5-2.5,0.5-2.5,0.5c1.3-1.1,1.7-3.7,1.7-3.7s1.6,2.1,3.3,2.4C203.9,346.8,202.7,347.5,201.5,347.6z
	 M204.6,343.6c0,0,1.3,1.2,0.4,1.8c-1,0.5-1.4-1.2-1.4-1.2s-0.9,1.5-1.8,0c-0.5-0.8-0.4-2.1,0.8-2.8c1.2-0.7,2.4-0.1,2.8,0.7
	C206.4,343.5,204.6,343.6,204.6,343.6z M204.9,338.8l0.7-0.2c0,0.4,0.4,1.4,0.4,1.4C205.4,339.7,204.9,338.8,204.9,338.8z
	 M208.8,343.4c-0.7,1-1.9,1.7-1.9,1.7c0.6-1.6-0.4-4-0.4-4s2.4,1,4,0.4C210.5,341.5,209.7,342.7,208.8,343.4z M210.7,339.7
	c-0.5,1-1.8-0.4-1.8-0.4s0,1.8-1.5,0.9c-0.8-0.5-1.4-1.6-0.7-2.8c0.7-1.2,2-1.3,2.8-0.8c1.5,0.9,0,1.8,0,1.8
	S211.2,338.7,210.7,339.7z M213,336.2c-0.1,1.2-0.8,2.4-0.8,2.4c-0.3-1.7-2.4-3.3-2.4-3.3s2.6-0.4,3.7-1.7
	C213.5,333.6,213.4,335.1,213,336.2z M213,327.8c0.5,1.1,0.5,2.5,0.5,2.5c-1.1-1.3-3.7-1.7-3.7-1.7s2.1-1.6,2.4-3.3
	C212.2,325.3,212.8,326.6,213,327.8z M210.7,324.2c0.5,1-1.2,1.4-1.2,1.4s1.5,0.9,0,1.8c-0.8,0.5-2.1,0.4-2.8-0.8
	c-0.7-1.2-0.1-2.4,0.7-2.8c1.5-0.9,1.5,0.9,1.5,0.9S210.1,323.3,210.7,324.2z M206.4,322.8c0,0,1-2.4,0.4-4c0,0,1.2,0.7,1.9,1.7
	c1,0.7,1.7,1.9,1.7,1.9C208.9,321.8,206.4,322.8,206.4,322.8z M223.3,442.7l3.2,1.2H168l3.2-1.2H223.3z M197.3,310.9
	c-11.6,0-21,9.4-21,21c0,11.6,9.4,21,21,21s21-9.4,21-21C218.3,320.4,208.9,310.9,197.3,310.9z M197.3,351c-10.5,0-19-8.5-19-19
	c0-10.5,8.5-19,19-19c10.5,0,19,8.5,19,19C216.3,342.4,207.8,351,197.3,351z M217.8,441.6v-26.9c0-0.3-0.8-26-20.4-29.3l-0.1,0
	l-0.1,0c-19.6,3.3-20.4,29.1-20.4,29.3v26.9h-1.5v-28.4c0-0.3,0.9-26.7,22-29.7c21.1,3,22,29.4,22,29.6v28.4H217.8z M215.2,416.3
	c0-0.2,0.5-22.2-17.7-27.6l-0.2,0l-0.2,0c-18.2,5.4-17.7,27.4-17.7,27.6v25.3H178v-26.9c0-0.2,0.8-24.9,19.3-28.1
	c18.5,3.2,19.3,27.9,19.3,28.1v26.9h-1.4L215.2,416.3z M203.4,413.4h-6.1h-6.1c0.1-2.2,0.8-9.6,6.1-12
	C202.6,403.8,203.3,411.2,203.4,413.4z M204.7,413.4c-0.1-2.4-0.8-10.6-7.2-13.3l-0.2-0.1l-0.2,0.1c-6.3,2.6-7.1,10.9-7.2,13.3h-9.2
	c0.6-6,3.3-19.5,16.6-23.6c13.3,4.1,16,17.6,16.6,23.6H204.7z M158.3,447.4h78l3.2,1.2H155L158.3,447.4z M143.7,326.7
	c0,0,0.6-9.1-7.3-16.4c-7.9,7.2-7.3,16.4-7.3,16.4v38.7h-2.6l0-41.5c0-0.1-0.4-10.7,10-16.5c10.4,5.8,10,16.4,10,16.5v41.4h-2.6
	V326.7z M167.5,242.3c2.3-1.6,5.2-3.3,9-4.7c1.4-0.5,3-1.2,4.4-1.8c-10,13.8-8.5,44.8-8.3,48.2l-3,1.2v-14l0.6-1.1l-0.4-16.3
	l-1.4,3.5l-0.5-5.1L167.5,242.3z M265.6,326.7c0,0,0.6-9.1-7.3-16.4c-7.9,7.2-7.3,16.4-7.3,16.4v38.7h-2.6l0-41.5
	c0-0.1-0.4-10.7,10-16.5c10.4,5.8,10,16.4,10,16.5v41.4h-2.6V326.7z M224.3,293.6l-3.3,1l-5.4-9.7h5l4.3,1.7v1l-0.6,1.9L224.3,293.6
	z M269.5,455.5H125.1l3.1-1.2h138.1L269.5,455.5z M179.6,283.6h-2.5c-0.3-4.3-1.1-31.8,20.2-41.6c21.2,9.8,20.4,37.3,20.2,41.6h-2.5
	l-17.6-32L179.6,283.6z M170.3,293.6v-4l-0.6-2v-1l4.3-1.7h5l-5.4,9.7L170.3,293.6z M220.1,295.5L197.3,254l-22.8,41.5v5l-4.2,1.6
	v20v43.2h3.1v3.3h23.7h0.4h23.7v-3.3h3.1v-43.2v-0.1v-19.9l-4.2-1.6V295.5z M181.6,365.8h-2.8h-2.8v-5.1c0,0,0.1-4.1,2.8-5.1
	c2.6,1,2.8,5.1,2.8,5.1V365.8z M218.5,365.8h-2.8h-2.8v-5.1c0,0,0.1-4.1,2.8-5.1c2.6,1,2.8,5.1,2.8,5.1V365.8z M197.3,354.3
	c-12.3,0-22.4-10-22.4-22.4c0-12.3,10-22.4,22.4-22.4c12.3,0,22.4,10,22.4,22.4C219.6,344.3,209.6,354.3,197.3,354.3z M291,442.7h2
	v15.3h-13.4l-5.2-1.9v-12.9l1.6-0.8v-72.6l-1.9-1.1h-1.2v-2.2h21.2v2.2h-1.2l-1.9,1.1V442.7z"/>
</svg>
