<?xml version="1.0" encoding="utf-8"?>
<!-- Generator: Adobe Illustrator 20.0.0, SVG Export Plug-In . SVG Version: 6.00 Build 0)  -->
<svg version="1.1" id="flash0.ai" xmlns="http://www.w3.org/2000/svg" xmlns:xlink="http://www.w3.org/1999/xlink" x="0px" y="0px"
	 viewBox="0 0 150 100" style="enable-background:new 0 0 150 100;" xml:space="preserve">
<style type="text/css">
	.st0{fill:#F9F9F9;}
	.st1{fill:#231F20;}
	.st2{fill:#6AB04C;}
</style>
<path class="st0" d="M54,76.2H12.5c-4.6,0-8.3-3.8-8.3-8.3v-3.7v-7.7V28.9c0-4.6,3.8-8.3,8.3-8.3h74.7c4.6,0,8.3,3.8,8.3,8.3v39
	c0,4.6-3.8,8.3-8.3,8.3h-3c-1.2,0-2.4,0.5-3.1,1.5c-0.7,1-1,2.2-0.6,3.3c0.9,3.2,2.5,7.5,5.7,12c-7.3-2.8-15-7.3-17.8-14.4
	c-0.6-1.5-2-2.5-3.6-2.5h-3.1L54,76.2L54,76.2z"/>
<g>
	<path class="st1" d="M13.3,47.6v-9.3h-1.8v-2.5h6.1v2.5h-1.8v9.3H13.3z"/>
	<path class="st1" d="M22.3,47.6v-4.8h-1.5v4.8h-2.5V35.7h2.5v4.6h1.5v-4.6h2.5v11.7L22.3,47.6L22.3,47.6z"/>
	<path class="st1" d="M25.8,47.6V35.7H31v2.5h-2.8v2.1h2.7v2.4h-2.7v2.2h2.7v2.6L25.8,47.6L25.8,47.6z"/>
	<path class="st1" d="M38.5,39.4c0-0.1,0-0.2,0-0.2c0-0.1,0-0.2,0-0.3c0-0.4-0.1-0.6-0.2-0.8C38.3,38,38.1,38,37.7,38
		c-0.3,0-0.5,0.1-0.6,0.2C37,38.4,37,38.5,37,39c0,0.4,0,0.6,0.2,0.7c0.1,0.2,0.3,0.3,0.4,0.4c0.3,0.2,0.4,0.3,0.6,0.4
		c0.2,0.1,0.4,0.2,0.5,0.3c0.2,0.1,0.4,0.2,0.5,0.3c0.2,0.1,0.4,0.2,0.4,0.3c0.2,0.1,0.4,0.3,0.4,0.4c0.1,0.2,0.3,0.4,0.4,0.5
		c0.1,0.3,0.2,0.5,0.2,0.8c0,0.4,0.1,0.7,0.1,1.2c0,0.7-0.1,1.3-0.2,1.8c-0.1,0.4-0.3,0.9-0.5,1.1c-0.3,0.3-0.5,0.4-1,0.6
		c-0.4,0.1-0.9,0.2-1.5,0.2c-1,0-1.7-0.2-2.1-0.5c-0.4-0.4-0.7-1.1-0.7-1.9c0-0.3,0-0.6,0-0.9c0-0.3,0.1-0.5,0.1-0.7h2
		c0,0.1,0,0.1,0,0.2s0,0.2,0,0.3c0,0.4,0.1,0.8,0.2,1c0.1,0.2,0.3,0.3,0.6,0.3c0.4,0,0.5-0.1,0.6-0.3c0.1-0.2,0.2-0.4,0.2-1
		c0-0.3-0.1-0.5-0.2-0.7c-0.1-0.2-0.2-0.4-0.4-0.6c-0.2-0.1-0.4-0.3-0.6-0.4c-0.2-0.1-0.4-0.2-0.6-0.3c-0.2-0.1-0.4-0.2-0.6-0.3
		s-0.4-0.3-0.5-0.4c-0.4-0.3-0.5-0.7-0.6-1.1c-0.1-0.5-0.1-1.1-0.1-1.9c0-0.5,0.1-1.1,0.2-1.4c0.1-0.4,0.3-0.7,0.4-0.9
		c0.2-0.3,0.5-0.4,0.9-0.5c0.4-0.1,0.9-0.2,1.4-0.2c0.5,0,1,0,1.3,0.1c0.4,0.1,0.6,0.3,0.9,0.4c0.3,0.2,0.4,0.4,0.5,0.8
		c0.1,0.4,0.2,0.8,0.2,1.2c0,0.4,0,0.6,0,0.8s-0.1,0.4-0.1,0.5L38.5,39.4L38.5,39.4z"/>
	<path class="st1" d="M43,47.6v-9.3h-1.8v-2.5h6.1v2.5h-1.8v9.3H43z"/>
	<path class="st1" d="M48.1,47.6V35.7h5.2v2.5h-2.8v2.1h2.7v2.4h-2.7v2.2h2.7v2.6L48.1,47.6L48.1,47.6z"/>
	<path class="st1" d="M61.3,47.6v-7.1h-0.1l-1.8,7.1h-1.1l-1.8-7.1h-0.1v7.1h-2.2V35.7h3.4l1.1,5.1h0.1l1.2-5.1h3.4v11.7L61.3,47.6
		L61.3,47.6z"/>
</g>
<g>
	<path class="st2" d="M72.2,25.3c-0.1,2.2-0.4,4.6-1.1,7.3c-0.4,1.2-0.7,2.4-1.2,3.5l-0.4,0.7c-0.1-0.1-0.8-0.6-2-1.8
		c-0.8-0.9-1.4-1.8-1.8-2.5c-0.8-1.5-1-3.2-0.5-5c0.4-1.8,1.3-3.6,2.6-5.3c0.9-1.2,1.8-2.6,2.8-4.2c0.4-0.6,0.7-1.3,0.8-2
		c0.1,0.4,0.6,1.4,1.6,3.2l3.9,5.9c1.3,1.9,2,3.7,2,5.5c0,1.5-0.8,2.9-2.2,4.3c-0.6,0.6-1.3,1.1-2,1.5c-0.5,0.4-1.2,0.6-2,0.8v-0.1
		c0.4-1.1,0.5-2.5,0.6-4.3c0-2.2-0.1-4.8-0.4-7.7c0-0.4-0.1-1.2-0.4-2.5l-0.2-0.9L72.2,25.3z"/>
	<g>
		<path class="st2" d="M101.4,23.6c-0.8,1.1-2,3.5-3.9,7.3c-1.7,3.4-3.5,6-5.5,7.7c-2.4,2-4.7,3.1-7.4,3c-1.5,0.2-3.1-0.1-4.7-0.6
			c-1.3-0.4-3.5-0.4-4.9-1.1l1.7-1.7c0.9-1.3,2.2-2.8,4-4.5c1.3-1.2,2.9-2.5,4.9-3.9c1.3-1.1,2.9-2,4.7-3.2l4.9-2.6l-1.5,0.4
			c-1.8,0.5-3,0.9-3.9,1.2c-1.2,0.4-2.5,1.2-4,2.2c-2.2,1.3-3.7,2.1-4.5,2.5c0-1.8-0.6-3.6-1.8-5.6c-0.6-0.8-1.1-1.5-1.4-2
			c-0.6-0.7-0.9-1.1-0.9-1.3c0.7-0.7,1.7-1.3,2.9-2c1.5-0.6,3.2-0.9,4.7-0.8c3.3,0,7.4,0.4,12.4,1.3l4.2,0.7
			c1.2,0.3,1.9,0.4,2.2,0.2C102.9,21.7,102.2,22.6,101.4,23.6z"/>
	</g>
</g>
<g>
	<path class="st1" d="M16.7,60.7c0-0.1-0.1-0.1-0.1-0.2s-0.1-0.2-0.1-0.3s0-0.3-0.1-0.4c0-0.2,0-0.4-0.1-0.7c0-0.4-0.1-0.7-0.1-1.1
		s-0.1-0.7-0.2-1.1c-0.1-0.3-0.2-0.4-0.3-0.5c-0.1-0.1-0.3-0.1-0.5-0.1h-0.8v4.3H13V50.4h2.9c0.4,0,0.8,0,1,0.1
		c0.3,0.1,0.4,0.2,0.6,0.4c0.1,0.1,0.2,0.3,0.3,0.4c0.1,0.1,0.2,0.3,0.2,0.4c0.1,0.2,0.1,0.4,0.1,0.6s0,0.5,0,0.9c0,0.4,0,0.6,0,0.8
		c0,0.3,0,0.4-0.1,0.5c0,0.2-0.1,0.3-0.1,0.4c0,0.1-0.1,0.2-0.1,0.3c-0.1,0.2-0.2,0.3-0.3,0.4c-0.1,0.1-0.3,0.2-0.4,0.2v0.1
		c0.1,0.1,0.3,0.1,0.4,0.3c0.1,0.1,0.2,0.4,0.3,0.6c0.1,0.4,0.2,1,0.2,1.4c0.1,0.5,0.1,1,0.2,1.5c0,0.2,0.1,0.4,0.1,0.5
		c0,0.2,0.1,0.3,0.2,0.4v0.1L16.7,60.7L16.7,60.7z M15.4,55.3c0.2,0,0.4,0,0.5-0.1c0.2-0.1,0.3-0.2,0.4-0.3c0.1-0.1,0.1-0.2,0.1-0.2
		c0-0.1,0.1-0.2,0.1-0.3s0-0.3,0-0.4c0-0.2,0-0.4,0-0.7s0-0.4,0-0.5c0-0.2,0-0.3,0-0.4c0-0.1,0-0.2-0.1-0.3c0-0.1-0.1-0.1-0.1-0.2
		c-0.2-0.2-0.4-0.3-0.6-0.3h-1.1v3.6L15.4,55.3L15.4,55.3z"/>
	<path class="st1" d="M19.3,60.7V50.4h4.3v1.2h-2.6v3.2h2.6V56h-2.6v3.3h2.6v1.3C23.6,60.7,19.3,60.7,19.3,60.7z"/>
	<path class="st1" d="M30.7,60.7V54c0-0.3,0-0.5,0-0.7c0-0.3,0-0.4,0-0.6h-0.1c0,0.1,0,0.2-0.1,0.3c0,0.1-0.1,0.3-0.1,0.4
		s-0.1,0.4-0.2,0.8c-0.1,0.4-0.2,0.8-0.4,1.4c-0.2,0.6-0.4,1.3-0.5,2.1c-0.2,0.9-0.4,1.8-0.7,3.1h-0.8c-0.3-1.2-0.5-2.2-0.8-3.1
		c-0.2-0.9-0.4-1.6-0.5-2.1c-0.2-0.6-0.3-1.1-0.4-1.4c-0.1-0.4-0.2-0.6-0.2-0.8S26,53.1,26,53s0-0.2-0.1-0.3h-0.1c0,0.2,0,0.4,0,0.6
		c0,0.3,0,0.4,0,0.7v6.7h-1.4V50.4H27c0.3,1.1,0.4,2.1,0.6,2.8c0.2,0.7,0.3,1.3,0.4,1.7c0.1,0.4,0.2,0.7,0.2,1
		c0,0.2,0.1,0.4,0.1,0.5h0.1c0-0.2,0-0.4,0.1-0.5c0-0.2,0.1-0.5,0.2-1c0.1-0.4,0.2-1,0.4-1.7c0.2-0.7,0.4-1.7,0.6-2.8H32v10.2
		C32,60.7,30.7,60.7,30.7,60.7z"/>
	<path class="st1" d="M33.7,60c-0.1-0.2-0.2-0.4-0.2-0.5c-0.1-0.2-0.1-0.4-0.2-0.8c0-0.4-0.1-0.7-0.1-1.2s0-1.1,0-1.9
		c0-0.8,0-1.5,0-1.9c0-0.5,0.1-0.9,0.1-1.2c0-0.4,0.1-0.5,0.2-0.8c0.1-0.2,0.2-0.4,0.2-0.5c0.2-0.4,0.4-0.5,0.7-0.6
		c0.4-0.1,0.8-0.2,1.4-0.2c0.6,0,1.1,0.1,1.4,0.2c0.4,0.1,0.5,0.4,0.7,0.6c0.1,0.2,0.2,0.4,0.2,0.5c0.1,0.2,0.1,0.4,0.2,0.8
		c0,0.4,0.1,0.7,0.1,1.2s0,1.1,0,1.9c0,0.8,0,1.5,0,1.9c0,0.5-0.1,1-0.1,1.2c0,0.4-0.1,0.5-0.2,0.8c-0.1,0.2-0.2,0.4-0.2,0.5
		c-0.2,0.4-0.4,0.5-0.7,0.7c-0.4,0.1-0.8,0.2-1.4,0.2c-0.6,0-1.1-0.1-1.4-0.2C34.1,60.5,33.9,60.3,33.7,60z M36.6,59.1
		c0-0.1,0.1-0.3,0.1-0.4c0-0.1,0.1-0.4,0.1-0.5c0-0.3,0-0.6,0.1-1.1c0-0.4,0-1,0-1.7c0-0.7,0-1.3,0-1.8s0-0.8,0-1.1s0-0.4-0.1-0.5
		c0-0.1-0.1-0.3-0.1-0.4c-0.1-0.2-0.2-0.3-0.3-0.4c-0.1-0.1-0.3-0.1-0.5-0.1s-0.4,0-0.5,0.1s-0.2,0.2-0.3,0.4c0,0.1-0.1,0.3-0.1,0.4
		s-0.1,0.4-0.1,0.5c0,0.3,0,0.6,0,1.1s0,1,0,1.8c0,0.7,0,1.3,0,1.7c0,0.4,0,0.8,0,1.1s0,0.4,0.1,0.5c0,0.1,0.1,0.3,0.1,0.4
		c0.1,0.2,0.2,0.3,0.3,0.4c0.1,0.1,0.3,0.1,0.5,0.1s0.4,0,0.5-0.1C36.4,59.4,36.5,59.3,36.6,59.1z"/>
	<path class="st1" d="M40.3,60.7l-1.4-10.2h1.8c0.2,1.2,0.3,2.3,0.4,3.2c0.1,0.9,0.2,1.7,0.3,2.3c0.1,0.6,0.1,1.1,0.2,1.5
		c0.1,0.4,0.1,0.7,0.1,1s0,0.4,0.1,0.5c0,0.2,0,0.3,0,0.4h0.1c0-0.1,0-0.3,0-0.4c0-0.2,0-0.4,0.1-0.5c0-0.3,0.1-0.5,0.1-1
		c0-0.4,0.1-0.9,0.2-1.5c0.1-0.6,0.2-1.4,0.3-2.3s0.3-1.9,0.4-3.2h1.7l-1.5,10.2H40.3z"/>
	<path class="st1" d="M45.3,60.7V50.4h4.3v1.2h-2.6v3.2h2.6V56h-2.6v3.3h2.6v1.3C49.6,60.7,45.3,60.7,45.3,60.7z"/>
	<path class="st1" d="M53.3,60.7V50.4h4.3v1.2H55v3.2h2.6V56H55v3.3h2.6v1.3C57.6,60.7,53.3,60.7,53.3,60.7z"/>
	<path class="st1" d="M63,60.7c-0.4-1-0.8-1.8-1.1-2.5c-0.3-0.7-0.5-1.3-0.7-1.8c-0.2-0.5-0.4-0.9-0.4-1.2c-0.1-0.4-0.3-0.6-0.3-0.8
		c-0.1-0.2-0.2-0.4-0.2-0.4s-0.1-0.2-0.1-0.3h-0.3c0,0.3,0,0.6,0,0.9c0,0.4,0,0.7,0,1.1v5.2h-1.5V50.4h1.8c0.3,0.8,0.5,1.4,0.7,1.9
		c0.2,0.5,0.4,1,0.4,1.3s0.3,0.7,0.4,0.9c0.1,0.3,0.2,0.4,0.2,0.5s0.1,0.3,0.1,0.3c0,0.1,0,0.1,0.1,0.2h0.1c0-0.2,0-0.4,0-0.5
		c0-0.2,0-0.4,0-0.7v-3.9h1.5v10.2L63,60.7L63,60.7z"/>
	<path class="st1" d="M65,60.7V50.4h2.7c0.6,0,1.1,0.1,1.4,0.2c0.4,0.1,0.5,0.4,0.8,0.6c0.1,0.2,0.2,0.4,0.2,0.5
		c0.1,0.2,0.1,0.4,0.2,0.7c0,0.4,0.1,0.7,0.1,1.2c0,0.5,0,1.1,0,1.9s0,1.5,0,1.9c0,0.5-0.1,0.9-0.1,1.2c0,0.3-0.1,0.5-0.2,0.7
		c-0.1,0.2-0.1,0.4-0.2,0.4c-0.2,0.4-0.4,0.5-0.7,0.6c-0.4,0.1-0.8,0.2-1.4,0.2C67.8,60.7,65,60.7,65,60.7z M67.6,59.4
		c0.3,0,0.4,0,0.5-0.1s0.2-0.2,0.3-0.4c0-0.1,0.1-0.2,0.1-0.4c0-0.2,0.1-0.4,0.1-0.5c0-0.3,0-0.5,0-1c0-0.4,0-1,0-1.6
		c0-0.6,0-1.1,0-1.6c0-0.4,0-0.7,0-1c0-0.3,0-0.4-0.1-0.5c0-0.1-0.1-0.3-0.1-0.4c-0.1-0.2-0.2-0.3-0.3-0.4s-0.3-0.1-0.5-0.1h-1.1
		v7.8L67.6,59.4L67.6,59.4z"/>
	<path class="st1" d="M71.4,60.7V50.4H73v10.2C73,60.7,71.4,60.7,71.4,60.7z"/>
	<path class="st1" d="M78.5,60.7c-0.4-1-0.8-1.8-1.1-2.5c-0.3-0.7-0.5-1.3-0.7-1.8c-0.2-0.5-0.4-0.9-0.4-1.2
		c-0.1-0.4-0.3-0.6-0.3-0.8c-0.1-0.2-0.2-0.4-0.2-0.4s-0.1-0.2-0.1-0.3h-0.1c0,0.3,0,0.6,0,0.9c0,0.4,0,0.7,0,1.1v5.2h-1.5V50.4h1.8
		c0.3,0.8,0.5,1.4,0.7,1.9c0.2,0.5,0.4,1,0.4,1.3s0.3,0.7,0.4,0.9c0.1,0.3,0.2,0.4,0.2,0.5s0.1,0.3,0.1,0.3c0,0.1,0,0.1,0.1,0.2H78
		c0-0.2,0-0.4,0-0.5c0-0.2,0-0.4,0-0.7v-3.9h1.5v10.2L78.5,60.7L78.5,60.7z"/>
	<path class="st1" d="M82.7,56.1V55h2.9c0,0.2,0,0.4,0,0.7c0,0.3,0,0.6,0,1.1c0,0.5,0,1.1,0,1.4s-0.1,0.7-0.1,1s-0.1,0.4-0.2,0.6
		c-0.1,0.2-0.1,0.3-0.2,0.4c-0.2,0.4-0.4,0.5-0.7,0.7C84.1,60.9,83.6,61,83,61c-0.6,0-1.1-0.1-1.4-0.2c-0.4-0.1-0.5-0.4-0.7-0.7
		c-0.1-0.2-0.2-0.4-0.2-0.5c-0.1-0.2-0.1-0.4-0.2-0.8c0-0.4-0.1-0.8-0.1-1.2c0-0.5,0-1.2,0-2s0-1.4,0-1.9s0.1-0.9,0.1-1.2
		c0-0.4,0.1-0.5,0.2-0.7s0.1-0.4,0.2-0.4c0.2-0.4,0.4-0.6,0.8-0.7c0.4-0.1,0.8-0.2,1.4-0.2c0.7,0,1.1,0.1,1.5,0.3
		c0.4,0.2,0.5,0.4,0.7,0.6c0.2,0.4,0.3,0.6,0.3,1c0,0.4,0.1,0.6,0.1,1c0,0.2,0,0.3,0,0.4s0,0.2,0,0.2h-1.5c0-0.1,0-0.2,0-0.2
		c0-0.1,0-0.2,0-0.4c0-0.2,0-0.4,0-0.5c0-0.2-0.1-0.4-0.1-0.6c-0.1-0.2-0.1-0.3-0.3-0.4c-0.1-0.1-0.4-0.1-0.6-0.1
		c-0.3,0-0.4,0-0.5,0.1s-0.2,0.2-0.3,0.4c0,0.1-0.1,0.2-0.1,0.4c0,0.1-0.1,0.4-0.1,0.5c0,0.3,0,0.6-0.1,1c0,0.4,0,1,0,1.7
		s0,1.3,0,1.7c0,0.4,0,0.8,0.1,1.1c0,0.3,0.1,0.4,0.1,0.6c0,0.1,0.1,0.3,0.1,0.4c0.1,0.2,0.2,0.3,0.3,0.4c0.1,0.1,0.3,0.1,0.6,0.1
		c0.3,0,0.4,0,0.5-0.1s0.2-0.2,0.3-0.4c0-0.1,0.1-0.2,0.1-0.4c0-0.1,0.1-0.3,0.1-0.4c0-0.2,0-0.4,0.1-0.6c0-0.3,0-0.5,0-0.9
		c0-0.2,0-0.4,0-0.5c0-0.1,0-0.2,0-0.3L82.7,56.1L82.7,56.1z"/>
</g>
</svg>
