<?xml version="1.0" encoding="utf-8"?>
<!-- Generator: Adobe Illustrator 20.0.0, SVG Export Plug-In . SVG Version: 6.00 Build 0)  -->
<svg version="1.1" id="flash0.ai" xmlns="http://www.w3.org/2000/svg" xmlns:xlink="http://www.w3.org/1999/xlink" x="0px" y="0px"
	 viewBox="0 0 100 80" style="enable-background:new 0 0 100 80;" xml:space="preserve">
<style type="text/css">
	.st0{fill:#e6271e;}
</style>
<g>
	<path class="st0" d="M73.8,1.8c1,0.2,1.8,0.7,2.3,1.3l8.9,9c2.8,2.4,4.2,4.7,4.2,6.9c0,1.1-0.3,2-0.8,2.7l-17.8,20l14.2,14.9
		c1.9,1.5,2.9,3,2.9,4.7c0,0.8-0.2,1.5-0.5,2l-12,12.9c-1.7,1.5-3.6,1.7-5.8,0.7c-0.7-0.3-1.3-0.7-2-1.3l-17.5-15L34.5,77.5
		c-1.3,0.9-2.6,1.2-3.8,0.9c-0.4-0.1-0.7-0.3-1-0.5l-12-10.3c-2.7-2.1-4.1-4.1-4.2-6.1c0-0.6,0-1.2,0.3-1.8l0.3-0.6l16.6-18.6
		l-18-19.4c-1.2-1.1-1.8-2.2-1.8-3.4c0-0.4,0-0.7,0.2-1.1l0.2-0.4l11.3-12c2.6-2.4,5.1-3,7.7-1.8c1.3,0.6,2.3,1.4,3.1,2.5L50,22.1
		L67.1,4.6C69.6,2.3,71.8,1.3,73.8,1.8z"/>
</g>
</svg>
