<?xml version="1.0" encoding="utf-8"?>
<!-- Generator: Adobe Illustrator 20.0.0, SVG Export Plug-In . SVG Version: 6.00 Build 0)  -->
<svg version="1.1" id="Layer_1" xmlns="http://www.w3.org/2000/svg" xmlns:xlink="http://www.w3.org/1999/xlink" x="0px" y="0px"
	 viewBox="0 0 65 50" style="enable-background:new 0 0 65 50;" xml:space="preserve">
<style type="text/css">
	.st0{fill:#F4F4F4;}
	.st1{fill:#6AB04C;}
</style>
<path class="st0" d="M45.8,0.5c2.3,1,3.6,2.9,4,5.5c0.6,2.1-0.4,4.3-2.8,6.3c-8.1,6.2-16,14.8-23.9,26l-2.5,3.9
	c-1.8,2.6-2.7,4.1-2.9,4.4c-0.2,0.3-0.7,0.9-1.5,1.8c-0.9,0.9-1.4,1.3-1.7,1.3c-0.6,0.1-1.1,0.2-1.6,0.3c-1,0.1-1.9,0-2.5-0.3
	c-1.2-0.6-2.3-1.6-3.4-3.2c-4.3-6.1-6.7-14.2-7-24.3c0.2-2.7,1.6-4.5,4.2-5.5c2.3-0.7,4.3-0.3,6.3,1.3c1.2,1.2,2.2,2.6,2.9,4
	c7.3-9.1,16-16.1,26.1-21.1C42.2-0.1,44.2-0.3,45.8,0.5z M45.5,4c-1-1.2-2.5-1.4-4.6-0.4C30,10,20.5,18.2,12.6,28.2l-3.8-6.9
	c-1.1-1.7-2.4-2.2-3.9-1.6c-1.6,0.6-2.4,1.9-2.1,4c0.6,5.9,2.1,11.6,4.5,16.9l2.1,4.2c1.8,2.6,3.5,2.7,5.1,0.5l3.3-4.7
	c0.8-1.2,1.8-2.6,2.8-4.2c4.6-7.5,9.7-13.7,15.3-18.8c5.5-5.1,8.7-8,9.7-8.8C46.8,7.2,46.8,5.6,45.5,4z"/>
<path class="st1" d="M45.5,4c1.2,1.7,1.2,3.3,0,4.8c-1,0.8-4.2,3.8-9.7,8.8c-5.5,5.1-10.6,11.3-15.3,18.8c-1,1.6-1.9,3-2.8,4.2
	l-3.3,4.7c-1.7,2.3-3.4,2.1-5.1-0.5l-2.1-4.2c-2.3-5.3-3.8-11-4.5-16.9c-0.2-2.1,0.5-3.4,2.1-4c1.5-0.6,2.8-0.1,3.9,1.6l3.8,6.9
	C20.5,18.2,30,10,41,3.6C43,2.6,44.5,2.7,45.5,4z"/>
</svg>
