<?xml version="1.0" encoding="utf-8"?>
<!-- Generator: Adobe Illustrator 16.0.0, SVG Export Plug-In . SVG Version: 6.00 Build 0)  -->
<!DOCTYPE svg PUBLIC "-//W3C//DTD SVG 1.1//EN" "http://www.w3.org/Graphics/SVG/1.1/DTD/svg11.dtd">
<svg version="1.1" xmlns="http://www.w3.org/2000/svg" xmlns:xlink="http://www.w3.org/1999/xlink" x="0px" y="0px" width="80px"
	 height="40px" viewBox="0 0 80 40" enable-background="new 0 0 80 40" xml:space="preserve">
<style type="text/css">
	.st0{fill:#B70D0D;}
	.st1{fill:none;}
	.st2{fill:#57AB33;}
	.st3{fill:#FFFFFF;}
</style>
<g id="flash0.ai">
	<g>
		<path class="st0" d="M77.3,20c0,4.9-1.7,9-5.2,12.5c-3.3,3.3-7.4,5-12.3,5c-4.7,0-8.9-1.7-12.4-5c-3.3-3.4-5-7.5-5-12.5
			c0-4.6,1.7-8.7,5-12.4c3.5-3.4,7.7-5.1,12.4-5.1s8.8,1.7,12.3,5.1C75.6,11.1,77.3,15.2,77.3,20z"/>
		<path class="st1" d="M77.3,20c0,4.9-1.7,9-5.2,12.5c-3.3,3.3-7.4,5-12.3,5c-4.7,0-8.9-1.7-12.4-5c-3.3-3.4-5-7.5-5-12.5
			c0-4.6,1.7-8.7,5-12.4c3.5-3.4,7.7-5.1,12.4-5.1s8.8,1.7,12.3,5.1C75.6,11.1,77.3,15.2,77.3,20z"/>
	</g>
	<g>
		<path class="st0" d="M77.3,20c0,4.9-1.7,9-5.2,12.5c-3.3,3.3-7.4,5-12.3,5c-4.7,0-8.9-1.7-12.4-5c-3.3-3.4-5-7.5-5-12.5
			c0-4.6,1.7-8.7,5-12.4c3.5-3.4,7.7-5.1,12.4-5.1s8.8,1.7,12.3,5.1C75.6,11.1,77.3,15.2,77.3,20z"/>
		<path class="st1" d="M77.3,20c0,4.9-1.7,9-5.2,12.5c-3.3,3.3-7.4,5-12.3,5c-4.7,0-8.9-1.7-12.4-5c-3.3-3.4-5-7.5-5-12.5
			c0-4.6,1.7-8.7,5-12.4c3.5-3.4,7.7-5.1,12.4-5.1s8.8,1.7,12.3,5.1C75.6,11.1,77.3,15.2,77.3,20z"/>
	</g>
	<g>
		<path class="st2" d="M37.4,20c0,4.9-1.7,9-5.2,12.5c-3.3,3.3-7.4,5-12.3,5c-4.7,0-8.9-1.7-12.4-5c-3.3-3.4-5-7.5-5-12.5
			c0-4.6,1.7-8.7,5-12.4c3.5-3.4,7.7-5.1,12.4-5.1s8.8,1.7,12.3,5.1C35.7,11.1,37.4,15.2,37.4,20z"/>
		<path class="st1" d="M37.4,20c0,4.9-1.7,9-5.2,12.5c-3.3,3.3-7.4,5-12.3,5c-4.7,0-8.9-1.7-12.4-5c-3.3-3.4-5-7.5-5-12.5
			c0-4.6,1.7-8.7,5-12.4c3.5-3.4,7.7-5.1,12.4-5.1s8.8,1.7,12.3,5.1C35.7,11.1,37.4,15.2,37.4,20z"/>
	</g>
</g>
<g id="Isolation_Mode">
	<g>
		<g>
			<g>
				<g>
					<g>
						<path class="st3" d="M23.2,8.9c-0.6-0.4-1.1-0.3-1.5,0.2c-0.2,0.3-0.3,0.6-0.4,1c0,0.3-0.1,0.7-0.1,1.2
							c-0.2,1.1-0.8,2.2-1.8,3c-0.5,0.4-1.1,1.1-1.9,2.2c-0.7,1-1.4,1.6-2,2.1v8.8c0.4,0.2,0.9,0.3,1.5,0.5c1.2,0.4,2.3,0.6,3.4,0.8
							c1.4,0.2,2.9,0.3,4.4,0.3c1.8,0,3-0.2,3.7-0.6c0.3-0.2,0.5-0.4,0.7-0.5c0.3-0.4,0.4-0.8,0.2-1.3c0-0.1-0.1-0.3-0.3-0.5
							c-0.1-0.2-0.2-0.3-0.1-0.3c0.8-0.5,1.1-1.1,1-1.8c-0.1-0.5-0.4-0.9-0.8-1.3c0.9-0.3,1.3-0.9,1.4-1.7c0-0.8-0.3-1.4-1.2-1.8
							c0.6-0.8,0.6-1.5,0-2.2c-0.5-0.6-1.2-0.9-2-1c-1.2-0.1-2-0.2-2.5-0.1c-0.3,0-0.6,0.1-1.1,0.1c1-2,1.2-3.8,0.7-5.5
							C24,9.8,23.7,9.2,23.2,8.9z"/>
						<path class="st3" d="M10.9,18.1c-0.4,0-0.7,0.1-1,0.4s-0.4,0.6-0.4,1v7.8c0,0.4,0.1,0.7,0.4,1s0.6,0.4,1,0.4h0.3V18.1H10.9z"
							/>
						<path class="st3" d="M13.2,27.5c-0.2,0-0.3-0.1-0.5-0.2c-0.1-0.1-0.2-0.3-0.2-0.5s0.1-0.3,0.2-0.5c0.1-0.1,0.3-0.2,0.5-0.2
							s0.3,0.1,0.5,0.2c0.1,0.1,0.2,0.3,0.2,0.5s-0.1,0.3-0.2,0.5S13.4,27.5,13.2,27.5z M14.5,19.5c0-0.4-0.1-0.7-0.4-1
							c-0.3-0.3-0.6-0.4-1-0.4h-1.3v10.5h1.3c0.4,0,0.7-0.1,1-0.4s0.4-0.6,0.4-1V19.5z"/>
					</g>
				</g>
			</g>
		</g>
	</g>
	<g>
		<g>
			<g>
				<g>
					<g>
						<path class="st3" d="M63.2,31.4c-0.6,0.4-1.1,0.3-1.5-0.2c-0.2-0.3-0.3-0.6-0.4-1c0-0.3-0.1-0.7-0.1-1.2
							c-0.2-1.1-0.8-2.2-1.8-3c-0.5-0.4-1.1-1.1-1.9-2.2c-0.7-1-1.4-1.6-2-2.1v-8.8c0.4-0.2,0.9-0.3,1.5-0.5
							c1.2-0.4,2.4-0.6,3.4-0.8c1.4-0.2,2.9-0.3,4.4-0.3c1.8,0,3,0.2,3.7,0.6c0.3,0.2,0.5,0.4,0.7,0.5c0.3,0.4,0.4,0.8,0.2,1.3
							c0,0.1-0.1,0.3-0.3,0.5c-0.1,0.2-0.2,0.3-0.1,0.3c0.8,0.5,1.1,1.1,1,1.8c-0.1,0.5-0.4,0.9-0.8,1.3c0.9,0.3,1.3,0.9,1.4,1.7
							c0,0.8-0.3,1.4-1.2,1.8c0.6,0.8,0.6,1.5,0,2.2c-0.5,0.6-1.2,0.9-2,1c-1.2,0.1-2,0.2-2.5,0.1c-0.3,0-0.6-0.1-1.1-0.1
							c1,2,1.2,3.8,0.7,5.5C64.1,30.5,63.7,31,63.2,31.4z"/>
						<path class="st3" d="M50.9,22.1c-0.4,0-0.7-0.1-1-0.4s-0.4-0.6-0.4-1V13c0-0.4,0.1-0.7,0.4-1c0.3-0.3,0.6-0.4,1-0.4h0.3v10.5
							H50.9z"/>
						<path class="st3" d="M53.2,12.7c-0.2,0-0.3,0.1-0.5,0.2c-0.1,0.1-0.2,0.3-0.2,0.5s0.1,0.3,0.2,0.5c0.1,0.1,0.3,0.2,0.5,0.2
							s0.3-0.1,0.5-0.2c0.1-0.1,0.2-0.3,0.2-0.5s-0.1-0.3-0.2-0.5C53.6,12.8,53.4,12.7,53.2,12.7z M54.6,20.8c0,0.4-0.1,0.7-0.4,1
							c-0.3,0.3-0.6,0.4-1,0.4h-1.3V11.6h1.3c0.4,0,0.7,0.1,1,0.4s0.4,0.6,0.4,1V20.8z"/>
					</g>
				</g>
			</g>
		</g>
	</g>
</g>
</svg>
