<?xml version="1.0" encoding="utf-8"?>
<!-- Generator: Adobe Illustrator 20.0.0, SVG Export Plug-In . SVG Version: 6.00 Build 0)  -->
<svg version="1.1" id="flash0.ai" xmlns="http://www.w3.org/2000/svg" xmlns:xlink="http://www.w3.org/1999/xlink" x="0px" y="0px"
	 viewBox="0 0 160 40" style="enable-background:new 0 0 160 40;" xml:space="preserve">
<style type="text/css">
	.st0{fill:#B70D0D;}
	.st1{fill:none;}
	.st2{fill:#57AB33;}
	.st3{fill:#EAA62F;}
	.st4{fill:#232323;}
	.st5{enable-background:new    ;}
	.st6{fill:#FFFFFF;}
</style>
<g>
	<path class="st0" d="M117.4,20c0,4.9-1.7,9-5.2,12.5c-3.3,3.3-7.4,5-12.3,5c-4.7,0-8.9-1.7-12.4-5c-3.3-3.4-5-7.5-5-12.5
		c0-4.6,1.7-8.7,5-12.4c3.5-3.4,7.7-5.1,12.4-5.1c4.7,0,8.8,1.7,12.3,5.1C115.7,11.1,117.4,15.2,117.4,20z"/>
	<path class="st1" d="M117.4,20c0,4.9-1.7,9-5.2,12.5c-3.3,3.3-7.4,5-12.3,5c-4.7,0-8.9-1.7-12.4-5c-3.3-3.4-5-7.5-5-12.5
		c0-4.6,1.7-8.7,5-12.4c3.5-3.4,7.7-5.1,12.4-5.1c4.7,0,8.8,1.7,12.3,5.1C115.7,11.1,117.4,15.2,117.4,20z"/>
</g>
<g>
	<path class="st2" d="M37.4,20.1c0,4.9-1.7,9-5.2,12.5c-3.3,3.3-7.4,5-12.3,5c-4.7,0-8.9-1.7-12.4-5c-3.3-3.4-5-7.5-5-12.5
		c0-4.6,1.7-8.7,5-12.4c3.5-3.4,7.7-5.1,12.4-5.1s8.8,1.7,12.3,5.1C35.7,11.2,37.4,15.3,37.4,20.1z"/>
	<path class="st1" d="M37.4,20.1c0,4.9-1.7,9-5.2,12.5c-3.3,3.3-7.4,5-12.3,5c-4.7,0-8.9-1.7-12.4-5c-3.3-3.4-5-7.5-5-12.5
		c0-4.6,1.7-8.7,5-12.4c3.5-3.4,7.7-5.1,12.4-5.1s8.8,1.7,12.3,5.1C35.7,11.2,37.4,15.3,37.4,20.1z"/>
</g>
<g>
	<path class="st3" d="M77.4,20c0,4.9-1.7,9-5.1,12.3c-3.4,3.4-7.5,5.2-12.3,5.2s-8.9-1.7-12.3-5.2c-3.4-3.3-5.1-7.4-5.1-12.3
		s1.7-9,5.1-12.4c3.4-3.4,7.5-5.1,12.3-5.1c4.7,0,8.8,1.7,12.3,5.1C75.6,11,77.4,15.1,77.4,20z"/>
	<path class="st1" d="M77.4,20c0,4.9-1.7,9-5.1,12.3c-3.4,3.4-7.5,5.2-12.3,5.2s-8.9-1.7-12.3-5.2c-3.4-3.3-5.1-7.4-5.1-12.3
		s1.7-9,5.1-12.4c3.4-3.4,7.5-5.1,12.3-5.1c4.7,0,8.8,1.7,12.3,5.1C75.6,11,77.4,15.1,77.4,20z"/>
</g>
<g>
	<path class="st4" d="M157.4,20c0,4.9-1.7,9-5.2,12.3c-3.3,3.4-7.4,5.2-12.3,5.2c-4.9,0-9-1.7-12.3-5.2c-3.4-3.3-5.2-7.4-5.2-12.3
		c0-4.8,1.7-8.9,5.2-12.3c3.3-3.4,7.4-5.1,12.3-5.1c4.9,0,9,1.7,12.3,5.1C155.7,11,157.4,15.1,157.4,20z"/>
	<path class="st1" d="M157.4,20c0,4.9-1.7,9-5.2,12.3c-3.3,3.4-7.4,5.2-12.3,5.2c-4.9,0-9-1.7-12.3-5.2c-3.4-3.3-5.2-7.4-5.2-12.3
		c0-4.8,1.7-8.9,5.2-12.3c3.3-3.4,7.4-5.1,12.3-5.1c4.9,0,9,1.7,12.3,5.1C155.7,11,157.4,15.1,157.4,20z"/>
</g>
<g class="st5">
	<path class="st6" d="M10.9,27.9v-3.6h2.4v-7.1h-2.4v-3h1.5c0.3,0,0.5,0,0.7,0c0.2,0,0.3-0.1,0.5-0.2c0.1-0.1,0.2-0.2,0.3-0.4
		c0.1-0.2,0.1-0.4,0.1-0.8l0.1-1.1h2.8v12.7H19v3.6H10.9z"/>
	<path class="st6" d="M23.7,15l-0.2,1.9c0.2-0.1,0.4-0.1,0.7-0.2s0.7-0.1,1.1-0.1c0.5,0,1,0.1,1.4,0.2s0.8,0.4,1,0.8
		c0.3,0.4,0.5,0.8,0.6,1.4c0.1,0.6,0.2,1.3,0.2,2.2c0,0.8,0,1.5-0.1,2.1c0,0.6-0.1,1.1-0.2,1.5c-0.1,0.4-0.1,0.8-0.2,1.1
		s-0.2,0.6-0.4,0.8c-0.1,0.2-0.3,0.5-0.5,0.6c-0.2,0.2-0.4,0.3-0.7,0.4s-0.6,0.2-1.1,0.2c-0.4,0-0.9,0.1-1.4,0.1
		c-0.9,0-1.6-0.1-2.2-0.3c-0.6-0.2-1-0.5-1.3-0.9S20.1,26,20,25.4c-0.1-0.6-0.1-1.4-0.1-2.3c0-0.5,0-0.9,0.1-1.5H23
		c0,0.1,0,0.2,0,0.4s0,0.3,0,0.4c0,0.7,0.1,1.2,0.2,1.6c0.1,0.4,0.4,0.6,0.9,0.6c0.3,0,0.6,0,0.7-0.1s0.2-0.2,0.3-0.3
		c0.1-0.2,0.1-0.6,0.2-1c0-0.4,0.1-1,0.1-1.8c0-0.4,0-0.7,0-1c0-0.2-0.1-0.4-0.2-0.6c-0.1-0.1-0.2-0.2-0.4-0.3
		c-0.2,0-0.4-0.1-0.7-0.1c-0.4,0-0.8,0.1-1.1,0.4l-2.6-0.8l0.5-7.5h7.6V15H23.7z"/>
</g>
<g class="st5">
	<path class="st6" d="M50.9,27.9v-3.6h2.4v-7.1h-2.4v-3h1.5c0.3,0,0.5,0,0.7,0c0.2,0,0.3-0.1,0.5-0.2c0.1-0.1,0.2-0.2,0.3-0.4
		c0.1-0.2,0.1-0.4,0.1-0.8l0.1-1.1h2.8v12.7H59v3.6H50.9z"/>
	<path class="st6" d="M64.1,28.2c-0.7,0-1.3,0-1.7-0.1c-0.5,0-0.9-0.1-1.2-0.3c-0.3-0.2-0.6-0.4-0.8-0.8c-0.2-0.4-0.3-0.8-0.4-1.5
		c-0.1-0.6-0.2-1.4-0.2-2.4c0-0.9,0-2.1,0-3.5c0-1.4,0-2.5,0-3.4s0.1-1.7,0.2-2.4c0.1-0.6,0.2-1.1,0.4-1.5c0.2-0.4,0.4-0.6,0.8-0.8
		c0.3-0.2,0.7-0.3,1.2-0.3c0.5,0,1.1-0.1,1.7-0.1s1.3,0,1.7,0.1c0.5,0,0.9,0.1,1.2,0.3c0.3,0.2,0.6,0.4,0.8,0.8
		c0.2,0.4,0.3,0.8,0.4,1.5c0.1,0.6,0.2,1.4,0.2,2.4s0,2.1,0,3.4c0,1.4,0,2.5,0,3.5c0,0.9-0.1,1.7-0.2,2.4c-0.1,0.6-0.2,1.1-0.4,1.5
		c-0.2,0.4-0.5,0.6-0.8,0.8c-0.3,0.2-0.7,0.3-1.2,0.3C65.4,28.2,64.8,28.2,64.1,28.2z M64.1,24.5c0.2,0,0.4,0,0.6-0.1
		c0.1-0.1,0.2-0.2,0.3-0.5c0.1-0.3,0.1-0.8,0.1-1.5s0-1.6,0-2.8c0-1.2,0-2.2,0-2.9c0-0.7-0.1-1.2-0.1-1.5c-0.1-0.3-0.2-0.5-0.3-0.6
		s-0.3-0.1-0.6-0.1s-0.5,0-0.6,0.1s-0.2,0.2-0.3,0.6c-0.1,0.3-0.1,0.8-0.1,1.5c0,0.7,0,1.6,0,2.9c0,1.2,0,2.1,0,2.8
		c0,0.7,0.1,1.1,0.1,1.5c0.1,0.3,0.2,0.5,0.3,0.5S63.9,24.5,64.1,24.5z"/>
</g>
<g class="st5">
	<path class="st6" d="M99.5,15l-0.2,1.9c0.2-0.1,0.4-0.1,0.7-0.2s0.7-0.1,1.1-0.1c0.5,0,1,0.1,1.4,0.2c0.4,0.2,0.8,0.4,1,0.8
		c0.3,0.4,0.5,0.8,0.6,1.4c0.1,0.6,0.2,1.3,0.2,2.2c0,0.8,0,1.5-0.1,2.1s-0.1,1.1-0.2,1.5c-0.1,0.4-0.1,0.8-0.2,1.1
		s-0.2,0.6-0.4,0.8c-0.1,0.2-0.3,0.5-0.5,0.6c-0.2,0.2-0.4,0.3-0.7,0.4c-0.3,0.1-0.6,0.2-1.1,0.2s-0.9,0.1-1.4,0.1
		c-0.9,0-1.6-0.1-2.2-0.3s-1-0.5-1.3-0.9s-0.5-0.9-0.6-1.6s-0.1-1.4-0.1-2.3c0-0.5,0-0.9,0.1-1.5h3.1c0,0.1,0,0.2,0,0.4s0,0.3,0,0.4
		c0,0.7,0.1,1.2,0.2,1.6c0.1,0.4,0.4,0.6,0.9,0.6c0.3,0,0.6,0,0.7-0.1c0.1-0.1,0.2-0.2,0.3-0.3c0.1-0.2,0.1-0.6,0.2-1
		c0-0.4,0.1-1,0.1-1.8c0-0.4,0-0.7,0-1c0-0.2-0.1-0.4-0.2-0.6c-0.1-0.1-0.2-0.2-0.4-0.3s-0.4-0.1-0.7-0.1c-0.4,0-0.8,0.1-1.1,0.4
		L96,19.1l0.5-7.5h7.6V15H99.5z"/>
</g>
<g class="st5">
	<path class="st6" d="M140,28.2c-0.7,0-1.3,0-1.7-0.1c-0.5,0-0.9-0.1-1.2-0.3c-0.3-0.2-0.6-0.4-0.8-0.8c-0.2-0.4-0.3-0.8-0.4-1.5
		c-0.1-0.6-0.2-1.4-0.2-2.4c0-0.9,0-2.1,0-3.5c0-1.4,0-2.5,0-3.4c0-0.9,0.1-1.7,0.2-2.4c0.1-0.6,0.2-1.1,0.4-1.5
		c0.2-0.4,0.4-0.6,0.8-0.8c0.3-0.2,0.7-0.3,1.2-0.3c0.5,0,1.1-0.1,1.7-0.1c0.7,0,1.3,0,1.7,0.1c0.5,0,0.9,0.1,1.2,0.3
		c0.3,0.2,0.6,0.4,0.8,0.8c0.2,0.4,0.3,0.8,0.4,1.5s0.2,1.4,0.2,2.4c0,0.9,0,2.1,0,3.4c0,1.4,0,2.5,0,3.5c0,0.9-0.1,1.7-0.2,2.4
		s-0.2,1.1-0.4,1.5c-0.2,0.4-0.5,0.6-0.8,0.8c-0.3,0.2-0.7,0.3-1.2,0.3C141.2,28.2,140.7,28.2,140,28.2z M140,24.5
		c0.2,0,0.4,0,0.6-0.1s0.2-0.2,0.3-0.5s0.1-0.8,0.1-1.5s0-1.6,0-2.8c0-1.2,0-2.2,0-2.9c0-0.7-0.1-1.2-0.1-1.5
		c-0.1-0.3-0.2-0.5-0.3-0.6s-0.3-0.1-0.6-0.1s-0.5,0-0.6,0.1s-0.2,0.2-0.3,0.6c-0.1,0.3-0.1,0.8-0.1,1.5c0,0.7,0,1.6,0,2.9
		c0,1.2,0,2.1,0,2.8s0.1,1.1,0.1,1.5c0.1,0.3,0.2,0.5,0.3,0.5S139.7,24.5,140,24.5z"/>
</g>
</svg>
