<?xml version="1.0" encoding="utf-8"?>
<!-- Generator: Adobe Illustrator 15.0.0, SVG Export Plug-In . SVG Version: 6.00 Build 0)  -->
<!DOCTYPE svg PUBLIC "-//W3C//DTD SVG 1.1//EN" "http://www.w3.org/Graphics/SVG/1.1/DTD/svg11.dtd">
<svg version="1.1" id="Layer_2" xmlns="http://www.w3.org/2000/svg" xmlns:xlink="http://www.w3.org/1999/xlink" x="0px" y="0px"
	 width="20px" height="25px" viewBox="0 0 20 25" enable-background="new 0 0 20 25" xml:space="preserve">
<g>
	<path fill-rule="evenodd" clip-rule="evenodd" fill="#FFFFFF" d="M12.9,9.3c-0.2,0.3-0.5,0.8-0.9,1.4c-0.1,0-0.1,0.1-0.1,0.2
		c-0.9,1.6-1.4,3.3-1.6,5l-6.4,0c-0.3-2-1-4-2.3-5.9C1.3,9.7,1.1,9.4,0.9,9.1c-0.1-0.3-0.3-0.7-0.4-1C0.5,7.9,0.4,7.7,0.4,7.5
		C0.3,7.2,0.3,6.8,0.3,6.4c0-1.7,0.7-3.1,2-4.3c1.3-1.2,2.9-1.8,4.7-1.8c1.9,0,3.5,0.6,4.8,1.8c1.3,1.2,1.9,2.6,1.9,4.3
		c0,0.5,0,1-0.1,1.4C13.4,8.3,13.2,8.8,12.9,9.3z M4.3,17.3c0-0.1,0-0.1,0-0.2c0-0.3,0-0.6,0-0.9c1.7,0,3.5,0,5.2,0
		c0.1,0,0.2,0,0.2,0c0,0.3,0,0.6,0,0.9c0,0.1,0,0.1,0,0.2c-0.1,0-0.1,0-0.2,0C7.7,17.3,6,17.3,4.3,17.3z M4.5,18.7
		c0-0.3,0-0.6,0-0.9c1.6,0,3.2,0,4.8,0c0,0,0.1,0,0.2,0c0,0.3,0,0.6,0,0.9c0,0.1,0,0.2,0,0.2c-0.1,0-0.1,0-0.2,0c-1.6,0-3.2,0-4.8,0
		C4.5,18.9,4.5,18.8,4.5,18.7z M4.8,19.6c0-0.1,0-0.1,0-0.3c1.4,0,2.8,0,4.2,0c0.1,0,0.1,0,0.3,0c0,0.1,0,0.2,0,0.3v0
		c0,0.1,0,0.3,0,0.4c0,0,0,0.1,0,0.1c0,0.1,0,0.2,0,0.2v0.2H8.9c-0.1,0-0.2,0-0.3,0h0c-0.2,0-0.4,0-0.6,0c0,0.1,0,0.3,0,0.4
		c0,0.1,0,0.2,0,0.2c-0.1,0-0.2,0-0.3,0H7.4c-0.4,0-0.8,0-1.2,0c0,0-0.1,0-0.1,0s-0.1,0-0.2,0v-0.7c-0.1,0-0.1,0-0.2,0H5.1
		c-0.1,0-0.2,0-0.4,0v-0.2c0-0.1,0-0.1,0-0.2c0,0,0-0.1,0-0.1C4.8,19.9,4.8,19.8,4.8,19.6L4.8,19.6z"/>
</g>
</svg>
