<?xml version="1.0" encoding="utf-8"?>
<!-- Generator: Adobe Illustrator 20.0.0, SVG Export Plug-In . SVG Version: 6.00 Build 0)  -->
<svg version="1.1" id="Layer_1" xmlns="http://www.w3.org/2000/svg" xmlns:xlink="http://www.w3.org/1999/xlink" x="0px" y="0px"
	 viewBox="0 0 35 35" style="enable-background:new 0 0 35 35;" xml:space="preserve">
<style type="text/css">
	.st0{fill:#E4B474;}
	.st1{fill:#F5D78F;}
	.st2{fill:#FFFCD2;}
	.st3{fill:#3A3A3A;}
	.st4{fill:#D3546C;}
	.st5{fill:#F0BD41;}
	.st6{fill:#DF8D2E;}
	.st7{fill:#F4CF67;}
	.st8{fill:#EAE9E8;}
</style>
<g>
	<path class="st0" d="M12.4,28.4l-1.2-1.3l-7.6,4.4c0,0,0,0,0.1,0c0.3-0.1,5.5-1.2,7-1.5c0.8-0.2,1.7-0.4,2.5-0.6
		C13,29.2,12.5,28.5,12.4,28.4z"/>
	<path class="st1" d="M7.9,23.9l-4.3,7.4c0,0.1,0,0.1,0,0.1c0,0,0,0.1,0,0.1c0,0,0,0,0,0l7.6-4.4L7.9,23.9z"/>
	<path class="st2" d="M6.8,22.7c-0.1-0.1-0.8-0.7-1-0.9c-0.2,0.8-0.4,1.8-0.6,2.6c-0.3,1.3-1.3,6-1.5,6.9l4.3-7.4L6.8,22.7z"/>
	<path class="st3" d="M4.3,28.2c0.1,0.1,0.1,0.1,0.2,0.2c0,0,0,0,0.1,0.1c0.1,0.1,0.4,0.4,0.5,0.5C5,29,5.1,29,5.1,29
		c0.2,0.2,0.3,0.3,0.5,0.5c0.2,0.2,0.3,0.3,0.5,0.5c0,0,0.1,0.1,0.1,0.1c0.1,0.1,0.3,0.3,0.4,0.4c0,0,0.1,0.1,0.1,0.1
		c0.1,0.1,0.1,0.1,0.1,0.1c-0.5,0.1-1,0.2-1.5,0.3c-0.2,0-0.4,0.1-0.6,0.1c-0.3,0.1-0.5,0.1-0.8,0.2c-0.1,0-0.2,0.1-0.4,0.1
		c0,0,0,0-0.1,0c0,0,0,0,0,0c0,0,0,0,0,0c0,0,0,0,0,0c0,0,0,0,0,0c0,0,0,0,0,0c0,0,0,0,0,0c0-0.1,0.1-0.3,0.1-0.4
		c0.1-0.3,0.1-0.5,0.2-0.8c0-0.2,0.1-0.4,0.1-0.6C4.1,29.2,4.2,28.7,4.3,28.2z"/>
	<path class="st4" d="M29.5,13.2c0.9-0.9,1.7-1.7,2.6-2.6c0.1-0.1,0.2-0.2,0.3-0.3c0.1-0.2,0.2-0.5,0.2-0.8c0-0.2,0-0.4-0.1-0.6
		c0-0.1-0.1-0.1-0.1-0.2c-0.1-0.1-0.1-0.2-0.2-0.3c-0.5-0.5-5-5-5.4-5.4c-0.1-0.1-0.3-0.2-0.4-0.3c-0.1,0-0.1-0.1-0.2-0.1
		c-0.2-0.1-0.4-0.1-0.5-0.1c-0.3,0-0.5,0.1-0.8,0.2c-0.1,0.1-0.2,0.2-0.3,0.3c-0.9,0.9-1.7,1.7-2.6,2.6C22.1,5.7,29.4,13,29.5,13.2z
		"/>
	<path class="st5" d="M7.9,23.9l13.8-13.8l3.3,3.3L11.2,27.2c-0.6-0.6-2,0.2-2.8-0.5C7.7,26,8.5,24.6,7.9,23.9z"/>
	<path class="st6" d="M24.9,13.4L11.2,27.2c0.5,0.5-1.1,1.9,0.4,2.1c0.6,0.1,1.1,0.1,1.4,0.1c0.2,0,0.4,0,0.5-0.2l13.6-13.6
		L24.9,13.4z"/>
	<path class="st7" d="M21.7,10.2L7.9,23.9c-0.5-0.5-1.9,1.1-2.1-0.4c-0.1-0.6-0.1-1.1-0.1-1.4c0-0.2,0-0.4,0.2-0.5L19.5,8L21.7,10.2
		z"/>
	<rect x="22.8" y="5.2" transform="matrix(0.7071 -0.7071 0.7071 0.7071 -0.3012 20.4344)" class="st8" width="3.5" height="10.8"/>
</g>
</svg>
