<?xml version="1.0" encoding="utf-8"?>
<!-- Generator: Adobe Illustrator 15.0.0, SVG Export Plug-In . SVG Version: 6.00 Build 0)  -->
<!DOCTYPE svg PUBLIC "-//W3C//DTD SVG 1.1//EN" "http://www.w3.org/Graphics/SVG/1.1/DTD/svg11.dtd">
<svg version="1.1" id="Layer_1" xmlns="http://www.w3.org/2000/svg" xmlns:xlink="http://www.w3.org/1999/xlink" x="0px" y="0px"
	 width="35px" height="35px" viewBox="0 0 35 35" enable-background="new 0 0 35 35" xml:space="preserve">
<g>
	<g>
		<polygon fill="#D3992B" points="18,8.1 31.4,21.7 22.1,32.2 8.7,18.6 		"/>
		<polygon fill="#D3992B" points="18,8.1 31.4,21.7 26.8,26.9 13.3,13.4 		"/>
		<polygon fill="#2D2E35" points="33.3,30.8 30.8,33.7 34.1,34.3 		"/>
		<polygon fill="#F1B931" points="14.9,11.6 28.3,25.2 25.2,28.7 11.8,15.1 		"/>
		<polygon fill="#CEB385" points="22.1,32.2 31.4,21.7 33.3,30.8 30.8,33.7 		"/>
		<polygon fill="#CEB385" points="28.6,22 31.4,21.7 28.3,25.2 		"/>
		<polygon fill="#CEB385" points="25.5,25.5 28.3,25.2 25.2,28.7 		"/>
		<polygon fill="#CEB385" points="22.4,29 25.2,28.7 22.1,32.2 		"/>
	</g>
	<g>
		<path fill="#E17780" d="M4.5,14.5L2,11.9C0.5,10.5,0.4,8,1.8,6.5l4.4-5c1.3-1.5,3.6-1.6,5.1-0.1L13.9,4L4.5,14.5z"/>
		<polygon fill="#BCBCB9" points="18.3,8.1 14.1,3.8 4.4,14.7 8.7,19 		"/>
		<g>
			<g>
				<polygon fill="#838483" points="17.8,7.5 8.1,18.5 7.8,18.2 17.5,7.2 				"/>
				<polygon fill="#838483" points="17,6.7 7.3,17.7 7,17.4 16.7,6.4 				"/>
				<polygon fill="#838483" points="16.2,5.9 6.5,16.9 6.2,16.5 15.9,5.6 				"/>
				<polygon fill="#838483" points="15.4,5.1 5.7,16 5.4,15.7 15.1,4.8 				"/>
				<polygon fill="#838483" points="14.2,4 14.5,4.3 4.9,15.2 4.6,14.9 				"/>
			</g>
			<g>
				<polygon fill="#EEE1DD" points="18.2,7.9 8.5,18.9 8.2,18.6 17.9,7.6 				"/>
				<polygon fill="#EEE1DD" points="17.4,7.1 7.7,18.1 7.4,17.8 17.1,6.8 				"/>
				<polygon fill="#EEE1DD" points="16.6,6.3 6.9,17.2 6.6,16.9 16.3,6 				"/>
				<polygon fill="#EEE1DD" points="15.8,5.5 6.1,16.4 5.8,16.1 15.4,5.2 				"/>
				<polygon fill="#EEE1DD" points="14.6,4.4 14.9,4.7 5.3,15.6 5,15.3 				"/>
			</g>
		</g>
	</g>
</g>
</svg>
