<?xml version="1.0" encoding="utf-8"?>
<!-- Generator: Adobe Illustrator 20.0.0, SVG Export Plug-In . SVG Version: 6.00 Build 0)  -->
<svg version="1.1" id="Ñëîé_1" xmlns="http://www.w3.org/2000/svg" xmlns:xlink="http://www.w3.org/1999/xlink" x="0px" y="0px"
	 viewBox="0 0 35 35" style="enable-background:new 0 0 35 35;" xml:space="preserve">
<style type="text/css">
	.st0{fill:#6AB04C;}
</style>
<path class="st0" d="M2.3,17.7c-0.1-1-0.3-1.7-0.5-2.2c0.4,0.4,1.5,0.9,3.2,1.7c1.8,0.8,4.1,1.7,6.7,2.7c2.4,0.9,4,2.1,5,3.5
	c0.9,1.4,1.1,3.1,0.7,5c-0.1,0.8-0.4,1.7-0.9,2.5c-0.3,0.7-0.8,1.3-1.3,1.9v-0.1c-0.4-1.2-1.1-2.5-2-3.9c-1.3-2-2.9-4.1-4.9-6.3
	c-0.6-0.7-1.2-1.3-1.8-1.9l-0.7-0.7l0.6,0.8c0.5,0.7,0.9,1.4,1.4,2.2c1.5,2.4,2.6,4.7,3.4,6.8c0.5,1.4,0.8,2.6,1,3.7
	c0,0.3,0.1,0.6,0.1,0.9c-1,0-1.9-0.2-2.8-0.3c-1.2-0.3-2.1-0.6-2.9-1.1C5.1,32.1,4,30.8,3.3,29c-0.7-1.7-1-3.7-0.9-6.1
	C2.5,20.8,2.4,19.1,2.3,17.7z"/>
<path class="st0" d="M26.1,3.7c1.1-0.5,2.4-1.1,4-1.8c1.1-0.5,1.8-0.9,2-1.2c-0.2,0.8-0.3,2-0.3,3.6c0,2.3,0.4,5.1,0.9,8.4
	c0.6,3.7,0.6,7.1-0.2,9.9c-0.8,3.1-2.3,5.4-4.5,6.9c-1.1,0.9-2.6,1.7-4.4,2.3c-1.3,0.4-2.8,0.8-4.4,1c0-0.5,0-1,0-1.5
	c0-1.8,0.3-3.9,0.8-6.2c0.4-2,1.1-4,1.9-6.2c0.6-1.8,1.4-3.6,2.2-5.4c0.6-1.3,1.2-2.5,1.8-3.7l0.8-1.4c-0.3,0.3-0.6,0.7-1,1.2
	c-0.9,1.1-1.7,2.2-2.6,3.4c-0.5,0.7-1.3,2.1-2.2,4.2c-1.1,2.5-1.9,4-2.3,4.8c-1-1.4-2.6-2.7-4.8-3.7c-0.7-0.3-1.5-0.6-2.4-0.9
	c-0.9-0.3-1.5-0.5-1.6-0.6c0.2-1.2,0.7-2.3,1.3-3.4c0.9-1.4,2.1-2.6,3.6-3.5C17.8,7.8,21.6,5.8,26.1,3.7z"/>
</svg>
