<?xml version="1.0" encoding="utf-8"?>
<!-- Generator: Adobe Illustrator 20.0.0, SVG Export Plug-In . SVG Version: 6.00 Build 0)  -->
<svg version="1.1" id="Layer_1" xmlns="http://www.w3.org/2000/svg" xmlns:xlink="http://www.w3.org/1999/xlink" x="0px" y="0px"
	 viewBox="0 0 25.8 35" style="enable-background:new 0 0 25.8 35;" xml:space="preserve">
<style type="text/css">
	.st0{fill:#FADA08;}
	.st1{fill:#FFFFFF;}
	.st2{fill:#777777;}
</style>
<g id="Ñëîé_1">
</g>
<g>
	<g>
		<path class="st0" d="M16.3,26.5h-6.1c-1.1,0-2.1-0.8-2.4-1.8l-0.8-2.9c-0.1-0.5-0.6-1.3-0.9-1.7c-0.1-0.2-3-3.7-3-7
			C3,10.4,4,7.8,6,5.9c1.9-1.9,4.5-3,7.3-3c2.7,0,5.3,1.1,7.3,3c1.9,1.9,3,4.5,3,7.3c0,3.3-2.9,6.8-3,7c-0.3,0.4-0.7,1.2-0.9,1.7
			l-0.8,2.9C18.4,25.7,17.4,26.5,16.3,26.5z"/>
	</g>
	<g>
		<path class="st1" d="M5.9,13c-0.5,0-0.8-0.4-0.8-0.8c0-4,3.3-7.3,7.3-7.3c0.5,0,0.8,0.4,0.8,0.8c0,0.5-0.4,0.8-0.8,0.8
			c-3.1,0-5.6,2.5-5.6,5.6C6.7,12.6,6.3,13,5.9,13z"/>
	</g>
	<g>
		<g>
			<g>
				<path class="st2" d="M17.2,27.7c0,0.3-1.8,0.6-4.1,0.6s-4.1-0.3-4.1-0.6s1.8-0.6,4.1-0.6S17.2,27.4,17.2,27.7z"/>
			</g>
		</g>
	</g>
	<g>
		<g>
			<path class="st2" d="M17.2,29.4c0,0.3-1.8,0.6-4.1,0.6s-4.1-0.3-4.1-0.6s1.8-0.6,4.1-0.6S17.2,29.1,17.2,29.4z"/>
		</g>
	</g>
	<g>
		<g>
			<g>
				<path class="st2" d="M17.2,31.1c0,0.3-1.8,0.6-4.1,0.6s-4.1-0.3-4.1-0.6s1.8-0.6,4.1-0.6S17.2,30.8,17.2,31.1z"/>
			</g>
		</g>
	</g>
	<g>
		<g>
			<g>
				<path class="st2" d="M17,32.2c0,1-1.7,1.8-3.9,1.8c-2.2,0-3.9-0.8-3.9-1.8"/>
			</g>
		</g>
	</g>
</g>
</svg>
