<?xml version="1.0" encoding="utf-8"?>
<!-- Generator: Adobe Illustrator 20.0.0, SVG Export Plug-In . SVG Version: 6.00 Build 0)  -->
<svg version="1.1" id="Layer_1" xmlns="http://www.w3.org/2000/svg" xmlns:xlink="http://www.w3.org/1999/xlink" x="0px" y="0px"
	 viewBox="0 0 55 55" style="enable-background:new 0 0 55 55;" xml:space="preserve">
<style type="text/css">
	.st0{fill:#F39C12;}
	.st1{stroke:#000000;stroke-miterlimit:10;}
</style>
<path class="st0" d="M52.1,46.5c-1.4,2.3-3.5,3.5-6.3,3.6H9.2c-0.3,0-0.7,0-1,0c-2.5-0.2-4.4-1.5-5.6-4.1s-1.2-5,0.1-7.2L21,8.7
	c1.3-2.3,3.3-3.6,6.1-4c3.1-0.1,5.5,1.2,7,3.9l17.5,28.7C53.6,40.3,53.8,43.4,52.1,46.5z M29.4,39.8C28.8,39.3,28,39,27.2,39
	s-1.5,0.3-2,0.9c-0.6,0.6-0.9,1.3-0.9,2.1c0,0.9,0.3,1.7,0.9,2.2c0.6,0.6,1.3,0.8,2.1,0.8c0.8,0,1.5-0.3,2-0.8
	c0.6-0.5,0.9-1.3,0.9-2.2C30.2,41.2,29.9,40.5,29.4,39.8z M29.6,15.8c-0.3-0.8-1-1.2-2.2-1.2c-0.9,0-1.7,0.3-2.2,0.9
	c-0.6,0.6-0.9,1.5-0.9,2.6c0,0.8,0.1,2.1,0.3,4l0.6,9.6c0.1,1.3,0.3,2.3,0.6,2.8c0.2,0.6,0.7,0.9,1.5,0.9c0.6,0,1.1-0.3,1.3-0.9
	c0.3-0.6,0.5-1.5,0.6-2.8l0.9-9.8c0.1-0.9,0.1-1.8,0.1-2.7C30.2,17.8,30,16.6,29.6,15.8z"/>
<path class="st1" d="M29.6,15.8c0.4,0.8,0.6,2,0.6,3.4c0,0.9,0,1.8-0.1,2.7l-0.9,9.8c-0.1,1.3-0.3,2.3-0.6,2.8
	c-0.3,0.6-0.7,0.9-1.3,0.9c-0.7,0-1.2-0.3-1.5-0.9c-0.3-0.6-0.5-1.5-0.6-2.8l-0.6-9.6c-0.2-1.9-0.3-3.3-0.3-4c0-1.1,0.3-2,0.9-2.6
	c0.5-0.6,1.3-0.9,2.2-0.9C28.5,14.6,29.2,15,29.6,15.8z M29.4,39.8c0.5,0.6,0.8,1.3,0.8,2.1c0,0.9-0.3,1.7-0.9,2.2
	c-0.5,0.6-1.2,0.8-2,0.8s-1.5-0.3-2.1-0.8s-0.9-1.3-0.9-2.2c0-0.8,0.3-1.5,0.9-2.1c0.5-0.6,1.2-0.9,2-0.9C28,39,28.8,39.3,29.4,39.8
	z"/>
</svg>
