<?xml version="1.0" encoding="utf-8"?>
<!-- Generator: Adobe Illustrator 20.0.0, SVG Export Plug-In . SVG Version: 6.00 Build 0)  -->
<svg version="1.1" id="Layer_1" xmlns="http://www.w3.org/2000/svg" xmlns:xlink="http://www.w3.org/1999/xlink" x="0px" y="0px"
	 viewBox="0 0 199.8 201" style="enable-background:new 0 0 199.8 201;" xml:space="preserve">
<style type="text/css">
	.st0{fill:#C0392B;}
	.st1{fill:none;stroke:#FCFCFC;stroke-width:13.9;stroke-linecap:square;stroke-miterlimit:3;}
	.st2{fill:#FFFFFF;}
</style>
<g transform="matrix( 1, 0, 0, 1, 200,-147.95) ">
	<g>
		<g id="Layer0_0_FILL">
			<path class="st0" d="M-9.6,248.4c0-25-8.8-46.3-26.5-64c-17.7-17.6-39-26.4-64-26.4s-46.3,8.8-64,26.4
				c-17.7,17.7-26.5,39-26.5,64s8.8,46.3,26.5,63.9c17.7,17.7,39,26.5,64,26.5s46.3-8.9,64-26.5C-18.5,294.8-9.6,273.5-9.6,248.4z"
				/>
		</g>
	</g>
	<g>
		<path id="Layer0_0_1_STROKES" class="st1" d="M-9.6,248.4c0,25-8.8,46.3-26.5,63.9c-17.7,17.7-39,26.5-64,26.5s-46.3-8.9-64-26.5
			s-26.5-39-26.5-63.9c0-25,8.8-46.3,26.5-64c17.7-17.6,39-26.4,64-26.4s46.3,8.8,64,26.4C-18.5,202.2-9.6,223.6-9.6,248.4z"/>
	</g>
</g>
<polygon class="st2" points="143.9,74.9 125.5,56.5 99.9,82.1 74.3,56.5 55.9,74.9 81.5,100.5 55.9,126.1 74.3,144.5 99.9,118.9 
	125.5,144.5 143.9,126.1 118.3,100.5 "/>
</svg>
