<?xml version="1.0" encoding="utf-8"?>
<!-- Generator: Adobe Illustrator 20.0.0, SVG Export Plug-In . SVG Version: 6.00 Build 0)  -->
<svg version="1.1" id="Layer_1" xmlns="http://www.w3.org/2000/svg" xmlns:xlink="http://www.w3.org/1999/xlink" x="0px" y="0px"
	 viewBox="0 0 199.8 201" style="enable-background:new 0 0 199.8 201;" xml:space="preserve">
<style type="text/css">
	.st0{fill:#2980B9;}
	.st1{fill:none;stroke:#FCFCFC;stroke-width:13.9;stroke-linecap:square;stroke-miterlimit:3;}
	.st2{fill:#FFFFFF;}
</style>
<g transform="matrix( 1, 0, 0, 1, 200,-147.95) ">
	<g>
		<g id="Layer0_0_FILL">
			<path class="st0" d="M-9.6,248.4c0-25-8.8-46.3-26.5-64c-17.7-17.6-39-26.4-64-26.4s-46.3,8.8-64,26.4
				c-17.7,17.7-26.5,39-26.5,64s8.8,46.3,26.5,63.9c17.7,17.7,39,26.5,64,26.5s46.3-8.9,64-26.5C-18.5,294.8-9.6,273.5-9.6,248.4z"
				/>
		</g>
	</g>
	<g>
		<path id="Layer0_0_1_STROKES" class="st1" d="M-9.6,248.4c0,25-8.8,46.3-26.5,63.9c-17.7,17.7-39,26.5-64,26.5s-46.3-8.9-64-26.5
			s-26.5-39-26.5-63.9c0-25,8.8-46.3,26.5-64c17.7-17.6,39-26.4,64-26.4s46.3,8.8,64,26.4C-18.5,202.2-9.6,223.6-9.6,248.4z"/>
	</g>
</g>
<g>
	<polygon class="st2" points="121,100.5 142.1,121.6 163.2,100.5 	"/>
	<polygon class="st2" points="78.8,100.5 57.7,79.4 36.6,100.5 	"/>
	<path class="st2" d="M150.6,100.5h-16.9c0-18.6-15.1-33.8-33.8-33.8c-9,0-17.5,3.5-23.9,9.9L64.1,64.7c9.6-9.6,22.3-14.8,35.8-14.8
		C127.8,49.8,150.6,72.6,150.6,100.5z"/>
	<path class="st2" d="M99.9,151.2c-27.9,0-50.7-22.7-50.7-50.7h16.9c0,18.6,15.1,33.8,33.8,33.8c9,0,17.5-3.5,23.9-9.9l11.9,11.9
		C126.2,145.9,113.4,151.2,99.9,151.2z"/>
</g>
</svg>
