<?xml version="1.0" encoding="utf-8"?>
<!-- Generator: Adobe Illustrator 20.0.0, SVG Export Plug-In . SVG Version: 6.00 Build 0)  -->
<svg version="1.1" id="Layer_1" xmlns="http://www.w3.org/2000/svg" xmlns:xlink="http://www.w3.org/1999/xlink" x="0px" y="0px"
	 viewBox="0 0 199.8 201" style="enable-background:new 0 0 199.8 201;" xml:space="preserve">
<style type="text/css">
	.st0{fill:#333333;}
	.st1{fill:none;stroke:#FCFCFC;stroke-width:13.9;stroke-linecap:square;stroke-miterlimit:3;}
	.st2{fill:#FCFCFC;}
</style>
<g transform="matrix( 1, 0, 0, 1, 200,-147.95) ">
	<g>
		<g id="Layer0_0_FILL">
			<path class="st0" d="M-9.6,248.4c0-25-8.8-46.3-26.5-64c-17.7-17.6-39-26.4-64-26.4c-25,0-46.3,8.8-64,26.4
				c-17.7,17.7-26.5,39-26.5,64c0,25,8.8,46.3,26.5,63.9c17.7,17.7,39,26.5,64,26.5c25,0,46.3-8.9,64-26.5
				C-18.5,294.7-9.6,273.4-9.6,248.4z"/>
		</g>
	</g>
	<g>
		<path id="Layer0_0_1_STROKES" class="st1" d="M-9.6,248.4c0,25-8.8,46.3-26.5,63.9c-17.7,17.7-39,26.5-64,26.5
			c-25,0-46.3-8.9-64-26.5c-17.7-17.6-26.5-39-26.5-63.9c0-25,8.8-46.3,26.5-64c17.7-17.6,39-26.4,64-26.4c25,0,46.3,8.8,64,26.4
			C-18.5,202.1-9.6,223.5-9.6,248.4z"/>
	</g>
</g>
<g transform="matrix( 0.9996337890625, 0, 0, 0.9996337890625, 633.35,-154.2) ">
	<g>
		<g id="Layer0_0_MEMBER_0_FILL">
			<path class="st2" d="M-572.3,294.1v16.2h77v-16.2H-572.3 M-525.7,199.3h-16.2v55.6l-18.9-18.9l-11.5,11.4l38.5,38.5l38.5-38.5
				l-11.4-11.4l-19,18.9V199.3z"/>
		</g>
	</g>
</g>
</svg>
