<?xml version="1.0" encoding="utf-8"?>
<!-- Generator: Adobe Illustrator 20.0.0, SVG Export Plug-In . SVG Version: 6.00 Build 0)  -->
<svg version="1.1" id="Layer_1" xmlns="http://www.w3.org/2000/svg" xmlns:xlink="http://www.w3.org/1999/xlink" x="0px" y="0px"
	 viewBox="0 0 30 30" style="enable-background:new 0 0 30 30;" xml:space="preserve">
<style type="text/css">
	.st0{fill:none;stroke:#FFD775;stroke-width:1.8;stroke-miterlimit:10;}
	.st1{fill:#FFD775;}
	.st2{fill:#FAC746;}
</style>
<g>
	<circle class="st0" cx="22.7" cy="9.5" r="4.9"/>
	<circle class="st0" cx="7.3" cy="9.5" r="4.9"/>
	<path class="st1" d="M24.9,3.2c0,1.2-1,2.2-2.2,2.2H7.3c-1.2,0-2.2-1-2.2-2.2S6.1,1,7.3,1h15.4C23.9,1,24.9,2,24.9,3.2z"/>
	<path class="st2" d="M15,27.6c1.2,0,1.6-1,1.6-2.2V9c0-1.2-0.4-2.2-1.6-2.2s-1.6,1-1.6,2.2v16.5C13.4,26.6,13.8,27.6,15,27.6z"/>
	<path class="st2" d="M15,24.6c-3.6,0-6,1.2-6,3c0,0.5,0.4,0.8,0.8,0.8h10.4c0.5,0,0.8-0.4,0.8-0.8C21,25.8,18.6,24.6,15,24.6z"/>
	<path class="st1" d="M20.8,26.8c-0.6-1.3-2.8-2.2-5.8-2.2s-5.2,0.9-5.8,2.2H20.8z"/>
	<path class="st2" d="M15,6.2c-4.5,0-7.7,3.7-7.7,8.2s3.1,8.2,7.7,8.2s7.7-3.7,7.7-8.2S19.5,6.2,15,6.2z"/>
	<rect x="7.3" y="5.4" class="st2" width="15.4" height="9"/>
</g>
</svg>
