<?xml version="1.0" encoding="utf-8"?>
<!-- Generator: Adobe Illustrator 20.0.0, SVG Export Plug-In . SVG Version: 6.00 Build 0)  -->
<svg version="1.1" id="Layer_1" xmlns="http://www.w3.org/2000/svg" xmlns:xlink="http://www.w3.org/1999/xlink" x="0px" y="0px"
	 viewBox="0 0 30 30" style="enable-background:new 0 0 30 30;" xml:space="preserve">
<style type="text/css">
	.st0{opacity:0.35;}
	.st1{fill:#CBC9BC;}
	.st2{fill:#E8E2D7;}
	.st3{opacity:0.5;}
	.st4{fill:#FFFFFF;}
	.st5{fill:#EB5946;}
	.st6{fill:none;stroke:#EB5946;stroke-miterlimit:10;}
	.st7{fill:#A8A69D;}
	.st8{fill:#4D464F;}
</style>
<g>
	<circle class="st0" cx="15" cy="15.6" r="14.1"/>
	<circle class="st1" cx="15" cy="15.1" r="14.1"/>
	<circle class="st2" cx="15" cy="15.1" r="10.7"/>
	<g class="st3">
		<circle class="st4" cx="10.1" cy="9.9" r="2.1"/>
	</g>
	<circle class="st5" cx="12.3" cy="12.4" r="1"/>
	<line class="st6" x1="12.3" y1="12.4" x2="21.2" y2="21.3"/>
	<path class="st7" d="M15,5.5c5.7,0,10.3,4.4,10.7,9.9c0-0.3,0-0.5,0-0.8c0-5.9-4.8-10.7-10.7-10.7S4.3,8.7,4.3,14.6
		c0,0.3,0,0.5,0,0.8C4.7,9.8,9.3,5.5,15,5.5z"/>
	<circle class="st8" cx="15" cy="15.1" r="1.7"/>
	<rect x="14.2" y="6.9" class="st8" width="1.7" height="8.5"/>
	<rect x="14.7" y="14.2" class="st8" width="9.9" height="1.7"/>
</g>
</svg>
