<?xml version="1.0" encoding="utf-8"?>
<!-- Generator: Adobe Illustrator 20.0.0, SVG Export Plug-In . SVG Version: 6.00 Build 0)  -->
<svg version="1.1" id="Layer_1" xmlns="http://www.w3.org/2000/svg" xmlns:xlink="http://www.w3.org/1999/xlink" x="0px" y="0px"
	 viewBox="0 0 30 30" style="enable-background:new 0 0 30 30;" xml:space="preserve">
<style type="text/css">
	.st0{fill:#EAA62F;}
</style>
<g>
	<path class="st0" d="M29.2,11.3c-0.2-0.6-0.8-1.1-1.5-1.2L20,9l-3.4-6.8c-0.3-0.6-0.9-1-1.6-1c-0.7,0-1.3,0.4-1.6,1L10,9l-7.7,1.1
		c-0.7,0.1-1.2,0.6-1.5,1.2c-0.2,0.6,0,1.3,0.5,1.8l5.5,5.3l-1.3,7.5c-0.1,0.7,0.2,1.3,0.7,1.7C6.6,27.9,6.9,28,7.3,28
		c0.3,0,0.6-0.1,0.8-0.2l6.9-3.6l6.9,3.6c0.3,0.1,0.6,0.2,0.8,0.2c0.4,0,0.7-0.1,1.1-0.3c0.6-0.4,0.8-1.1,0.7-1.7l-1.3-7.5l5.5-5.3
		C29.2,12.6,29.4,11.9,29.2,11.3z"/>
</g>
</svg>
