<?xml version="1.0" encoding="utf-8"?>
<!-- Generator: Adobe Illustrator 20.0.0, SVG Export Plug-In . SVG Version: 6.00 Build 0)  -->
<svg version="1.1" id="Layer_1" xmlns="http://www.w3.org/2000/svg" xmlns:xlink="http://www.w3.org/1999/xlink" x="0px" y="0px"
	 viewBox="0 0 309 309" style="enable-background:new 0 0 309 309;" xml:space="preserve">
<style type="text/css">
	.st0{fill:#57AB33;}
	.st1{fill:#0080BF;}
	.st2{fill:#EAA62F;}
	.st3{fill:#B51A1A;}
</style>
<path class="st0" d="M129.4,299.5h102.3c10,0,18.9-5.6,18.9-16.6l-7.8-60c-1.1-8.9,12.3-15.5,17.8-8.9c5.6,6.7,11.2,10,17.8,10
	c15.5,0,27.8-18.9,27.8-40H130.6L129.4,299.5z"/>
<path class="st1" d="M63.9,186.2c0,21.1-13,37.8-28.1,37.8c-9.8,0-17.3-10-17.3-10c-8.7-7.7-17.4,10-17.4,10l8.7,57.8
	c0,11.1,8.7,17.7,18.3,17.7h106V186.2H63.9z"/>
<path class="st2" d="M277.9,144.1c-6.5,0-14,4.5-17.3,10c-5.4,6.7-19.4,6.7-17.3-8.9l8.7-58.9c0-11.1-7.6-17.7-17.3-17.7L171,79.8
	c-3.3,0-20.5-7.8-8.7-20c4.3-4.5,8.7-12.3,8.7-18.9c0-15.5-15.1-30-34.6-30c-1.1,0-2.2,0-3.3,0v175.5h173
	C304.9,163,292,144.1,277.9,144.1z"/>
<path class="st3" d="M98.5,41.7c0,7.8,4.3,14.4,9.8,18.9c0,0,10.9,15.5-9.8,20L27.1,69.3c-9.8,1.2-17.3,9-17.3,20.2l-8.7,57.8
	c8.7,18.9,17.3,10,17.3,10s10.9-10,17.3-10c15.1,0,28.1,17.7,28.1,38.9H133V10.5C115.8,11.7,98.5,26.1,98.5,41.7z"/>
</svg>
