<?xml version="1.0" encoding="utf-8"?>
<!-- Generator: Adobe Illustrator 20.0.0, SVG Export Plug-In . SVG Version: 6.00 Build 0)  -->
<svg version="1.1" id="Layer_1" xmlns="http://www.w3.org/2000/svg" xmlns:xlink="http://www.w3.org/1999/xlink" x="0px" y="0px"
	 viewBox="0 0 30 30" style="enable-background:new 0 0 30 30;" xml:space="preserve">
<style type="text/css">
	.st0{fill:#57AB33;}
	.st1{fill:#FEFAE9;}
</style>
<g>
	<path class="st0" d="M25.6,1.5H4.4C3,1.5,1.8,2.7,1.8,4.2v21.2C1.8,26.8,3,28,4.4,28h21.2c1.5,0,2.6-1.2,2.6-2.6V4.2
		C28.2,2.7,27,1.5,25.6,1.5z"/>
	<g>
		<path class="st1" d="M14.9,21c0.2,0.1,0.5,0.1,0.6-0.1L23,10.4c0.1-0.1,0.1-0.2,0.1-0.3S23,9.9,22.9,9.8L20.4,8
			c-0.1-0.1-0.2-0.1-0.2-0.1c-0.2,0-0.3,0.1-0.3,0.2l-5.3,7.4c-0.1,0.2-0.4,0.2-0.6,0.1l-4.5-3.1c-0.1,0-0.2-0.1-0.2-0.1
			c-0.1,0-0.3,0.1-0.4,0.2l-1.7,2.6c-0.1,0.1-0.1,0.2-0.1,0.3s0.1,0.2,0.2,0.3L14.9,21z"/>
	</g>
</g>
</svg>
