<?xml version="1.0" encoding="utf-8"?>
<!-- Generator: Adobe Illustrator 20.0.0, SVG Export Plug-In . SVG Version: 6.00 Build 0)  -->
<svg version="1.1" id="Layer_1" xmlns="http://www.w3.org/2000/svg" xmlns:xlink="http://www.w3.org/1999/xlink" x="0px" y="0px"
	 viewBox="0 0 400 400" style="enable-background:new 0 0 400 400;" xml:space="preserve">
<style type="text/css">
	.st0{fill:#E2E5DF;}
	.st1{fill:#B51A1A;}
	.st2{fill:#CBC9BC;}
	.st3{opacity:0.35;enable-background:new    ;}
</style>
<path class="st0" d="M18.1,86.4v259.7c0,22.7,18.4,41.2,41.2,41.2h283.8c22.7,0,41.2-18.4,41.2-41.2V86.4H18.1z"/>
<path class="st1" d="M384.3,126.2V69.4c0-22.7-18.4-39.7-41.2-39.7H59.3c-22.7,0-41.2,17-41.2,39.7v56.8H384.3z"/>
<rect x="79.1" y="10.1" class="st2" width="36.9" height="76.6"/>
<rect x="286.3" y="9.1" class="st2" width="36.9" height="76.6"/>
<rect x="46.5" y="170.1" class="st3" width="61" height="61"/>
<rect x="212.5" y="170.1" class="st3" width="61" height="61"/>
<rect x="294.8" y="170.1" class="st3" width="61" height="61"/>
<rect x="128.8" y="170.1" class="st3" width="61" height="61"/>
<rect x="46.5" y="261" class="st3" width="61" height="61"/>
<rect x="212.5" y="261" class="st3" width="61" height="61"/>
<rect x="293.4" y="262.4" class="st3" width="61" height="61"/>
<rect x="128.8" y="261" class="st3" width="61" height="61"/>
</svg>
