<?xml version="1.0" encoding="utf-8"?>
<!-- Generator: Adobe Illustrator 20.0.0, SVG Export Plug-In . SVG Version: 6.00 Build 0)  -->
<svg version="1.1" id="Layer_1" xmlns="http://www.w3.org/2000/svg" xmlns:xlink="http://www.w3.org/1999/xlink" x="0px" y="0px"
	 viewBox="0 0 30 30" style="enable-background:new 0 0 30 30;" xml:space="preserve">
<style type="text/css">
	.st0{fill:#965CA8;}
	.st1{fill:#5D5D5D;}
	.st2{fill:#3B3B3B;}
	.st3{fill:#5E5E5E;}
	.st4{fill:none;stroke:#5E5E5E;stroke-width:1.7;stroke-miterlimit:10;}
	.st5{fill:#818080;}
	.st6{fill:#754882;}
</style>
<g>
	<path class="st0" d="M21.5,18.3c0,1.4-1.2,2.6-2.6,2.6h-7.8c-1.4,0-2.6-1.2-2.6-2.6V4.5c0-1.4,1.2-2.6,2.6-2.6h7.8
		c1.4,0,2.6,1.2,2.6,2.6V18.3z"/>
	<path class="st0" d="M8.5,11.7v6.6c0,1.4,1.2,2.6,2.6,2.6h7.8c1.4,0,2.6-1.2,2.6-2.6v-6.6H8.5z"/>
	<rect x="13.4" y="22.5" class="st1" width="3.1" height="5.5"/>
	<rect x="13.4" y="23.8" class="st2" width="3.1" height="1"/>
	<rect x="9" y="26.2" class="st3" width="12" height="1.8"/>
	<path class="st4" d="M23.6,11.5v8.9c0,1.4-1.2,2.6-2.6,2.6h-7.8"/>
	<path class="st4" d="M6.4,11.5v8.9C6.4,21.9,7.5,23,9,23h7.8"/>
	<rect x="7.7" y="10.2" class="st5" width="14.7" height="2.6"/>
	<rect x="8.5" y="12.8" class="st6" width="13.1" height="1"/>
</g>
</svg>
