<?xml version="1.0" encoding="utf-8"?>
<!-- Generator: Adobe Illustrator 20.0.0, SVG Export Plug-In . SVG Version: 6.00 Build 0)  -->
<svg version="1.1" id="Ñëîé_1" xmlns="http://www.w3.org/2000/svg" xmlns:xlink="http://www.w3.org/1999/xlink" x="0px" y="0px"
	 viewBox="0 0 100 100" style="enable-background:new 0 0 100 100;" xml:space="preserve">
<style type="text/css">
	.st0{fill:#CD1515;}
	.st1{fill:#F7F7F7;}
</style>
<circle class="st0" cx="50.2" cy="49.9" r="49.3"/>
<path class="st1" d="M81.4,49.4c0,10.5-2.9,19-8.8,25.4c-5.8,6.4-13,9.5-21.4,9.5c-9.1,0-16.5-3.4-22.2-10.1
	C23.3,67.4,20.5,59,20.5,49c0-10.2,3-18.5,9-25s13.3-9.7,21.7-9.7c7.8,0,14.9,3,21,9.1C78.3,29.5,81.4,38.1,81.4,49.4z"/>
<path class="st0" d="M50.9,17.6c-3.1,0-5.6,0.8-7.4,2.5c-1.9,1.6-3,4.2-3.4,7.9c-0.4,3.6-0.7,10.7-0.7,21.2
	c0,10.4,0.2,17.3,0.6,20.7c0.4,3.4,1.4,6,3.1,8c1.7,2,4.2,3,7.9,3c3,0,5.4-0.8,7.3-2.4c1.9-1.6,3-4.2,3.5-7.9
	c0.4-3.6,0.7-10.8,0.7-21.4c0-10.4-0.2-17.3-0.5-20.6c-0.4-3.4-1.4-6-3-8C57.2,18.5,54.5,17.6,50.9,17.6z"/>
</svg>
