<?xml version="1.0" encoding="utf-8"?>
<!-- Generator: Adobe Illustrator 20.0.0, SVG Export Plug-In . SVG Version: 6.00 Build 0)  -->
<svg version="1.1" id="Layer_1" xmlns="http://www.w3.org/2000/svg" xmlns:xlink="http://www.w3.org/1999/xlink" x="0px" y="0px"
	 viewBox="0 0 100 100" style="enable-background:new 0 0 100 100;" xml:space="preserve">
<style type="text/css">
	.st0{fill:#0080BF;}
	.st1{fill:#FFFFFF;}
</style>
<g transform="matrix( 1.87542724609375, 0, 0, 1.87542724609375, -629.2,-466.7) ">
	<g>
		<g id="Layer5_0_MEMBER_0_FILL">
			<path class="st0" d="M388.1,273.3c-0.6-7.2-3.6-13-9.1-17.7c-5.5-4.6-11.8-6.6-19-6s-13.1,3.6-17.8,9.1c-4.6,5.5-6.6,11.8-6,19
				c0.6,7.2,3.6,13.1,9.1,17.8s11.9,6.6,19.1,6c7.2-0.6,13-3.6,17.7-9.1C386.8,286.7,388.7,280.4,388.1,273.3z"/>
		</g>
	</g>
</g>
<g>
	<path class="st1" d="M32.6,21c2.1-2.1,4.7-3.8,7.2-5.1c3-1.3,5.9-1.7,9.7-1.7c4.7,0,8.5,0.8,11.4,2.1c3,1.3,5.5,3,7.2,4.7
		s3.4,3.8,4.2,5.9s1.3,4.2,1.3,5.9c0,3-0.4,5.5-1.3,7.6c-0.8,2.1-2.1,3.8-3,5.1c-0.8,1.3-2.5,2.5-3.8,3.8l-4.2,3
		c-1.3,0.8-2.1,2.1-3.4,3.4c-0.8,1.3-1.7,3-1.7,4.7v3.8h-13V60c0-2.5,0.8-5.1,1.7-6.8c0.8-1.7,1.7-3.4,3-4.7s2.1-2.5,3.8-3.4
		c1.3-1.3,2.5-2.1,3.4-3c1.3-0.8,2.1-2.1,2.5-3.4c0.8-1.3,0.8-2.5,0.8-4.2c0-3-0.8-5.1-2.1-6.8c-1.3-1.3-3.4-2.1-5.9-2.1
		c-1.7,0-3.4,0.4-4.7,0.8s-2.1,1.7-3,2.5c-0.8,1.3-1.3,2.5-1.7,3.8c-0.4,1.3-0.4,3-0.4,5.1H26.3c0-3.4,0.8-6.8,1.7-9.7
		C29.2,25.6,30.5,23.1,32.6,21z M49.2,69.7c2.1,0,4.2,0.8,5.9,2.5s2.5,3.4,2.5,5.9c0,2.1-0.8,4.2-2.5,5.5c-1.7,1.7-3.4,2.5-5.9,2.5
		c-2.1,0-4.2-0.8-5.5-2.5c-1.7-1.7-2.5-3.4-2.5-5.5s0.8-4.2,2.5-5.9C45.3,70.1,47,69.7,49.2,69.7z"/>
</g>
</svg>
