<?xml version="1.0" encoding="utf-8"?>
<!-- Generator: Adobe Illustrator 20.0.0, SVG Export Plug-In . SVG Version: 6.00 Build 0)  -->
<svg version="1.1" id="Layer_1" xmlns="http://www.w3.org/2000/svg" xmlns:xlink="http://www.w3.org/1999/xlink" x="0px" y="0px"
	 viewBox="0 0 30 30" style="enable-background:new 0 0 30 30;" xml:space="preserve">
<style type="text/css">
	.st0{fill:#FF4A39;}
	.st1{fill:#FFFFFF;}
	.st2{fill:#DCDCDC;}
	.st3{fill:#CC2221;}
	.st4{fill:#FF6523;}
	.st5{fill:#FEA311;}
	.st6{fill:#FFC400;}
	.st7{fill:#FFAA00;}
	.st8{fill:#00447D;}
	.st9{fill:#002C52;}
</style>
<g>
	<g>
		<g>
			<polygon class="st0" points="6.2,22.6 4.3,20.4 9,15.1 12.2,19.9 			"/>
			<polygon class="st1" points="4.3,20.4 5.9,18.6 7.1,22.2 6.5,26 			"/>
		</g>
		<g>
			<polygon class="st0" points="23.8,22.6 25.7,20.4 21,15.1 17.8,19.9 			"/>
			<polygon class="st1" points="25.7,20.4 24.1,18.6 22.9,22.2 23.5,26 			"/>
		</g>
	</g>
	<path class="st1" d="M8.9,18.2c0,0.1,0.1,0.2,0.1,0.3c0,0.2,0.1,0.4,0.2,0.6c0,0.1,0.1,0.3,0.1,0.4c0.1,0.2,0.1,0.4,0.2,0.6
		c0,0.1,0.1,0.2,0.1,0.3c0.1,0.2,0.2,0.4,0.2,0.6c0.1,0.2,0.2,0.4,0.2,0.5c0.1,0.2,0.2,0.5,0.4,0.7H15V4.7h-3.6
		c-0.2,0.2-0.3,0.5-0.5,0.7c-0.3,0.4-0.5,0.8-0.7,1.2C10,7,9.8,7.3,9.6,7.7C9.5,7.9,9.4,8.1,9.4,8.3c-0.6,1.5-1,3.1-1,4.9
		c0,1.2,0.1,2.3,0.2,3.4C8.6,17.1,8.8,17.7,8.9,18.2z"/>
	<path class="st0" d="M15,4.7V0.6c0,0-0.3,0.2-0.7,0.7c-0.4,0.4-1,1-1.7,1.8c-0.2,0.2-0.3,0.4-0.5,0.6C12.1,3.7,12,3.8,12,3.9
		c-0.1,0.1-0.2,0.3-0.3,0.4c-0.1,0.1-0.2,0.3-0.3,0.4H15z"/>
	<path class="st2" d="M19.6,22.2c0.2-0.4,0.4-0.8,0.6-1.2c0.1-0.2,0.2-0.4,0.2-0.6c0-0.1,0.1-0.2,0.1-0.3c0.1-0.2,0.1-0.4,0.2-0.6
		c0.1-0.3,0.2-0.6,0.3-1c0-0.1,0.1-0.2,0.1-0.3c0.1-0.6,0.2-1.1,0.3-1.7c0.2-1.1,0.2-2.2,0.2-3.4c0-1.7-0.4-3.4-1-4.9
		c-0.1-0.2-0.2-0.4-0.2-0.6C20.2,7.3,20,7,19.9,6.6c-0.2-0.4-0.5-0.8-0.7-1.2c-0.2-0.2-0.3-0.5-0.5-0.7H15v17.5H19.6z"/>
	<path class="st0" d="M9.8,20.9C9.8,20.9,9.8,20.9,9.8,20.9c0.1,0.3,0.2,0.5,0.3,0.6c0.1,0.2,0.2,0.5,0.4,0.7H15v-1.3H9.8z"/>
	<path class="st3" d="M15,20.9v1.3h4.6c0.2-0.4,0.4-0.8,0.6-1.2c0,0,0-0.1,0-0.1H15z"/>
	<path class="st3" d="M15,4.7h3.6c-0.2-0.3-0.4-0.6-0.6-0.8c-0.1-0.1-0.1-0.1-0.2-0.2c-0.2-0.2-0.3-0.4-0.5-0.6
		c-0.7-0.8-1.3-1.4-1.7-1.8C15.3,0.9,15,0.6,15,0.6V4.7z"/>
	<g>
		<path class="st4" d="M11.6,22.6c0.6,3.9,3.4,6.9,3.4,6.9v-6.9H11.6z"/>
		<path class="st5" d="M15,22.6v6.9c0,0,2.8-3,3.4-6.9H15z"/>
	</g>
	<g>
		<path class="st6" d="M12.4,23c0.8,2.7,2.6,4.7,2.6,4.7V23H12.4z"/>
		<path class="st7" d="M15,23v4.7c0,0,1.8-1.9,2.6-4.7H15z"/>
	</g>
	<path class="st1" d="M13.1,15.1c0,0.2-0.2,0.4-0.4,0.4l0,0c-0.2,0-0.4-0.2-0.4-0.4v-0.5c0-0.2,0.2-0.4,0.4-0.4l0,0
		c0.2,0,0.4,0.2,0.4,0.4V15.1z"/>
	<path class="st1" d="M14.3,8.1c0,0.1-0.1,0.2-0.3,0.2l0,0c-0.2,0-0.3-0.1-0.3-0.2V7.8c0-0.1,0.1-0.2,0.3-0.2l0,0
		c0.2,0,0.3,0.1,0.3,0.2V8.1z"/>
	<g>
		<rect x="10.4" y="22.2" class="st1" width="4.6" height="1.3"/>
		<rect x="15" y="22.2" class="st2" width="4.6" height="1.3"/>
	</g>
	<g>
		<g>
			<path class="st1" d="M15,12.2v7.7c2.1,0,3.9-1.7,3.9-3.9C18.9,14,17.1,12.2,15,12.2z"/>
			<path class="st2" d="M11.1,16.1c0,2.1,1.7,3.9,3.9,3.9v-7.7C12.9,12.2,11.1,14,11.1,16.1z"/>
		</g>
		<g>
			<g>
				<path class="st8" d="M15,12.9c-1.8,0-3.2,1.4-3.2,3.2H15V12.9z"/>
				<path class="st9" d="M11.8,16.1L11.8,16.1c0,1.8,1.4,3.2,3.2,3.2v-3.2H11.8z"/>
			</g>
			<g>
				<path class="st9" d="M15,12.9v3.2h3.2C18.2,14.3,16.8,12.9,15,12.9z"/>
				<path class="st8" d="M15,16.1v3.2c1.8,0,3.2-1.4,3.2-3.2l0,0H15z"/>
			</g>
		</g>
		<path class="st1" d="M13.5,15.4c0,0.2-0.2,0.4-0.4,0.4l0,0c-0.2,0-0.4-0.2-0.4-0.4v-0.6c0-0.2,0.2-0.4,0.4-0.4l0,0
			c0.2,0,0.4,0.2,0.4,0.4V15.4z"/>
	</g>
	<g>
		<g>
			<path class="st1" d="M15,6.3V11c1.3,0,2.3-1,2.3-2.3C17.3,7.4,16.3,6.3,15,6.3z"/>
			<path class="st2" d="M12.7,8.7c0,1.3,1,2.3,2.3,2.3V6.3C13.7,6.3,12.7,7.4,12.7,8.7z"/>
		</g>
		<g>
			<g>
				<path class="st8" d="M15,6.8c-1,0-1.8,0.8-1.8,1.8H15V6.8z"/>
				<path class="st9" d="M13.2,8.7L13.2,8.7c0,1,0.8,1.8,1.8,1.8V8.7H13.2z"/>
			</g>
			<g>
				<path class="st9" d="M15,6.8v1.8h1.8C16.8,7.6,16,6.8,15,6.8z"/>
				<path class="st8" d="M15,8.7v1.8c1,0,1.8-0.8,1.8-1.8l0,0H15z"/>
			</g>
		</g>
		<path class="st1" d="M14.1,8.2c0,0.1-0.1,0.2-0.2,0.2l0,0c-0.1,0-0.2-0.1-0.2-0.2V7.9c0-0.1,0.1-0.2,0.2-0.2l0,0
			c0.1,0,0.2,0.1,0.2,0.2V8.2z"/>
	</g>
</g>
</svg>
