<?xml version="1.0" encoding="utf-8"?>
<!-- Generator: Adobe Illustrator 20.0.0, SVG Export Plug-In . SVG Version: 6.00 Build 0)  -->
<svg version="1.1" id="Layer_1" xmlns="http://www.w3.org/2000/svg" xmlns:xlink="http://www.w3.org/1999/xlink" x="0px" y="0px"
	 viewBox="0 0 30 30" style="enable-background:new 0 0 30 30;" xml:space="preserve">
<style type="text/css">
	.st0{fill:#FFFFFF;}
	.st1{fill:#CC2221;}
	.st2{fill:#FF4A39;}
	.st3{fill:#FEFEFF;}
	.st4{fill:#FFCA00;}
	.st5{fill:#002C52;}
</style>
<g>
	<g>
		<path class="st0" d="M29.3,3.2l-2.5,1.6l0.9,0.5l-2.3,4.3l-3.1-0.6c-0.1,0-0.3,0-0.4,0.1l-1.8,1.5c-0.1,0.1-0.1,0.1-0.1,0.2
			l-0.7,2.1l-2.1-2.6c-0.1-0.1-0.2-0.2-0.4-0.2c0,0,0,0,0,0c-0.2,0-0.3,0.1-0.3,0.3l-1.8,4.4l-1.1-1c-0.1-0.1-0.2-0.1-0.3-0.1
			c0,0-0.1,0-0.1,0c-0.1,0-0.3,0.2-0.3,0.3l-0.9,3l-2.9-1.9c-0.2-0.1-0.4-0.1-0.5,0l-2.5,2c-0.1,0-0.1,0.1-0.1,0.2l-1.7,4.2
			l-0.8-0.9c-0.1-0.1-0.3-0.2-0.4-0.1c-0.1,0-0.3,0.1-0.3,0.3L1,23.9c-0.1,0.2,0,0.5,0.2,0.6c0.1,0,0.2,0,0.2,0
			c0.2,0,0.3-0.1,0.4-0.3l1.2-2.7l0.8,0.9c0.1,0.1,0.2,0.2,0.4,0.1c0,0,0,0,0,0c0.2,0,0.3-0.1,0.3-0.3l1.9-4.7l2.2-1.7l3.1,2.1
			C11.9,18,12,18,12.1,18c0,0,0.1,0,0.1,0c0.1,0,0.2-0.2,0.3-0.3l0.9-2.9l1.1,0.9c0.1,0.1,0.2,0.1,0.3,0.1c0,0,0,0,0.1,0
			c0.1,0,0.2-0.1,0.3-0.3l1.7-4.2l2.1,2.6c0.1,0.1,0.2,0.2,0.4,0.2l0,0c0.2,0,0.3-0.1,0.3-0.3l1-2.7l1.5-1.3l3.2,0.7
			c0,0,0.1,0,0.1,0c0.1,0,0.3-0.1,0.3-0.2l2.5-4.6l0.9,0.5L29.3,3.2z"/>
		<g>
			<g>
				<path class="st1" d="M24.9,12.7c-1.3-5.1-6.2-8.4-11.3-7.8L13.9,7c4.1-0.4,7.9,2.2,9,6.2c1.2,4.5-1.5,9.1-6,10.2
					c-0.4,0.1-0.8,0.2-1.2,0.2l0.2,2.1c0.5-0.1,1-0.1,1.5-0.3C23,24.1,26.4,18.4,24.9,12.7z"/>
				<path class="st2" d="M6.6,17.4c-1.2-4.5,1.5-9.1,6-10.2C13,7.1,13.4,7.1,13.9,7l-0.2-2.1c-0.5,0.1-1,0.1-1.5,0.3
					c-5.6,1.5-9,7.2-7.6,12.8c1.3,5.1,6.2,8.4,11.3,7.8l-0.2-2.1C11.5,24.1,7.7,21.5,6.6,17.4z"/>
				<path class="st3" d="M22.8,13.3c-1.1-4.1-4.9-6.7-9-6.2l0.2,2.1c3-0.3,5.9,1.6,6.7,4.6c0.9,3.3-1.1,6.7-4.5,7.6
					c-0.3,0.1-0.6,0.1-0.9,0.2l0.2,2.1c0.4,0,0.8-0.1,1.2-0.2c0.6-0.2,1.2-0.4,1.7-0.7C22,21.1,23.8,17.1,22.8,13.3z"/>
				<path class="st3" d="M6.6,17.4c1.1,4.1,4.9,6.7,9,6.2l-0.2-2.1c-3,0.3-5.9-1.6-6.7-4.6c-0.9-3.3,1.1-6.7,4.5-7.6
					c0.3-0.1,0.6-0.1,0.9-0.2L13.9,7c-0.4,0-0.8,0.1-1.2,0.2C8.2,8.4,5.5,13,6.6,17.4z"/>
				<path class="st2" d="M11.3,16.2c-0.5-1.9,0.7-3.9,2.6-4.3c0.2,0,0.3-0.1,0.5-0.1l-0.3-2.6c-0.3,0-0.6,0.1-0.9,0.2
					c-3.3,0.9-5.3,4.3-4.5,7.6c0.8,3,3.7,5,6.7,4.6l-0.3-2.6C13.4,19.1,11.7,18,11.3,16.2z"/>
				<path class="st1" d="M20.8,13.8c-0.8-3-3.7-5-6.7-4.6l0.3,2.6c1.7-0.2,3.4,0.9,3.8,2.7c0.5,1.9-0.7,3.9-2.6,4.3
					c-0.2,0-0.3,0.1-0.5,0.1l0.3,2.6c0.3,0,0.6-0.1,0.9-0.2C19.6,20.5,21.6,17.1,20.8,13.8z"/>
				<path class="st3" d="M16.5,14.9c0.3,1-0.3,2-1.3,2.2c-0.1,0-0.2,0-0.3,0l0.2,1.7c0.2,0,0.3,0,0.5-0.1c1.9-0.5,3.1-2.4,2.6-4.3
					c-0.4-1.7-2.1-2.8-3.8-2.7l0.2,1.7C15.4,13.4,16.3,14,16.5,14.9z"/>
				<path class="st3" d="M11.3,16.2c0.4,1.7,2.1,2.8,3.8,2.7l-0.2-1.7c-0.9,0.1-1.7-0.5-2-1.4c-0.3-1,0.3-2,1.3-2.2
					c0.1,0,0.2,0,0.3,0l-0.2-1.7c-0.2,0-0.3,0-0.5,0.1C11.9,12.4,10.8,14.3,11.3,16.2z"/>
				<path class="st2" d="M14.3,13.6c-1,0.3-1.6,1.2-1.3,2.2c0.2,0.9,1.1,1.5,2,1.4l-0.4-3.6C14.5,13.5,14.4,13.6,14.3,13.6z"/>
				<path class="st1" d="M16.5,14.9c-0.2-0.9-1.1-1.5-2-1.4l0.4,3.6c0.1,0,0.2,0,0.3,0C16.2,16.9,16.7,15.9,16.5,14.9z"/>
			</g>
			<g>
				<polygon class="st4" points="6,10.4 7.2,11.3 8.3,11 7.2,10.1 				"/>
				<polygon class="st4" points="2.7,8.7 4.8,10.3 6.8,9.8 4.7,8.2 				"/>
				<polygon class="st4" points="5.3,5.3 7.4,7 7.4,9 5.3,7.4 				"/>
				<polygon class="st4" points="7.7,8.1 8.9,9 8.9,10.2 7.7,9.3 				"/>
				<path class="st5" d="M3.9,6.9C3.7,7.2,3.7,7.5,3.9,7.7l10.4,8c0,0,0.3,0.3,0.7-0.1c0.3-0.4-0.1-0.7-0.1-0.7L4.6,6.8
					C4.4,6.7,4,6.7,3.9,6.9z"/>
			</g>
		</g>
	</g>
</g>
</svg>
