<?xml version="1.0" encoding="utf-8"?>
<!-- Generator: Adobe Illustrator 20.0.0, SVG Export Plug-In . SVG Version: 6.00 Build 0)  -->
<svg version="1.1" id="flash0.ai" xmlns="http://www.w3.org/2000/svg" xmlns:xlink="http://www.w3.org/1999/xlink" x="0px" y="0px"
	 viewBox="0 0 100 125" style="enable-background:new 0 0 100 125;" xml:space="preserve">
<style type="text/css">
	.st0{fill:#F4F4F4;}
	.st1{fill:#CB0E00;}
</style>
<g>
	<path class="st0" d="M51.8,4.3l40.6,51.7c0.5,0.5,0.9,1.1,1.3,1.9c0.8,1.6,1,3,0.6,4.5c-0.4,1.5-1.3,2.6-2.9,3.3
		c-1.2,0.5-2.5,0.8-4,0.7c-1,0-3.4-0.1-7.4,0l-5.7,0V112c0.1,0.9,0,1.9-0.5,2.9c-0.9,2-2.9,3.2-5.9,3.6H29.9
		c-0.9-0.2-1.9-0.5-2.8-1.1c-1.9-1.2-2.8-2.8-2.8-5V66.6H10.4c-0.3,0-0.7,0-1.1-0.1C8.4,66.3,7.7,66,7,65.6
		c-2.1-1.3-2.9-3.4-2.3-6.5L5.2,58c0.5-1,1.1-1.9,1.8-2.7c0.7-0.9,7.5-9.5,20.5-26.1C34,21,40.3,12.8,46.7,4.7l1.7-1
		C49.6,3.3,50.8,3.5,51.8,4.3z"/>
	<path class="st1" d="M18.3,57.9c-0.2-0.3-0.2-0.6-0.2-0.9c0-0.5,0.1-1,0.3-1.4l0,0c19.4-25.7,29.4-38.9,30-39.5
		c0.3-0.3,0.6-0.4,1-0.4c0.4,0,0.8,0.1,1.1,0.4l0,0c4.5,5.9,9,11.8,13.7,18c9.3,12.3,14.5,19.1,15.4,20.6c0.7,1.1,1.1,1.9,1.1,2.6
		c0,0.5-0.2,0.9-0.5,1.1c-0.4,0.1-0.6,0.2-0.6,0.2H67.2c0,4.3,0.1,16.1,0.1,35.3c0,8.4,0,13-0.1,13.7c-0.1,1-0.5,1.7-1.3,2.2
		c-0.8,0.3-1.2,0.5-1.2,0.5h0c-8.5,0.1-15.8,0.1-21.8,0.1c-5.3,0-8.2,0-8.8-0.1c-0.9-0.1-1.5-0.5-1.9-1.3l-0.4-1.1V58.6H19.3l-0.1,0
		C18.8,58.5,18.5,58.3,18.3,57.9z"/>
</g>
</svg>
