<?xml version="1.0" encoding="utf-8"?>
<!-- Generator: Adobe Illustrator 20.0.0, SVG Export Plug-In . SVG Version: 6.00 Build 0)  -->
<svg version="1.1" id="Buttons" xmlns="http://www.w3.org/2000/svg" xmlns:xlink="http://www.w3.org/1999/xlink" x="0px" y="0px"
	 viewBox="0 0 150 150" style="enable-background:new 0 0 150 150;" xml:space="preserve">
<style type="text/css">
	.st0{fill:#3498DB;stroke:#E5E5E5;stroke-width:6;stroke-miterlimit:10;}
	.st1{fill:#E5E5E5;}
</style>
<g>
	<g>
		<path class="st0" d="M99,19.9c7.4,3.1,14,7.5,19.7,13.3c5.7,5.7,10.1,12.3,13.3,19.6c3.2,7.6,4.9,15.6,4.9,24.1
			s-1.7,16.4-4.9,24.2c-3.2,7.3-7.6,13.9-13.3,19.6c-5.7,5.8-12.3,10.2-19.7,13.3c-7.6,3.2-15.7,4.9-24.1,4.9s-16.4-1.7-24.1-4.9
			c-7.3-3.1-13.9-7.5-19.7-13.3c-5.6-5.7-10-12.3-13.1-19.7c-3.3-7.6-5-15.7-5-24.2s1.7-16.4,5-24.1c3.1-7.4,7.5-13.9,13.2-19.6
			C37.1,27.4,43.6,23,51,19.9c7.6-3.2,15.7-4.9,24.1-4.9S91.4,16.5,99,19.9z"/>
	</g>
	<polygon class="st1" points="73.4,72.6 73.4,62.9 89.2,72 89.2,56.2 101.2,56.2 101.2,94.4 89.2,94.4 89.2,78.9 73.4,87.9 73.4,78 
		47.7,92.9 47.7,57.9 	"/>
</g>
</svg>
