<?xml version="1.0" encoding="utf-8"?>
<!-- Generator: Adobe Illustrator 20.0.0, SVG Export Plug-In . SVG Version: 6.00 Build 0)  -->
<svg version="1.1" id="Buttons" xmlns="http://www.w3.org/2000/svg" xmlns:xlink="http://www.w3.org/1999/xlink" x="0px" y="0px"
	 viewBox="0 0 150 150" style="enable-background:new 0 0 150 150;" xml:space="preserve">
<style type="text/css">
	.st0{fill:#E8181F;stroke:#E5E5E5;stroke-width:6;stroke-miterlimit:10;}
</style>
<g>
	<g>
		<path class="st0" d="M14.2,76.9c0-8.3,1.6-16.2,4.9-23.8c3.1-7.3,7.5-13.9,13.1-19.5c5.7-5.7,12.1-10.1,19.5-13.2
			c7.6-3.2,15.5-4.8,23.8-4.8s16.1,1.6,23.8,4.8c7.3,3.1,13.9,7.5,19.5,13.2c5.6,5.6,10,12.1,13.2,19.5c3.2,7.6,4.8,15.4,4.8,23.8
			c0,8.3-1.6,16.2-4.8,23.8c-3.2,7.2-7.6,13.8-13.2,19.4c-5.6,5.7-12.1,10.1-19.5,13.2c-7.6,3.2-15.5,4.8-23.8,4.8
			c-8.3,0-16.2-1.6-23.8-4.8c-7.2-3.1-13.8-7.5-19.5-13.2c-5.6-5.6-10-12-13.1-19.4C15.8,93.1,14.2,85.1,14.2,76.9z"/>
	</g>
</g>
</svg>
