<?xml version="1.0" encoding="utf-8"?>
<!-- Generator: Adobe Illustrator 16.0.0, SVG Export Plug-In . SVG Version: 6.00 Build 0)  -->
<!DOCTYPE svg PUBLIC "-//W3C//DTD SVG 1.1//EN" "http://www.w3.org/Graphics/SVG/1.1/DTD/svg11.dtd">
<svg version="1.1" id="Layer_1" xmlns="http://www.w3.org/2000/svg" xmlns:xlink="http://www.w3.org/1999/xlink" x="0px" y="0px"
	 width="32px" height="32px" viewBox="0 0 32 32" enable-background="new 0 0 32 32" xml:space="preserve">
<g id="Layer_1_1_">
</g>
<g>
	<path fill="#FFFFFF" d="M20.266,13.284V3.517c0-0.279-0.245-0.506-0.549-0.506h-7.574c-0.304,0-0.55,0.227-0.55,0.506v9.767H8.237
		c-0.204,0-0.393,0.104-0.486,0.271c-0.095,0.167-0.081,0.369,0.037,0.523l3.769,4.978l3.923,5.18
		c0.102,0.134,0.271,0.217,0.449,0.217c0.18,0,0.348-0.083,0.451-0.217l3.922-5.18l3.771-4.978c0.117-0.155,0.129-0.356,0.037-0.523
		c-0.096-0.168-0.281-0.271-0.487-0.271H20.266z"/>
	<path fill="#FFFFFF" d="M28.663,20.773c0-0.279-0.246-0.506-0.548-0.506h-1.812c-0.304,0-0.549,0.227-0.549,0.506v2.761
		c0,1.465-1.29,2.654-2.878,2.654H8.983c-1.59,0-2.877-1.189-2.877-2.654v-2.761c0-0.279-0.246-0.506-0.55-0.506h-1.81
		c-0.305,0-0.55,0.227-0.55,0.506v7.59c0,0.28,0.246,0.507,0.55,0.507h0.521l0,0h21.818l0,0h2.031c0.302,0,0.548-0.227,0.548-0.507
		V20.773z"/>
</g>
</svg>
