<?xml version="1.0" encoding="utf-8"?>
<!-- Generator: Adobe Illustrator 15.0.0, SVG Export Plug-In . SVG Version: 6.00 Build 0)  -->
<!DOCTYPE svg PUBLIC "-//W3C//DTD SVG 1.1//EN" "http://www.w3.org/Graphics/SVG/1.1/DTD/svg11.dtd">
<svg version="1.1" id="Layer_1" xmlns="http://www.w3.org/2000/svg" xmlns:xlink="http://www.w3.org/1999/xlink" x="0px" y="0px"
	 width="32px" height="32px" viewBox="0 0 32 32" enable-background="new 0 0 32 32" xml:space="preserve">
<g id="Layer_1_1_">
</g>
<g>
	<path fill-rule="evenodd" clip-rule="evenodd" fill="#FFFFFF" d="M6.8,15.8v-2.3h8.6v2.3c0,1.167-0.417,2.184-1.25,3.05
		c-0.867,0.834-1.883,1.25-3.05,1.25c-1.2,0-2.217-0.416-3.05-1.25C7.217,17.983,6.8,16.967,6.8,15.8z M5.8,13.6v3.1
		c0,0.566,0.333,1.333,1,2.3c1,1.4,2.434,2.1,4.3,2.1c1.8,0,3.217-0.683,4.25-2.05c0.7-0.934,1.05-1.717,1.05-2.35v-3.1
		c0-0.3,0.116-0.567,0.35-0.8c0.2-0.2,0.45-0.3,0.75-0.3s0.566,0.1,0.8,0.3c0.2,0.233,0.3,0.5,0.3,0.8v3.1
		c0,1.267-0.517,2.55-1.55,3.85c-1.267,1.533-2.883,2.434-4.85,2.7v3.4h4.45c0.3,0,0.566,0.116,0.8,0.35c0.2,0.2,0.3,0.45,0.3,0.75
		s-0.1,0.566-0.3,0.8c-0.233,0.233-0.5,0.351-0.8,0.351H5.55c-0.3,0-0.566-0.117-0.8-0.351s-0.35-0.5-0.35-0.8S4.517,27.2,4.75,27
		c0.233-0.233,0.5-0.35,0.8-0.35H10v-3.4c-1.967-0.267-3.583-1.167-4.85-2.7c-1.066-1.3-1.6-2.583-1.6-3.85v-3.1
		c0-0.3,0.117-0.567,0.35-0.8c0.233-0.2,0.5-0.3,0.8-0.3c0.3,0,0.566,0.1,0.8,0.3C5.7,13.033,5.8,13.3,5.8,13.6z M11.1,4.05
		c1,0,1.883,0.3,2.65,0.9c0.8,0.6,1.317,1.383,1.55,2.35h-2.05c-0.233,0-0.35,0.1-0.35,0.3c0,0.267,0.117,0.4,0.35,0.4h2.15v0.6
		h-2.15c-0.233,0-0.35,0.117-0.35,0.35c0,0.2,0.117,0.3,0.35,0.3h2.15V9.9h-2.15c-0.233,0-0.35,0.117-0.35,0.35
		s0.117,0.35,0.35,0.35h2.15v1.45H6.8V10.6h2.15c0.1,0,0.183-0.033,0.25-0.1c0.066-0.067,0.1-0.133,0.1-0.2
		c0-0.133-0.033-0.216-0.1-0.25C9.133,9.95,9.05,9.9,8.95,9.9H6.8V9.3h2.15c0.1,0,0.183-0.033,0.25-0.1
		c0.066-0.067,0.1-0.15,0.1-0.25c0-0.233-0.117-0.35-0.35-0.35H6.8V8h2.15c0.1,0,0.183-0.033,0.25-0.1
		c0.066-0.066,0.1-0.15,0.1-0.25S9.267,7.467,9.2,7.4C9.133,7.333,9.05,7.3,8.95,7.3H6.9c0.233-0.933,0.733-1.716,1.5-2.35
		C9.2,4.35,10.1,4.05,11.1,4.05z M21.95,3.65c-0.233,0.567-0.3,1.083-0.2,1.55c0.1,0.5,0.333,0.85,0.7,1.05
		c0.366,0.233,0.8,0.267,1.3,0.1c0.467-0.167,0.884-0.467,1.25-0.9C25.566,5.883,26.083,6.4,26.55,7
		c-0.434,0.367-0.733,0.783-0.899,1.25C25.483,8.717,25.5,9.133,25.7,9.5c0.233,0.367,0.6,0.6,1.1,0.7
		c0.467,0.1,0.967,0.05,1.5-0.15c0.3,0.733,0.5,1.45,0.601,2.15c-0.567,0.1-1.034,0.316-1.4,0.65c-0.4,0.333-0.6,0.7-0.6,1.1
		c0,0.433,0.199,0.816,0.6,1.15c0.366,0.333,0.833,0.55,1.4,0.65C28.8,16.45,28.6,17.167,28.3,17.9
		c-0.533-0.233-1.033-0.301-1.5-0.2c-0.5,0.1-0.866,0.333-1.1,0.7c-0.2,0.366-0.217,0.8-0.05,1.3
		c0.166,0.467,0.466,0.883,0.899,1.25c-0.467,0.6-0.983,1.116-1.55,1.55c-0.366-0.434-0.783-0.733-1.25-0.9
		c-0.5-0.166-0.934-0.149-1.3,0.051c-0.367,0.233-0.601,0.6-0.7,1.1c-0.1,0.467-0.033,0.967,0.2,1.5
		c-0.733,0.267-1.45,0.467-2.15,0.6c-0.1-0.566-0.316-1.033-0.649-1.399c-0.334-0.4-0.717-0.601-1.15-0.601
		c-0.4,0-0.767,0.2-1.1,0.601c-0.334,0.366-0.551,0.833-0.65,1.399c-0.733-0.133-1.45-0.333-2.15-0.6
		c0.09-0.206,0.157-0.405,0.2-0.6c1.425-0.412,2.642-1.229,3.65-2.45c0.218-0.274,0.409-0.549,0.575-0.825
		c1.573-0.11,2.915-0.735,4.024-1.875c1.267-1.233,1.9-2.75,1.9-4.55c0-1.767-0.634-3.284-1.9-4.55C21.316,8.167,19.8,7.55,18,7.55
		c-0.505,0-0.988,0.05-1.45,0.15H16.5c-0.033-0.233-0.05-0.467-0.05-0.7c-0.233-0.967-0.75-1.75-1.55-2.35
		c-0.196-0.153-0.396-0.287-0.6-0.4c-0.048-0.194-0.115-0.394-0.2-0.6c0.7-0.267,1.417-0.45,2.15-0.55
		c0.1,0.566,0.316,1.033,0.65,1.4C17.233,4.867,17.6,5.05,18,5.05c0.434,0,0.816-0.183,1.15-0.55c0.333-0.367,0.55-0.833,0.649-1.4
		C20.5,3.2,21.217,3.383,21.95,3.65z"/>
</g>
</svg>
