<?xml version="1.0" encoding="utf-8"?>
<!-- Generator: Adobe Illustrator 20.0.0, SVG Export Plug-In . SVG Version: 6.00 Build 0)  -->
<svg version="1.1" id="Layer_2" xmlns="http://www.w3.org/2000/svg" xmlns:xlink="http://www.w3.org/1999/xlink" x="0px" y="0px"
	 viewBox="0 0 45 66" style="enable-background:new 0 0 45 66;" xml:space="preserve">
<style type="text/css">
	.st0{fill:#FFFFFF;}
</style>
<g>
	<path class="st0" d="M16.6,3.4c-2-2-4.1-1.9-6.4,0.4l-5.7,6c-2.3,2.3-2.4,4.5-0.5,6.4L20,32.8L3.7,49.6c-2,2-1.8,4.1,0.5,6.4l5.8,6
		c2.2,2.4,4.4,2.6,6.4,0.6l18.9-19.5c0.3-0.3,0.6-0.5,0.8-0.8l5.7-6c0-0.1,0-0.1,0.1-0.1c0.1-0.1,0.2-0.2,0.3-0.3l0.2-0.1
		c1.7-2.2,1.7-4.2-0.1-6L16.6,3.4z"/>
</g>
</svg>
