<?xml version="1.0" encoding="utf-8"?>
<!-- Generator: Adobe Illustrator 20.0.0, SVG Export Plug-In . SVG Version: 6.00 Build 0)  -->
<svg version="1.1" id="Layer_1" xmlns="http://www.w3.org/2000/svg" xmlns:xlink="http://www.w3.org/1999/xlink" x="0px" y="0px"
	 viewBox="0 0 400 400" style="enable-background:new 0 0 400 400;" xml:space="preserve">
<style type="text/css">
	.st0{fill:#F2F2F2;}
	.st1{fill:#FFB000;}
	.st2{fill:#304554;}
	.st3{fill:#DEE3E5;}
	.st4{fill:#CCD3D6;}
	.st5{fill:#AAB8BF;}
	.st6{fill:#EFEFEF;}
</style>
<g>
	<path class="st0" d="M52.5,63.6L39.1,33.2h-0.4v30.4H27.9V6.9h11.5l7.9,19.7h0.4V6.9h10.8v56.7C58.5,63.6,52.5,63.6,52.5,63.6z"/>
	<path class="st0" d="M90.6,59.9c-0.5,0.9-1.1,1.6-1.8,2.2c-0.7,0.6-1.5,1-2.5,1.4s-2.2,0.6-3.5,0.8c-1.3,0.1-2.9,0.2-4.7,0.2
		c-3.6,0-6.4-0.3-8.3-1s-3.3-1.9-4.3-3.6c-0.5-0.8-0.9-1.8-1.3-2.8s-0.6-2.4-0.9-4.2c-0.2-1.7-0.4-4-0.5-6.9
		c-0.1-2.8-0.1-6.5-0.1-10.9s0-8.1,0.1-10.9s0.3-5.1,0.5-6.8c0.2-1.7,0.5-3.1,0.9-4.1c0.3-1,0.8-1.9,1.3-2.8C66,9.7,66.6,9,67.2,8.4
		c0.6-0.6,1.5-1.1,2.5-1.5s2.2-0.6,3.6-0.8c1.4-0.1,3-0.2,4.8-0.2c3.6,0,6.3,0.4,8.2,1c1.9,0.7,3.3,1.9,4.3,3.6
		c0.5,0.9,0.9,1.8,1.3,2.8c0.3,1,0.6,2.4,0.9,4.1c0.2,1.7,0.4,4,0.5,6.8s0.1,6.4,0.1,10.9c0,4.4-0.1,8.1-0.1,10.9
		c-0.1,2.8-0.3,5.1-0.5,6.9c-0.2,1.7-0.5,3.1-0.9,4.2C91.5,58.1,91.1,59.1,90.6,59.9z M81,50.6c0.1-0.3,0.2-0.8,0.3-1.3
		c0.1-0.5,0.2-1.4,0.2-2.5s0.1-2.6,0.1-4.5s0-4.3,0-7.4s0-5.7,0-7.6s-0.1-3.4-0.1-4.5c-0.1-1.1-0.1-2-0.2-2.5s-0.2-1-0.3-1.3
		c-0.2-0.5-0.5-0.9-0.9-1.1s-1.1-0.3-2-0.3s-1.6,0.1-2.1,0.3c-0.4,0.2-0.7,0.6-0.9,1.1c-0.1,0.3-0.3,0.8-0.3,1.3
		c-0.1,0.6-0.1,1.4-0.2,2.5s-0.1,2.6-0.1,4.5s0,4.4,0,7.6c0,3,0,5.5,0,7.4s0.1,3.4,0.1,4.5c0.1,1.1,0.1,1.9,0.2,2.5s0.2,1,0.3,1.3
		c0.1,0.5,0.4,0.9,0.9,1c0.4,0.2,1.1,0.3,2.1,0.3c0.9,0,1.6-0.1,2-0.3C80.5,51.4,80.8,51.1,81,50.6z"/>
	<path class="st0" d="M125.9,63.6L122,28.8h-0.8L117,63.6h-16.6l-5-56.7h11.9l2.5,38.6h0.8l5.2-38.6h11.8l5.2,38.6h0.8l2.5-38.6
		h11.2l-4.9,56.7H125.9z"/>
	<path class="st0" d="M165.8,63.6V6.9h17c2.5,0,4.6,0.3,6.3,1c1.6,0.7,3,1.8,3.9,3.3c1,1.5,1.6,3.5,2,6s0.6,5.5,0.6,9.2
		s-0.2,6.8-0.6,9.4c-0.4,2.6-1,4.7-2,6.3s-2.3,2.7-3.9,3.4c-1.6,0.7-3.7,1-6.3,1h-5.2v17.1H165.8z M180.7,34.8
		c1.1,0,1.9-0.6,2.3-1.8c0.4-1.2,0.7-3.5,0.7-6.9c0-3-0.3-5-0.8-5.9s-1.4-1.4-2.5-1.4h-2.8v16.1h3.1V34.8z"/>
	<path class="st0" d="M199.5,63.6V6.9h11.8V51h12.1v12.6H199.5z"/>
	<path class="st0" d="M244.7,63.6l-1-13.1H238l-0.9,13.1h-11.8l6.1-56.7h19.8l5.7,56.7H244.7z M241.3,18.7h-0.8L238.6,39h4.6
		L241.3,18.7z"/>
	<path class="st0" d="M265.5,63.6V42.9L255.2,7.2V6.9h12.1c0.8,3.5,1.4,6.4,1.9,8.5s0.8,3.8,1.1,5.1c0.3,1.3,0.5,2.2,0.6,2.9
		c0.1,0.6,0.3,1.3,0.4,1.9h0.7c0.1-0.6,0.2-1.2,0.4-1.9c0.1-0.6,0.4-1.6,0.6-2.9c0.3-1.3,0.7-3,1.2-5.1s1.2-5,2-8.5H288v0.4
		l-9.9,35.5v20.8H265.5z"/>
	<path class="st0" d="M291.1,63.6V6.9h12.1v56.7C303.2,63.6,291.1,63.6,291.1,63.6z"/>
	<path class="st0" d="M332.9,63.6l-13.4-30.4H319v30.4h-10.7V6.9h11.5l7.9,19.7h0.4V6.9H339v56.7C339,63.6,332.9,63.6,332.9,63.6z"
		/>
	<path class="st0" d="M362.9,41.6h-5.5V30.2h16c0,1,0.1,2.4,0.1,4.3s0,4.2,0,6.8c0,3.1-0.1,5.7-0.1,7.7c-0.1,2-0.3,3.7-0.5,5.1
		c-0.2,1.3-0.5,2.4-0.8,3.3c-0.3,0.9-0.7,1.6-1.2,2.4c-0.5,0.9-1.1,1.6-1.8,2.2c-0.7,0.6-1.5,1-2.5,1.4s-2.2,0.6-3.5,0.8
		c-1.3,0.1-2.9,0.2-4.7,0.2c-3.6,0-6.4-0.3-8.3-1c-1.9-0.7-3.3-1.9-4.3-3.6c-0.5-0.8-0.9-1.8-1.3-2.8s-0.6-2.4-0.9-4.2
		c-0.2-1.8-0.4-4.1-0.5-7C343,43,343,39.2,343,34.6c0-4.4,0-8,0.1-10.7s0.3-5,0.5-6.7c0.2-1.7,0.5-3.1,0.9-4.1
		c0.3-1,0.8-1.9,1.3-2.8c1-1.7,2.4-2.9,4.3-3.5s4.6-1,8.2-1c4.1,0,7.3,0.5,9.4,1.6s3.6,2.9,4.4,5.4c0.6,2.1,1,4.9,1,8.3
		c0,0.7,0,1.2,0,1.6s0,0.8-0.1,1.3h-10.9c0-0.1,0.1-0.3,0.1-0.5s0-0.3,0-0.5c0-1.2-0.1-2.2-0.1-2.8c-0.1-0.6-0.2-1.1-0.3-1.5
		c-0.2-0.9-1.3-1.4-3.4-1.4c-1,0-1.7,0.1-2.2,0.3c-0.5,0.2-0.8,0.6-1,1.1c-0.1,0.4-0.2,0.9-0.3,1.4c-0.1,0.5-0.2,1.3-0.2,2.4
		c-0.1,1.1-0.1,2.6-0.1,4.5s0,4.4,0,7.4c0,3.2,0,5.8,0,7.8c0,1.9,0.1,3.4,0.1,4.5s0.1,1.8,0.2,2.3s0.2,0.9,0.3,1.2
		c0.4,1.1,1.6,1.6,3.6,1.6c1,0,1.7-0.1,2.2-0.3s0.9-0.6,1.2-1.1c0.1-0.2,0.3-0.5,0.4-0.8s0.2-0.6,0.3-1.1c0-0.4,0.1-1,0.1-1.7
		s0-1.6,0-2.7v-2.5H362.9z"/>
</g>
<g>
	<path class="st1" d="M191.8,296.5c-3.3,0-4.1-3.7-5.8-51.3c-0.5-14.4-1.2-32.9-2.3-42.7c-0.7,6.8-1.2,17.6-1.6,26.2
		c-1.5,32.6-2.3,40.7-6.2,40.7c-4.2,0-5.2-7.8-6.1-15.9c-0.4-3.7-1.1-9.8-2-11.1c-0.9,0.4-1.7,3.7-2.3,6.1c-0.9,4.2-2,9.1-5.6,9.1
		c-2.9,0-4.2-2-5-3.2c-0.8-1.2-1.2-1.9-2.9-1.9h-6.6c-1.1,0-2-1.2-2-2.5c0-1.3,0.9-2.5,2-2.5h6.6c3.6,0,4.9,2.3,5.8,3.6
		c0.7,1.1,0.9,1.6,2.1,1.6c0.7-0.4,1.5-3.7,1.7-5.4c1.1-4.4,2.3-9.8,6.2-9.8c4.1,0,4.9,7.2,5.8,15.4c0.4,3,0.9,8.5,1.7,10.7
		c1.3-5.4,2.1-23.1,2.6-35.1c1.3-29.8,2-36.7,5.6-36.7c3.4,0,4.2,4.2,6.1,53.4c0.5,13.2,1.2,29.9,2,39.6c0.8-7.8,1.3-20,1.7-29.7
		c1.9-37.5,2.6-43.1,6.2-43.1c3.7,0,4.4,7.7,5.6,29.7c0.5,9.1,1.3,22.4,2.5,26.9c0.8-2.9,1.3-9.7,1.7-14c0.9-11.5,1.6-20.5,6.1-20.5
		c4.4,0,5,6.9,5.7,13.5c0.4,3.6,0.9,10.2,2.3,10.2c1.3,0,1.9-3.4,2.4-7.8c0.7-4.9,1.5-10.9,5.6-10.9s5.3,5,6.1,8.7
		c0.5,2,1.1,4.8,1.9,4.8c1.2,0,1.7-1.1,2.8-3.4c0.9-2.3,2.3-5,5.2-5c2.4,0,3.6,1.2,4.5,2s1.6,1.3,3.4,1.3h7.9c1.1,0,2,1.2,2,2.5
		c0,1.3-0.9,2.5-2,2.5h-7.9c-3.2,0-4.6-1.3-5.7-2.4c-0.8-0.7-1.2-1.1-2.3-1.1c-0.5,0-0.9,0.8-1.7,2.5c-1.1,2.4-2.6,6-6.2,6
		c-3.7,0-4.9-4.9-5.7-8.3c-0.8-3.6-1.3-5.3-2.3-5.3c-0.8,0-1.3,4.4-1.6,6.6c-0.7,5-1.6,12.1-6.4,12.1c-4.8,0-5.6-7.8-6.2-14.6
		c-0.3-2.9-0.8-7.9-1.6-9c-1.2,1.9-1.9,10.5-2.3,15.8c-0.9,11.4-1.6,19.6-5.8,19.6c-4.1,0-4.9-8.5-6.4-32.7
		c-0.4-6.8-0.9-15.4-1.6-20.7c-0.9,7.7-1.6,22.5-2.3,34C195.9,291,195.1,296.5,191.8,296.5z"/>
</g>
<g>
	<polygon class="st2" points="298.4,229.3 298.4,193.8 289.1,193.8 289.1,229.3 	"/>
	<polygon class="st2" points="107.2,229.3 107.2,193.8 97.8,193.8 97.8,229.3 	"/>
	<path class="st2" d="M201.3,114.3H193c-12.8,0-24.5,3.3-34.6,9c-2.1,1.2-3.2,0.5-4.1-0.8l-6.9-10.9c13-8.2,28.6-13,45.6-13h8.3
		c19.2,0,36.6,5.4,50.6,15l-7.3,10.9c-0.9,1.5-2.3,1.5-3.7,0.5C229.9,118.3,216.4,114.3,201.3,114.3L201.3,114.3z"/>
	<path class="st3" d="M93.3,193.7v-22c0.1-48.7,43.7-86.2,98.7-86.2h9.7c57.2,0,101.6,36.7,101.6,85.4v23.2c0,1.2-0.3,2.1-2.1,2.1
		h-14.4c-2,0-2.1-0.8-2.1-2.3v-23.1c0-35.9-33-66.8-82.9-66.8H192c-47.2,0-79.9,31.4-80,67.6v22.3c0,1.3-0.3,2.3-1.7,2.3H96
		C93.7,196.2,93.3,195.3,93.3,193.7L93.3,193.7z"/>
	<path class="st4" d="M282.9,304.6l6.5,2.4c1.1,0.4,2.1-0.1,2.6-1.3c9.7-15.8,17.8-35.5,19.6-54c0.3-1.2-0.1-2.3-1.3-2.6l-6.5-2.4
		L282.9,304.6L282.9,304.6z"/>
	<path class="st3" d="M240.2,318.3h24c4.4,0.3,7.9-1.6,9.8-6.6l27.7-76.4c1.9-5,0.3-8.9-3.3-11.4L280,208.5
		c-0.7-0.7-2.3-1.1-2.8,0.4l-38.8,107.3C238,317.7,239.3,318.3,240.2,318.3L240.2,318.3z"/>
	<path class="st5" d="M227.4,311l9.5,6.1c0.5,0.4,1.1,0.5,1.3-0.4l39.1-108.2c0.3-0.8-0.1-1.1-0.8-1.2l-11.3-1.5
		c-2.1-0.3-4,1.2-5.2,4.2l-34,94.3C225,307.6,225.5,310,227.4,311L227.4,311z"/>
	<path class="st2" d="M275.4,307.6l6.5,2.4c1.1,0.4,2.3-0.1,2.6-1.3l23.3-64.4c0.4-1.1-0.1-2.3-1.3-2.6l-6.5-2.4L275.4,307.6
		L275.4,307.6z"/>
	<polygon class="st4" points="260.6,318.3 263.6,318.3 297.9,223.5 295.6,221.6 	"/>
	<path class="st4" d="M113.5,304.6l-6.5,2.4c-1.1,0.4-2.1-0.1-2.6-1.3c-9.7-15.8-17.8-35.5-19.6-54c-0.3-1.2,0.1-2.3,1.3-2.6
		l6.5-2.4L113.5,304.6L113.5,304.6z"/>
	<path class="st3" d="M156.1,318.3h-24c-4.4,0.3-7.9-1.6-9.8-6.6l-27.7-76.4c-1.9-5-0.3-8.9,3.3-11.4l18.4-15.4
		c0.7-0.7,2.3-1.1,2.8,0.4L158,316.2C158.4,317.7,157.1,318.3,156.1,318.3L156.1,318.3z"/>
	<path class="st5" d="M169,311l-9.5,6.1c-0.5,0.4-1.1,0.5-1.3-0.4L119,208.5c-0.3-0.8,0.1-1.1,0.8-1.2l11.3-1.5
		c2.1-0.3,4,1.2,5.2,4.2l34,94.3C171.4,307.6,170.8,310,169,311L169,311z"/>
	<path class="st2" d="M121,307.6l-6.5,2.4c-1.1,0.4-2.3-0.1-2.6-1.2l-23.3-64.4c-0.4-1.1,0.1-2.3,1.3-2.6l6.5-2.4L121,307.6
		L121,307.6z"/>
	<polygon class="st4" points="135.7,318.3 132.8,318.3 98.5,223.5 100.8,221.6 	"/>
</g>
<g>
	<path class="st6" d="M58.5,375.6c0.1,1.3,0.2,2.5,0.2,3.6c0,2.1-0.1,4-0.3,5.5c-0.2,1.6-0.7,2.9-1.5,3.9c-0.7,1-1.8,1.8-3.2,2.3
		c-1.4,0.5-3.2,0.7-5.4,0.7c-2.6,0-4.7-0.2-6.1-0.7c-1.4-0.5-2.4-1.3-3.1-2.6c-0.4-0.6-0.7-1.2-0.9-2c-0.2-0.8-0.5-1.8-0.6-3.1
		c-0.2-1.3-0.3-3-0.3-5c-0.1-2-0.1-4.6-0.1-7.7s0-5.6,0.1-7.6c0.1-1.9,0.2-3.5,0.3-4.8c0.2-1.2,0.4-2.2,0.6-2.9
		c0.2-0.7,0.5-1.4,0.9-2c0.7-1.2,1.7-2,3.1-2.5c1.3-0.5,3.3-0.7,5.8-0.7c2.3,0,4.1,0.2,5.5,0.6c1.4,0.4,2.4,1.1,3.2,2.1
		c0.7,1,1.2,2.2,1.5,3.7c0.2,1.5,0.4,3.3,0.4,5.4c0,0.5,0,1,0,1.6c0,0.6,0,1.2-0.1,1.9h-7.8c0-1.1,0-1.9,0-2.7c0-0.7,0-1.3-0.1-1.7
		c0-0.5-0.1-0.8-0.1-1.1c-0.1-0.3-0.1-0.5-0.1-0.7c-0.1-0.7-0.9-1-2.2-1c-0.7,0-1.2,0.1-1.5,0.2c-0.3,0.2-0.5,0.4-0.6,0.8
		c-0.1,0.3-0.2,0.6-0.2,1c-0.1,0.4-0.1,0.9-0.2,1.7c-0.1,0.8-0.1,1.8-0.1,3.2c0,1.3,0,3.1,0,5.2c0,2.2,0,4,0,5.4
		c0,1.3,0.1,2.4,0.1,3.2c0.1,0.8,0.1,1.4,0.2,1.8c0.1,0.4,0.1,0.7,0.2,1c0.1,0.4,0.3,0.6,0.6,0.7c0.3,0.1,0.9,0.2,1.7,0.2
		c1.1,0,1.7-0.3,1.9-0.9c0.1-0.4,0.2-0.7,0.3-1.1c0.1-0.4,0.1-0.8,0.2-1.3c0-0.5,0.1-1,0.1-1.6c0-0.6,0-1.3,0-2.1H58.5z"/>
	<path class="st6" d="M61.8,391v-40.1h8.3v31.2h8.6v8.9H61.8z"/>
	<path class="st6" d="M81.3,391v-40.1h8.5V391H81.3z"/>
	<path class="st6" d="M114.2,375.6c0.1,1.3,0.2,2.5,0.2,3.6c0,2.1-0.1,4-0.3,5.5c-0.2,1.6-0.7,2.9-1.5,3.9c-0.7,1-1.8,1.8-3.2,2.3
		c-1.4,0.5-3.2,0.7-5.4,0.7c-2.6,0-4.7-0.2-6.1-0.7c-1.4-0.5-2.4-1.3-3.1-2.6c-0.4-0.6-0.7-1.2-0.9-2c-0.2-0.8-0.5-1.8-0.6-3.1
		c-0.2-1.3-0.3-3-0.3-5c-0.1-2-0.1-4.6-0.1-7.7s0-5.6,0.1-7.6c0.1-1.9,0.2-3.5,0.3-4.8c0.2-1.2,0.4-2.2,0.6-2.9
		c0.2-0.7,0.5-1.4,0.9-2c0.7-1.2,1.7-2,3.1-2.5c1.3-0.5,3.3-0.7,5.8-0.7c2.3,0,4.1,0.2,5.5,0.6c1.4,0.4,2.4,1.1,3.2,2.1
		c0.7,1,1.2,2.2,1.5,3.7c0.2,1.5,0.4,3.3,0.4,5.4c0,0.5,0,1,0,1.6c0,0.6,0,1.2-0.1,1.9h-7.8c0-1.1,0-1.9,0-2.7c0-0.7,0-1.3-0.1-1.7
		c0-0.5-0.1-0.8-0.1-1.1c-0.1-0.3-0.1-0.5-0.1-0.7c-0.1-0.7-0.9-1-2.2-1c-0.7,0-1.2,0.1-1.5,0.2c-0.3,0.2-0.5,0.4-0.6,0.8
		c-0.1,0.3-0.2,0.6-0.2,1c-0.1,0.4-0.1,0.9-0.2,1.7c-0.1,0.8-0.1,1.8-0.1,3.2c0,1.3,0,3.1,0,5.2c0,2.2,0,4,0,5.4
		c0,1.3,0.1,2.4,0.1,3.2c0.1,0.8,0.1,1.4,0.2,1.8c0.1,0.4,0.1,0.7,0.2,1c0.1,0.4,0.3,0.6,0.6,0.7c0.3,0.1,0.9,0.2,1.7,0.2
		c1.1,0,1.7-0.3,1.9-0.9c0.1-0.4,0.2-0.7,0.3-1.1c0.1-0.4,0.1-0.8,0.2-1.3c0-0.5,0.1-1,0.1-1.6c0-0.6,0-1.3,0-2.1H114.2z"/>
	<path class="st6" d="M131.5,391l-5-18h-0.5c0.1,0.5,0.1,0.9,0.1,1.5c0,0.5,0,1,0,1.5V391h-8.5v-40.1h8.5v14.6c0,0.4,0,0.8,0,1.1
		c0,0.3,0,0.7-0.1,1h0.5l5.4-16.8h8.7v0.3l-6.1,17.9l6.6,21.7v0.3H131.5z"/>
	<path class="st6" d="M159,391v-31.6h-6.3v-8.5h20.9v8.5h-6.3V391H159z"/>
	<path class="st6" d="M194.7,388.4c-0.4,0.6-0.8,1.2-1.2,1.6c-0.5,0.4-1.1,0.7-1.8,1c-0.7,0.3-1.5,0.5-2.5,0.6
		c-1,0.1-2.1,0.2-3.3,0.2c-2.6,0-4.5-0.2-5.9-0.7c-1.3-0.5-2.3-1.3-3-2.6c-0.4-0.6-0.7-1.3-0.9-2c-0.2-0.7-0.5-1.7-0.6-2.9
		c-0.2-1.2-0.3-2.9-0.3-4.8c-0.1-2-0.1-4.6-0.1-7.7c0-3.1,0-5.7,0.1-7.7c0.1-2,0.2-3.6,0.3-4.8c0.2-1.2,0.4-2.2,0.6-2.9
		c0.2-0.7,0.5-1.4,0.9-2c0.4-0.6,0.8-1.1,1.2-1.5s1.1-0.8,1.8-1c0.7-0.3,1.5-0.5,2.5-0.6c1-0.1,2.1-0.2,3.4-0.2
		c2.5,0,4.5,0.2,5.8,0.7c1.3,0.5,2.3,1.3,3,2.5c0.4,0.6,0.7,1.3,0.9,2c0.2,0.7,0.5,1.7,0.6,2.9c0.2,1.2,0.3,2.8,0.3,4.8
		s0.1,4.5,0.1,7.7c0,3.1,0,5.7-0.1,7.7s-0.2,3.6-0.3,4.8c-0.2,1.2-0.4,2.2-0.6,2.9C195.3,387.1,195,387.8,194.7,388.4z M187.9,381.8
		c0.1-0.2,0.1-0.6,0.2-1c0.1-0.4,0.1-1,0.2-1.7c0-0.8,0.1-1.8,0.1-3.2c0-1.3,0-3.1,0-5.2c0-2.2,0-4,0-5.4c0-1.3,0-2.4-0.1-3.2
		c0-0.8-0.1-1.4-0.2-1.8c-0.1-0.4-0.1-0.7-0.2-1c-0.1-0.4-0.4-0.6-0.6-0.8c-0.3-0.2-0.8-0.2-1.4-0.2c-0.7,0-1.2,0.1-1.5,0.2
		c-0.3,0.2-0.5,0.4-0.6,0.8c-0.1,0.2-0.2,0.6-0.2,1c-0.1,0.4-0.1,1-0.2,1.8c-0.1,0.8-0.1,1.9-0.1,3.2c0,1.3,0,3.1,0,5.4
		c0,2.2,0,3.9,0,5.2c0,1.3,0.1,2.4,0.1,3.2c0.1,0.8,0.1,1.4,0.2,1.7c0.1,0.4,0.1,0.7,0.2,1c0.1,0.4,0.3,0.6,0.6,0.7
		c0.3,0.1,0.8,0.2,1.5,0.2c0.7,0,1.1-0.1,1.4-0.2C187.5,382.4,187.8,382.1,187.9,381.8z"/>
	<path class="st6" d="M223.5,375.5h-3.9v-8.1h11.3c0,0.7,0.1,1.7,0.1,3.1c0,1.3,0,3,0,4.8c0,2.2,0,4-0.1,5.5
		c-0.1,1.4-0.2,2.6-0.3,3.6s-0.4,1.7-0.6,2.3c-0.2,0.6-0.5,1.2-0.8,1.7c-0.4,0.6-0.8,1.2-1.2,1.6c-0.5,0.4-1.1,0.7-1.8,1
		c-0.7,0.3-1.5,0.5-2.5,0.6c-1,0.1-2.1,0.2-3.3,0.2c-2.6,0-4.5-0.2-5.9-0.7c-1.3-0.5-2.3-1.3-3-2.6c-0.4-0.6-0.7-1.3-0.9-2
		s-0.5-1.7-0.6-3s-0.3-2.9-0.3-4.9c-0.1-2-0.1-4.6-0.1-7.9c0-3.1,0-5.6,0.1-7.6c0.1-1.9,0.2-3.5,0.3-4.8c0.2-1.2,0.4-2.2,0.6-2.9
		c0.2-0.7,0.5-1.4,0.9-2c0.7-1.2,1.7-2,3.1-2.5c1.3-0.5,3.3-0.7,5.8-0.7c2.9,0,5.1,0.4,6.6,1.1c1.5,0.8,2.5,2,3.1,3.8
		c0.5,1.5,0.7,3.4,0.7,5.9c0,0.5,0,0.9,0,1.1s0,0.6-0.1,0.9H223c0-0.1,0.1-0.2,0.1-0.3c0-0.1,0-0.2,0-0.3c0-0.9,0-1.5-0.1-2
		c-0.1-0.4-0.1-0.8-0.2-1.1c-0.1-0.7-1-1-2.4-1c-0.7,0-1.2,0.1-1.6,0.2s-0.6,0.4-0.7,0.8c-0.1,0.3-0.1,0.6-0.2,1s-0.1,0.9-0.2,1.7
		c0,0.8-0.1,1.8-0.1,3.2c0,1.3,0,3.1,0,5.2c0,2.3,0,4.1,0,5.5c0,1.4,0,2.4,0.1,3.2c0,0.8,0.1,1.3,0.1,1.6c0.1,0.3,0.1,0.6,0.2,0.9
		c0.3,0.8,1.1,1.2,2.5,1.2c0.7,0,1.2-0.1,1.6-0.2c0.3-0.2,0.6-0.4,0.8-0.8c0.1-0.2,0.2-0.4,0.3-0.6c0.1-0.2,0.1-0.5,0.2-0.8
		s0.1-0.7,0.1-1.2s0-1.1,0-1.9V375.5z"/>
	<path class="st6" d="M253,388.4c-0.4,0.6-0.8,1.2-1.2,1.6c-0.5,0.4-1.1,0.7-1.8,1s-1.5,0.5-2.5,0.6c-1,0.1-2.1,0.2-3.3,0.2
		c-2.6,0-4.5-0.2-5.9-0.7c-1.3-0.5-2.3-1.3-3-2.6c-0.4-0.6-0.7-1.3-0.9-2s-0.5-1.7-0.6-2.9c-0.2-1.2-0.3-2.9-0.3-4.8
		c-0.1-2-0.1-4.6-0.1-7.7c0-3.1,0-5.7,0.1-7.7c0.1-2,0.2-3.6,0.3-4.8c0.2-1.2,0.4-2.2,0.6-2.9s0.5-1.4,0.9-2
		c0.4-0.6,0.8-1.1,1.2-1.5c0.5-0.4,1.1-0.8,1.8-1s1.5-0.5,2.5-0.6c1-0.1,2.1-0.2,3.4-0.2c2.5,0,4.5,0.2,5.8,0.7
		c1.3,0.5,2.3,1.3,3,2.5c0.4,0.6,0.7,1.3,0.9,2c0.2,0.7,0.5,1.7,0.6,2.9c0.2,1.2,0.3,2.8,0.3,4.8c0.1,2,0.1,4.5,0.1,7.7
		c0,3.1,0,5.7-0.1,7.7c-0.1,2-0.2,3.6-0.3,4.8s-0.4,2.2-0.6,2.9C253.6,387.1,253.3,387.8,253,388.4z M246.2,381.8
		c0.1-0.2,0.1-0.6,0.2-1s0.1-1,0.2-1.7c0-0.8,0.1-1.8,0.1-3.2c0-1.3,0-3.1,0-5.2c0-2.2,0-4,0-5.4c0-1.3,0-2.4-0.1-3.2
		c0-0.8-0.1-1.4-0.2-1.8c-0.1-0.4-0.1-0.7-0.2-1c-0.1-0.4-0.4-0.6-0.6-0.8s-0.8-0.2-1.4-0.2c-0.7,0-1.2,0.1-1.5,0.2
		c-0.3,0.2-0.5,0.4-0.6,0.8c-0.1,0.2-0.2,0.6-0.2,1c-0.1,0.4-0.1,1-0.2,1.8c-0.1,0.8-0.1,1.9-0.1,3.2c0,1.3,0,3.1,0,5.4
		c0,2.2,0,3.9,0,5.2c0,1.3,0.1,2.4,0.1,3.2c0.1,0.8,0.1,1.4,0.2,1.7s0.1,0.7,0.2,1c0.1,0.4,0.3,0.6,0.6,0.7c0.3,0.1,0.8,0.2,1.5,0.2
		c0.7,0,1.1-0.1,1.4-0.2C245.8,382.4,246.1,382.1,246.2,381.8z"/>
	<path class="st6" d="M268.4,391v-40.1h11.9c1.8,0,3.3,0.2,4.5,0.6c1.2,0.4,2.1,1,2.9,1.9c0.7,0.9,1.2,2,1.5,3.3
		c0.3,1.4,0.5,3,0.5,5c0,1.4,0,2.6-0.1,3.6c-0.1,0.9-0.2,1.7-0.5,2.3c-0.2,0.6-0.5,1.1-0.9,1.5c-0.4,0.4-0.8,0.8-1.3,1.1v0.4
		c0.5,0.3,1,0.6,1.4,0.9c0.4,0.3,0.8,0.7,1.1,1.4c0.3,0.6,0.5,1.5,0.7,2.6c0.1,1.1,0.2,2.7,0.2,4.8c0,1.9-0.1,3.6-0.4,5
		c-0.3,1.4-0.8,2.5-1.5,3.3c-0.7,0.9-1.6,1.5-2.8,1.9s-2.7,0.6-4.5,0.6H268.4z M279.2,367.4c0.8,0,1.4-0.3,1.7-1
		c0.3-0.6,0.5-1.9,0.5-3.7c0-1.6-0.2-2.6-0.6-3.2c-0.4-0.5-1-0.8-1.8-0.8h-2.2v8.5H279.2z M279.4,382.9c0.8,0,1.4-0.2,1.8-0.7
		c0.4-0.5,0.6-1.5,0.6-3.1c0-1.8-0.2-3.1-0.5-3.9c-0.3-0.8-0.9-1.2-1.6-1.2h-2.9v8.9H279.4z"/>
	<path class="st6" d="M305.2,391l-0.7-9.3h-4l-0.6,9.3h-8.4l4.3-40.1h14l4,40.1H305.2z M302.7,359.3h-0.6l-1.3,14.4h3.3L302.7,359.3
		z"/>
	<path class="st6" d="M336.5,375.6c0.1,1.3,0.2,2.5,0.2,3.6c0,2.1-0.1,4-0.3,5.5c-0.2,1.6-0.7,2.9-1.5,3.9c-0.7,1-1.8,1.8-3.2,2.3
		c-1.4,0.5-3.2,0.7-5.4,0.7c-2.7,0-4.7-0.2-6.1-0.7c-1.4-0.5-2.4-1.3-3.1-2.6c-0.4-0.6-0.7-1.2-0.9-2c-0.2-0.8-0.5-1.8-0.6-3.1
		c-0.2-1.3-0.3-3-0.3-5c-0.1-2-0.1-4.6-0.1-7.7s0-5.6,0.1-7.6c0.1-1.9,0.2-3.5,0.3-4.8c0.2-1.2,0.4-2.2,0.6-2.9
		c0.2-0.7,0.5-1.4,0.9-2c0.7-1.2,1.7-2,3.1-2.5s3.3-0.7,5.8-0.7c2.3,0,4.1,0.2,5.5,0.6s2.4,1.1,3.2,2.1c0.7,1,1.2,2.2,1.5,3.7
		c0.2,1.5,0.4,3.3,0.4,5.4c0,0.5,0,1,0,1.6c0,0.6,0,1.2-0.1,1.9h-7.8c0-1.1,0-1.9,0-2.7c0-0.7,0-1.3-0.1-1.7c0-0.5-0.1-0.8-0.1-1.1
		c-0.1-0.3-0.1-0.5-0.1-0.7c-0.1-0.7-0.9-1-2.2-1c-0.7,0-1.2,0.1-1.5,0.2c-0.3,0.2-0.5,0.4-0.6,0.8c-0.1,0.3-0.2,0.6-0.2,1
		s-0.1,0.9-0.2,1.7c-0.1,0.8-0.1,1.8-0.1,3.2c0,1.3,0,3.1,0,5.2c0,2.2,0,4,0,5.4c0,1.3,0.1,2.4,0.1,3.2c0.1,0.8,0.1,1.4,0.2,1.8
		s0.1,0.7,0.2,1c0.1,0.4,0.3,0.6,0.6,0.7c0.3,0.1,0.9,0.2,1.7,0.2c1.1,0,1.7-0.3,1.9-0.9c0.1-0.4,0.2-0.7,0.3-1.1
		c0.1-0.4,0.1-0.8,0.2-1.3c0-0.5,0.1-1,0.1-1.6c0-0.6,0-1.3,0-2.1H336.5z"/>
	<path class="st6" d="M353.8,391l-5-18h-0.5c0.1,0.5,0.1,0.9,0.1,1.5c0,0.5,0,1,0,1.5V391h-8.5v-40.1h8.5v14.6c0,0.4,0,0.8,0,1.1
		c0,0.3,0,0.7-0.1,1h0.5l5.4-16.8h8.7v0.3l-6.1,17.9l6.6,21.7v0.3H353.8z"/>
</g>
</svg>
