<?xml version="1.0" encoding="utf-8"?>
<!-- Generator: Adobe Illustrator 20.0.0, SVG Export Plug-In . SVG Version: 6.00 Build 0)  -->
<svg version="1.1" id="Layer_1" xmlns="http://www.w3.org/2000/svg" xmlns:xlink="http://www.w3.org/1999/xlink" x="0px" y="0px"
	 viewBox="0 0 400 400" style="enable-background:new 0 0 400 400;" xml:space="preserve">
<style type="text/css">
	.st0{fill:#FFFFFF;}
</style>
<path class="st0" d="M295.8,204.9c-0.5-2.9-1.2-5.6-2.1-8.3c-2.1-5.9-5-11.3-8.7-16.1c-3.9-4.9-8.5-8.9-13.5-12.2
	c-5.3-3.4-11.2-5.8-17.3-7.1l0.8-30.8l3.7,0.1c1.5,0,2.7-0.2,4-1.1c1.2-0.7,2.1-1.6,2.7-2.7c0.7-1.2,0.9-2.5,1-3.7
	c0-1.4-0.4-2.8-1.2-3.8L255,104c-1.4-2.2-3.4-3.3-6-3.4c-2.6,0-4.7,0.9-6.2,2.9l-10.9,14.3c-0.8,1.2-1.3,2.5-1.4,3.9
	c-0.1,1.4,0.1,2.6,0.7,3.8c0.5,1.3,1.4,2.2,2.5,3c1.2,0.7,2.5,1.2,4,1.3l4.4,0.1l-0.8,30c-5.5,0.1-10.9,1.1-16.2,2.9
	c-5.5,1.8-10.6,4.4-15,7.8c-0.5,0.5-1.1,0.9-1.5,1.6c-0.2,0.2-0.4,0.3-0.7,0.5c-4.8,4-8.9,8.6-12.1,13.8c-3.1,5.5-5.4,11.2-6.8,17.4
	l-0.8,13.2c0.3,5.6,1.3,11,3.2,16.3c2,5.5,4.7,10.5,8.1,14.9c1.2,1.4,2.5,2.2,4.3,2.5c0.5,0.1,0.9,0.1,1.4,0.1
	c0,0.9,0.1,1.8,0.8,2.7c0.4,0.8,1.1,1.7,1.8,2.3c4.4,3.6,9.1,6.6,14.6,8.7c5.2,2.1,10.7,3.4,16.1,3.9l12.8-0.8
	c6.2-1.1,12.2-3.1,17.8-6.1c5-2.6,9.3-6,13.1-10.2c0.1,0,0.1,0,0.2-0.1c0.8-0.4,1.7-1.1,2.2-1.9c3.5-4.4,6.2-9.3,8.4-14.7
	c0.3-0.8,0.5-1.6,0.7-2.4c1.6-4.6,2.6-9.2,2.9-14L295.8,204.9z M270.7,244c-3.9,3.8-8.4,6.6-13.5,8.6c-5.2,2-10.5,3-16.1,2.9
	c-4.7-0.1-9.1-1.1-13.5-2.6c-4.3-1.7-8.3-3.9-11.8-6.9c-1.3-1.1-3-1.7-4.7-1.4H211c0-1.5-0.3-2.7-1.3-3.8c-2.9-3.8-5-7.8-6.6-12.2
	c-1.4-4.4-2.1-8.8-2-13.6c0-5.6,1.2-10.9,3.5-16.1c2.2-4.9,5.2-9.3,9-13c3.9-3.9,8.3-6.8,13.2-8.7c5.1-2.1,10.5-3.2,16.1-3.2
	s10.9,1.2,16.1,3.5c4.9,2.2,9.3,5.2,13,9c3.9,3.9,6.8,8.3,8.7,13.2c1.3,3,2.1,6.2,2.6,9.5c0.3,1.9,0.4,4.1,0.3,6.2
	c-0.1,5.6-1.3,10.9-3.7,16C277.7,235.9,274.7,240.2,270.7,244z"/>
<path class="st0" d="M133.9,205.7c2.5-1.4,5.1-2,7.9-1.3s4.9,2.2,6.3,4.7c1,2.7,1.1,5.1,0.3,7.5c-0.7,2.4-2.3,4.3-4.6,5.8l7-4.3
	c2.9-1.8,5.6-2.5,8.1-2.2c2.6,0.4,4.7,2,6,4.7c1.4,2.8,1.4,5.6,0.2,8.3c-1,2.5-2.9,4.6-5.5,6.3l6.8-4.2c3.1-1.8,5.9-2.6,8.7-2.2
	c3,0.5,5.2,2.2,6.6,5.3c1.4,3,1.5,5.9,0.2,9c-1.1,2.8-2.9,5.1-5.7,6.9l40.8-25c3.1-1.8,5.9-2.6,8.7-2.2c3,0.5,5.2,2.2,6.6,5.3
	s1.5,5.9,0.2,9c-1.1,2.9-3.2,5.2-6.3,7.2l-55.9,34.3l13.2,2.2c3.2,0,5.8,1.5,8,4.1c2.1,2.7,3,5.8,2.5,9.3c-0.3,3.5-1.8,6.5-4.3,9.1
	c-2.6,2.5-5.5,3.8-8.6,3.5l-54.4-0.8c-0.7,0.1-2.3-0.1-5.1,0.1c-2.1,0.1-3.4,0-4.6-0.1c-3-0.4-5.4-1.9-6.6-4.6l-25.1-52.8
	c-1.3-2.7-1.1-5.7,0.2-9.1c1.3-3.3,3.2-5.8,5.8-7.6L133.9,205.7L133.9,205.7z"/>
<g>
	<path class="st0" d="M32.6,74L17.3,46.7h-0.5V74H4.6V23.1h13.1l9,17.8h0.5V23.1h12.3v51C39.4,74,32.6,74,32.6,74z"/>
	<path class="st0" d="M76,70.7c-0.6,0.8-1.3,1.5-2,1.9c-0.8,0.6-1.7,0.9-2.8,1.3c-1.1,0.3-2.5,0.6-4,0.7s-3.3,0.2-5.4,0.2
		c-4.1,0-7.3-0.2-9.4-0.9c-2.2-0.7-3.8-1.7-4.9-3.2c-0.6-0.7-1-1.6-1.5-2.5c-0.5-0.9-0.7-2.2-1-3.8c-0.2-1.5-0.5-3.6-0.6-6.3
		c-0.1-2.5-0.1-5.8-0.1-9.8s0-7.3,0.1-9.8s0.3-4.6,0.6-6.1c0.2-1.5,0.6-2.7,1-3.6c0.3-0.9,0.9-1.7,1.5-2.5c0.6-0.7,1.3-1.4,1.9-1.9
		c0.7-0.6,1.7-1,2.8-1.4c1.1-0.3,2.5-0.6,4.1-0.7c1.6-0.1,3.4-0.2,5.5-0.2c4.1,0,7.2,0.3,9.3,0.9c2.2,0.7,3.8,1.7,4.9,3.2
		c0.6,0.8,1,1.6,1.5,2.5c0.3,0.9,0.7,2.2,1,3.6c0.2,1.5,0.5,3.6,0.6,6.1c0.1,2.5,0.1,5.8,0.1,9.8c0,4-0.1,7.3-0.1,9.8
		c-0.1,2.5-0.3,4.6-0.6,6.3c-0.2,1.5-0.6,2.7-1,3.8C77,69.1,76.5,70,76,70.7z M65,62.4c0.1-0.2,0.2-0.7,0.3-1.1
		c0.1-0.5,0.2-1.3,0.2-2.3c0-1,0.1-2.4,0.1-4.1s0-3.9,0-6.6s0-5.1,0-6.8s-0.1-3.1-0.1-4.1c-0.1-1-0.1-1.8-0.2-2.3
		c-0.1-0.5-0.2-0.9-0.3-1.1c-0.2-0.5-0.6-0.8-1-1c-0.5-0.2-1.3-0.2-2.3-0.2c-1,0-1.8,0.1-2.4,0.2c-0.5,0.2-0.8,0.6-1,1
		c-0.1,0.2-0.3,0.7-0.3,1.1c-0.1,0.6-0.1,1.3-0.2,2.3c-0.1,1-0.1,2.4-0.1,4.1s0,4,0,6.8c0,2.7,0,4.9,0,6.6s0.1,3.1,0.1,4.1
		c0.1,1,0.1,1.7,0.2,2.3c0.1,0.6,0.2,0.9,0.3,1.1c0.1,0.5,0.5,0.8,1,0.9c0.5,0.2,1.3,0.2,2.4,0.2c1,0,1.8-0.1,2.3-0.2
		C64.5,63.1,64.8,62.9,65,62.4z"/>
	<path class="st0" d="M116.2,74l-4.4-31.3h-0.9L106,74H87.1l-5.7-50.9H95l2.8,34.7h0.9l5.9-34.7h13.4l5.9,34.7h0.9l2.8-34.7h12.7
		l-5.6,51h-18.8V74z"/>
	<path class="st0" d="M161.6,74V23.1h19.4c2.8,0,5.2,0.2,7.2,0.9c1.8,0.7,3.4,1.6,4.4,3c1.1,1.4,1.8,3.2,2.3,5.4
		c0.5,2.2,0.7,4.9,0.7,8.3c0,3.4-0.2,6.1-0.7,8.4c-0.5,2.4-1.1,4.2-2.3,5.7s-2.6,2.4-4.4,3.1c-1.8,0.7-4.2,0.9-7.2,0.9H175v15.4
		h-13.4V74z M178.5,48.2c1.3,0,2.2-0.6,2.6-1.6c0.5-1,0.8-3.2,0.8-6.3c0-2.7-0.3-4.4-0.9-5.4c-0.6-0.8-1.6-1.3-2.8-1.3H175v14.5
		H178.5L178.5,48.2z"/>
	<path class="st0" d="M199.9,74V23.1h13.4v39.6h13.8v11.4h-27.2V74z"/>
	<path class="st0" d="M251.4,74l-1.1-11.7h-6.5l-1,11.7h-13.4l6.9-50.9h22.5l6.5,51h-13.9V74z M247.5,33.7h-0.9l-2.2,18.2h5.2
		L247.5,33.7z"/>
	<path class="st0" d="M275.1,74V55.5l-11.7-32.1v-0.2h13.8c0.9,3.2,1.6,5.8,2.2,7.6c0.6,1.8,0.9,3.4,1.3,4.6
		c0.3,1.1,0.6,1.9,0.7,2.6c0.1,0.6,0.3,1.1,0.5,1.7h0.8c0.1-0.6,0.2-1,0.5-1.7c0.1-0.6,0.5-1.5,0.7-2.6c0.3-1.1,0.8-2.7,1.4-4.6
		s1.4-4.4,2.3-7.6h13.4v0.3l-11.3,31.9V74C289.4,74,275.1,74,275.1,74z"/>
	<path class="st0" d="M304.2,74V23.1H318v51C318,74,304.2,74,304.2,74z"/>
	<path class="st0" d="M351.8,74l-15.3-27.3H336V74h-12.2V23.1h13.1l9,17.8h0.5V23.1h12.4v51C358.7,74,351.8,74,351.8,74z"/>
	<path class="st0" d="M385.9,54.3h-6.3V44.1h18.2c0,0.9,0.1,2.2,0.1,3.9c0,1.7,0,3.8,0,6.1c0,2.7-0.1,5.1-0.1,6.9
		c-0.1,1.8-0.3,3.3-0.6,4.6c-0.2,1.1-0.6,2.2-0.9,3s-0.8,1.5-1.4,2.2c-0.6,0.8-1.3,1.5-2,1.9c-0.8,0.6-1.7,0.9-2.8,1.3
		s-2.5,0.6-4,0.7c-1.5,0.1-3.3,0.2-5.4,0.2c-4.1,0-7.3-0.2-9.4-0.9s-3.8-1.7-4.9-3.2c-0.6-0.7-1-1.6-1.5-2.5c-0.5-0.9-0.7-2.2-1-3.8
		c-0.2-1.6-0.5-3.6-0.6-6.3c-0.1-2.5-0.1-5.9-0.1-10c0-4,0-7.2,0.1-9.7s0.3-4.4,0.6-6c0.2-1.6,0.6-2.7,1-3.6
		c0.3-0.9,0.9-1.7,1.5-2.5c1.1-1.5,2.7-2.6,4.9-3.2c2.2-0.6,5.2-0.9,9.3-0.9c4.7,0,8.3,0.5,10.7,1.5c2.4,1,4.1,2.6,5,4.9
		c0.7,1.9,1.1,4.4,1.1,7.5c0,0.7,0,1,0,1.5c0,0.5,0,0.7-0.1,1.1H385c0-0.1,0.1-0.2,0.1-0.5s0-0.2,0-0.5c0-1-0.1-1.9-0.1-2.5
		c-0.1-0.6-0.2-1-0.3-1.4c-0.2-0.8-1.5-1.3-3.9-1.3c-1.1,0-1.9,0.1-2.5,0.2c-0.6,0.2-0.9,0.6-1.1,1c-0.1,0.3-0.2,0.8-0.3,1.3
		c-0.1,0.5-0.2,1.1-0.2,2.2c-0.1,1-0.1,2.4-0.1,4.1s0,4,0,6.6c0,2.8,0,5.2,0,7.1c0,1.7,0.1,3.1,0.1,4.1c0,1,0.1,1.6,0.2,2
		s0.2,0.8,0.3,1c0.5,1,1.8,1.5,4.1,1.5c1.1,0,1.9-0.1,2.5-0.2c0.6-0.2,1-0.6,1.4-1c0.1-0.2,0.3-0.5,0.5-0.7c0.1-0.2,0.2-0.6,0.3-1
		c0-0.3,0.1-0.9,0.1-1.5s0-1.5,0-2.4v-2.3h-0.1V54.3z"/>
</g>
<g>
	<path class="st0" d="M5.6,377.1v-41.9h5.9v34.7h7.1v7.3h-13C5.6,377.2,5.6,377.1,5.6,377.1z"/>
	<path class="st0" d="M35,374.4c-0.5,1.3-1.3,2.2-2.4,2.7c-1,0.5-2.5,0.7-4.5,0.7s-3.5-0.2-4.5-0.7s-1.8-1.4-2.3-2.7
		c-0.3-0.6-0.5-1.3-0.7-2.1c-0.2-0.8-0.4-1.8-0.5-3.1c-0.1-1.3-0.2-3-0.3-5.1c0-2.1-0.1-4.8-0.1-8.1c0-3.3,0-6,0.1-8
		c0-2.1,0.1-3.7,0.3-5c0.1-1.3,0.3-2.3,0.5-3s0.4-1.4,0.7-2.1c0.5-1.3,1.3-2.2,2.3-2.7s2.5-0.7,4.5-0.7s3.4,0.2,4.5,0.7
		c1,0.5,1.8,1.4,2.4,2.7c0.3,0.7,0.5,1.4,0.7,2.1s0.3,1.8,0.5,3c0.1,1.3,0.2,3,0.3,5c0.1,2.1,0.1,4.7,0.1,8s0,6-0.1,8.1
		s-0.2,3.8-0.3,5.1c-0.1,1.3-0.3,2.3-0.5,3.1C35.4,373.1,35.2,373.8,35,374.4z M30.1,369.2c0.1-0.4,0.2-0.8,0.2-1.2
		c0.1-0.5,0.1-1.2,0.1-2.1s0.1-2.2,0.1-3.7s0-3.6,0-6.2s0-4.7,0-6.3c0-1.6,0-2.8-0.1-3.7c0-0.9-0.1-1.6-0.1-2c0-0.5-0.1-0.9-0.2-1.2
		c-0.1-0.5-0.3-0.9-0.6-1.1s-0.7-0.3-1.3-0.3c-0.6,0-1.1,0.1-1.4,0.3c-0.3,0.2-0.5,0.6-0.6,1.1c-0.1,0.4-0.2,0.8-0.2,1.2
		c-0.1,0.4-0.1,1.1-0.2,2c0,0.9-0.1,2.2-0.1,3.8c0,1.6,0,3.7,0,6.3c0,2.6,0,4.7,0,6.2c0,1.6,0,2.8,0.1,3.7c0,0.9,0.1,1.6,0.2,2
		c0.1,0.5,0.1,0.9,0.2,1.2c0.1,0.5,0.3,0.9,0.6,1.1c0.3,0.2,0.7,0.3,1.4,0.3c0.6,0,1.1-0.1,1.3-0.3C29.8,370.1,30,369.7,30.1,369.2z
		"/>
	<path class="st0" d="M52.8,377.1l-8.1-25.8h-0.2v25.8h-5.4v-41.9h6.2l5,17.9h0.2v-17.9h5.4v41.9H52.8z"/>
	<path class="st0" d="M66.1,359.8v-6.6H75c0,0.7,0.1,1.7,0.1,3s0,2.8,0,4.6c0,2.2,0,4.1-0.1,5.6s-0.2,2.7-0.3,3.8
		c-0.1,1-0.3,1.9-0.5,2.5c-0.2,0.7-0.4,1.3-0.6,1.8c-0.5,1.3-1.3,2.2-2.4,2.7c-1,0.5-2.5,0.7-4.5,0.7s-3.5-0.2-4.5-0.7
		s-1.8-1.4-2.4-2.7c-0.3-0.6-0.5-1.3-0.7-2.1c-0.2-0.8-0.4-1.8-0.5-3.1c-0.1-1.3-0.2-3-0.3-5.1c0-2.1-0.1-4.9-0.1-8.2
		c0-3.2,0-5.9,0.1-7.9c0-2,0.1-3.7,0.3-5c0.1-1.3,0.3-2.3,0.5-3s0.4-1.4,0.7-2c0.3-0.7,0.6-1.2,1-1.7c0.4-0.4,0.8-0.8,1.4-1.1
		c0.5-0.3,1.2-0.5,1.9-0.6c0.7-0.1,1.6-0.2,2.6-0.2s1.9,0.1,2.6,0.2s1.4,0.3,1.9,0.6c0.5,0.3,0.9,0.6,1.3,1c0.3,0.4,0.6,0.9,0.9,1.5
		c0.4,1,0.8,2.2,1,3.5s0.3,3,0.3,4.9c0,0.4,0,0.7,0,1c0,0.2,0,0.5,0,0.9h-5.6c0-0.2,0-0.4,0-0.7s0-0.6,0-1.2s0-1.2-0.1-1.9
		c-0.1-0.7-0.2-1.3-0.3-1.7c-0.2-0.9-0.9-1.3-2.1-1.3c-0.6,0-1.1,0.1-1.4,0.3c-0.3,0.2-0.5,0.6-0.7,1.2c-0.1,0.3-0.1,0.7-0.2,1.2
		c-0.1,0.4-0.1,1.1-0.2,2c0,0.9-0.1,2.2-0.1,3.7s0,3.6,0,6.1c0,2.7,0,4.8,0,6.4s0,2.8,0.1,3.8c0,0.9,0.1,1.6,0.2,2s0.1,0.8,0.2,1.2
		c0.2,0.6,0.4,1,0.7,1.2c0.3,0.2,0.8,0.3,1.5,0.3s1.3-0.1,1.6-0.4c0.3-0.2,0.5-0.7,0.7-1.3c0.1-0.3,0.1-0.8,0.2-1.3s0.1-1.1,0.1-1.7
		s0.1-1.2,0.1-1.8c0-0.6,0-1.1,0-1.7c0-0.7,0-1.3,0-1.7c0-0.4,0-0.8,0-1.1h-3.3C66.1,359.7,66.1,359.8,66.1,359.8z"/>
	<path class="st0" d="M95.2,348.2c0-0.3,0.1-0.6,0.1-1s0-0.9,0-1.6c0-1.6-0.1-2.8-0.4-3.5s-0.9-1-1.9-1c-0.4,0-0.8,0-1.1,0.1
		c-0.3,0.1-0.5,0.3-0.7,0.6c-0.2,0.3-0.3,0.8-0.4,1.4s-0.1,1.4-0.1,2.4c0,0.9,0,1.6,0,2.1s0.1,0.9,0.1,1.3c0.1,0.3,0.2,0.6,0.3,0.8
		c0.1,0.2,0.3,0.4,0.6,0.7c0.4,0.4,0.8,0.7,1.4,1.1c0.5,0.4,1.1,0.8,1.7,1.1c0.6,0.4,1.2,0.7,1.8,1.1c0.6,0.4,1,0.7,1.4,1
		c0.6,0.4,1,0.9,1.4,1.3s0.7,1,0.9,1.7c0.2,0.7,0.4,1.7,0.5,2.8c0.1,1.2,0.1,2.7,0.1,4.6c0,2.6-0.1,4.7-0.4,6.3
		c-0.3,1.6-0.7,2.9-1.3,3.8s-1.5,1.5-2.5,1.9c-1,0.3-2.3,0.5-3.8,0.5c-1.3,0-2.5-0.1-3.4-0.4s-1.7-0.8-2.3-1.5
		c-0.6-0.8-1.1-1.8-1.3-3.2c-0.3-1.3-0.4-3.1-0.4-5.3c0-0.9,0-1.7,0.1-2.4c0.1-0.7,0.1-1.4,0.2-1.9h5c-0.1,0.3-0.1,0.6-0.1,1.1
		s0,0.9,0,1.4c0,1.1,0,2.1,0.1,2.8c0.1,0.7,0.2,1.2,0.4,1.6c0.2,0.4,0.4,0.6,0.7,0.8c0.3,0.1,0.7,0.2,1.1,0.2c0.5,0,0.9-0.1,1.2-0.2
		c0.3-0.1,0.6-0.4,0.8-0.7c0.2-0.4,0.3-1,0.4-1.7c0.1-0.8,0.1-1.8,0.1-3.1c0-0.8,0-1.4,0-1.9s-0.1-0.8-0.1-1.2
		c-0.1-0.3-0.2-0.6-0.3-0.8c-0.1-0.2-0.3-0.5-0.6-0.8c-0.4-0.5-0.9-0.9-1.6-1.4c-0.6-0.4-1.3-0.9-1.9-1.3c-0.7-0.4-1.3-0.8-2-1.3
		c-0.6-0.4-1.2-0.9-1.6-1.4c-0.4-0.4-0.7-0.8-1-1.3c-0.3-0.4-0.5-1-0.6-1.8c-0.1-0.7-0.2-1.7-0.3-2.9c0-1.2-0.1-2.7-0.1-4.6
		c0-2,0.1-3.6,0.4-5c0.3-1.3,0.7-2.4,1.3-3.1c0.6-0.8,1.4-1.3,2.4-1.6c1-0.3,2.2-0.5,3.6-0.5c1.5,0,2.7,0.2,3.7,0.5s1.7,0.8,2.3,1.5
		c0.6,0.7,0.9,1.7,1.2,2.8c0.2,1.2,0.3,2.6,0.3,4.3c0,1.2,0,2.1-0.1,2.8c0,0.7-0.1,1.3-0.3,1.8h-5L95.2,348.2L95.2,348.2z"/>
	<path class="st0" d="M119.1,377.1c-0.4-4.1-0.7-7.6-1-10.5s-0.5-5.4-0.7-7.4s-0.3-3.6-0.5-4.8c-0.1-1.2-0.2-2.2-0.2-3
		c0-0.7-0.1-1.3-0.1-1.7c0-0.4,0-0.7,0-1.1h-0.4c0,0.3,0,0.7,0,1.1s-0.1,1-0.1,1.7c-0.1,0.7-0.2,1.7-0.3,3s-0.3,2.9-0.5,4.8
		c-0.2,2-0.4,4.4-0.7,7.4c-0.3,2.9-0.6,6.4-1,10.5h-8.5l-3-41.9h6c0.3,4.7,0.5,8.7,0.7,12s0.4,6.1,0.5,8.3c0.1,2.3,0.2,4,0.3,5.4
		c0.1,1.3,0.1,2.4,0.2,3.2c0,0.8,0.1,1.4,0.1,1.8s0,0.7,0,1.1h0.4c0-0.3,0-0.7,0-1.1s0.1-1,0.2-1.8s0.2-1.9,0.3-3.2
		c0.1-1.3,0.3-3.1,0.6-5.4c0.2-2.3,0.5-5,0.9-8.3c0.3-3.3,0.7-7.3,1.2-12h5.9c0.5,4.7,0.9,8.7,1.3,12s0.6,6.1,0.9,8.3
		s0.4,4.1,0.6,5.4c0.1,1.4,0.2,2.4,0.3,3.2c0.1,0.8,0.1,1.4,0.1,1.8s0,0.8,0,1.1h0.5c0-0.3,0-0.6,0-1.1c0-0.4,0-1,0.1-1.8
		c0-0.8,0.1-1.8,0.2-3.2c0.1-1.4,0.2-3.2,0.3-5.4c0.1-2.3,0.3-5,0.5-8.3s0.4-7.3,0.7-12h5.6l-3,41.9H119.1z"/>
	<path class="st0" d="M133,377.1v-41.9h6.1v41.9H133z"/>
	<path class="st0" d="M142.3,377.1v-41.9h9.2c1.4,0,2.5,0.2,3.4,0.7s1.6,1.2,2.2,2.4c0.5,1.1,0.9,2.6,1.1,4.4
		c0.2,1.8,0.3,4.1,0.3,6.8c0,2.7-0.1,5-0.3,6.8c-0.2,1.9-0.6,3.4-1.1,4.5c-0.5,1.2-1.3,2-2.2,2.5s-2.1,0.8-3.4,0.8h-3.3v13
		L142.3,377.1L142.3,377.1z M150.5,357.3c0.4,0,0.7-0.1,0.9-0.4c0.3-0.2,0.5-0.7,0.6-1.3c0.2-0.6,0.3-1.4,0.4-2.5
		c0.1-1.1,0.1-2.4,0.1-4c0-1.5,0-2.7-0.1-3.6s-0.2-1.7-0.4-2.2s-0.4-0.9-0.7-1.1s-0.6-0.3-1-0.3h-2.2v15.2h2.4V357.3z"/>
	<path class="st0" d="M161.1,377.1v-41.9h13.7v6.9H167v10.3h7.6v6.6H167v10.8h7.7v7.3L161.1,377.1L161.1,377.1z"/>
	<path class="st0" d="M196.6,335.2h5.9v29.7c0,1.5-0.1,2.9-0.1,3.9c0,1.1-0.1,1.9-0.2,2.7c-0.1,0.7-0.2,1.4-0.4,1.9s-0.4,1-0.6,1.5
		c-0.5,1.1-1.3,1.9-2.4,2.4c-1,0.4-2.6,0.6-4.6,0.6s-3.6-0.2-4.6-0.6c-1.1-0.4-1.9-1.2-2.4-2.4c-0.3-0.5-0.5-1-0.6-1.5
		c-0.2-0.5-0.3-1.1-0.4-1.9c-0.1-0.7-0.2-1.6-0.2-2.7s-0.1-2.4-0.1-3.9v-29.7h6.1v29.7c0,0.8,0,1.5,0,2s0,1,0,1.3
		c0,0.4,0,0.6,0.1,0.9c0,0.2,0.1,0.4,0.2,0.6c0.2,0.3,0.4,0.6,0.6,0.7c0.3,0.1,0.7,0.2,1.4,0.2c0.6,0,1.1-0.1,1.3-0.2
		c0.3-0.1,0.5-0.4,0.6-0.7c0.1-0.2,0.2-0.4,0.2-0.6s0.1-0.5,0.1-0.9s0-0.8,0-1.3s0-1.2,0-2L196.6,335.2L196.6,335.2z"/>
	<path class="st0" d="M205.4,377.1v-41.9h9.2c1.4,0,2.5,0.2,3.4,0.7s1.6,1.2,2.2,2.4c0.5,1.1,0.9,2.6,1.1,4.4
		c0.2,1.8,0.3,4.1,0.3,6.8c0,2.7-0.1,5-0.3,6.8c-0.2,1.9-0.6,3.4-1.1,4.5c-0.5,1.2-1.3,2-2.2,2.5s-2.1,0.8-3.4,0.8h-3.3v13
		L205.4,377.1L205.4,377.1z M213.6,357.3c0.4,0,0.7-0.1,0.9-0.4c0.3-0.2,0.5-0.7,0.6-1.3c0.2-0.6,0.3-1.4,0.4-2.5
		c0.1-1.1,0.1-2.4,0.1-4c0-1.5,0-2.7-0.1-3.6s-0.2-1.7-0.4-2.2s-0.4-0.9-0.7-1.1s-0.6-0.3-1-0.3h-2.2v15.2h2.4V357.3z"/>
	<path class="st0" d="M236.6,377.1v-35h-5.1v-6.9h16.2v6.9h-5.1v35H236.6z"/>
	<path class="st0" d="M263.8,374.4c-0.5,1.3-1.3,2.2-2.4,2.7c-1,0.5-2.5,0.7-4.5,0.7s-3.5-0.2-4.5-0.7s-1.8-1.4-2.3-2.7
		c-0.3-0.6-0.5-1.3-0.7-2.1c-0.2-0.8-0.4-1.8-0.5-3.1c-0.1-1.3-0.2-3-0.3-5.1c0-2.1-0.1-4.8-0.1-8.1c0-3.3,0-6,0.1-8
		c0-2.1,0.1-3.7,0.3-5c0.1-1.3,0.3-2.3,0.5-3s0.4-1.4,0.7-2.1c0.5-1.3,1.3-2.2,2.3-2.7s2.5-0.7,4.5-0.7s3.4,0.2,4.5,0.7
		c1,0.5,1.8,1.4,2.4,2.7c0.3,0.7,0.5,1.4,0.7,2.1s0.3,1.8,0.5,3c0.1,1.3,0.2,3,0.3,5c0.1,2.1,0.1,4.7,0.1,8s0,6-0.1,8.1
		s-0.2,3.8-0.3,5.1c-0.1,1.3-0.3,2.3-0.5,3.1S264.1,373.8,263.8,374.4z M259,369.2c0.1-0.4,0.2-0.8,0.2-1.2c0.1-0.5,0.1-1.2,0.1-2.1
		s0.1-2.2,0.1-3.7s0-3.6,0-6.2s0-4.7,0-6.3c0-1.6,0-2.8-0.1-3.7c0-0.9-0.1-1.6-0.1-2c0-0.5-0.1-0.9-0.2-1.2
		c-0.1-0.5-0.3-0.9-0.6-1.1c-0.3-0.2-0.7-0.3-1.3-0.3c-0.6,0-1.1,0.1-1.4,0.3c-0.3,0.2-0.5,0.6-0.6,1.1c-0.1,0.4-0.2,0.8-0.2,1.2
		c-0.1,0.4-0.1,1.1-0.2,2c0,0.9-0.1,2.2-0.1,3.8c0,1.6,0,3.7,0,6.3c0,2.6,0,4.7,0,6.2c0,1.6,0,2.8,0.1,3.7c0,0.9,0.1,1.6,0.2,2
		c0.1,0.5,0.1,0.9,0.2,1.2c0.1,0.5,0.3,0.9,0.6,1.1c0.3,0.2,0.7,0.3,1.4,0.3c0.6,0,1.1-0.1,1.3-0.3S258.8,369.7,259,369.2z"/>
	<path class="st0" d="M283.4,359.8v-6.6h8.9c0,0.7,0.1,1.7,0.1,3s0,2.8,0,4.6c0,2.2,0,4.1-0.1,5.6s-0.2,2.7-0.3,3.8
		c-0.1,1-0.3,1.9-0.5,2.5c-0.2,0.7-0.4,1.3-0.6,1.8c-0.5,1.3-1.3,2.2-2.4,2.7c-1,0.5-2.5,0.7-4.5,0.7s-3.5-0.2-4.5-0.7
		s-1.8-1.4-2.4-2.7c-0.3-0.6-0.5-1.3-0.7-2.1c-0.2-0.8-0.4-1.8-0.5-3.1c-0.1-1.3-0.2-3-0.3-5.1c0-2.1-0.1-4.9-0.1-8.2
		c0-3.2,0-5.9,0.1-7.9c0-2,0.1-3.7,0.3-5c0.1-1.3,0.3-2.3,0.5-3s0.4-1.4,0.7-2c0.3-0.7,0.6-1.2,1-1.7c0.4-0.4,0.8-0.8,1.4-1.1
		c0.5-0.3,1.2-0.5,1.9-0.6c0.7-0.1,1.6-0.2,2.6-0.2s1.9,0.1,2.6,0.2s1.4,0.3,1.9,0.6c0.5,0.3,0.9,0.6,1.3,1c0.3,0.4,0.6,0.9,0.9,1.5
		c0.4,1,0.8,2.2,1,3.5s0.3,3,0.3,4.9c0,0.4,0,0.7,0,1c0,0.2,0,0.5,0,0.9h-5.6c0-0.2,0-0.4,0-0.7s0-0.6,0-1.2s0-1.2-0.1-1.9
		c-0.1-0.7-0.2-1.3-0.3-1.7c-0.2-0.9-0.9-1.3-2.1-1.3c-0.6,0-1.1,0.1-1.4,0.3c-0.3,0.2-0.5,0.6-0.7,1.2c-0.1,0.3-0.1,0.7-0.2,1.2
		c-0.1,0.4-0.1,1.1-0.2,2c0,0.9-0.1,2.2-0.1,3.7s0,3.6,0,6.1c0,2.7,0,4.8,0,6.4s0,2.8,0.1,3.8c0,0.9,0.1,1.6,0.2,2s0.1,0.8,0.2,1.2
		c0.2,0.6,0.4,1,0.7,1.2c0.3,0.2,0.8,0.3,1.5,0.3s1.3-0.1,1.6-0.4c0.3-0.2,0.5-0.7,0.7-1.3c0.1-0.3,0.1-0.8,0.2-1.3s0.1-1.1,0.1-1.7
		s0.1-1.2,0.1-1.8c0-0.6,0-1.1,0-1.7c0-0.7,0-1.3,0-1.7c0-0.4,0-0.8,0-1.1h-3.3L283.4,359.8L283.4,359.8z"/>
	<path class="st0" d="M309.8,374.4c-0.5,1.3-1.3,2.2-2.4,2.7c-1,0.5-2.5,0.7-4.5,0.7s-3.5-0.2-4.5-0.7s-1.8-1.4-2.3-2.7
		c-0.3-0.6-0.5-1.3-0.7-2.1c-0.2-0.8-0.4-1.8-0.5-3.1c-0.1-1.3-0.2-3-0.3-5.1c0-2.1-0.1-4.8-0.1-8.1c0-3.3,0-6,0.1-8
		c0-2.1,0.1-3.7,0.3-5c0.1-1.3,0.3-2.3,0.5-3s0.4-1.4,0.7-2.1c0.5-1.3,1.3-2.2,2.3-2.7s2.5-0.7,4.5-0.7s3.4,0.2,4.5,0.7
		c1,0.5,1.8,1.4,2.4,2.7c0.3,0.7,0.5,1.4,0.7,2.1s0.3,1.8,0.5,3c0.1,1.3,0.2,3,0.3,5c0.1,2.1,0.1,4.7,0.1,8s0,6-0.1,8.1
		s-0.2,3.8-0.3,5.1c-0.1,1.3-0.3,2.3-0.5,3.1S310,373.8,309.8,374.4z M304.9,369.2c0.1-0.4,0.2-0.8,0.2-1.2c0.1-0.5,0.1-1.2,0.1-2.1
		s0.1-2.2,0.1-3.7s0-3.6,0-6.2s0-4.7,0-6.3c0-1.6,0-2.8-0.1-3.7c0-0.9-0.1-1.6-0.1-2c0-0.5-0.1-0.9-0.2-1.2
		c-0.1-0.5-0.3-0.9-0.6-1.1c-0.3-0.2-0.7-0.3-1.3-0.3c-0.6,0-1.1,0.1-1.4,0.3c-0.3,0.2-0.5,0.6-0.6,1.1c-0.1,0.4-0.2,0.8-0.2,1.2
		c-0.1,0.4-0.1,1.1-0.2,2c0,0.9-0.1,2.2-0.1,3.8c0,1.6,0,3.7,0,6.3c0,2.6,0,4.7,0,6.2c0,1.6,0,2.8,0.1,3.7c0,0.9,0.1,1.6,0.2,2
		c0.1,0.5,0.1,0.9,0.2,1.2c0.1,0.5,0.3,0.9,0.6,1.1c0.3,0.2,0.7,0.3,1.4,0.3c0.6,0,1.1-0.1,1.3-0.3
		C304.6,370.1,304.8,369.7,304.9,369.2z"/>
	<path class="st0" d="M322.3,377.1v-41.9h9.2c1.4,0,2.5,0.2,3.4,0.6s1.7,1,2.2,1.9c0.6,0.9,1,2,1.2,3.5c0.2,1.4,0.4,3.2,0.4,5.4
		c0,1.6,0,2.9-0.1,3.9s-0.2,1.8-0.4,2.4c-0.2,0.6-0.4,1.1-0.7,1.5c-0.3,0.4-0.6,0.7-1.1,1v0.4c0.5,0.3,0.9,0.7,1.3,1
		s0.6,0.8,0.8,1.4c0.2,0.6,0.4,1.6,0.5,2.8c0.1,1.2,0.1,2.9,0.1,5s-0.1,3.9-0.3,5.4c-0.2,1.4-0.6,2.6-1.2,3.5s-1.3,1.5-2.2,1.9
		c-0.9,0.4-2,0.6-3.4,0.6h-9.7L322.3,377.1L322.3,377.1z M330.6,353.1c0.4,0,0.8-0.1,1-0.2c0.3-0.2,0.5-0.5,0.6-0.9s0.3-1,0.3-1.7
		c0.1-0.7,0.1-1.7,0.1-2.9c0-1.4,0-2.4-0.1-3.2c-0.1-0.7-0.2-1.3-0.4-1.7s-0.4-0.6-0.7-0.7c-0.3-0.1-0.6-0.1-1-0.1H328v11.4
		L330.6,353.1L330.6,353.1z M330.9,370.5c0.4,0,0.8-0.1,1-0.2c0.3-0.1,0.5-0.4,0.6-0.8c0.2-0.4,0.3-1,0.4-1.7s0.1-1.7,0.1-2.8
		c0-1.3,0-2.4-0.1-3.3s-0.2-1.5-0.4-2c-0.2-0.5-0.4-0.8-0.6-1s-0.6-0.2-1-0.2h-2.7v12H330.9z"/>
	<path class="st0" d="M351.4,377.1l-0.7-10.5h-3.8l-0.7,10.5h-5.9l3.8-41.9h10l3.5,41.9H351.4z M349,342.1h-0.4l-1.4,17.9h3.3
		L349,342.1z"/>
	<path class="st0" d="M375.2,361.1c0.1,0.5,0.1,1,0.1,1.6c0,0.5,0,1.3,0,2.2c0,2.2-0.1,4.1-0.3,5.8c-0.2,1.6-0.6,3-1.2,4
		c-0.6,1.1-1.4,1.9-2.4,2.4s-2.4,0.8-4.1,0.8c-2.1,0-3.6-0.2-4.7-0.7s-1.9-1.4-2.4-2.7c-0.3-0.6-0.5-1.3-0.7-2.1
		c-0.2-0.8-0.4-1.9-0.5-3.3s-0.2-3.1-0.3-5.2c0-2.1-0.1-4.8-0.1-8c0-3.5,0-6.3,0.1-8.4s0.2-3.8,0.3-5c0.1-1.3,0.3-2.2,0.5-2.8
		c0.2-0.6,0.4-1.2,0.6-1.7c0.5-1.3,1.3-2.1,2.3-2.6s2.5-0.7,4.5-0.7c1.8,0,3.2,0.2,4.2,0.6s1.7,1.1,2.2,1.9
		c1.1,1.8,1.7,5.2,1.7,10.1c0,0.9,0,1.5,0,2c0,0.4,0,0.9-0.1,1.4h-5.6c0-0.4,0-0.8,0-1.2c0-0.4,0-1,0-1.7c0-1.3,0-2.3-0.1-3.3
		c-0.1-0.9-0.2-1.6-0.4-2c-0.2-0.4-0.4-0.6-0.6-0.8c-0.2-0.2-0.7-0.3-1.3-0.3c-0.6,0-1.1,0.1-1.4,0.3c-0.3,0.2-0.5,0.6-0.6,1.1
		c-0.1,0.4-0.2,0.8-0.2,1.2c-0.1,0.5-0.1,1.2-0.2,2.1c0,0.9-0.1,2.2-0.1,3.7s0,3.6,0,6.1s0,4.6,0,6.2s0,2.9,0.1,3.8
		c0,0.9,0.1,1.7,0.2,2.2s0.1,0.9,0.2,1.3c0.1,0.5,0.3,0.9,0.6,1.1c0.3,0.2,0.8,0.3,1.5,0.3c1.1,0,1.7-0.5,1.9-1.5
		c0.2-0.7,0.3-1.6,0.3-2.5c0-1,0.1-2.2,0.1-3.8c0-0.3,0-0.6,0-0.8s0-0.5,0-0.8h5.9V361.1z"/>
	<path class="st0" d="M389.7,377.1c-0.8-3-1.5-5.5-2-7.6s-1-3.8-1.4-5.3c-0.4-1.4-0.7-2.6-0.9-3.4c-0.2-0.8-0.4-1.5-0.5-2
		s-0.2-0.8-0.2-1s-0.1-0.4-0.1-0.5h-0.4c0,0.2,0.1,0.5,0.1,0.7c0,0.3,0,0.6,0,1s0,0.9,0,1.5s0,1.3,0,2.2v14.4h-6.1v-41.9h6.1v13.1
		c0,0.8,0,1.5,0,2.1c0,0.5,0,1,0,1.3c0,0.4,0,0.6,0,0.8c0,0.2,0,0.4,0,0.6h0.4c0-0.2,0.1-0.5,0.2-0.9s0.3-1.1,0.6-2.2
		c0.3-1.1,0.8-2.9,1.5-5.2c0.7-2.3,1.6-5.5,2.8-9.6h6.2v0.3l-5.8,18.8l6.2,22.6v0.2H389.7L389.7,377.1z"/>
</g>
</svg>
