<?xml version="1.0" encoding="utf-8"?>
<!-- Generator: Adobe Illustrator 20.0.0, SVG Export Plug-In . SVG Version: 6.00 Build 0)  -->
<svg version="1.1" id="Layer_1" xmlns="http://www.w3.org/2000/svg" xmlns:xlink="http://www.w3.org/1999/xlink" x="0px" y="0px"
	 viewBox="0 0 100 100" style="enable-background:new 0 0 100 100;" xml:space="preserve">
<style type="text/css">
	.st0{fill:#B51A1A;}
	.st1{fill:#FFFFFF;}
</style>
<g transform="matrix( 1.87542724609375, 0, 0, 1.87542724609375, -233.9,-292.85) ">
	<g>
		<g id="Layer5_0_MEMBER_0_FILL">
			<path class="st0" d="M177.6,183c0-7.2-2.6-13.3-7.7-18.3c-5.1-5.1-11.3-7.6-18.5-7.6c-7.2,0-13.4,2.5-18.5,7.6
				c-5.1,5.1-7.7,11.2-7.7,18.3s2.6,13.2,7.7,18.3c5.1,5.1,11.3,7.6,18.5,7.6c7.2,0,13.4-2.5,18.5-7.6
				C175,196.2,177.6,190.1,177.6,183z"/>
		</g>
	</g>
</g>
<g transform="matrix( 2.10369873046875, 0.3045501708984375, -0.3045501708984375, 2.10369873046875, -474.7,-616.6) ">
	<g>
		<g id="Layer5_0_MEMBER_2_MEMBER_0_FILL">
			<path class="st1" d="M300,273l-1.5,12.2c1.3-0.1,2.3-0.4,2.9-1.1c0.9-0.9,1.4-2.4,1.6-4.5c0.3-2.3,0.1-4-0.4-5
				C302.2,274,301.3,273.4,300,273z"/>
		</g>
	</g>
</g>
<g transform="matrix( 2.10369873046875, 0.3045501708984375, -0.3045501708984375, 2.10369873046875, -474.7,-616.6) ">
	<g>
		<g id="Layer5_0_MEMBER_2_MEMBER_1_MEMBER_0_FILL">
			<path class="st1" d="M297.2,272c-0.5-0.1-0.7,0.1-0.8,0.6l-1.5,12.2c-0.1,0.5,0.1,0.7,0.6,0.8l1.4,0.2c0.5,0.1,0.7-0.1,0.8-0.6
				l1.5-12.1c0.1-0.5-0.1-0.7-0.6-0.8L297.2,272z"/>
		</g>
	</g>
</g>
<g transform="matrix( 2.10369873046875, 0.3045501708984375, -0.3045501708984375, 2.10369873046875, -474.7,-616.6) ">
	<g>
		<g id="Layer5_0_MEMBER_2_MEMBER_1_MEMBER_1_FILL">
			<path class="st1" d="M302.6,272.1c0.1-0.5,0-0.8-0.5-0.9c-0.2-0.1-0.4-0.1-0.6,0c-0.2,0.1-0.3,0.3-0.3,0.5l-1.8,6.4
				c-0.1,0.5,0,0.8,0.5,0.9c0.2,0.1,0.4,0.1,0.6,0c0.2-0.1,0.3-0.3,0.3-0.5L302.6,272.1z"/>
		</g>
	</g>
</g>
<g transform="matrix( 2.10369873046875, 0.3045501708984375, -0.3045501708984375, 2.10369873046875, -474.7,-616.6) ">
	<g>
		<g id="Layer5_0_MEMBER_2_MEMBER_1_MEMBER_2_FILL">
			<path class="st1" d="M275.2,271.7l1.5,0c0.1-3.6,1.3-6.6,3.6-9.1c2.4-2.5,5.2-3.8,8.5-3.8c3.3,0,6.1,1.3,8.5,3.8
				c2.4,2.5,3.6,5.5,3.6,9.1l1.5,0c0-4-1.4-7.3-4-10.1c-2.9-3.1-6.1-4.6-9.6-4.6c-3.5,0-6.7,1.5-9.6,4.6
				C276.7,264.4,275.3,267.7,275.2,271.7z"/>
		</g>
	</g>
</g>
<g transform="matrix( 2.10369873046875, 0.3045501708984375, -0.3045501708984375, 2.10369873046875, -474.7,-616.6) ">
	<g>
		<g id="Layer5_0_MEMBER_2_MEMBER_1_MEMBER_3_FILL">
			<path class="st1" d="M275.8,271.2c-0.5,0.1-0.6,0.4-0.5,1l1.8,6.6c0.1,0.2,0.2,0.4,0.4,0.5c0.2,0.1,0.4,0.1,0.5,0
				c0.5-0.1,0.6-0.4,0.5-1l-1.8-6.5c0-0.2-0.1-0.4-0.4-0.5C276.2,271.1,276,271.1,275.8,271.2z"/>
		</g>
	</g>
</g>
<g transform="matrix( 2.10369873046875, 0.3045501708984375, -0.3045501708984375, 2.10369873046875, -474.7,-616.6) ">
	<g>
		<g id="Layer5_0_MEMBER_2_MEMBER_1_MEMBER_4_FILL">
			<path class="st1" d="M274.8,271.8c0.3,0.3,0.7,0.5,1.1,0.5s0.8-0.1,1.1-0.5c0.3-0.3,0.5-0.7,0.5-1.1c0-0.4-0.2-0.8-0.5-1.1
				c-0.3-0.3-0.7-0.5-1.1-0.5s-0.8,0.2-1.1,0.5c-0.3,0.3-0.5,0.7-0.5,1.1C274.4,271.1,274.5,271.5,274.8,271.8z"/>
		</g>
	</g>
</g>
<g transform="matrix( 2.10369873046875, 0.3045501708984375, -0.3045501708984375, 2.10369873046875, -474.7,-616.6) ">
	<g>
		<g id="Layer5_0_MEMBER_2_MEMBER_1_MEMBER_5_FILL">
			<path class="st1" d="M300.6,271.8c0.3,0.3,0.7,0.5,1.1,0.5c0.5,0,0.9-0.1,1.1-0.5c0.3-0.3,0.5-0.7,0.5-1.1c0-0.4-0.2-0.8-0.5-1.1
				c-0.3-0.3-0.7-0.5-1.1-0.5s-0.8,0.2-1.1,0.5c-0.3,0.3-0.5,0.7-0.5,1.1C300.1,271.1,300.3,271.5,300.6,271.8z"/>
		</g>
	</g>
</g>
<g transform="matrix( 1.9528045654296875, 0.8383331298828125, -0.8383331298828125, 1.9528045654296875, -279.1,-724.65) ">
	<g>
		<g id="Layer5_0_MEMBER_2_MEMBER_1_MEMBER_6_FILL">
			<path class="st1" d="M281.2,272.2c-0.2-0.1-0.3-0.2-0.5-0.2l-1.5,0.2c-0.2,0-0.4,0.1-0.5,0.3c-0.1,0.2-0.2,0.3-0.1,0.5l1.5,12.2
				c0.1,0.5,0.3,0.7,0.8,0.6l1.4-0.1c0.5-0.1,0.7-0.3,0.6-0.8l-1.5-12.2C281.5,272.4,281.4,272.3,281.2,272.2z"/>
		</g>
	</g>
</g>
<g transform="matrix( 1.9528045654296875, 0.8383331298828125, -0.8383331298828125, 1.9528045654296875, -278.95,-726.1) ">
	<g>
		<g id="Layer5_0_MEMBER_2_MEMBER_1_MEMBER_7_FILL">
			<path class="st1" d="M279.4,285.2l-1.6-12.2c-1.3,0.4-2.1,1-2.5,1.6c-0.6,1-0.8,2.7-0.5,5c0.3,2.2,0.8,3.7,1.7,4.5
				C277.2,284.8,278.2,285.1,279.4,285.2z"/>
		</g>
	</g>
</g>
<g transform="matrix( 1.87542724609375, 0, 0, 1.87542724609375, -785.35,-315.1) ">
	<g>
		<g id="Layer5_0_MEMBER_3_MEMBER_0_FILL">
			<path class="st1" d="M443,190.5l-0.1,0.2l-4,15.5c0,0.2,0,0.4,0,0.6l2,5c0.1,0.4,0.4,0.7,0.9,0.9c0.5,0.1,0.9,0,1.3-0.3l4.1-3.4
				c0.2-0.1,0.3-0.3,0.4-0.6l3.9-15.4c0.1-0.1,0-0.2-0.1-0.3l-1.7-1.5l-4.1,16l1,0.8c0.1,0.2,0.1,0.3,0,0.5l-2.3,1.7
				c-0.5-0.3-1.1-0.5-1.6-0.7c-0.5-0.1-1.1-0.2-1.8-0.2l-1.1-2.6c-0.1-0.2,0-0.3,0.1-0.3l1.4-0.3l4.1-15.9L443,190.5z"/>
		</g>
	</g>
</g>
<g transform="matrix( 1.87542724609375, 0, 0, 1.87542724609375, -785.35,-315.1) ">
	<g>
		<g id="Layer5_0_MEMBER_3_MEMBER_1_FILL">
			<path class="st1" d="M449,190.8l-3-0.8l-4.1,16l2.9,0.8L449,190.8z"/>
		</g>
	</g>
</g>
<g transform="matrix( 1.87542724609375, 0, 0, 1.87542724609375, -785.35,-315.1) ">
	<g>
		<g id="Layer5_0_MEMBER_3_MEMBER_2_FILL">
			<path class="st1" d="M448.5,212.1c0-0.3-0.1-0.5-0.5-0.5h-6c-0.3,0-0.5,0.2-0.5,0.5c0,0.3,0.1,0.5,0.5,0.5h6
				C448.4,212.6,448.5,212.4,448.5,212.1z"/>
		</g>
	</g>
</g>
</svg>
