<?xml version="1.0" encoding="utf-8"?>
<!-- Generator: Adobe Illustrator 20.0.0, SVG Export Plug-In . SVG Version: 6.00 Build 0)  -->
<svg version="1.1" id="Layer_1" xmlns="http://www.w3.org/2000/svg" xmlns:xlink="http://www.w3.org/1999/xlink" x="0px" y="0px"
	 viewBox="0 0 100 100" style="enable-background:new 0 0 100 100;" xml:space="preserve">
<style type="text/css">
	.st0{fill:#57AB33;}
	.st1{fill:#FFFFFF;}
</style>
<g transform="matrix( 1.8754425048828125, 0, 0, 1.8754425048828125, -359.8,-602.35) ">
	<g>
		<g id="Layer5_0_MEMBER_0_FILL">
			<path class="st0" d="M237.2,329.4c-5.2-5.1-11.4-7.6-18.6-7.6c-7.3,0-13.5,2.5-18.6,7.6c-5.2,5.1-7.8,11.2-7.8,18.4
				c0,7.2,2.6,13.3,7.8,18.4c5.2,5.1,11.4,7.6,18.6,7.6c7.3,0,13.5-2.5,18.6-7.6c5.1-5.1,7.7-11.2,7.7-18.4
				C244.9,340.7,242.3,334.5,237.2,329.4z"/>
		</g>
	</g>
</g>
<g transform="matrix( 1.8754425048828125, 0, 0, 1.8754425048828125, -136.6,-368.95) ">
	<g>
		<g id="Layer5_0_MEMBER_2_FILL">
			<path class="st1" d="M96.3,228.4c0.7,0.3,1.8,0.5,3.2,0.5c1.4,0,2.5-0.2,3.2-0.5c1-0.4,1.8-1,2.4-1.9c0.6-0.9,1-1.9,1-3.1v-4.1
				H92.9v4.1c0,1.1,0.3,2.1,0.9,3.1C94.5,227.4,95.3,228,96.3,228.4 M95,222c0-0.4,0.2-0.7,0.7-0.7c0.4,0,0.7,0.2,0.7,0.7
				c0,0.4-0.2,0.6-0.7,0.6S95,222.5,95,222 M98.7,222c0,0.4-0.2,0.6-0.7,0.6s-0.7-0.2-0.7-0.6c0-0.4,0.2-0.7,0.7-0.7
				C98.5,221.4,98.7,221.6,98.7,222 M100.2,222c0-0.4,0.2-0.7,0.7-0.7c0.4,0,0.6,0.2,0.6,0.7c0,0.4-0.2,0.6-0.6,0.6
				C100.4,222.7,100.2,222.5,100.2,222 M104.1,222c0,0.4-0.2,0.6-0.7,0.6s-0.7-0.2-0.7-0.6c0-0.4,0.2-0.7,0.7-0.7
				C103.9,221.4,104.1,221.6,104.1,222 M95,224.4c0-0.4,0.2-0.6,0.7-0.6s0.7,0.2,0.7,0.6c0,0.4-0.2,0.7-0.7,0.7S95,224.8,95,224.4
				 M98.7,224.4c0,0.4-0.2,0.7-0.7,0.7s-0.7-0.2-0.7-0.7c0-0.4,0.2-0.6,0.7-0.6S98.7,224,98.7,224.4 M100.2,224.4
				c0-0.4,0.2-0.6,0.7-0.6c0.4,0,0.6,0.2,0.6,0.6c0,0.4-0.2,0.7-0.6,0.7C100.4,225,100.2,224.8,100.2,224.4 M104.1,224.4
				c0,0.4-0.2,0.7-0.7,0.7s-0.7-0.2-0.7-0.7c0-0.4,0.2-0.6,0.7-0.6S104.1,224,104.1,224.4 M98.1,227.3c-0.4,0-0.7-0.2-0.7-0.7
				c0-0.4,0.2-0.6,0.7-0.6c0.4,0,0.7,0.2,0.7,0.6C98.7,227.1,98.5,227.3,98.1,227.3 M100.2,226.7c0-0.4,0.2-0.6,0.7-0.6
				c0.4,0,0.6,0.2,0.6,0.6c0,0.4-0.2,0.7-0.6,0.7C100.4,227.3,100.2,227.1,100.2,226.7 M107.7,214c-0.5,0-0.7,0.2-0.7,0.6v9.3
				c0,1.6-0.5,3-1.4,4.1c-0.9,1.1-1.9,1.6-3.1,1.7h-5.9c-1.2,0-2.2-0.6-3.2-1.7c-0.9-1.2-1.4-2.5-1.3-4.1v-9.3
				c0-0.4-0.2-0.6-0.7-0.6c-0.5,0-0.8,0.2-0.8,0.6v2.1c-0.2-0.1-0.4-0.2-0.7-0.2c-0.3,0-0.6,0.1-0.8,0.4c-0.2,0.2-0.3,0.5-0.3,0.8
				c0,0.3,0.1,0.6,0.3,0.9c0.2,0.2,0.5,0.4,0.8,0.4c0.3,0,0.5-0.1,0.7-0.3v5.2c0,2.2,0.7,4,1.9,5.4c1.1,1.3,2.5,1.9,4.1,1.9h1.8v8.9
				h-3.4c-0.4,0-0.7,0.2-0.7,0.6v0.8c0,0.4,0.2,0.7,0.7,0.7h9.2c0.4,0,0.7-0.2,0.7-0.7v-0.8c0-0.4-0.2-0.6-0.7-0.6h-3.4v-8.9h1.8
				c1.9,0,3.3-0.8,4.4-2.4c1-1.4,1.5-3.1,1.5-4.9v-5.1c0.2,0.1,0.3,0.2,0.5,0.2c0.3,0,0.6-0.1,0.8-0.4c0.2-0.2,0.3-0.5,0.3-0.9
				c0-0.3-0.1-0.6-0.3-0.8c-0.2-0.2-0.5-0.4-0.8-0.4c-0.2,0-0.4,0-0.5,0.1v-2.1C108.4,214.2,108.2,214,107.7,214 M105.2,208.4
				c-0.6-0.9-1.5-1.5-2.5-1.9c-0.9-0.3-2-0.5-3.3-0.5c-1.3,0-2.3,0.2-3.1,0.5c-1,0.4-1.8,1.1-2.5,1.9c-0.6,0.9-0.9,2-0.9,3.1v4.4
				h13.2v-4.4C106.1,210.4,105.8,209.4,105.2,208.4 M95.6,213.9c-0.4,0-0.7-0.2-0.7-0.6s0.2-0.6,0.7-0.6c0.4,0,0.7,0.2,0.7,0.6
				C96.3,213.7,96.1,213.9,95.6,213.9 M98.1,213.9c-0.4,0-0.7-0.2-0.7-0.6c0-0.4,0.2-0.6,0.7-0.6c0.4,0,0.7,0.2,0.7,0.6
				S98.5,213.9,98.1,213.9 M100.2,213.2c0-0.4,0.2-0.6,0.7-0.6c0.4,0,0.6,0.2,0.6,0.6s-0.2,0.6-0.6,0.6
				C100.4,213.9,100.2,213.7,100.2,213.2 M104.1,213.2c0,0.4-0.2,0.6-0.7,0.6c-0.4,0-0.7-0.2-0.7-0.6s0.2-0.6,0.7-0.6
				C103.9,212.6,104.1,212.8,104.1,213.2 M95.6,211.5c-0.4,0-0.7-0.2-0.7-0.7c0-0.4,0.2-0.6,0.7-0.6s0.7,0.2,0.7,0.6
				C96.3,211.3,96.1,211.5,95.6,211.5 M98.7,210.9c0,0.4-0.2,0.7-0.7,0.7s-0.7-0.2-0.7-0.7c0-0.4,0.2-0.6,0.7-0.6
				S98.7,210.5,98.7,210.9 M100.8,211.5c-0.4,0-0.7-0.2-0.7-0.7c0-0.4,0.2-0.6,0.7-0.6c0.4,0,0.6,0.2,0.6,0.6
				C101.5,211.3,101.3,211.5,100.8,211.5 M104.1,210.9c0,0.4-0.2,0.7-0.7,0.7s-0.7-0.2-0.7-0.7c0-0.4,0.2-0.6,0.7-0.6
				S104.1,210.5,104.1,210.9 M98.7,208.6c0,0.4-0.2,0.6-0.7,0.6s-0.7-0.2-0.7-0.6c0-0.4,0.2-0.7,0.7-0.7S98.7,208.2,98.7,208.6
				 M100.2,208.6c0-0.4,0.2-0.7,0.7-0.7c0.4,0,0.6,0.2,0.6,0.7c0,0.4-0.2,0.6-0.6,0.6C100.4,209.2,100.2,209,100.2,208.6z"/>
		</g>
	</g>
</g>
</svg>
