<?xml version="1.0" encoding="utf-8"?>
<!-- Generator: Adobe Illustrator 20.0.0, SVG Export Plug-In . SVG Version: 6.00 Build 0)  -->
<svg version="1.1" id="Layer_1" xmlns="http://www.w3.org/2000/svg" xmlns:xlink="http://www.w3.org/1999/xlink" x="0px" y="0px"
	 viewBox="0 0 100 100" style="enable-background:new 0 0 100 100;" xml:space="preserve">
<style type="text/css">
	.st0{fill:#0080BF;}
	.st1{fill:#FFFFFF;}
</style>
<g transform="matrix( 1.87542724609375, 0, 0, 1.87542724609375, -629.2,-466.7) ">
	<g>
		<g id="Layer5_0_MEMBER_0_FILL">
			<path class="st0" d="M362.2,249.5c-7.2,0-13.3,2.5-18.4,7.6s-7.6,11.2-7.6,18.4c0,7.2,2.5,13.4,7.6,18.5s11.2,7.6,18.4,7.6
				s13.4-2.5,18.5-7.6s7.6-11.3,7.6-18.5s-2.5-13.3-7.6-18.4C375.5,252,369.4,249.5,362.2,249.5z"/>
		</g>
	</g>
</g>
<g>
	<g transform="matrix( 1.87542724609375, 0, 0, 1.87542724609375, -629.2,-465.6) ">
		<g>
			<g id="Layer5_0_MEMBER_2_MEMBER_0_FILL">
				<path class="st1" d="M349.4,268.6c-0.1,0-1.5,2.1-4.3,6.4c-2.7,4.3-4.1,6.5-4.1,6.5c-0.1,0.1-0.1,0.3,0.1,0.4
					c0.1,0.2,0.2,0.3,0.4,0.3h18.6l0.1,0.1c0.3,0.3,1.1,0.5,2.6,0.5s2.3-0.2,2.6-0.5c0,0,0.1-0.1,0.2-0.1h17.9
					c0.2,0,0.4-0.1,0.5-0.3c0.1-0.2,0.1-0.3,0-0.5c-0.3-0.5-1.9-2.7-4.8-6.5c-3.1-4.2-4.7-6.3-4.9-6.3H349.4z"/>
			</g>
		</g>
	</g>
	<g transform="matrix( 1.87542724609375, 0, 0, 1.87542724609375, -629.2,-465.6) ">
		<g>
			<g id="Layer5_0_MEMBER_2_MEMBER_1_FILL">
				<path class="st0" d="M343,277.9c0.8,1.1,0.8,2.2-0.1,3.3l17.9-0.1c0.5-0.7,1.2-1,2-1s1.4,0.3,2,0.9c6.5,0.1,12.3,0.1,17.3,0.1
					c-0.4-0.5-0.6-1.1-0.7-1.8c0-0.7,0.1-1.3,0.3-1.9c-3.2-6.5-5.7-11.3-7.4-14.6c-0.1,0-2.3,0.2-6.5,0.5c-2.9,0.2-5,1.1-6.3,2.8
					c-1.4-1.5-3.3-2.4-5.7-2.8c-2.7-0.1-4.7-0.4-6.1-0.8C348.3,266,346,271.1,343,277.9z"/>
			</g>
		</g>
	</g>
	<g transform="matrix( 1.87542724609375, 0, 0, 1.87542724609375, -629.2,-465.6) ">
		<g>
			<g id="Layer5_0_MEMBER_2_MEMBER_2_FILL">
				<path class="st0" d="M380.6,275c-1.3,0.8-4.3,1.3-9.1,1.3c-4.1,0-7,1.2-8.8,3.5c1.8-1.4,4.5-2.1,8.1-1.9c4.8,0.2,8.5,0,10.9-0.7
					C381.2,276.3,380.8,275.5,380.6,275z"/>
			</g>
		</g>
	</g>
	<g transform="matrix( 1.87542724609375, 0, 0, 1.87542724609375, -629.2,-465.6) ">
		<g>
			<g id="Layer5_0_MEMBER_2_MEMBER_3_FILL">
				<path class="st0" d="M362.7,279.8c-1.7-2.3-4.8-3.4-9.2-3.3c-4.9,0.1-8.1-0.3-9.4-1.1l-1,2.5c2.5,0.7,6.3,0.8,11.2,0.4
					C358.1,277.8,360.9,278.4,362.7,279.8z"/>
			</g>
		</g>
	</g>
	<g transform="matrix( 1.87542724609375, 0, 0, 1.87542724609375, -629.2,-465.6) ">
		<g>
			<g id="Layer5_0_MEMBER_2_MEMBER_4_FILL">
				<path class="st1" d="M349.6,262.3l-0.1,0.2c-0.9,2.3-2,4.9-3.4,7.7L344,275l-0.1,0.1v0.1l-0.1,0.1l-0.1,0.1l-1,2.3
					c-0.1,0.3-0.1,0.5,0,0.6c0.3,0.4,0.5,0.9,0.5,1.4c0,0.4-0.2,0.9-0.5,1.5c-0.1,0.1-0.1,0.2-0.1,0.3c0,0.1,0.1,0.2,0.2,0.2
					l17.9-0.1l0.2-0.1l0.3-0.3c0.5-0.4,1-0.6,1.5-0.6s1,0.2,1.5,0.5l0.3,0.3l0.2,0.1l8.5,0.1c2.8,0.1,5.8,0.1,8.9,0
					c0.3,0,0.4-0.1,0.2-0.4c-0.4-0.4-0.5-0.9-0.5-1.5c-0.1-0.7,0-1.3,0.2-1.9c0-0.1,0-0.3-0.1-0.5l-7.4-14.4l-0.1-0.2l-0.2,0.1
					c-0.3,0.1-0.9,0.2-1.6,0.3c-0.5,0.1-1.4,0.1-2.6,0.1c-2.1,0-3.6,0.2-4.6,0.4c-1.7,0.4-3,1.1-4,2.3c-1.1-1.1-2.4-1.8-3.9-2.2
					c-0.9-0.3-2.3-0.5-4.1-0.7H353c-1.5-0.1-2.6-0.3-3.3-0.5L349.6,262.3 M349.9,262.9c0.4,0.1,1.5,0.3,3.2,0.4l0.4,0.1
					c1.9,0.1,3.2,0.3,4.1,0.6c1.5,0.4,2.7,1.2,3.8,2.3l0.2,0.2l0.2-0.3c0.9-1.2,2.2-1.9,3.9-2.3c0.9-0.3,2.5-0.4,4.5-0.4l2.6-0.1
					c0.7-0.1,1.3-0.2,1.6-0.3c1.4,2.7,3.3,6.6,5.7,11.9c-0.9,0.5-2,0.8-3.3,0.9c-0.7,0.1-2,0.1-3.7,0.1h-0.3c-2.4,0-4.1,0.1-5.3,0.4
					c-1.9,0.5-3.5,1.5-4.7,2.9c-1.1-1.4-2.6-2.3-4.4-2.8c-1.3-0.3-3-0.5-5.2-0.4l-1.1,0.1c-1.8,0.1-3.1,0.1-3.9,0
					c-1.4-0.1-2.5-0.4-3.4-0.9c1.3-3.2,1.9-4.9,2-5C347.8,267.7,348.9,265.3,349.9,262.9 M363.4,279.9l-0.4-0.1
					c1.2-0.9,2.5-1.5,4.1-1.6c0.9-0.1,2.5-0.2,4.7-0.1h0.9c3.3,0.1,6.1-0.1,8.4-0.6c-0.1,0.5-0.2,1-0.2,1.7
					c-1.5,0.2-2.9,0.3-4.1,0.3c-1.3,0-2.6-0.1-4-0.2l-1.1-0.1C367.3,278.9,364.6,279.1,363.4,279.9 M362.4,279.9l-0.5,0.2
					c-1.1-0.9-3.9-1.2-8.3-0.7l-0.5,0.1c-1.8,0.2-3.4,0.3-4.6,0.3c-1.6,0-3-0.1-4.3-0.2c0-0.4-0.1-0.8-0.3-1.2
					c2.5,0.5,5.6,0.6,9.3,0.3h0.3c2.3-0.2,3.9-0.3,4.9-0.2C359.9,278.5,361.3,279,362.4,279.9 M361.4,280.3l-0.4,0.3l-0.3,0.3
					l-17,0.1c0.1-0.3,0.3-0.6,0.3-0.9c1.3,0.1,2.7,0.2,4.4,0.2c2-0.1,3.6-0.2,4.6-0.3l0.5-0.1C357.5,279.4,360.1,279.6,361.4,280.3
					 M361,278.4c-1-0.4-2.2-0.7-3.5-0.7c-0.7,0-2.1,0.1-4.1,0.2l-0.3,0.1c-2.1,0.2-3.5,0.3-4.4,0.2c-1.7,0-3.4-0.2-5-0.6l0.8-1.9
					c0.9,0.5,2.1,0.9,3.5,1c0.7,0,2,0,4,0c0.2,0,0.6-0.1,1.1-0.1C356.7,276.6,359.3,277.2,361,278.4 M380.2,275.5l0.9,1.6
					c-1.5,0.4-2.9,0.6-4.5,0.6c-0.8,0-2.1,0-3.9-0.1l-0.8-0.1c-3.5-0.1-6,0.1-7.5,0.8c1.1-0.8,2.4-1.4,4-1.6
					c0.9-0.1,2.4-0.2,4.4-0.2h0.3c1.9,0,3.1,0,3.8,0C378.1,276.4,379.2,276,380.2,275.5 M376.7,280c1.6,0,3-0.1,4.2-0.2l0.4,1
					l-16.4-0.1L364,280c1.4-0.6,3.9-0.7,7.4-0.4l1.2,0.1C374.1,280,375.5,280,376.7,280z"/>
			</g>
		</g>
	</g>
	<g transform="matrix( 1.87542724609375, 0, 0, 1.87542724609375, -629.2,-465.6) ">
		<g>
			<g id="Layer5_0_MEMBER_2_MEMBER_5_FILL">
				<path class="st0" d="M361.5,265.1l1.2,14.7c2.1-2.4,5.3-3.5,9.7-3.4c4.7,0.1,7.8-0.4,9.3-1.6l-8.2-14.2
					c-0.8,0.7-2.8,1.2-6.1,1.4C364.5,262.3,362.5,263.3,361.5,265.1z"/>
			</g>
		</g>
	</g>
	<g transform="matrix( 1.87542724609375, 0, 0, 1.87542724609375, -629.2,-465.6) ">
		<g>
			<g id="Layer5_0_MEMBER_2_MEMBER_6_FILL">
				<path class="st0" d="M352.8,276.5c4.5-0.2,7.8,0.9,9.9,3.2l-1.2-14.7c-1.1-1.8-3.1-2.8-6-3.1c-3.3-0.3-5.3-0.7-6.1-1.4
					l-6.1,14.5C344.8,276.3,348,276.8,352.8,276.5z"/>
			</g>
		</g>
	</g>
	<g transform="matrix( 1.87542724609375, 0, 0, 1.87542724609375, -629.2,-465.6) ">
		<g>
			<g id="Layer5_0_MEMBER_2_MEMBER_7_FILL">
				<path class="st1" d="M349.5,260.4c-0.2-0.2-0.3-0.1-0.4,0.1l-6.1,14.6c0,0.1,0,0.2,0.1,0.3c1.1,0.9,2.4,1.4,4,1.6
					c0.9,0.1,2.4,0.1,4.6,0l1.4-0.1c1.9-0.1,3.5,0,4.7,0.3c1.6,0.4,3,1.1,4.2,2.3l0.4,0.4c0.2,0.2,0.3,0.2,0.5,0.1
					c1.4-1.6,3.1-2.6,5.1-3.1c1.2-0.3,3.1-0.3,5.6-0.2c2,0.1,3.4,0.1,4.4-0.1c1.6-0.2,2.9-0.7,3.9-1.6c0.1-0.1,0.1-0.2,0.1-0.4
					l-8.2-14.2c-0.1-0.2-0.2-0.2-0.4-0.1c-0.5,0.5-1.3,0.8-2.2,1c-0.5,0.1-1.4,0.2-2.7,0.3c-1.6,0.1-2.7,0.3-3.4,0.4
					c-1.3,0.3-2.3,0.9-3.1,1.7l-0.5,0.8c-0.8-1.2-1.8-2-3.2-2.4c-0.8-0.3-2.1-0.4-3.9-0.5l-1.3-0.1
					C351.5,261.5,350.3,261.1,349.5,260.4 M349.6,261.5c0.8,0.6,1.9,0.9,3.5,1l1.1,0.1c1.7,0.1,3,0.3,3.8,0.5c1.3,0.4,2.3,1.3,3,2.5
					l1.1,12.8l-0.1-0.1c-1.2-1.1-2.7-1.8-4.3-2.1c-1.2-0.3-2.7-0.4-4.6-0.3l-1.3,0.1c-2,0.1-3.4,0.1-4.1,0.1
					c-1.4-0.1-2.6-0.6-3.6-1.3L349.6,261.5 M361.9,265.5l0.1-0.2c0.7-1.1,1.7-1.9,2.9-2.3c0.7-0.2,1.9-0.4,3.6-0.5
					c2.7-0.1,4.2-0.5,4.7-1l7.5,13c-0.9,0.7-2.1,1.2-3.3,1.3c-0.8,0.1-2.1,0.1-4-0.1c-2.5-0.1-4.3,0-5.3,0.2c-2,0.3-3.7,1.1-5.1,2.4
					L361.9,265.5z"/>
			</g>
		</g>
	</g>
	<g transform="matrix( 1.87542724609375, 0, 0, 1.87542724609375, -221.05,-609.25) ">
		<g>
			<g id="Layer5_0_MEMBER_3_MEMBER_4_FILL">
				<path class="st1" d="M155.4,351.2c-0.2-0.2-0.6-0.6-1.4-1c-0.2-0.1-0.4-0.1-0.5,0.2c-0.1,0.2-0.1,0.4,0.2,0.5
					c0.7,0.4,1,0.7,1.1,0.8l0.3,0.5l0.1,0.5c0,0.2-0.2,0.6-0.5,1.2l-0.4,0.9c-0.1,0.3-0.2,0.5-0.2,0.9c0,0.3,0.1,0.6,0.2,0.9
					c0.1,0.3,0.3,0.6,0.6,0.8c0.2,0.2,0.6,0.4,1.2,0.7l0.4,0.2l0.7,0.4l0.5,0.4l0.4,0.5l0.2,0.6c0.1,0.2,0.1,0.4,0,0.5
					c0,0.2-0.1,0.4-0.2,0.7c0,0.1-0.2,0.5-0.5,1.1c-0.1,0.3-0.1,0.4,0.1,0.5c0.3,0.1,0.4,0.1,0.5-0.1c0.4-0.7,0.6-1.1,0.7-1.3
					l0.2-0.8V360l-0.3-0.8l-0.5-0.7c-0.1-0.2-0.4-0.4-0.7-0.5l-1.1-0.7c-0.5-0.3-0.9-0.4-1-0.5c-0.2-0.2-0.3-0.4-0.4-0.5
					c-0.1-0.2-0.2-0.4-0.2-0.6l0.1-0.5l0.4-0.7l0.1-0.1c0.4-0.7,0.6-1.2,0.7-1.5c0-0.4,0-0.7-0.1-0.9
					C155.7,351.6,155.5,351.3,155.4,351.2z"/>
			</g>
		</g>
	</g>
</g>
</svg>
