<?xml version="1.0" encoding="utf-8"?>
<!-- Generator: Adobe Illustrator 20.0.0, SVG Export Plug-In . SVG Version: 6.00 Build 0)  -->
<svg version="1.1" id="Layer_1" xmlns="http://www.w3.org/2000/svg" xmlns:xlink="http://www.w3.org/1999/xlink" x="0px" y="0px"
	 viewBox="0 0 100 100" style="enable-background:new 0 0 100 100;" xml:space="preserve">
<style type="text/css">
	.st0{fill:#EAA62F;}
	.st1{fill:#FFFFFF;}
</style>
<g transform="matrix( 1.87542724609375, 0, 0, 1.87542724609375, -233.9,-292.85) ">
	<g>
		<g id="Layer5_0_MEMBER_0_FILL">
			<path class="st0" d="M177.6,183c0-7.2-2.6-13.3-7.7-18.3c-5.1-5.1-11.3-7.6-18.5-7.6s-13.4,2.5-18.5,7.6
				c-5.1,5.1-7.7,11.2-7.7,18.3s2.6,13.2,7.7,18.3c5.1,5.1,11.3,7.6,18.5,7.6s13.4-2.5,18.5-7.6S177.6,190.1,177.6,183z"/>
		</g>
	</g>
</g>
<g>
	<g transform="matrix( 2.10369873046875, 0.3045501708984375, -0.3045501708984375, 2.10369873046875, -474.7,-616.6) ">
		<g>
			<g id="Layer5_0_MEMBER_2_MEMBER_0_FILL">
				<path class="st1" d="M301.1,277.8l1.6,10.1c1-0.3,1.7-0.8,2.1-1.5c0.5-0.9,0.6-2.2,0.3-4c-0.3-1.9-0.8-3.2-1.5-3.9
					C303,278.1,302.2,277.8,301.1,277.8z"/>
			</g>
		</g>
	</g>
	<g transform="matrix( 2.10369873046875, 0.3045501708984375, -0.3045501708984375, 2.10369873046875, -474.7,-616.6) ">
		<g>
			<g id="Layer5_0_MEMBER_2_MEMBER_1_MEMBER_0_FILL">
				<path class="st1" d="M298.9,277.4c-0.4,0.1-0.6,0.3-0.5,0.7l1.5,10.1c0.1,0.4,0.3,0.6,0.7,0.5l1.2-0.2c0.4-0.1,0.6-0.3,0.5-0.7
					l-1.5-10.1c-0.1-0.4-0.3-0.6-0.7-0.5L298.9,277.4z"/>
			</g>
		</g>
	</g>
	<g transform="matrix( 2.10369873046875, 0.3045501708984375, -0.3045501708984375, 2.10369873046875, -474.7,-616.6) ">
		<g>
			<g id="Layer5_0_MEMBER_2_MEMBER_1_MEMBER_1_FILL">
				<path class="st1" d="M304.5,272.2c0.1-0.6-0.2-0.9-0.7-1c-0.2-0.1-0.4,0-0.6,0.1s-0.3,0.3-0.3,0.6l-1.1,7.4
					c-0.1,0.6,0.2,0.9,0.7,1c0.2,0,0.4,0,0.6-0.1s0.3-0.3,0.3-0.6L304.5,272.2z"/>
			</g>
		</g>
	</g>
	<g transform="matrix( 2.10369873046875, 0.3045501708984375, -0.3045501708984375, 2.10369873046875, -474.7,-616.6) ">
		<g>
			<g id="Layer5_0_MEMBER_2_MEMBER_1_MEMBER_2_FILL">
				<path class="st1" d="M273.8,275.8l1.7-0.2c-0.4-4,0.5-7.6,2.8-10.7s5.3-4.9,9-5.4s7,0.5,10,3s4.8,5.7,5.4,9.7l1.7-0.3
					c-0.6-4.4-2.6-8-6-10.7c-3.7-3-7.5-4.3-11.4-3.8s-7.3,2.7-10.1,6.5C274.4,267.4,273.4,271.3,273.8,275.8z"/>
			</g>
		</g>
	</g>
	<g transform="matrix( 2.10369873046875, 0.3045501708984375, -0.3045501708984375, 2.10369873046875, -474.7,-616.6) ">
		<g>
			<g id="Layer5_0_MEMBER_2_MEMBER_1_MEMBER_3_FILL">
				<path class="st1" d="M274.5,275.2c-0.5,0.2-0.6,0.6-0.4,1.2l2.9,7.1c0.1,0.2,0.3,0.4,0.5,0.5s0.4,0.1,0.6,0
					c0.5-0.2,0.6-0.6,0.4-1.2l-2.9-7.1c-0.1-0.3-0.2-0.4-0.5-0.5C274.9,275,274.7,275,274.5,275.2z"/>
			</g>
		</g>
	</g>
	<g transform="matrix( 2.10369873046875, 0.3045501708984375, -0.3045501708984375, 2.10369873046875, -474.7,-616.6) ">
		<g>
			<g id="Layer5_0_MEMBER_2_MEMBER_1_MEMBER_4_FILL">
				<path class="st1" d="M273.4,276c0.4,0.3,0.9,0.4,1.4,0.3s0.9-0.3,1.2-0.7c0.3-0.4,0.5-0.9,0.4-1.4s-0.3-0.9-0.7-1.2
					c-0.4-0.3-0.8-0.5-1.3-0.4s-0.9,0.3-1.2,0.7c-0.3,0.4-0.4,0.8-0.3,1.3C272.8,275.3,273,275.7,273.4,276z"/>
			</g>
		</g>
	</g>
	<g transform="matrix( 2.10369873046875, 0.3045501708984375, -0.3045501708984375, 2.10369873046875, -474.7,-616.6) ">
		<g>
			<g id="Layer5_0_MEMBER_2_MEMBER_1_MEMBER_5_FILL">
				<path class="st1" d="M302.3,272.3c0.4,0.3,0.8,0.4,1.3,0.3s0.9-0.3,1.2-0.7c0.3-0.4,0.4-0.8,0.3-1.4c-0.1-0.5-0.3-0.9-0.7-1.2
					c-0.4-0.3-0.9-0.5-1.4-0.4s-0.9,0.3-1.2,0.7c-0.3,0.4-0.5,0.8-0.4,1.3S301.9,272,302.3,272.3z"/>
			</g>
		</g>
	</g>
	<g transform="matrix( 1.9528045654296875, 0.8383331298828125, -0.8383331298828125, 1.9528045654296875, -279.1,-724.65) ">
		<g>
			<g id="Layer5_0_MEMBER_2_MEMBER_1_MEMBER_6_FILL">
				<path class="st1" d="M279.7,281.3c-0.2-0.1-0.3-0.1-0.4,0l-1.1,0.5c-0.1,0.1-0.2,0.2-0.3,0.4c-0.1,0.2-0.1,0.3,0,0.4l4.3,9.3
					c0.2,0.4,0.4,0.4,0.8,0.3l1.1-0.5c0.4-0.2,0.4-0.4,0.3-0.8l-4.3-9.3C280,281.4,279.9,281.3,279.7,281.3z"/>
			</g>
		</g>
	</g>
	<g transform="matrix( 1.9528045654296875, 0.8383331298828125, -0.8383331298828125, 1.9528045654296875, -278.95,-726.1) ">
		<g>
			<g id="Layer5_0_MEMBER_2_MEMBER_1_MEMBER_7_FILL">
				<path class="st1" d="M281.9,292.6l-4.2-9.3c-0.9,0.7-1.4,1.3-1.6,1.9c-0.2,0.9,0,2.3,0.8,4.1c0.7,1.7,1.6,2.7,2.5,3.2
					C280.1,292.8,280.9,292.9,281.9,292.6z"/>
			</g>
		</g>
	</g>
</g>
<path class="st1" d="M38.3,62.4c-3.3,3.7-4.8,7.4-4.7,11.5l0.3,9.2l7-0.2l-0.3-9.2c-0.1-4,3.3-7.4,7.5-10.8c-0.5-0.3-1-0.7-1.5-1
	l0,0c-1.5-1-3.1-2-4.6-3.1C40.7,60,39.4,61.1,38.3,62.4z M61.8,24.9l-6.7,12.4l3.5-0.1l0.1,3.8c0.1,4-3.3,7.4-7.6,10.8
	c0.5,0.3,1,0.7,1.5,1l0,0c1.5,1,3.1,2,4.6,3.1c1.4-1.1,2.6-2.3,3.8-3.6c3.3-3.7,4.8-7.4,4.7-11.5V37l3.5-0.1L61.8,24.9z M29,38.1
	l3.5-0.1l0.1,3.8c0.1,4,1.9,7.7,5.4,11.2c2.8,2.8,6.3,5.1,9.7,7.3c6.1,4,11.8,7.8,12,12.9l0.3,9.2l7-0.2L66.7,73
	c-0.1-4-1.9-7.7-5.4-11.2c-2.8-2.8-6.3-5.1-9.7-7.3c-6.1-4-11.8-7.8-12-12.9l-0.1-3.8l3.5-0.1l-7.4-11.9L29,38.1z"/>
</svg>
