<?xml version="1.0" encoding="utf-8"?>
<!-- Generator: Adobe Illustrator 20.0.0, SVG Export Plug-In . SVG Version: 6.00 Build 0)  -->
<svg version="1.1" id="Layer_1" xmlns="http://www.w3.org/2000/svg" xmlns:xlink="http://www.w3.org/1999/xlink" x="0px" y="0px"
	 viewBox="0 0 660 224" style="enable-background:new 0 0 660 224;" xml:space="preserve">
<style type="text/css">
	.st0{fill:#FFFFFF;}
</style>
<g>
	<g transform="matrix( 0.2419281005859375, 0, 0, 0.2419281005859375, -424,-68.35) ">
		<g>
			<g id="Layer0_0_MEMBER_1_FILL_1_">
				<path d="M2517.5,786.9c0-13-4.6-24.5-13.9-34.5c-9.3-10-20.3-15.4-33.1-16.2c-12.5,0.7-22.4,5-29.8,12.8
					c-7.3,7.6-11,17.6-11.3,29.8v-36.9c0-15.1-3.7-27.5-11.1-37.1c-8-10.2-18.9-15.3-32.9-15.3c-13.9,0-24.9,5.1-32.9,15.3
					c-7,9-10.7,20.6-11.1,34.7v-36c0-16-4.3-29.1-12.9-39.5c-9-10.9-21.1-16.4-36.1-16.4c-15,0-27,5.5-36,16.4
					c-8.1,9.7-12.3,21.9-12.9,36.5V486.8c0-16-4.3-29.1-12.9-39.5c-9-10.9-21.1-16.4-36.1-16.4c-15,0-27,5.5-36,16.4
					c-8.6,10.4-12.9,23.5-12.9,39.5v294.3l-40-49.1c-8.2-13.1-19.9-21.3-35.3-24.8c-15.3-3.4-29.5-1.1-42.6,7.1
					c-13.1,8.2-21.4,19.9-25,35.1c-3.6,15.2-1.2,29.4,6.9,42.5l134,219.1c1.7,2.8,5.7,9.6,11.8,20.5c4.5,8,8.3,14,11.5,18.1
					c9.1,12,20.3,18,33.5,18h265.9c13.1,0,25-6.1,35.5-18.2c10.3-11.8,15.4-24.6,15.4-38.3V786.9z"/>
			</g>
		</g>
	</g>
	<g>
		<path d="M254.7,81.4c0,12.4,5.2,18.7,15.7,18.7c1.9,0,3.7-0.2,5.3-0.5c1.7-0.4,3.7-0.9,6.1-1.8c1.9,4.2,3.2,8.6,3.9,13
			c-1.7,0.6-3.3,1.2-4.8,1.6c-1.5,0.4-2.9,0.7-4.2,0.9c-1.4,0.2-2.7,0.4-4,0.4s-2.7,0.1-4.1,0.1c-5,0-9.4-0.8-13.2-2.4
			c-3.8-1.6-7-3.9-9.5-6.7c-2.6-2.9-4.5-6.3-5.8-10.3c-1.3-4-1.9-8.3-1.9-13c0-4.7,0.7-9,2-13.1c1.3-4,3.3-7.5,5.9-10.4
			c2.6-2.9,5.7-5.2,9.5-6.9c3.8-1.6,8-2.5,12.8-2.5c2.8,0,5.5,0.2,8,0.6c2.5,0.4,5.3,1.2,8.4,2.5c-0.1,2.4-0.6,4.7-1.3,7
			c-0.8,2.3-1.6,4.2-2.4,5.9c-1.2-0.4-2.2-0.8-3.2-1.1c-1-0.3-1.9-0.5-2.8-0.7c-0.9-0.2-1.8-0.3-2.6-0.4c-0.9-0.1-1.8-0.1-2.8-0.1
			c-4.8,0-8.4,1.6-11,4.8C256,70.3,254.7,75.1,254.7,81.4z"/>
		<path d="M293.5,49.8c1.6-0.2,3-0.4,4.3-0.5c1.3-0.1,2.4-0.2,3.4-0.2c1.1,0,2.2,0.1,3.6,0.2c1.3,0.1,2.7,0.3,4.3,0.5v49.3h20.3
			c0.3,1.5,0.5,2.7,0.6,3.8c0.1,1.1,0.1,2.1,0.1,2.9c0,1,0,2-0.1,3.1c-0.1,1.1-0.3,2.4-0.6,3.9h-35.9V49.8z"/>
		<path d="M344.6,113.5c-2.2,0-4.8-0.3-7.8-0.8V49.8c1.6-0.2,3-0.4,4.3-0.5c1.3-0.1,2.4-0.2,3.4-0.2c1.1,0,2.2,0.1,3.6,0.2
			c1.3,0.1,2.7,0.3,4.3,0.5v62.8C349.2,113.2,346.6,113.5,344.6,113.5z"/>
		<path d="M377.7,81.4c0,12.4,5.2,18.7,15.7,18.7c1.9,0,3.7-0.2,5.3-0.5c1.7-0.4,3.7-0.9,6.1-1.8c1.9,4.2,3.2,8.6,3.9,13
			c-1.7,0.6-3.3,1.2-4.8,1.6c-1.5,0.4-2.9,0.7-4.2,0.9c-1.4,0.2-2.7,0.4-4,0.4s-2.7,0.1-4.1,0.1c-5,0-9.4-0.8-13.2-2.4
			s-7-3.9-9.5-6.7c-2.6-2.9-4.5-6.3-5.8-10.3c-1.3-4-1.9-8.3-1.9-13c0-4.7,0.7-9,2-13.1c1.3-4,3.3-7.5,5.9-10.4
			c2.6-2.9,5.7-5.2,9.5-6.9c3.8-1.6,8-2.5,12.8-2.5c2.8,0,5.5,0.2,8,0.6c2.5,0.4,5.3,1.2,8.4,2.5c-0.1,2.4-0.6,4.7-1.3,7
			c-0.8,2.3-1.6,4.2-2.4,5.9c-1.2-0.4-2.2-0.8-3.2-1.1c-1-0.3-1.9-0.5-2.8-0.7c-0.9-0.2-1.8-0.3-2.6-0.4c-0.9-0.1-1.8-0.1-2.8-0.1
			c-4.8,0-8.4,1.6-11,4.8C379,70.3,377.7,75.1,377.7,81.4z"/>
		<path d="M416.5,49.8c1.6-0.2,3-0.4,4.3-0.5c1.3-0.1,2.4-0.2,3.4-0.2c1.1,0,2.2,0.1,3.6,0.2c1.3,0.1,2.7,0.3,4.3,0.5v62.8
			c-3.1,0.5-5.7,0.8-7.7,0.8c-2.2,0-4.8-0.3-7.8-0.8V49.8z M450.4,80.2l16.5,32.5c-1,0.2-2.3,0.4-4,0.6c-1.7,0.1-3.2,0.2-4.5,0.2
			c-1.7,0-3.3-0.1-4.9-0.2c-1.6-0.1-2.9-0.3-4-0.6L433.3,81l14.9-31.2c1.8-0.3,3.3-0.5,4.6-0.6c1.3-0.1,2.6-0.1,4-0.1
			c0.6,0,1.4,0,2.2,0c0.8,0,1.6,0.1,2.4,0.2s1.6,0.2,2.3,0.3s1.4,0.2,1.9,0.2L450.4,80.2z"/>
		<path d="M489.9,81.5c0-4.7,0.5-9,1.6-13.1c1.1-4,2.8-7.5,5-10.4c2.3-2.9,5.1-5.2,8.6-6.9c3.5-1.7,7.6-2.5,12.5-2.5
			c4.8,0,8.9,0.8,12.4,2.5c3.5,1.7,6.3,4,8.6,6.9c2.3,2.9,3.9,6.4,5,10.4c1.1,4,1.6,8.4,1.6,13.1c0,4.7-0.5,9-1.6,13
			c-1.1,4-2.8,7.4-5,10.3c-2.3,2.9-5.1,5.2-8.6,6.8c-3.5,1.6-7.6,2.4-12.4,2.4c-4.8,0-9-0.8-12.5-2.4c-3.5-1.6-6.4-3.9-8.6-6.8
			c-2.3-2.9-3.9-6.3-5-10.3S489.9,86.2,489.9,81.5z M528.8,81.5c0-12.8-3.7-19.2-11.2-19.2c-7.6,0-11.4,6.4-11.4,19.2
			c0,6.4,0.9,11.2,2.8,14.3c1.8,3.1,4.7,4.7,8.6,4.7C525.1,100.5,528.8,94.2,528.8,81.5z"/>
		<path d="M554.1,49.8c1.3-0.2,2.5-0.4,3.5-0.5c1.1-0.1,2.1-0.2,3.1-0.2c1.1,0,2.2,0.1,3.3,0.2c1.1,0.1,2.1,0.3,2.9,0.5l20.4,34.5
			V49.8c1.5-0.2,2.9-0.4,4.1-0.5c1.2-0.1,2.3-0.2,3.3-0.2c1,0,2.1,0.1,3.2,0.2c1.1,0.1,2.3,0.3,3.5,0.5l-0.1,62.8
			c-0.6,0.2-1.4,0.4-2.6,0.5c-1.1,0.2-2.3,0.3-3.6,0.3c-1.5,0-2.8-0.1-4-0.3c-1.2-0.2-2-0.4-2.6-0.5l-20.5-34.3v34.3
			c-2.6,0.5-4.9,0.8-7,0.8c-2.1,0-4.5-0.3-7.1-0.8V49.8z"/>
		<path d="M248.7,139.4h-12.3c-0.4-2.1-0.7-4.1-0.7-5.8c0-1.6,0.2-3.5,0.7-5.7h37.7c0.2,1.1,0.3,2.1,0.4,3c0.1,0.9,0.1,1.8,0.1,2.7
			c0,1.6-0.2,3.6-0.6,5.8h-12.3v41.3c-2.6,0.4-4.8,0.7-6.5,0.7c-1.8,0-4-0.2-6.6-0.7V139.4z"/>
		<path d="M312.9,181.4c-1.8,0-4-0.2-6.6-0.7v-21.5h-13v21.5c-2.6,0.4-4.8,0.7-6.5,0.7c-1.8,0-4-0.2-6.6-0.7v-52.6
			c1.3-0.2,2.5-0.3,3.6-0.4c1.1-0.1,2-0.1,2.9-0.1c0.9,0,1.9,0,3,0.1c1.1,0.1,2.3,0.2,3.6,0.4v19.5h13v-19.5
			c1.3-0.2,2.5-0.3,3.6-0.4c1.1-0.1,2-0.1,2.9-0.1c0.9,0,1.9,0,3,0.1c1.1,0.1,2.3,0.2,3.6,0.4v52.6
			C316.7,181.2,314.6,181.4,312.9,181.4z"/>
		<path d="M356.1,153.3c0,1.7-0.2,3.6-0.7,5.7h-14.2v10.5h18.5c0.4,2.1,0.7,3.9,0.7,5.6c0,1.8-0.2,3.8-0.7,5.8h-31.5v-53h31.1
			c0.2,1.1,0.3,2.1,0.4,3c0.1,0.9,0.1,1.8,0.1,2.7c0,1.6-0.2,3.6-0.6,5.8h-18.1v8.1h14.2C355.9,149.7,356.1,151.6,356.1,153.3z"/>
		<path d="M383.2,128.1c1.1-0.1,2.9-0.4,5.2-0.6c2.3-0.3,5.3-0.4,8.8-0.4c2.6,0,5.2,0.2,7.9,0.7s5,1.4,7.2,2.8
			c2.1,1.4,3.9,3.3,5.2,5.7s2,5.7,2,9.6c0,3.5-0.5,6.4-1.6,8.7c-1.1,2.3-2.5,4.2-4.2,5.5c-1.7,1.4-3.7,2.4-6,2.9
			c-2.2,0.6-4.5,0.9-6.9,0.9c-0.9,0-1.9,0-2.8-0.1c-1-0.1-1.6-0.2-2-0.3v17.2c-1.3,0.2-2.4,0.4-3.5,0.5c-1,0.1-2,0.1-2.9,0.1
			c-1.7,0-3.9-0.2-6.4-0.7V128.1z M396,153c0.2,0.1,0.7,0.2,1.3,0.2c0.6,0,1.2,0.1,1.8,0.1c2.1,0,3.8-0.6,5.2-1.8
			c1.3-1.2,2-3.1,2-5.6c0-1.5-0.2-2.7-0.6-3.7c-0.4-1-1-1.8-1.7-2.4c-0.7-0.6-1.6-1-2.6-1.3c-1-0.2-2-0.4-3.1-0.4c-0.3,0-0.6,0-1,0
			c-0.4,0-0.8,0-1.2,0.1V153z"/>
		<path d="M432.9,181.4c-1.8,0-4-0.2-6.6-0.7v-52.6c1.3-0.2,2.5-0.3,3.6-0.4c1.1-0.1,2-0.1,2.9-0.1c0.9,0,1.9,0,3,0.1
			c1.1,0.1,2.3,0.2,3.6,0.4v52.6C436.8,181.2,434.6,181.4,432.9,181.4z"/>
		<path d="M476.2,153.3c0,1.7-0.2,3.6-0.7,5.7h-14.2v10.5h18.5c0.4,2.1,0.7,3.9,0.7,5.6c0,1.8-0.2,3.8-0.7,5.8h-31.5v-53h31.1
			c0.2,1.1,0.3,2.1,0.4,3c0.1,0.9,0.1,1.8,0.1,2.7c0,1.6-0.2,3.6-0.6,5.8h-18.1v8.1h14.2C476,149.7,476.2,151.6,476.2,153.3z"/>
		<path d="M497.6,154.6c0,10.4,4.4,15.6,13.1,15.6c1.6,0,3.1-0.1,4.5-0.4c1.4-0.3,3.1-0.8,5.1-1.5c1.6,3.5,2.7,7.2,3.2,10.9
			c-1.4,0.5-2.8,1-4,1.3c-1.2,0.3-2.4,0.6-3.5,0.8c-1.1,0.2-2.2,0.3-3.4,0.4c-1.1,0.1-2.2,0.1-3.4,0.1c-4.2,0-7.9-0.7-11-2
			s-5.8-3.2-8-5.6c-2.1-2.4-3.7-5.3-4.8-8.6c-1.1-3.3-1.6-7-1.6-10.9c0-3.9,0.6-7.6,1.7-10.9c1.1-3.4,2.8-6.3,4.9-8.7
			c2.1-2.5,4.8-4.4,7.9-5.8c3.1-1.4,6.7-2.1,10.7-2.1c2.4,0,4.6,0.2,6.7,0.5c2.1,0.3,4.5,1,7.1,2.1c-0.1,2-0.5,4-1.1,5.9
			c-0.6,1.9-1.3,3.6-2,5c-1-0.3-1.9-0.6-2.7-0.9c-0.8-0.2-1.6-0.4-2.3-0.6c-0.7-0.1-1.5-0.3-2.2-0.3c-0.7-0.1-1.5-0.1-2.4-0.1
			c-4,0-7.1,1.3-9.3,4C498.7,145.3,497.6,149.2,497.6,154.6z"/>
		<path d="M558.1,153.3c0,1.7-0.2,3.6-0.7,5.7h-14.2v10.5h18.5c0.4,2.1,0.7,3.9,0.7,5.6c0,1.8-0.2,3.8-0.7,5.8h-31.5v-53h31.1
			c0.2,1.1,0.3,2.1,0.4,3c0.1,0.9,0.1,1.8,0.1,2.7c0,1.6-0.2,3.6-0.6,5.8h-18.1v8.1h14.2C557.9,149.7,558.1,151.6,558.1,153.3z"/>
		<path d="M589.6,148.6c2.1,0.8,3.9,1.7,5.6,2.5c1.6,0.9,3.1,1.9,4.2,3.1c1.2,1.2,2.1,2.7,2.7,4.3s1,3.7,1,6.2c0,2.6-0.5,5-1.4,7
			c-0.9,2.1-2.2,3.9-4,5.4c-1.8,1.5-3.9,2.7-6.5,3.5c-2.6,0.8-5.5,1.2-8.9,1.2c-3,0-5.7-0.2-8.1-0.7c-2.3-0.5-4.9-1.3-7.6-2.3
			c0.2-1.7,0.5-3.5,1-5.5c0.5-1.9,1.1-3.9,1.8-5.9c4.5,2,8.5,2.9,11.8,2.9c2.5,0,4.5-0.4,5.9-1.1s2.1-2.1,2.1-3.9
			c0-0.8-0.1-1.5-0.4-2c-0.3-0.6-0.7-1-1.2-1.4c-0.5-0.4-1-0.7-1.7-1c-0.6-0.3-1.2-0.5-1.9-0.8l-4.1-1.5c-1.8-0.6-3.4-1.4-4.8-2.3
			s-2.7-1.9-3.7-3.1c-1-1.2-1.8-2.6-2.4-4.2c-0.6-1.6-0.8-3.4-0.8-5.5c0-2.6,0.4-4.9,1.3-6.9s2.1-3.7,3.7-5.1
			c1.6-1.4,3.5-2.5,5.8-3.2c2.3-0.7,4.8-1.1,7.6-1.1c2.5,0,4.9,0.2,7.3,0.7c2.3,0.5,4.8,1.2,7.5,2.1c-0.2,1.6-0.6,3.3-1.1,5.2
			s-1.2,3.7-2,5.3c-1.3-0.5-2.8-1.1-4.5-1.7c-1.7-0.6-3.9-0.9-6.4-0.9c-0.8,0-1.5,0.1-2.2,0.2c-0.7,0.1-1.4,0.4-1.9,0.7
			c-0.6,0.3-1,0.8-1.4,1.3c-0.3,0.6-0.5,1.3-0.5,2.1c0,1.4,0.5,2.5,1.4,3.2c0.9,0.7,2,1.3,3.3,1.8L589.6,148.6z"/>
	</g>
</g>
<g>
	<g transform="matrix( 0.2419281005859375, 0, 0, 0.2419281005859375, -424,-68.35) ">
		<g>
			<g id="Layer0_0_MEMBER_1_FILL">
				<path class="st0" d="M2494.1,774.5c0-13-4.6-24.5-13.9-34.5c-9.3-10-20.3-15.4-33.1-16.2c-12.5,0.7-22.4,5-29.8,12.8
					c-7.3,7.6-11,17.6-11.3,29.8v-36.9c0-15.1-3.7-27.5-11.1-37.1c-8-10.2-18.9-15.3-32.9-15.3c-13.9,0-24.9,5.1-32.9,15.3
					c-7,9-10.7,20.6-11.1,34.7v-36c0-16-4.3-29.1-12.9-39.5c-9-10.9-21.1-16.4-36.1-16.4c-15,0-27,5.5-36,16.4
					c-8.1,9.7-12.3,21.9-12.9,36.5V474.4c0-16-4.3-29.1-12.9-39.5c-9-10.9-21.1-16.4-36.1-16.4c-15,0-27,5.5-36,16.4
					c-8.6,10.4-12.9,23.5-12.9,39.5v294.3l-40-49.1c-8.2-13.1-19.9-21.3-35.3-24.8c-15.3-3.4-29.5-1.1-42.6,7.1
					c-13.1,8.2-21.4,19.9-25,35.1c-3.6,15.2-1.2,29.4,6.9,42.5l134,219.1c1.7,2.8,5.7,9.6,11.8,20.5c4.5,8,8.3,14,11.5,18.1
					c9.1,12,20.3,18,33.5,18h265.9c13.1,0,25-6.1,35.5-18.2c10.3-11.8,15.4-24.6,15.4-38.3V774.5z"/>
			</g>
		</g>
	</g>
	<g>
		<path class="st0" d="M249.1,78.4c0,12.4,5.2,18.7,15.7,18.7c1.9,0,3.7-0.2,5.3-0.5c1.7-0.4,3.7-0.9,6.1-1.8
			c1.9,4.2,3.2,8.6,3.9,13c-1.7,0.6-3.3,1.2-4.8,1.6c-1.5,0.4-2.9,0.7-4.2,0.9c-1.4,0.2-2.7,0.4-4,0.4s-2.7,0.1-4.1,0.1
			c-5,0-9.4-0.8-13.2-2.4s-7-3.9-9.5-6.7c-2.6-2.9-4.5-6.3-5.8-10.3c-1.3-4-1.9-8.3-1.9-13c0-4.7,0.7-9,2-13.1
			c1.3-4,3.3-7.5,5.9-10.4c2.6-2.9,5.7-5.2,9.5-6.9c3.8-1.6,8-2.5,12.8-2.5c2.8,0,5.5,0.2,8,0.6c2.5,0.4,5.3,1.2,8.4,2.5
			c-0.1,2.4-0.6,4.7-1.3,7c-0.8,2.3-1.6,4.2-2.4,5.9c-1.2-0.4-2.2-0.8-3.2-1.1c-1-0.3-1.9-0.5-2.8-0.7c-0.9-0.2-1.8-0.3-2.6-0.4
			c-0.9-0.1-1.8-0.1-2.8-0.1c-4.8,0-8.4,1.6-11,4.8C250.4,67.3,249.1,72.1,249.1,78.4z"/>
		<path class="st0" d="M287.9,46.8c1.6-0.2,3-0.4,4.3-0.5c1.3-0.1,2.4-0.2,3.4-0.2c1.1,0,2.2,0.1,3.6,0.2c1.3,0.1,2.7,0.3,4.3,0.5
			v49.3h20.3c0.3,1.5,0.5,2.7,0.6,3.8c0.1,1.1,0.1,2.1,0.1,2.9c0,1,0,2-0.1,3.1c-0.1,1.1-0.3,2.4-0.6,3.9h-35.9V46.8z"/>
		<path class="st0" d="M338.9,110.5c-2.2,0-4.8-0.3-7.8-0.8V46.8c1.6-0.2,3-0.4,4.3-0.5c1.3-0.1,2.4-0.2,3.4-0.2
			c1.1,0,2.2,0.1,3.6,0.2c1.3,0.1,2.7,0.3,4.3,0.5v62.8C343.5,110.2,341,110.5,338.9,110.5z"/>
		<path class="st0" d="M372,78.4c0,12.4,5.2,18.7,15.7,18.7c1.9,0,3.7-0.2,5.3-0.5c1.7-0.4,3.7-0.9,6.1-1.8c1.9,4.2,3.2,8.6,3.9,13
			c-1.7,0.6-3.3,1.2-4.8,1.6c-1.5,0.4-2.9,0.7-4.2,0.9c-1.4,0.2-2.7,0.4-4,0.4s-2.7,0.1-4.1,0.1c-5,0-9.4-0.8-13.2-2.4
			s-7-3.9-9.5-6.7c-2.6-2.9-4.5-6.3-5.8-10.3c-1.3-4-1.9-8.3-1.9-13c0-4.7,0.7-9,2-13.1c1.3-4,3.3-7.5,5.9-10.4
			c2.6-2.9,5.7-5.2,9.5-6.9c3.8-1.6,8-2.5,12.8-2.5c2.8,0,5.5,0.2,8,0.6c2.5,0.4,5.3,1.2,8.4,2.5c-0.1,2.4-0.6,4.7-1.3,7
			c-0.8,2.3-1.6,4.2-2.4,5.9c-1.2-0.4-2.2-0.8-3.2-1.1c-1-0.3-1.9-0.5-2.8-0.7c-0.9-0.2-1.8-0.3-2.6-0.4c-0.9-0.1-1.8-0.1-2.8-0.1
			c-4.8,0-8.4,1.6-11,4.8C373.3,67.3,372,72.1,372,78.4z"/>
		<path class="st0" d="M410.8,46.8c1.6-0.2,3-0.4,4.3-0.5c1.3-0.1,2.4-0.2,3.4-0.2c1.1,0,2.2,0.1,3.6,0.2c1.3,0.1,2.7,0.3,4.3,0.5
			v62.8c-3.1,0.5-5.7,0.8-7.7,0.8c-2.2,0-4.8-0.3-7.8-0.8V46.8z M444.8,77.2l16.5,32.5c-1,0.2-2.3,0.4-4,0.6
			c-1.7,0.1-3.2,0.2-4.5,0.2c-1.7,0-3.3-0.1-4.9-0.2c-1.6-0.1-2.9-0.3-4-0.6L427.6,78l14.9-31.2c1.8-0.3,3.3-0.5,4.6-0.6
			c1.3-0.1,2.6-0.1,4-0.1c0.6,0,1.4,0,2.2,0c0.8,0,1.6,0.1,2.4,0.2s1.6,0.2,2.3,0.3s1.4,0.2,1.9,0.2L444.8,77.2z"/>
		<path class="st0" d="M484.2,78.5c0-4.7,0.5-9,1.6-13.1c1.1-4,2.8-7.5,5-10.4c2.3-2.9,5.1-5.2,8.6-6.9c3.5-1.7,7.6-2.5,12.5-2.5
			c4.8,0,8.9,0.8,12.4,2.5c3.5,1.7,6.3,4,8.6,6.9c2.3,2.9,3.9,6.4,5,10.4c1.1,4,1.6,8.4,1.6,13.1c0,4.7-0.5,9-1.6,13
			c-1.1,4-2.8,7.4-5,10.3c-2.3,2.9-5.1,5.2-8.6,6.8c-3.5,1.6-7.6,2.4-12.4,2.4c-4.8,0-9-0.8-12.5-2.4c-3.5-1.6-6.4-3.9-8.6-6.8
			c-2.3-2.9-3.9-6.3-5-10.3S484.2,83.2,484.2,78.5z M523.2,78.5c0-12.8-3.7-19.2-11.2-19.2c-7.6,0-11.4,6.4-11.4,19.2
			c0,6.4,0.9,11.2,2.8,14.3c1.8,3.1,4.7,4.7,8.6,4.7C519.4,97.5,523.2,91.2,523.2,78.5z"/>
		<path class="st0" d="M548.4,46.8c1.3-0.2,2.5-0.4,3.5-0.5c1.1-0.1,2.1-0.2,3.1-0.2c1.1,0,2.2,0.1,3.3,0.2c1.1,0.1,2.1,0.3,2.9,0.5
			l20.4,34.5V46.8c1.5-0.2,2.9-0.4,4.1-0.5c1.2-0.1,2.3-0.2,3.3-0.2c1,0,2.1,0.1,3.2,0.2c1.1,0.1,2.3,0.3,3.5,0.5l-0.1,62.8
			c-0.6,0.2-1.4,0.4-2.6,0.5c-1.1,0.2-2.3,0.3-3.6,0.3c-1.5,0-2.8-0.1-4-0.3c-1.2-0.2-2-0.4-2.6-0.5l-20.5-34.3v34.3
			c-2.6,0.5-4.9,0.8-7,0.8c-2.1,0-4.5-0.3-7.1-0.8V46.8z"/>
		<path class="st0" d="M243.1,136.4h-12.3c-0.4-2.1-0.7-4.1-0.7-5.8c0-1.6,0.2-3.5,0.7-5.7h37.7c0.2,1.1,0.3,2.1,0.4,3
			c0.1,0.9,0.1,1.8,0.1,2.7c0,1.6-0.2,3.6-0.6,5.8h-12.3v41.3c-2.6,0.4-4.8,0.7-6.5,0.7c-1.8,0-4-0.2-6.6-0.7V136.4z"/>
		<path class="st0" d="M307.2,178.4c-1.8,0-4-0.2-6.6-0.7v-21.5h-13v21.5c-2.6,0.4-4.8,0.7-6.5,0.7c-1.8,0-4-0.2-6.6-0.7v-52.6
			c1.3-0.2,2.5-0.3,3.6-0.4c1.1-0.1,2-0.1,2.9-0.1c0.9,0,1.9,0,3,0.1c1.1,0.1,2.3,0.2,3.6,0.4v19.5h13v-19.5
			c1.3-0.2,2.5-0.3,3.6-0.4c1.1-0.1,2-0.1,2.9-0.1c0.9,0,1.9,0,3,0.1c1.1,0.1,2.3,0.2,3.6,0.4v52.6
			C311.1,178.2,308.9,178.4,307.2,178.4z"/>
		<path class="st0" d="M350.5,150.3c0,1.7-0.2,3.6-0.7,5.7h-14.2v10.5h18.5c0.4,2.1,0.7,3.9,0.7,5.6c0,1.8-0.2,3.8-0.7,5.8h-31.5
			v-53h31.1c0.2,1.1,0.3,2.1,0.4,3c0.1,0.9,0.1,1.8,0.1,2.7c0,1.6-0.2,3.6-0.6,5.8h-18.1v8.1h14.2
			C350.2,146.7,350.5,148.6,350.5,150.3z"/>
		<path class="st0" d="M377.6,125.1c1.1-0.1,2.9-0.4,5.2-0.6c2.3-0.3,5.3-0.4,8.8-0.4c2.6,0,5.2,0.2,7.9,0.7s5,1.4,7.2,2.8
			c2.1,1.4,3.9,3.3,5.2,5.7s2,5.7,2,9.6c0,3.5-0.5,6.4-1.6,8.7c-1.1,2.3-2.5,4.2-4.2,5.5c-1.7,1.4-3.7,2.4-6,2.9
			c-2.2,0.6-4.5,0.9-6.9,0.9c-0.9,0-1.9,0-2.8-0.1c-1-0.1-1.6-0.2-2-0.3v17.2c-1.3,0.2-2.4,0.4-3.5,0.5c-1,0.1-2,0.1-2.9,0.1
			c-1.7,0-3.9-0.2-6.4-0.7V125.1z M390.3,150c0.2,0.1,0.7,0.2,1.3,0.2c0.6,0,1.2,0.1,1.8,0.1c2.1,0,3.8-0.6,5.2-1.8
			c1.3-1.2,2-3.1,2-5.6c0-1.5-0.2-2.7-0.6-3.7c-0.4-1-1-1.8-1.7-2.4c-0.7-0.6-1.6-1-2.6-1.3c-1-0.2-2-0.4-3.1-0.4c-0.3,0-0.6,0-1,0
			c-0.4,0-0.8,0-1.2,0.1V150z"/>
		<path class="st0" d="M427.3,178.4c-1.8,0-4-0.2-6.6-0.7v-52.6c1.3-0.2,2.5-0.3,3.6-0.4c1.1-0.1,2-0.1,2.9-0.1c0.9,0,1.9,0,3,0.1
			c1.1,0.1,2.3,0.2,3.6,0.4v52.6C431.2,178.2,429,178.4,427.3,178.4z"/>
		<path class="st0" d="M470.5,150.3c0,1.7-0.2,3.6-0.7,5.7h-14.2v10.5h18.5c0.4,2.1,0.7,3.9,0.7,5.6c0,1.8-0.2,3.8-0.7,5.8h-31.5
			v-53h31.1c0.2,1.1,0.3,2.1,0.4,3c0.1,0.9,0.1,1.8,0.1,2.7c0,1.6-0.2,3.6-0.6,5.8h-18.1v8.1h14.2
			C470.3,146.7,470.5,148.6,470.5,150.3z"/>
		<path class="st0" d="M492,151.6c0,10.4,4.4,15.6,13.1,15.6c1.6,0,3.1-0.1,4.5-0.4c1.4-0.3,3.1-0.8,5.1-1.5
			c1.6,3.5,2.7,7.2,3.2,10.9c-1.4,0.5-2.8,1-4,1.3c-1.2,0.3-2.4,0.6-3.5,0.8c-1.1,0.2-2.2,0.3-3.4,0.4c-1.1,0.1-2.2,0.1-3.4,0.1
			c-4.2,0-7.9-0.7-11-2s-5.8-3.2-8-5.6c-2.1-2.4-3.7-5.3-4.8-8.6c-1.1-3.3-1.6-7-1.6-10.9c0-3.9,0.6-7.6,1.7-10.9
			c1.1-3.4,2.8-6.3,4.9-8.7c2.1-2.5,4.8-4.4,7.9-5.8c3.1-1.4,6.7-2.1,10.7-2.1c2.4,0,4.6,0.2,6.7,0.5c2.1,0.3,4.5,1,7.1,2.1
			c-0.1,2-0.5,4-1.1,5.9c-0.6,1.9-1.3,3.6-2,5c-1-0.3-1.9-0.6-2.7-0.9c-0.8-0.2-1.6-0.4-2.3-0.6c-0.7-0.1-1.5-0.3-2.2-0.3
			c-0.7-0.1-1.5-0.1-2.4-0.1c-4,0-7.1,1.3-9.3,4C493.1,142.3,492,146.2,492,151.6z"/>
		<path class="st0" d="M552.4,150.3c0,1.7-0.2,3.6-0.7,5.7h-14.2v10.5H556c0.4,2.1,0.7,3.9,0.7,5.6c0,1.8-0.2,3.8-0.7,5.8h-31.5v-53
			h31.1c0.2,1.1,0.3,2.1,0.4,3c0.1,0.9,0.1,1.8,0.1,2.7c0,1.6-0.2,3.6-0.6,5.8h-18.1v8.1h14.2C552.2,146.7,552.4,148.6,552.4,150.3z
			"/>
		<path class="st0" d="M584,145.6c2.1,0.8,3.9,1.7,5.6,2.5c1.6,0.9,3.1,1.9,4.2,3.1c1.2,1.2,2.1,2.7,2.7,4.3s1,3.7,1,6.2
			c0,2.6-0.5,5-1.4,7c-0.9,2.1-2.2,3.9-4,5.4c-1.8,1.5-3.9,2.7-6.5,3.5c-2.6,0.8-5.5,1.2-8.9,1.2c-3,0-5.7-0.2-8.1-0.7
			c-2.3-0.5-4.9-1.3-7.6-2.3c0.2-1.7,0.5-3.5,1-5.5c0.5-1.9,1.1-3.9,1.8-5.9c4.5,2,8.5,2.9,11.8,2.9c2.5,0,4.5-0.4,5.9-1.1
			s2.1-2.1,2.1-3.9c0-0.8-0.1-1.5-0.4-2c-0.3-0.6-0.7-1-1.2-1.4c-0.5-0.4-1-0.7-1.7-1c-0.6-0.3-1.2-0.5-1.9-0.8l-4.1-1.5
			c-1.8-0.6-3.4-1.4-4.8-2.3s-2.7-1.9-3.7-3.1c-1-1.2-1.8-2.6-2.4-4.2c-0.6-1.6-0.8-3.4-0.8-5.5c0-2.6,0.4-4.9,1.3-6.9
			s2.1-3.7,3.7-5.1c1.6-1.4,3.5-2.5,5.8-3.2c2.3-0.7,4.8-1.1,7.6-1.1c2.5,0,4.9,0.2,7.3,0.7c2.3,0.5,4.8,1.2,7.5,2.1
			c-0.2,1.6-0.6,3.3-1.1,5.2s-1.2,3.7-2,5.3c-1.3-0.5-2.8-1.1-4.5-1.7c-1.7-0.6-3.9-0.9-6.4-0.9c-0.8,0-1.5,0.1-2.2,0.2
			c-0.7,0.1-1.4,0.4-1.9,0.7c-0.6,0.3-1,0.8-1.4,1.3c-0.3,0.6-0.5,1.3-0.5,2.1c0,1.4,0.5,2.5,1.4,3.2c0.9,0.7,2,1.3,3.3,1.8
			L584,145.6z"/>
	</g>
</g>
</svg>
