
<svg xmlns="http://www.w3.org/2000/svg" version="1.1" xmlns:xlink="http://www.w3.org/1999/xlink" preserveAspectRatio="none" x="0px" y="0px" width="250px" height="250px" viewBox="0 0 250 250">
<defs>
<filter id="Filter_1" x="-20%" y="-20%" width="140%" height="140%" color-interpolation-filters="sRGB">
<feColorMatrix in="SourceGraphic" type="matrix" values="1 0 0 0 0 0 1 0 0 0 0 0 1 0 0 0 0 0 0.2 0" result="result1"/>
</filter>

<filter id="Filter_2" x="-20%" y="-20%" width="140%" height="140%" color-interpolation-filters="sRGB">
<feColorMatrix in="SourceGraphic" type="matrix" values="1 0 0 0 0 0 1 0 0 0 0 0 1 0 0 0 0 0 0.5 0" result="result1"/>
</filter>

<filter id="Filter_3" x="-20%" y="-20%" width="140%" height="140%" color-interpolation-filters="sRGB">
<feColorMatrix in="SourceGraphic" type="matrix" values="1 0 0 0 0 0 1 0 0 0 0 0 1 0 0 0 0 0 0.1 0" result="result1"/>
</filter>

<filter id="Filter_4" x="-20%" y="-20%" width="140%" height="140%" color-interpolation-filters="sRGB">
<feColorMatrix in="SourceGraphic" type="matrix" values="0 0 0 0 255 0 0 0 0 255 0 0 0 0 255 0 0 0 255 0" result="result1"/>

<feComposite in2="result1" in="BackgroundImage" operator="in" result="result2"/>

<feBlend mode="multiply" in2="result2" in="SourceGraphic" result="result3"/>
</filter>

<g id="Layer8_0_MEMBER_0_FILL">
<path fill="#26AA29" stroke="none" d="
M 1443.65 1027.8
Q 1421.2 1027.8 1400.7 1036.5 1380.9 1044.85 1365.6 1060.15 1350.3 1075.45 1341.95 1095.25 1333.25 1115.75 1333.25 1138.2 1333.25 1158.7 1340.55 1177.7 1347.6 1196.05 1360.6 1210.95 1373.55 1225.7 1390.75 1235.1 1408.35 1244.7 1428.2 1247.5 1436.15 1248.6 1443.65 1248.6 1466.1 1248.6 1486.6 1239.9 1506.45 1231.55 1521.7 1216.25 1537 1201 1545.35 1181.15 1554.05 1160.65 1554.05 1138.2 1554.05 1128.55 1552.35 1118.9 1548.95 1099.7 1539.15 1082.85 1529.55 1066.3 1514.95 1053.95 1484.15 1027.8 1443.65 1027.8 Z"/>
</g>

<g id="flash0_ai_Isolation_Mode__Path__0_Layer0_0_FILL">
<path fill="#000000" stroke="none" d="
M 185.3 62.95
Q 185.3 53.3 183.6 43.65 171.75 31.7 160.95 21 149.6 9.8 148.9 9.45 148.2 8.2 147.3 7.3
L 146.65 6.8
Q 145.45 5.85 143.9 5.45
L 140.5 0 84.1 0
Q 82.15 0 80.45 0.95 78.75 1.85 77.7 3.5
L 76.65 5.1 71.7 5.1
Q 70.9 4.5 70.4 4.25
L 69.95 3.5
Q 68.85 1.85 67.15 0.95 65.45 0 63.5 0
L 9.3 0 9.3 5.1 8 5.1
Q 4.7 5.1 2.35 7.45 0 9.8 0 13.1
L 0 110.05
Q 0 112.35 1.2 114.25 2.35 116.05 4.35 117.1
L 59.45 172.25
Q 67.4 173.35 74.9 173.35 97.35 173.35 117.85 164.65 137.7 156.3 152.95 141 168.25 125.75 176.6 105.9 185.3 85.4 185.3 62.95 Z"/>
</g>

<g id="Layer8_0_MEMBER_2_MEMBER_0_FILL">
<path fill="#0D2136" stroke="none" d="
M 1376.75 1080.35
Q 1373.45 1080.35 1371.1 1082.7 1368.75 1085.05 1368.75 1088.35
L 1368.75 1185.3
Q 1368.75 1188.6 1371.1 1190.95 1373.45 1193.3 1376.75 1193.3
L 1510.55 1193.3
Q 1513.9 1193.3 1516.2 1190.95 1518.55 1188.6 1518.55 1185.3
L 1518.55 1088.35
Q 1518.55 1085.05 1516.2 1082.7 1513.9 1080.35 1510.55 1080.35
L 1376.75 1080.35 Z"/>
</g>

<g id="flash0_ai_Isolation_Mode__Path__6_0_Layer0_0_FILL">
<path fill="#FFFFFF" stroke="none" d="
M 131.2 101.4
L 131.2 0 0 0 0 101.4 131.2 101.4 Z"/>
</g>

<g id="Layer8_0_MEMBER_2_MEMBER_2_FILL">
<path fill="#FFFFFF" stroke="none" d="
M 1378.05 1183.75
L 1378.05 1184.7 1432.6 1184.7
Q 1434.25 1184.7 1435.6 1185.35
L 1442.55 1188.55 1449 1185.4
Q 1450.5 1184.7 1452.1 1184.7
L 1509.25 1184.7 1509.25 1183.75 1452.1 1183.75
Q 1450.3 1183.75 1448.55 1184.55
L 1442.5 1187.5 1436 1184.5
Q 1434.45 1183.75 1432.6 1183.75
L 1378.05 1183.75 Z"/>
</g>

<g id="Layer8_0_MEMBER_2_MEMBER_3_FILL">
<path fill="#FFFFFF" stroke="none" d="
M 1378.05 1180.9
L 1378.05 1181.85 1431.6 1181.85
Q 1434.1 1181.85 1436.1 1183.45
L 1442.55 1188.6 1448.5 1183.55
Q 1450.5 1181.85 1453.15 1181.85
L 1509.25 1181.85 1509.25 1180.9 1453.15 1180.9
Q 1450.25 1180.9 1447.9 1182.85
L 1442.5 1187.4 1436.65 1182.7
Q 1434.45 1180.9 1431.6 1180.9
L 1378.05 1180.9 Z"/>
</g>

<g id="Layer8_0_MEMBER_2_MEMBER_4_FILL">
<path fill="#FFFFFF" stroke="none" d="
M 1378.05 1178.1
L 1378.05 1179 1431.05 1179
Q 1434.1 1179 1436.2 1181.2
L 1442.55 1187.75 1448.45 1181.35
Q 1450.55 1179 1453.7 1179
L 1509.25 1179 1509.25 1178.1 1453.7 1178.1
Q 1450.1 1178.1 1447.75 1180.7
L 1442.5 1186.35 1436.85 1180.55
Q 1434.5 1178.1 1431.05 1178.1
L 1378.05 1178.1 Z"/>
</g>

<g id="Layer8_0_MEMBER_2_MEMBER_5_FILL">
<path fill="#EA4B3F" stroke="none" d="
M 1480.8 1143.8
L 1470.4 1143.8 1470.4 1201.1 1475.6 1195.7 1480.8 1201.1 1480.8 1143.8 Z"/>
</g>

<g id="Layer8_0_MEMBER_2_MEMBER_6_FILL">
<path fill="#FFFFFF" stroke="none" d="
M 1452.85 1075.25
Q 1450.9 1075.25 1449.2 1076.2 1447.5 1077.1 1446.45 1078.75
L 1442.55 1084.7 1438.65 1078.75
Q 1437.6 1077.1 1435.9 1076.2 1434.2 1075.25 1432.25 1075.25
L 1378.05 1075.25 1378.05 1176.65 1430.8 1176.65
Q 1434.3 1176.65 1436.55 1179.3
L 1442.55 1186.1 1448.05 1179.45
Q 1450.3 1176.65 1453.95 1176.65
L 1509.25 1176.65 1509.25 1075.25 1452.85 1075.25 Z"/>
</g>

<g id="flash0_ai_Isolation_Mode__Path__0_0_Layer0_0_FILL">
<path fill="#0D2136" stroke="none" d="
M 0.85 0
L 0 0 0 106.5 0.85 106.5 0.85 0 Z"/>
</g>

<g id="flash0_ai_Isolation_Mode__Path__5_0_Layer0_0_FILL">
<path fill="#000000" stroke="none" d="
M 48.25 5.9
L 48.25 0 0 0 0 5.9 48.25 5.9 Z"/>
</g>

<g id="flash0_ai_Isolation_Mode__Path__4_0_Layer0_0_FILL">
<path fill="#000000" stroke="none" d="
M 48.25 5.9
L 48.25 0 0 0 0 5.9 48.25 5.9 Z"/>
</g>

<g id="flash0_ai_Isolation_Mode__Path__3_0_Layer0_0_FILL">
<path fill="#000000" stroke="none" d="
M 48.25 5.9
L 48.25 0 0 0 0 5.9 48.25 5.9 Z"/>
</g>

<g id="flash0_ai_Isolation_Mode__Path__2_0_Layer0_0_FILL">
<path fill="#000000" stroke="none" d="
M 48.25 5.9
L 48.25 0 0 0 0 5.9 48.25 5.9 Z"/>
</g>

<g id="flash0_ai_Isolation_Mode__Path__1_0_Layer0_0_FILL">
<path fill="#000000" stroke="none" d="
M 48.25 5.9
L 48.25 0 0 0 0 5.9 48.25 5.9 Z"/>
</g>

<g id="flash0_ai_Isolation_Mode__Path__7_0_Layer0_0_FILL">
<path fill="#000000" stroke="none" d="
M 48.25 5.9
L 48.25 0 0 0 0 5.9 48.25 5.9 Z"/>
</g>

<g id="flash0_ai_Isolation_Mode__Path__5_0_0_Layer0_0_FILL">
<path fill="#000000" stroke="none" d="
M 32.55 5.9
L 32.55 0 0 0 0 5.9 32.55 5.9 Z"/>
</g>

<g id="flash0_ai_Isolation_Mode__Path__4_0_0_Layer0_0_FILL">
<path fill="#000000" stroke="none" d="
M 48.25 5.9
L 48.25 0 0 0 0 5.9 48.25 5.9 Z"/>
</g>

<g id="flash0_ai_Isolation_Mode__Path__3_0_0_Layer0_0_FILL">
<path fill="#000000" stroke="none" d="
M 48.25 5.9
L 48.25 0 0 0 0 5.9 48.25 5.9 Z"/>
</g>

<g id="flash0_ai_Isolation_Mode__Path__2_0_0_Layer0_0_FILL">
<path fill="#000000" stroke="none" d="
M 48.25 5.9
L 48.25 0 0 0 0 5.9 48.25 5.9 Z"/>
</g>

<g id="flash0_ai_Isolation_Mode__Path__1_0_0_Layer0_0_FILL">
<path fill="#000000" stroke="none" d="
M 48.25 5.9
L 48.25 0 0 0 0 5.9 48.25 5.9 Z"/>
</g>

<g id="flash0_ai_Isolation_Mode__Path__8_0_Layer0_0_FILL">
<path fill="#000000" stroke="none" d="
M 48.25 5.9
L 48.25 0 0 0 0 5.9 48.25 5.9 Z"/>
</g>

<g id="Layer5_0_MEMBER_0_MEMBER_0_FILL">
<path fill="#FFA600" stroke="none" d="
M 69.95 -240.7
L 69.9 -246.5
Q 68.95 -271.1 58.75 -293.35 48.85 -314.95 31.7 -331.5 14.55 -348 -7.45 -357.1 -30.2 -366.4 -55 -366.4 -80.4 -366.4 -103.7 -356.6 -126.1 -347.1 -143.35 -329.85 -160.7 -312.55 -170.2 -290.1 -180 -266.9 -180 -241.5 -180 -216.1 -170.2 -192.85 -160.7 -170.4 -143.35 -153.15 -126.1 -135.9 -103.7 -126.4 -80.4 -116.6 -55 -116.6
L -54.2 -116.6
Q -19 -116.8 10.85 -135.35 39.85 -153.35 55.75 -183.5
L 57.2 -186.5 57.25 -186.55
Q 59.55 -191 61.75 -196.8 64.1 -203.15 65.55 -208.4 69.9 -224.2 69.95 -240.7 Z"/>
</g>

<g id="flash0_ai_2_Isolation_Mode__Path__0_Layer0_0_FILL">
<path fill="#0B2137" stroke="none" d="
M 179.2 120.9
Q 187.85 100.6 188 78.35
L 134.85 25.2
Q 123.95 13.35 109.4 6.8 94.3 0 77.65 0 61.85 0 47.4 6.1 33.5 12 22.75 22.75 12 33.5 6.1 47.45 0 61.85 0 77.65 0 94.35 6.8 109.45 13.35 124.05 25.2 134.9
L 78.35 188
Q 100.6 187.85 120.9 179.2 140.55 170.8 155.7 155.7 170.85 140.55 179.2 120.9 Z"/>
</g>

<g id="Layer5_0_MEMBER_1_MEMBER_0_FILL">
<path fill="#0B2137" stroke="none" d="
M 5078.5 1355.95
Q 5064.5 1341.95 5044.65 1341.95 5024.85 1341.95 5010.85 1355.95 4996.85 1369.95 4996.85 1389.75 4996.85 1409.6 5010.85 1423.6 5024.85 1437.6 5044.65 1437.6 5064.5 1437.6 5078.5 1423.6 5092.5 1409.6 5092.5 1389.75 5092.5 1369.95 5078.5 1355.95
M 5044.65 1378.75
Q 5049.2 1378.75 5052.45 1382 5055.65 1385.2 5055.65 1389.75 5055.65 1394.35 5052.45 1397.55 5049.25 1400.75 5044.65 1400.75 5040.1 1400.75 5036.9 1397.55 5033.7 1394.3 5033.7 1389.75 5033.7 1385.2 5036.9 1382 5040.1 1378.75 5044.65 1378.75 Z"/>
</g>

<g id="Layer5_0_MEMBER_1_MEMBER_1_MEMBER_0_FILL">
<path fill="#E0E0E0" stroke="none" d="
M 5095.15 1339.25
Q 5074.25 1318.35 5044.65 1318.35 5030.15 1318.35 5016.85 1323.95 5004.05 1329.4 4994.2 1339.25 4984.3 1349.15 4978.85 1361.95 4973.25 1375.2 4973.25 1389.75 4973.25 1404.3 4978.85 1417.55 4984.3 1430.35 4994.2 1440.25 5004.05 1450.1 5016.85 1455.55 5030.15 1461.15 5044.65 1461.15 5059.2 1461.15 5072.45 1455.55 5085.3 1450.1 5095.15 1440.25 5105.05 1430.35 5110.5 1417.55 5116.1 1404.3 5116.1 1389.75 5116.1 1375.2 5110.5 1361.95 5105.05 1349.15 5095.15 1339.25
M 5056.7 1379.4
Q 5053.15 1375.35 5048 1374.25
L 5051.35 1332.25
Q 5063.85 1333.7 5074.6 1340.2 5085.1 1346.6 5092.15 1356.65
L 5056.7 1379.4
M 5041.25 1374.3
Q 5036.85 1375.2 5033.65 1378.35
L 5000.4 1352.5
Q 5007.45 1344.15 5017.05 1338.9 5026.85 1333.55 5038 1332.25
L 5041.25 1374.3
M 5044.65 1378.75
Q 5049.2 1378.75 5052.45 1382 5055.65 1385.2 5055.65 1389.75 5055.65 1394.35 5052.45 1397.55 5049.25 1400.75 5044.65 1400.75 5040.1 1400.75 5036.9 1397.55 5033.7 1394.3 5033.7 1389.75 5033.7 1385.2 5036.9 1382 5040.1 1378.75 5044.65 1378.75
M 5059.9 1385.35
L 5098.45 1368.4
Q 5102.55 1378.6 5102.55 1389.75 5102.55 1403.65 5096.3 1415.9
L 5059.5 1395.45
Q 5060.5 1392.7 5060.5 1389.75 5060.5 1387.45 5059.9 1385.35
M 4990.85 1411.1
Q 4986.8 1400.8 4986.8 1389.75 4986.8 1375.85 4993.05 1363.6
L 5029.9 1384
Q 5028.8 1386.85 5028.8 1389.75 5028.8 1391.75 5029.4 1394.05
L 4990.85 1411.1
M 5014.75 1439.3
Q 5004.25 1432.95 4997.2 1422.85
L 5032.6 1400.05
Q 5036.15 1404.15 5041.25 1405.25
L 5038 1447.25
Q 5025.5 1445.8 5014.75 1439.3
M 5048 1405.25
Q 5052.5 1404.3 5055.75 1401.1
L 5088.95 1427
Q 5081.95 1435.4 5072.35 1440.6 5062.5 1445.95 5051.35 1447.25
L 5048 1405.25 Z"/>
</g>

<g id="Layer5_0_MEMBER_1_MEMBER_1_MEMBER_1_FILL">
<path fill="#FFFFFF" stroke="none" d="
M 5096.25 1338.2
Q 5086.15 1328.1 5073.05 1322.55 5059.5 1316.8 5044.65 1316.8 5029.85 1316.8 5016.3 1322.55 5003.2 1328.1 4993.1 1338.2 4983 1348.3 4977.45 1361.35 4971.7 1374.95 4971.7 1389.75 4971.7 1404.55 4977.45 1418.15 4983 1431.25 4993.1 1441.35 5003.2 1451.45 5016.3 1457 5029.85 1462.75 5044.65 1462.75 5059.5 1462.75 5073.05 1457 5086.15 1451.45 5096.25 1441.35 5106.35 1431.25 5111.9 1418.15 5117.65 1404.6 5117.65 1389.75 5117.65 1374.95 5111.9 1361.35 5106.35 1348.3 5096.25 1338.2
M 5044.65 1319.9
Q 5058.85 1319.9 5071.85 1325.4 5084.35 1330.7 5094.05 1340.4 5114.5 1360.85 5114.5 1389.75 5114.5 1418.65 5094.05 1439.1 5073.55 1459.6 5044.65 1459.6 5015.8 1459.6 4995.3 1439.1 4974.85 1418.65 4974.85 1389.75 4974.85 1360.85 4995.3 1340.4 5005 1330.7 5017.5 1325.4 5030.45 1319.9 5044.65 1319.9
M 5090.15 1428
L 5091.2 1426.8 5055.65 1399 5054.65 1399.95
Q 5051.8 1402.8 5047.7 1403.75
L 5046.35 1404 5049.9 1449 5051.5 1448.8
Q 5062.85 1447.5 5072.8 1442.15 5082.75 1436.75 5090.15 1428
M 5049.65 1406.45
Q 5053.1 1405.4 5055.85 1403.15
L 5086.7 1427.25
Q 5080.05 1434.7 5071.35 1439.4 5062.6 1444.1 5052.75 1445.5
L 5049.65 1406.45
M 4995 1422.4
L 4995.9 1423.75
Q 5003.25 1434.25 5014.2 1440.8 5025.15 1447.35 5037.85 1448.8
L 5039.45 1449 5042.9 1404 5041.6 1403.7
Q 5036.9 1402.7 5033.8 1399
L 5032.9 1398 4995 1422.4
M 5015.8 1438.1
Q 5006.1 1432.3 4999.4 1423.25
L 5032.35 1402.05
Q 5035.5 1405.2 5039.6 1406.4
L 5036.6 1445.5
Q 5025.45 1443.9 5015.8 1438.1
M 5053.55 1380.9
Q 5049.85 1377.2 5044.65 1377.2 5039.5 1377.2 5035.8 1380.9 5032.15 1384.55 5032.15 1389.75 5032.15 1394.95 5035.8 1398.65 5039.45 1402.3 5044.65 1402.3 5049.85 1402.3 5053.55 1398.65 5057.2 1394.95 5057.2 1389.75 5057.2 1384.55 5053.55 1380.9
M 5044.65 1380.35
Q 5048.55 1380.35 5051.35 1383.1 5054.1 1385.85 5054.1 1389.75 5054.1 1393.65 5051.35 1396.45 5048.55 1399.2 5044.65 1399.2 5040.8 1399.2 5038 1396.45 5035.25 1393.65 5035.25 1389.75 5035.25 1385.85 5038 1383.1 5040.8 1380.35 5044.65 1380.35
M 5058.05 1384.5
L 5058.4 1385.8
Q 5058.95 1387.5 5058.95 1389.75 5058.95 1392.5 5058 1394.85
L 5057.55 1396.15 5096.95 1418.05 5097.7 1416.6
Q 5104.1 1404.05 5104.1 1389.75 5104.1 1378.3 5099.9 1367.8
L 5099.3 1366.3 5058.05 1384.5
M 5101 1389.75
Q 5101 1402.45 5095.65 1413.75
L 5061.35 1394.7
Q 5062.1 1392.3 5062.1 1389.75 5062.1 1388.25 5061.75 1386.25
L 5097.6 1370.5
Q 5101 1379.8 5101 1389.75
M 5031.35 1384.55
L 5031.85 1383.3 4992.4 1361.45 4991.65 1362.9
Q 4985.25 1375.45 4985.25 1389.75 4985.25 1401.15 4989.4 1411.7
L 4990 1413.2 5031.3 1394.95 5030.9 1393.65
Q 5030.4 1391.85 5030.4 1389.75 5030.4 1386.95 5031.35 1384.55
M 4991.75 1409.05
Q 4988.35 1399.7 4988.35 1389.75 4988.35 1377.15 4993.7 1365.75
L 5028 1384.75
Q 5027.25 1387.15 5027.25 1389.75 5027.25 1391.25 5027.6 1393.15
L 4991.75 1409.05
M 5039.45 1330.55
L 5037.85 1330.7
Q 5026.55 1332 5016.55 1337.4 5006.6 1342.75 4999.2 1351.5
L 4998.15 1352.75 5033.75 1380.4 5034.75 1379.5
Q 5037.7 1376.65 5041.6 1375.8
L 5042.9 1375.5 5039.45 1330.55
M 5039.6 1373.1
Q 5036.25 1374.1 5033.6 1376.35
L 5002.65 1352.25
Q 5009.3 1344.8 5018 1340.15 5026.75 1335.45 5036.6 1334.05
L 5039.6 1373.1
M 5051.5 1330.7
L 5049.9 1330.55 5046.35 1375.5 5047.7 1375.8
Q 5052.4 1376.8 5055.5 1380.45
L 5056.4 1381.45 5094.35 1357.1 5093.45 1355.75
Q 5086.1 1345.3 5075.15 1338.75 5064.15 1332.15 5051.5 1330.7
M 5056.95 1377.4
Q 5053.75 1374.3 5049.65 1373.1
L 5052.75 1334.05
Q 5063.85 1335.65 5073.5 1341.4 5083.2 1347.2 5089.9 1356.25
L 5056.95 1377.4 Z"/>
</g>

<g id="Layer5_0_MEMBER_1_MEMBER_2_MEMBER_0_FILL">
<path fill="#FFFFFF" stroke="none" d="
M 5051.5 1329.5
L 5050.05 1329.3 5046.5 1373.95 5047.7 1374.25
Q 5052.5 1375.25 5055.65 1378.9
L 5056.4 1379.85 5094.15 1355.65 5093.3 1354.45
Q 5086 1344 5075.05 1337.45 5064.1 1330.95 5051.5 1329.5
M 5056.9 1376.2
Q 5053.7 1373 5049.5 1371.8
L 5052.6 1332.45
Q 5063.85 1334.05 5073.65 1339.85 5083.4 1345.7 5090.15 1354.9
L 5056.9 1376.2 Z"/>
</g>

<g id="Layer5_0_MEMBER_1_MEMBER_2_MEMBER_1_FILL">
<path fill="#FFFFFF" stroke="none" d="
M 5039.3 1329.3
L 5037.85 1329.5
Q 5026.55 1330.8 5016.65 1336.1 5006.7 1341.45 4999.35 1350.2
L 4998.4 1351.3 5033.75 1378.8 5034.6 1377.95
Q 5037.65 1375.1 5041.55 1374.25
L 5042.75 1374 5039.3 1329.3
M 5039.75 1371.85
Q 5036.25 1372.85 5033.6 1375.15
L 5002.4 1350.9
Q 5009.1 1343.35 5017.95 1338.6 5026.8 1333.85 5036.75 1332.45
L 5039.75 1371.85 Z"/>
</g>

<g id="Layer5_0_MEMBER_1_MEMBER_2_MEMBER_2_FILL">
<path fill="#FFFFFF" stroke="none" d="
M 5031.2 1383.1
L 5031.65 1381.95 4992.45 1360.3 4991.8 1361.55
Q 4985.4 1374.1 4985.4 1388.35 4985.4 1399.85 4989.6 1410.25
L 4990.1 1411.6 5031.1 1393.45 5030.75 1392.3
Q 5030.2 1390.25 5030.2 1388.35 5030.2 1385.7 5031.2 1383.1
M 4991.65 1407.85
Q 4988.2 1398.5 4988.2 1388.35 4988.2 1375.6 4993.65 1364.15
L 5028.2 1383.25
Q 5027.45 1385.75 5027.45 1388.35 5027.45 1390.25 5027.8 1391.85
L 4991.65 1407.85 Z"/>
</g>

<g id="Layer5_0_MEMBER_1_MEMBER_2_MEMBER_3_FILL">
<path fill="#FFFFFF" stroke="none" d="
M 5058.25 1383.15
L 5058.55 1384.35
Q 5059.15 1386.3 5059.15 1388.35 5059.15 1390.95 5058.2 1393.55
L 5057.75 1394.65 5096.9 1416.45 5097.55 1415.15
Q 5103.95 1402.6 5103.95 1388.35 5103.95 1376.95 5099.75 1366.5
L 5099.25 1365.15 5058.25 1383.15
M 5061.55 1384.75
L 5097.7 1368.85
Q 5101.15 1378.25 5101.15 1388.35 5101.15 1401.1 5095.7 1412.6
L 5061.2 1393.4
Q 5061.9 1390.85 5061.9 1388.35 5061.9 1386.45 5061.55 1384.75 Z"/>
</g>

<g id="Layer5_0_MEMBER_1_MEMBER_2_MEMBER_4_FILL">
<path fill="#8C8C8C" stroke="none" d="
M 5051.5 1330.9
L 5050.05 1330.7 5046.5 1375.35 5047.7 1375.65
Q 5052.5 1376.65 5055.65 1380.3
L 5056.4 1381.25 5094.15 1357.05 5093.3 1355.85
Q 5086 1345.4 5075.05 1338.85 5064.1 1332.35 5051.5 1330.9
M 5056.9 1377.6
Q 5053.7 1374.4 5049.5 1373.2
L 5052.6 1333.85
Q 5063.85 1335.45 5073.65 1341.25 5083.4 1347.1 5090.15 1356.3
L 5056.9 1377.6 Z"/>
</g>

<g id="Layer5_0_MEMBER_1_MEMBER_2_MEMBER_5_FILL">
<path fill="#8C8C8C" stroke="none" d="
M 5039.3 1330.7
L 5037.85 1330.9
Q 5026.55 1332.2 5016.65 1337.5 5006.7 1342.85 4999.35 1351.6
L 4998.4 1352.7 5033.75 1380.2 5034.6 1379.35
Q 5037.65 1376.5 5041.55 1375.65
L 5042.75 1375.4 5039.3 1330.7
M 5039.75 1373.2
Q 5036.2 1374.3 5033.6 1376.55
L 5002.4 1352.3
Q 5009.1 1344.75 5017.95 1340 5026.8 1335.25 5036.75 1333.85
L 5039.75 1373.2 Z"/>
</g>

<g id="Layer5_0_MEMBER_1_MEMBER_2_MEMBER_6_FILL">
<path fill="#8C8C8C" stroke="none" d="
M 5031.2 1384.5
L 5031.65 1383.35 4992.45 1361.7 4991.8 1362.95
Q 4985.4 1375.5 4985.4 1389.75 4985.4 1401.25 4989.6 1411.65
L 4990.1 1413 5031.1 1394.85 5030.75 1393.7
Q 5030.2 1391.65 5030.2 1389.75 5030.2 1387.1 5031.2 1384.5
M 4991.65 1409.25
Q 4988.2 1399.9 4988.2 1389.75 4988.2 1377 4993.65 1365.5
L 5028.2 1384.65
Q 5027.45 1387.15 5027.45 1389.75 5027.45 1391.65 5027.8 1393.25
L 4991.65 1409.25 Z"/>
</g>

<g id="Layer5_0_MEMBER_1_MEMBER_2_MEMBER_7_FILL">
<path fill="#8C8C8C" stroke="none" d="
M 5058.25 1384.55
L 5058.55 1385.75
Q 5059.15 1387.7 5059.15 1389.75 5059.15 1392.35 5058.2 1394.95
L 5057.75 1396.05 5096.9 1417.85 5097.55 1416.55
Q 5103.95 1404 5103.95 1389.75 5103.95 1378.35 5099.75 1367.85
L 5099.25 1366.55 5058.25 1384.55
M 5101.15 1389.75
Q 5101.15 1402.5 5095.7 1414
L 5061.2 1394.8
Q 5061.9 1392.25 5061.9 1389.75 5061.9 1387.85 5061.55 1386.15
L 5097.7 1370.25
Q 5101.15 1379.65 5101.15 1389.75 Z"/>
</g>

<g id="Layer5_0_MEMBER_1_MEMBER_2_MEMBER_8_FILL">
<path fill="#FFFFFF" stroke="none" d="
M 4995.2 1421.15
L 4996.05 1422.4
Q 5003.35 1433.1 5014.3 1439.75 5025.2 1446.45 5037.85 1447.9
L 5039.3 1448.05 5042.75 1402.5 5041.55 1402.2
Q 5036.8 1401.1 5033.65 1397.35
L 5032.9 1396.4 4995.2 1421.15
M 5015.75 1437.3
Q 5005.95 1431.3 4999.2 1421.95
L 5032.4 1400.15
Q 5035.5 1403.4 5039.75 1404.7
L 5036.75 1444.9
Q 5025.5 1443.25 5015.75 1437.3 Z"/>
</g>

<g id="Layer5_0_MEMBER_1_MEMBER_2_MEMBER_9_FILL">
<path fill="#8C8C8C" stroke="none" d="
M 4995.2 1422.45
L 4996.05 1423.65
Q 5003.35 1434.1 5014.3 1440.65 5025.2 1447.2 5037.85 1448.65
L 5039.3 1448.8 5042.75 1404.15 5041.55 1403.85
Q 5036.9 1402.85 5033.65 1399.15
L 5032.9 1398.2 4995.2 1422.45
M 5015.75 1438.25
Q 5005.95 1432.4 4999.2 1423.2
L 5032.4 1401.85
Q 5035.5 1405 5039.75 1406.3
L 5036.75 1445.7
Q 5025.5 1444.1 5015.75 1438.25 Z"/>
</g>

<g id="Layer5_0_MEMBER_1_MEMBER_2_MEMBER_10_FILL">
<path fill="#FFFFFF" stroke="none" d="
M 5090.05 1426.85
L 5090.95 1425.75 5055.65 1397.9 5054.8 1398.75
Q 5051.8 1401.7 5047.7 1402.6
L 5046.5 1402.85 5050.05 1448 5051.5 1447.85
Q 5062.8 1446.55 5072.75 1441.1 5082.65 1435.7 5090.05 1426.85
M 5049.5 1405.05
Q 5053.15 1403.95 5055.85 1401.6
L 5086.95 1426.15
Q 5080.25 1433.85 5071.4 1438.65 5062.6 1443.4 5052.6 1444.85
L 5049.5 1405.05 Z"/>
</g>

<g id="Layer5_0_MEMBER_1_MEMBER_2_MEMBER_11_FILL">
<path fill="#8C8C8C" stroke="none" d="
M 5090.05 1427.9
L 5090.95 1426.8 5055.65 1399.25 5054.8 1400.1
Q 5051.75 1403 5047.7 1403.9
L 5046.5 1404.15 5050.05 1448.8 5051.5 1448.65
Q 5062.8 1447.35 5072.75 1442 5082.65 1436.65 5090.05 1427.9
M 5049.5 1406.3
Q 5053.1 1405.3 5055.85 1402.9
L 5086.95 1427.2
Q 5080.25 1434.75 5071.4 1439.55 5062.6 1444.3 5052.6 1445.7
L 5049.5 1406.3 Z"/>
</g>

<g id="Layer5_0_MEMBER_1_MEMBER_3_FILL">
<path fill="#0B2137" stroke="none" d="
M 5053.45 1381
Q 5049.8 1377.35 5044.65 1377.35 5039.55 1377.35 5035.9 1381 5032.25 1384.6 5032.25 1389.75 5032.25 1394.9 5035.9 1398.5 5039.55 1402.15 5044.65 1402.15 5049.8 1402.15 5053.45 1398.5 5057.1 1394.9 5057.1 1389.75 5057.1 1384.6 5053.45 1381
M 5044.65 1378.75
Q 5049.2 1378.75 5052.45 1382 5055.65 1385.2 5055.65 1389.75 5055.65 1394.35 5052.45 1397.55 5049.25 1400.75 5044.65 1400.75 5040.1 1400.75 5036.9 1397.55 5033.7 1394.3 5033.7 1389.75 5033.7 1385.2 5036.9 1382 5040.1 1378.75 5044.65 1378.75 Z"/>
</g>

<g id="Layer5_0_MEMBER_1_MEMBER_4_MEMBER_0_FILL">
<path fill="#0B2137" stroke="none" d="
M 5020.7 1414.35
L 5020.7 1459.55
Q 5031.4 1458.75 5048.3 1455.7 5070.9 1451.6 5075.95 1450.9 5108.75 1446.15 5131.15 1454.2
L 5131.15 1409.05
Q 5108.8 1401 5075.95 1405.7 5071.05 1406.4 5048.3 1410.5 5031.4 1413.55 5020.7 1414.35 Z"/>
</g>

<g id="Layer5_0_MEMBER_1_MEMBER_4_MEMBER_1_MEMBER_0_FILL">
<path fill="#FFFFFF" stroke="none" d="
M 5050.15 1450.2
L 5050.15 1453.3 5054.45 1452.5 5054.45 1449.4 5050.15 1450.2 Z"/>
</g>

<g id="Layer5_0_MEMBER_1_MEMBER_4_MEMBER_1_MEMBER_1_FILL">
<path fill="#FFFFFF" stroke="none" d="
M 5022.45 1454.3
L 5022.45 1457.35
Q 5024.65 1457.2 5026.8 1456.9
L 5026.8 1453.85 5022.45 1454.3 Z"/>
</g>

<g id="Layer5_0_MEMBER_1_MEMBER_4_MEMBER_1_MEMBER_2_FILL">
<path fill="#FFFFFF" stroke="none" d="
M 5031.7 1453.25
L 5031.7 1456.3 5036 1455.7 5036 1452.6 5031.7 1453.25 Z"/>
</g>

<g id="Layer5_0_MEMBER_1_MEMBER_4_MEMBER_1_MEMBER_3_FILL">
<path fill="#FFFFFF" stroke="none" d="
M 5040.9 1451.85
L 5040.9 1454.9
Q 5043.1 1454.6 5045.25 1454.15
L 5045.25 1451.1 5040.9 1451.85 Z"/>
</g>

<g id="Layer5_0_MEMBER_1_MEMBER_4_MEMBER_1_MEMBER_4_FILL">
<path fill="#FFFFFF" stroke="none" d="
M 5114.7 1444.95
L 5114.7 1448.05
Q 5116.9 1448.35 5119.05 1448.8
L 5119.05 1445.7 5114.7 1444.95 Z"/>
</g>

<g id="Layer5_0_MEMBER_1_MEMBER_4_MEMBER_1_MEMBER_5_FILL">
<path fill="#FFFFFF" stroke="none" d="
M 5123.9 1446.85
L 5123.9 1449.9
Q 5126.8 1450.7 5128.25 1451.2
L 5128.25 1448.1 5123.9 1446.85 Z"/>
</g>

<g id="Layer5_0_MEMBER_1_MEMBER_4_MEMBER_1_MEMBER_6_FILL">
<path fill="#FFFFFF" stroke="none" d="
M 5068.6 1446.9
L 5068.6 1449.95 5072.9 1449.25 5072.9 1446.2 5068.6 1446.9 Z"/>
</g>

<g id="Layer5_0_MEMBER_1_MEMBER_4_MEMBER_1_MEMBER_7_FILL">
<path fill="#FFFFFF" stroke="none" d="
M 5077.8 1445.5
L 5077.8 1448.55 5082.15 1448 5082.15 1444.95 5077.8 1445.5 Z"/>
</g>

<g id="Layer5_0_MEMBER_1_MEMBER_4_MEMBER_1_MEMBER_8_FILL">
<path fill="#FFFFFF" stroke="none" d="
M 5059.35 1448.5
L 5059.35 1451.6 5063.7 1450.8 5063.7 1447.75 5059.35 1448.5 Z"/>
</g>

<g id="Layer5_0_MEMBER_1_MEMBER_4_MEMBER_1_MEMBER_9_FILL">
<path fill="#FFFFFF" stroke="none" d="
M 5096.25 1443.9
L 5096.25 1447 5100.6 1446.95 5100.6 1443.9
Q 5098.45 1443.85 5096.25 1443.9 Z"/>
</g>

<g id="Layer5_0_MEMBER_1_MEMBER_4_MEMBER_1_MEMBER_10_FILL">
<path fill="#FFFFFF" stroke="none" d="
M 5105.5 1444.05
L 5105.5 1447.1 5109.8 1447.45 5109.8 1444.35 5105.5 1444.05 Z"/>
</g>

<g id="Layer5_0_MEMBER_1_MEMBER_4_MEMBER_1_MEMBER_11_FILL">
<path fill="#FFFFFF" stroke="none" d="
M 5087 1444.45
L 5087 1447.5 5091.35 1447.2 5091.35 1444.1 5087 1444.45 Z"/>
</g>

<g id="Layer5_0_MEMBER_1_MEMBER_4_MEMBER_2_MEMBER_0_FILL">
<path fill="#FFFFFF" stroke="none" d="
M 5050.2 1415.7
L 5050.2 1412.6 5045.85 1413.4 5045.85 1416.5 5050.2 1415.7 Z"/>
</g>

<g id="Layer5_0_MEMBER_1_MEMBER_4_MEMBER_2_MEMBER_1_FILL">
<path fill="#FFFFFF" stroke="none" d="
M 5041 1417.3
L 5041 1414.25 5036.65 1414.95 5036.65 1418 5041 1417.3 Z"/>
</g>

<g id="Layer5_0_MEMBER_1_MEMBER_4_MEMBER_2_MEMBER_2_FILL">
<path fill="#FFFFFF" stroke="none" d="
M 5031.75 1418.75
L 5031.75 1415.65 5027.4 1416.2 5027.4 1419.25 5031.75 1418.75 Z"/>
</g>

<g id="Layer5_0_MEMBER_1_MEMBER_4_MEMBER_2_MEMBER_3_FILL">
<path fill="#FFFFFF" stroke="none" d="
M 5131.45 1414.7
L 5131.45 1411.6 5128.9 1410.7 5128.9 1413.8 5131.45 1414.7 Z"/>
</g>

<g id="Layer5_0_MEMBER_1_MEMBER_4_MEMBER_2_MEMBER_4_FILL">
<path fill="#FFFFFF" stroke="none" d="
M 5114.8 1410.45
L 5114.8 1407.4 5110.45 1406.85 5110.45 1409.9 5114.8 1410.45 Z"/>
</g>

<g id="Layer5_0_MEMBER_1_MEMBER_4_MEMBER_2_MEMBER_5_FILL">
<path fill="#FFFFFF" stroke="none" d="
M 5124 1412.35
L 5124 1409.3
Q 5121.85 1408.7 5119.65 1408.25
L 5119.65 1411.35 5124 1412.35 Z"/>
</g>

<g id="Layer5_0_MEMBER_1_MEMBER_4_MEMBER_2_MEMBER_6_FILL">
<path fill="#FFFFFF" stroke="none" d="
M 5059.45 1414
L 5059.45 1410.9 5055.1 1411.7 5055.1 1414.8 5059.45 1414 Z"/>
</g>

<g id="Layer5_0_MEMBER_1_MEMBER_4_MEMBER_2_MEMBER_7_FILL">
<path fill="#FFFFFF" stroke="none" d="
M 5077.9 1410.95
L 5077.9 1407.9 5073.55 1408.5 5073.55 1411.6 5077.9 1410.95 Z"/>
</g>

<g id="Layer5_0_MEMBER_1_MEMBER_4_MEMBER_2_MEMBER_8_FILL">
<path fill="#FFFFFF" stroke="none" d="
M 5068.65 1412.35
L 5068.65 1409.3 5064.3 1410.05 5064.3 1413.1 5068.65 1412.35 Z"/>
</g>

<g id="Layer5_0_MEMBER_1_MEMBER_4_MEMBER_2_MEMBER_9_FILL">
<path fill="#FFFFFF" stroke="none" d="
M 5087.1 1409.95
L 5087.1 1406.85 5082.75 1407.3 5082.75 1410.35 5087.1 1409.95 Z"/>
</g>

<g id="Layer5_0_MEMBER_1_MEMBER_4_MEMBER_2_MEMBER_10_FILL">
<path fill="#FFFFFF" stroke="none" d="
M 5105.55 1409.55
L 5105.55 1406.45
Q 5103.4 1406.3 5101.2 1406.3
L 5101.2 1409.4
Q 5103.4 1409.4 5105.55 1409.55 Z"/>
</g>

<g id="Layer5_0_MEMBER_1_MEMBER_4_MEMBER_2_MEMBER_11_FILL">
<path fill="#FFFFFF" stroke="none" d="
M 5096.35 1409.4
L 5096.35 1406.3 5092 1406.5 5092 1409.55 5096.35 1409.4 Z"/>
</g>

<g id="Layer5_0_MEMBER_1_MEMBER_4_MEMBER_3_FILL">
<path fill="#FFFFFF" stroke="none" d="
M 5021.45 1423.5
L 5021.45 1450.15
Q 5029.2 1449.5 5038.85 1448 5044.5 1447.05 5056.2 1444.9
L 5056.2 1418.25
Q 5043.25 1420.6 5038.85 1421.3 5029.05 1422.9 5021.45 1423.5 Z"/>
</g>

<g id="Layer5_0_MEMBER_1_MEMBER_4_MEMBER_4_FILL">
<path fill="#FFFFFF" stroke="none" d="
M 5097.35 1413
Q 5089.45 1413.15 5080 1414.35 5073 1415.2 5062.6 1417.05
L 5062.6 1443.7
Q 5073 1441.85 5080 1441 5089.45 1439.8 5097.35 1439.65
L 5097.35 1413 Z"/>
</g>

<g id="Layer5_0_MEMBER_1_MEMBER_4_MEMBER_5_FILL">
<path fill="#FFFFFF" stroke="none" d="
M 5131.9 1418.45
Q 5119.05 1413.75 5104.45 1413.1
L 5104.45 1439.75
Q 5119.35 1440.5 5131.9 1445.15
L 5131.9 1418.45 Z"/>
</g>

<g id="Layer4_0_MEMBER_0_FILL">
<path fill="#913D88" stroke="none" d="
M 2315.45 1870.05
Q 2306.45 1851.65 2291.45 1837.7 2276.35 1823.65 2257.35 1816 2237.65 1808.1 2216.25 1808.1 2193.8 1808.1 2173.25 1816.8 2153.45 1825.15 2138.2 1840.45 2122.9 1855.75 2114.5 1875.55 2105.85 1896.05 2105.85 1918.5 2105.85 1957.95 2130.8 1988.4 2155.4 2018.45 2193.15 2026.45 2196.3 2027.15 2200.1 2027.7 2208 2028.9 2216.25 2028.9 2238.6 2028.9 2259 2020.3 2278.7 2012 2293.95 1996.9 2309.2 1981.75 2317.65 1962.1 2326.4 1941.8 2326.6 1919.5
L 2326.6 1918.5
Q 2326.6 1914.2 2326.3 1910 2324.7 1888.95 2315.45 1870.05 Z"/>
</g>

<g id="flash0_ai_3_Isolation_Mode__Path__0_Layer0_0_FILL">
<path fill="#000000" stroke="none" d="
M 175.6 108.95
Q 184.35 88.65 184.55 66.35
L 133.75 15.5
Q 132.2 13.1 129.65 11.15 127 9.1 124.35 8.3 95.35 0 70.1 0 44.85 0 15.9 8.3 12.35 9.35 9.15 12.35 5.9 15.4 5.1 18.5 -0.1 38.3 0 59.45 -0.1 67 0.3 72.6 1.3 87.65 5.1 102.35 5.65 104.4 7.45 106.6 9.2 108.75 11.55 110.35
L 23.35 122.6
Q 19.2 125.5 13.05 128.4 13.15 128.4 26.95 142.8 44.35 160.95 58.05 174.55 65.95 175.75 74.2 175.75 96.55 175.75 116.95 167.15 136.65 158.85 151.9 143.75 167.15 128.6 175.6 108.95 Z"/>
</g>

<g id="flash0_ai_3_Isolation_Mode__Path__0_0_Layer0_0_FILL">
<path fill="#000000" stroke="none" d="
M 131.1 12.35
Q 127.9 9.35 124.35 8.3 95.35 0 70.1 0 44.85 0 15.9 8.3 12.35 9.35 9.15 12.35 5.9 15.4 5.1 18.5 -1.35 43.25 0.3 68.8 1.3 83.85 5.1 98.55 5.9 101.6 9.15 104.65 12.35 107.65 15.9 108.7 23.35 110.85 31.95 112.75 30.8 116.35 26.75 119.05 24.15 120.75 14.05 125.6 31.1 128.3 44.8 125.5 57.65 122.85 61.7 116.75 76.85 117.55 92.2 115.55 107.4 113.55 124.35 108.7 127.9 107.65 131.1 104.65 134.3 101.6 135.1 98.55 138.9 83.85 139.9 68.8 141.55 43.25 135.1 18.5 134.3 15.4 131.1 12.35 Z"/>
</g>

<g id="Layer4_0_MEMBER_2_MEMBER_0_MEMBER_0_MEMBER_1_MEMBER_0_FILL">
<path fill="#D9D9D9" stroke="none" d="
M 2273.15 1957.8
Q 2276.35 1954.75 2277.15 1951.7 2280.95 1937 2281.95 1921.95
L 2142.35 1921.95
Q 2143.35 1937 2147.15 1951.7 2147.95 1954.75 2151.2 1957.8 2154.4 1960.8 2157.95 1961.85 2165.4 1964 2174 1965.9 2172.75 1969.85 2168.3 1973.6 2163.75 1977.4 2155.1 1981.55 2171.65 1984.2 2186.35 1980.05 2199.45 1976.35 2203.75 1969.9 2218.85 1970.7 2234.25 1968.65 2249.4 1966.7 2266.4 1961.85 2269.95 1960.8 2273.15 1957.8 Z"/>
</g>

<g id="Layer4_0_MEMBER_2_MEMBER_0_MEMBER_0_MEMBER_1_MEMBER_1_FILL">
<path fill="#EBEBEB" stroke="none" d="
M 2277.15 1871.65
Q 2276.35 1868.55 2273.15 1865.5 2269.95 1862.5 2266.4 1861.45 2237.4 1853.15 2212.15 1853.15 2186.9 1853.15 2157.95 1861.45 2154.4 1862.5 2151.2 1865.5 2147.95 1868.55 2147.15 1871.65 2140.7 1896.4 2142.35 1921.95
L 2281.95 1921.95
Q 2283.6 1896.4 2277.15 1871.65 Z"/>
</g>

<g id="Layer4_0_MEMBER_2_MEMBER_0_MEMBER_0_MEMBER_2_MEMBER_0_FILL">
<path fill="#314D5B" stroke="none" d="
M 2186.95 1911
Q 2186.95 1906.5 2183.75 1903.3 2180.55 1900.1 2176 1900.1 2171.45 1900.1 2168.25 1903.3 2165.05 1906.5 2165.05 1911 2165.05 1915.55 2168.25 1918.75 2171.45 1921.95 2176 1921.95 2180.55 1921.95 2183.75 1918.75 2186.95 1915.55 2186.95 1911 Z"/>
</g>

<g id="Layer4_0_MEMBER_2_MEMBER_0_MEMBER_0_MEMBER_2_MEMBER_1_FILL">
<path fill="#314D5B" stroke="none" d="
M 2223.1 1911
Q 2223.1 1906.5 2219.9 1903.3 2216.7 1900.1 2212.15 1900.1 2207.6 1900.1 2204.4 1903.3 2201.2 1906.5 2201.2 1911 2201.2 1915.55 2204.4 1918.75 2207.6 1921.95 2212.15 1921.95 2216.7 1921.95 2219.9 1918.75 2223.1 1915.55 2223.1 1911 Z"/>
</g>

<g id="Layer4_0_MEMBER_2_MEMBER_0_MEMBER_0_MEMBER_2_MEMBER_2_FILL">
<path fill="#314D5B" stroke="none" d="
M 2259.25 1911
Q 2259.25 1906.5 2256.05 1903.3 2252.85 1900.1 2248.3 1900.1 2243.75 1900.1 2240.55 1903.3 2237.35 1906.5 2237.35 1911 2237.35 1915.55 2240.55 1918.75 2243.75 1921.95 2248.3 1921.95 2252.85 1921.95 2256.05 1918.75 2259.25 1915.55 2259.25 1911 Z"/>
</g>

<g id="Layer3_0_MEMBER_0_FILL">
<path fill="#2574A9" stroke="none" d="
M 866.7 62.55
Q 858.3 42.75 843.05 27.5 827.75 12.2 807.95 3.8 787.45 -4.85 765 -4.85 742.55 -4.85 722.05 3.8 702.25 12.2 686.95 27.5 671.65 42.75 663.3 62.55 654.6 83.1 654.6 105.55 654.6 126.95 662.5 146.65 670.15 165.65 684.2 180.75 698.15 195.75 716.55 204.75 735.45 214 756.5 215.6 760.7 215.9 765 215.9 786.7 215.9 806.65 207.8 825.9 199.95 841.05 185.55 856.1 171.2 864.95 152.4 874.05 133.05 875.2 111.55 875.35 108.55 875.35 105.55 875.35 83.1 866.7 62.55 Z"/>
</g>

<g id="flash0_ai_4_Isolation_Mode__Path__0_Layer0_0_FILL">
<path fill="#231F20" stroke="none" d="
M 90.4 3.75
L 90.45 3.8 9.65 84.6 0.05 122.95 0.05 123 0 123.2
Q -0.15 124.4 0.65 125.3
L 49.35 173.05
Q 53.55 173.35 57.85 173.35 79.55 173.35 99.5 165.25 118.75 157.4 133.9 143 148.95 128.65 157.8 109.85 166.9 90.5 168.05 69
L 100.8 1.75
Q 99.1 0.05 96.6 0.05 94.1 0.05 92.35 1.75
L 90.4 3.75 Z"/>
</g>

<g id="Layer3_0_MEMBER_2_MEMBER_0_FILL">
<path fill="#FFEEB5" stroke="none" d="
M 2687.8 2457.3
L 2683.1 2460.35 2673.5 2498.7 2673.5 2498.75
Q 2673.2 2500.05 2674.15 2501
L 2691.9 2472.65 2697.5 2466.9 2687.8 2457.3 Z"/>
</g>

<g id="Layer3_0_MEMBER_2_MEMBER_1_FILL">
<path fill="#F2E1AB" stroke="none" d="
M 2714.9 2492.15
L 2718.45 2487.75 2708.25 2477.55 2702.5 2483.25 2674.15 2501 2674.2 2501.05 2674.25 2501.05
Q 2674.9 2501.8 2676.05 2501.7
L 2714.9 2492.15 Z"/>
</g>

<g id="flash0_ai_4_Isolation_Mode__Path__0_0_Layer0_0_FILL">
<path fill="#000000" stroke="none" d="
M 40.75 14.6
L 44.3 10.2 34.1 0 28.35 5.7 0 23.45 0.05 23.5 0.1 23.5
Q 0.75 24.25 1.9 24.15
L 40.75 14.6 Z"/>
</g>

<g id="Layer3_0_MEMBER_2_MEMBER_3_MEMBER_0_FILL">
<path fill="#F2E1AB" stroke="none" d="
M 2697.5 2466.9
L 2691.9 2472.65 2674.15 2501 2702.5 2483.25 2708.25 2477.55 2697.5 2466.9 Z"/>
</g>

<g id="Layer3_0_MEMBER_2_MEMBER_3_MEMBER_1_FILL">
<path fill="#FFFFFF" stroke="none" d="
M 2700.5 2463.85
L 2697.5 2466.9 2708.25 2477.55 2710.5 2475.25 2700.5 2463.85 Z"/>
</g>

<g id="Layer3_0_MEMBER_2_MEMBER_3_MEMBER_2_FILL">
<path fill="#F3C239" stroke="none" d="
M 2683.1 2460.35
L 2682.75 2461.75
Q 2687.2 2461.05 2690.25 2464.55 2693.35 2468.1 2691.95 2472.55
L 2691.85 2472.6 2691.95 2472.6 2691.9 2472.65 2692 2472.6
Q 2696.9 2471.05 2700.5 2474.7 2704.1 2478.4 2702.5 2483.25 2707.05 2481.75 2710.6 2484.9 2714.15 2487.95 2713.45 2492.5
L 2714.9 2492.15 2718.45 2487.75 2687.4 2456.95 2683.1 2460.35 Z"/>
</g>

<g id="Layer3_0_MEMBER_2_MEMBER_3_MEMBER_3_MEMBER_0_FILL">
<path fill="#FF9900" stroke="none" d="
M 2785.05 2400.7
L 2774.4 2390.05 2693.65 2470.85
Q 2698.55 2469.25 2702.2 2472.9 2705.85 2476.6 2704.25 2481.5
L 2785.05 2400.7 Z"/>
</g>

<g id="Layer3_0_MEMBER_2_MEMBER_3_MEMBER_3_MEMBER_1_FILL">
<path fill="#FF8F00" stroke="none" d="
M 2795.7 2411.35
L 2785.05 2400.7 2704.25 2481.5
Q 2709.2 2479.9 2712.85 2483.55 2716.5 2487.2 2714.9 2492.15
L 2795.7 2411.35 Z"/>
</g>

<g id="Layer3_0_MEMBER_2_MEMBER_3_MEMBER_3_MEMBER_2_FILL">
<path fill="#FFA300" stroke="none" d="
M 2774.45 2390.1
L 2763.9 2379.55 2683.1 2460.35
Q 2688 2458.75 2691.6 2462.4 2695.25 2466.05 2693.65 2470.9
L 2774.45 2390.1 Z"/>
</g>

<g id="Layer3_0_MEMBER_2_MEMBER_3_MEMBER_4_FILL">
<path fill="#314D5B" stroke="none" d="
M 2675.45 2490.95
L 2673.5 2498.7
Q 2673.15 2500.05 2674.1 2501 2675.15 2502.05 2676.4 2501.65
L 2684.2 2499.7 2675.45 2490.95 Z"/>
</g>

<g id="Layer3_0_MEMBER_2_MEMBER_3_MEMBER_5_FILL">
<path fill="#CCCCCC" stroke="none" d="
M 348.25 -184.95
L 345.35 -182 379.75 -148.15 382.45 -150.85 348.25 -184.95 Z"/>
</g>

<g id="Layer3_0_MEMBER_2_MEMBER_3_MEMBER_5_MEMBER_0_FILL">
<path fill="#FF99CC" stroke="none" d="
M 2799.35 2405.1
Q 2799.35 2402.6 2797.6 2400.85
L 2774.25 2377.5
Q 2772.55 2375.75 2770.05 2375.75 2767.55 2375.75 2765.8 2377.5
L 2763.85 2379.5 2795.65 2411.3 2797.6 2409.3
Q 2799.35 2407.55 2799.35 2405.1 Z"/>
</g>

<g id="Layer0_0_MEMBER_0_MEMBER_0_FILL">
<path fill="#F22613" stroke="none" d="
M 192.45 37.75
Q 180.25 25.55 163 25.55 145.8 25.55 133.6 37.75 121.45 49.95 121.45 67.15 121.45 84.35 133.6 96.55 145.8 108.75 163 108.75 180.25 108.75 192.45 96.55 204.6 84.35 204.6 67.15 204.6 49.95 192.45 37.75 Z"/>
</g>

<g id="flash0_ai_5_shadow__Path__0_Layer0_0_FILL">
<path fill="#231F20" stroke="none" d="
M 39.25 5.6
Q 36.55 2.95 33.1 1.5 29.5 0 25.55 0 17.5 0 11.8 5.7 6.1 11.4 6.1 19.45
L 6.2 21.15 6.1 21.15 6.45 23.1 4.5 23.4 5.05 26.4
Q 2.75 27.65 1.4 29.9 0 32.15 0 34.85 0 38.85 2.9 41.75
L 29.7 68.55
Q 43.9 66.75 54 56.55 64.1 46.35 65.75 32.1
L 39.25 5.6 Z"/>
</g>

<g id="Layer0_0_MEMBER_2_MEMBER_0_FILL">
<path fill="#BEBEC3" stroke="none" d="
M 183.45 61.1
Q 181.95 54.6 176.6 50.4 171.15 46.15 164.1 46.15 157.1 46.15 151.65 50.4 146.3 54.65 144.8 61.1
L 145.8 61.1
Q 147.3 55.05 152.35 51.15 157.5 47.15 164.1 47.15 170.7 47.15 175.9 51.15 181 55.05 182.45 61.1
L 183.45 61.1 Z"/>
</g>

<g id="Layer0_0_MEMBER_2_MEMBER_1_MEMBER_0_FILL">
<path fill="#505163" stroke="none" d="
M 164.1 40.85
Q 171.8 40.85 177.2 46.25 179.75 48.8 181.15 52.1 182.6 55.55 182.6 59.3 182.6 60.6 182.45 61.8
L 183.4 61.9
Q 183.6 60.75 183.6 59.3 183.6 51.25 177.9 45.55 172.15 39.85 164.1 39.85 156.05 39.85 150.35 45.55 144.65 51.25 144.65 59.3 144.65 60.25 144.85 62.05
L 145.85 61.9
Q 145.65 60.75 145.65 59.3 145.65 51.65 151.05 46.25 156.45 40.85 164.1 40.85 Z"/>
</g>

<g id="Layer0_0_MEMBER_2_MEMBER_2_FILL">
<path fill="#2D2D3B" stroke="none" d="
M 182 62.8
L 183.35 63.05 183.75 61 182.35 60.8 182 62.8 Z"/>
</g>

<g id="Layer0_0_MEMBER_2_MEMBER_3_FILL">
<path fill="#FFFFFF" stroke="none" d="
M 187.15 68.1
Q 184.55 65.35 180.75 65.1
L 180.75 84.35
Q 184.55 84.15 187.15 81.35 189.8 78.55 189.8 74.7 189.8 70.9 187.15 68.1 Z"/>
</g>

<g id="Layer0_0_MEMBER_2_MEMBER_4_FILL">
<path fill="#2D2D3B" stroke="none" d="
M 180.75 65
Q 180.75 64.5 180.2 64.5
L 176.85 64.5
Q 176 64.5 175.35 65.1 174.75 65.75 174.75 66.6
L 174.75 82.85
Q 174.75 83.7 175.35 84.3 176 84.9 176.85 84.9
L 180.2 84.9
Q 180.75 84.9 180.75 84.4
L 180.75 65 Z"/>
</g>

<g id="Layer0_0_MEMBER_2_MEMBER_5_FILL">
<path fill="#BEBEC3" stroke="none" d="
M 185.3 63.25
L 180.25 62.4 178.2 74.2
Q 178 75.25 178.6 76.15 179.2 77 180.25 77.2 181.3 77.4 182.2 76.75 183.05 76.15 183.25 75.1
L 185.3 63.25 Z"/>
</g>

<g id="Layer0_0_MEMBER_2_MEMBER_6_FILL">
<path fill="#2D2D3B" stroke="none" d="
M 145 63.05
L 146.35 62.8 146 60.8 144.65 61 145 63.05 Z"/>
</g>

<g id="Layer0_0_MEMBER_2_MEMBER_7_FILL">
<path fill="#FFFFFF" stroke="none" d="
M 147.65 65.1
Q 143.85 65.35 141.2 68.1 138.55 70.9 138.55 74.7 138.55 78.55 141.2 81.35 143.85 84.15 147.65 84.35
L 147.65 65.1 Z"/>
</g>

<g id="Layer0_0_MEMBER_2_MEMBER_8_FILL">
<path fill="#2D2D3B" stroke="none" d="
M 148.15 64.5
Q 147.65 64.5 147.65 65
L 147.65 84.4
Q 147.65 84.9 148.15 84.9
L 151.55 84.9
Q 152.4 84.9 153 84.3 153.6 83.7 153.6 82.85
L 153.6 66.6
Q 153.6 65.75 153 65.1 152.4 64.5 151.55 64.5
L 148.15 64.5 Z"/>
</g>

<g id="Layer0_0_MEMBER_2_MEMBER_9_FILL">
<path fill="#BEBEC3" stroke="none" d="
M 148.15 62.4
L 143.05 63.25 145.15 75.1
Q 145.35 76.15 146.2 76.75 147.05 77.4 148.1 77.2 149.15 77 149.75 76.15 150.4 75.25 150.2 74.2
L 148.15 62.4 Z"/>
</g>

<g id="Layer0_0_MEMBER_2_MEMBER_10_FILL">
<path fill="#2D2D3B" stroke="none" d="
M 179.1 57.2
L 180.2 55.85
Q 177.7 51.9 173.45 49.55 169.1 47.15 164.1 47.15 159.1 47.15 154.8 49.55 150.55 51.9 148.05 55.85
L 149.15 57.2
Q 149.6 57.75 150.35 57.75 150.9 57.75 151.35 57.4 156.8 52.9 164.1 52.9 171.35 52.9 176.9 57.4 177.3 57.75 177.9 57.75 178.65 57.75 179.1 57.2 Z"/>
</g>

<g id="Layer0_0_MEMBER_2_MEMBER_11_FILL">
<path fill="#505163" stroke="none" d="
M 180.15 73.85
Q 179.85 74.1 179.75 74.5 179.7 74.9 179.9 75.2 180.15 75.55 180.55 75.6 180.95 75.7 181.25 75.45 181.6 75.2 181.65 74.8 181.75 74.4 181.5 74.1 181.25 73.8 180.85 73.7 180.45 73.65 180.15 73.85 Z"/>
</g>

<g id="Layer0_0_MEMBER_2_MEMBER_12_FILL">
<path fill="#505163" stroke="none" d="
M 148.65 74.5
Q 148.6 74.1 148.25 73.85 147.9 73.65 147.5 73.7 147.1 73.8 146.85 74.1 146.65 74.4 146.7 74.8 146.8 75.2 147.1 75.45 147.45 75.7 147.85 75.6 148.2 75.55 148.45 75.2 148.7 74.9 148.65 74.5 Z"/>
</g>
</defs>

<g enable-background="new">
<g transform="matrix( 1.1321258544921875, 0, 0, 1.13177490234375, -1335.3,-1543.5) ">
<use xlink:href="#Layer8_0_MEMBER_0_FILL"/>
</g>

<g transform="matrix( 1.1321258544921875, 0, 0, 1.13177490234375, 213.95,-326.45) ">
<g transform="matrix( 1, 0, 0, 1, 0,0) ">
<use filter="url(#Filter_1)" xlink:href="#flash0_ai_Isolation_Mode__Path__0_Layer0_0_FILL"/>
</g>
</g>

<g transform="matrix( 1.1321258544921875, 0, 0, 1.13177490234375, -1335.3,-1543.5) ">
<use xlink:href="#Layer8_0_MEMBER_2_MEMBER_0_FILL"/>
</g>

<g transform="matrix( 1.1321258544921875, 0, 0, 1.13177490234375, 224.6,-317) ">
<g transform="matrix( 1, 0, 0, 1, 0,0) ">
<use filter="url(#Filter_2)" xlink:href="#flash0_ai_Isolation_Mode__Path__6_0_Layer0_0_FILL"/>
</g>
</g>

<g transform="matrix( 1.1321258544921875, 0, 0, 1.13177490234375, -1335.3,-1543.5) ">
<use xlink:href="#Layer8_0_MEMBER_2_MEMBER_2_FILL"/>
</g>

<g transform="matrix( 1.1321258544921875, 0, 0, 1.13177490234375, -1335.3,-1543.5) ">
<use xlink:href="#Layer8_0_MEMBER_2_MEMBER_3_FILL"/>
</g>

<g transform="matrix( 1.1321258544921875, 0, 0, 1.13177490234375, -1335.3,-1543.5) ">
<use xlink:href="#Layer8_0_MEMBER_2_MEMBER_4_FILL"/>
</g>

<g transform="matrix( 1.1321258544921875, 0, 0, 1.13177490234375, -1335.3,-1543.5) ">
<use xlink:href="#Layer8_0_MEMBER_2_MEMBER_5_FILL"/>
</g>

<g transform="matrix( 1.1321258544921875, 0, 0, 1.13177490234375, -1335.3,-1543.5) ">
<use xlink:href="#Layer8_0_MEMBER_2_MEMBER_6_FILL"/>
</g>

<g transform="matrix( 1.1321258544921875, 0, 0, 1.13177490234375, 297.25,-318.15) ">
<g transform="matrix( 1, 0, 0, 1, 0,0) ">
<use filter="url(#Filter_2)" xlink:href="#flash0_ai_Isolation_Mode__Path__0_0_Layer0_0_FILL"/>
</g>
</g>

<g transform="matrix( 1.1321258544921875, 0, 0, 1.13177490234375, 311.1,-314.95) ">
<g transform="matrix( 1, 0, 0, 1, 0,0) ">
<use filter="url(#Filter_1)" xlink:href="#flash0_ai_Isolation_Mode__Path__5_0_Layer0_0_FILL"/>
</g>
</g>

<g transform="matrix( 1.1321258544921875, 0, 0, 1.13177490234375, 311.1,-297.4) ">
<g transform="matrix( 1, 0, 0, 1, 0,0) ">
<use filter="url(#Filter_1)" xlink:href="#flash0_ai_Isolation_Mode__Path__4_0_Layer0_0_FILL"/>
</g>
</g>

<g transform="matrix( 1.1321258544921875, 0, 0, 1.13177490234375, 311.1,-280.05) ">
<g transform="matrix( 1, 0, 0, 1, 0,0) ">
<use filter="url(#Filter_1)" xlink:href="#flash0_ai_Isolation_Mode__Path__3_0_Layer0_0_FILL"/>
</g>
</g>

<g transform="matrix( 1.1321258544921875, 0, 0, 1.13177490234375, 311.1,-262.7) ">
<g transform="matrix( 1, 0, 0, 1, 0,0) ">
<use filter="url(#Filter_1)" xlink:href="#flash0_ai_Isolation_Mode__Path__2_0_Layer0_0_FILL"/>
</g>
</g>

<g transform="matrix( 1.1321258544921875, 0, 0, 1.13177490234375, 311.1,-244.9) ">
<g transform="matrix( 1, 0, 0, 1, 0,0) ">
<use filter="url(#Filter_1)" xlink:href="#flash0_ai_Isolation_Mode__Path__1_0_Layer0_0_FILL"/>
</g>
</g>

<g transform="matrix( 1.1321258544921875, 0, 0, 1.13177490234375, 311.1,-227.55) ">
<g transform="matrix( 1, 0, 0, 1, 0,0) ">
<use filter="url(#Filter_1)" xlink:href="#flash0_ai_Isolation_Mode__Path__7_0_Layer0_0_FILL"/>
</g>
</g>

<g transform="matrix( 1.1321258544921875, 0, 0, 1.13177490234375, 241.85,-314.95) ">
<g transform="matrix( 1, 0, 0, 1, 0,0) ">
<use filter="url(#Filter_1)" xlink:href="#flash0_ai_Isolation_Mode__Path__5_0_0_Layer0_0_FILL"/>
</g>
</g>

<g transform="matrix( 1.1321258544921875, 0, 0, 1.13177490234375, 233.15,-297.4) ">
<g transform="matrix( 1, 0, 0, 1, 0,0) ">
<use filter="url(#Filter_1)" xlink:href="#flash0_ai_Isolation_Mode__Path__4_0_0_Layer0_0_FILL"/>
</g>
</g>

<g transform="matrix( 1.1321258544921875, 0, 0, 1.13177490234375, 233.15,-280.05) ">
<g transform="matrix( 1, 0, 0, 1, 0,0) ">
<use filter="url(#Filter_1)" xlink:href="#flash0_ai_Isolation_Mode__Path__3_0_0_Layer0_0_FILL"/>
</g>
</g>

<g transform="matrix( 1.1321258544921875, 0, 0, 1.13177490234375, 233.15,-262.7) ">
<g transform="matrix( 1, 0, 0, 1, 0,0) ">
<use filter="url(#Filter_1)" xlink:href="#flash0_ai_Isolation_Mode__Path__2_0_0_Layer0_0_FILL"/>
</g>
</g>

<g transform="matrix( 1.1321258544921875, 0, 0, 1.13177490234375, 233.15,-244.9) ">
<g transform="matrix( 1, 0, 0, 1, 0,0) ">
<use filter="url(#Filter_1)" xlink:href="#flash0_ai_Isolation_Mode__Path__1_0_0_Layer0_0_FILL"/>
</g>
</g>

<g transform="matrix( 1.1321258544921875, 0, 0, 1.13177490234375, 233.15,-227.55) ">
<g transform="matrix( 1, 0, 0, 1, 0,0) ">
<use filter="url(#Filter_1)" xlink:href="#flash0_ai_Isolation_Mode__Path__8_0_Layer0_0_FILL"/>
</g>
</g>

<g transform="matrix( 1.0001983642578125, 0, 0, 1, -35.85,-83.4) ">
<use xlink:href="#Layer5_0_MEMBER_0_MEMBER_0_FILL"/>
</g>

<g transform="matrix( 1.1325225830078125, 0, 0, 1.1319427490234375, -178.8,-412.6) ">
<g transform="matrix( 1, 0, 0, 1, 0,0) ">
<use filter="url(#Filter_1)" xlink:href="#flash0_ai_2_Isolation_Mode__Path__0_Layer0_0_FILL"/>
</g>
</g>

<g transform="matrix( 1.1325225830078125, 0, 0, 1.1319427490234375, -5809,-1907.7) ">
<use xlink:href="#Layer5_0_MEMBER_1_MEMBER_0_FILL"/>
</g>

<g transform="matrix( 1.1325225830078125, 0, 0, 1.1319427490234375, -5809,-1907.7) ">
<use xlink:href="#Layer5_0_MEMBER_1_MEMBER_1_MEMBER_0_FILL"/>
</g>

<g transform="matrix( 1.1325225830078125, 0, 0, 1.1319427490234375, -5809,-1907.7) ">
<use xlink:href="#Layer5_0_MEMBER_1_MEMBER_1_MEMBER_1_FILL"/>
</g>

<g transform="matrix( 1.1325225830078125, 0, 0, 1.1319427490234375, -5809,-1907.7) ">
<use xlink:href="#Layer5_0_MEMBER_1_MEMBER_2_MEMBER_0_FILL"/>
</g>

<g transform="matrix( 1.1325225830078125, 0, 0, 1.1319427490234375, -5809,-1907.7) ">
<use xlink:href="#Layer5_0_MEMBER_1_MEMBER_2_MEMBER_1_FILL"/>
</g>

<g transform="matrix( 1.1325225830078125, 0, 0, 1.1319427490234375, -5809,-1907.7) ">
<use xlink:href="#Layer5_0_MEMBER_1_MEMBER_2_MEMBER_2_FILL"/>
</g>

<g transform="matrix( 1.1325225830078125, 0, 0, 1.1319427490234375, -5809,-1907.7) ">
<use xlink:href="#Layer5_0_MEMBER_1_MEMBER_2_MEMBER_3_FILL"/>
</g>

<g transform="matrix( 1.1325225830078125, 0, 0, 1.1319427490234375, -5809,-1907.7) ">
<use xlink:href="#Layer5_0_MEMBER_1_MEMBER_2_MEMBER_4_FILL"/>
</g>

<g transform="matrix( 1.1325225830078125, 0, 0, 1.1319427490234375, -5809,-1907.7) ">
<use xlink:href="#Layer5_0_MEMBER_1_MEMBER_2_MEMBER_5_FILL"/>
</g>

<g transform="matrix( 1.1325225830078125, 0, 0, 1.1319427490234375, -5809,-1907.7) ">
<use xlink:href="#Layer5_0_MEMBER_1_MEMBER_2_MEMBER_6_FILL"/>
</g>

<g transform="matrix( 1.1325225830078125, 0, 0, 1.1319427490234375, -5809,-1907.7) ">
<use xlink:href="#Layer5_0_MEMBER_1_MEMBER_2_MEMBER_7_FILL"/>
</g>

<g transform="matrix( 1.1325225830078125, 0, 0, 1.1319427490234375, -5809,-1907.7) ">
<use xlink:href="#Layer5_0_MEMBER_1_MEMBER_2_MEMBER_8_FILL"/>
</g>

<g transform="matrix( 1.1325225830078125, 0, 0, 1.1319427490234375, -5809,-1907.7) ">
<use xlink:href="#Layer5_0_MEMBER_1_MEMBER_2_MEMBER_9_FILL"/>
</g>

<g transform="matrix( 1.1325225830078125, 0, 0, 1.1319427490234375, -5809,-1907.7) ">
<use xlink:href="#Layer5_0_MEMBER_1_MEMBER_2_MEMBER_10_FILL"/>
</g>

<g transform="matrix( 1.1325225830078125, 0, 0, 1.1319427490234375, -5809,-1907.7) ">
<use xlink:href="#Layer5_0_MEMBER_1_MEMBER_2_MEMBER_11_FILL"/>
</g>

<g transform="matrix( 1.1325225830078125, 0, 0, 1.1319427490234375, -5809,-1907.7) ">
<use xlink:href="#Layer5_0_MEMBER_1_MEMBER_3_FILL"/>
</g>

<g transform="matrix( 1.1325225830078125, 0, 0, 1.1319427490234375, -5809,-1907.7) ">
<use xlink:href="#Layer5_0_MEMBER_1_MEMBER_4_MEMBER_0_FILL"/>
</g>

<g transform="matrix( 1.1325225830078125, 0, 0, 1.1319427490234375, -5809,-1907.7) ">
<use xlink:href="#Layer5_0_MEMBER_1_MEMBER_4_MEMBER_1_MEMBER_0_FILL"/>
</g>

<g transform="matrix( 1.1325225830078125, 0, 0, 1.1319427490234375, -5809,-1907.7) ">
<use xlink:href="#Layer5_0_MEMBER_1_MEMBER_4_MEMBER_1_MEMBER_1_FILL"/>
</g>

<g transform="matrix( 1.1325225830078125, 0, 0, 1.1319427490234375, -5809,-1907.7) ">
<use xlink:href="#Layer5_0_MEMBER_1_MEMBER_4_MEMBER_1_MEMBER_2_FILL"/>
</g>

<g transform="matrix( 1.1325225830078125, 0, 0, 1.1319427490234375, -5809,-1907.7) ">
<use xlink:href="#Layer5_0_MEMBER_1_MEMBER_4_MEMBER_1_MEMBER_3_FILL"/>
</g>

<g transform="matrix( 1.1325225830078125, 0, 0, 1.1319427490234375, -5809,-1907.7) ">
<use xlink:href="#Layer5_0_MEMBER_1_MEMBER_4_MEMBER_1_MEMBER_4_FILL"/>
</g>

<g transform="matrix( 1.1325225830078125, 0, 0, 1.1319427490234375, -5809,-1907.7) ">
<use xlink:href="#Layer5_0_MEMBER_1_MEMBER_4_MEMBER_1_MEMBER_5_FILL"/>
</g>

<g transform="matrix( 1.1325225830078125, 0, 0, 1.1319427490234375, -5809,-1907.7) ">
<use xlink:href="#Layer5_0_MEMBER_1_MEMBER_4_MEMBER_1_MEMBER_6_FILL"/>
</g>

<g transform="matrix( 1.1325225830078125, 0, 0, 1.1319427490234375, -5809,-1907.7) ">
<use xlink:href="#Layer5_0_MEMBER_1_MEMBER_4_MEMBER_1_MEMBER_7_FILL"/>
</g>

<g transform="matrix( 1.1325225830078125, 0, 0, 1.1319427490234375, -5809,-1907.7) ">
<use xlink:href="#Layer5_0_MEMBER_1_MEMBER_4_MEMBER_1_MEMBER_8_FILL"/>
</g>

<g transform="matrix( 1.1325225830078125, 0, 0, 1.1319427490234375, -5809,-1907.7) ">
<use xlink:href="#Layer5_0_MEMBER_1_MEMBER_4_MEMBER_1_MEMBER_9_FILL"/>
</g>

<g transform="matrix( 1.1325225830078125, 0, 0, 1.1319427490234375, -5809,-1907.7) ">
<use xlink:href="#Layer5_0_MEMBER_1_MEMBER_4_MEMBER_1_MEMBER_10_FILL"/>
</g>

<g transform="matrix( 1.1325225830078125, 0, 0, 1.1319427490234375, -5809,-1907.7) ">
<use xlink:href="#Layer5_0_MEMBER_1_MEMBER_4_MEMBER_1_MEMBER_11_FILL"/>
</g>

<g transform="matrix( 1.1325225830078125, 0, 0, 1.1319427490234375, -5809,-1907.7) ">
<use xlink:href="#Layer5_0_MEMBER_1_MEMBER_4_MEMBER_2_MEMBER_0_FILL"/>
</g>

<g transform="matrix( 1.1325225830078125, 0, 0, 1.1319427490234375, -5809,-1907.7) ">
<use xlink:href="#Layer5_0_MEMBER_1_MEMBER_4_MEMBER_2_MEMBER_1_FILL"/>
</g>

<g transform="matrix( 1.1325225830078125, 0, 0, 1.1319427490234375, -5809,-1907.7) ">
<use xlink:href="#Layer5_0_MEMBER_1_MEMBER_4_MEMBER_2_MEMBER_2_FILL"/>
</g>

<g transform="matrix( 1.1325225830078125, 0, 0, 1.1319427490234375, -5809,-1907.7) ">
<use xlink:href="#Layer5_0_MEMBER_1_MEMBER_4_MEMBER_2_MEMBER_3_FILL"/>
</g>

<g transform="matrix( 1.1325225830078125, 0, 0, 1.1319427490234375, -5809,-1907.7) ">
<use xlink:href="#Layer5_0_MEMBER_1_MEMBER_4_MEMBER_2_MEMBER_4_FILL"/>
</g>

<g transform="matrix( 1.1325225830078125, 0, 0, 1.1319427490234375, -5809,-1907.7) ">
<use xlink:href="#Layer5_0_MEMBER_1_MEMBER_4_MEMBER_2_MEMBER_5_FILL"/>
</g>

<g transform="matrix( 1.1325225830078125, 0, 0, 1.1319427490234375, -5809,-1907.7) ">
<use xlink:href="#Layer5_0_MEMBER_1_MEMBER_4_MEMBER_2_MEMBER_6_FILL"/>
</g>

<g transform="matrix( 1.1325225830078125, 0, 0, 1.1319427490234375, -5809,-1907.7) ">
<use xlink:href="#Layer5_0_MEMBER_1_MEMBER_4_MEMBER_2_MEMBER_7_FILL"/>
</g>

<g transform="matrix( 1.1325225830078125, 0, 0, 1.1319427490234375, -5809,-1907.7) ">
<use xlink:href="#Layer5_0_MEMBER_1_MEMBER_4_MEMBER_2_MEMBER_8_FILL"/>
</g>

<g transform="matrix( 1.1325225830078125, 0, 0, 1.1319427490234375, -5809,-1907.7) ">
<use xlink:href="#Layer5_0_MEMBER_1_MEMBER_4_MEMBER_2_MEMBER_9_FILL"/>
</g>

<g transform="matrix( 1.1325225830078125, 0, 0, 1.1319427490234375, -5809,-1907.7) ">
<use xlink:href="#Layer5_0_MEMBER_1_MEMBER_4_MEMBER_2_MEMBER_10_FILL"/>
</g>

<g transform="matrix( 1.1325225830078125, 0, 0, 1.1319427490234375, -5809,-1907.7) ">
<use xlink:href="#Layer5_0_MEMBER_1_MEMBER_4_MEMBER_2_MEMBER_11_FILL"/>
</g>

<g transform="matrix( 1.1325225830078125, 0, 0, 1.1319427490234375, -5809,-1907.7) ">
<use xlink:href="#Layer5_0_MEMBER_1_MEMBER_4_MEMBER_3_FILL"/>
</g>

<g transform="matrix( 1.1325225830078125, 0, 0, 1.1319427490234375, -5809,-1907.7) ">
<use xlink:href="#Layer5_0_MEMBER_1_MEMBER_4_MEMBER_4_FILL"/>
</g>

<g transform="matrix( 1.1325225830078125, 0, 0, 1.1319427490234375, -5809,-1907.7) ">
<use xlink:href="#Layer5_0_MEMBER_1_MEMBER_4_MEMBER_5_FILL"/>
</g>

<g transform="matrix( 1.132476806640625, 0, 0, 1.13177490234375, -1118.05,-2412.55) ">
<use xlink:href="#Layer4_0_MEMBER_0_FILL"/>
</g>

<g transform="matrix( 1.132476806640625, 0, 0, 1.13177490234375, 1307.3,-315.15) ">
<g transform="matrix( 1, 0, 0, 1, 0,0) ">
<use filter="url(#Filter_1)" xlink:href="#flash0_ai_3_Isolation_Mode__Path__0_Layer0_0_FILL"/>
</g>
</g>

<g transform="matrix( 1.132476806640625, 0, 0, 1.13177490234375, 1307.3,-310.9) ">
<g transform="matrix( 1, 0, 0, 1, 0,0) ">
<use filter="url(#Filter_1)" xlink:href="#flash0_ai_3_Isolation_Mode__Path__0_0_Layer0_0_FILL"/>
</g>
</g>

<g transform="matrix( 1.132476806640625, 0, 0, 1.13177490234375, -1118.05,-2412.55) ">
<use xlink:href="#Layer4_0_MEMBER_2_MEMBER_0_MEMBER_0_MEMBER_1_MEMBER_0_FILL"/>
</g>

<g transform="matrix( 1.132476806640625, 0, 0, 1.13177490234375, -1118.05,-2412.55) ">
<use xlink:href="#Layer4_0_MEMBER_2_MEMBER_0_MEMBER_0_MEMBER_1_MEMBER_1_FILL"/>
</g>

<g transform="matrix( 1.132476806640625, 0, 0, 1.13177490234375, -1118.05,-2412.55) ">
<use xlink:href="#Layer4_0_MEMBER_2_MEMBER_0_MEMBER_0_MEMBER_2_MEMBER_0_FILL"/>
</g>

<g transform="matrix( 1.132476806640625, 0, 0, 1.13177490234375, -1118.05,-2412.55) ">
<use xlink:href="#Layer4_0_MEMBER_2_MEMBER_0_MEMBER_0_MEMBER_2_MEMBER_1_FILL"/>
</g>

<g transform="matrix( 1.132476806640625, 0, 0, 1.13177490234375, -1118.05,-2412.55) ">
<use xlink:href="#Layer4_0_MEMBER_2_MEMBER_0_MEMBER_0_MEMBER_2_MEMBER_2_FILL"/>
</g>

<g transform="matrix( 1.132476806640625, 0, 0, 1.1326446533203125, -214.25,-374.9) ">
<use xlink:href="#Layer3_0_MEMBER_0_FILL"/>
</g>

<g transform="matrix( 1.132476806640625, 0, 0, 1.1326446533203125, 586.35,-326.9) ">
<g transform="matrix( 1, 0, 0, 1, 0,0) ">
<use filter="url(#Filter_1)" xlink:href="#flash0_ai_4_Isolation_Mode__Path__0_Layer0_0_FILL"/>
</g>
</g>

<g transform="matrix( 1.216461181640625, -0.0000152587890625, 0.000152587890625, 1.2166290283203125, -2672.1,-3225.4) ">
<use xlink:href="#Layer3_0_MEMBER_2_MEMBER_0_FILL"/>
</g>

<g transform="matrix( 1.216461181640625, -0.0000152587890625, 0.000152587890625, 1.2166290283203125, -2672.1,-3225.4) ">
<use xlink:href="#Layer3_0_MEMBER_2_MEMBER_1_FILL"/>
</g>

<g transform="matrix( 1.216461181640625, -0.0000152587890625, 0.000152587890625, 1.2166290283203125, 582.15,-210.1) ">
<g transform="matrix( 1, 0, 0, 1, 0,0) ">
<use filter="url(#Filter_3)" xlink:href="#flash0_ai_4_Isolation_Mode__Path__0_0_Layer0_0_FILL"/>
</g>
</g>

<g transform="matrix( 1.216461181640625, -0.0000152587890625, 0.000152587890625, 1.2166290283203125, -2672.1,-3225.4) ">
<use xlink:href="#Layer3_0_MEMBER_2_MEMBER_3_MEMBER_0_FILL"/>
</g>

<g transform="matrix( 1.216461181640625, -0.0000152587890625, 0.000152587890625, 1.2166290283203125, -2672.1,-3225.4) ">
<use xlink:href="#Layer3_0_MEMBER_2_MEMBER_3_MEMBER_1_FILL"/>
</g>

<g transform="matrix( 1.216461181640625, -0.0000152587890625, 0.000152587890625, 1.2166290283203125, -2672.1,-3225.4) ">
<use xlink:href="#Layer3_0_MEMBER_2_MEMBER_3_MEMBER_2_FILL"/>
</g>

<g transform="matrix( 1.216461181640625, -0.0000152587890625, 0.000152587890625, 1.2166290283203125, -2672.1,-3225.4) ">
<use xlink:href="#Layer3_0_MEMBER_2_MEMBER_3_MEMBER_3_MEMBER_0_FILL"/>
</g>

<g transform="matrix( 1.216461181640625, -0.0000152587890625, 0.000152587890625, 1.2166290283203125, -2672.1,-3225.4) ">
<use xlink:href="#Layer3_0_MEMBER_2_MEMBER_3_MEMBER_3_MEMBER_1_FILL"/>
</g>

<g transform="matrix( 1.216461181640625, -0.0000152587890625, 0.000152587890625, 1.2166290283203125, -2672.1,-3225.4) ">
<use xlink:href="#Layer3_0_MEMBER_2_MEMBER_3_MEMBER_3_MEMBER_2_FILL"/>
</g>

<g transform="matrix( 1.216461181640625, -0.0000152587890625, 0.000152587890625, 1.2166290283203125, -2672.1,-3225.4) ">
<use xlink:href="#Layer3_0_MEMBER_2_MEMBER_3_MEMBER_4_FILL"/>
</g>

<g transform="matrix( 1.132476806640625, 0, 0, 1.1326446533203125, 297.45,-120.85) ">
<use xlink:href="#Layer3_0_MEMBER_2_MEMBER_3_MEMBER_5_FILL"/>
</g>

<g transform="matrix( 1.216461181640625, -0.0000152587890625, 0.000152587890625, 1.2166290283203125, -2671.8,-3225.4) ">
<use xlink:href="#Layer3_0_MEMBER_2_MEMBER_3_MEMBER_5_MEMBER_0_FILL"/>
</g>

<g transform="matrix( 3.00628662109375, 0, 0, 3.00506591796875, 537.75,-442.55) ">
<use xlink:href="#Layer0_0_MEMBER_0_MEMBER_0_FILL"/>
</g>

<g filter="url(#Filter_4)" transform="matrix( 1, 0, 0, 1, 0,0) ">
<g transform="matrix( 3.00628662109375, 0, 0, 3.00506591796875, 955.2,-323.15) ">
<g transform="matrix( 1, 0, 0, 1, 0,0) ">
<use filter="url(#Filter_1)" xlink:href="#flash0_ai_5_shadow__Path__0_Layer0_0_FILL"/>
</g>
</g>
</g>

<g transform="matrix( 3.00628662109375, 0, 0, 3.00506591796875, 537.75,-442.55) ">
<use xlink:href="#Layer0_0_MEMBER_2_MEMBER_0_FILL"/>
</g>

<g transform="matrix( 3.00628662109375, 0, 0, 3.00506591796875, 537.75,-442.55) ">
<use xlink:href="#Layer0_0_MEMBER_2_MEMBER_1_MEMBER_0_FILL"/>
</g>

<g transform="matrix( 3.00628662109375, 0, 0, 3.00506591796875, 537.75,-442.55) ">
<use xlink:href="#Layer0_0_MEMBER_2_MEMBER_2_FILL"/>
</g>

<g transform="matrix( 3.00628662109375, 0, 0, 3.00506591796875, 537.75,-442.55) ">
<use xlink:href="#Layer0_0_MEMBER_2_MEMBER_3_FILL"/>
</g>

<g transform="matrix( 3.00628662109375, 0, 0, 3.00506591796875, 537.75,-442.55) ">
<use xlink:href="#Layer0_0_MEMBER_2_MEMBER_4_FILL"/>
</g>

<g transform="matrix( 3.00628662109375, 0, 0, 3.00506591796875, 537.75,-442.55) ">
<use xlink:href="#Layer0_0_MEMBER_2_MEMBER_5_FILL"/>
</g>

<g transform="matrix( 3.00628662109375, 0, 0, 3.00506591796875, 537.75,-442.55) ">
<use xlink:href="#Layer0_0_MEMBER_2_MEMBER_6_FILL"/>
</g>

<g transform="matrix( 3.00628662109375, 0, 0, 3.00506591796875, 537.75,-442.55) ">
<use xlink:href="#Layer0_0_MEMBER_2_MEMBER_7_FILL"/>
</g>

<g transform="matrix( 3.00628662109375, 0, 0, 3.00506591796875, 537.75,-442.55) ">
<use xlink:href="#Layer0_0_MEMBER_2_MEMBER_8_FILL"/>
</g>

<g transform="matrix( 3.00628662109375, 0, 0, 3.00506591796875, 537.75,-442.55) ">
<use xlink:href="#Layer0_0_MEMBER_2_MEMBER_9_FILL"/>
</g>

<g transform="matrix( 3.00628662109375, 0, 0, 3.00506591796875, 537.75,-442.55) ">
<use xlink:href="#Layer0_0_MEMBER_2_MEMBER_10_FILL"/>
</g>

<g transform="matrix( 3.00628662109375, 0, 0, 3.00506591796875, 537.75,-442.55) ">
<use xlink:href="#Layer0_0_MEMBER_2_MEMBER_11_FILL"/>
</g>

<g transform="matrix( 3.00628662109375, 0, 0, 3.00506591796875, 537.75,-442.55) ">
<use xlink:href="#Layer0_0_MEMBER_2_MEMBER_12_FILL"/>
</g>
</g>
</svg>
