<?xml version="1.0" encoding="utf-8"?>
<!-- Generator: Adobe Illustrator 20.0.0, SVG Export Plug-In . SVG Version: 6.00 Build 0)  -->
<svg version="1.1" id="Layer_1" xmlns="http://www.w3.org/2000/svg" xmlns:xlink="http://www.w3.org/1999/xlink" x="0px" y="0px"
	 viewBox="0 0 100 100" style="enable-background:new 0 0 100 100;" xml:space="preserve">
<style type="text/css">
	.st0{fill:#EAA62F;}
	.st1{fill:#FFFFFF;}
</style>
<path class="st0" d="M98.6,50c0,13.7-4.7,25.1-14.2,34.4C74.9,93.9,63.4,98.9,50,98.9s-24.9-4.7-34.4-14.5C6.1,75.1,1.4,63.7,1.4,50
	s4.7-25.1,14.2-34.6C25.1,5.9,36.6,1.1,50,1.1c13.1,0,24.6,4.7,34.4,14.2C93.6,24.9,98.6,36.3,98.6,50z"/>
<g>
	<g>
		<path class="st1" d="M50.4,16.4L33.6,33.1l0,0l6.1,6.1L14.2,63.8c-1.5,1.5-1.6,4,0,5.5l0,0c1.5,1.5,4,1.5,5.5,0l24.6-25.4l6.1,6.1
			l0,0l16.8-16.8L50.4,16.4z"/>
		<path class="st1" d="M33.5,31.4l15.1-15.1c1.2-1.2,1.2-3.1,0-4.3s-3.1-1.2-4.3,0l-15,15.1c-1.2,1.2-1.2,3.1,0,4.3
			C30.4,32.6,32.4,32.6,33.5,31.4z"/>
		<path class="st1" d="M52.1,54.2L52.1,54.2c1.2,1.2,3.1,1.2,4.3,0l15.1-15.1c1.2-1.2,1.2-3.1,0-4.3l0,0c-1.2-1.2-3.1-1.2-4.3,0
			L52.1,50C50.9,51.1,50.9,53.1,52.1,54.2z"/>
		<path class="st1" d="M81,72.8H46.5c-1.3,0-2.4,1.1-2.4,2.4v0.5h39.2v-0.5C83.3,73.9,82.3,72.8,81,72.8z"/>
		<path class="st1" d="M47.1,70.6v1h33.3v-1c0-2-1.6-3.6-3.6-3.6H50.7C48.7,67,47.1,68.6,47.1,70.6z"/>
	</g>
</g>
</svg>
