<?xml version="1.0" encoding="utf-8"?>
<!-- Generator: Adobe Illustrator 20.0.0, SVG Export Plug-In . SVG Version: 6.00 Build 0)  -->
<svg version="1.1" id="Layer_1" xmlns="http://www.w3.org/2000/svg" xmlns:xlink="http://www.w3.org/1999/xlink" x="0px" y="0px"
	 viewBox="0 0 100 100" style="enable-background:new 0 0 100 100;" xml:space="preserve">
<style type="text/css">
	.st0{fill:#57AB33;}
	.st1{fill:#FFFFFF;}
</style>
<path class="st0" d="M50,1.7c-0.2,0-0.4,0-0.6,0c-13.2,0-25.2,5.2-34,13.8c-8.5,8.8-13.8,20.8-13.8,34c0,22.5,15.1,41.4,35.8,47.1
	c4,1.1,8.2,1.8,12.6,1.8c0.2,0,0.4,0,0.6,0c13.2,0,25.2-5.2,34-13.8c7.5-7.7,12.4-17.9,13.5-29.2c0.2-1.6,0.2-3.2,0.2-4.8
	C98.3,23.8,76.8,2,50,1.7z"/>
<path class="st1" d="M81.2,34.7l-5.1-5.3c-1.1-1.1-3.4-0.7-5.1,0.8L43.2,54.5L28.4,38.9c-1.1-1.2-2.9-1.2-4-0.2L19,43.8
	c-1.1,1-1.1,2.8,0,4L34.3,64l6.1,6.4c0.7,0.7,1.7,1,2.6,0.9c0.4-0.1,0.8-0.3,1.2-0.6c0.3-0.2,0.6-0.4,0.9-0.6L80,39.5
	C81.7,37.9,82.3,35.8,81.2,34.7z"/>
</svg>
