<?xml version="1.0" encoding="utf-8"?>
<!-- Generator: Adobe Illustrator 16.0.0, SVG Export Plug-In . SVG Version: 6.00 Build 0)  -->
<!DOCTYPE svg PUBLIC "-//W3C//DTD SVG 1.1//EN" "http://www.w3.org/Graphics/SVG/1.1/DTD/svg11.dtd">
<svg version="1.1" id="Layer_1" xmlns="http://www.w3.org/2000/svg" xmlns:xlink="http://www.w3.org/1999/xlink" x="0px" y="0px"
	 width="30px" height="30px" viewBox="0 0 30 30" enable-background="new 0 0 30 30" xml:space="preserve">
<path fill="#FFFFFF" stroke="#000000" stroke-width="0.5" stroke-miterlimit="10" d="M28.07,26.262
	c-0.998-4.864-4.311-8.808-8.631-10.461c-1.305,0.768-2.818,1.217-4.44,1.229c-1.621-0.012-3.134-0.463-4.438-1.229
	c-4.321,1.652-7.633,5.597-8.63,10.461c-0.161,0.785-0.629,2.591,1.757,2.591h22.625C28.697,28.853,28.23,27.047,28.07,26.262z
	 M14.968,15.05c3.84,0,6.954-3.112,6.954-6.952s-3.113-6.951-6.954-6.951c-3.839,0-6.952,3.112-6.952,6.951
	S11.129,15.05,14.968,15.05z"/>
</svg>
