<?xml version="1.0" encoding="utf-8"?>
<!-- Generator: Adobe Illustrator 20.0.0, SVG Export Plug-In . SVG Version: 6.00 Build 0)  -->
<svg version="1.1" id="Layer_1" xmlns="http://www.w3.org/2000/svg" xmlns:xlink="http://www.w3.org/1999/xlink" x="0px" y="0px"
	 viewBox="0 0 30 30" style="enable-background:new 0 0 30 30;" xml:space="preserve">
<style type="text/css">
	.st0{fill:#FFCE00;}
</style>
<path class="st0" d="M28.1,26.3c-1-4.9-4.3-8.8-8.6-10.5C18.1,16.6,16.6,17,15,17c-1.6,0-3.1-0.5-4.4-1.2c-4.3,1.7-7.6,5.6-8.6,10.5
	c-0.2,0.8-0.6,2.6,1.8,2.6h22.6C28.7,28.9,28.2,27,28.1,26.3z M15,15.1c3.8,0,7-3.1,7-7s-3.1-7-7-7c-3.8,0-7,3.1-7,7
	S11.1,15.1,15,15.1z"/>
</svg>
