<?xml version="1.0" encoding="utf-8"?>
<!-- Generator: Adobe Illustrator 20.0.0, SVG Export Plug-In . SVG Version: 6.00 Build 0)  -->
<svg version="1.1" id="Layer_1" xmlns="http://www.w3.org/2000/svg" xmlns:xlink="http://www.w3.org/1999/xlink" x="0px" y="0px"
	 viewBox="0 0 100 100" style="enable-background:new 0 0 100 100;" xml:space="preserve">
<style type="text/css">
	.st0{fill:#e6271e;}
	.st1{fill:#FFFFFF;}
</style>
<g>
	<g>
		<path class="st0" d="M50,1.4c-0.2,0-0.4,0-0.6,0c-13.3,0-25.3,5.3-34.2,13.8C6.7,24.1,1.4,36.1,1.4,49.4c0,22.6,15.2,41.6,36,47.3
			c4.1,1.1,8.3,1.8,12.6,1.8c0.2,0,0.4,0,0.6,0c13.3,0,25.3-5.3,34.2-13.8c7.5-7.8,12.5-18,13.6-29.4c0.2-1.6,0.2-3.2,0.2-4.8
			C98.6,23.6,76.9,1.7,50,1.4z"/>
	</g>
</g>
<path class="st1" d="M71.1,60.1L59.5,50l11.6-10.1c1.7-1.5,2.3-3.5,1.2-4.6l-4.9-5.1c-1-1.1-3.2-0.7-4.9,0.8L49.9,41.8L37.5,31
	c-1.7-1.5-3.9-1.8-4.9-0.8l-4.9,5.1c-1,1.1-0.4,3.1,1.2,4.6L40.5,50L28.9,60.1c-1.7,1.5-2.3,3.5-1.2,4.6l4.9,5.1
	c1,1.1,3.2,0.7,4.9-0.8L50,58.2L62.6,69c1.7,1.5,3.9,1.8,4.9,0.8l4.9-5.1C73.4,63.6,72.8,61.6,71.1,60.1z"/>
</svg>
