<?xml version="1.0" encoding="utf-8"?>
<!-- Generator: Adobe Illustrator 20.0.0, SVG Export Plug-In . SVG Version: 6.00 Build 0)  -->
<svg version="1.1" id="Layer_1" xmlns="http://www.w3.org/2000/svg" xmlns:xlink="http://www.w3.org/1999/xlink" x="0px" y="0px"
	 viewBox="0 0 1165 224" style="enable-background:new 0 0 1165 224;" xml:space="preserve">
<style type="text/css">
	.st0{fill:#FFC035;}
	.st1{fill:#EFEFEF;}
	.st2{fill:#FFFFFF;}
</style>
<g>
	<circle cx="77.8" cy="67.9" r="26"/>
	<circle class="st0" cx="73.2" cy="64.2" r="26"/>
</g>
<g transform="matrix( 0.2419281005859375, 0, 0, 0.2419281005859375, -380.4,-244.75) ">
	<g>
		<g id="Layer0_0_MEMBER_0_FILL">
			<path d="M4619.7,1330.6c-6.7,8.1-10,18.3-10,30.7V1590l-31.1-38.2c-6.4-10.2-15.5-16.6-27.4-19.3c-11.9-2.7-22.9-0.8-33.1,5.5
				c-10.2,6.4-16.6,15.5-19.4,27.3c-2.8,11.8-1,22.8,5.4,33l104.1,170.3c1.3,2.2,4.4,7.5,9.2,15.9c3.5,6.2,6.5,10.9,8.9,14.1
				c7.1,9.3,15.8,14,26.1,14h206.6c10.2,0,19.4-4.7,27.6-14.2c8-9.2,11.9-19.1,11.9-29.8v-174.3c0-10.1-3.6-19-10.8-26.8
				c-7.2-7.8-15.8-12-25.8-12.6c-9.7,0.6-17.4,3.9-23.1,10c-5.7,5.9-8.6,13.6-8.8,23.1v-28.7c0-11.8-2.9-21.4-8.6-28.8
				c-6.2-7.9-14.7-11.9-25.6-11.9c-10.8,0-19.4,4-25.5,11.9c-5.5,7-8.4,16-8.6,27v-28c0-12.4-3.3-22.6-10-30.7
				c-7-8.5-16.4-12.8-28.1-12.8c-11.7,0-21,4.2-28,12.8c-6.3,7.5-9.6,17-9.9,28.5l-0.1-166.1c0-12.4-3.3-22.6-10-30.7
				c-7-8.5-16.4-12.8-28-12.8C4636,1317.8,4626.7,1322.1,4619.7,1330.6 M5140.5,1619.7c-4-0.4-7.8-0.6-11.3-0.6
				c-3.7,0-7.5,0.2-11.4,0.6c-4,0.4-8,1-12,1.9v142.4c4.6,0.7,8.8,1.2,12.6,1.6c3.9,0.4,7.4,0.6,10.5,0.6c3.1,0,6.6-0.2,10.5-0.6
				c3.9-0.4,8.2-0.9,13-1.6v-142.4C5148.5,1620.7,5144.5,1620.1,5140.5,1619.7 M5299.8,1681.6c0-13.7-2.1-24.6-6.2-32.9
				s-9.5-14.6-16-19c-6.5-4.5-13.9-7.4-22-8.8c-8.1-1.3-16.1-2-24.3-2c-13.8,0-25.3,1-34.5,3.1c-9.3,2.1-17.1,4.3-23.4,6.4v135.6
				c4.8,0.9,9.1,1.5,12.9,1.8c3.9,0.3,7.4,0.4,10.5,0.4c3,0,6.4-0.1,10.3-0.4c3.9-0.3,8.2-0.8,13-1.8v-103.3c0.5-0.4,2-0.7,4.3-1.1
				c2.2-0.3,4.4-0.5,6.5-0.5c7.6,0,13.2,2.1,16.9,6.3c3.7,4.2,5.5,11.2,5.5,20.9v77.7c4.7,0.9,9,1.5,12.9,1.8
				c3.9,0.3,7.4,0.4,10.6,0.4c2.9,0,6.2-0.1,10.1-0.4c3.9-0.3,8.2-0.8,13-1.8V1681.6 M5440.4,1631.9c-0.3-3.2-0.9-6.6-1.9-10.3
				h-128.3c-0.9,3.7-1.5,7.1-1.8,10.3c-0.3,3.1-0.4,6.2-0.4,9.2c0,2.9,0.1,5.9,0.4,9.1s0.9,6.7,1.8,10.4h40.8v103.5
				c4.6,0.7,8.8,1.2,12.7,1.6c3.9,0.4,7.4,0.6,10.5,0.6s6.6-0.2,10.5-0.6c3.9-0.4,8.2-0.9,13-1.6v-103.5h40.8
				c1-3.7,1.6-7.2,1.9-10.4s0.4-6.3,0.4-9.1C5440.8,1638.1,5440.7,1635,5440.4,1631.9 M5567.6,1639c-5.9-6.6-13.4-11.7-22.3-15.2
				c-8.8-3.6-19.1-5.4-30.9-5.4c-11.6,0-21.8,1.8-30.7,5.4c-8.8,3.5-16.2,8.6-22.1,15.2c-6,6.7-10.6,14.6-13.7,23.8
				c-3,9.4-4.5,19.7-4.5,30.9c0,11,1.5,21.1,4.5,30.2c3.1,9.1,7.6,16.9,13.7,23.4c5.9,6.6,13.3,11.6,22.1,15.1
				c8.9,3.5,19.1,5.2,30.7,5.3c11.8,0,22.1-1.8,30.9-5.3c8.9-3.5,16.3-8.5,22.3-15.1c6-6.5,10.5-14.3,13.5-23.4
				c3-9.1,4.5-19.1,4.5-30.2c0-11.2-1.5-21.5-4.5-30.9C5578.1,1653.6,5573.6,1645.6,5567.6,1639 M5496.6,1666.6
				c3.9-6.3,9.8-9.5,17.9-9.5c8.1,0,14.1,3.2,18,9.5c4,6.3,6,15.3,6,27.1c0,11.6-2,20.5-6,26.7c-3.9,6.3-9.9,9.4-18,9.4
				c-8.1,0-14-3.1-17.9-9.4c-3.9-6.2-5.8-15.1-5.8-26.7C5490.8,1682,5492.8,1672.9,5496.6,1666.6 M5727.4,1620.7
				c-8.1-1.5-16.4-2.3-24.8-2.3c-8.3,0-16.9,0.3-25.9,0.9c-8.9,0.6-17.6,1.6-26,2.8v141.9c4.8,0.9,9,1.5,12.6,1.8
				c3.6,0.3,6.9,0.4,10.1,0.4c2.9,0,6.2-0.1,10-0.4c3.8-0.3,8.1-0.8,12.9-1.8v-34c0.5,0.2,1.9,0.4,4.1,0.6c2.2,0.2,4.9,0.3,8.1,0.3
				c7.7,0,15.3-0.9,22.8-2.8c7.5-2,14.1-5.1,20-9.5c5.9-4.4,10.7-10.2,14.3-17.4c3.6-7.2,5.4-16.1,5.4-26.6c0-11.6-2-21-5.9-28.3
				c-4-7.2-9.2-12.9-15.6-17C5742.7,1625.1,5735.4,1622.2,5727.4,1620.7 M5719,1659.3c4.1,3.6,6.2,8.7,6.2,15.3
				c0,7.7-2.1,13.2-6.2,16.5c-4.2,3.2-9.5,4.8-15.9,4.8c-0.9,0-2.1-0.1-3.5-0.2c-1.3-0.1-2.5-0.2-3.4-0.4v-41.1
				c1.4-0.2,2.8-0.3,4.2-0.3c1.4,0,2.5,0,3.2,0C5709.7,1654,5714.8,1655.8,5719,1659.3 M5830.1,1621.6c-3.9-0.9-7.8-1.5-11.9-1.9
				c-4.1-0.4-7.9-0.6-11.4-0.6c-3.7,0-7.5,0.2-11.4,0.6c-3.9,0.4-7.9,1-12,1.9l-0.3,142.7h98.8c0.9-3.7,1.5-7.2,1.8-10.4
				s0.4-6.3,0.4-9.1c0-3-0.1-6-0.4-9.2c-0.3-3.1-0.9-6.6-1.8-10.3h-52.1L5830.1,1621.6 M5971.9,1621.7c-7.7-2.2-16.4-3.3-25.9-3.3
				c-7,0-14.9,0.7-23.6,2.2c-8.8,1.4-17.6,3.6-26.4,6.6c0,3.7,0.1,7,0.4,9.8s0.7,5.6,1.4,8.2c0.7,2.7,1.7,5.3,2.8,8
				c1.2,2.5,2.6,5.4,4.3,8.5c6.2-2.2,12.3-3.8,18.2-4.8c5.8-1,11-1.5,15.4-1.5c3.3,0,6.6,0.2,9.7,0.7c3.2,0.4,6,1.3,8.6,2.6
				c2.5,1.2,4.6,2.8,6.3,5c1.6,2.2,2.5,5,2.7,8.3H5949c-7,0-14.1,0.7-21.4,2c-7.4,1.5-14.1,3.9-20.3,7.4c-6.1,3.4-11.1,8.1-15,14
				s-5.8,13.4-5.8,22.3c0,9.2,1.6,17,4.9,23.4c3.2,6.4,7.7,11.5,13.5,15.3c5.7,3.9,12.5,6.6,20.5,8.3c8,1.8,16.8,2.7,26.4,2.7
				c11,0,21.5-1,31.4-3.1c10-2.1,18.5-4.1,25.5-6v-80.9c0-10.3-1.5-19.2-4.5-26.7s-7.1-13.6-12.5-18.3
				C5986.2,1627.6,5979.6,1624.1,5971.9,1621.7 M5959,1732.5c-3.2,0.4-5.5,0.6-7.1,0.6c-2.4,0-5.1-0.2-8-0.6
				c-2.8-0.4-5.4-1.1-7.9-2.2c-2.5-1.1-4.6-2.7-6.2-4.8c-1.6-2.1-2.4-5-2.4-8.7c0-5,2.2-8.9,6.6-11.6c4.4-2.8,9.8-4.2,16.2-4.2h15.8
				v30.3C5964.4,1731.8,5962.1,1732.2,5959,1732.5 M6114,1619.7c-3.4-0.5-6.9-0.9-10.4-1.1c-3.5-0.2-7.2-0.3-11.1-0.3
				c-11.4,0-21.5,1.8-30.3,5.5c-8.9,3.7-16.4,8.8-22.4,15.3c-6.1,6.6-10.8,14.4-13.9,23.6c-3.1,9.2-4.7,19.4-4.7,30.4
				c0,11.4,1.6,21.6,4.7,30.7c3.1,9.1,7.8,16.9,14,23.4c6.1,6.6,13.7,11.6,22.8,15.1c9,3.5,19.4,5.2,31.1,5.3c7,0,14-0.5,21-1.4
				c7-0.9,14.7-3,23.2-6.3c0-7.9-1-14.9-2.9-21c-1.8-6.2-4.3-11.8-7.4-16.8c-5.3,2-9.9,3.4-13.9,4.3c-3.9,1-8.6,1.4-14,1.4
				c-4.2,0-8.2-0.6-12-1.8c-3.8-1.1-7.1-2.9-10-5.5c-2.8-2.5-5.1-6-6.9-10.5c-1.7-4.6-2.6-10.2-2.6-17c0-12.9,2.9-22,8.6-27.3
				c5.9-5.2,13.2-7.8,22-7.8c2.4,0,4.6,0.1,6.7,0.2c2.2,0.1,4.3,0.3,6.5,0.6c2.2,0.4,4.6,0.9,7.1,1.5c2.4,0.6,5.2,1.5,8.4,2.6
				c3.1-5.8,5.4-11.8,6.9-18.1c1.5-6.1,2.1-12.3,1.8-18.6c-4.5-1.6-8.5-3-12.1-4.2C6120.8,1621.1,6117.4,1620.3,6114,1619.7
				 M6212.2,1618.4c-11.8,0-22.1,2-31,5.9c-8.8,3.9-16.1,9.3-22,16c-5.9,6.8-10.4,14.9-13.4,24.2c-3,9.2-4.4,19-4.4,29.5
				c0,10.7,1.4,20.5,4.3,29.5c2.9,9,7.3,16.8,13.4,23.3c5.9,6.5,13.6,11.7,23.1,15.3c9.4,3.7,20.8,5.5,34.1,5.5
				c17.1,0,33.8-3,50.2-9.1c-0.2-7.2-1.2-14.1-3.1-20.8c-2-6.6-4.2-12.3-6.8-17.1c-6.5,2.6-13,4.5-19.7,5.8c-6.7,1.3-12.6,2-17.9,2
				c-8.3,0-15-1.6-20.1-4.7c-5-3.2-8.5-8.5-10.5-16.1h83.9c0.4-2.6,0.8-5.9,1.2-9.8c0.5-3.9,0.8-8.4,0.8-13.3
				c0-9.5-1.4-18.4-4.3-26.7c-2.9-8.2-7-15.2-12.3-20.9c-5.4-5.8-11.9-10.4-19.6-13.8C6230.5,1620,6221.9,1618.4,6212.2,1618.4
				 M6195.3,1658.9c4.2-3.7,9.3-5.5,15.1-5.5c6.8,0,12,2.2,15.6,6.5c3.6,4.3,5.6,9.7,5.9,16.2h-44
				C6188.6,1668.3,6191.1,1662.6,6195.3,1658.9 M5880.4,1225.8c-8.8-1.1-16.7-1.9-23.6-2.5c-7-0.6-13.4-0.9-19.1-0.9
				c-7.2,0-14.2,0.3-21.1,0.9c-6.9,0.6-14.3,1.4-22.3,2.5l-103.1,328.5c9,1.5,17.1,2.6,24.3,3.3c7.2,0.8,13.6,1.2,19.1,1.2
				c5.6,0,11.3-0.3,17.1-0.9c5.7-0.6,12.1-1.5,19.3-2.7l16.9-63.2c8.1,2.3,15.8,3.9,23.1,5c7.4,1.1,14.6,1.6,21.6,1.6
				c7.6,0,15.4-0.6,23.1-1.8c7.9-1.2,16.2-3.1,24.7-5.7l17.5,64.1c7,1.2,13.6,2.1,19.8,2.7s12.3,0.9,18.5,0.9c13.2,0,28.5-1.3,46-4
				L5880.4,1225.8 M5833.5,1435.5c-5,0-9.7-0.5-14.1-1.3c-4.7-0.9-9.6-2.1-14.9-3.6l30.8-118.2l29.4,118.7
				c-5.5,1.5-10.8,2.6-15.7,3.3C5843.9,1435.1,5838.7,1435.5,5833.5,1435.5 M5518.3,1290.5c2.1-0.3,4.7-0.5,7.9-0.5
				c12.6,0,23.2,3.5,31.7,10.6c8.5,7,12.8,18.3,12.8,33.7c0,7.9-1.3,15.6-3.8,23c-2.7,7.3-5.9,14-9.6,20c-3.9,6-8,11.1-12.4,15.5
				c-4.5,4.3-8.6,7.4-12.4,9.2l-4,2.3l65.4,150.6c6.1,1.2,13.3,2.1,21.4,2.7s15.2,0.9,21.4,0.9c7,0,15-0.3,23.8-0.9
				c8.7-0.6,16.7-1.5,24.1-2.7l-71.7-141.8c4.8-3.6,9.7-8,14.8-13.3s9.8-11.4,13.9-18.4c4-7.1,7.4-15.2,10.1-24.3
				c2.5-9,3.8-19.2,3.8-30.6c0-21.1-4.1-38.6-12.3-52.3c-8.4-13.9-19.1-24.9-32.4-32.8c-13.2-7.9-28.1-13.6-45-16.8
				c-16.9-3.2-33.8-4.8-50.8-4.8c-14.1,0-27.5,0.7-40.3,2.1c-12.7,1.3-26.6,2.8-41.5,4.5v328.5c15.9,2.7,29.5,4,40.9,4
				c10.5,0,23.8-1.3,40-4v-263.4C5514.6,1291.1,5516,1290.8,5518.3,1290.5 M4988,1331.4c-0.1-7.8-3.4-13.9-9.8-18.4l-43.1-31.3
				c-7.4-5.2-14.9-5.7-22.5-1.5c-3.4,1.9-6.1,4.5-8.1,7.9c-2.1,3.6-3.2,7.6-3.2,12v11.2h-93.8c-3.5-18.8-10.1-36.5-19.9-52.9
				c-9.5-16.1-21.4-30.1-35.7-42.1c-14.4-12.1-30.4-21.3-48-27.8c-18.2-6.7-37-10.1-56.6-10.1c-19.6,0-38.4,3.3-56.6,10.1
				c-17.6,6.5-33.6,15.7-48,27.8c-14.4,12-26.3,26-35.8,42.1c-9.7,16.5-16.3,34.1-19.8,52.9h-92.5v-11.2c0-4.4-1.1-8.4-3.3-12
				c-2.1-3.4-4.9-6-8.5-7.9c-3.6-1.9-7.3-2.8-11.3-2.6c-4.2,0.2-8.1,1.6-11.7,4.1l-44.4,31.3c-6.4,4.5-9.6,10.6-9.6,18.4
				c0,7.8,3.3,13.9,9.7,18.4l44.3,31.3c3.6,2.5,7.5,3.9,11.8,4.1c4,0.2,7.7-0.7,11.3-2.6c3.6-1.9,6.4-4.5,8.5-7.9
				c2.2-3.6,3.3-7.6,3.3-12v-13.3h90c0.8,16.6,4.2,33,10.1,49c6,16.5,14.3,31.4,24.9,44.7c3.3,4.1,7.5,6.5,12.8,7.3
				c5.3,0.7,9.9-0.6,14-3.9c4.1-3.3,6.5-7.5,7.1-12.7c0.6-5.2-0.8-9.8-4-13.9c-8.8-11.1-15.5-23.3-20.1-36.3
				c-4.6-13.1-6.9-26.8-6.9-41c0-16.9,3.3-33.1,9.9-48.5c6.3-14.9,15.2-28.2,26.8-39.7c11.5-11.5,24.8-20.5,39.7-26.8
				c15.5-6.5,31.6-9.8,48.5-9.8s33.1,3.3,48.5,9.8c14.9,6.3,28.2,15.2,39.7,26.8s20.4,24.8,26.8,39.7c6.6,15.5,9.9,31.7,9.9,48.6
				c0,14.2-2.3,27.8-6.9,40.9c-4.6,13.1-11.3,25.3-20.1,36.4c-3.3,4.1-4.6,8.8-4,14.1c0.6,5.2,3,9.5,7.1,12.8
				c3.5,2.8,7.4,4.2,11.8,4.2c2.8,0,5.5-0.7,8.2-2.1c2.6-1.4,4.9-3.2,6.8-5.6c10.5-13.3,18.8-28.2,24.9-44.7c5.9-16,9.2-32.3,10-49
				h91.3v13.3c0,4.4,1,8.4,3.1,12c2,3.4,4.7,6,8,7.9c3.4,1.9,7,2.8,10.8,2.6c4.1-0.2,7.9-1.5,11.5-4.1l43.8-31.3
				C4985,1345.4,4988.1,1339.2,4988,1331.4 M5158.3,1222c-8.2,0.6-15.9,1.3-22.9,2.1c-7,0.7-12.9,1.5-17.5,2.3v328.5
				c13.8,1.8,27.8,3.4,42,4.7c14.4,1.5,29.2,2.3,44.5,2.3c60.1,0,105.5-13.6,136.1-40.9c30.7-27.1,46.1-69.8,46.1-128.1
				c0-57.4-15.1-100.6-45.2-129.7c-29.9-28.9-74-43.4-132.1-43.4c-8.2,0-16.7,0.2-25.4,0.7C5175.1,1220.9,5166.6,1221.4,5158.3,1222
				 M5250,1296.8c10,3.1,18.8,8.5,26.3,16.2c7.6,7.5,13.7,17.7,18.2,30.6c4.6,12.9,6.9,29,6.9,48.3c0,19.6-2.2,35.7-6.7,48.3
				c-4.4,12.6-10.4,22.6-18.2,29.9c-7.7,7.3-16.7,12.5-27.2,15.5c-10.6,2.8-21.9,4.3-33.9,4.3c-3,0-5.9,0-8.8,0
				c-2.7,0-5.2-0.1-7.4-0.4v-196.8c1,0,2.9-0.2,5.6-0.5c2.7-0.1,7.1-0.2,13.3-0.2C5229.2,1291.9,5239.8,1293.5,5250,1296.8
				 M6264.6,1544.7V1377c-7-1.2-14.2-2.1-21.6-2.7c-7.3-0.6-13.6-0.9-18.9-0.9c-5.5,0-11.5,0.3-18,0.9c-6.5,0.6-13.8,1.5-22,2.7
				v110.5c-4.6,0.9-9.9,1.3-15.7,1.3c-26.1,0-45.7-8.1-58.9-24.3c-13.2-16-19.8-40.4-19.8-73.3c0-33.1,6.7-58,20.2-74.8
				c13.5-16.8,32.7-25.2,57.5-25.2c5.2,0,10.2,0.2,14.8,0.7c4.5,0.6,9.1,1.4,13.7,2.3c4.7,0.9,9.5,2.1,14.6,3.6
				c4.9,1.5,10.5,3.4,16.6,5.7c4.3-8.4,8.5-18.6,12.6-30.6c3.9-11.8,6.1-24,6.8-36.6c-15.9-6.7-30.5-11.2-43.9-13.5
				c-13.3-2.1-27.4-3.2-42.3-3.2c-24.7,0-46.9,4.3-66.7,12.8c-19.6,8.7-36.1,20.7-49.4,36c-13.3,15.3-23.5,33.5-30.6,54.6
				c-7,21-10.6,43.7-10.5,68.3c0,24.6,3.4,47.3,10.1,68.1c6.7,20.8,16.9,38.8,30.5,53.9c13.6,15,30.6,26.7,51,35.1
				c20.2,8.5,43.8,12.8,70.8,12.8c12.6,0,27.7-1.1,45.4-3.4C6228.7,1555.8,6246.5,1551.4,6264.6,1544.7z"/>
		</g>
	</g>
</g>
<g transform="matrix( 0.2419281005859375, 0, 0, 0.2419281005859375, -424,-68.35) ">
	<g>
		<g id="Layer0_0_MEMBER_1_FILL">
			<path class="st1" d="M5731.7,890.8c-5.9-6.6-13.4-11.7-22.3-15.2c-8.8-3.6-19.1-5.4-30.9-5.4c-11.6,0-21.8,1.8-30.7,5.4
				c-8.8,3.5-16.2,8.6-22.1,15.2c-6,6.7-10.6,14.6-13.6,23.9c-3,9.4-4.6,19.7-4.6,30.9c0,11,1.5,21.1,4.6,30.2
				c3.1,9.1,7.6,16.9,13.6,23.5c5.9,6.6,13.3,11.6,22.1,15.1c8.9,3.5,19.1,5.3,30.7,5.3c11.8,0,22-1.8,30.9-5.3
				c8.9-3.5,16.3-8.5,22.3-15.1c6-6.5,10.5-14.4,13.5-23.5c3-9.1,4.5-19.1,4.5-30.2c0-11.2-1.5-21.5-4.5-30.9
				C5742.2,905.4,5737.7,897.5,5731.7,890.8 M5660.7,918.5c3.9-6.3,9.8-9.5,17.9-9.5c8.1,0,14.1,3.2,18,9.5c4,6.3,5.9,15.3,6,27.1
				c0,11.6-2,20.5-6,26.7c-3.9,6.3-9.9,9.5-18,9.5c-8.1,0-14-3.2-17.9-9.5c-3.9-6.2-5.8-15.1-5.8-26.7
				C5654.9,933.8,5656.8,924.8,5660.7,918.5 M5891.4,872.5c-8.1-1.5-16.4-2.3-24.8-2.3c-8.3,0-16.9,0.3-25.9,1
				c-8.9,0.6-17.6,1.6-26,2.8v142c4.8,0.9,9,1.5,12.6,1.8c3.6,0.3,6.9,0.4,10.1,0.4c2.9,0,6.2-0.1,10-0.4c3.8-0.3,8.1-0.8,13-1.8
				v-34c0.5,0.2,1.9,0.4,4,0.5c2.2,0.2,4.9,0.3,8.1,0.3c7.7,0,15.3-0.9,22.8-2.8c7.5-2,14.1-5.2,19.9-9.5
				c5.9-4.4,10.7-10.2,14.3-17.4c3.6-7.2,5.4-16,5.4-26.5c0-11.6-2-21-5.9-28.3c-4-7.2-9.2-12.9-15.6-17
				C5906.8,876.9,5899.5,874.1,5891.4,872.5 M5889.2,926.4c0,7.7-2.1,13.2-6.2,16.5c-4.2,3.2-9.5,4.8-15.9,4.8c-0.9,0-2.1,0-3.5-0.2
				c-1.3-0.1-2.4-0.2-3.3-0.4v-41.1c1.4-0.2,2.8-0.3,4.2-0.3c1.4,0,2.5,0,3.2,0c6,0,11.1,1.8,15.4,5.4
				C5887.2,914.8,5889.2,919.9,5889.2,926.4 M5959.5,871.6c-3.9,0.4-7.9,1-12,1.9l-0.3,142.7h98.8c0.9-3.7,1.5-7.2,1.8-10.4
				c0.3-3.2,0.4-6.3,0.4-9.1c0-3-0.1-6-0.4-9.2c-0.3-3.1-0.9-6.5-1.8-10.3h-52.2l0.3-103.8c-3.9-0.9-7.8-1.5-11.8-1.9
				c-4.1-0.4-7.9-0.5-11.4-0.5C5967.3,871,5963.4,871.2,5959.5,871.6 M6155.8,884.2c-5.5-4.8-12.1-8.3-19.8-10.7
				c-7.7-2.2-16.4-3.3-25.9-3.3c-7,0-14.9,0.7-23.6,2.2c-8.8,1.4-17.6,3.6-26.4,6.6c0,3.7,0.1,7,0.4,9.8s0.7,5.6,1.4,8.2
				c0.7,2.7,1.7,5.3,2.9,8c1.2,2.5,2.6,5.4,4.3,8.5c6.2-2.2,12.3-3.8,18.2-4.8c5.8-1,10.9-1.5,15.4-1.5c3.3,0,6.6,0.2,9.7,0.7
				c3.2,0.4,6,1.3,8.6,2.6c2.5,1.2,4.6,2.8,6.3,5c1.6,2.2,2.5,5,2.7,8.3H6113c-7,0-14.1,0.7-21.4,2c-7.4,1.5-14.1,4-20.3,7.5
				c-6.1,3.4-11.1,8.1-14.9,14c-3.9,5.9-5.8,13.4-5.8,22.3c0,9.2,1.6,17,4.9,23.4c3.2,6.4,7.7,11.5,13.5,15.3
				c5.7,3.9,12.5,6.6,20.5,8.3c8,1.8,16.8,2.7,26.4,2.7c11,0,21.5-1,31.4-3.1c10-2.1,18.4-4.1,25.4-6v-80.9
				c0-10.3-1.5-19.2-4.4-26.7C6165.3,895.1,6161.1,889,6155.8,884.2 M6115.9,985c-2.4,0-5.1-0.2-7.9-0.6c-2.8-0.4-5.5-1.1-8-2.2
				c-2.5-1.1-4.6-2.7-6.2-4.8c-1.6-2.1-2.5-5-2.5-8.7c0-5,2.2-8.9,6.6-11.6c4.4-2.8,9.8-4.2,16.2-4.2h15.8v30.3
				c-1.4,0.4-3.7,0.7-6.8,1.1C6119.9,984.8,6117.5,985,6115.9,985 M5304.5,871.6c-4-0.4-7.8-0.5-11.3-0.5c-3.7,0-7.5,0.2-11.5,0.5
				c-4,0.4-8,1-12,1.9v142.5c4.6,0.7,8.8,1.2,12.6,1.6c3.9,0.4,7.4,0.5,10.6,0.5c3.1,0,6.6-0.2,10.5-0.5c3.9-0.4,8.2-0.9,12.9-1.6
				V873.5C5312.6,872.6,5308.6,871.9,5304.5,871.6 M5463.8,933.4c0-13.7-2.1-24.6-6.2-32.9c-4.1-8.3-9.5-14.6-16.1-19
				c-6.5-4.5-13.8-7.4-21.9-8.8c-8.1-1.3-16.1-2-24.3-2c-13.8,0-25.3,1-34.5,3.1c-9.3,2.1-17.1,4.3-23.5,6.4v135.6
				c4.8,0.9,9.1,1.5,13,1.8c3.9,0.3,7.4,0.4,10.5,0.4c3,0,6.4-0.1,10.3-0.4c3.9-0.3,8.2-0.8,12.9-1.8V912.7c0.5-0.4,2-0.7,4.3-1.1
				c2.2-0.3,4.4-0.5,6.4-0.5c7.6,0,13.2,2.1,16.9,6.3c3.7,4.2,5.6,11.2,5.6,20.9v77.7c4.7,0.9,9,1.5,12.9,1.8
				c3.9,0.3,7.4,0.4,10.5,0.4c2.9,0,6.2-0.1,10.1-0.4c3.9-0.3,8.2-0.8,13-1.8V933.4 M5604.5,883.7c-0.3-3.2-0.9-6.6-1.9-10.3h-128.3
				c-0.9,3.7-1.5,7.1-1.8,10.3c-0.3,3.1-0.4,6.2-0.4,9.2c0,2.9,0.1,5.9,0.4,9.1c0.3,3.2,0.9,6.7,1.8,10.4h40.8v103.5
				c4.6,0.7,8.8,1.2,12.7,1.6c3.9,0.4,7.4,0.5,10.5,0.5c3.1,0,6.6-0.2,10.5-0.5c3.9-0.4,8.2-0.9,13-1.6V912.4h40.9
				c1-3.7,1.6-7.2,1.9-10.4c0.3-3.2,0.4-6.3,0.4-9.1C5604.9,889.9,5604.7,886.9,5604.5,883.7 M5322.4,473.8c-8.2,0.6-15.9,1.3-23,2
				c-7,0.7-12.9,1.5-17.5,2.3v328.5c13.8,1.8,27.8,3.4,42,4.7c14.4,1.5,29.2,2.2,44.5,2.3c60.1,0,105.5-13.6,136.1-40.9
				c30.7-27.1,46.1-69.8,46.1-128.1c0-57.4-15.1-100.6-45.2-129.7c-29.9-28.9-74-43.4-132.1-43.4c-8.2,0-16.7,0.2-25.4,0.7
				C5339.1,472.7,5330.6,473.2,5322.4,473.8 M5368.9,543.9c2.7-0.1,7.1-0.2,13.3-0.2c11.1,0,21.7,1.6,31.9,5
				c10,3.1,18.8,8.5,26.3,16.2c7.6,7.5,13.7,17.7,18.2,30.6c4.6,12.9,7,29,7,48.3c0,19.6-2.2,35.7-6.7,48.3
				c-4.4,12.6-10.4,22.6-18.2,29.9c-7.7,7.3-16.7,12.5-27.2,15.5c-10.6,2.8-22,4.3-34,4.3c-3,0-5.9,0-8.8,0c-2.7,0-5.2-0.2-7.4-0.5
				V544.4C5364.3,544.4,5366.2,544.2,5368.9,543.9 M6044.5,477.7c-8.8-1.1-16.7-1.9-23.6-2.5c-7-0.6-13.4-0.9-19.1-0.9
				c-7.2,0-14.2,0.3-21.1,0.9c-6.9,0.6-14.3,1.4-22.3,2.5l-103.1,328.5c9,1.5,17.1,2.6,24.3,3.3c7.2,0.8,13.6,1.2,19.1,1.2
				c5.6,0,11.3-0.3,17.1-0.9c5.7-0.6,12.1-1.5,19.3-2.7l16.8-63.1c8.1,2.3,15.8,3.9,23.2,5c7.4,1.1,14.6,1.6,21.6,1.6
				c7.6,0,15.4-0.6,23.2-1.8c7.9-1.2,16.2-3.1,24.7-5.7l17.6,64c7,1.2,13.6,2.1,19.8,2.7s12.3,0.9,18.4,0.9c13.2,0,28.5-1.3,46.1-4
				L6044.5,477.7 M6013,686.2c-5.1,0.8-10.3,1.1-15.5,1.1c-5,0-9.7-0.5-14.2-1.3c-4.7-0.9-9.6-2.1-14.8-3.6l30.8-118.2l29.4,118.6
				C6023.2,684.3,6018,685.4,6013,686.2 M5819.4,578.3c0-21.1-4.1-38.6-12.3-52.4c-8.4-13.9-19.2-24.9-32.4-32.8
				c-13.2-7.9-28.2-13.6-45-16.9c-16.9-3.2-33.9-4.8-50.8-4.8c-14.1,0-27.5,0.7-40.3,2c-12.7,1.3-26.6,2.8-41.6,4.5v328.5
				c15.9,2.7,29.5,4,40.9,4c10.5,0,23.8-1.3,40-4V543.3c0.6-0.3,2-0.6,4.3-0.9c2.1-0.3,4.7-0.5,7.9-0.5c12.6,0,23.2,3.5,31.7,10.6
				c8.5,7,12.8,18.3,12.8,33.7c0,7.9-1.3,15.6-3.8,23c-2.7,7.3-5.9,14-9.6,20c-3.9,6-8,11.1-12.4,15.5c-4.5,4.3-8.6,7.4-12.4,9.2
				l-4,2.3l65.4,150.6c6.1,1.2,13.3,2.1,21.4,2.7c8.1,0.6,15.2,0.9,21.4,0.9c7,0,15-0.3,23.8-0.9c8.7-0.6,16.7-1.5,24-2.7
				l-71.6-141.8c4.8-3.6,9.7-8,14.8-13.3c5.1-5.2,9.7-11.4,13.9-18.4c4-7.1,7.4-15.2,10.1-24.3
				C5818.1,599.9,5819.4,589.7,5819.4,578.3 M6288.5,874c-3.6-1.1-7.1-1.9-10.4-2.4c-3.4-0.5-6.8-0.9-10.3-1.1
				c-3.5-0.2-7.2-0.3-11.1-0.3c-11.4,0-21.6,1.8-30.4,5.5c-8.9,3.7-16.4,8.8-22.4,15.3c-6.1,6.6-10.8,14.4-13.9,23.6
				c-3.1,9.2-4.7,19.4-4.7,30.5c0,11.4,1.6,21.6,4.7,30.7c3.1,9.1,7.8,16.9,14,23.5c6.1,6.6,13.7,11.6,22.8,15.1
				c9,3.5,19.4,5.3,31.2,5.3c7,0,14-0.5,21-1.5c7-0.9,14.7-3,23.2-6.3c0-7.9-1-14.9-2.9-21c-1.8-6.2-4.3-11.8-7.4-16.8
				c-5.3,2-9.9,3.5-13.9,4.3c-3.9,1-8.6,1.5-14,1.5c-4.2,0-8.2-0.6-12-1.8c-3.8-1.1-7.1-2.9-10-5.5c-2.8-2.5-5.1-6-6.9-10.5
				c-1.7-4.6-2.5-10.2-2.5-17c0-12.9,2.9-22,8.6-27.3c5.9-5.2,13.2-7.8,22-7.8c2.4,0,4.6,0,6.7,0.2c2.2,0.1,4.3,0.3,6.5,0.6
				c2.2,0.4,4.6,0.9,7.1,1.5c2.4,0.6,5.2,1.5,8.4,2.5c3.1-5.8,5.4-11.8,6.8-18c1.5-6.1,2.1-12.3,1.8-18.6
				C6296.1,876.5,6292.1,875.1,6288.5,874 M6438.3,936.4c0-9.5-1.4-18.4-4.3-26.7c-2.9-8.2-6.9-15.2-12.3-20.9
				c-5.4-5.8-11.9-10.4-19.5-13.8c-7.6-3.2-16.3-4.8-26-4.8c-11.8,0-22.1,2-31,6c-8.8,3.9-16.1,9.3-22,16
				c-5.9,6.8-10.4,14.9-13.4,24.1c-3,9.2-4.4,19-4.4,29.5c0,10.7,1.4,20.5,4.3,29.5c2.9,9,7.3,16.8,13.4,23.4
				c5.9,6.5,13.7,11.7,23.1,15.3c9.4,3.7,20.8,5.5,34.1,5.5c17.1,0,33.8-3,50.1-9.1c-0.2-7.2-1.2-14.1-3.1-20.8
				c-2-6.6-4.2-12.3-6.8-17.1c-6.5,2.6-13,4.5-19.6,5.8c-6.7,1.3-12.6,2-18,2c-8.3,0-14.9-1.6-20-4.7c-5-3.2-8.5-8.5-10.5-16.1h83.8
				c0.4-2.6,0.8-5.9,1.2-9.8C6438.1,945.8,6438.3,941.3,6438.3,936.4 M6390.1,911.7c3.6,4.3,5.6,9.7,6,16.2h-44
				c0.7-7.7,3.2-13.5,7.4-17.2c4.2-3.7,9.3-5.5,15.1-5.5C6381.3,905.3,6386.5,907.4,6390.1,911.7 M6410.7,488.2
				c-15.9-6.7-30.5-11.2-43.9-13.5c-13.3-2.1-27.4-3.1-42.3-3.1c-24.7,0-46.9,4.3-66.7,12.8c-19.6,8.7-36.1,20.7-49.5,36
				c-13.3,15.3-23.5,33.5-30.5,54.6c-7,21-10.6,43.7-10.6,68.3c0,24.6,3.4,47.3,10.1,68.1c6.7,20.8,16.9,38.8,30.6,53.9
				c13.6,15,30.6,26.7,51,35c20.2,8.5,43.8,12.8,70.8,12.8c12.6,0,27.7-1.1,45.4-3.4c17.5-2.1,35.3-6.5,53.4-13.3V628.9
				c-7-1.2-14.2-2.1-21.5-2.7c-7.3-0.6-13.6-0.9-18.9-0.9c-5.5,0-11.5,0.3-18,0.9c-6.5,0.6-13.8,1.5-22,2.7v110.6
				c-4.6,0.9-9.9,1.3-15.7,1.3c-26.1,0-45.7-8.1-58.9-24.3c-13.2-16-19.8-40.5-19.8-73.3c0-33.1,6.7-58,20.2-74.8
				c13.5-16.8,32.7-25.2,57.6-25.2c5.2,0,10.2,0.2,14.8,0.7c4.5,0.6,9.1,1.3,13.7,2.3c4.7,0.9,9.5,2.1,14.6,3.6
				c4.9,1.5,10.5,3.4,16.6,5.7c4.3-8.4,8.5-18.6,12.6-30.6C6407.9,513,6410.1,500.8,6410.7,488.2z"/>
			<path class="st2" d="M5062.7,846.3c0-10.1-3.6-19-10.8-26.8c-7.2-7.8-15.8-12-25.8-12.6c-9.7,0.6-17.4,3.9-23.1,10
				c-5.7,5.9-8.6,13.6-8.8,23.1v-28.7c0-11.8-2.9-21.4-8.6-28.8c-6.2-7.9-14.7-11.9-25.5-11.9c-10.8,0-19.4,4-25.6,11.9
				c-5.5,7-8.4,16-8.6,27v-28c0-12.4-3.3-22.6-10-30.7c-7-8.5-16.4-12.8-28-12.8c-11.7,0-21,4.3-28,12.8c-6.3,7.5-9.6,17-10,28.4
				V613.1c0-12.4-3.3-22.6-10-30.7c-7-8.5-16.4-12.8-28.1-12.8c-11.6,0-21,4.3-28,12.8c-6.7,8.1-10,18.3-10,30.7v228.8l-31.1-38.2
				c-6.4-10.2-15.5-16.6-27.4-19.3c-11.9-2.7-22.9-0.8-33.1,5.5c-10.2,6.4-16.6,15.5-19.4,27.3c-2.8,11.8-1,22.8,5.4,33l104.2,170.3
				c1.3,2.2,4.4,7.5,9.2,16c3.5,6.2,6.5,10.9,9,14.1c7.1,9.3,15.8,14,26,14h206.6c10.2,0,19.4-4.7,27.6-14.2c8-9.2,12-19.1,12-29.8
				V846.3z"/>
			<path class="st0" d="M5152,583.3c-0.1-7.8-3.4-13.9-9.8-18.4l-43.2-31.3c-7.4-5.2-14.9-5.7-22.4-1.5c-3.4,1.9-6.1,4.5-8.1,7.9
				c-2.1,3.6-3.2,7.6-3.2,12v11.2h-93.8c-3.5-18.8-10.1-36.5-19.9-53c-9.5-16.1-21.4-30.1-35.7-42c-14.4-12.1-30.4-21.3-48-27.8
				c-18.2-6.7-37-10-56.6-10c-19.6,0-38.4,3.3-56.6,10c-17.6,6.5-33.6,15.7-48,27.8c-14.4,12-26.3,26-35.8,42
				c-9.7,16.5-16.3,34.1-19.8,53h-92.5V552c0-4.4-1.1-8.4-3.4-12c-2.1-3.4-4.9-6-8.4-7.9c-3.6-1.9-7.3-2.8-11.3-2.6
				c-4.2,0.2-8.1,1.6-11.7,4.1l-44.4,31.3c-6.4,4.5-9.6,10.6-9.5,18.4c0,7.8,3.3,13.9,9.6,18.4l44.3,31.3c3.6,2.5,7.5,3.9,11.8,4
				c4,0.2,7.7-0.6,11.3-2.5c3.6-1.9,6.4-4.5,8.5-7.9c2.2-3.6,3.4-7.6,3.4-12v-13.3h90c0.8,16.6,4.1,33,10.1,49
				c6,16.5,14.3,31.4,24.8,44.7c3.3,4.1,7.6,6.6,12.8,7.3c5.3,0.7,10-0.6,14.1-3.9c4.1-3.3,6.5-7.5,7.1-12.7c0.6-5.2-0.8-9.8-4.1-14
				c-8.8-11.1-15.5-23.2-20.1-36.3c-4.6-13.1-6.8-26.8-6.8-41c0-16.9,3.3-33.1,9.8-48.6c6.3-14.9,15.2-28.2,26.8-39.6
				c11.5-11.5,24.8-20.5,39.7-26.8c15.5-6.5,31.6-9.8,48.5-9.8s33.1,3.3,48.6,9.9c14.9,6.3,28.2,15.2,39.7,26.8
				c11.5,11.5,20.5,24.8,26.8,39.7c6.6,15.5,9.9,31.7,9.9,48.6c0,14.2-2.3,27.8-6.9,41c-4.6,13.1-11.3,25.3-20.1,36.4
				c-3.3,4.1-4.6,8.8-4,14s3,9.5,7.1,12.8c3.5,2.8,7.4,4.2,11.9,4.2c2.8,0,5.5-0.7,8.1-2.1c2.6-1.4,4.9-3.3,6.8-5.7
				c10.5-13.3,18.8-28.2,24.9-44.7c5.9-16,9.2-32.3,10.1-49h91.3v13.3c0,4.4,1,8.4,3.1,12c2,3.4,4.7,6,8.1,7.9
				c3.4,1.9,7,2.8,10.8,2.5c4.1-0.2,7.9-1.5,11.5-4l43.9-31.3C5149,597.2,5152.1,591.1,5152,583.3z"/>
		</g>
	</g>
</g>
<g>
	<g transform="matrix( 0.2419281005859375, 0, 0, 0.2419281005859375, -424,-68.35) ">
		<g>
			<g id="Layer0_0_MEMBER_1_FILL_2_">
				<path d="M2374.1,826.9c0-12-4.3-22.5-12.8-31.7c-8.5-9.2-18.7-14.2-30.5-14.9c-11.5,0.7-20.6,4.6-27.4,11.8
					c-6.7,7-10.2,16.2-10.4,27.4v-34c0-13.9-3.4-25.3-10.2-34.1c-7.3-9.4-17.4-14.1-30.3-14.1c-12.8,0-22.9,4.7-30.3,14.1
					c-6.5,8.3-9.9,19-10.2,31.9v-33.2c0-14.7-3.9-26.8-11.8-36.4c-8.3-10.1-19.4-15.1-33.2-15.1c-13.8,0-24.9,5-33.2,15.1
					c-7.4,8.9-11.4,20.1-11.8,33.6V550.7c0-14.7-3.9-26.8-11.8-36.4c-8.3-10.1-19.4-15.1-33.2-15.1c-13.8,0-24.8,5-33.2,15.1
					c-7.9,9.6-11.8,21.7-11.8,36.4v270.9l-36.8-45.2c-7.5-12-18.4-19.6-32.5-22.8c-14.1-3.2-27.1-1-39.2,6.6
					c-12,7.5-19.7,18.3-23,32.3c-3.3,14-1.1,27,6.4,39.1l123.4,201.7c1.6,2.6,5.2,8.9,10.9,18.9c4.1,7.3,7.7,12.9,10.6,16.7
					c8.4,11.1,18.7,16.6,30.9,16.6h244.7c12.1,0,23-5.6,32.7-16.8c9.4-10.9,14.2-22.6,14.2-35.3V826.9z"/>
			</g>
		</g>
	</g>
</g>
<g>
	<g transform="matrix( 0.2419281005859375, 0, 0, 0.2419281005859375, -424,-68.35) ">
		<g>
			<g id="Layer0_0_MEMBER_1_FILL_1_">
				<path class="st2" d="M2352.5,815.4c0-12-4.3-22.5-12.8-31.7c-8.5-9.2-18.7-14.2-30.5-14.9c-11.5,0.7-20.6,4.6-27.4,11.8
					c-6.7,7-10.2,16.2-10.4,27.4v-34c0-13.9-3.4-25.3-10.2-34.1c-7.3-9.4-17.4-14.1-30.3-14.1c-12.8,0-22.9,4.7-30.3,14.1
					c-6.5,8.3-9.9,19-10.2,31.9v-33.2c0-14.7-3.9-26.8-11.8-36.4c-8.3-10.1-19.4-15.1-33.2-15.1c-13.8,0-24.9,5-33.2,15.1
					c-7.4,8.9-11.4,20.1-11.8,33.6V539.3c0-14.7-3.9-26.8-11.8-36.4c-8.3-10.1-19.4-15.1-33.2-15.1c-13.8,0-24.8,5-33.2,15.1
					c-7.9,9.6-11.8,21.7-11.8,36.4v270.9l-36.8-45.2c-7.5-12-18.4-19.6-32.5-22.8c-14.1-3.2-27.1-1-39.2,6.6
					c-12,7.5-19.7,18.3-23,32.3c-3.3,14-1.1,27,6.4,39.1l123.4,201.7c1.6,2.6,5.2,8.9,10.9,18.9c4.1,7.3,7.7,12.9,10.6,16.7
					c8.4,11.1,18.7,16.6,30.9,16.6h244.7c12.1,0,23-5.6,32.7-16.8c9.4-10.9,14.2-22.6,14.2-35.3V815.4z"/>
			</g>
		</g>
	</g>
</g>
<g>
	<path d="M202.8,92.3c0,16.5,6.9,24.8,20.8,24.8c2.5,0,4.9-0.2,7.1-0.7c2.2-0.5,4.9-1.2,8.1-2.3c2.6,5.6,4.3,11.4,5.1,17.3
		c-2.3,0.9-4.4,1.6-6.3,2.1c-2,0.5-3.8,1-5.6,1.2c-1.8,0.3-3.6,0.5-5.3,0.6c-1.8,0.1-3.6,0.2-5.4,0.2c-6.6,0-12.5-1.1-17.5-3.2
		c-5-2.1-9.2-5.1-12.6-9c-3.4-3.8-5.9-8.4-7.7-13.7c-1.7-5.3-2.6-11.1-2.6-17.3c0-6.2,0.9-12,2.7-17.4c1.8-5.3,4.4-10,7.8-13.9
		c3.4-3.9,7.6-6.9,12.6-9.1c5-2.2,10.6-3.3,17-3.3c3.7,0,7.3,0.3,10.6,0.8c3.4,0.5,7.1,1.6,11.2,3.3c-0.2,3.2-0.7,6.3-1.8,9.3
		c-1,3-2.1,5.6-3.2,7.9c-1.6-0.5-3-1-4.3-1.4c-1.3-0.4-2.5-0.7-3.7-0.9c-1.2-0.2-2.3-0.4-3.5-0.5c-1.2-0.1-2.4-0.2-3.7-0.2
		c-6.3,0-11.2,2.1-14.7,6.4C204.5,77.5,202.8,83.9,202.8,92.3z"/>
	<path d="M254.4,50.3c2.1-0.3,4-0.5,5.7-0.7c1.7-0.2,3.2-0.2,4.6-0.2c1.4,0,3,0.1,4.7,0.2c1.8,0.2,3.6,0.4,5.7,0.7v65.5h27
		c0.4,2,0.6,3.6,0.8,5.1c0.1,1.4,0.2,2.7,0.2,3.9c0,1.3-0.1,2.7-0.2,4.2c-0.1,1.4-0.4,3.2-0.8,5.2h-47.7V50.3z"/>
	<path d="M322.3,134.9c-2.9,0-6.4-0.4-10.4-1.1V50.3c2.1-0.3,4-0.5,5.7-0.7c1.7-0.2,3.2-0.2,4.6-0.2c1.4,0,3,0.1,4.7,0.2
		c1.8,0.2,3.6,0.4,5.7,0.7v83.5C328.4,134.5,325,134.9,322.3,134.9z"/>
	<path d="M366.3,92.3c0,16.5,6.9,24.8,20.8,24.8c2.5,0,4.9-0.2,7.1-0.7c2.2-0.5,4.9-1.2,8.1-2.3c2.6,5.6,4.3,11.4,5.1,17.3
		c-2.3,0.9-4.4,1.6-6.3,2.1c-2,0.5-3.8,1-5.6,1.2c-1.8,0.3-3.6,0.5-5.3,0.6c-1.8,0.1-3.6,0.2-5.4,0.2c-6.6,0-12.5-1.1-17.5-3.2
		c-5-2.1-9.2-5.1-12.6-9c-3.4-3.8-5.9-8.4-7.7-13.7c-1.7-5.3-2.6-11.1-2.6-17.3c0-6.2,0.9-12,2.7-17.4c1.8-5.3,4.4-10,7.8-13.9
		c3.4-3.9,7.6-6.9,12.6-9.1c5-2.2,10.6-3.3,17-3.3c3.7,0,7.3,0.3,10.6,0.8c3.4,0.5,7.1,1.6,11.2,3.3c-0.2,3.2-0.7,6.3-1.8,9.3
		c-1,3-2.1,5.6-3.2,7.9c-1.6-0.5-3-1-4.3-1.4c-1.3-0.4-2.5-0.7-3.7-0.9c-1.2-0.2-2.3-0.4-3.5-0.5c-1.2-0.1-2.4-0.2-3.7-0.2
		c-6.3,0-11.2,2.1-14.7,6.4C368,77.5,366.3,83.9,366.3,92.3z"/>
	<path d="M417.9,50.3c2.1-0.3,4-0.5,5.7-0.7c1.7-0.2,3.2-0.2,4.6-0.2c1.4,0,3,0.1,4.7,0.2c1.8,0.2,3.6,0.4,5.7,0.7v83.5
		c-4.1,0.7-7.6,1.1-10.3,1.1c-2.9,0-6.4-0.4-10.4-1.1V50.3z M463,90.7l21.9,43.2c-1.3,0.3-3.1,0.6-5.3,0.8c-2.2,0.2-4.2,0.3-6,0.3
		c-2.3,0-4.4-0.1-6.6-0.3c-2.1-0.2-3.9-0.4-5.4-0.8l-21.4-42.1L460,50.3c2.3-0.4,4.4-0.6,6.1-0.8c1.7-0.1,3.5-0.2,5.3-0.2
		c0.9,0,1.8,0,2.9,0.1c1.1,0,2.2,0.1,3.2,0.2c1.1,0.1,2.1,0.2,3,0.4c1,0.1,1.8,0.2,2.5,0.3L463,90.7z"/>
	<path d="M197.9,154.4h-8.9c-0.3-1.5-0.5-2.9-0.5-4.2c0-1.2,0.2-2.5,0.5-4.1h27.1c0.1,0.8,0.2,1.5,0.3,2.2c0.1,0.7,0.1,1.3,0.1,1.9
		c0,1.2-0.1,2.6-0.4,4.2h-8.9V184c-1.9,0.3-3.4,0.5-4.7,0.5c-1.3,0-2.9-0.2-4.7-0.5V154.4z"/>
	<path d="M217.9,165.3c0-2.8,0.3-5.5,1-7.9c0.7-2.4,1.7-4.5,3-6.3c1.4-1.8,3.1-3.2,5.2-4.2s4.6-1.5,7.5-1.5c2.9,0,5.4,0.5,7.5,1.5
		s3.8,2.4,5.2,4.2c1.4,1.8,2.4,3.9,3,6.3c0.7,2.4,1,5,1,7.9c0,2.8-0.3,5.4-1,7.8c-0.7,2.4-1.7,4.5-3,6.2c-1.4,1.7-3.1,3.1-5.2,4.1
		c-2.1,1-4.6,1.5-7.5,1.5c-2.9,0-5.4-0.5-7.5-1.5c-2.1-1-3.8-2.3-5.2-4.1c-1.4-1.7-2.4-3.8-3-6.2
		C218.3,170.7,217.9,168.1,217.9,165.3z M241.4,165.3c0-7.7-2.2-11.6-6.7-11.6c-4.6,0-6.9,3.9-6.9,11.6c0,3.9,0.6,6.7,1.7,8.6
		c1.1,1.9,2.8,2.8,5.2,2.8C239.2,176.7,241.4,172.9,241.4,165.3z"/>
	<path d="M268.3,146.2c1.7-0.2,3.3-0.3,4.8-0.5c1.5-0.2,3-0.2,4.6-0.2c1.9,0,3.9,0.2,5.8,0.6c1.9,0.4,3.7,1,5.2,1.9
		c1.5,0.9,2.8,2.2,3.7,3.8c1,1.6,1.4,3.6,1.4,6c0,1.3-0.2,2.5-0.5,3.5c-0.3,1-0.7,2-1.2,2.8c-0.5,0.8-1,1.5-1.6,2.1
		c-0.6,0.6-1.2,1.1-1.7,1.5l8.3,16.3c-0.8,0.1-1.8,0.2-2.8,0.3c-1,0.1-1.9,0.1-2.7,0.1c-0.7,0-1.5,0-2.5-0.1
		c-0.9-0.1-1.8-0.2-2.5-0.3l-7.5-17.3l0.5-0.3c0.4-0.2,0.9-0.6,1.4-1.1c0.5-0.5,1-1.1,1.4-1.8c0.4-0.7,0.8-1.5,1.1-2.3
		s0.5-1.7,0.5-2.6c0-1.8-0.5-3.1-1.5-3.9c-1-0.8-2.2-1.2-3.7-1.2c-0.4,0-0.7,0-0.9,0.1c-0.2,0-0.4,0.1-0.5,0.1V184
		c-1.9,0.3-3.4,0.5-4.6,0.5c-1.3,0-2.9-0.2-4.7-0.5V146.2z"/>
	<path d="M321,164.3c0,1.2-0.2,2.6-0.5,4.1h-10.2v7.5h13.3c0.3,1.5,0.5,2.8,0.5,4c0,1.3-0.2,2.7-0.5,4.2h-22.7v-38.1h22.4
		c0.1,0.8,0.2,1.5,0.3,2.2c0.1,0.7,0.1,1.3,0.1,1.9c0,1.2-0.1,2.6-0.4,4.2h-13v5.8h10.2C320.9,161.7,321,163.1,321,164.3z"/>
	<path d="M343.7,160.9c1.5,0.6,2.8,1.2,4,1.8c1.2,0.6,2.2,1.4,3,2.2c0.8,0.9,1.5,1.9,2,3.1c0.5,1.2,0.7,2.7,0.7,4.4
		c0,1.9-0.3,3.6-1,5.1c-0.7,1.5-1.6,2.8-2.9,3.9c-1.3,1.1-2.8,1.9-4.7,2.5c-1.9,0.6-4,0.9-6.4,0.9c-2.2,0-4.1-0.2-5.8-0.5
		c-1.7-0.4-3.5-0.9-5.4-1.6c0.1-1.2,0.4-2.6,0.7-3.9c0.4-1.4,0.8-2.8,1.3-4.3c3.3,1.4,6.1,2.1,8.5,2.1c1.8,0,3.2-0.3,4.2-0.8
		c1-0.5,1.5-1.5,1.5-2.8c0-0.6-0.1-1.1-0.3-1.5c-0.2-0.4-0.5-0.8-0.8-1c-0.4-0.3-0.8-0.5-1.2-0.7c-0.4-0.2-0.9-0.4-1.4-0.6l-3-1.1
		c-1.3-0.5-2.4-1-3.5-1.6c-1-0.6-1.9-1.4-2.7-2.3c-0.7-0.9-1.3-1.9-1.7-3c-0.4-1.1-0.6-2.5-0.6-4c0-1.9,0.3-3.5,1-5
		c0.6-1.4,1.5-2.7,2.7-3.7c1.1-1,2.5-1.8,4.2-2.3c1.6-0.5,3.4-0.8,5.5-0.8c1.8,0,3.5,0.2,5.2,0.5c1.7,0.4,3.5,0.9,5.4,1.5
		c-0.1,1.1-0.4,2.4-0.8,3.7c-0.4,1.4-0.8,2.6-1.4,3.8c-0.9-0.4-2-0.8-3.2-1.2c-1.2-0.4-2.8-0.6-4.6-0.6c-0.6,0-1.1,0.1-1.6,0.2
		c-0.5,0.1-1,0.3-1.4,0.5c-0.4,0.2-0.7,0.5-1,1c-0.2,0.4-0.4,0.9-0.4,1.5c0,1,0.3,1.8,1,2.3c0.7,0.5,1.5,0.9,2.4,1.3L343.7,160.9z"
		/>
	<path d="M364.4,154.4h-8.9c-0.3-1.5-0.5-2.9-0.5-4.2c0-1.2,0.2-2.5,0.5-4.1h27.1c0.1,0.8,0.2,1.5,0.3,2.2c0.1,0.7,0.1,1.3,0.1,1.9
		c0,1.2-0.1,2.6-0.4,4.2h-8.9V184c-1.9,0.3-3.4,0.5-4.7,0.5c-1.3,0-2.9-0.2-4.7-0.5V154.4z"/>
	<path d="M388.5,184.1c-0.8,0.1-1.6,0.2-2.2,0.3c-0.7,0.1-1.3,0.1-2,0.1s-1.4,0-2.2-0.1c-0.8-0.1-1.8-0.2-2.8-0.4l11.9-37.8
		c0.9-0.1,1.8-0.2,2.6-0.3c0.8-0.1,1.6-0.1,2.4-0.1c0.7,0,1.4,0,2.2,0.1c0.8,0.1,1.7,0.2,2.7,0.3l11.7,37.9c-2,0.3-3.8,0.5-5.3,0.5
		c-0.7,0-1.4,0-2.1-0.1c-0.7-0.1-1.5-0.2-2.3-0.3l-2-7.4c-1,0.3-1.9,0.5-2.8,0.6c-0.9,0.1-1.8,0.2-2.7,0.2c-0.8,0-1.6-0.1-2.5-0.2
		c-0.8-0.1-1.7-0.3-2.7-0.6L388.5,184.1z M395.9,156.1l-3.6,13.6c0.6,0.2,1.2,0.3,1.7,0.4s1.1,0.2,1.6,0.2c0.6,0,1.2,0,1.8-0.1
		c0.6-0.1,1.2-0.2,1.8-0.4L395.9,156.1z"/>
	<path d="M416.3,146.2c1.7-0.2,3.3-0.3,4.8-0.5c1.5-0.2,3-0.2,4.6-0.2c1.9,0,3.9,0.2,5.8,0.6c1.9,0.4,3.7,1,5.2,1.9
		c1.5,0.9,2.8,2.2,3.7,3.8c1,1.6,1.4,3.6,1.4,6c0,1.3-0.2,2.5-0.5,3.5c-0.3,1-0.7,2-1.2,2.8c-0.5,0.8-1,1.5-1.6,2.1
		c-0.6,0.6-1.2,1.1-1.7,1.5l8.3,16.3c-0.8,0.1-1.8,0.2-2.8,0.3c-1,0.1-1.9,0.1-2.7,0.1c-0.7,0-1.5,0-2.5-0.1
		c-0.9-0.1-1.8-0.2-2.5-0.3l-7.5-17.3l0.5-0.3c0.4-0.2,0.9-0.6,1.4-1.1c0.5-0.5,1-1.1,1.4-1.8c0.4-0.7,0.8-1.5,1.1-2.3
		s0.5-1.7,0.5-2.6c0-1.8-0.5-3.1-1.5-3.9c-1-0.8-2.2-1.2-3.7-1.2c-0.4,0-0.7,0-0.9,0.1c-0.2,0-0.4,0.1-0.5,0.1V184
		c-1.9,0.3-3.4,0.5-4.6,0.5c-1.3,0-2.9-0.2-4.7-0.5V146.2z"/>
	<path d="M454.5,154.4h-8.9c-0.3-1.5-0.5-2.9-0.5-4.2c0-1.2,0.2-2.5,0.5-4.1h27.1c0.1,0.8,0.2,1.5,0.3,2.2c0.1,0.7,0.1,1.3,0.1,1.9
		c0,1.2-0.1,2.6-0.4,4.2h-8.9V184c-1.9,0.3-3.4,0.5-4.7,0.5c-1.3,0-2.9-0.2-4.7-0.5V154.4z"/>
</g>
<g>
	<path d="M534.4,112.4c0-3.4,0.5-6.5,1.4-9.3c0.9-2.8,2.3-5.2,4.1-7.2c1.8-2,4-3.5,6.7-4.6c2.7-1.1,5.7-1.6,9.2-1.6
		c3.5,0,6.6,0.5,9.3,1.6c2.7,1.1,4.9,2.6,6.7,4.6c1.8,2,3.2,4.4,4.1,7.2c0.9,2.8,1.4,5.9,1.4,9.3c0,3.3-0.5,6.4-1.4,9.1
		c-0.9,2.7-2.3,5.1-4.1,7.1c-1.8,2-4,3.5-6.7,4.5c-2.7,1.1-5.8,1.6-9.3,1.6c-3.5,0-6.6-0.5-9.2-1.6s-4.9-2.6-6.7-4.5
		c-1.8-2-3.2-4.3-4.1-7.1C534.8,118.7,534.4,115.7,534.4,112.4z M563,112.4c0-3.5-0.6-6.3-1.8-8.1c-1.2-1.9-3-2.8-5.4-2.8
		c-2.4,0-4.2,0.9-5.4,2.8c-1.2,1.9-1.7,4.6-1.7,8.1c0,3.5,0.6,6.2,1.7,8.1c1.2,1.9,3,2.8,5.4,2.8c2.4,0,4.3-0.9,5.4-2.8
		C562.4,118.5,563,115.9,563,112.4z"/>
	<path d="M584.4,90.8c2.6-0.3,5.3-0.6,8.1-0.8c2.8-0.2,5.4-0.3,7.9-0.3c6.7,0,11.7,1.3,15.1,3.8c3.4,2.5,5,6.1,5,10.6
		c0,1.7-0.2,3.2-0.6,4.5c-0.4,1.3-0.9,2.4-1.4,3.3c-0.6,0.9-1.1,1.6-1.7,2.2c-0.6,0.6-1.1,1-1.5,1.3l9.5,18.1
		c-1.1,0.2-2.3,0.4-3.7,0.5c-1.4,0.1-2.7,0.2-3.9,0.2c-1.6,0-3-0.1-4.5-0.2c-1.4-0.1-2.6-0.3-3.6-0.5l-9.2-19.6l1.2-0.7
		c1.9-1.1,3.3-2.3,4-3.5c0.7-1.2,1.1-2.6,1.1-4c0-1.4-0.4-2.6-1.3-3.5c-0.9-0.9-2.2-1.4-4.1-1.4c-1.1,0-1.9,0.1-2.4,0.2v32.7
		c-1.4,0.3-2.7,0.5-3.9,0.5c-1.2,0.1-2.2,0.1-3.1,0.1c-0.9,0-2,0-3.1-0.1c-1.1-0.1-2.4-0.3-3.8-0.5V90.8z"/>
</g>
<g>
	<path class="st2" d="M198.1,90.1c0,16.5,6.9,24.8,20.8,24.8c2.5,0,4.9-0.2,7.1-0.7c2.2-0.5,4.9-1.2,8.1-2.3
		c2.6,5.6,4.3,11.4,5.1,17.3c-2.3,0.9-4.4,1.6-6.3,2.1c-2,0.5-3.8,1-5.6,1.2c-1.8,0.3-3.6,0.5-5.3,0.6c-1.8,0.1-3.6,0.2-5.4,0.2
		c-6.6,0-12.5-1.1-17.5-3.2c-5-2.1-9.2-5.1-12.6-9c-3.4-3.8-5.9-8.4-7.7-13.7c-1.7-5.3-2.6-11.1-2.6-17.3c0-6.2,0.9-12,2.7-17.4
		c1.8-5.3,4.4-10,7.8-13.9c3.4-3.9,7.6-6.9,12.6-9.1c5-2.2,10.6-3.3,17-3.3c3.7,0,7.3,0.3,10.6,0.8c3.4,0.5,7.1,1.6,11.2,3.3
		c-0.2,3.2-0.7,6.3-1.8,9.3c-1,3-2.1,5.6-3.2,7.9c-1.6-0.5-3-1-4.3-1.4c-1.3-0.4-2.5-0.7-3.7-0.9c-1.2-0.2-2.3-0.4-3.5-0.5
		c-1.2-0.1-2.4-0.2-3.7-0.2c-6.3,0-11.2,2.1-14.7,6.4C199.9,75.4,198.1,81.7,198.1,90.1z"/>
	<path class="st2" d="M249.7,48.1c2.1-0.3,4-0.5,5.7-0.7c1.7-0.2,3.2-0.2,4.6-0.2c1.4,0,3,0.1,4.7,0.2c1.8,0.2,3.6,0.4,5.7,0.7v65.5
		h27c0.4,2,0.6,3.6,0.8,5.1c0.1,1.4,0.2,2.7,0.2,3.9c0,1.3-0.1,2.7-0.2,4.2c-0.1,1.4-0.4,3.2-0.8,5.2h-47.7V48.1z"/>
	<path class="st2" d="M317.6,132.7c-2.9,0-6.4-0.4-10.4-1.1V48.1c2.1-0.3,4-0.5,5.7-0.7c1.7-0.2,3.2-0.2,4.6-0.2
		c1.4,0,3,0.1,4.7,0.2c1.8,0.2,3.6,0.4,5.7,0.7v83.5C323.7,132.4,320.3,132.7,317.6,132.7z"/>
	<path class="st2" d="M361.6,90.1c0,16.5,6.9,24.8,20.8,24.8c2.5,0,4.9-0.2,7.1-0.7c2.2-0.5,4.9-1.2,8.1-2.3
		c2.6,5.6,4.3,11.4,5.1,17.3c-2.3,0.9-4.4,1.6-6.3,2.1c-2,0.5-3.8,1-5.6,1.2c-1.8,0.3-3.6,0.5-5.3,0.6c-1.8,0.1-3.6,0.2-5.4,0.2
		c-6.6,0-12.5-1.1-17.5-3.2c-5-2.1-9.2-5.1-12.6-9c-3.4-3.8-5.9-8.4-7.7-13.7c-1.7-5.3-2.6-11.1-2.6-17.3c0-6.2,0.9-12,2.7-17.4
		c1.8-5.3,4.4-10,7.8-13.9c3.4-3.9,7.6-6.9,12.6-9.1c5-2.2,10.6-3.3,17-3.3c3.7,0,7.3,0.3,10.6,0.8c3.4,0.5,7.1,1.6,11.2,3.3
		c-0.2,3.2-0.7,6.3-1.8,9.3c-1,3-2.1,5.6-3.2,7.9c-1.6-0.5-3-1-4.3-1.4c-1.3-0.4-2.5-0.7-3.7-0.9c-1.2-0.2-2.3-0.4-3.5-0.5
		c-1.2-0.1-2.4-0.2-3.7-0.2c-6.3,0-11.2,2.1-14.7,6.4C363.3,75.4,361.6,81.7,361.6,90.1z"/>
	<path class="st2" d="M413.2,48.1c2.1-0.3,4-0.5,5.7-0.7c1.7-0.2,3.2-0.2,4.6-0.2c1.4,0,3,0.1,4.7,0.2c1.8,0.2,3.6,0.4,5.7,0.7v83.5
		c-4.1,0.7-7.6,1.1-10.3,1.1c-2.9,0-6.4-0.4-10.4-1.1V48.1z M458.3,88.5l21.9,43.2c-1.3,0.3-3.1,0.6-5.3,0.8c-2.2,0.2-4.2,0.3-6,0.3
		c-2.3,0-4.4-0.1-6.6-0.3c-2.1-0.2-3.9-0.4-5.4-0.8l-21.4-42.1l19.8-41.4c2.3-0.4,4.4-0.6,6.1-0.8c1.7-0.1,3.5-0.2,5.3-0.2
		c0.9,0,1.8,0,2.9,0.1c1.1,0,2.2,0.1,3.2,0.2c1.1,0.1,2.1,0.2,3,0.4c1,0.1,1.8,0.2,2.5,0.3L458.3,88.5z"/>
	<path class="st2" d="M193.2,152.2h-8.9c-0.3-1.5-0.5-2.9-0.5-4.2c0-1.2,0.2-2.5,0.5-4.1h27.1c0.1,0.8,0.2,1.5,0.3,2.2
		c0.1,0.7,0.1,1.3,0.1,1.9c0,1.2-0.1,2.6-0.4,4.2h-8.9v29.7c-1.9,0.3-3.4,0.5-4.7,0.5c-1.3,0-2.9-0.2-4.7-0.5V152.2z"/>
	<path class="st2" d="M213.3,163.1c0-2.8,0.3-5.5,1-7.9c0.7-2.4,1.7-4.5,3-6.3c1.4-1.8,3.1-3.2,5.2-4.2s4.6-1.5,7.5-1.5
		c2.9,0,5.4,0.5,7.5,1.5s3.8,2.4,5.2,4.2c1.4,1.8,2.4,3.9,3,6.3c0.7,2.4,1,5,1,7.9c0,2.8-0.3,5.4-1,7.8c-0.7,2.4-1.7,4.5-3,6.2
		c-1.4,1.7-3.1,3.1-5.2,4.1c-2.1,1-4.6,1.5-7.5,1.5c-2.9,0-5.4-0.5-7.5-1.5c-2.1-1-3.8-2.3-5.2-4.1c-1.4-1.7-2.4-3.8-3-6.2
		C213.6,168.5,213.3,165.9,213.3,163.1z M236.7,163.1c0-7.7-2.2-11.6-6.7-11.6c-4.6,0-6.9,3.9-6.9,11.6c0,3.9,0.6,6.7,1.7,8.6
		c1.1,1.9,2.8,2.8,5.2,2.8C234.5,174.6,236.7,170.7,236.7,163.1z"/>
	<path class="st2" d="M263.6,144c1.7-0.2,3.3-0.3,4.8-0.5c1.5-0.2,3-0.2,4.6-0.2c1.9,0,3.9,0.2,5.8,0.6c1.9,0.4,3.7,1,5.2,1.9
		c1.5,0.9,2.8,2.2,3.7,3.8c1,1.6,1.4,3.6,1.4,6c0,1.3-0.2,2.5-0.5,3.5c-0.3,1-0.7,2-1.2,2.8c-0.5,0.8-1,1.5-1.6,2.1
		c-0.6,0.6-1.2,1.1-1.7,1.5l8.3,16.3c-0.8,0.1-1.8,0.2-2.8,0.3c-1,0.1-1.9,0.1-2.7,0.1c-0.7,0-1.5,0-2.5-0.1
		c-0.9-0.1-1.8-0.2-2.5-0.3l-7.5-17.3l0.5-0.3c0.4-0.2,0.9-0.6,1.4-1.1c0.5-0.5,1-1.1,1.4-1.8c0.4-0.7,0.8-1.5,1.1-2.3
		s0.5-1.7,0.5-2.6c0-1.8-0.5-3.1-1.5-3.9c-1-0.8-2.2-1.2-3.7-1.2c-0.4,0-0.7,0-0.9,0.1c-0.2,0-0.4,0.1-0.5,0.1v30.3
		c-1.9,0.3-3.4,0.5-4.6,0.5c-1.3,0-2.9-0.2-4.7-0.5V144z"/>
	<path class="st2" d="M316.4,162.2c0,1.2-0.2,2.6-0.5,4.1h-10.2v7.5H319c0.3,1.5,0.5,2.8,0.5,4c0,1.3-0.2,2.7-0.5,4.2h-22.7v-38.1
		h22.4c0.1,0.8,0.2,1.5,0.3,2.2c0.1,0.7,0.1,1.3,0.1,1.9c0,1.2-0.1,2.6-0.4,4.2h-13v5.8h10.2C316.2,159.6,316.4,161,316.4,162.2z"/>
	<path class="st2" d="M339,158.8c1.5,0.6,2.8,1.2,4,1.8c1.2,0.6,2.2,1.4,3,2.2c0.8,0.9,1.5,1.9,2,3.1c0.5,1.2,0.7,2.7,0.7,4.4
		c0,1.9-0.3,3.6-1,5.1c-0.7,1.5-1.6,2.8-2.9,3.9c-1.3,1.1-2.8,1.9-4.7,2.5c-1.9,0.6-4,0.9-6.4,0.9c-2.2,0-4.1-0.2-5.8-0.5
		c-1.7-0.4-3.5-0.9-5.4-1.6c0.1-1.2,0.4-2.6,0.7-3.9c0.4-1.4,0.8-2.8,1.3-4.3c3.3,1.4,6.1,2.1,8.5,2.1c1.8,0,3.2-0.3,4.2-0.8
		c1-0.5,1.5-1.5,1.5-2.8c0-0.6-0.1-1.1-0.3-1.5c-0.2-0.4-0.5-0.8-0.8-1c-0.4-0.3-0.8-0.5-1.2-0.7c-0.4-0.2-0.9-0.4-1.4-0.6l-3-1.1
		c-1.3-0.5-2.4-1-3.5-1.6c-1-0.6-1.9-1.4-2.7-2.3c-0.7-0.9-1.3-1.9-1.7-3c-0.4-1.1-0.6-2.5-0.6-4c0-1.9,0.3-3.5,1-5
		c0.6-1.4,1.5-2.7,2.7-3.7c1.1-1,2.5-1.8,4.2-2.3c1.6-0.5,3.4-0.8,5.5-0.8c1.8,0,3.5,0.2,5.2,0.5c1.7,0.4,3.5,0.9,5.4,1.5
		c-0.1,1.1-0.4,2.4-0.8,3.7c-0.4,1.4-0.8,2.6-1.4,3.8c-0.9-0.4-2-0.8-3.2-1.2c-1.2-0.4-2.8-0.6-4.6-0.6c-0.6,0-1.1,0.1-1.6,0.2
		c-0.5,0.1-1,0.3-1.4,0.5c-0.4,0.2-0.7,0.5-1,1c-0.2,0.4-0.4,0.9-0.4,1.5c0,1,0.3,1.8,1,2.3c0.7,0.5,1.5,0.9,2.4,1.3L339,158.8z"/>
	<path class="st2" d="M359.7,152.2h-8.9c-0.3-1.5-0.5-2.9-0.5-4.2c0-1.2,0.2-2.5,0.5-4.1h27.1c0.1,0.8,0.2,1.5,0.3,2.2
		c0.1,0.7,0.1,1.3,0.1,1.9c0,1.2-0.1,2.6-0.4,4.2h-8.9v29.7c-1.9,0.3-3.4,0.5-4.7,0.5c-1.3,0-2.9-0.2-4.7-0.5V152.2z"/>
	<path class="st2" d="M383.8,181.9c-0.8,0.1-1.6,0.2-2.2,0.3c-0.7,0.1-1.3,0.1-2,0.1s-1.4,0-2.2-0.1c-0.8-0.1-1.8-0.2-2.8-0.4
		l11.9-37.8c0.9-0.1,1.8-0.2,2.6-0.3c0.8-0.1,1.6-0.1,2.4-0.1c0.7,0,1.4,0,2.2,0.1c0.8,0.1,1.7,0.2,2.7,0.3l11.7,37.9
		c-2,0.3-3.8,0.5-5.3,0.5c-0.7,0-1.4,0-2.1-0.1c-0.7-0.1-1.5-0.2-2.3-0.3l-2-7.4c-1,0.3-1.9,0.5-2.8,0.6c-0.9,0.1-1.8,0.2-2.7,0.2
		c-0.8,0-1.6-0.1-2.5-0.2c-0.8-0.1-1.7-0.3-2.7-0.6L383.8,181.9z M391.2,153.9l-3.6,13.6c0.6,0.2,1.2,0.3,1.7,0.4s1.1,0.2,1.6,0.2
		c0.6,0,1.2,0,1.8-0.1c0.6-0.1,1.2-0.2,1.8-0.4L391.2,153.9z"/>
	<path class="st2" d="M411.6,144c1.7-0.2,3.3-0.3,4.8-0.5c1.5-0.2,3-0.2,4.6-0.2c1.9,0,3.9,0.2,5.8,0.6c1.9,0.4,3.7,1,5.2,1.9
		c1.5,0.9,2.8,2.2,3.7,3.8c1,1.6,1.4,3.6,1.4,6c0,1.3-0.2,2.5-0.5,3.5c-0.3,1-0.7,2-1.2,2.8c-0.5,0.8-1,1.5-1.6,2.1
		c-0.6,0.6-1.2,1.1-1.7,1.5l8.3,16.3c-0.8,0.1-1.8,0.2-2.8,0.3c-1,0.1-1.9,0.1-2.7,0.1c-0.7,0-1.5,0-2.5-0.1
		c-0.9-0.1-1.8-0.2-2.5-0.3l-7.5-17.3l0.5-0.3c0.4-0.2,0.9-0.6,1.4-1.1c0.5-0.5,1-1.1,1.4-1.8c0.4-0.7,0.8-1.5,1.1-2.3
		s0.5-1.7,0.5-2.6c0-1.8-0.5-3.1-1.5-3.9c-1-0.8-2.2-1.2-3.7-1.2c-0.4,0-0.7,0-0.9,0.1c-0.2,0-0.4,0.1-0.5,0.1v30.3
		c-1.9,0.3-3.4,0.5-4.6,0.5c-1.3,0-2.9-0.2-4.7-0.5V144z"/>
	<path class="st2" d="M449.9,152.2H441c-0.3-1.5-0.5-2.9-0.5-4.2c0-1.2,0.2-2.5,0.5-4.1h27.1c0.1,0.8,0.2,1.5,0.3,2.2
		c0.1,0.7,0.1,1.3,0.1,1.9c0,1.2-0.1,2.6-0.4,4.2h-8.9v29.7c-1.9,0.3-3.4,0.5-4.7,0.5c-1.3,0-2.9-0.2-4.7-0.5V152.2z"/>
</g>
<g>
	<path class="st2" d="M530.4,110.2c0-3.4,0.5-6.5,1.4-9.3c0.9-2.8,2.3-5.2,4.1-7.2c1.8-2,4-3.5,6.7-4.6c2.7-1.1,5.7-1.6,9.2-1.6
		c3.5,0,6.6,0.5,9.3,1.6c2.7,1.1,4.9,2.6,6.7,4.6c1.8,2,3.2,4.4,4.1,7.2c0.9,2.8,1.4,5.9,1.4,9.3c0,3.3-0.5,6.4-1.4,9.1
		s-2.3,5.1-4.1,7.1c-1.8,2-4,3.5-6.7,4.5s-5.8,1.6-9.3,1.6c-3.5,0-6.6-0.5-9.2-1.6s-4.9-2.6-6.7-4.5c-1.8-2-3.2-4.3-4.1-7.1
		C530.8,116.6,530.4,113.5,530.4,110.2z M559,110.2c0-3.5-0.6-6.3-1.8-8.1c-1.2-1.9-3-2.8-5.4-2.8c-2.4,0-4.2,0.9-5.4,2.8
		c-1.2,1.9-1.7,4.6-1.7,8.1c0,3.5,0.6,6.2,1.7,8.1c1.2,1.9,3,2.8,5.4,2.8c2.4,0,4.3-0.9,5.4-2.8C558.4,116.4,559,113.7,559,110.2z"
		/>
	<path class="st2" d="M580.4,88.7c2.6-0.3,5.3-0.6,8.1-0.8c2.8-0.2,5.4-0.3,7.9-0.3c6.7,0,11.7,1.3,15.1,3.8c3.4,2.5,5,6.1,5,10.6
		c0,1.7-0.2,3.2-0.6,4.5c-0.4,1.3-0.9,2.4-1.4,3.3c-0.6,0.9-1.1,1.6-1.7,2.2c-0.6,0.6-1.1,1-1.5,1.3l9.5,18.1
		c-1.1,0.2-2.3,0.4-3.7,0.5c-1.4,0.1-2.7,0.2-3.9,0.2c-1.6,0-3-0.1-4.5-0.2c-1.4-0.1-2.6-0.3-3.6-0.5l-9.2-19.6l1.2-0.7
		c1.9-1.1,3.3-2.3,4-3.5c0.7-1.2,1.1-2.6,1.1-4c0-1.4-0.4-2.6-1.3-3.5c-0.9-0.9-2.2-1.4-4.1-1.4c-1.1,0-1.9,0.1-2.4,0.2v32.7
		c-1.4,0.3-2.7,0.5-3.9,0.5c-1.2,0.1-2.2,0.1-3.1,0.1c-0.9,0-2,0-3.1-0.1c-1.1-0.1-2.4-0.3-3.8-0.5V88.7z"/>
</g>
</svg>
